<svg xmlns="http://www.w3.org/2000/svg" id="Customer16Icon" viewBox="0 0 32 32"><path fill="#a3d86b" d="M22.6 22.9l-3-1c-.4 2.4-4.6 4.2-4.6 4.2s-4.1-1.9-4.6-4.2l-3 1c-1.7.6-2.9 2.2-2.9 4v3.7h21v-3.7c0-1.9-1.2-3.5-2.9-4z"></path><path fill="#64bc50" d="M25.5 30.5v-3.7c0-.8-.2-1.5-.6-2.2-2.5.3-4.4 2.4-4.4 5v.8h5zM4.5 30.5v-3.7c0-.8.2-1.5.6-2.2 2.5.3 4.4 2.4 4.4 5v.8h-5z"></path><path fill="#a17852" d="M12.1 20.4c-1.2-.1-2.3-.4-3.5-.7l-1.1-.3V11c0-4.1 3.4-7.5 7.5-7.5s7.5 3.4 7.5 7.5v8.5l-1.1.3c-1.2.3-2.3.5-3.5.7"></path><path fill="#fed8aa" d="M10.4 21.9zM19.6 21.9zM17.9 17.7H12v3.6l-1.6.5C10.8 24.2 15 26 15 26s4.1-1.9 4.6-4.2l-1.6-.5v-3.6zM10.4 21.8z"></path><path fill="#40455a" d="M10.4 22.3c-.2 0-.4-.1-.5-.3v-.2c0-.2.1-.4.3-.5.3-.1.5.1.6.3v.2c0 .2-.1.4-.3.5h-.1z"></path><path fill="#fed8aa" d="M19.6 21.8z"></path><path fill="#40455a" d="M19.6 22.3h-.2c-.2-.1-.3-.3-.3-.5v-.2c.1-.3.4-.4.6-.3.2.1.3.3.3.5v.2c0 .2-.2.3-.4.3z"></path><path fill="#fed8aa" d="M17.9 17.7H12v3.6l-1.6.5C10.9 24.2 15 26 15 26s4.1-1.9 4.6-4.2l-1.6-.5v-3.6z"></path><path fill="#40455a" d="M15 26.5h-.2c-.2-.1-4.4-2-4.9-4.6 0-.2.1-.5.3-.6l1.3-.4v-3.2c0-.3.2-.5.5-.5h5.9c.3 0 .5.2.5.5v3.2l1.3.4c.2.1.4.3.3.6-.5 2.6-4.7 4.5-4.9 4.6H15zm-4-4.4c.6 1.5 2.9 2.8 4 3.3 1.1-.5 3.3-1.9 4-3.3l-1.2-.4c-.2-.1-.3-.3-.3-.5v-3.1h-4.9v3.1c0 .2-.1.4-.3.5l-1.3.4z"></path><path fill="#fed8aa" d="M8.5 11.5c-.6 0-1 .4-1 1v1c0 .6.4 1 1 1h1v-3h-1zM21.5 11.5h-1v3h1c.6 0 1-.4 1-1v-1c0-.6-.4-1-1-1z"></path><g><path fill="#fed8aa" d="M13.5 11.5c-1.1 0-2-.9-2-2 0 1.1-.9 2-2 2V14c0 3 2.5 5.5 5.5 5.5s5.5-2.5 5.5-5.5v-2.5h-7z"></path></g><g><path fill="#fff" d="M29.5 1.5h-4c-.6 0-1 .4-1 1v7c0 .6.4 1 1 1h1v2l2-2h1c.6 0 1-.4 1-1v-7c0-.6-.4-1-1-1zM1.5 1.5h8c.6 0 1 .4 1 1v4c0 .6-.4 1-1 1h-1v2l-3-2h-4c-.6 0-1-.4-1-1v-4c0-.6.4-1 1-1zM30.5 22.5h-5c-.6 0-1-.4-1-1v-4c0-.6.4-1 1-1h1v-2l3 2h1c.6 0 1 .4 1 1v4c0 .6-.4 1-1 1z"></path><path fill="#40455a" d="M29.5 19h-3c-.3 0-.5-.2-.5-.5s.2-.5.5-.5h3c.3 0 .5.2.5.5s-.2.5-.5.5zM28.5 21h-2c-.3 0-.5-.2-.5-.5s.2-.5.5-.5h2c.3 0 .5.2.5.5s-.2.5-.5.5zM8.5 4h-6c-.3 0-.5-.2-.5-.5s.2-.5.5-.5h6c.3 0 .5.2.5.5s-.2.5-.5.5zM6.5 6h-4c-.3 0-.5-.2-.5-.5s.2-.5.5-.5h4c.3 0 .5.2.5.5s-.2.5-.5.5zM15 20c-3.3 0-6-2.7-6-6v-2.1c0-.3.2-.5.5-.5s.5.2.5.5V14c0 2.8 2.2 5 5 5s5-2.2 5-5v-2.1c0-.3.2-.5.5-.5s.5.2.5.5V14c0 3.3-2.7 6-6 6zM25.5 31h-21c-.3 0-.5-.2-.5-.5v-3.7c0-2 1.3-3.8 3.2-4.5l4.6-1.5c.3-.1.5.1.6.3s-.1.5-.3.6l-4.6 1.5c-1.5.6-2.5 2-2.5 3.6V30h20v-3.2c0-1.6-1-3-2.5-3.5l-4.7-1.6c-.3-.1-.4-.4-.3-.6.1-.3.4-.4.6-.3l4.7 1.6c1.9.6 3.2 2.4 3.2 4.5v3.7c0 .2-.2.4-.5.4z"></path><path fill="#40455a" d="M25.5 31h-5c-.3 0-.5-.2-.5-.5v-.8c0-2.8 2.1-5.2 4.9-5.5.2 0 .4.1.5.2.4.7.7 1.6.7 2.4v3.7c-.1.3-.3.5-.6.5zM21 30h4v-3.2c0-.5-.1-1.1-.4-1.6-2.1.4-3.7 2.3-3.7 4.5v.3zM9.5 31h-5c-.3 0-.5-.2-.5-.5v-3.7c0-.8.2-1.7.7-2.4.1-.2.3-.3.5-.2 2.8.3 4.9 2.7 4.9 5.5v.8c-.1.3-.3.5-.6.5zM5 30h4v-.3c0-2.2-1.6-4-3.7-4.5-.2.5-.3 1.1-.3 1.6V30zM9.5 15h-1c-.8 0-1.5-.7-1.5-1.5v-1c0-.8.7-1.5 1.5-1.5H9c.3 0 .5.2.5.5s-.2.5-.5.5h-.5c-.3 0-.5.2-.5.5v1c0 .3.2.5.5.5H9v-1c0-.3.2-.5.5-.5s.5.2.5.5v1.5c0 .3-.2.5-.5.5zM21.5 15h-1c-.3 0-.5-.2-.5-.5V13c0-.3.2-.5.5-.5s.5.2.5.5v1h.5c.3 0 .5-.2.5-.5v-1c0-.3-.2-.5-.5-.5h-1c-.3 0-.5-.2-.5-.5s.2-.5.5-.5h1c.8 0 1.5.7 1.5 1.5v1c0 .8-.7 1.5-1.5 1.5z"></path><path fill="#40455a" d="M9.5 12h-1c-.3 0-.5-.2-.5-.5s.2-.5.5-.5h1c.8 0 1.5-.7 1.5-1.5v-1c0-.3.2-.5.5-.5s.5.2.5.5v1c0 1.4-1.1 2.5-2.5 2.5z"></path><path fill="#40455a" d="M20.5 12h-7c-1.4 0-2.5-1.1-2.5-2.5v-1c0-.3.2-.5.5-.5s.5.2.5.5v1c0 .8.7 1.5 1.5 1.5h7c.3 0 .5.2.5.5s-.2.5-.5.5zM26.5 13h-.2c-.2-.1-.3-.3-.3-.5V11h-.5c-.8 0-1.5-.7-1.5-1.5v-7c0-.8.7-1.5 1.5-1.5h4c.8 0 1.5.7 1.5 1.5v7c0 .8-.7 1.5-1.5 1.5h-.8l-1.9 1.9s-.2.1-.3.1zm-1-11c-.3 0-.5.2-.5.5v7c0 .3.2.5.5.5h1c.3 0 .5.2.5.5v.8l1.1-1.1c.1-.1.2-.1.4-.1h1c.3 0 .5-.2.5-.5v-7c0-.4-.2-.6-.5-.6h-4zM8.5 10c-.1 0-.2 0-.3-.1L5.3 8H1.5C.7 8 0 7.3 0 6.5v-4C0 1.7.7 1 1.5 1h8c.8 0 1.5.7 1.5 1.5v4c0 .8-.7 1.5-1.5 1.5H9v1.5c0 .2-.1.4-.3.4 0 .1-.1.1-.2.1zm-7-8c-.3 0-.5.2-.5.5v4c0 .3.2.5.5.5h4c.1 0 .2 0 .3.1L8 8.6V7.5c0-.3.2-.5.5-.5h1c.3 0 .5-.2.5-.5v-4c0-.3-.2-.5-.5-.5h-8z"></path><path fill="#40455a" d="M17.9 20.9c-.2 0-.5-.2-.5-.4 0-.3.2-.5.4-.6 1.2-.1 2.3-.4 3.4-.7l.7-.2v-8c0-3.9-3.1-7-7-7-1.4 0-2.8.4-4 1.3v1.2c.1.8-.6 1.5-1.4 1.5H9v1.5c0 .2-.1.4-.3.4-.1.1-.3.1-.5 0l-.1-.1c-.1.4-.1.8-.1 1.2v8.1l.7.2c1.1.3 2.3.5 3.4.7.3 0 .5.3.4.6 0 .3-.3.5-.6.4-1.2-.1-2.4-.4-3.6-.7l-.9-.3c-.2-.1-.4-.3-.4-.5V11c0-.7.1-1.4.3-2.1 0-.2.2-.3.3-.3H8V7.5c0-.3.2-.5.5-.5h1c.3 0 .5-.2.5-.5V5c0-.2.1-.3.2-.4C11.6 3.6 13.3 3 15 3c4.4 0 8 3.6 8 8v8.5c0 .2-.2.4-.4.5l-1.1.3c-1.1.2-2.3.5-3.6.6.1 0 .1 0 0 0zM30.5 23h-5c-.8 0-1.5-.7-1.5-1.5v-4c0-.8.7-1.5 1.5-1.5h.5v-1.5c0-.2.1-.4.3-.4.2-.1.4-.1.5 0l2.9 1.9h.8c.8 0 1.5.7 1.5 1.5v4c0 .8-.7 1.5-1.5 1.5zm-5-6c-.3 0-.5.2-.5.5v4c0 .3.2.5.5.5h5c.3 0 .5-.2.5-.5v-4c0-.3-.2-.5-.5-.5h-1c-.1 0-.2 0-.3-.1L27 15.4v1.1c0 .3-.2.5-.5.5h-1zM27.5 7c-.3 0-.5-.2-.5-.5v-.3c0-.6.3-1 .7-1.3.2 0 .3-.2.3-.4 0-.3-.2-.5-.5-.5s-.5.2-.5.5-.2.5-.5.5-.5-.2-.5-.5c0-.8.7-1.5 1.5-1.5s1.5.7 1.5 1.5c0 .6-.3 1.1-.8 1.3-.1.1-.2.2-.2.4v.3c0 .3-.2.5-.5.5zM27.5 9c-.3 0-.5-.2-.5-.5s.2-.5.5-.5.5.2.5.5-.2.5-.5.5z"></path></g></svg>