<svg
  version="1.0"
  xmlns="http://www.w3.org/2000/svg"
  width="176.000000pt"
  height="183.000000pt"
  viewBox="0 0 176.000000 183.000000"
  preserveAspectRatio="xMidYMid meet"
  style="width:15px;height:15px"
  id="NormalEmoji"
>
  <g
    transform="translate(0.000000,183.000000) scale(0.100000,-0.100000)"
    stroke="none"
  >
    <path d="M706 1814 c-173 -37 -302 -109 -432 -238 -360 -359 -368 -933 -18 -1305 279 -296 716 -357 1069 -149 97 58 239 202 299 303 219 375 172 824 -120 1134 -127 135 -275 218 -456 255 -95 20 -250 19 -342 0z m369 -79 c279 -77 501 -304 587 -600 20 -68 23 -103 23 -235 0 -182 -17 -258 -90 -400 -85 -163 -190 -268 -350 -345 -527 -257 -1136 118 -1172 721 -25 430 233 783 637 870 82 17 282 11 365 -11z"></path>
    <path d="M495 1261 c-86 -21 -166 -101 -144 -143 15 -27 34 -22 64 18 45 59 124 80 183 50 15 -8 42 -30 60 -50 36 -40 44 -43 62 -21 29 34 -43 116 -123 140 -55 16 -58 16 -102 6z"></path>
    <path d="M1175 1261 c-50 -13 -93 -39 -119 -74 -29 -38 -34 -72 -11 -81 22 -8 38 1 56 32 19 33 74 62 117 62 48 0 82 -17 122 -61 60 -66 99 -24 44 48 -44 57 -139 91 -209 74z"></path>
    <path d="M640 550 l0 -30 240 0 240 0 0 30 0 30 -240 0 -240 0 0 -30z"></path>
  </g>
</svg>
