<svg xmlns="http://www.w3.org/2000/svg" version="1.1" x="0px" y="0px" viewBox="0 0 48 48" xml:space="preserve"><style type="text/css">.st0{fill:#FFD4C3;stroke:#504B46;stroke-linecap:round;stroke-linejoin:round;stroke-miterlimit:10;} .st1{fill:#FFC258;} .st2{fill:#4F4B45;} .st3{fill:#FABFA5;} .st4{fill:none;stroke:#504B46;stroke-linecap:round;stroke-linejoin:round;stroke-miterlimit:10;} .Graphic_x0020_Style{opacity:0.15;fill:#45413C;} .st5{opacity:0.15;fill:#45413C;} .st6{fill:#DEBB7E;stroke:#45413C;stroke-linecap:round;stroke-linejoin:round;stroke-miterlimit:10;} .st7{fill:#F0D5A8;} .st8{fill:#F7E5C6;} .st9{fill:#DEBB7E;} .st10{fill:none;stroke:#45413C;stroke-linecap:round;stroke-linejoin:round;stroke-miterlimit:10;} .st11{fill:#FFE500;} .st12{fill:#EBCB00;} .st13{fill:none;stroke:#EBCB00;stroke-linecap:round;stroke-linejoin:round;stroke-miterlimit:10;} .st14{fill:#FF6242;stroke:#45413C;stroke-linecap:round;stroke-linejoin:round;stroke-miterlimit:10;} .st15{fill:#FFFFFF;stroke:#45413C;stroke-linecap:round;stroke-linejoin:round;stroke-miterlimit:10;} .st16{fill:#E5F8FF;} .st17{fill:#FFFFFF;} .st18{fill:#E8F4FA;} .st19{fill:#E8F4FA;stroke:#45413C;stroke-linecap:round;stroke-linejoin:round;stroke-miterlimit:10;} .st20{fill:#FFCCDD;} .st21{fill:#FFB0CA;stroke:#45413C;stroke-linecap:round;stroke-linejoin:round;stroke-miterlimit:10;} .st22{fill:#FF87AF;stroke:#45413C;stroke-linecap:round;stroke-linejoin:round;stroke-miterlimit:10;} .st23{fill:#E5F8FF;stroke:#45413C;stroke-linecap:round;stroke-linejoin:round;stroke-miterlimit:10;} .st24{fill:#BF8256;stroke:#45413C;stroke-linecap:round;stroke-linejoin:round;stroke-miterlimit:10;} .st25{fill:#9CEB60;} .st26{fill:#6DD627;} .st27{fill:#C8FFA1;} .st28{fill:#FFFACF;} .st29{fill:#FF87AF;} .st30{fill:#FFB0CA;} .st31{fill:#FF6196;} .st32{fill:#FFCCDD;stroke:#45413C;stroke-linecap:round;stroke-linejoin:round;stroke-miterlimit:10;} .st33{fill:#FF6196;stroke:#45413C;stroke-linecap:round;stroke-linejoin:round;stroke-miterlimit:10;} .st34{fill:#FFE5EE;} .st35{fill:#00B8F0;} .st36{fill:#4ACFFF;} .st37{fill:#BF8256;} .st38{fill:#DEA47A;} .st39{fill:#915E3A;} .st40{fill:#FFF5E3;} .st41{fill:#F0F0F0;} .st42{fill:#8CA4B8;} .st43{fill:#627B8C;} .st44{fill:#C0DCEB;} .st45{fill:#FFF48C;} .st46{fill:#FFE500;stroke:#45413C;stroke-linecap:round;stroke-linejoin:round;stroke-miterlimit:10;} .st47{fill:#FFAA54;} .st48{fill:#6DD627;stroke:#45413C;stroke-linecap:round;stroke-linejoin:round;stroke-miterlimit:10;} .st49{fill:#FF8A14;} .st50{fill:#FFCC99;} .st51{fill:#EBCB00;stroke:#45413C;stroke-linecap:round;stroke-linejoin:round;stroke-miterlimit:10;} .st52{fill:#00F5BC;stroke:#45413C;stroke-linecap:round;stroke-linejoin:round;stroke-miterlimit:10;} .st53{fill:#BF8DF2;stroke:#45413C;stroke-linecap:round;stroke-linejoin:round;stroke-miterlimit:10;} .st54{fill:#FF8A14;stroke:#45413C;stroke-linecap:round;stroke-linejoin:round;stroke-miterlimit:10;} .st55{fill:#4AEFF7;stroke:#45413C;stroke-linecap:round;stroke-linejoin:round;stroke-miterlimit:10;} .st56{fill:#FFF48C;stroke:#45413C;stroke-linecap:round;stroke-linejoin:round;stroke-miterlimit:10;} .st57{fill:#FF6242;} .st58{fill:#E04122;} .st59{fill:#46B000;} .st60{fill:none;stroke:#45413C;stroke-miterlimit:10;} .st61{fill:#00B8F0;stroke:#45413C;stroke-linecap:round;stroke-linejoin:round;stroke-miterlimit:10;} .st62{fill:#FF866E;} .st63{fill:#9F5AE5;stroke:#45413C;stroke-linecap:round;stroke-linejoin:round;stroke-miterlimit:10;} .st64{fill:#E4FFD1;} .st65{fill:#FFFEF2;} .st66{fill:#B89558;} .st67{fill:none;stroke:#915E3A;stroke-linecap:round;stroke-linejoin:round;stroke-miterlimit:10;} .st68{fill:#915E3A;stroke:#45413C;stroke-linecap:round;stroke-linejoin:round;stroke-miterlimit:10;} .st69{fill:#BF8DF2;} .st70{fill:#9F5AE5;} .st71{fill:#DABFF5;} .st72{fill:none;stroke:#45413C;stroke-linejoin:round;stroke-miterlimit:10;} .st73{fill:#656769;} .st74{fill:#87898C;} .st75{fill:#E0E0E0;} .st76{fill:#BDBEC0;} .st77{fill:#656769;stroke:#45413C;stroke-linecap:round;stroke-linejoin:round;stroke-miterlimit:10;} .st78{fill:#45413C;stroke:#45413C;stroke-linecap:round;stroke-linejoin:round;stroke-miterlimit:10;} .st79{fill:#FFA694;} .st80{fill:#E04122;stroke:#45413C;stroke-linecap:round;stroke-linejoin:round;stroke-miterlimit:10;} .st81{fill:#E0E0E0;stroke:#45413C;stroke-linecap:round;stroke-linejoin:round;stroke-miterlimit:10;} .st82{fill:#F0F0F0;stroke:#45413C;stroke-linecap:round;stroke-linejoin:round;stroke-miterlimit:10;} .st83{fill:#DAEDF7;} .st84{fill:#BDBEC0;stroke:#45413C;stroke-linecap:round;stroke-linejoin:round;stroke-miterlimit:10;} .st85{fill:#87898C;stroke:#45413C;stroke-linecap:round;stroke-linejoin:round;stroke-miterlimit:10;} .st86{fill:#00DFEB;} .st87{fill:#4AEFF7;} .st88{fill:#DAEDF7;stroke:#45413C;stroke-linecap:round;stroke-linejoin:round;stroke-miterlimit:10;} .st89{fill:#FFDA8F;} .st90{fill:#FFBE3D;} .st91{fill:#FFE9BD;} .st92{fill:#DEA47A;stroke:#45413C;stroke-linecap:round;stroke-linejoin:round;stroke-miterlimit:10;} .st93{fill:#45413C;} .st94{fill:#F0C2A1;} .st95{fill:none;stroke:#45413C;stroke-width:1.0064;stroke-linecap:round;stroke-linejoin:round;stroke-miterlimit:10;} .st96{fill:#525252;} .st97{fill:#EB6D00;stroke:#45413C;stroke-linecap:round;stroke-linejoin:round;stroke-miterlimit:10;} .st98{fill:#EB6D00;} .st99{fill:#E5FEFF;} .st100{fill:#FF866E;stroke:#45413C;stroke-linecap:round;stroke-linejoin:round;stroke-miterlimit:10;} .st101{fill:#627B8C;stroke:#45413C;stroke-linecap:round;stroke-linejoin:round;stroke-miterlimit:10;} .st102{fill:#FFFCE5;stroke:#45413C;stroke-linecap:round;stroke-linejoin:round;stroke-miterlimit:10;} .st103{fill:#A6FBFF;} .st104{fill:#D9FDFF;} .st105{fill:#FFFACF;stroke:#45413C;stroke-linecap:round;stroke-linejoin:round;stroke-miterlimit:10;} .st106{fill:#B8ECFF;} .st107{fill:#FFCABF;} .st108{fill:#E5FFF9;} .st109{fill:#C8FFA1;stroke:#45413C;stroke-linecap:round;stroke-linejoin:round;stroke-miterlimit:10;} .st110{fill:#4CF4FC;} .st111{fill:#F0D5A8;stroke:#45413C;stroke-linecap:round;stroke-linejoin:round;stroke-miterlimit:10;} .st112{fill:#FFDCD1;stroke:#45413C;stroke-linecap:round;stroke-linejoin:round;stroke-miterlimit:10;} .st113{fill:#80DDFF;} .st114{fill:#46B000;stroke:#45413C;stroke-linecap:round;stroke-linejoin:round;stroke-miterlimit:10;} .st115{fill:#4ACFFF;stroke:#45413C;stroke-linecap:round;stroke-linejoin:round;stroke-miterlimit:10;} .st116{fill:#ADC4D9;} .st117{fill:#BDBEC0;stroke:#45413C;stroke-width:1.0064;stroke-linecap:round;stroke-linejoin:round;stroke-miterlimit:10;} .st118{fill:#FFFCE5;} .st119{fill:#947746;} .st120{fill:#525252;stroke:#45413C;stroke-linecap:round;stroke-linejoin:round;stroke-miterlimit:10;}</style><symbol id="New_Symbol_14" viewBox="-6.5 -6.5 13 13"><path class="st0" d="M0-6c2.2 0 4.1 1.5 4.7 3.5C6.3-2.5 6.4 0 5 0v1c0 2.8-2.2 5-5 5s-5-2.2-5-5V0c-1.4 0-1.3-2.5.2-2.5C-4.1-4.5-2.2-6 0-6z" fill="#FFD4C3" stroke="#504B46" stroke-linecap="round" stroke-linejoin="round" stroke-miterlimit="10"/><circle class="st1" cx="-1.6" cy="-0.1" r="0.1" fill="#FFC258"/><path class="st2" d="M-1.6.5c-.3 0-.6-.3-.6-.6s.2-.7.6-.7c.3 0 .6.3.6.7s-.3.6-.6.6z" fill="#4F4B45"/><circle class="st1" cx="1.6" cy="-0.1" r="0.1" fill="#FFC258"/><path class="st2" d="M1.6.5C1.3.5 1 .2 1-.1s.3-.6.6-.6.6.3.6.6-.2.6-.6.6z" fill="#4F4B45"/><circle class="st3" cx="-3" cy="-1.5" r="0.5" fill="#FABFA5"/><circle class="st3" cx="3" cy="-1.5" r="0.5" fill="#FABFA5"/><path class="st4" d="M-1.2-3c.8-.5 1.7-.5 2.5 0" fill="none" stroke="#504B46" stroke-linecap="round" stroke-linejoin="round" stroke-miterlimit="10"/></symbol><g id="Icons"><g id="XMLID_1897_"><ellipse id="XMLID_1001_" class="st5" cx="25.1" cy="44.7" rx="15.3" ry="1.8" fill="#45413C" opacity="0.15"/><path id="XMLID_946_" class="st57" d="M19.4 7.1l-3.8 1.8c-11 5.2-12 20.7-1.5 26.9.1 0 .2.1.3.1l12.9 7.3c4.5 2.6 10.2-.1 11.1-5.2L41 23.4c.1-.5.2-1 .2-1.5C42.3 10.3 29.9 2.1 19.4 7.1z" fill="#FF6242"/><path id="XMLID_944_" class="st62" d="M15.6 14.3l3.8-1.8C28.6 8.2 39.2 14 41 23.2c.1-.4.1-.9.2-1.3C42.3 10.3 29.9 2.1 19.4 7.1l-3.8 1.8C8.8 12 5.9 19.1 7 25.6c.8-4.7 3.7-9 8.6-11.3z" fill="#FF866E"/><path id="XMLID_939_" class="st10" d="M19.4 7.1l-3.8 1.8c-11 5.2-12 20.7-1.5 26.9.1 0 .2.1.3.1l12.9 7.3c4.5 2.6 10.2-.1 11.1-5.2L41 23.4c.1-.5.2-1 .2-1.5C42.3 10.3 29.9 2.1 19.4 7.1z" fill="none" stroke="#45413C" stroke-linecap="round" stroke-linejoin="round" stroke-miterlimit="10"/><path id="XMLID_938_" class="st26" d="M28.3 9.4l-1.4-1.3c-.3-.3-.3-.8 0-1.1l1-1c.5-.5.1-1.3-.6-1.3l-1.4.1c-.4 0-.8-.3-.8-.7L25 2.2c0-.6-.7-.9-1.2-.6l-4.3 3.3c-.2.2-.5.2-.8.1l-1.1-.5c-.5-.6-.8-1.1-1-1.4-.5-1-2.8.2-2.3 1.1.1.3.3 1.1.4 2l-.4.8c-.1.3-.3.5-.6.5L8.4 8.8c-.6.1-.8.9-.3 1.3l1.4 1.3c.3.3.3.8 0 1.1l-1 1c-.5.5-.1 1.3.6 1.3l1.4-.1c.4 0 .8.3.8.7l.1 1.9c0 .6.7.9 1.2.6l4.3-3.3c.2-.2.5-.2.8-.1l2.5 1.1c.4.2.9 0 1-.5l.8-2.6c.1-.3.3-.5.6-.5l5.3-1.2c.7-.3.9-1 .4-1.4z" fill="#6DD627"/><g id="XMLID_936_"><path id="XMLID_937_" class="st25" d="M28 10.7l-3.2.8c-.1-.3-.1-.6.1-.9l1-1c.5-.5.1-1.3-.6-1.3l-1.4.1c-.5 0-.9-.4-.9-.8l-.1-1.9c0-.6-.7-.9-1.2-.6l-1.8 1.4c-.9-.5-1.7-1.3-2.4-2.1l1.1.6c.2.1.5.1.8-.1l4.3-3.3c.5-.4 1.2 0 1.2.5l.1 2c0 .4.4.7.8.7l1.4-.1c.7 0 1.1.8.6 1.3l-1 1.1c-.3.3-.3.8 0 1.1l1.4 1.3c.6.3.4 1-.2 1.2z" fill="#9CEB60"/></g><ellipse id="XMLID_910_" transform="matrix(0.9053 -0.4248 0.4248 0.9053 -9.337 7.7646)" class="st80" cx="12.7" cy="24.8" rx="1.5" ry="2.6" fill="#E04122" stroke="#45413C" stroke-linecap="round" stroke-linejoin="round" stroke-miterlimit="10"/><ellipse id="XMLID_909_" transform="matrix(0.9053 -0.4248 0.4248 0.9053 -11.2549 11.7454)" class="st80" cx="20.7" cy="31.1" rx="1.5" ry="2.6" fill="#E04122" stroke="#45413C" stroke-linecap="round" stroke-linejoin="round" stroke-miterlimit="10"/><ellipse id="XMLID_907_" transform="matrix(0.9053 -0.4248 0.4248 0.9053 -6.5755 11.8735)" class="st80" cx="23.3" cy="20.7" rx="1.5" ry="2.6" fill="#E04122" stroke="#45413C" stroke-linecap="round" stroke-linejoin="round" stroke-miterlimit="10"/><ellipse id="XMLID_906_" transform="matrix(0.9053 -0.4248 0.4248 0.9053 -12.0467 16.1034)" class="st80" cx="30.1" cy="35.1" rx="1.5" ry="2.6" fill="#E04122" stroke="#45413C" stroke-linecap="round" stroke-linejoin="round" stroke-miterlimit="10"/><ellipse id="XMLID_905_" transform="matrix(0.9053 -0.4248 0.4248 0.9053 -3.0919 15.8404)" class="st80" cx="34" cy="14.9" rx="1.5" ry="2.6" fill="#E04122" stroke="#45413C" stroke-linecap="round" stroke-linejoin="round" stroke-miterlimit="10"/><ellipse id="XMLID_904_" transform="matrix(0.9053 -0.4248 0.4248 0.9053 -7.6283 16.4337)" class="st80" cx="33" cy="25.3" rx="1.5" ry="2.6" fill="#E04122" stroke="#45413C" stroke-linecap="round" stroke-linejoin="round" stroke-miterlimit="10"/><path id="XMLID_903_" class="st10" d="M13.6 10.6c1.4-.7 1-5.5.6-6.4-.4-.9 1.9-2.1 2.3-1.1.5 1 3.3 4.6 5.3 3.7" fill="none" stroke="#45413C" stroke-linecap="round" stroke-linejoin="round" stroke-miterlimit="10"/><path id="XMLID_866_" class="st10" d="M28.3 9.4l-1.4-1.3c-.3-.3-.3-.8 0-1.1l1-1c.5-.5.1-1.3-.6-1.3l-1.4.1c-.4 0-.8-.3-.8-.7L25 2.2c0-.6-.7-.9-1.2-.6l-4.3 3.3c-.2.2-.5.2-.8.1l-1.1-.5c-.5-.6-.8-1.1-1-1.4-.5-1-2.8.2-2.3 1.1.1.3.3 1.1.4 2l-.4.8c-.1.3-.3.5-.6.5L8.4 8.8c-.6.1-.8.9-.3 1.3l1.4 1.3c.3.3.3.8 0 1.1l-1 1c-.5.5-.1 1.3.6 1.3l1.4-.1c.4 0 .8.3.8.7l.1 1.9c0 .6.7.9 1.2.6l4.3-3.3c.2-.2.5-.2.8-.1l2.5 1.1c.4.2.9 0 1-.5l.8-2.6c.1-.3.3-.5.6-.5l5.3-1.2c.7-.3.9-1 .4-1.4z" fill="none" stroke="#45413C" stroke-linecap="round" stroke-linejoin="round" stroke-miterlimit="10"/></g></g></svg>
