<svg
  style="width:15px;height:15px"
  version="1.1"
  xmlns="http://www.w3.org/2000/svg"
  width="32"
  height="32"
  viewBox="0 0 32 32"
  id="UserAddIcon"
>
  <title>user-add</title>
  <path d="M13.498 18.376h0.218c1.969-0.029 3.568-0.727 4.756-2.061 2.555-2.88 2.158-7.767 2.104-8.305-0.17-3.588-1.872-5.29-3.273-6.095-1.042-0.592-2.288-0.942-3.616-0.945h-0.113c-0.747 0-2.211 0.121-3.617 0.921-1.416 0.8-3.142 2.516-3.312 6.109-0.053 0.548-0.451 5.44 2.104 8.315 1.178 1.338 2.778 2.032 4.752 2.065zM8.601 8.155l0.218-0.010c0.204-4.499 3.394-4.989 4.752-4.989h0.073c1.697 0.039 4.558 0.737 4.752 4.975 0 0.024 0 0.058 0.015 0.097 0.029 0.31 0.369 4.465-1.561 6.642-0.781 0.873-1.828 1.309-3.205 1.324h-0.068c-1.382-0.015-2.429-0.446-3.2-1.329-1.964-2.196-1.595-6.419-1.571-6.642zM30.594 19.636h-4.267v-4.267c0-0.621-0.504-1.125-1.125-1.125s-1.125 0.504-1.125 1.125v0 4.267h-4.267c-0.621 0-1.125 0.504-1.125 1.125s0.504 1.125 1.125 1.125h4.267v4.267c0 0.621 0.504 1.125 1.125 1.125s1.125-0.504 1.125-1.125v0-4.267h4.267c0.621 0 1.125-0.504 1.125-1.125s-0.504-1.125-1.125-1.125v0zM2.182 26.25v-0.155c0.049-1.484 0.208-2.967 1.581-3.462 2.928-0.752 5.333-2.279 6.031-2.754 0.323-0.194 0.536-0.543 0.536-0.942 0-0.605-0.491-1.096-1.096-1.096-0.268 0-0.513 0.096-0.703 0.255l0.002-0.001c-1.535 1.036-3.314 1.868-5.218 2.403l-0.13 0.031-0.078 0.024c-2.962 1.018-3.059 4.131-3.103 5.479v0.179c-0.005 0.034-0.044 3.108 0.339 4.082 0.082 0.209 0.349 0.451 0.402 0.495l0.058 0.049h21.968v-2.25h-20.47c-0.058-0.654-0.104-1.466-0.125-2.284l-0.001-0.053z"></path>{' '}
</svg>
