<svg xmlns="http://www.w3.org/2000/svg" version="1.1" x="0px" y="0px" viewBox="0 0 48 48" xml space="preserve" id="BoatIcon"><style type="text/css"></style><symbol id="New_Symbol_14" viewBox="-6.5 -6.5 13 13"><path class="st0" d="M0-6c2.2 0 4.1 1.5 4.7 3.5C6.3-2.5 6.4 0 5 0v1c0 2.8-2.2 5-5 5s-5-2.2-5-5V0c-1.4 0-1.3-2.5.2-2.5C-4.1-4.5-2.2-6 0-6z" fill="#FFD4C3" stroke="#504B46" stroke-linecap="round" stroke-linejoin="round" stroke-miterlimit="10"></path><circle class="st1" cx="-1.6" cy="-0.1" r="0.1" fill="#FFC258"></circle><path class="st2" d="M-1.6.5c-.3 0-.6-.3-.6-.6s.2-.7.6-.7c.3 0 .6.3.6.7s-.3.6-.6.6z" fill="#4F4B45"></path><circle class="st1" cx="1.6" cy="-0.1" r="0.1" fill="#FFC258"></circle><path class="st2" d="M1.6.5C1.3.5 1 .2 1-.1s.3-.6.6-.6.6.3.6.6-.2.6-.6.6z" fill="#4F4B45"></path><circle class="st3" cx="-3" cy="-1.5" r="0.5" fill="#FABFA5"></circle><circle class="st3" cx="3" cy="-1.5" r="0.5" fill="#FABFA5"></circle><path class="st4" d="M-1.2-3c.8-.5 1.7-.5 2.5 0" fill="none" stroke="#504B46" stroke-linecap="round" stroke-linejoin="round" stroke-miterlimit="10"></path></symbol><g id="Icons"><g id="XMLID_1427_"><ellipse id="XMLID_1122_" class="st5" cx="25.6" cy="45.1" rx="15" ry="1.6" fill="#45413C" opacity="0.15"></ellipse><g id="XMLID_1074_"><g id="XMLID_1100_"><path id="XMLID_1103_" class="st37" d="M41.4 37.2c.5 0 .9.5.9 1-.8 5.9-7.4 6.9-17.1 6.9s-16.3-1-17.1-6.9c-.1-.5.3-1 .9-1h32.4z" fill="#BF8256"></path><path id="XMLID_1102_" class="st38" d="M8.6 39.9c.1-.1.3-.1.4-.1h32.4c.2 0 .3 0 .4.1.2-.5.4-1.1.4-1.7.1-.5-.3-1-.9-1H9c-.5 0-.9.5-.9 1 .1.6.2 1.2.5 1.7z" fill="#DEA47A"></path><path id="XMLID_1101_" class="st10" d="M41.4 37.2c.5 0 .9.5.9 1-.8 5.9-7.4 6.9-17.1 6.9s-16.3-1-17.1-6.9c-.1-.5.3-1 .9-1h32.4z" fill="none" stroke="#45413C" stroke-linecap="round" stroke-linejoin="round" stroke-miterlimit="10"></path></g><g id="XMLID_1082_"><path id="XMLID_1088_" class="st57" d="M27.6 4.8h-1.1v28H42c.8 0 1.2-.9.6-1.5C36.2 24 31.4 15.4 28.4 5.4c-.1-.3-.4-.6-.8-.6z" fill="#FF6242"></path><path id="XMLID_1085_" class="st11" d="M31 12.7c-1.5.7-3.1 1.2-4.5 1.7v5.9c2.1-.6 4.4-1.4 6.8-2.6-.8-1.7-1.6-3.3-2.3-5z" fill="#FFE500"></path><path id="XMLID_1084_" class="st11" d="M35.7 21.9c-3.2 1.8-6.6 2.9-9.2 3.5v5.9c3.2-.7 8-2.1 12.1-5-1-1.4-2-2.9-2.9-4.4z" fill="#FFE500"></path><path id="XMLID_1083_" class="st10" d="M27.6 4.8h-1.1v28H42c.8 0 1.2-.9.6-1.5C36.2 24 31.4 15.4 28.4 5.4c-.1-.3-.4-.6-.8-.6z" fill="none" stroke="#45413C" stroke-linecap="round" stroke-linejoin="round" stroke-miterlimit="10"></path></g><g id="XMLID_1076_"><path id="XMLID_1081_" class="st57" d="M24.8 1.3v33.3H6c-.8 0-1.2-.9-.6-1.5 7.6-7.4 14-18.3 19.4-31.8z" fill="#FF6242"></path><path id="XMLID_1079_" class="st11" d="M24.8 11.1c-1.9.9-3.7 1.6-5.4 2.2-1.6 3-3.2 5.9-4.9 8.5 2.9-.8 6.5-1.9 10.3-3.7v-7z" fill="#FFE500"></path><path id="XMLID_1078_" class="st11" d="M5.4 33.1c-.6.5-.2 1.5.6 1.5h7.3c3.6-1.2 7.6-2.9 11.5-5.3v-7c-5.4 3.3-11.1 5.3-15.4 6.4-1.3 1.6-2.7 3-4 4.4z" fill="#FFE500"></path><path id="XMLID_1077_" class="st10" d="M24.8 1.3v33.3H6c-.8 0-1.2-.9-.6-1.5 7.6-7.4 14-18.3 19.4-31.8z" fill="none" stroke="#45413C" stroke-linecap="round" stroke-linejoin="round" stroke-miterlimit="10"></path></g><path id="XMLID_1075_" class="st24" fill="#BF8256" stroke="#45413C" stroke-linecap="round" stroke-linejoin="round" stroke-miterlimit="10" d="M24.8 1.3h1.8v35.9h-1.8z"></path></g></g></g></svg>
