<svg xmlns="http://www.w3.org/2000/svg" width="32" height="32" viewBox="0 0 32 32" id="BottleIcon"><g stroke="#0572e4" transform="matrix(1.08696 0 0 1.08696 -1.738 -1110.48)"><path fill="#65c5b4" stroke="none" d="m 23.5,1031.9622 0,14.4 c 0,0.831 -0.669,1.5 -1.5,1.5 l -11,0 c -0.831,0 -1.5,-0.669 -1.5,-1.5 l 0,-14.4"></path><path fill="#938993" stroke="none" d="m 10.000017,1025.8622 12.999975,0 c 0.831009,0 1.527702,0.6695 1.500017,1.5 l 0,2.9999 0,1.5 -16.000009,0 0,-1.5 0,-2.9999 c 0,-0.831 0.6690078,-1.5 1.500017,-1.5 z"></path><path fill="#f2f2f2" stroke="none" d="m 9.5064536,1035.8657 13.9875464,0 0,5.9956 -13.9875464,0"></path><path fill="#62355c" stroke="none" style="line-height:normal;text-indent:0;text-align:start;text-decoration-line:none;text-decoration-style:solid;text-decoration-color:#000;text-transform:none;block-progression:tb;isolation:auto;mix-blend-mode:normal" d="m -25.066406,552.26562 c -1.171619,0 -2.13086,0.95728 -2.13086,2.12891 l 0,3.26172 0,1.62891 a 0.50005,0.50005 0 0 0 0.501954,0.50195 l 0.585937,0 0,15.25977 c 0,1.17163 0.959247,2.13085 2.130859,2.13085 l 11.957032,0 c 1.171612,0 2.130859,-0.95922 2.130859,-2.13085 l 0,-15.25977 0.5859375,0 a 0.50005,0.50005 0 0 0 0.5,-0.50195 l 0,-1.62891 0,-3.26172 -0.00195,0.0176 c 0.039696,-1.19087 -0.9570867,-2.14649 -2.1289065,-2.14649 l -14.130859,0 z m 0,1 0.04492,0 0,3.83985 a 0.50005,0.50005 0 1 0 1,0 l 0,-3.83985 1.171875,0 0,3.83985 a 0.50005,0.50005 0 1 0 1,0 l 0,-3.83985 1.175781,0 0,3.83985 a 0.50005,0.50005 0 1 0 1,0 l 0,-3.83985 1.171875,0 0,3.83985 a 0.50005,0.50005 0 1 0 1,0 l 0,-3.83985 1.173828,0 0,3.83985 a 0.50005,0.50005 0 1 0 1,0 l 0,-3.83985 1.173828,0 0,3.83985 a 0.50005,0.50005 0 1 0 1,0 l 0,-3.83985 1.173828,0 0,3.83985 a 0.50005,0.50005 0 1 0 1,0 l 0,-3.83985 0.04492,0 c 0.634722,0 1.1533007,0.49861 1.1328126,1.11329 a 0.50005,0.50005 0 0 0 -0.00391,0.0156 l 0,3.26172 0,1.13086 -16.3886716,0 0,-1.13086 0,-3.26172 c 0,-0.63489 0.493983,-1.12891 1.128906,-1.12891 z m -0.04102,6.52149 14.214844,0 0,3.35156 -14.214844,0 0,-3.35156 z m 0,4.35156 14.214844,0 0,5.51563 -14.214844,0 0,-5.51563 z m 2.769531,1.16992 a 0.50005,0.50005 0 1 0 0,1 l 8.673829,0 a 0.50005,0.50005 0 1 0 0,-1 l -8.673829,0 z m 0,2.17383 a 0.50005,0.50005 0 1 0 0,1 l 8.673829,0 a 0.50005,0.50005 0 1 0 0,-1 l -8.673829,0 z m -2.769531,3.17383 14.214844,0 0,4.39063 c 0,0.63489 -0.493997,1.13085 -1.128906,1.13085 l -11.957032,0 c -0.634909,0 -1.128906,-0.49596 -1.128906,-1.13085 l 0,-4.39063 z" color="#000" font-family="sans-serif" font-weight="400" overflow="visible" transform="matrix(.92 0 0 .92 33.06 517.318)" white-space="normal"></path></g></svg>