<svg xmlns="http://www.w3.org/2000/svg" id="Layer_1" viewBox="0 0 32 32"><path fill="#5b5d70" d="M17 16.5h-1c-.6 0-1-.4-1-1s.4-1 1-1h1c.6 0 1 .4 1 1s-.4 1-1 1z"/><path fill="#fed8aa" d="M22 4.5V12c0 3.6-2.9 6.5-6.5 6.5S9 15.6 9 12V4.5"/><path fill="#40455a" d="M15.5 19c-3.9 0-7-3.1-7-7V4.5h1V12c0 3.3 2.7 6 6 6s6-2.7 6-6V4.5h1V12c0 3.9-3.1 7-7 7z"/><path fill="#fed8aa" d="M12 17.5V20c0 1.9 1.6 3.5 3.5 3.5S19 21.9 19 20v-2.5"/><path fill="#40455a" d="M15.5 24c-2.2 0-4-1.8-4-4v-2.5h1V20c0 1.7 1.3 3 3 3s3-1.3 3-3v-2.5h1V20c0 2.2-1.8 4-4 4z"/><path fill="#67acd5" d="M18.9 20.5c-.3 1.7-1.7 3-3.4 3-1.8 0-3.2-1.3-3.4-3l-5.6 1.9C4.4 23 3 25 3 27.1v4.4h25v-4.4c0-2.2-1.4-4.1-3.4-4.7l-5.7-1.9z"/><path fill="#5791d1" d="M28 31.5v-4.4c0-.9-.3-1.8-.7-2.6-3 .4-5.3 2.9-5.3 6v1h6zM3 31.5v-4.4c0-.9.3-1.8.7-2.6 3 .4 5.3 2.9 5.3 6v1H3z"/><path fill="#5b5d70" d="M24 12.5h-2v-3h1c.6 0 1 .4 1 1v2zM9 12.5H8c-.6 0-1-.4-1-1v-1c0-.6.4-1 1-1h1v3z"/><path fill="#5c5e70" d="M17 16.5h-1c-.6 0-1-.4-1-1s.4-1 1-1h1c.6 0 1 .4 1 1s-.4 1-1 1z"/><path fill="#40455a" d="M17 17h-1c-.8 0-1.5-.7-1.5-1.5S15.2 14 16 14h1c.8 0 1.5.7 1.5 1.5S17.8 17 17 17zm-1-2c-.3 0-.5.2-.5.5s.2.5.5.5h1c.3 0 .5-.2.5-.5s-.2-.5-.5-.5h-1z"/><path fill="#a17852" d="M12 2.5c0-.6-.4-1-1-1h-.2c-2 0-3.4 1.8-2.9 3.7L9 9.5h.5c.6 0 1-.4 1-1v-2c0-.6.4-1 1-1h8c.6 0 1 .4 1 1v2c0 .6.4 1 1 1h.5l.9-4.1C23.5 2.9 21.6.5 19 .5h-5c-1.1 0-2 .9-2 2"/><path fill="#40455a" d="M22.4 10h-.9c-.8 0-1.5-.7-1.5-1.5v-2c0-.3-.2-.5-.5-.5h-8c-.3 0-.5.2-.5.5v2c0 .8-.7 1.5-1.5 1.5h-.9l-.1-.4-1.1-4.2c-.3-1.1 0-2.1.6-3S9.8 1 10.8 1h.2c.3 0 .6.1.8.3C12.3.5 13.1 0 14 0h5c1.4 0 2.7.6 3.5 1.7s1.2 2.5.9 3.8l-1 4.5zM11.5 5h8c.8 0 1.5.7 1.5 1.5v2c0 .3.2.5.5.5h.1l.8-3.7c.2-1 0-2.1-.7-2.9C21.1 1.5 20.1 1 19 1h-5c-.8 0-1.5.7-1.5 1.5h-1c0-.3-.2-.5-.5-.5h-.2c-.8 0-1.5.4-2 1s-.6 1.4-.4 2.1l1 3.9h.1c.3 0 .5-.2.5-.5v-2c0-.8.7-1.5 1.5-1.5zM15.5 24c-2.2 0-4-1.8-4-4v-2.5c0-.3.2-.5.5-.5s.5.2.5.5V20c0 1.7 1.3 3 3 3s3-1.3 3-3v-2.5c0-.3.2-.5.5-.5s.5.2.5.5V20c0 2.2-1.8 4-4 4z"/><path fill="#40455a" d="M15.5 19c-3.9 0-7-3.1-7-7V9.5c0-.3.2-.5.5-.5s.5.2.5.5V12c0 3.3 2.7 6 6 6s6-2.7 6-6V9.5c0-.3.2-.5.5-.5s.5.2.5.5V12c0 3.9-3.1 7-7 7zM28 32H3c-.3 0-.5-.2-.5-.5v-4.4c0-2.4 1.5-4.5 3.8-5.2l5.6-1.9h.4c.1.1.2.2.2.4.2 1.5 1.5 2.5 3 2.5s2.7-1.1 3-2.5c0-.1.1-.3.2-.4.1-.1.3-.1.4 0l5.6 1.9c2.3.7 3.8 2.8 3.8 5.2v4.4c0 .3-.2.5-.5.5zM3.5 31h24v-3.9c0-1.9-1.2-3.7-3.1-4.3l-5.1-1.7c-.5 1.7-2 2.8-3.8 2.8-1.8 0-3.3-1.2-3.8-2.8l-5.1 1.7c-1.8.6-3.1 2.3-3.1 4.3V31z"/><path fill="#40455a" d="M28 32h-6c-.3 0-.5-.2-.5-.5v-1c0-3.3 2.5-6.1 5.7-6.4.2 0 .4.1.5.2.5.9.8 1.8.8 2.8v4.4c0 .3-.2.5-.5.5zm-5.5-1h5v-3.9c0-.7-.2-1.4-.5-2-2.6.5-4.5 2.7-4.5 5.4v.5zM9 32H3c-.3 0-.5-.2-.5-.5v-4.4c0-1 .3-2 .8-2.8.1-.2.3-.3.5-.3 3.3.4 5.7 3.2 5.7 6.4v1c0 .4-.2.6-.5.6zm-5.5-1h5v-.5c0-2.7-1.9-4.9-4.5-5.4-.3.6-.5 1.3-.5 2V31zM22 10h-.5c-.8 0-1.5-.7-1.5-1.5v-2c0-.3-.2-.5-.5-.5h-8c-.3 0-.5.2-.5.5v2c0 .8-.7 1.5-1.5 1.5H9c-.2 0-.4-.2-.5-.4L7.4 5.4c-.3-1.1 0-2.1.6-3S9.8 1 10.8 1h.2c.3 0 .6.1.8.3C12.3.5 13.1 0 14 0h5c1.4 0 2.7.6 3.5 1.7s1.2 2.5.9 3.8l-.9 4.1c-.1.2-.3.4-.5.4zM11.5 5h8c.8 0 1.5.7 1.5 1.5v2c0 .3.2.5.5.5h.1l.8-3.7c.2-1 0-2.1-.7-2.9C21.1 1.5 20.1 1 19 1h-5c-.8 0-1.5.7-1.5 1.5 0 .3-.2.5-.5.5s-.5-.2-.5-.5-.2-.5-.5-.5h-.2c-.8 0-1.5.4-2 1s-.6 1.4-.4 2.1l1 3.9h.1c.3 0 .5-.2.5-.5v-2c0-.8.7-1.5 1.5-1.5z"/><path fill="#40455a" d="M24 13h-2c-.3 0-.5-.2-.5-.5v-3c0-.3.2-.5.5-.5h1c.8 0 1.5.7 1.5 1.5v2c0 .3-.2.5-.5.5zm-1.5-1h1v-1.5c0-.3-.2-.5-.5-.5h-.5v2z"/><path fill="#40455a" d="M21 16h-3c-.3 0-.5-.2-.5-.5s.2-.5.5-.5h3c1.4 0 2.5-1.1 2.5-2.5v-2c0-.3.2-.5.5-.5s.5.2.5.5v2c0 1.9-1.6 3.5-3.5 3.5zM9 13H8c-.8 0-1.5-.7-1.5-1.5v-1C6.5 9.7 7.2 9 8 9h1c.3 0 .5.2.5.5v3c0 .3-.2.5-.5.5zm-1-3c-.3 0-.5.2-.5.5v1c0 .3.2.5.5.5h.5v-2H8z"/></svg>