<svg xmlns="http://www.w3.org/2000/svg" version="1.1" x="0px" y="0px" viewBox="0 0 48 48" xml space="preserve" id="TrafficIcon"><style type="text/css"></style><symbol id="New_Symbol_14" viewBox="-6.5 -6.5 13 13"><path class="st0" d="M0-6c2.2 0 4.1 1.5 4.7 3.5C6.3-2.5 6.4 0 5 0v1c0 2.8-2.2 5-5 5s-5-2.2-5-5V0c-1.4 0-1.3-2.5.2-2.5C-4.1-4.5-2.2-6 0-6z" fill="#FFD4C3" stroke="#504B46" stroke-linecap="round" stroke-linejoin="round" stroke-miterlimit="10"></path><circle class="st1" cx="-1.6" cy="-0.1" r="0.1" fill="#FFC258"></circle><path class="st2" d="M-1.6.5c-.3 0-.6-.3-.6-.6s.2-.7.6-.7c.3 0 .6.3.6.7s-.3.6-.6.6z" fill="#4F4B45"></path><circle class="st1" cx="1.6" cy="-0.1" r="0.1" fill="#FFC258"></circle><path class="st2" d="M1.6.5C1.3.5 1 .2 1-.1s.3-.6.6-.6.6.3.6.6-.2.6-.6.6z" fill="#4F4B45"></path><circle class="st3" cx="-3" cy="-1.5" r="0.5" fill="#FABFA5"></circle><circle class="st3" cx="3" cy="-1.5" r="0.5" fill="#FABFA5"></circle><path class="st4" d="M-1.2-3c.8-.5 1.7-.5 2.5 0" fill="none" stroke="#504B46" stroke-linecap="round" stroke-linejoin="round" stroke-miterlimit="10"></path></symbol><g id="Icons"><g id="XMLID_1910_"><ellipse id="XMLID_1887_" class="st5" cx="24" cy="45.6" rx="11" ry="1.5" fill="#45413C" opacity="0.15"></ellipse><path id="XMLID_1446_" class="st83" d="M24.3 45.9c-5.8 0-10.5-4.7-10.5-10.5V11.3C13.8 5.5 18.5.8 24.3.8s10.5 4.7 10.5 10.5v24.1c0 5.8-4.7 10.5-10.5 10.5z" fill="#DAEDF7"></path><path id="XMLID_1445_" class="st17" d="M24.3.9c-5.8 0-10.5 4.7-10.5 10.5V14c0-5.8 4.7-10.5 10.5-10.5S34.8 8.2 34.8 14v-2.6C34.8 5.6 30.1.9 24.3.9z" fill="#FFF"></path><path id="XMLID_1444_" class="st10" d="M24.3 45.9c-5.8 0-10.5-4.7-10.5-10.5V11.3C13.8 5.5 18.5.8 24.3.8s10.5 4.7 10.5 10.5v24.1c0 5.8-4.7 10.5-10.5 10.5z" fill="none" stroke="#45413C" stroke-linecap="round" stroke-linejoin="round" stroke-miterlimit="10"></path><path id="XMLID_1443_" class="st74" d="M24.3 43.3c-4.3 0-7.8-3.5-7.8-7.8V11.3c0-4.3 3.5-7.8 7.8-7.8s7.8 3.5 7.8 7.8v24.1c.1 4.3-3.5 7.9-7.8 7.9z" fill="#87898C"></path><path id="XMLID_1442_" class="st73" d="M24.3 3.5c-4.3 0-7.8 3.5-7.8 7.8v2.8c0-4.3 3.5-7.8 7.8-7.8s7.8 3.5 7.8 7.8v-2.8c.1-4.3-3.5-7.8-7.8-7.8z" fill="#656769"></path><path id="XMLID_1431_" class="st10" d="M24.3 43.3c-4.3 0-7.8-3.5-7.8-7.8V11.3c0-4.3 3.5-7.8 7.8-7.8s7.8 3.5 7.8 7.8v24.1c.1 4.3-3.5 7.9-7.8 7.9z" fill="none" stroke="#45413C" stroke-linecap="round" stroke-linejoin="round" stroke-miterlimit="10"></path><circle id="XMLID_1181_" class="st11" cx="24.3" cy="23.9" r="4.5" fill="#FFE500"></circle><path id="XMLID_1180_" class="st45" d="M24.3 19.4c-2.5 0-4.5 2-4.5 4.5 0 1.8 1.1 3.3 2.6 4.1l5-7.3c-.8-.8-1.9-1.3-3.1-1.3z" fill="#FFF48C"></path><circle id="XMLID_1179_" class="st26" cx="24.3" cy="12.4" r="4.5" fill="#6DD627"></circle><path id="XMLID_1178_" class="st25" d="M24.3 7.9c-2.5 0-4.5 2-4.5 4.5 0 1.8 1.1 3.3 2.6 4.1l5-7.3c-.8-.8-1.9-1.3-3.1-1.3z" fill="#9CEB60"></path><circle id="XMLID_1177_" class="st57" cx="24.3" cy="35.4" r="4.5" fill="#FF6242"></circle><path id="XMLID_1176_" class="st62" d="M24.3 30.9c-2.5 0-4.5 2-4.5 4.5 0 1.8 1.1 3.3 2.6 4.1l5-7.3c-.8-.8-1.9-1.3-3.1-1.3z" fill="#FF866E"></path><circle id="XMLID_1175_" class="st10" cx="24.3" cy="23.9" r="4.5" fill="none" stroke="#45413C" stroke-linecap="round" stroke-linejoin="round" stroke-miterlimit="10"></circle><circle id="XMLID_1174_" class="st10" cx="24.3" cy="12.4" r="4.5" fill="none" stroke="#45413C" stroke-linecap="round" stroke-linejoin="round" stroke-miterlimit="10"></circle><circle id="XMLID_1173_" class="st10" cx="24.3" cy="35.4" r="4.5" fill="none" stroke="#45413C" stroke-linecap="round" stroke-linejoin="round" stroke-miterlimit="10"></circle><path id="XMLID_1172_" class="st84" d="M29.3 35.1c0 2.8-.8-2.5-5-2.5s-5 5.3-5 2.5 2.2-5 5-5 5 2.2 5 5z" fill="#BDBEC0" stroke="#45413C" stroke-linecap="round" stroke-linejoin="round" stroke-miterlimit="10"></path><path id="XMLID_1171_" class="st84" d="M29.3 23.6c0 2.8-.8-2.5-5-2.5s-5 5.3-5 2.5 2.2-5 5-5 5 2.2 5 5z" fill="#BDBEC0" stroke="#45413C" stroke-linecap="round" stroke-linejoin="round" stroke-miterlimit="10"></path><path id="XMLID_1170_" class="st84" d="M29.3 12.1c0 2.8-.8-2.5-5-2.5s-5 5.3-5 2.5 2.2-5 5-5 5 2.2 5 5z" fill="#BDBEC0" stroke="#45413C" stroke-linecap="round" stroke-linejoin="round" stroke-miterlimit="10"></path></g></g></svg>
