<svg
  xmlns="http://www.w3.org/2000/svg"
  width="25.78"
  height="35.114"
  viewBox="0 0 25.78 35.114"
  style="width:15px;height:15px"
  id="GroceryBagIcon"
>
  <g transform="translate(0 0)">
    <path
      d="M17.4,16.684l-2.15-4.91L14.519,10.1l-.375-.856a2.883,2.883,0,0,0-3.8-1.484l-1.1.48a2.883,2.883,0,0,0-1.484,3.8l3.5,8c.509.482.891,1.1,1.863,1.1,1.6,0,1.6-1.666,3.2-1.666a1.911,1.911,0,0,1,.465.055,2.807,2.807,0,0,1-.031-.413,6.173,6.173,0,0,1,.631-2.425Zm0,0"
      transform="translate(-7.043 -7.037)"
      fill="#10e02c"
    ></path>
    <path
      d="M17.411,16.684l-2.15-4.91L14.528,10.1l-.375-.856a2.883,2.883,0,0,0-3.8-1.484l-1.1.48a2.883,2.883,0,0,0-1.726,2.71,2.876,2.876,0,0,1,.957-.68l1.1-.48a2.883,2.883,0,0,1,3.8,1.484l.375.856.732,1.672,2.15,4.91a7.261,7.261,0,0,0-.306.753h.009a1.923,1.923,0,0,1,.465.055,2.807,2.807,0,0,1-.031-.412,6.173,6.173,0,0,1,.631-2.425Zm0,0"
      transform="translate(-7.053 -7.037)"
      fill="#07bc20"
    ></path>
    <path
      d="M282.683,120.395l-.653.653a1.479,1.479,0,0,1-2.091,0l-.653-.653.653-.653a1.479,1.479,0,0,1,2.091,0Zm0,0"
      transform="translate(-261.428 -111.68)"
      fill="#07bc20"
    ></path>
    <path
      d="M154.9,126.283c1.429,0,1.584-1.326,2.739-1.611a2.768,2.768,0,0,0,.031-.412c0-1.529-1.24-4.408-2.769-4.408s-2.769,2.879-2.769,4.408a2.771,2.771,0,0,0,.031.413C153.318,124.958,153.473,126.283,154.9,126.283Zm0,0"
      transform="translate(-142.406 -112.188)"
      fill="#10e02c"
    ></path>
    <path
      d="M170.189,119.852a2.3,2.3,0,0,0-1.725,1.243,1.331,1.331,0,0,1,.522-.111c1.529,0,2.769,2.879,2.769,4.409,0,.033,0,.065,0,.1a2.438,2.438,0,0,1,1.174-.817,2.806,2.806,0,0,0,.031-.412C172.958,122.731,171.718,119.852,170.189,119.852Zm0,0"
      transform="translate(-157.693 -112.189)"
      fill="#07bc20"
    ></path>
    <path
      d="M238.156,131.862a1.478,1.478,0,0,1-2-.086l-.653-.653.344-.344c-.08-.005-.161-.009-.243-.009a3.522,3.522,0,0,0-3.092,1.833,5.671,5.671,0,0,1,.4,1.877,2.8,2.8,0,0,1-.03.412,1.913,1.913,0,0,1,.464-.054c1.6,0,1.6,1.666,3.2,1.666,1.323,0,1.553-1.137,2.5-1.532l.017-.006a3.52,3.52,0,0,0-.909-3.1Zm0,0"
      transform="translate(-217.649 -122.409)"
      fill="#10e02c"
    ></path>
    <path
      d="M282.4,146.6a1.478,1.478,0,0,1-2-.086l-.031.086a3.51,3.51,0,0,1,.974,2.43v.007a1.376,1.376,0,0,1-.481,1.033c-.326.283-.774.66-1.083.87a1.722,1.722,0,0,0,1.013.3c1.323,0,1.553-1.136,2.5-1.532l.017-.006a3.52,3.52,0,0,0-.909-3.1Zm0,0"
      transform="translate(-261.892 -137.144)"
      fill="#07bc20"
    ></path>
    <path
      d="M202.84,77.36a3.522,3.522,0,0,1,3.092-1.833c.053,0,.106,0,.159,0-.259-1.575-1.375-3.778-2.712-3.778-1.16,0-2.153,1.656-2.565,3.124a3.942,3.942,0,0,1,2.031,2.493Zm0,0"
      transform="translate(-187.973 -67.166)"
      fill="#10e02c"
    ></path>
    <path
      d="M221.9,71.754a1.833,1.833,0,0,0-1.3.693,1.241,1.241,0,0,1,.211-.018c1.195,0,2.213,1.758,2.6,3.256a3.519,3.519,0,0,1,1.042-.157c.053,0,.106,0,.159,0-.259-1.575-1.375-3.778-2.712-3.778Zm0,0"
      transform="translate(-206.493 -67.166)"
      fill="#07bc20"
    ></path>
    <path
      d="M63.66,194.528c-.943.4-1.173,1.532-2.5,1.532-1.6,0-1.6-1.666-3.2-1.666s-1.6,1.666-3.2,1.666-1.6-1.666-3.2-1.666-1.6,1.666-3.2,1.666c-1.323,0-1.553-1.136-2.5-1.532a.509.509,0,0,0-.707.467v17.32a1.906,1.906,0,0,0,1.906,1.906H62.462a1.906,1.906,0,0,0,1.906-1.906v-17.32A.508.508,0,0,0,63.66,194.528Zm0,0"
      transform="translate(-42.261 -181.965)"
      fill="#2446f5"
    ></path>
    <path
      d="M63.66,195.891c-.578.242-.888.763-1.346,1.13v14.6a1.906,1.906,0,0,1-1.906,1.906H45.149v.148a1.906,1.906,0,0,0,1.906,1.906H62.462a1.906,1.906,0,0,0,1.906-1.906v-17.32a.508.508,0,0,0-.707-.467Zm0,0"
      transform="translate(-42.262 -183.328)"
      fill="#0a2cdc"
    ></path>
    <path
      d="M21.954,12.11a3.978,3.978,0,0,0-.792-2.623l.432-.432a.48.48,0,0,0,0-.68l-.653-.653a1.962,1.962,0,0,0-2.04-.461c.043-.047.088-.094.137-.14a.481.481,0,0,0-.655-.7,3.324,3.324,0,0,0-.26.271c-1.568-3.766-4.36-3.238-5.622.493a2.716,2.716,0,0,0-2.089,1.389L8.648,4.543a.48.48,0,0,0-.88.386L9.829,9.636a6.655,6.655,0,0,0-.58,2.314c-1.761.028-1.89,1.665-3.159,1.665-.705,0-.962-.4-1.461-.9l-.524-1.2a4.051,4.051,0,0,1,2.63-1.034.48.48,0,1,0-.035-.96,5.04,5.04,0,0,0-3,1.079l-.626-1.43a4.055,4.055,0,0,1,2.63-1.034.48.48,0,1,0-.035-.96,5.041,5.041,0,0,0-3,1.079L2.05,6.833A4.054,4.054,0,0,1,4.68,5.8a.48.48,0,0,0-.035-.96,5.04,5.04,0,0,0-3,1.079L1.163,4.808A2.4,2.4,0,0,1,2.4,1.644C3.149,1.4,4.029.617,5.334,1.127c1.27.5,1.426,1.658,1.7,2.13a.48.48,0,1,0,.88-.385L7.54,2.016A3.361,3.361,0,0,0,3.11.284C2.517.633.92.86.232,2.62A3.342,3.342,0,0,0,.283,5.194l3,6.856a.987.987,0,0,0-.88.981V21a.48.48,0,0,0,.961,0c.022-8.407-.041-8.025.041-7.991.789.331,1.129,1.57,2.681,1.57,1.968,0,1.983-2.012,3.552-1.625.107.06.251-.035.906.646a2.427,2.427,0,0,0,3.9,0A1.607,1.607,0,0,1,15.7,12.91c1.309,0,1.442,1.794,3.387,1.659,1.351-.093,1.73-1.191,2.443-1.536.151-.073.1-1.356.1,17.317A1.427,1.427,0,0,1,20.2,31.776H4.792a1.427,1.427,0,0,1-1.425-1.425v-7.56a.481.481,0,0,0-.961,0v7.56a2.389,2.389,0,0,0,2.386,2.386H20.2a2.389,2.389,0,0,0,2.386-2.386V13.03a.984.984,0,0,0-.632-.921Zm-2.4-4c.574,0,.807.435,1.019.606-.327.325-.3.309-.373.368a1,1,0,0,1-1.281.01c-.066-.055-.08-.076-.384-.377l0,0C18.752,8.541,18.981,8.109,19.556,8.109ZM15.4,5.069c.812,0,1.717,1.4,2.1,2.772-.006.023-.013.046-.019.069a4,4,0,0,0-2.521,1.315,4.27,4.27,0,0,0-1.539-1.782c.43-1.225,1.229-2.373,1.976-2.373ZM12.71,8.174c1.122.313,2.1,2.721,2.072,3.957-1.068.469-1.223,1.484-2.287,1.484-.9,0-1.113-.692-1.85-1.231a2.191,2.191,0,0,0-.435-.252c-.035-1.349,1.218-4.315,2.5-3.957Zm6.192,5.44c-1.3,0-1.369-1.636-3.159-1.665a6.231,6.231,0,0,0-.344-1.707A3.037,3.037,0,0,1,17.377,8.9a3.448,3.448,0,0,0,.121.851.48.48,0,0,0,.86.123,1.961,1.961,0,0,0,2.052.212,3.029,3.029,0,0,1,.569,2.15c-.86.49-1.113,1.38-2.078,1.38Zm0,0"
      transform="translate(0.001 0)"
    ></path>
  </g>
  <g transform="translate(13.671 23.004)">
    <path
      d="M187.361,15.683A5.681,5.681,0,1,1,181.68,10,5.681,5.681,0,0,1,187.361,15.683Z"
      transform="translate(-175.724 -9.825)"
      fill="#10e02c"
    ></path>
    <path
      d="M227.445,64.866a.631.631,0,0,0,.893,0l3.787-3.787a.631.631,0,1,0-.893-.893l-3.341,3.341-.816-.816a.631.631,0,0,0-.893.893Z"
      transform="translate(-222.567 -56.668)"
    ></path>
    <g fill="none" stroke="#000" stroke-width="1">
      <circle cx="6.055" cy="6.055" r="6.055" stroke="none"></circle>
      <circle cx="6.055" cy="6.055" r="5.555" fill="none"></circle>
    </g>
  </g>
</svg>
