<svg xmlns="http://www.w3.org/2000/svg" id="InsuranceIcon" viewBox="0 0 32 32"><path fill="#67acd5" d="M26 12.5c.8 0 1.5.7 1.5 1.5 0-6.4-5.1-11.5-11.5-11.5S4.5 7.6 4.5 14c0-.8.7-1.5 1.5-1.5s1.5.7 1.5 1.5c0-.8 1.1-1.5 2.5-1.5s2.5.7 2.5 1.5c0-.8 1.6-1.5 3.5-1.5s3.5.7 3.5 1.5c0-.8 1.1-1.5 2.5-1.5s2.5.7 2.5 1.5c0-.8.7-1.5 1.5-1.5z"></path><path fill="#5791d1" d="M16 2.5c-4.7 0-8.5 5.1-8.5 11.5 0-.8 1.1-1.5 2.5-1.5s2.5.7 2.5 1.5c0-.8 1.6-1.5 3.5-1.5s3.5.7 3.5 1.5c0-.8 1.1-1.5 2.5-1.5s2.5.7 2.5 1.5c0-6.4-3.8-11.5-8.5-11.5z"></path><path fill="#67acd5" d="M16 2.5c-1.9 0-3.5 5.1-3.5 11.5 0-.8 1.6-1.5 3.5-1.5s3.5.7 3.5 1.5c0-6.4-1.6-11.5-3.5-11.5z"></path><path fill="#40455a" d="M16 3c-.3 0-.5-.2-.5-.5v-1c0-.3.2-.5.5-.5s.5.2.5.5v1c0 .3-.2.5-.5.5z"></path><path fill="#40455a" d="M27.5 14.5c-.3 0-.5-.2-.5-.5 0-6.1-4.9-11-11-11S5 7.9 5 14c0 .3-.2.5-.5.5S4 14.3 4 14C4 7.4 9.4 2 16 2s12 5.4 12 12c0 .3-.2.5-.5.5z"></path><path fill="#40455a" d="M24.5 14.5c-.3 0-.5-.2-.5-.5 0-6.1-3.6-11-8-11S8 7.9 8 14c0 .3-.2.5-.5.5S7 14.3 7 14c0-6.6 4-12 9-12s9 5.4 9 12c0 .3-.2.5-.5.5z"></path><path fill="#40455a" d="M19.5 14.5c-.3 0-.5-.2-.5-.5 0-6.8-1.7-11-3-11s-3 4.2-3 11c0 .3-.2.5-.5.5s-.5-.2-.5-.5c0-5.8 1.4-12 4-12s4 6.2 4 12c0 .3-.2.5-.5.5z"></path><path fill="#40455a" d="M19.5 14.5c-.3 0-.5-.2-.5-.5 0-.4-1.1-1-3-1s-3 .6-3 1c0 .3-.2.5-.5.5s-.5-.2-.5-.5c0-2.6 8-2.6 8 0 0 .3-.2.5-.5.5z"></path><path fill="#40455a" d="M12.5 14.5c-.3 0-.5-.2-.5-.5 0-.5-.9-1-2-1s-2 .5-2 1c0 .3-.2.5-.5.5S7 14.3 7 14c0-1.1 1.3-2 3-2s3 .9 3 2c0 .3-.2.5-.5.5zM24.5 14.5c-.3 0-.5-.2-.5-.5 0-.5-.9-1-2-1s-2 .5-2 1c0 .3-.2.5-.5.5s-.5-.2-.5-.5c0-1.1 1.3-2 3-2s3 .9 3 2c0 .3-.2.5-.5.5z"></path><path fill="#40455a" d="M27.5 14.5c-.3 0-.5-.2-.5-.5 0-.6-.4-1-1-1s-1 .4-1 1c0 .3-.2.5-.5.5s-.5-.2-.5-.5c0-1.1.9-2 2-2s2 .9 2 2c0 .3-.2.5-.5.5zM7.5 14.5c-.3 0-.5-.2-.5-.5 0-.6-.4-1-1-1s-1 .4-1 1c0 .3-.2.5-.5.5S4 14.3 4 14c0-1.1.9-2 2-2s2 .9 2 2c0 .3-.2.5-.5.5zM14.5 31c-1.1 0-2-.9-2-2 0-.3.2-.5.5-.5s.5.2.5.5c0 .6.4 1 1 1s1-.4 1-1V12.5c0-.3.2-.5.5-.5s.5.2.5.5V29c0 1.1-.9 2-2 2z"></path></svg>