<svg xmlns="http://www.w3.org/2000/svg" id="Customer11Icon" viewBox="0 0 32 32"><circle cx="7.5" cy="16" r="6.5" fill="#ffda87"></circle><circle cx="23.5" cy="16" r="6.5" fill="#ff9e68"></circle><path fill="#40455a" d="M7.5 23c-3.9 0-7-3.1-7-7s3.1-7 7-7 7 3.1 7 7-3.1 7-7 7zm0-13c-3.3 0-6 2.7-6 6s2.7 6 6 6 6-2.7 6-6-2.7-6-6-6z"></path><path fill="#40455a" d="M6 14.5c-.3 0-.5-.2-.5-.5s-.2-.5-.5-.5-.5.2-.5.5-.2.5-.5.5-.5-.2-.5-.5c0-.8.7-1.5 1.5-1.5s1.5.7 1.5 1.5c0 .3-.2.5-.5.5zM11 14.5c-.3 0-.5-.2-.5-.5s-.2-.5-.5-.5-.5.2-.5.5-.2.5-.5.5-.5-.2-.5-.5c0-.8.7-1.5 1.5-1.5s1.5.7 1.5 1.5c0 .3-.2.5-.5.5zM23.5 23c-3.9 0-7-3.1-7-7s3.1-7 7-7 7 3.1 7 7-3.1 7-7 7zm0-13c-3.3 0-6 2.7-6 6s2.7 6 6 6 6-2.7 6-6-2.7-6-6-6z"></path><path fill="#40455a" d="M21 14.5c-.8 0-1.5-.7-1.5-1.5 0-.3.2-.5.5-.5s.5.2.5.5.2.5.5.5.5-.2.5-.5.2-.5.5-.5.5.2.5.5c0 .8-.7 1.5-1.5 1.5zM26 14.5c-.8 0-1.5-.7-1.5-1.5 0-.3.2-.5.5-.5s.5.2.5.5.2.5.5.5.5-.2.5-.5.2-.5.5-.5.5.2.5.5c0 .8-.7 1.5-1.5 1.5zM26.3 19c-.1 0-.3-.1-.4-.2-.6-.7-1.5-1.2-2.4-1.2s-1.8.4-2.4 1.2c-.2.2-.5.3-.7.1-.2-.2-.3-.5-.1-.7.8-1 2-1.5 3.2-1.5s2.4.6 3.2 1.5c.2.2.1.5-.1.7-.1.1-.2.1-.3.1zM7.5 20c-1.2 0-2.4-.6-3.2-1.5-.2-.2-.1-.5.1-.7.2-.2.5-.1.7.1.6.7 1.5 1.1 2.4 1.1s1.8-.4 2.4-1.2c.2-.2.5-.2.7-.1.2.2.3.5.1.7-.8 1-2 1.6-3.2 1.6z"></path></svg>