<svg width="32pt" height="32pt" viewBox="0 0 32 32" version="1.1" id="BoxWithTickIcon">
  <g>
    <path stroke="none"
      fillRule="nonzero"
      fill="rgb(12.54902%,87.45098%,22.352941%)"
      d="M 22.566406 6.339844 C 22.566406 9.488281 20.011719 12.042969 16.859375 12.042969 C 13.710938 12.039062 11.15625 9.488281 11.15625 6.335938 C 11.15625 3.1875 13.710938 0.632812 16.863281 0.632812 C 20.011719 0.632812 22.566406 3.1875 22.566406 6.339844 Z M 22.566406 6.339844 "
    ></path>
    <path stroke="none"
      fillRule="nonzero"
      fill="rgb(7.843137%,27.843137%,100%)"
      d="M 22.394531 4.953125 L 21.292969 9.929688 L 27.636719 12.042969 L 31.820312 7.859375 Z M 22.394531 4.953125 "
    ></path>
    <path stroke="none"
      fillRule="nonzero"
      fill="rgb(7.843137%,27.843137%,100%)"
      d="M 11.464844 4.484375 L 0.636719 7.855469 L 4.820312 12.039062 L 12.175781 9.59375 Z M 11.464844 4.484375 "
    ></path>
    <path d="M 15.78125 8.6875 C 16.03125 8.9375 16.429688 8.9375 16.679688 8.6875 L 20.480469 4.886719 C 20.730469 4.636719 20.730469 4.234375 20.480469 3.988281 C 20.234375 3.742188 19.832031 3.742188 19.585938 3.988281 L 16.230469 7.34375 L 15.410156 6.523438 C 15.164062 6.277344 14.761719 6.277344 14.511719 6.523438 C 14.265625 6.773438 14.265625 7.171875 14.511719 7.421875 Z M 15.78125 8.6875 "></path>
    <path stroke="none"
      fillRule="nonzero"
      fill="rgb(83.529412%,87.058824%,100%)"
      d="M 21.363281 10.226562 L 16.222656 12.042969 L 12.164062 10.089844 L 4.820312 12.042969 L 16.226562 15.847656 L 27.636719 12.042969 Z M 21.363281 10.226562 "
    ></path>
    <path stroke="none"
      fillRule="nonzero"
      fill="rgb(7.843137%,27.843137%,100%)"
      d="M 16.230469 15.847656 L 19.605469 20.066406 L 31.824219 16.226562 L 27.636719 12.042969 Z M 16.230469 15.847656 "
    ></path>
    <path stroke="none"
      fillRule="nonzero"
      fill="rgb(7.843137%,27.843137%,100%)"
      d="M 2.144531 16.503906 L 13.554688 20.304688 L 16.226562 15.851562 L 4.816406 12.042969 Z M 2.144531 16.503906 "
    ></path>
    <path stroke="none"
      fillRule="nonzero"
      fill="rgb(7.843137%,27.843137%,100%)"
      d="M 27.632812 17.542969 L 16.226562 15.847656 L 6.085938 17.8125 L 6.085938 28.019531 L 16.230469 31.820312 L 27.636719 28.019531 L 27.636719 17.558594 Z M 27.632812 17.542969 "
    ></path>
    <path d="M 9.890625 24.71875 C 10.238281 24.71875 10.523438 24.4375 10.523438 24.085938 C 10.523438 23.734375 10.238281 23.453125 9.890625 23.453125 C 9.539062 23.453125 9.253906 23.734375 9.253906 24.085938 C 9.253906 24.4375 9.539062 24.71875 9.890625 24.71875 Z M 9.890625 24.71875 "></path>
    <path d="M 12.058594 25.519531 L 13.46875 26.046875 C 13.792969 26.15625 14.144531 25.988281 14.265625 25.667969 C 14.386719 25.347656 14.230469 24.992188 13.914062 24.859375 L 12.503906 24.332031 C 12.179688 24.222656 11.828125 24.390625 11.710938 24.710938 C 11.589844 25.03125 11.746094 25.386719 12.058594 25.519531 Z M 12.058594 25.519531 "></path>
    <path d="M 13.914062 27.570312 L 10.109375 26.140625 C 9.898438 26.054688 9.652344 26.089844 9.472656 26.234375 C 9.289062 26.378906 9.203125 26.609375 9.242188 26.839844 C 9.285156 27.066406 9.445312 27.253906 9.664062 27.328125 L 13.46875 28.753906 C 13.683594 28.84375 13.929688 28.808594 14.109375 28.664062 C 14.289062 28.519531 14.378906 28.285156 14.335938 28.058594 C 14.296875 27.832031 14.132812 27.640625 13.914062 27.570312 Z M 13.914062 27.570312 "></path>
    <path d="M 4.019531 12.140625 L 1.601562 16.171875 C 1.503906 16.335938 1.484375 16.535156 1.550781 16.714844 C 1.613281 16.898438 1.757812 17.039062 1.941406 17.101562 L 5.445312 18.269531 L 5.445312 28.023438 C 5.445312 28.285156 5.609375 28.523438 5.859375 28.617188 L 16.011719 32.421875 C 16.140625 32.46875 16.285156 32.472656 16.417969 32.429688 L 16.421875 32.429688 L 27.832031 28.625 C 28.089844 28.539062 28.265625 28.296875 28.265625 28.023438 L 28.265625 18.007812 L 32.003906 16.832031 C 32.21875 16.765625 32.378906 16.59375 32.429688 16.378906 C 32.484375 16.164062 32.421875 15.9375 32.265625 15.777344 L 28.527344 12.042969 L 32.269531 8.308594 C 32.425781 8.152344 32.488281 7.921875 32.4375 7.707031 C 32.382812 7.492188 32.222656 7.320312 32.007812 7.253906 L 22.914062 4.441406 C 22.113281 1.886719 19.792969 0.113281 17.117188 0.00390625 C 14.441406 -0.101562 11.988281 1.484375 10.984375 3.964844 L 0.445312 7.253906 C 0.234375 7.320312 0.0742188 7.492188 0.0195312 7.707031 C -0.0351562 7.925781 0.03125 8.152344 0.1875 8.308594 Z M 5.101562 12.804688 L 15.28125 16.199219 L 13.277344 19.539062 L 3.09375 16.144531 Z M 11.945312 10.335938 C 13.097656 11.757812 14.8125 12.613281 16.644531 12.675781 C 18.476562 12.738281 20.246094 12.003906 21.496094 10.664062 L 25.632812 12.042969 L 16.226562 15.179688 L 6.820312 12.042969 Z M 6.71875 18.691406 C 13.703125 21.003906 13.363281 20.9375 13.554688 20.9375 C 13.777344 20.9375 13.984375 20.820312 14.097656 20.628906 L 15.59375 18.132812 L 15.59375 30.902344 L 6.71875 27.578125 Z M 27.003906 27.5625 L 16.863281 30.941406 L 16.863281 17.65625 L 19.109375 20.46875 C 19.273438 20.671875 19.542969 20.753906 19.792969 20.675781 L 27.003906 18.410156 Z M 30.632812 15.9375 L 19.828125 19.328125 L 17.289062 16.160156 L 27.464844 12.765625 Z M 27.464844 11.316406 L 22.296875 9.597656 C 22.886719 8.613281 23.199219 7.488281 23.199219 6.339844 C 23.199219 6.179688 23.191406 6.019531 23.179688 5.855469 L 30.628906 8.15625 Z M 16.863281 1.265625 C 18.207031 1.265625 19.5 1.800781 20.449219 2.75 C 21.402344 3.703125 21.933594 4.992188 21.933594 6.339844 C 21.933594 9.140625 19.664062 11.410156 16.863281 11.410156 C 15.035156 11.4375 13.332031 10.476562 12.410156 8.894531 C 11.488281 7.316406 11.488281 5.363281 12.410156 3.785156 C 13.332031 2.203125 15.035156 1.242188 16.863281 1.269531 Z M 10.589844 5.417969 C 10.546875 5.722656 10.523438 6.03125 10.523438 6.339844 C 10.519531 7.347656 10.761719 8.34375 11.226562 9.242188 L 4.988281 11.316406 L 1.824219 8.152344 Z M 10.589844 5.417969 "></path>
  </g>
</svg>
