<svg
  style="width:15px;height:15px"
  version="1.1"
  xmlns="http://www.w3.org/2000/svg"
  width="32"
  height="32"
  viewBox="0 0 32 32"
  id="BasketNotAllowedIcon"
>
  <title>basket-not-allowed</title>
  <path d="M23.326 25.211c-1.595 0.003-2.887 1.297-2.887 2.892 0 1.597 1.295 2.892 2.892 2.892 0.002 0 0.003 0 0.005 0h-0c1.595-0.003 2.887-1.297 2.887-2.892 0-1.597-1.295-2.892-2.892-2.892-0.002 0-0.003 0-0.005 0h0zM30.981 0.827c-0.443-0.443-1.167-0.443-1.615 0l-28.702 28.697c-0.206 0.207-0.334 0.492-0.334 0.807 0 0.632 0.512 1.144 1.144 1.144 0.316 0 0.603-0.128 0.81-0.336l28.697-28.697c0.443-0.443 0.443-1.167 0-1.615zM4.382 9.388l0.891 9.797c0 0.935 0.281 1.807 0.758 2.54l1.634-1.639c-0.112-0.274-0.177-0.591-0.177-0.924 0-0.001 0-0.001 0-0.002v0l-0.871-8.684h10.658l2.215-2.215h-12.898v-2.55l-5.282-4.741-1.31 1.595 4.382 3.81zM27.594 8.266l-2.215 2.215h3.5l-3.072 8.63-0.005 0.020c-0.418 1.669-1.25 2.511-2.476 2.511h-9.108l-2.215 2.215h11.323c2.27 0 3.84-1.556 4.667-4.608l3.658-10.983zM10.343 25.516l-3.87 3.87c0.482 0.963 1.461 1.613 2.592 1.613 1.596 0 2.89-1.294 2.89-2.89 0-1.131-0.65-2.11-1.596-2.585l-0.017-0.008z"></path>{' '}
</svg>
