<svg xmlns="http://www.w3.org/2000/svg" id="MicIcon" viewBox="0 0 32 32"><path fill="#898b99" d="M17 25v3h-2v-3M9.5 30v-1c0-.6.4-1 1-1h11c.6 0 1 .4 1 1v1h-13z"></path><path fill="#5a5d70" d="M11 14H9c-.6 0-1-.4-1-1s.4-1 1-1h2v2zM23 14h-2v-2h2c.6 0 1 .4 1 1s-.4 1-1 1z"></path><path fill="#898b99" d="M16 23c-2.8 0-5-2.2-5-5V7c0-2.8 2.2-5 5-5s5 2.2 5 5v11c0 2.8-2.2 5-5 5z"></path><path fill="#5a5d70" d="M11 14v4c0 2.8 2.2 5 5 5s5-2.2 5-5v-4H11z"></path><circle cx="14" cy="4" r=".5" fill="#40455a"></circle><circle cx="16" cy="4" r=".5" fill="#40455a"></circle><circle cx="18" cy="4" r=".5" fill="#40455a"></circle><circle cx="13" cy="6" r=".5" fill="#40455a"></circle><circle cx="15" cy="6" r=".5" fill="#40455a"></circle><circle cx="17" cy="6" r=".5" fill="#40455a"></circle><circle cx="15" cy="6" r=".5" fill="#40455a"></circle><circle cx="17" cy="6" r=".5" fill="#40455a"></circle><circle cx="19" cy="6" r=".5" fill="#40455a"></circle><circle cx="15.5" cy="8" r=".5" fill="#40455a"></circle><circle cx="17.5" cy="8" r=".5" fill="#40455a"></circle><circle cx="19.5" cy="8" r=".5" fill="#40455a"></circle><circle cx="11.5" cy="8" r=".5" fill="#40455a"></circle><circle cx="13.5" cy="8" r=".5" fill="#40455a"></circle><circle cx="15.5" cy="8" r=".5" fill="#40455a"></circle><circle cx="16.5" cy="10" r=".5" fill="#40455a"></circle><circle cx="18.5" cy="10" r=".5" fill="#40455a"></circle><circle cx="20.5" cy="10" r=".5" fill="#40455a"></circle><circle cx="12.5" cy="10" r=".5" fill="#40455a"></circle><circle cx="14.5" cy="10" r=".5" fill="#40455a"></circle><circle cx="16.5" cy="10" r=".5" fill="#40455a"></circle><circle cx="15.5" cy="12" r=".5" fill="#40455a"></circle><circle cx="17.5" cy="12" r=".5" fill="#40455a"></circle><circle cx="19.5" cy="12" r=".5" fill="#40455a"></circle><circle cx="11.5" cy="12" r=".5" fill="#40455a"></circle><circle cx="13.5" cy="12" r=".5" fill="#40455a"></circle><circle cx="15.5" cy="12" r=".5" fill="#40455a"></circle><path fill="#40455a" d="M17 28.5h-2c-.3 0-.5-.2-.5-.5v-3c0-.3.2-.5.5-.5s.5.2.5.5v2.5h1V25c0-.3.2-.5.5-.5s.5.2.5.5v3c0 .3-.2.5-.5.5z"></path><g><path fill="#40455a" d="M22.5 30.5h-13c-.3 0-.5-.2-.5-.5v-1c0-.8.7-1.5 1.5-1.5h11c.8 0 1.5.7 1.5 1.5v1c0 .3-.2.5-.5.5zm-12.5-1h12V29c0-.3-.2-.5-.5-.5h-11c-.3 0-.5.2-.5.5v.5z"></path></g><g><path fill="#40455a" d="M16 23.5c-3 0-5.5-2.5-5.5-5.5V7c0-3 2.5-5.5 5.5-5.5S21.5 4 21.5 7v11c0 3-2.5 5.5-5.5 5.5zm0-21c-2.5 0-4.5 2-4.5 4.5v11c0 2.5 2 4.5 4.5 4.5s4.5-2 4.5-4.5V7c0-2.5-2-4.5-4.5-4.5z"></path></g><g><path fill="#40455a" d="M16 25.5c-4.1 0-7.5-3.4-7.5-7.5v-3.5c0-.3.2-.5.5-.5s.5.2.5.5V18c0 3.6 2.9 6.5 6.5 6.5s6.5-2.9 6.5-6.5v-3.5c0-.3.2-.5.5-.5s.5.2.5.5V18c0 4.1-3.4 7.5-7.5 7.5z"></path></g><g><path fill="#40455a" d="M11 14.5H9c-.8 0-1.5-.7-1.5-1.5s.7-1.5 1.5-1.5h2c.3 0 .5.2.5.5v2c0 .3-.2.5-.5.5zm-2-2c-.3 0-.5.2-.5.5s.2.5.5.5h1.5v-1H9z"></path></g><g><path fill="#40455a" d="M23 14.5h-2c-.3 0-.5-.2-.5-.5v-2c0-.3.2-.5.5-.5h2c.8 0 1.5.7 1.5 1.5s-.7 1.5-1.5 1.5zm-1.5-1H23c.3 0 .5-.2.5-.5s-.2-.5-.5-.5h-1.5v1z"></path></g><g><path fill="#40455a" d="M21 14.5H11c-.3 0-.5-.2-.5-.5s.2-.5.5-.5h10c.3 0 .5.2.5.5s-.2.5-.5.5z"></path></g></svg>