<svg xmlns="http://www.w3.org/2000/svg" version="1.1" x="0px" y="0px" viewBox="0 0 48 48" xml space="preserve" id="TulipIcon"><style type="text/css"></style><symbol id="New_Symbol_14" viewBox="-6.5 -6.5 13 13"><path class="st0" d="M0-6c2.2 0 4.1 1.5 4.7 3.5C6.3-2.5 6.4 0 5 0v1c0 2.8-2.2 5-5 5s-5-2.2-5-5V0c-1.4 0-1.3-2.5.2-2.5C-4.1-4.5-2.2-6 0-6z" fill="#FFD4C3" stroke="#504B46" stroke-linecap="round" stroke-linejoin="round" stroke-miterlimit="10"></path><circle class="st1" cx="-1.6" cy="-0.1" r="0.1" fill="#FFC258"></circle><path class="st2" d="M-1.6.5c-.3 0-.6-.3-.6-.6s.2-.7.6-.7c.3 0 .6.3.6.7s-.3.6-.6.6z" fill="#4F4B45"></path><circle class="st1" cx="1.6" cy="-0.1" r="0.1" fill="#FFC258"></circle><path class="st2" d="M1.6.5C1.3.5 1 .2 1-.1s.3-.6.6-.6.6.3.6.6-.2.6-.6.6z" fill="#4F4B45"></path><circle class="st3" cx="-3" cy="-1.5" r="0.5" fill="#FABFA5"></circle><circle class="st3" cx="3" cy="-1.5" r="0.5" fill="#FABFA5"></circle><path class="st4" d="M-1.2-3c.8-.5 1.7-.5 2.5 0" fill="none" stroke="#504B46" stroke-linecap="round" stroke-linejoin="round" stroke-miterlimit="10"></path></symbol><g id="Icons"><g id="XMLID_1313_"><ellipse id="XMLID_1419_" class="st5" cx="23.9" cy="45.1" rx="10" ry="1.5" fill="#45413C" opacity="0.15"></ellipse><path id="XMLID_1370_" class="st26" d="M20.2 22.1c1.6 1.9 2.5 4.3 2.5 6.8v15.4c0 .4.4.8.8.8h.9c.4 0 .8-.4.8-.8V28.9c0-2.5.9-4.9 2.5-6.8h-7.5z" fill="#6DD627"></path><path id="XMLID_1369_" class="st59" d="M25.4 27.4c.3-1.9 1.1-3.7 2.4-5.2h-7.5c1.3 1.5 2.1 3.3 2.4 5.2h2.7z" fill="#46B000"></path><path id="XMLID_1367_" class="st10" d="M20.2 22.1c1.6 1.9 2.5 4.3 2.5 6.8v15.4c0 .4.4.8.8.8h.9c.4 0 .8-.4.8-.8V28.9c0-2.5.9-4.9 2.5-6.8h-7.5z" fill="none" stroke="#45413C" stroke-linecap="round" stroke-linejoin="round" stroke-miterlimit="10"></path><path id="XMLID_1366_" class="st29" d="M31.3 12.5c0 6.2-3.3 11.3-7.3 11.3s-7.3-5.1-7.3-11.3c0-5.2 5.1-9.6 6.8-10.9.3-.2.7-.2 1 0 1.7 1.3 6.8 5.7 6.8 10.9z" fill="#FF87AF"></path><path id="XMLID_1365_" class="st30" d="M23.5 5.6c.3-.2.7-.2 1 0 1.5 1.2 5.8 4.8 6.6 9.3.1-.8.2-1.6.2-2.4 0-5.2-5.1-9.6-6.8-10.9-.3-.2-.7-.2-1 0-1.7 1.3-6.8 5.7-6.8 10.9 0 .8.1 1.6.2 2.4.8-4.5 5.1-8.2 6.6-9.3z" fill="#FFB0CA"></path><path id="XMLID_1362_" class="st10" d="M31.3 12.5c0 6.2-3.3 11.3-7.3 11.3s-7.3-5.1-7.3-11.3c0-5.2 5.1-9.6 6.8-10.9.3-.2.7-.2 1 0 1.7 1.3 6.8 5.7 6.8 10.9z" fill="none" stroke="#45413C" stroke-linecap="round" stroke-linejoin="round" stroke-miterlimit="10"></path><path id="XMLID_1361_" class="st29" d="M32 11.8c0-1.9-.3-3.7-.8-5.3-.1-.4-.6-.6-1-.5-3.5.9-6.2 5.9-6.2 11.8 0 2.1.3 4.2 1 5.9 3.9-.7 7-5.7 7-11.9z" fill="#FF87AF"></path><path id="XMLID_731_" class="st29" d="M16 11.8c0 6.1 3.1 11.2 7 11.9.6-1.7 1-3.7 1-5.9 0-6-2.7-10.9-6.2-11.8-.4-.1-.9.1-1 .5-.5 1.6-.8 3.4-.8 5.3z" fill="#FF87AF"></path><path id="XMLID_703_" class="st30" d="M30 9.8c.5-.2 1.1.2 1.2.7.3 1 .5 2.1.7 3.2.1-.6.1-1.3.1-1.9 0-1.9-.3-3.7-.8-5.3-.1-.4-.6-.6-1-.5-3.5.9-6.2 5.9-6.2 11.8 0 .6 0 1.3.1 1.9.5-5 2.9-9 5.9-9.9z" fill="#FFB0CA"></path><path id="XMLID_702_" class="st30" d="M16.8 10.5c.2-.5.7-.8 1.2-.7 3 .9 5.4 4.9 5.9 9.9.1-.6.1-1.2.1-1.9 0-6-2.7-10.9-6.1-11.8-.4-.1-.9.1-1 .5-.6 1.6-.9 3.4-.9 5.3 0 .6 0 1.3.1 1.9.1-1.1.4-2.2.7-3.2z" fill="#FFB0CA"></path><path id="XMLID_699_" class="st10" d="M32 11.8c0-1.9-.3-3.7-.8-5.3-.1-.4-.6-.6-1-.5-3.5.9-6.2 5.9-6.2 11.8 0 2.1.3 4.2 1 5.9 3.9-.7 7-5.7 7-11.9z" fill="none" stroke="#45413C" stroke-linecap="round" stroke-linejoin="round" stroke-miterlimit="10"></path><path id="XMLID_697_" class="st10" d="M16 11.8c0 6.1 3.1 11.2 7 11.9.6-1.7 1-3.7 1-5.9 0-6-2.7-10.9-6.2-11.8-.4-.1-.9.1-1 .5-.5 1.6-.8 3.4-.8 5.3z" fill="none" stroke="#45413C" stroke-linecap="round" stroke-linejoin="round" stroke-miterlimit="10"></path><path id="XMLID_696_" class="st10" fill="none" stroke="#45413C" stroke-linecap="round" stroke-linejoin="round" stroke-miterlimit="10" d="M24 17.8V6.5"></path><path id="XMLID_695_" class="st26" d="M23.7 45.2c-.5 0-.9-.5-.8-.9.4-2.6 2-9.7 6.6-15.4 4.2-5.2 10.8-7.8 13.8-8.7.7-.2 1.3.5 1 1.1-1.1 2.5-3.8 7.5-8.6 11-6.4 4.7-10.1 6.3-10.5 12.2 0 .4-.4.8-.8.8h-.7z" fill="#6DD627"></path><path id="XMLID_691_" class="st25" d="M23.3 45.1c.8-3.3 2.5-8.8 6.1-13.3 4.2-5.2 10.8-7.8 13.8-8.7h.1c.4-.7.7-1.3.9-1.8.3-.7-.3-1.4-1-1.1-3.1 1-9.6 3.5-13.8 8.7-4.6 5.6-6.1 12.8-6.6 15.4 0 .3.2.6.5.8z" fill="#9CEB60"></path><path id="XMLID_690_" class="st10" d="M23.7 45.2c-.5 0-.9-.5-.8-.9.4-2.6 2-9.7 6.6-15.4 4.2-5.2 10.8-7.8 13.8-8.7.7-.2 1.3.5 1 1.1-1.1 2.5-3.8 7.5-8.6 11-6.4 4.7-10.1 6.3-10.5 12.2 0 .4-.4.8-.8.8h-.7z" fill="none" stroke="#45413C" stroke-linecap="round" stroke-linejoin="round" stroke-miterlimit="10"></path><path id="XMLID_685_" class="st26" d="M24.3 45.2c.5 0 .9-.5.8-.9-.4-2.6-2-9.7-6.6-15.4-4.2-5.2-10.8-7.8-13.8-8.7-.7-.2-1.3.5-1 1.1 1.1 2.5 3.8 7.5 8.6 11 6.4 4.7 10.1 6.3 10.5 12.2 0 .4.4.8.8.8h.7z" fill="#6DD627"></path><path id="XMLID_683_" class="st25" d="M4.8 23.5c3.1 1 9.5 3.6 13.7 8.7 3.5 4.3 5.2 9.6 6 12.9.3-.1.6-.5.5-.9-.4-2.6-2-9.7-6.6-15.4-4.2-5.2-10.8-7.8-13.8-8.7-.7-.2-1.3.5-1 1.1.4.7.8 1.4 1.2 2.3z" fill="#9CEB60"></path><path id="XMLID_681_" class="st10" d="M24.3 45.2c.5 0 .9-.5.8-.9-.4-2.6-2-9.7-6.6-15.4-4.2-5.2-10.8-7.8-13.8-8.7-.7-.2-1.3.5-1 1.1 1.1 2.5 3.8 7.5 8.6 11 6.4 4.7 10.1 6.3 10.5 12.2 0 .4.4.8.8.8h.7z" fill="none" stroke="#45413C" stroke-linecap="round" stroke-linejoin="round" stroke-miterlimit="10"></path></g></g></svg>
