<svg xmlns="http://www.w3.org/2000/svg" version="1.1" x="0px" y="0px" viewBox="0 0 48 48" xml space="preserve" id="CherryIcon"><style type="text/css"></style><symbol id="New_Symbol_14" viewBox="-6.5 -6.5 13 13"><path class="st0" d="M0-6c2.2 0 4.1 1.5 4.7 3.5C6.3-2.5 6.4 0 5 0v1c0 2.8-2.2 5-5 5s-5-2.2-5-5V0c-1.4 0-1.3-2.5.2-2.5C-4.1-4.5-2.2-6 0-6z" fill="#FFD4C3" stroke="#504B46" stroke-linecap="round" stroke-linejoin="round" stroke-miterlimit="10"></path><circle class="st1" cx="-1.6" cy="-0.1" r="0.1" fill="#FFC258"></circle><path class="st2" d="M-1.6.5c-.3 0-.6-.3-.6-.6s.2-.7.6-.7c.3 0 .6.3.6.7s-.3.6-.6.6z" fill="#4F4B45"></path><circle class="st1" cx="1.6" cy="-0.1" r="0.1" fill="#FFC258"></circle><path class="st2" d="M1.6.5C1.3.5 1 .2 1-.1s.3-.6.6-.6.6.3.6.6-.2.6-.6.6z" fill="#4F4B45"></path><circle class="st3" cx="-3" cy="-1.5" r="0.5" fill="#FABFA5"></circle><circle class="st3" cx="3" cy="-1.5" r="0.5" fill="#FABFA5"></circle><path class="st4" d="M-1.2-3c.8-.5 1.7-.5 2.5 0" fill="none" stroke="#504B46" stroke-linecap="round" stroke-linejoin="round" stroke-miterlimit="10"></path></symbol><g id="Icons"><g id="XMLID_1327_"><ellipse id="XMLID_1148_" class="st5" cx="24" cy="45.1" rx="14.9" ry="1.6" fill="#45413C" opacity="0.15"></ellipse><path id="XMLID_611_" class="st57" d="M26.7 31c-1.1 5.5-6 8.8-11.5 7.7-5.5-1.1-8.8-6-7.7-11.5 1.1-5.5 7.2-8.9 11.2-5.9 4.3-1.2 9.2 4.1 8 9.7z" fill="#FF6242"></path><path id="XMLID_610_" class="st62" d="M7.5 30c1.1-5.5 7.2-7.3 11.2-5.9s7.3 2.4 8.1 6.7c.9-5.5-3.8-10.6-8.1-9.5-3.9-3-10.1.4-11.2 5.9-.2 1.2-.3 2.4-.1 3.5.1-.2.1-.5.1-.7z" fill="#FF866E"></path><path id="XMLID_609_" class="st72" d="M26.7 31c-1.1 5.5-6 8.8-11.5 7.7-5.5-1.1-8.8-6-7.7-11.5 1.1-5.5 7.2-8.9 11.2-5.9 4.3-1.2 9.2 4.1 8 9.7z" fill="none" stroke="#45413C" stroke-linejoin="round" stroke-miterlimit="10"></path><path id="XMLID_608_" class="st57" d="M38.4 35.1c0 5.7-4.1 9.8-9.8 9.8-5.7 0-9.8-4.1-9.8-9.8 0-5.7 5.3-10.2 9.8-8 4.1-2 9.8 2.3 9.8 8z" fill="#FF6242"></path><path id="XMLID_607_" class="st62" d="M28.7 30c3.3 0 8.8 1.7 9.7 6.6.1-.5.1-1.1.1-1.6 0-5.7-5.8-10-9.8-8-4.4-2.2-9.8 2.4-9.8 8 0 .5 0 1.1.1 1.6.8-4.9 6.4-6.6 9.7-6.6z" fill="#FF866E"></path><path id="XMLID_606_" class="st72" d="M38.4 35.1c0 5.7-4.1 9.8-9.8 9.8-5.7 0-9.8-4.1-9.8-9.8 0-5.7 5.3-10.2 9.8-8 4.1-2 9.8 2.3 9.8 8z" fill="none" stroke="#45413C" stroke-linejoin="round" stroke-miterlimit="10"></path><path id="XMLID_605_" class="st10" d="M18.7 21.2s2-4.1 9.5-8.1c6-3.2 12-1.8 12-1.8" fill="none" stroke="#45413C" stroke-linecap="round" stroke-linejoin="round" stroke-miterlimit="10"></path><path id="XMLID_603_" class="st10" d="M28.7 27.1s.7-11 11.6-15.7" fill="none" stroke="#45413C" stroke-linecap="round" stroke-linejoin="round" stroke-miterlimit="10"></path><path id="XMLID_602_" class="st26" d="M34 3.3c-3.3-1.9-7-2.4-10-1.7-.6.2-1 .7-.8 1.3.9 3 3.2 5.8 6.5 7.7 3.5 2 7.4 2.5 10.5 1.5.3-.1.4-.3.4-.6-.7-3.1-3.1-6.2-6.6-8.2z" fill="#6DD627"></path><path id="XMLID_601_" class="st25" d="M23.9 4.7s.1-.1 0 0c3.1-.8 6.7-.2 10 1.7 2.7 1.5 4.7 3.7 5.8 6 .2 0 .3-.1.5-.1.3-.1.4-.3.4-.6-.8-3.2-3.2-6.3-6.7-8.3-3.2-2-6.9-2.5-9.9-1.8-.6.2-1 .7-.8 1.3.2.6.4 1.2.7 1.8z" fill="#9CEB60"></path><path id="XMLID_598_" class="st10" d="M34 3.3c-3.3-1.9-7-2.4-10-1.7-.6.2-1 .7-.8 1.3.9 3 3.2 5.8 6.5 7.7 3.5 2 7.4 2.5 10.5 1.5.3-.1.4-.3.4-.6-.7-3.1-3.1-6.2-6.6-8.2z" fill="none" stroke="#45413C" stroke-linecap="round" stroke-linejoin="round" stroke-miterlimit="10"></path></g></g></svg>
