<svg xmlns="http://www.w3.org/2000/svg" version="1.1" x="0px" y="0px" viewBox="0 0 48 48" xml:space="preserve"><style type="text/css">.st0{fill:#FFD4C3;stroke:#504B46;stroke-linecap:round;stroke-linejoin:round;stroke-miterlimit:10;} .st1{fill:#FFC258;} .st2{fill:#4F4B45;} .st3{fill:#FABFA5;} .st4{fill:none;stroke:#504B46;stroke-linecap:round;stroke-linejoin:round;stroke-miterlimit:10;} .Graphic_x0020_Style{opacity:0.15;fill:#45413C;} .st5{opacity:0.15;fill:#45413C;} .st6{fill:#DEBB7E;stroke:#45413C;stroke-linecap:round;stroke-linejoin:round;stroke-miterlimit:10;} .st7{fill:#F0D5A8;} .st8{fill:#F7E5C6;} .st9{fill:#DEBB7E;} .st10{fill:none;stroke:#45413C;stroke-linecap:round;stroke-linejoin:round;stroke-miterlimit:10;} .st11{fill:#FFE500;} .st12{fill:#EBCB00;} .st13{fill:none;stroke:#EBCB00;stroke-linecap:round;stroke-linejoin:round;stroke-miterlimit:10;} .st14{fill:#FF6242;stroke:#45413C;stroke-linecap:round;stroke-linejoin:round;stroke-miterlimit:10;} .st15{fill:#FFFFFF;stroke:#45413C;stroke-linecap:round;stroke-linejoin:round;stroke-miterlimit:10;} .st16{fill:#E5F8FF;} .st17{fill:#FFFFFF;} .st18{fill:#E8F4FA;} .st19{fill:#E8F4FA;stroke:#45413C;stroke-linecap:round;stroke-linejoin:round;stroke-miterlimit:10;} .st20{fill:#FFCCDD;} .st21{fill:#FFB0CA;stroke:#45413C;stroke-linecap:round;stroke-linejoin:round;stroke-miterlimit:10;} .st22{fill:#FF87AF;stroke:#45413C;stroke-linecap:round;stroke-linejoin:round;stroke-miterlimit:10;} .st23{fill:#E5F8FF;stroke:#45413C;stroke-linecap:round;stroke-linejoin:round;stroke-miterlimit:10;} .st24{fill:#BF8256;stroke:#45413C;stroke-linecap:round;stroke-linejoin:round;stroke-miterlimit:10;} .st25{fill:#9CEB60;} .st26{fill:#6DD627;} .st27{fill:#C8FFA1;} .st28{fill:#FFFACF;} .st29{fill:#FF87AF;} .st30{fill:#FFB0CA;} .st31{fill:#FF6196;} .st32{fill:#FFCCDD;stroke:#45413C;stroke-linecap:round;stroke-linejoin:round;stroke-miterlimit:10;} .st33{fill:#FF6196;stroke:#45413C;stroke-linecap:round;stroke-linejoin:round;stroke-miterlimit:10;} .st34{fill:#FFE5EE;} .st35{fill:#00B8F0;} .st36{fill:#4ACFFF;} .st37{fill:#BF8256;} .st38{fill:#DEA47A;} .st39{fill:#915E3A;} .st40{fill:#FFF5E3;} .st41{fill:#F0F0F0;} .st42{fill:#8CA4B8;} .st43{fill:#627B8C;} .st44{fill:#C0DCEB;} .st45{fill:#FFF48C;} .st46{fill:#FFE500;stroke:#45413C;stroke-linecap:round;stroke-linejoin:round;stroke-miterlimit:10;} .st47{fill:#FFAA54;} .st48{fill:#6DD627;stroke:#45413C;stroke-linecap:round;stroke-linejoin:round;stroke-miterlimit:10;} .st49{fill:#FF8A14;} .st50{fill:#FFCC99;} .st51{fill:#EBCB00;stroke:#45413C;stroke-linecap:round;stroke-linejoin:round;stroke-miterlimit:10;} .st52{fill:#00F5BC;stroke:#45413C;stroke-linecap:round;stroke-linejoin:round;stroke-miterlimit:10;} .st53{fill:#BF8DF2;stroke:#45413C;stroke-linecap:round;stroke-linejoin:round;stroke-miterlimit:10;} .st54{fill:#FF8A14;stroke:#45413C;stroke-linecap:round;stroke-linejoin:round;stroke-miterlimit:10;} .st55{fill:#4AEFF7;stroke:#45413C;stroke-linecap:round;stroke-linejoin:round;stroke-miterlimit:10;} .st56{fill:#FFF48C;stroke:#45413C;stroke-linecap:round;stroke-linejoin:round;stroke-miterlimit:10;} .st57{fill:#FF6242;} .st58{fill:#E04122;} .st59{fill:#46B000;} .st60{fill:none;stroke:#45413C;stroke-miterlimit:10;} .st61{fill:#00B8F0;stroke:#45413C;stroke-linecap:round;stroke-linejoin:round;stroke-miterlimit:10;} .st62{fill:#FF866E;} .st63{fill:#9F5AE5;stroke:#45413C;stroke-linecap:round;stroke-linejoin:round;stroke-miterlimit:10;} .st64{fill:#E4FFD1;} .st65{fill:#FFFEF2;} .st66{fill:#B89558;} .st67{fill:none;stroke:#915E3A;stroke-linecap:round;stroke-linejoin:round;stroke-miterlimit:10;} .st68{fill:#915E3A;stroke:#45413C;stroke-linecap:round;stroke-linejoin:round;stroke-miterlimit:10;} .st69{fill:#BF8DF2;} .st70{fill:#9F5AE5;} .st71{fill:#DABFF5;} .st72{fill:none;stroke:#45413C;stroke-linejoin:round;stroke-miterlimit:10;} .st73{fill:#656769;} .st74{fill:#87898C;} .st75{fill:#E0E0E0;} .st76{fill:#BDBEC0;} .st77{fill:#656769;stroke:#45413C;stroke-linecap:round;stroke-linejoin:round;stroke-miterlimit:10;} .st78{fill:#45413C;stroke:#45413C;stroke-linecap:round;stroke-linejoin:round;stroke-miterlimit:10;} .st79{fill:#FFA694;} .st80{fill:#E04122;stroke:#45413C;stroke-linecap:round;stroke-linejoin:round;stroke-miterlimit:10;} .st81{fill:#E0E0E0;stroke:#45413C;stroke-linecap:round;stroke-linejoin:round;stroke-miterlimit:10;} .st82{fill:#F0F0F0;stroke:#45413C;stroke-linecap:round;stroke-linejoin:round;stroke-miterlimit:10;} .st83{fill:#DAEDF7;} .st84{fill:#BDBEC0;stroke:#45413C;stroke-linecap:round;stroke-linejoin:round;stroke-miterlimit:10;} .st85{fill:#87898C;stroke:#45413C;stroke-linecap:round;stroke-linejoin:round;stroke-miterlimit:10;} .st86{fill:#00DFEB;} .st87{fill:#4AEFF7;} .st88{fill:#DAEDF7;stroke:#45413C;stroke-linecap:round;stroke-linejoin:round;stroke-miterlimit:10;} .st89{fill:#FFDA8F;} .st90{fill:#FFBE3D;} .st91{fill:#FFE9BD;} .st92{fill:#DEA47A;stroke:#45413C;stroke-linecap:round;stroke-linejoin:round;stroke-miterlimit:10;} .st93{fill:#45413C;} .st94{fill:#F0C2A1;} .st95{fill:none;stroke:#45413C;stroke-width:1.0064;stroke-linecap:round;stroke-linejoin:round;stroke-miterlimit:10;} .st96{fill:#525252;} .st97{fill:#EB6D00;stroke:#45413C;stroke-linecap:round;stroke-linejoin:round;stroke-miterlimit:10;} .st98{fill:#EB6D00;} .st99{fill:#E5FEFF;} .st100{fill:#FF866E;stroke:#45413C;stroke-linecap:round;stroke-linejoin:round;stroke-miterlimit:10;} .st101{fill:#627B8C;stroke:#45413C;stroke-linecap:round;stroke-linejoin:round;stroke-miterlimit:10;} .st102{fill:#FFFCE5;stroke:#45413C;stroke-linecap:round;stroke-linejoin:round;stroke-miterlimit:10;} .st103{fill:#A6FBFF;} .st104{fill:#D9FDFF;} .st105{fill:#FFFACF;stroke:#45413C;stroke-linecap:round;stroke-linejoin:round;stroke-miterlimit:10;} .st106{fill:#B8ECFF;} .st107{fill:#FFCABF;} .st108{fill:#E5FFF9;} .st109{fill:#C8FFA1;stroke:#45413C;stroke-linecap:round;stroke-linejoin:round;stroke-miterlimit:10;} .st110{fill:#4CF4FC;} .st111{fill:#F0D5A8;stroke:#45413C;stroke-linecap:round;stroke-linejoin:round;stroke-miterlimit:10;} .st112{fill:#FFDCD1;stroke:#45413C;stroke-linecap:round;stroke-linejoin:round;stroke-miterlimit:10;} .st113{fill:#80DDFF;} .st114{fill:#46B000;stroke:#45413C;stroke-linecap:round;stroke-linejoin:round;stroke-miterlimit:10;} .st115{fill:#4ACFFF;stroke:#45413C;stroke-linecap:round;stroke-linejoin:round;stroke-miterlimit:10;} .st116{fill:#ADC4D9;} .st117{fill:#BDBEC0;stroke:#45413C;stroke-width:1.0064;stroke-linecap:round;stroke-linejoin:round;stroke-miterlimit:10;} .st118{fill:#FFFCE5;} .st119{fill:#947746;} .st120{fill:#525252;stroke:#45413C;stroke-linecap:round;stroke-linejoin:round;stroke-miterlimit:10;}</style><symbol id="New_Symbol_14" viewBox="-6.5 -6.5 13 13"><path class="st0" d="M0-6c2.2 0 4.1 1.5 4.7 3.5C6.3-2.5 6.4 0 5 0v1c0 2.8-2.2 5-5 5s-5-2.2-5-5V0c-1.4 0-1.3-2.5.2-2.5C-4.1-4.5-2.2-6 0-6z" fill="#FFD4C3" stroke="#504B46" stroke-linecap="round" stroke-linejoin="round" stroke-miterlimit="10"/><circle class="st1" cx="-1.6" cy="-0.1" r="0.1" fill="#FFC258"/><path class="st2" d="M-1.6.5c-.3 0-.6-.3-.6-.6s.2-.7.6-.7c.3 0 .6.3.6.7s-.3.6-.6.6z" fill="#4F4B45"/><circle class="st1" cx="1.6" cy="-0.1" r="0.1" fill="#FFC258"/><path class="st2" d="M1.6.5C1.3.5 1 .2 1-.1s.3-.6.6-.6.6.3.6.6-.2.6-.6.6z" fill="#4F4B45"/><circle class="st3" cx="-3" cy="-1.5" r="0.5" fill="#FABFA5"/><circle class="st3" cx="3" cy="-1.5" r="0.5" fill="#FABFA5"/><path class="st4" d="M-1.2-3c.8-.5 1.7-.5 2.5 0" fill="none" stroke="#504B46" stroke-linecap="round" stroke-linejoin="round" stroke-miterlimit="10"/></symbol><g id="Icons"><g id="XMLID_1845_"><ellipse id="XMLID_2611_" class="st5" cx="25.1" cy="44.5" rx="17.8" ry="2.3" fill="#45413C" opacity="0.15"/><g id="XMLID_665_"><path id="XMLID_2610_" class="st25" d="M34.8 4.1c-.4-.2-.9-.1-1.1.3-2.2 4.4-2.7 10-.9 15.6 1.8 5.6 5.5 9.9 9.8 12.1.4.2.9 0 1.1-.4 2.1-4.7 2.6-10.2.9-15.6-1.7-5.3-5.3-9.5-9.8-12z" fill="#9CEB60"/><path id="XMLID_2609_" class="st27" d="M45.5 20.2c-2.9-5.1-7.7-9-13.5-10.6.3-1.9.9-3.6 1.7-5.2.2-.4.7-.5 1.1-.3 4.5 2.6 8.1 6.8 9.8 12.1.4 1.3.7 2.6.9 4z" fill="#C8FFA1"/><path id="XMLID_2608_" class="st95" d="M34.8 4.1c-.4-.2-.9-.1-1.1.3-2.2 4.4-2.7 10-.9 15.6 1.8 5.6 5.5 9.9 9.8 12.1.4.2.9 0 1.1-.4 2.1-4.7 2.6-10.2.9-15.6-1.7-5.3-5.3-9.5-9.8-12z" fill="none" stroke="#45413C" stroke-linecap="round" stroke-linejoin="round" stroke-miterlimit="10" stroke-width="1.0064"/><path id="XMLID_2607_" class="st25" d="M30.5 4c.4-.9-.1-1.9-1-2.1-3.9-1-8-1-12.1.3S9.9 6 7.3 9c-.6.7-.4 1.8.4 2.3 4.6 2.7 8.5 7.4 10.4 13.4s1.6 12-.6 16.9c-.4.9.1 1.9 1 2.1 3.9 1 8 1 12.1-.3s7.5-3.7 10-6.8c.6-.7.4-1.8-.4-2.3-4.6-2.7-8.5-7.4-10.4-13.4s-1.5-12 .7-16.9z" fill="#9CEB60"/><path id="XMLID_672_" class="st27" d="M30.5 4c-.7 1.6-1.2 3.2-1.5 5-1-.1-1.9-.2-2.9-.2-5.6 0-10.6 2-14.5 5.4-1.2-1.1-2.5-2.1-3.8-2.9-.8-.5-1-1.6-.4-2.3 2.5-3.1 5.9-5.5 10-6.8C21.5.9 25.6.9 29.5 1.9c.9.2 1.4 1.2 1 2.1z" fill="#C8FFA1"/><path id="XMLID_670_" class="st95" d="M30.5 4c.4-.9-.1-1.9-1-2.1-3.9-1-8-1-12.1.3S9.9 6 7.3 9c-.6.7-.4 1.8.4 2.3 4.6 2.7 8.5 7.4 10.4 13.4s1.6 12-.6 16.9c-.4.9.1 1.9 1 2.1 3.9 1 8 1 12.1-.3s7.5-3.7 10-6.8c.6-.7.4-1.8-.4-2.3-4.6-2.7-8.5-7.4-10.4-13.4s-1.5-12 .7-16.9z" fill="none" stroke="#45413C" stroke-linecap="round" stroke-linejoin="round" stroke-miterlimit="10" stroke-width="1.0064"/><path id="XMLID_669_" class="st25" d="M5.3 13.6c-.4-.2-.9 0-1.1.4-2.1 4.7-2.6 10.2-.9 15.6 1.7 5.3 5.3 9.5 9.8 12.1.4.2.9.1 1.1-.3 2.2-4.4 2.7-10 .9-15.6-1.7-5.7-5.4-10-9.8-12.2z" fill="#9CEB60"/><path id="XMLID_668_" class="st27" d="M9.3 16.4C6 20.2 3.9 25.1 3.8 30.6c-.1-.4-.3-.7-.4-1.1-1.7-5.3-1.3-10.8.9-15.6.2-.4.7-.6 1.1-.4 1.3.8 2.7 1.7 3.9 2.9z" fill="#C8FFA1"/><path id="XMLID_666_" class="st95" d="M5.3 13.6c-.4-.2-.9 0-1.1.4-2.1 4.7-2.6 10.2-.9 15.6 1.7 5.3 5.3 9.5 9.8 12.1.4.2.9.1 1.1-.3 2.2-4.4 2.7-10 .9-15.6-1.7-5.7-5.4-10-9.8-12.2z" fill="none" stroke="#45413C" stroke-linecap="round" stroke-linejoin="round" stroke-miterlimit="10" stroke-width="1.0064"/></g><path id="XMLID_664_" class="st75" d="M42.8 32.2c-.5 1.1-1.1 2.1-1.8 3-.1-.3-.3-.6-.6-.8C35.8 31.7 31.9 27 30 21c-2-6-1.7-12.1.5-17 .1-.3.2-.7.1-1 1.1.4 2.2.8 3.2 1.3-2.2 4.4-2.7 10-.9 15.6 1.8 5.6 5.5 9.9 9.8 12.1 0 .1 0 .2.1.2z" fill="#E0E0E0"/><path id="XMLID_663_" class="st17" d="M33.7 4.3c0 .1 0 .1 0 0-.8 1.5-1.3 3.2-1.7 5-1-.3-2-.5-3-.6.3-1.7.8-3.2 1.5-4.7.1-.3.2-.7.1-1 1.1.4 2.1.8 3.1 1.3z" fill="#FFF"/><path id="XMLID_662_" class="st95" d="M42.8 32.2c-.5 1.1-1.1 2.1-1.8 3-.1-.3-.3-.6-.6-.8C35.8 31.7 31.9 27 30 21c-2-6-1.7-12.1.5-17 .1-.3.2-.7.1-1 1.1.4 2.2.8 3.2 1.3-2.2 4.4-2.7 10-.9 15.6 1.8 5.6 5.5 9.9 9.8 12.1 0 .1 0 .2.1.2z" fill="none" stroke="#45413C" stroke-linecap="round" stroke-linejoin="round" stroke-miterlimit="10" stroke-width="1.0064"/><path id="XMLID_661_" class="st75" d="M17.5 41.7c-.1.3-.2.7-.1 1-1.1-.4-2.2-.8-3.2-1.3 2.2-4.3 2.7-10 .9-15.6-1.8-5.6-5.5-9.9-9.8-12.1.5-1 1.1-2 1.8-2.9.1.3.3.5.6.7 4.6 2.7 8.5 7.4 10.4 13.4 1.9 5.8 1.6 11.9-.6 16.8z" fill="#E0E0E0"/><path id="XMLID_660_" class="st17" d="M11.5 14.2c-.8.7-1.5 1.4-2.2 2.2-1.2-1.1-2.6-2.1-4-2.8.5-1 1.1-2 1.8-2.9.1.3.3.5.6.7 1.4.7 2.6 1.7 3.8 2.8z" fill="#FFF"/><path id="XMLID_658_" class="st95" d="M17.5 41.7c-.1.3-.2.7-.1 1-1.1-.4-2.2-.8-3.2-1.3 2.2-4.3 2.7-10 .9-15.6-1.8-5.6-5.5-9.9-9.8-12.1.5-1 1.1-2 1.8-2.9.1.3.3.5.6.7 4.6 2.7 8.5 7.4 10.4 13.4 1.9 5.8 1.6 11.9-.6 16.8z" fill="none" stroke="#45413C" stroke-linecap="round" stroke-linejoin="round" stroke-miterlimit="10" stroke-width="1.0064"/></g></g></svg>
