<svg xmlns="http://www.w3.org/2000/svg" width="24" height="24" viewBox="0 0 24 24"><g fill="#200E32" fill-rule="nonzero" transform="translate(2 2)"><path d="M11.305103,3.88242888 L11.305103,4.06547143 C10.8144259,4.05583761 10.3237488,4.05583761 9.83307164,4.05583761 L9.83307164,3.8920627 C9.83307164,3.22732922 9.27369971,2.68783538 8.6063788,2.68783538 L7.63483808,2.68783538 C6.52590775,2.68783538 5.62306183,1.80152407 5.62306183,0.722536392 C5.62306183,0.327549831 5.95672228,-5.77315973e-15 6.35907753,-5.77315973e-15 C6.77124632,-5.77315973e-15 7.09509323,0.327549831 7.09509323,0.722536392 C7.09509323,1.01155095 7.3404318,1.24276259 7.63483808,1.24276259 L8.6063788,1.24276259 C10.0882237,1.25239641 11.2952895,2.43735609 11.305103,3.88242888" opacity=".4"/><path d="M9.83316977,4.05603029 C10.3238469,4.05603029 10.814524,4.05603029 11.3052012,4.06566411 C12.2374877,4.06566411 13.1697743,4.08493174 14.1118744,4.09456556 C17.5171737,4.09456556 20,6.52228784 20,9.8748567 L20,9.8748567 L20,14.1811736 C20,17.5337424 17.5171737,19.9614647 14.1118744,19.9614647 C12.747792,19.9903662 11.3837095,20 10.0098135,20 C8.63591757,20 7.25220805,19.9903662 5.88812561,19.9614647 C2.4828263,19.9614647 -1.77635684e-15,17.5337424 -1.77635684e-15,14.1811736 L-1.77635684e-15,14.1811736 L-1.77635684e-15,9.8748567 C-1.77635684e-15,6.52228784 2.4828263,4.09456556 5.89793916,4.09456556 C7.18351325,4.07529793 8.49852797,4.05603029 9.83316977,4.05603029 Z M7.08537782,9.5665745 C6.67320903,9.5665745 6.34936212,9.89412433 6.34936212,10.2891109 L6.34936212,10.2891109 L6.34936212,11.3006618 L5.30912659,11.3006618 C4.90677134,11.3006618 4.57311089,11.6282117 4.57311089,12.0231982 C4.57311089,12.4278186 4.90677134,12.7457346 5.30912659,12.7457346 L5.30912659,12.7457346 L6.34936212,12.7457346 L6.34936212,13.7669194 C6.34936212,14.161906 6.67320903,14.4894558 7.08537782,14.4894558 C7.48773307,14.4894558 7.82139352,14.161906 7.82139352,13.7669194 L7.82139352,13.7669194 L7.82139352,12.7457346 L8.85181551,12.7457346 C9.25417076,12.7457346 9.58783121,12.4278186 9.58783121,12.0231982 C9.58783121,11.6282117 9.25417076,11.3006618 8.85181551,11.3006618 L8.85181551,11.3006618 L7.82139352,11.3006618 L7.82139352,10.2891109 C7.82139352,9.89412433 7.48773307,9.5665745 7.08537782,9.5665745 Z M14.7988224,12.9865801 L14.7006869,12.9865801 C14.2885182,12.9865801 13.9646712,13.3141299 13.9646712,13.7091165 C13.9646712,14.1137369 14.2885182,14.4316529 14.7006869,14.4316529 L14.7006869,14.4316529 L14.7988224,14.4316529 C15.2011776,14.4316529 15.5348381,14.1137369 15.5348381,13.7091165 C15.5348381,13.3141299 15.2011776,12.9865801 14.7988224,12.9865801 L14.7988224,12.9865801 Z M13.1207066,9.67254651 L13.0225711,9.67254651 C12.6104024,9.67254651 12.2865554,10.0000963 12.2865554,10.3950829 C12.2865554,10.7997033 12.6104024,11.1176193 13.0225711,11.1176193 L13.0225711,11.1176193 L13.1207066,11.1176193 C13.5230618,11.1176193 13.8567223,10.7997033 13.8567223,10.3950829 C13.8567223,10.0000963 13.5230618,9.67254651 13.1207066,9.67254651 L13.1207066,9.67254651 Z"/></g></svg>