<svg xmlns="http://www.w3.org/2000/svg" version="1.1" x="0px" y="0px" viewBox="0 0 48 48" xml space="preserve" id="Thinking2Icon"><style type="text/css"></style><symbol id="New_Symbol_14" viewBox="-6.5 -6.5 13 13"><path class="st0" d="M0-6c2.2 0 4.1 1.5 4.7 3.5C6.3-2.5 6.4 0 5 0v1c0 2.8-2.2 5-5 5s-5-2.2-5-5V0c-1.4 0-1.3-2.5.2-2.5C-4.1-4.5-2.2-6 0-6z" fill="#FFD4C3" stroke="#504B46" stroke-linecap="round" stroke-linejoin="round" stroke-miterlimit="10"></path><circle class="st1" cx="-1.6" cy="-0.1" r="0.1" fill="#FFC258"></circle><path class="st2" d="M-1.6.5c-.3 0-.6-.3-.6-.6s.2-.7.6-.7c.3 0 .6.3.6.7s-.3.6-.6.6z" fill="#4F4B45"></path><circle class="st1" cx="1.6" cy="-0.1" r="0.1" fill="#FFC258"></circle><path class="st2" d="M1.6.5C1.3.5 1 .2 1-.1s.3-.6.6-.6.6.3.6.6-.2.6-.6.6z" fill="#4F4B45"></path><circle class="st3" cx="-3" cy="-1.5" r="0.5" fill="#FABFA5"></circle><circle class="st3" cx="3" cy="-1.5" r="0.5" fill="#FABFA5"></circle><path class="st4" d="M-1.2-3c.8-.5 1.7-.5 2.5 0" fill="none" stroke="#504B46" stroke-linecap="round" stroke-linejoin="round" stroke-miterlimit="10"></path></symbol><g id="Icons"><g id="XMLID_1071_"><ellipse id="XMLID_186_" class="st5" cx="27.5" cy="43" rx="13.5" ry="1.5" fill="#45413C" opacity="0.15"></ellipse><g id="XMLID_130_"><g id="XMLID_149_"><path id="XMLID_152_" class="st17" d="M47 17.1c0-7.6-6.1-13.7-13.7-13.7-5.1 0-9.6 2.8-11.9 7-1.6-1-3.6-1.6-5.7-1.6-5.9 0-10.8 4.8-10.8 10.8C4.9 25.3 9.3 30 15 30.3c1.5 3.7 5.2 6.4 9.5 6.4 4.1 0 7.6-2.4 9.3-5.9 7.3-.2 13.2-6.3 13.2-13.7z" fill="#FFF"></path><path id="XMLID_151_" class="st41" d="M34.1 26.6c-1.7 3.6-5.4 6.2-9.7 6.2-4.5 0-8.3-2.8-9.9-6.7-4.3-.3-7.9-2.9-9.5-6.6v.1C5 25.3 9.4 30 15.1 30.3c1.5 3.7 5.2 6.4 9.5 6.4 4.1 0 7.6-2.4 9.3-5.9 7.2-.2 13-6 13.2-13.3-2.2 5.2-7.1 8.9-13 9.1z" fill="#F0F0F0"></path><path id="XMLID_150_" class="st10" d="M47 17.1c0-7.6-6.1-13.7-13.7-13.7-5.1 0-9.6 2.8-11.9 7-1.6-1-3.6-1.6-5.7-1.6-5.9 0-10.8 4.8-10.8 10.8C4.9 25.3 9.3 30 15 30.3c1.5 3.7 5.2 6.4 9.5 6.4 4.1 0 7.6-2.4 9.3-5.9 7.3-.2 13.2-6.3 13.2-13.7z" fill="none" stroke="#45413C" stroke-linecap="round" stroke-linejoin="round" stroke-miterlimit="10"></path></g><circle id="XMLID_148_" class="st15" cx="3" cy="40.6" r="2" fill="#FFF" stroke="#45413C" stroke-linecap="round" stroke-linejoin="round" stroke-miterlimit="10"></circle><g id="XMLID_131_"><circle id="XMLID_134_" class="st17" cx="11.3" cy="37.2" r="3.4" fill="#FFF"></circle><path id="XMLID_133_" class="st41" d="M11.3 39.1c-1.4 0-2.6-.6-3.4-1.6.2 1.7 1.6 3.1 3.4 3.1s3.2-1.4 3.4-3.1c-.8 1-2 1.6-3.4 1.6z" fill="#F0F0F0"></path><circle id="XMLID_132_" class="st10" cx="11.3" cy="37.2" r="3.4" fill="none" stroke="#45413C" stroke-linecap="round" stroke-linejoin="round" stroke-miterlimit="10"></circle></g></g></g></g></svg>
