<svg xmlns="http://www.w3.org/2000/svg" version="1.1" x="0px" y="0px" viewBox="0 0 48 48" xml space="preserve" id="ConeIcon"><style type="text/css"></style><symbol id="New_Symbol_14" viewBox="-6.5 -6.5 13 13"><path class="st0" d="M0-6c2.2 0 4.1 1.5 4.7 3.5C6.3-2.5 6.4 0 5 0v1c0 2.8-2.2 5-5 5s-5-2.2-5-5V0c-1.4 0-1.3-2.5.2-2.5C-4.1-4.5-2.2-6 0-6z" fill="#FFD4C3" stroke="#504B46" stroke-linecap="round" stroke-linejoin="round" stroke-miterlimit="10"></path><circle class="st1" cx="-1.6" cy="-0.1" r="0.1" fill="#FFC258"></circle><path class="st2" d="M-1.6.5c-.3 0-.6-.3-.6-.6s.2-.7.6-.7c.3 0 .6.3.6.7s-.3.6-.6.6z" fill="#4F4B45"></path><circle class="st1" cx="1.6" cy="-0.1" r="0.1" fill="#FFC258"></circle><path class="st2" d="M1.6.5C1.3.5 1 .2 1-.1s.3-.6.6-.6.6.3.6.6-.2.6-.6.6z" fill="#4F4B45"></path><circle class="st3" cx="-3" cy="-1.5" r="0.5" fill="#FABFA5"></circle><circle class="st3" cx="3" cy="-1.5" r="0.5" fill="#FABFA5"></circle><path class="st4" d="M-1.2-3c.8-.5 1.7-.5 2.5 0" fill="none" stroke="#504B46" stroke-linecap="round" stroke-linejoin="round" stroke-miterlimit="10"></path></symbol><g id="Icons"><g id="XMLID_1885_"><ellipse id="XMLID_241_" class="st5" cx="24" cy="44.3" rx="9.5" ry="1.5" fill="#45413C" opacity="0.15"></ellipse><g id="XMLID_238_"><g id="XMLID_250_"><g id="XMLID_1766_"><path id="XMLID_210_" class="st7" d="M31 30.7H17c-.4 0-.8-.3-.9-.7l-.9-3.6c-.1-.6.3-1.1.9-1.1h15.8c.6 0 1 .6.9 1.1l-.9 3.6c-.1.4-.5.7-.9.7z" fill="#F0D5A8"></path><path id="XMLID_209_" class="st8" d="M15.5 27.5h17l.3-1.1c.1-.6-.3-1.1-.9-1.1H16.1c-.6 0-1 .6-.9 1.1l.3 1.1z" fill="#F7E5C6"></path><path id="XMLID_208_" class="st10" d="M31 30.7H17c-.4 0-.8-.3-.9-.7l-.9-3.6c-.1-.6.3-1.1.9-1.1h15.8c.6 0 1 .6.9 1.1l-.9 3.6c-.1.4-.5.7-.9.7z" fill="none" stroke="#45413C" stroke-linecap="round" stroke-linejoin="round" stroke-miterlimit="10"></path></g><g id="XMLID_1761_"><path id="XMLID_207_" class="st7" d="M26.2 44.3h-4.3c-1.4 0-2.5-1-2.7-2.4l-1.5-11.2h12.7l-1.5 11.2c-.2 1.4-1.4 2.4-2.7 2.4z" fill="#F0D5A8"></path><path id="XMLID_206_" class="st9" fill="#DEBB7E" d="M30 33l.4-2.3H17.6L18 33z"></path><path id="XMLID_205_" class="st10" d="M26.2 44.3h-4.3c-1.4 0-2.5-1-2.7-2.4l-1.5-11.2h12.7l-1.5 11.2c-.2 1.4-1.4 2.4-2.7 2.4z" fill="none" stroke="#45413C" stroke-linecap="round" stroke-linejoin="round" stroke-miterlimit="10"></path></g></g><g id="XMLID_239_"><g id="XMLID_246_"><path id="XMLID_204_" class="st65" d="M33 15.6c.3-.5.5-1.1.5-1.7 0-1.8-1.4-3.2-3.2-3.2h-1.2c.4-.5.7-1.1.7-1.8 0-1.5-1.2-2.7-2.7-2.7h-1.4c-2 0-3.4-2.2-2.4-4.1-3 .3-5.4 2.8-5.4 5.9 0 .8.2 2.1.5 2.7h-.9c-1.8 0-3.2 1.4-3.2 3.2 0 .6.2 1.2.5 1.7-1.9.7-3.2 2.5-3.2 4.7 0 2.8 2.2 5 5 5h14.5c2.8 0 5-2.2 5-5 .2-2.2-1.2-4-3.1-4.7z" fill="#FFFEF2"></path><path id="XMLID_203_" class="st17" d="M14.5 22.1c0-2.1 1.3-3.9 3.2-4.7-.3-.5-.5-1.1-.5-1.7 0-1.8 1.4-3.2 3.2-3.2h.9c-.3-.7-.5-1.9-.5-2.7 0-2.1 1.1-3.9 2.7-4.9-.5-.8-.6-1.8 0-2.8-3 .3-5.4 2.8-5.4 5.9 0 .8.2 2.1.5 2.7h-.9c-1.8 0-3.2 1.4-3.2 3.2 0 .6.2 1.2.5 1.7-1.9.7-3.2 2.5-3.2 4.7 0 2.3 1.6 4.3 3.7 4.8-.6-.8-1-1.9-1-3z" fill="#FFF"></path><path id="XMLID_202_" class="st10" d="M33 15.6c.3-.5.5-1.1.5-1.7 0-1.8-1.4-3.2-3.2-3.2h-1.2c.4-.5.7-1.1.7-1.8 0-1.5-1.2-2.7-2.7-2.7h-1.4c-2 0-3.4-2.2-2.4-4.1-3 .3-5.4 2.8-5.4 5.9 0 .8.2 2.1.5 2.7h-.9c-1.8 0-3.2 1.4-3.2 3.2 0 .6.2 1.2.5 1.7-1.9.7-3.2 2.5-3.2 4.7 0 2.8 2.2 5 5 5h14.5c2.8 0 5-2.2 5-5 .2-2.2-1.2-4-3.1-4.7z" fill="none" stroke="#45413C" stroke-linecap="round" stroke-linejoin="round" stroke-miterlimit="10"></path></g><path id="XMLID_201_" class="st10" d="M31.7 18.9v1.4c0 .8-.6 1.4-1.4 1.4S29 21 29 20.3v-3.2" fill="none" stroke="#45413C" stroke-linecap="round" stroke-linejoin="round" stroke-miterlimit="10"></path><path id="XMLID_200_" class="st10" d="M23.5 13.5v2.3c0 .8-.6 1.4-1.4 1.4s-1.4-.6-1.4-1.4v-.9" fill="none" stroke="#45413C" stroke-linecap="round" stroke-linejoin="round" stroke-miterlimit="10"></path><g id="XMLID_240_"><path id="XMLID_187_" class="st65" d="M19.9 24.3v2.3c0 .8-.6 1.4-1.4 1.4s-1.4-.6-1.4-1.4v-2.3h2.8z" fill="#FFFEF2"></path><path id="XMLID_184_" class="st10" d="M19.9 25.3v1.4c0 .8-.6 1.4-1.4 1.4s-1.4-.6-1.4-1.4v-2.3" fill="none" stroke="#45413C" stroke-linecap="round" stroke-linejoin="round" stroke-miterlimit="10"></path></g></g></g></g></g></svg>
