<svg xmlns="http://www.w3.org/2000/svg" id="Feedback2Icon" viewBox="0 0 32 32"><path fill="#516d97" d="M4.5 6.8h5.7v12.8H4.5z"></path><path fill="#fff" d="M7.5 6.8h5.7v12.8H7.5z"></path><path fill="#fed8aa" d="M27.5 13.9c0 .8-.6 1.4-1.4 1.4.8 0 1.4.6 1.4 1.4s-.6 1.4-1.4 1.4h-3.5c-.8 0-1.4.6-1.4 1.4v2.7c0 1.7-1.4 3.1-3.1 3.1h-.5v-3.4c0-.6-.2-1.2-.6-1.7l-1.1-1.5c-.3-.4-.7-.6-1.1-.6h-1.4v-10H15c.5 0 1-.2 1.2-.7.2-.5.7-.8 1.3-.8h7.1c.8 0 1.4.6 1.4 1.4s-.6 1.4-1.4 1.4H26c.8 0 1.4.6 1.4 1.4s-.6 1.4-1.4 1.4c.8.2 1.5.9 1.5 1.7z"></path><path fill="#40455a" d="M13.2 20.1H5.5c-.3 0-.5-.2-.5-.5s.2-.5.5-.5h7.2V7.3H5.5c-.3 0-.5-.3-.5-.5s.2-.5.5-.5h7.7c.3 0 .5.2.5.5v12.8c0 .2-.3.5-.5.5z"></path><path fill="#40455a" d="M7.5 20.1H4.6c-.3 0-.5-.2-.5-.5s.2-.5.5-.5H7V7.3H4.6c-.3 0-.5-.3-.5-.5s.2-.5.5-.5h2.8c.3 0 .6.2.6.5v12.8c0 .2-.3.5-.5.5z"></path><circle cx="10.3" cy="9.6" r=".7" fill="#40455a"></circle><path fill="#40455a" d="M26 18.6h-3.6c-.3 0-.5-.2-.5-.5s.2-.5.5-.5H26c.5 0 .9-.4.9-.9s-.4-.9-.9-.9h-2.8c-.3 0-.5-.2-.5-.5s.2-.5.5-.5H26c1.1 0 1.9.9 1.9 1.9s-.9 1.9-1.9 1.9z"></path><path fill="#40455a" d="M26 15.8h-2.8c-.3 0-.5-.2-.5-.5s.2-.5.5-.5H26c.5 0 .9-.4.9-.9s-.4-.9-.9-.9h-2.8c-.3 0-.5-.2-.5-.5s.2-.5.5-.5H26c1.1 0 1.9.9 1.9 1.9s-.9 1.9-1.9 1.9z"></path><path fill="#40455a" d="M26 12.9h-2.8c-.3 0-.5-.2-.5-.5s.2-.5.5-.5H26c.5 0 .9-.4.9-.9s-.4-.9-.9-.9h-2.8c-.3 0-.5-.2-.5-.5s.2-.5.5-.5H26c1.1 0 1.9.9 1.9 1.9s-.9 1.9-1.9 1.9z"></path><path fill="#40455a" d="M24.5 10.1h-1.4c-.3 0-.5-.2-.5-.5s.2-.5.5-.5h1.4c.5 0 .9-.4.9-.9s-.4-.9-.9-.9h-7.1c-.3 0-.7.2-.8.5-.3.6-.9.9-1.6.9h-1.8c-.3 0-.5-.2-.5-.5s.2-.5.5-.5H15c.3 0 .6-.2.8-.4.3-.6 1-1 1.7-1h7.1c1.1 0 1.9.9 1.9 1.9s-.9 1.9-2 1.9zM17.9 25.8h-.5c-.3 0-.5-.2-.5-.5V22c0-.5-.2-1-.5-1.4L15.3 19c-.2-.2-.4-.4-.7-.4h-1.4c-.3 0-.5-.2-.5-.5s.2-.5.5-.5h1.4c.6 0 1.2.3 1.5.8l1.1 1.5c.4.6.7 1.3.7 2v2.8c1.4 0 2.6-1.2 2.6-2.6v-2.6c0-.3.2-.5.5-.5s.5.2.5.5v2.6c0 2-1.6 3.7-3.6 3.7z"></path><path fill="#40455a" d="M21 21.5c-.3 0-.5-.2-.5-.5v-1.4c0-1.1.9-1.9 1.9-1.9h2.1c.3 0 .5.2.5.5s-.2.5-.5.5h-2.1c-.5 0-.9.4-.9.9V21c0 .3-.2.5-.5.5z"></path></svg>