<svg xmlns="http://www.w3.org/2000/svg" id="Layer_1" viewBox="0 0 32 32"><path fill="#ff9e68" d="M20.5 3.5h5c1.1 0 2 .9 2 2v24c0 1.1-.9 2-2 2h-19c-1.1 0-2-.9-2-2v-24c0-1.1.9-2 2-2h5"/><path fill="#fff" d="M22.5 5.5h3v24h-19v-24h3"/><path fill="#898b99" d="M17.4 2.5c.1-.2.1-.3.1-.5 0-.8-.7-1.5-1.5-1.5s-1.5.7-1.5 1.5c0 .2 0 .3.1.5h-3.1v3h9v-3h-3.1z"/><path fill="#67acd5" d="M8.5 7.5h6v6h-6z"/><path fill="#a3d86b" d="M8.5 15.5h15v2h-15zM8.5 25.5h9v2h-9z"/><path fill="#40455a" d="M22.5 27h-3c-.3 0-.5-.2-.5-.5s.2-.5.5-.5h3c.3 0 .5-.2.5-.5s-.2-.5-.5-.5h-1c-.3 0-.5-.2-.5-.5s.2-.5.5-.5h1c.8 0 1.5.7 1.5 1.5s-.7 1.5-1.5 1.5z"/><path fill="#40455a" d="M21.5 25h-1c-.8 0-1.5-.7-1.5-1.5s.7-1.5 1.5-1.5h3c.3 0 .5.2.5.5s-.2.5-.5.5h-3c-.3 0-.5.2-.5.5s.2.5.5.5h1c.3 0 .5.2.5.5s-.2.5-.5.5z"/><path fill="#40455a" d="M21.5 23c-.3 0-.5-.2-.5-.5v-1c0-.3.2-.5.5-.5s.5.2.5.5v1c0 .3-.2.5-.5.5zM21.5 28c-.3 0-.5-.2-.5-.5v-1c0-.3.2-.5.5-.5s.5.2.5.5v1c0 .3-.2.5-.5.5z"/><path fill="#40455a" d="M25.5 32h-19C5.1 32 4 30.9 4 29.5v-24C4 4.1 5.1 3 6.5 3h5c.3 0 .5.2.5.5s-.2.5-.5.5h-5C5.7 4 5 4.7 5 5.5v24c0 .8.7 1.5 1.5 1.5h19c.8 0 1.5-.7 1.5-1.5v-24c0-.8-.7-1.5-1.5-1.5h-5c-.3 0-.5-.2-.5-.5s.2-.5.5-.5h5C26.9 3 28 4.1 28 5.5v24c0 1.4-1.1 2.5-2.5 2.5z"/><path fill="#40455a" d="M25.5 30h-19c-.3 0-.5-.2-.5-.5v-24c0-.3.2-.5.5-.5h3c.3 0 .5.2.5.5s-.2.5-.5.5H7v23h18V6h-2.5c-.3 0-.5-.2-.5-.5s.2-.5.5-.5h3c.3 0 .5.2.5.5v24c0 .3-.2.5-.5.5z"/><path fill="#40455a" d="M20.5 6h-9c-.3 0-.5-.2-.5-.5v-3c0-.3.2-.5.5-.5H14c0-1.1.9-2 2-2s2 .9 2 2h2.5c.3 0 .5.2.5.5v3c0 .3-.2.5-.5.5zM12 5h8V3h-2.6c-.2 0-.3-.1-.4-.2-.1-.1-.1-.3-.1-.5.1-.1.1-.2.1-.3 0-.6-.4-1-1-1s-1 .4-1 1c0 .1 0 .2.1.3.1.2 0 .3-.1.5-.1.1-.2.2-.4.2H12v2zM14.5 14h-6c-.3 0-.5-.2-.5-.5v-6c0-.3.2-.5.5-.5h6c.3 0 .5.2.5.5v6c0 .3-.2.5-.5.5zM9 13h5V8H9v5zM21.5 14h-5c-.3 0-.5-.2-.5-.5s.2-.5.5-.5h5c.3 0 .5.2.5.5s-.2.5-.5.5zM20.5 10h-4c-.3 0-.5-.2-.5-.5s.2-.5.5-.5h4c.3 0 .5.2.5.5s-.2.5-.5.5zM23.5 10h-1c-.3 0-.5-.2-.5-.5s.2-.5.5-.5h1c.3 0 .5.2.5.5s-.2.5-.5.5zM23.5 20h-13c-.3 0-.5-.2-.5-.5s.2-.5.5-.5h13c.3 0 .5.2.5.5s-.2.5-.5.5zM8.5 20h-.2c-.1 0-.1-.1-.2-.1-.1-.1-.1-.3-.1-.4s0-.3.1-.4c0 0 .1-.1.2-.1.2-.1.4 0 .5.1.1.1.2.3.2.4s-.1.3-.2.3c0 0-.1.1-.2.1 0 .1 0 .1-.1.1zM17.5 22h-7c-.3 0-.5-.2-.5-.5s.2-.5.5-.5h7c.3 0 .5.2.5.5s-.2.5-.5.5zM8.5 22h-.2c-.1 0-.1-.1-.2-.1s-.1-.1-.1-.2v-.2-.2c0-.1.1-.1.1-.2.2-.1.4-.1.6-.1.1 0 .1.1.2.1s.1.1.1.2v.4c0 .1-.1.1-.1.2-.1.1-.3.1-.4.1zM17.5 24h-7c-.3 0-.5-.2-.5-.5s.2-.5.5-.5h7c.3 0 .5.2.5.5s-.2.5-.5.5zM8.5 24h-.2c-.1 0-.1-.1-.2-.1-.1-.1-.1-.3-.1-.4s0-.3.1-.4c.2-.1.4-.1.6-.1.1 0 .1.1.2.1s.1.1.1.2v.2c0 .1-.1.3-.2.3 0 0-.1.1-.2.1 0 .1 0 .1-.1.1zM23.5 12h-7c-.3 0-.5-.2-.5-.5s.2-.5.5-.5h7c.3 0 .5.2.5.5s-.2.5-.5.5zM23.5 18h-15c-.3 0-.5-.2-.5-.5v-2c0-.3.2-.5.5-.5h15c.3 0 .5.2.5.5v2c0 .3-.2.5-.5.5zM9 17h14v-1H9v1zM17.5 28h-9c-.3 0-.5-.2-.5-.5v-2c0-.3.2-.5.5-.5h9c.3 0 .5.2.5.5v2c0 .3-.2.5-.5.5zM9 27h8v-1H9v1zM23.5 8h-7c-.3 0-.5-.2-.5-.5s.2-.5.5-.5h7c.3 0 .5.2.5.5s-.2.5-.5.5z"/></svg>