<svg xmlns="http://www.w3.org/2000/svg" width="24" height="24" viewBox="0 0 24 24" id="ChatIcon"><g fill="#200E32" fill-rule="nonzero" transform="translate(2 2)"><path d="M10.0044562,0 C4.48262937,0 0.00492778897,4.47474596 0,9.99783787 L0,9.99783787 C-0.00316754113,11.6083009 0.384383333,13.1954876 1.12940924,14.6231721 C1.2005519,14.7565952 1.26280173,14.8900183 1.33394439,15.0145465 C1.49346527,15.321988 1.52541678,15.6799269 1.42287271,16.0107724 C1.13756059,16.772055 0.899957882,17.5503825 0.711446106,18.3412293 C0.711446106,18.7326037 0.82705293,18.9638704 1.24501606,18.9638704 C2.00457145,18.7934113 2.75297154,18.5765631 3.48600987,18.3145446 C3.80450999,18.2313904 4.14133219,18.2532265 4.44643579,18.3768088 C4.72211361,18.5191267 4.97111292,18.7237088 5.24679073,18.848237 L5.33571905,18.848237 C8.43611947,20.480542 12.1643126,20.371624 15.1641781,18.5611018 C18.1640435,16.7505795 19.998398,13.5023082 20,9.99783787 L20,9.99783787 C19.995097,4.47821713 15.5228104,0.00490415283 10.0044562,0 Z" opacity=".4"></path><path d="M5.26086954 11.5347828C4.56931298 11.5347828 4.00869562 10.9741655 4.00869562 10.2826089L4.00869562 10.2826089C4.00869562 9.59105236 4.56931298 9.030435 5.26086954 9.030435 5.9524261 9.030435 6.51304346 9.59105236 6.51304346 10.2826089 6.51304346 10.9741655 5.9524261 11.5347828 5.26086954 11.5347828L5.26086954 11.5347828zM9.78260869 11.5347824C9.44980102 11.537118 9.12994687 11.4059431 8.89461051 11.1706067 8.65927415 10.9352703 8.5280992 10.6154162 8.53043478 10.2826085L8.53043478 10.2826085C8.53043478 9.77615145 8.83551716 9.3195634 9.30342248 9.12575067 9.77132781 8.93193793 10.3099101 9.03906862 10.6680294 9.39718785 11.0261486 9.75530708 11.1332793 10.2938894 10.9394665 10.7617947 10.7456538 11.2297001 10.2890658 11.5347824 9.78260869 11.5347824zM14.2956522 11.5347828C13.6040956 11.5347828 13.0434783 10.9741655 13.0434783 10.2826089L13.0434783 10.2826089C13.0434783 9.59105236 13.6040956 9.030435 14.2956522 9.030435 14.9872088 9.030435 15.5478261 9.59105236 15.5478261 10.2826089 15.5478261 10.9741655 14.9872088 11.5347828 14.2956522 11.5347828z"></path></g></svg>