<svg xmlns="http://www.w3.org/2000/svg" width="39.69" height="44.184" viewBox="0 0 39.69 44.184" id="BoxingIcon">
  <g transform="translate(-436 -2505.844)"
  >
    <g transform="translate(438.995 2530.556)"
    >
      <g>
        <path d="M56.753,264a.749.749,0,0,0-.749.749v3a.749.749,0,1,0,1.5,0v-3A.749.749,0,0,0,56.753,264Z"
          transform="translate(-56.004 -264.002)"
          fill="#01af44"
        ></path>
      </g>
    </g>
    <g transform="translate(441.99 2532.054)"
    >
      <g>
        <path d="M88.753,280a.749.749,0,0,0-.749.749v3a.749.749,0,0,0,1.5,0v-3A.749.749,0,0,0,88.753,280Z"
          transform="translate(-88.004 -280.002)"
          fill="#01af44"
        ></path>
      </g>
    </g>
    <g transform="translate(460.713 2535.049)"
    >
      <g>
        <path d="M297.356,313.026a.749.749,0,0,0-.839,1.24,4.493,4.493,0,1,1-2.512-.766.749.749,0,0,0,0-1.5,5.991,5.991,0,1,0,3.35,1.024Z"
          transform="translate(-288.016 -312.002)"
          fill="#01af44"
        ></path>
      </g>
    </g>
    <path d="M63.34,32.709a8.982,8.982,0,0,0-4.889-5.675V10.484a.749.749,0,0,0-.368-.645L41.609.1a.749.749,0,0,0-.762,0L24.372,9.839c-.016.009-.027.022-.042.033s-.029.022-.044.034a.738.738,0,0,0-.165.183c0,.005-.009.008-.012.013v.005a.749.749,0,0,0-.085.245.662.662,0,0,1-.009.066.655.655,0,0,0-.01.065v19.47a.749.749,0,0,0,.368.645l16.475,9.735a.616.616,0,0,0,.061.025.591.591,0,0,0,.063.027.668.668,0,0,0,.515,0,.6.6,0,0,0,.064-.027c.019-.009.04-.014.06-.025l4.471-2.643a8.982,8.982,0,0,0,17.26-4.982ZM41.227,1.619l3.894,2.3L39.348,7.332a.749.749,0,1,0,.762,1.29l6.484-3.829,3.894,2.3-15,8.863-3.894-2.3,6.273-3.707a.749.749,0,1,0-.762-1.29L30.12,12.785l-3.895-2.3Zm-6.49,15.636v5l-3.869-2.286v-5ZM46.016,32.881a9.124,9.124,0,0,0-.246,3.253l-3.794,2.243V35.945a.749.749,0,0,0-1.5,0v2.432L25.5,29.527V11.8l3.869,2.286V20.4a.749.749,0,0,0,.368.646L35.1,24.212a.749.749,0,0,0,1.13-.645V18.139l4.244,2.508v12.3a.749.749,0,1,0,1.5,0v-12.3l13.572-8.02a.749.749,0,1,0-.762-1.29L41.227,19.35l-4.268-2.523,15-8.866,4.992,2.95v15.6A8.95,8.95,0,0,0,46.016,32.881Zm8.69,9.8A7.488,7.488,0,1,1,62.195,35.2,7.488,7.488,0,0,1,54.707,42.684Z"
      transform="translate(411.996 2505.844)"
      fill="#2446f5"
    ></path>
    <g transform="translate(463.717 2538.803)"
    >
      <g>
        <path d="M325.846,352.31a.749.749,0,0,0-1.041,0l-2.84,2.84-.594-.594a.749.749,0,0,0-1.059,1.059l1.123,1.123a.749.749,0,0,0,1.059,0l3.37-3.37A.749.749,0,0,0,325.846,352.31Z"
          transform="translate(-320.102 -352.1)"
          fill="#01af44"
        ></path>
      </g>
    </g>
  </g>
</svg>
