<svg xmlns="http://www.w3.org/2000/svg" version="1.1" x="0px" y="0px" viewBox="0 0 48 48" xml space="preserve" id="PandaIcon"><style type="text/css"></style><symbol id="New_Symbol_14" viewBox="-6.5 -6.5 13 13"><path class="st0" d="M0-6c2.2 0 4.1 1.5 4.7 3.5C6.3-2.5 6.4 0 5 0v1c0 2.8-2.2 5-5 5s-5-2.2-5-5V0c-1.4 0-1.3-2.5.2-2.5C-4.1-4.5-2.2-6 0-6z" fill="#FFD4C3" stroke="#504B46" stroke-linecap="round" stroke-linejoin="round" stroke-miterlimit="10"></path><circle class="st1" cx="-1.6" cy="-0.1" r="0.1" fill="#FFC258"></circle><path class="st2" d="M-1.6.5c-.3 0-.6-.3-.6-.6s.2-.7.6-.7c.3 0 .6.3.6.7s-.3.6-.6.6z" fill="#4F4B45"></path><circle class="st1" cx="1.6" cy="-0.1" r="0.1" fill="#FFC258"></circle><path class="st2" d="M1.6.5C1.3.5 1 .2 1-.1s.3-.6.6-.6.6.3.6.6-.2.6-.6.6z" fill="#4F4B45"></path><circle class="st3" cx="-3" cy="-1.5" r="0.5" fill="#FABFA5"></circle><circle class="st3" cx="3" cy="-1.5" r="0.5" fill="#FABFA5"></circle><path class="st4" d="M-1.2-3c.8-.5 1.7-.5 2.5 0" fill="none" stroke="#504B46" stroke-linecap="round" stroke-linejoin="round" stroke-miterlimit="10"></path></symbol><g id="Icons"><g id="XMLID_1315_"><ellipse id="XMLID_1328_" class="st5" cx="24" cy="45" rx="15.5" ry="1.7" fill="#45413C" opacity="0.15"></ellipse><ellipse id="XMLID_1298_" transform="matrix(0.5813 -0.8137 0.8137 0.5813 5.8823 33.0741)" class="st73" cx="35.1" cy="10.8" rx="10" ry="8.9" fill="#656769"></ellipse><path id="XMLID_1297_" class="st74" d="M27.9 7.9c3.2-4.5 9-5.8 13-3 2 1.4 3.1 3.6 3.4 5.9.3-3.2-.8-6.3-3.4-8.2-4-2.8-9.8-1.5-13 3-1.6 2.3-2.3 4.9-2 7.3.2-1.6.8-3.4 2-5z" fill="#87898C"></path><ellipse id="XMLID_1296_" transform="matrix(0.5813 -0.8137 0.8137 0.5813 5.8823 33.0741)" class="st10" cx="35.1" cy="10.8" rx="10" ry="8.9" fill="none" stroke="#45413C" stroke-linecap="round" stroke-linejoin="round" stroke-miterlimit="10"></ellipse><ellipse id="XMLID_1295_" transform="matrix(0.5813 -0.8137 0.8137 0.5813 5.8203 32.9535)" class="st75" cx="34.9" cy="10.8" rx="6.8" ry="6.1" fill="#E0E0E0"></ellipse><ellipse id="XMLID_1294_" transform="matrix(0.8137 -0.5813 0.5813 0.8137 -3.8553 9.6136)" class="st73" cx="13.1" cy="10.8" rx="8.9" ry="10" fill="#656769"></ellipse><path id="XMLID_1293_" class="st74" d="M7.3 4.9c4-2.8 9.8-1.5 13 3 1.1 1.6 1.8 3.4 2 5.1.3-2.4-.4-5.1-2-7.3-3.2-4.5-9-5.8-13-3-2.6 1.8-3.7 5-3.4 8.2.2-2.4 1.4-4.6 3.4-6z" fill="#87898C"></path><ellipse id="XMLID_1292_" transform="matrix(0.8137 -0.5813 0.5813 0.8137 -3.8553 9.6136)" class="st10" cx="13.1" cy="10.8" rx="8.9" ry="10" fill="none" stroke="#45413C" stroke-linecap="round" stroke-linejoin="round" stroke-miterlimit="10"></ellipse><ellipse id="XMLID_1291_" transform="matrix(0.8137 -0.5813 0.5813 0.8137 -3.8277 9.6997)" class="st75" cx="13.2" cy="10.8" rx="6.1" ry="6.8" fill="#E0E0E0"></ellipse><path id="XMLID_1290_" class="st76" d="M30 9.8c2.2-3.1 6.2-4 8.9-2 1.2.9 1.9 2.2 2.2 3.6.4-2.4-.3-4.7-2.2-6.1-2.7-1.9-6.7-1-8.9 2-1.2 1.7-1.6 3.7-1.3 5.5.2-1 .6-2.1 1.3-3z" fill="#BDBEC0"></path><path id="XMLID_1289_" class="st76" d="M9.3 7.8c2.7-1.9 6.7-1 8.9 2 .7.9 1.1 2 1.3 3 .3-1.8 0-3.8-1.3-5.5-2.2-3.1-6.2-4-8.9-2C7.4 6.6 6.6 9 7 11.4c.3-1.5 1-2.8 2.3-3.6z" fill="#BDBEC0"></path><ellipse id="XMLID_1277_" transform="matrix(0.5813 -0.8137 0.8137 0.5813 5.8203 32.9535)" class="st10" cx="34.9" cy="10.8" rx="6.8" ry="6.1" fill="none" stroke="#45413C" stroke-linecap="round" stroke-linejoin="round" stroke-miterlimit="10"></ellipse><ellipse id="XMLID_1263_" transform="matrix(0.8137 -0.5813 0.5813 0.8137 -3.8277 9.6997)" class="st10" cx="13.2" cy="10.8" rx="6.1" ry="6.8" fill="none" stroke="#45413C" stroke-linecap="round" stroke-linejoin="round" stroke-miterlimit="10"></ellipse><path id="XMLID_1262_" class="st41" d="M44.8 25.2C43 13.8 34.2 5.5 24 5.5c-10.2 0-19 8.3-20.8 19.7-1.2 7.8 4.1 15 11.1 15H16c1.9 1.6 4.7 2.7 7.9 2.7s6-1 7.9-2.7h2c6.9 0 12.2-7.2 11-15z" fill="#F0F0F0"></path><path id="XMLID_1261_" class="st17" d="M3.2 29.6C5 18.2 13.8 9.9 24 9.9c10.2 0 19 8.3 20.8 19.7.2-1.4.2-2.9 0-4.4C43 13.8 34.2 5.5 24 5.5c-10.2 0-19 8.3-20.8 19.7-.2 1.5-.2 3 0 4.4z" fill="#FFF"></path><path id="XMLID_1260_" class="st10" d="M44.8 25.2C43 13.8 34.2 5.5 24 5.5c-10.2 0-19 8.3-20.8 19.7-1.2 7.8 4.1 15 11.1 15H16c1.9 1.6 4.7 2.7 7.9 2.7s6-1 7.9-2.7h2c6.9 0 12.2-7.2 11-15z" fill="none" stroke="#45413C" stroke-linecap="round" stroke-linejoin="round" stroke-miterlimit="10"></path><path id="XMLID_1259_" class="st77" d="M27.9 32.5c0 1.1-1.7 3-3.9 3s-3.9-1.8-3.9-3c0-1.1 1.7-2 3.9-2s3.9.8 3.9 2z" fill="#656769" stroke="#45413C" stroke-linecap="round" stroke-linejoin="round" stroke-miterlimit="10"></path><path id="XMLID_1258_" class="st77" d="M28.1 20.1c-.9 5.1 3.1 7.7 6.1 8.8 3.1 1.2 4.8-1 4.8-4.1-.1-3.1-2-7.3-5.4-8.2-3-.7-5.3 2-5.5 3.5z" fill="#656769" stroke="#45413C" stroke-linecap="round" stroke-linejoin="round" stroke-miterlimit="10"></path><path id="XMLID_1257_" class="st77" d="M19.8 20.1c.9 5.1-3.1 7.7-6.1 8.8-3.1 1.2-4.8-1-4.8-4.1.1-3.1 2-7.3 5.4-8.2 3-.7 5.2 2 5.5 3.5z" fill="#656769" stroke="#45413C" stroke-linecap="round" stroke-linejoin="round" stroke-miterlimit="10"></path><circle id="XMLID_1256_" class="st78" cx="31.8" cy="22.1" r="1.7" fill="#45413C" stroke="#45413C" stroke-linecap="round" stroke-linejoin="round" stroke-miterlimit="10"></circle><circle id="XMLID_1255_" class="st78" cx="16.2" cy="22.1" r="1.7" fill="#45413C" stroke="#45413C" stroke-linecap="round" stroke-linejoin="round" stroke-miterlimit="10"></circle><circle id="XMLID_1254_" class="st79" cx="41.4" cy="29.7" r="2" fill="#FFA694"></circle><circle id="XMLID_1252_" class="st79" cx="6.6" cy="29.7" r="2" fill="#FFA694"></circle><path id="XMLID_1251_" class="st10" fill="none" stroke="#45413C" stroke-linecap="round" stroke-linejoin="round" stroke-miterlimit="10" d="M24 35.4v2.2"></path></g></g></svg>
