<svg style="width:15px;height:15px" version="1.1" xmlns="http://www.w3.org/2000/svg" width="32" height="32" viewBox="0 0 32 32" id="BikeOutlineIconIcon">
  <title>bike-o</title>
  <path d="M5.786 30.414c-2.912 0-5.272-2.361-5.272-5.272s2.361-5.272 5.272-5.272c2.912 0 5.272 2.361 5.272 5.272v0c-0.003 2.911-2.362 5.269-5.272 5.272h-0zM5.786 21.919c-1.781 0-3.224 1.444-3.224 3.224s1.444 3.224 3.224 3.224c1.781 0 3.224-1.444 3.224-3.224v0c-0.001-1.78-1.444-3.223-3.224-3.224h-0zM14.787 19.542h-5.972c-0.566 0-1.024-0.458-1.024-1.024s0.458-1.024 1.024-1.024v0h5.974c1.341 0 2.474-0.785 2.474-1.713s-1.133-1.713-2.474-1.713h-3.584c-0.566 0-1.024-0.458-1.024-1.024s0.458-1.024 1.024-1.024v0h3.584c2.493 0 4.522 1.687 4.522 3.761s-2.030 3.761-4.524 3.761zM9.752 14.769h-3.158c-0 0-0 0-0 0-0.566 0-1.024-0.458-1.024-1.024 0-0.005 0-0.011 0-0.016v0.001l0.061-3.608c0.009-0.559 0.464-1.009 1.024-1.009 0 0 0 0 0 0h0.017c0.558 0.009 1.008 0.464 1.008 1.024 0 0.006-0 0.012-0 0.018v-0.001l-0.040 2.568h2.112c0.566 0 1.024 0.458 1.024 1.024s-0.458 1.024-1.024 1.024v0zM27.776 18.944h-10.258c-0.566 0-1.024-0.458-1.024-1.024s0.458-1.024 1.024-1.024v0h10.258c0.849 0 1.439-0.484 1.439-0.918s-0.591-0.918-1.439-0.918h-10.002c-0.566 0-1.024-0.458-1.024-1.024s0.458-1.024 1.024-1.024v0h10.002c1.92 0 3.487 1.33 3.487 2.966s-1.567 2.966-3.487 2.966zM26.135 30.414c-2.912 0-5.272-2.361-5.272-5.272s2.361-5.272 5.272-5.272c2.912 0 5.272 2.361 5.272 5.272v0c-0.003 2.911-2.362 5.269-5.272 5.272h-0zM26.135 21.919c-1.781 0-3.224 1.444-3.224 3.224s1.444 3.224 3.224 3.224c1.781 0 3.224-1.444 3.224-3.224v0c-0.001-1.78-1.444-3.223-3.224-3.224h-0zM5.786 26.167c-0.566-0-1.024-0.459-1.024-1.024 0-0.124 0.022-0.243 0.062-0.353l-0.002 0.007 5.967-16.694c0.146-0.399 0.522-0.679 0.964-0.68h4.992c0.566 0 1.024 0.458 1.024 1.024s-0.458 1.024-1.024 1.024v0h-4.27l-5.725 16.015c-0.146 0.399-0.522 0.679-0.964 0.68h-0zM26.136 26.176c-0.452-0-0.835-0.293-0.971-0.699l-0.002-0.007-2.134-6.55c-0.032-0.096-0.051-0.206-0.051-0.32 0-0.566 0.459-1.025 1.025-1.025 0.451 0 0.835 0.292 0.971 0.697l0.002 0.007 2.134 6.552c0.032 0.095 0.050 0.204 0.050 0.317 0 0.566-0.458 1.024-1.024 1.024-0 0-0 0-0.001 0h0z"></path>{' '}
</svg>
