 <svg version="1.1" xmlns="http://www.w3.org/2000/svg" width="24" height="24" viewBox="0 0 24 24" id="BlurLinearTwoToneIcon">
  <React.Fragment>
    <path d="M17 16.5c.28 0 .5-.22.5-.5s-.22-.5-.5-.5-.5.22-.5.5.22.5.5.5z" ></path>
    <circle cx="9" cy="12" r="1" ></circle>
    <circle cx="13" cy="8" r="1" ></circle>
    <circle cx="13" cy="16" r="1" ></circle>
    <path d="M17 12.5c.28 0 .5-.22.5-.5s-.22-.5-.5-.5-.5.22-.5.5.22.5.5.5z" ></path>
    <circle cx="13" cy="12" r="1" ></circle>
    <path d="M3 3h18v2H3z" ></path>
    <circle cx="5" cy="8" r="1.5" ></circle>
    <circle cx="5" cy="12" r="1.5" ></circle>
    <circle cx="5" cy="16" r="1.5" ></circle>
    <path d="M17 8.5c.28 0 .5-.22.5-.5s-.22-.5-.5-.5-.5.22-.5.5.22.5.5.5z" ></path>
    <circle cx="9" cy="16" r="1" ></circle>
    <circle cx="9" cy="8" r="1" ></circle>
    <path d="M3 19h18v2H3z" ></path>
  </React.Fragment>,
  'BlurLinearTwoTone',
</svg>
