<svg
  xmlns="http://www.w3.org/2000/svg"
  viewBox="0 0 14.6 18.3"
  style="width:15px;height:15px"
  id="MapMarkerOutlineIcon"
>
  <g transform="translate(-47.2)">
    <g transform="translate(47.2)">
      <path
        d="M54.5 0a7.3 7.3 0 00-7.3 7.3 7.2 7.2 0 00.1 1.4v.2a7.2 7.2 0 00.6 1.5 20.5 20.5 0 006.3 7.7.5.5 0 00.7 0 20.6 20.6 0 006.3-7.7 7.1 7.1 0 00.5-1.5 4.3 4.3 0 000-.2 7.5 7.5 0 00.1-1.4A7.3 7.3 0 0054.5 0zm6.2 8.5v.2a6 6 0 01-.5 1.3 19.1 19.1 0 01-5.7 7 19.1 19.1 0 01-5.7-7 6.5 6.5 0 01-.4-1.3v-.2a6.3 6.3 0 1112.3 0z"
        transform="translate(-47.2)"
      ></path>
      <path
        d="M121.6 71.9a4.6 4.6 0 104.7 4.6 4.7 4.7 0 00-4.7-4.6zm0 8.3a3.6 3.6 0 113.7-3.7 3.6 3.6 0 01-3.7 3.7z"
        transform="translate(-114.3 -69.1)"
      ></path>
    </g>
  </g>
</svg>
