<svg xmlns="http://www.w3.org/2000/svg" height="21.013" viewBox="0 0 23 21.013" style="width:15px;height:15px" id="ShoppingBasketIcon">
  <g>
    <path d="M246.449 200.886a.449.449 0 1 0-.449-.449.449.449 0 0 0 .449.449zm0 0"
      transform="translate(-234.949 -199.988)"
    ></path>
    <g transform="translate(0 .532)">
      <path d="M21.2 6.517h-2.654L14.46.691a1.324 1.324 0 0 0-1.818-.515 1.423 1.423 0 0 0-.523 1.9.476.476 0 0 0 .035.055l3.205 4.387H7.641l3.205-4.388a.5.5 0 0 0 .035-.055 1.423 1.423 0 0 0-.524-1.9A1.325 1.325 0 0 0 8.54.691L4.453 6.517H1.8A1.832 1.832 0 0 0 0 8.379a1.863 1.863 0 0 0 1.221 1.764.437.437 0 0 0 .275.1.42.42 0 0 1 .061 0 .455.455 0 0 1 .382.378l1.528 8.712a1.361 1.361 0 0 0 1.326 1.146h13.414a1.361 1.361 0 0 0 1.326-1.147l1.528-8.712a.455.455 0 0 1 .383-.378.4.4 0 0 1 .06 0 .437.437 0 0 0 .276-.1A1.863 1.863 0 0 0 23 8.379a1.832 1.832 0 0 0-1.8-1.862zM12.892 1.6a.474.474 0 0 1 .186-.61.442.442 0 0 1 .611.179.44.44 0 0 0 .029.048l3.717 5.3h-.95zm-3.611-.382a.5.5 0 0 0 .029-.048.442.442 0 0 1 .611-.18.474.474 0 0 1 .186.609L6.514 6.517h-.95zM21.2 9.31h-7.9a.463.463 0 0 0 0 .926h6.936a1.455 1.455 0 0 0-.055.216l-1.528 8.717a.454.454 0 0 1-.442.382H4.793a.454.454 0 0 1-.442-.382l-1.529-8.713a1.446 1.446 0 0 0-.055-.215H9.7a.466.466 0 0 0 0-.931H1.8a.932.932 0 0 1 0-1.862h19.4a.932.932 0 0 1 0 1.862zm0 0"
        transform="translate(0 -.001)"
      ></path>
      <path d="M227.348 249.988a1.349 1.349 0 0 0-1.348 1.348v3.594a1.348 1.348 0 1 0 2.7 0v-3.594a1.347 1.347 0 0 0-1.352-1.348zm.449 4.941a.449.449 0 1 1-.9 0v-3.594a.449.449 0 0 1 .9 0zm0 0"
        transform="translate(-215.848 -238.042)"
      ></path>
      <path d="M327.348 256.277a1.349 1.349 0 0 0 1.348-1.348v-3.594a1.348 1.348 0 1 0-2.7 0v3.594a1.349 1.349 0 0 0 1.352 1.348zm-.449-4.941a.449.449 0 1 1 .9 0v3.594a.449.449 0 1 1-.9 0zm0 0"
        transform="translate(-311.356 -238.042)"
      ></path>
      <path d="M127.348 249.988a1.349 1.349 0 0 0-1.348 1.348v3.594a1.348 1.348 0 1 0 2.7 0v-3.594a1.347 1.347 0 0 0-1.352-1.348zm.449 4.941a.449.449 0 1 1-.9 0v-3.594a.449.449 0 0 1 .9 0zm0 0"
        transform="translate(-120.34 -238.042)"
      ></path>
    </g>
  </g>
</svg>
