<svg xmlns="http://www.w3.org/2000/svg" width="24" height="24" viewBox="0 0 24 24"><g fill="none" fill-rule="evenodd" stroke="#200E32" stroke-linecap="round" stroke-linejoin="round" stroke-width="1.5" transform="translate(2 2)"><path d="M14.2855094 9.76996262e-15L17.5521036 9.76996262e-15C18.9036211 9.76996262e-15 20 1.10589743 20 2.47018211L20 5.76410278C20 7.12735391 18.9036211 8.23428489 17.5521036 8.23428489L14.2855094 8.23428489C12.9329672 8.23428489 11.8365883 7.12735391 11.8365883 5.76410278L11.8365883 2.47018211C11.8365883 1.10589743 12.9329672 9.76996262e-15 14.2855094 9.76996262e-15zM2.44892104 9.76996262e-15L5.71449064 9.76996262e-15C7.06703281 9.76996262e-15 8.16341169 1.10589743 8.16341169 2.47018211L8.16341169 5.76410278C8.16341169 7.12735391 7.06703281 8.23428489 5.71449064 8.23428489L2.44892104 8.23428489C1.09637888 8.23428489 3.55271368e-15 7.12735391 3.55271368e-15 5.76410278L3.55271368e-15 2.47018211C3.55271368e-15 1.10589743 1.09637888 9.76996262e-15 2.44892104 9.76996262e-15zM2.44892104 11.7657151L5.71449064 11.7657151C7.06703281 11.7657151 8.16341169 12.8716125 8.16341169 14.2369308L8.16341169 17.5298179C8.16341169 18.8941026 7.06703281 20 5.71449064 20L2.44892104 20C1.09637888 20 3.55271368e-15 18.8941026 3.55271368e-15 17.5298179L3.55271368e-15 14.2369308C3.55271368e-15 12.8716125 1.09637888 11.7657151 2.44892104 11.7657151zM14.2855094 11.7657151L17.5521036 11.7657151C18.9036211 11.7657151 20 12.8716125 20 14.2369308L20 17.5298179C20 18.8941026 18.9036211 20 17.5521036 20L14.2855094 20C12.9329672 20 11.8365883 18.8941026 11.8365883 17.5298179L11.8365883 14.2369308C11.8365883 12.8716125 12.9329672 11.7657151 14.2855094 11.7657151z"/></g></svg>