<svg xmlns="http://www.w3.org/2000/svg" version="1.1" x="0px" y="0px" viewBox="0 0 48 48" xml:space="preserve"><style type="text/css">.st0{fill:#FFD4C3;stroke:#504B46;stroke-linecap:round;stroke-linejoin:round;stroke-miterlimit:10;} .st1{fill:#FFC258;} .st2{fill:#4F4B45;} .st3{fill:#FABFA5;} .st4{fill:none;stroke:#504B46;stroke-linecap:round;stroke-linejoin:round;stroke-miterlimit:10;} .Graphic_x0020_Style{opacity:0.15;fill:#45413C;} .st5{opacity:0.15;fill:#45413C;} .st6{fill:#DEBB7E;stroke:#45413C;stroke-linecap:round;stroke-linejoin:round;stroke-miterlimit:10;} .st7{fill:#F0D5A8;} .st8{fill:#F7E5C6;} .st9{fill:#DEBB7E;} .st10{fill:none;stroke:#45413C;stroke-linecap:round;stroke-linejoin:round;stroke-miterlimit:10;} .st11{fill:#FFE500;} .st12{fill:#EBCB00;} .st13{fill:none;stroke:#EBCB00;stroke-linecap:round;stroke-linejoin:round;stroke-miterlimit:10;} .st14{fill:#FF6242;stroke:#45413C;stroke-linecap:round;stroke-linejoin:round;stroke-miterlimit:10;} .st15{fill:#FFFFFF;stroke:#45413C;stroke-linecap:round;stroke-linejoin:round;stroke-miterlimit:10;} .st16{fill:#E5F8FF;} .st17{fill:#FFFFFF;} .st18{fill:#E8F4FA;} .st19{fill:#E8F4FA;stroke:#45413C;stroke-linecap:round;stroke-linejoin:round;stroke-miterlimit:10;} .st20{fill:#FFCCDD;} .st21{fill:#FFB0CA;stroke:#45413C;stroke-linecap:round;stroke-linejoin:round;stroke-miterlimit:10;} .st22{fill:#FF87AF;stroke:#45413C;stroke-linecap:round;stroke-linejoin:round;stroke-miterlimit:10;} .st23{fill:#E5F8FF;stroke:#45413C;stroke-linecap:round;stroke-linejoin:round;stroke-miterlimit:10;} .st24{fill:#BF8256;stroke:#45413C;stroke-linecap:round;stroke-linejoin:round;stroke-miterlimit:10;} .st25{fill:#9CEB60;} .st26{fill:#6DD627;} .st27{fill:#C8FFA1;} .st28{fill:#FFFACF;} .st29{fill:#FF87AF;} .st30{fill:#FFB0CA;} .st31{fill:#FF6196;} .st32{fill:#FFCCDD;stroke:#45413C;stroke-linecap:round;stroke-linejoin:round;stroke-miterlimit:10;} .st33{fill:#FF6196;stroke:#45413C;stroke-linecap:round;stroke-linejoin:round;stroke-miterlimit:10;} .st34{fill:#FFE5EE;} .st35{fill:#00B8F0;} .st36{fill:#4ACFFF;} .st37{fill:#BF8256;} .st38{fill:#DEA47A;} .st39{fill:#915E3A;} .st40{fill:#FFF5E3;} .st41{fill:#F0F0F0;} .st42{fill:#8CA4B8;} .st43{fill:#627B8C;} .st44{fill:#C0DCEB;} .st45{fill:#FFF48C;} .st46{fill:#FFE500;stroke:#45413C;stroke-linecap:round;stroke-linejoin:round;stroke-miterlimit:10;} .st47{fill:#FFAA54;} .st48{fill:#6DD627;stroke:#45413C;stroke-linecap:round;stroke-linejoin:round;stroke-miterlimit:10;} .st49{fill:#FF8A14;} .st50{fill:#FFCC99;} .st51{fill:#EBCB00;stroke:#45413C;stroke-linecap:round;stroke-linejoin:round;stroke-miterlimit:10;} .st52{fill:#00F5BC;stroke:#45413C;stroke-linecap:round;stroke-linejoin:round;stroke-miterlimit:10;} .st53{fill:#BF8DF2;stroke:#45413C;stroke-linecap:round;stroke-linejoin:round;stroke-miterlimit:10;} .st54{fill:#FF8A14;stroke:#45413C;stroke-linecap:round;stroke-linejoin:round;stroke-miterlimit:10;} .st55{fill:#4AEFF7;stroke:#45413C;stroke-linecap:round;stroke-linejoin:round;stroke-miterlimit:10;} .st56{fill:#FFF48C;stroke:#45413C;stroke-linecap:round;stroke-linejoin:round;stroke-miterlimit:10;} .st57{fill:#FF6242;} .st58{fill:#E04122;} .st59{fill:#46B000;} .st60{fill:none;stroke:#45413C;stroke-miterlimit:10;} .st61{fill:#00B8F0;stroke:#45413C;stroke-linecap:round;stroke-linejoin:round;stroke-miterlimit:10;} .st62{fill:#FF866E;} .st63{fill:#9F5AE5;stroke:#45413C;stroke-linecap:round;stroke-linejoin:round;stroke-miterlimit:10;} .st64{fill:#E4FFD1;} .st65{fill:#FFFEF2;} .st66{fill:#B89558;} .st67{fill:none;stroke:#915E3A;stroke-linecap:round;stroke-linejoin:round;stroke-miterlimit:10;} .st68{fill:#915E3A;stroke:#45413C;stroke-linecap:round;stroke-linejoin:round;stroke-miterlimit:10;} .st69{fill:#BF8DF2;} .st70{fill:#9F5AE5;} .st71{fill:#DABFF5;} .st72{fill:none;stroke:#45413C;stroke-linejoin:round;stroke-miterlimit:10;} .st73{fill:#656769;} .st74{fill:#87898C;} .st75{fill:#E0E0E0;} .st76{fill:#BDBEC0;} .st77{fill:#656769;stroke:#45413C;stroke-linecap:round;stroke-linejoin:round;stroke-miterlimit:10;} .st78{fill:#45413C;stroke:#45413C;stroke-linecap:round;stroke-linejoin:round;stroke-miterlimit:10;} .st79{fill:#FFA694;} .st80{fill:#E04122;stroke:#45413C;stroke-linecap:round;stroke-linejoin:round;stroke-miterlimit:10;} .st81{fill:#E0E0E0;stroke:#45413C;stroke-linecap:round;stroke-linejoin:round;stroke-miterlimit:10;} .st82{fill:#F0F0F0;stroke:#45413C;stroke-linecap:round;stroke-linejoin:round;stroke-miterlimit:10;} .st83{fill:#DAEDF7;} .st84{fill:#BDBEC0;stroke:#45413C;stroke-linecap:round;stroke-linejoin:round;stroke-miterlimit:10;} .st85{fill:#87898C;stroke:#45413C;stroke-linecap:round;stroke-linejoin:round;stroke-miterlimit:10;} .st86{fill:#00DFEB;} .st87{fill:#4AEFF7;} .st88{fill:#DAEDF7;stroke:#45413C;stroke-linecap:round;stroke-linejoin:round;stroke-miterlimit:10;} .st89{fill:#FFDA8F;} .st90{fill:#FFBE3D;} .st91{fill:#FFE9BD;} .st92{fill:#DEA47A;stroke:#45413C;stroke-linecap:round;stroke-linejoin:round;stroke-miterlimit:10;} .st93{fill:#45413C;} .st94{fill:#F0C2A1;} .st95{fill:none;stroke:#45413C;stroke-width:1.0064;stroke-linecap:round;stroke-linejoin:round;stroke-miterlimit:10;} .st96{fill:#525252;} .st97{fill:#EB6D00;stroke:#45413C;stroke-linecap:round;stroke-linejoin:round;stroke-miterlimit:10;} .st98{fill:#EB6D00;} .st99{fill:#E5FEFF;} .st100{fill:#FF866E;stroke:#45413C;stroke-linecap:round;stroke-linejoin:round;stroke-miterlimit:10;} .st101{fill:#627B8C;stroke:#45413C;stroke-linecap:round;stroke-linejoin:round;stroke-miterlimit:10;} .st102{fill:#FFFCE5;stroke:#45413C;stroke-linecap:round;stroke-linejoin:round;stroke-miterlimit:10;} .st103{fill:#A6FBFF;} .st104{fill:#D9FDFF;} .st105{fill:#FFFACF;stroke:#45413C;stroke-linecap:round;stroke-linejoin:round;stroke-miterlimit:10;} .st106{fill:#B8ECFF;} .st107{fill:#FFCABF;} .st108{fill:#E5FFF9;} .st109{fill:#C8FFA1;stroke:#45413C;stroke-linecap:round;stroke-linejoin:round;stroke-miterlimit:10;} .st110{fill:#4CF4FC;} .st111{fill:#F0D5A8;stroke:#45413C;stroke-linecap:round;stroke-linejoin:round;stroke-miterlimit:10;} .st112{fill:#FFDCD1;stroke:#45413C;stroke-linecap:round;stroke-linejoin:round;stroke-miterlimit:10;} .st113{fill:#80DDFF;} .st114{fill:#46B000;stroke:#45413C;stroke-linecap:round;stroke-linejoin:round;stroke-miterlimit:10;} .st115{fill:#4ACFFF;stroke:#45413C;stroke-linecap:round;stroke-linejoin:round;stroke-miterlimit:10;} .st116{fill:#ADC4D9;} .st117{fill:#BDBEC0;stroke:#45413C;stroke-width:1.0064;stroke-linecap:round;stroke-linejoin:round;stroke-miterlimit:10;} .st118{fill:#FFFCE5;} .st119{fill:#947746;} .st120{fill:#525252;stroke:#45413C;stroke-linecap:round;stroke-linejoin:round;stroke-miterlimit:10;}</style><symbol id="New_Symbol_14" viewBox="-6.5 -6.5 13 13"><path class="st0" d="M0-6c2.2 0 4.1 1.5 4.7 3.5C6.3-2.5 6.4 0 5 0v1c0 2.8-2.2 5-5 5s-5-2.2-5-5V0c-1.4 0-1.3-2.5.2-2.5C-4.1-4.5-2.2-6 0-6z" fill="#FFD4C3" stroke="#504B46" stroke-linecap="round" stroke-linejoin="round" stroke-miterlimit="10"/><circle class="st1" cx="-1.6" cy="-0.1" r="0.1" fill="#FFC258"/><path class="st2" d="M-1.6.5c-.3 0-.6-.3-.6-.6s.2-.7.6-.7c.3 0 .6.3.6.7s-.3.6-.6.6z" fill="#4F4B45"/><circle class="st1" cx="1.6" cy="-0.1" r="0.1" fill="#FFC258"/><path class="st2" d="M1.6.5C1.3.5 1 .2 1-.1s.3-.6.6-.6.6.3.6.6-.2.6-.6.6z" fill="#4F4B45"/><circle class="st3" cx="-3" cy="-1.5" r="0.5" fill="#FABFA5"/><circle class="st3" cx="3" cy="-1.5" r="0.5" fill="#FABFA5"/><path class="st4" d="M-1.2-3c.8-.5 1.7-.5 2.5 0" fill="none" stroke="#504B46" stroke-linecap="round" stroke-linejoin="round" stroke-miterlimit="10"/></symbol><g id="Icons"><g id="XMLID_1217_"><ellipse id="XMLID_1080_" class="st5" cx="25.2" cy="44" rx="10" ry="1.5" fill="#45413C" opacity="0.15"/><g id="XMLID_1012_"><path id="XMLID_1067_" class="st10" d="M26.6 10.2c-.8-1.4-1.8-3.8-1.8-7.8 0 3.9-.9 6.3-1.8 7.7" fill="none" stroke="#45413C" stroke-linecap="round" stroke-linejoin="round" stroke-miterlimit="10"/><ellipse id="XMLID_1066_" transform="matrix(0.7655 -0.6435 0.6435 0.7655 -7.3863 14.142)" class="st51" cx="15.7" cy="17.2" rx="10.2" ry="3" fill="#EBCB00" stroke="#45413C" stroke-linecap="round" stroke-linejoin="round" stroke-miterlimit="10"/><path id="XMLID_1065_" class="st11" d="M23.5 10.6c-1.1-1.3-5.4.7-9.7 4.3-4.3 3.6-6.9 7.6-5.9 8.8C4.3 19.5 4.8 13 9.2 9.4c4.3-3.6 10.7-3.1 14.3 1.2z" fill="#FFE500"/><path id="XMLID_1064_" class="st45" d="M9.2 11.5c3.4-2.9 8.2-3.1 11.8-.9 1.2-.4 2.1-.4 2.5.1-3.6-4.3-10-4.9-14.4-1.2-2.7 2.3-3.9 5.7-3.6 8.9.3-2.6 1.5-5.1 3.7-6.9z" fill="#FFF48C"/><path id="XMLID_1063_" class="st10" d="M23.5 10.6c-1.1-1.3-5.4.7-9.7 4.3-4.3 3.6-6.9 7.6-5.9 8.8C4.3 19.5 4.8 13 9.2 9.4c4.3-3.6 10.7-3.1 14.3 1.2z" fill="none" stroke="#45413C" stroke-linecap="round" stroke-linejoin="round" stroke-miterlimit="10"/><ellipse id="XMLID_1062_" transform="matrix(0.6435 -0.7655 0.7655 0.6435 -1.0699 32.111)" class="st51" cx="33.9" cy="17.2" rx="3" ry="10.2" fill="#EBCB00" stroke="#45413C" stroke-linecap="round" stroke-linejoin="round" stroke-miterlimit="10"/><path id="XMLID_1061_" class="st11" d="M26.1 10.6c1.1-1.3 5.4.7 9.7 4.3 4.3 3.6 6.9 7.6 5.9 8.8 3.6-4.3 3.1-10.7-1.2-14.4-4.3-3.5-10.7-3-14.4 1.3z" fill="#FFE500"/><path id="XMLID_1060_" class="st45" d="M40.5 11.5c-3.4-2.9-8.2-3.1-11.8-.9-1.2-.4-2.1-.4-2.5.1 3.6-4.3 10-4.9 14.4-1.2 2.7 2.3 3.9 5.7 3.6 8.9-.4-2.6-1.6-5.1-3.7-6.9z" fill="#FFF48C"/><path id="XMLID_1059_" class="st10" d="M26.1 10.6c1.1-1.3 5.4.7 9.7 4.3 4.3 3.6 6.9 7.6 5.9 8.8 3.6-4.3 3.1-10.7-1.2-14.4-4.3-3.5-10.7-3-14.4 1.3z" fill="none" stroke="#45413C" stroke-linecap="round" stroke-linejoin="round" stroke-miterlimit="10"/><path id="XMLID_1058_" class="st52" d="M4.9 27.8C4.1 29 3 29.6 1.7 29.7l-1.2-2c1.4-.1 2.5-.7 3.3-1.8l1.1 1.9z" fill="#00F5BC" stroke="#45413C" stroke-linecap="round" stroke-linejoin="round" stroke-miterlimit="10"/><path id="XMLID_1057_" class="st14" d="M32.2 15.5c0 1.4-.5 2.5-1.6 3.4l-2.1-1c1.1-.8 1.7-2 1.6-3.4l2.1 1z" fill="#FF6242" stroke="#45413C" stroke-linecap="round" stroke-linejoin="round" stroke-miterlimit="10"/><path id="XMLID_1056_" class="st33" d="M31.4 38.8c-.9-1.1-1.1-2.3-.8-3.7l2.3-.5c-.3 1.3-.1 2.6.8 3.7l-2.3.5z" fill="#FF6196" stroke="#45413C" stroke-linecap="round" stroke-linejoin="round" stroke-miterlimit="10"/><path id="XMLID_1055_" class="st53" d="M19.8 14.6c-.9 1.1-1.1 2.3-.7 3.7l2.3.5c-.4-1.3-.1-2.6.7-3.7l-2.3-.5z" fill="#BF8DF2" stroke="#45413C" stroke-linecap="round" stroke-linejoin="round" stroke-miterlimit="10"/><path id="XMLID_1054_" class="st53" d="M43.5 27.4c1.2.8 2.4.9 3.7.5l.3-2.3c-1.3.5-2.6.3-3.7-.5l-.3 2.3z" fill="#BF8DF2" stroke="#45413C" stroke-linecap="round" stroke-linejoin="round" stroke-miterlimit="10"/><path id="XMLID_1053_" class="st54" d="M28.2 30.2c-.7 1.2-1.7 1.9-3.1 2.1l-1.3-1.9c1.4-.2 2.4-.9 3.1-2.1l1.3 1.9z" fill="#FF8A14" stroke="#45413C" stroke-linecap="round" stroke-linejoin="round" stroke-miterlimit="10"/><path id="XMLID_1045_" class="st55" d="M22.3 22.9c1.4.1 2.5.7 3.2 1.9l-1.2 2c-.8-1.2-1.8-1.8-3.2-1.9l1.2-2z" fill="#4AEFF7" stroke="#45413C" stroke-linecap="round" stroke-linejoin="round" stroke-miterlimit="10"/><path id="XMLID_1038_" class="st56" d="M16.6 37.1c.3-1.4 1.1-2.3 2.4-2.8l1.8 1.5c-1.3.5-2.1 1.5-2.4 2.8l-1.8-1.5z" fill="#FFF48C" stroke="#45413C" stroke-linecap="round" stroke-linejoin="round" stroke-miterlimit="10"/><g id="XMLID_1026_"><path id="XMLID_1035_" class="st57" d="M18.7 20.8l-2 .2s.1 3-1.2 6.1c-.2-.5-.6-.9-1-1.2-1.7-1.4-4.2-1.1-5.5.6-1.4 1.7-1.1 4.2.6 5.5.6.5 1.3.8 2 .8C9.1 35.5 6 36.4 6 36.4l.5 1.9c3-.9 6.7-3.4 8.7-6.9 2.6-3.1 3.8-7.4 3.5-10.6zm-8.2 6.9c.7-.9 1.9-1 2.8-.3.9.7 1 1.9.3 2.8-.7.9-1.9 1-2.8.3-.8-.7-.9-1.9-.3-2.8z" fill="#FF6242"/><path id="XMLID_1034_" class="st58" d="M15.2 31.4c-.9 1.1-2.2 1.6-3.5 1.5-.4.4-.8.8-1.2 1.1.9.3 1.8.3 2.7.2.8-.9 1.5-1.8 2-2.8z" fill="#E04122"/><g id="XMLID_1031_"><path id="XMLID_1032_" class="st10" d="M10.5 27.7c-.7.9-.5 2.1.3 2.8.9.7 2.1.5 2.8-.3.7-.9.5-2.1-.3-2.8-.8-.7-2.1-.5-2.8.3z" fill="none" stroke="#45413C" stroke-linecap="round" stroke-linejoin="round" stroke-miterlimit="10"/></g><g id="XMLID_1029_"><path id="XMLID_1030_" class="st58" d="M13.7 30.2c.8-1 1.4-2 1.9-3.1-.2-.4-.6-.8-1-1.2-.2.6-.5 1.3-.9 1.9.5.7.5 1.7 0 2.4z" fill="#E04122"/></g><g id="XMLID_1027_"><path id="XMLID_1028_" class="st10" d="M13.6 30.2c3.4-3.9 3.1-9.2 3.1-9.2l2-.2c.3 3.2-.9 7.5-3.6 10.6" fill="none" stroke="#45413C" stroke-linecap="round" stroke-linejoin="round" stroke-miterlimit="10"/></g></g><g id="XMLID_1013_"><g id="XMLID_1020_"><path id="XMLID_1023_" class="st26" d="M38.1 32c.7-.2 1.3-.6 1.8-1.1 1.5-1.6 1.3-4.1-.3-5.6-1.6-1.4-4.1-1.3-5.6.3-.4.4-.6.9-.8 1.3-1.8-2.9-2.2-5.8-2.2-5.8l-2 .2c.3 3.2 2.1 7.2 5.2 9.8 2.5 3.1 4.9 3.6 8.1 3.9l.2-2c.1.2-2 .6-4.4-1zm-2.6-5c.7-.8 2-.9 2.8-.1.8.7.9 2 .1 2.8-.7.8-2 .9-2.8.1-.7-.8-.8-2-.1-2.8z" fill="#6DD627"/><path id="XMLID_1022_" class="st59" d="M34.3 31.2l-.1-.1c1 1.3 2 2.1 3 2.7.9 0 1.9-.3 2.7-.8-.6-.2-1.2-.5-1.8-.9-1.3.3-2.7.1-3.8-.9z" fill="#46B000"/><path id="XMLID_1021_" class="st59" d="M35.6 29.7c-1-.8-1.7-1.8-2.3-2.7.2-.5.4-.9.7-1.3.3.5 1.1 1.6 1.2 1.7-.3.8-.2 1.7.4 2.3z" fill="#46B000"/></g><g id="XMLID_1016_"><path id="XMLID_1017_" class="st10" d="M38.1 32c.7-.2 1.3-.6 1.8-1.1 1.5-1.6 1.3-4.1-.3-5.6-1.6-1.4-4.1-1.3-5.6.3-.4.4-.6.9-.8 1.3-1.8-2.9-2.2-5.8-2.2-5.8l-2 .2c.3 3.2 2.1 7.2 5.2 9.8 2.5 3.1 4.9 3.6 8.1 3.9l.2-2c.1.2-2 .6-4.4-1zm-2.6-5c.7-.8 2-.9 2.8-.1.8.7.9 2 .1 2.8-.7.8-2 .9-2.8.1-.7-.8-.8-2-.1-2.8z" fill="none" stroke="#45413C" stroke-linecap="round" stroke-linejoin="round" stroke-miterlimit="10"/></g><path id="XMLID_1015_" class="st10" d="M34.3 31.2c1.1.9 2.5 1.2 3.8.8" fill="none" stroke="#45413C" stroke-linecap="round" stroke-linejoin="round" stroke-miterlimit="10"/><path id="XMLID_1014_" class="st10" d="M35.7 29.7c-1-.8-1.8-1.8-2.4-2.8" fill="none" stroke="#45413C" stroke-linecap="round" stroke-linejoin="round" stroke-miterlimit="10"/></g></g><path id="XMLID_1011_" class="st10" d="M15.5 27.1c-.5 1.1-1.1 2.1-1.9 3.1" fill="none" stroke="#45413C" stroke-linecap="round" stroke-linejoin="round" stroke-miterlimit="10"/><path id="XMLID_1010_" class="st10" d="M11.6 32.9c1.3.1 2.6-.3 3.6-1.5" fill="none" stroke="#45413C" stroke-linecap="round" stroke-linejoin="round" stroke-miterlimit="10"/><path id="XMLID_1007_" class="st60" d="M18.7 20.8l-2 .2s.1 3-1.2 6.1c-.2-.5-.6-.9-1-1.2-1.7-1.4-4.2-1.1-5.5.6-1.4 1.7-1.1 4.2.6 5.5.6.5 1.3.8 2 .8C9.1 35.5 6 36.4 6 36.4l.5 1.9c3-.9 6.7-3.4 8.7-6.9 2.6-3.1 3.8-7.4 3.5-10.6zm-8.2 6.9c.7-.9 1.9-1 2.8-.3.9.7 1 1.9.3 2.8-.7.9-1.9 1-2.8.3-.8-.7-.9-1.9-.3-2.8z" fill="none" stroke="#45413C" stroke-miterlimit="10"/></g></g></svg>
