<svg xmlns="http://www.w3.org/2000/svg" viewBox="0 0 32 32"><path fill="#37b678" d="M29.5,27.5h-15v-12h16v11A1,1,0,0,1,29.5,27.5Z"/><path fill="#2c2b2d" d="M29.5,28h-15a.49971.49971,0,0,1-.5-.5v-12a.49971.49971,0,0,1,.5-.5h16a.49971.49971,0,0,1,.5.5v11A1.50164,1.50164,0,0,1,29.5,28ZM15,27H29.5a.50065.50065,0,0,0,.5-.5V16H15Z"/><path fill="#37b678" d="M30.5,15.5h-17v-3h17a1,1,0,0,1,1,1v1A1,1,0,0,1,30.5,15.5Z"/><path fill="#2c2b2d" d="M30.5,16h-17a.49971.49971,0,0,1-.5-.5v-3a.49971.49971,0,0,1,.5-.5h17A1.50164,1.50164,0,0,1,32,13.5v1A1.50164,1.50164,0,0,1,30.5,16ZM14,15H30.5a.50065.50065,0,0,0,.5-.5v-1a.50065.50065,0,0,0-.5-.5H14Z"/><path fill="#37b678" d="M15.37546,27.5H1.62454a1,1,0,0,1-.99315-1.11684l1.76471-15A1,1,0,0,1,3.38925,10.5h10.2215a1,1,0,0,1,.99315.88316l1.76471,15A1,1,0,0,1,15.37546,27.5Z"/><path fill="#2c2b2d" d="M15.375,28H1.625A1.5,1.5,0,0,1,.13574,26.32471l1.76465-15A1.49771,1.49771,0,0,1,3.38965,10h10.2207a1.49944,1.49944,0,0,1,1.49024,1.32568l1.76367,14.999A1.5,1.5,0,0,1,15.375,28ZM3.38965,11a.49873.49873,0,0,0-.4961.44092l-1.76562,15.001A.50041.50041,0,0,0,1.625,27h13.75a.50041.50041,0,0,0,.49707-.55811l-1.76465-15A.50044.50044,0,0,0,13.61035,11Z"/><path fill="#2c2b2d" d="M10.5,13a.49971.49971,0,0,1-.5-.5v-6a1.5,1.5,0,0,0-3,0v6a.5.5,0,0,1-1,0v-6a2.5,2.5,0,0,1,5,0v6A.49971.49971,0,0,1,10.5,13Z"/><circle cx="6.5" cy="13.5" r="1" fill="#e0e0e2"/><path fill="#2c2b2d" d="M6.5,15A1.5,1.5,0,1,1,8,13.5,1.50164,1.50164,0,0,1,6.5,15Zm0-2a.5.5,0,1,0,.5.5A.50065.50065,0,0,0,6.5,13Z"/><circle cx="10.5" cy="13.5" r="1" fill="#e0e0e2"/><path fill="#2c2b2d" d="M10.5,15A1.5,1.5,0,1,1,12,13.5,1.50164,1.50164,0,0,1,10.5,15Zm0-2a.5.5,0,1,0,.5.5A.50065.50065,0,0,0,10.5,13Z"/><rect width="3" height="12" x="21.5" y="15.5" fill="#e0e0e2"/><path fill="#2c2b2d" d="M24.5,28h-3a.49971.49971,0,0,1-.5-.5v-12a.49971.49971,0,0,1,.5-.5h3a.49971.49971,0,0,1,.5.5v12A.49971.49971,0,0,1,24.5,28ZM22,27h2V16H22Z"/><rect width="3" height="3" x="21.5" y="12.5" fill="#e0e0e2"/><path fill="#2c2b2d" d="M24.5,16h-3a.49971.49971,0,0,1-.5-.5v-3a.49971.49971,0,0,1,.5-.5h3a.49971.49971,0,0,1,.5.5v3A.49971.49971,0,0,1,24.5,16ZM22,15h2V13H22Z"/><path fill="#2c2b2d" d="M23,13H20.5a3,3,0,1,1,3-3v2.5A.49971.49971,0,0,1,23,13ZM20.5,8a2,2,0,0,0,0,4h2V10A2.00229,2.00229,0,0,0,20.5,8Z"/><path fill="#2c2b2d" d="M25.5,13H23a.49971.49971,0,0,1-.5-.5V10a3,3,0,1,1,3,3Zm-2-1h2a2,2,0,1,0-2-2Z"/><polygon fill="#e0e0e2" points="7.395 20 8.181 18.366 8.94 20.015 10.665 20.294 9.404 21.56 9.683 23.366 8.146 22.5 6.593 23.337 6.904 21.536 5.665 20.247 7.395 20"/><path fill="#2c2b2d" d="M9.68359,23.86621a.49983.49983,0,0,1-.24511-.06445l-1.29785-.731-1.31055.70606a.50041.50041,0,0,1-.73047-.5254l.26855-1.55126L5.30469,20.59326a.50011.50011,0,0,1,.29-.8418l1.46484-.209.67188-1.39307a.46873.46873,0,0,1,.45507-.2832.50024.50024,0,0,1,.44922.291L9.28223,19.564l1.46289.23682a.50037.50037,0,0,1,.27441.84668l-1.082,1.08643L10.17773,23.29a.50041.50041,0,0,1-.49414.57617ZM8.14551,22a.49717.49717,0,0,1,.24512.06445l.6416.36084-.12207-.78906a.49976.49976,0,0,1,.13964-.4292l.57325-.57519-.76367-.12354a.5.5,0,0,1-.374-.28467L8.1709,19.54l-.32617.67676a.49965.49965,0,0,1-.37989.27832l-.76269.10888.5625.58545a.50314.50314,0,0,1,.13281.43213l-.13672.78711.64746-.34863A.498.498,0,0,1,8.14551,22Zm-.751-2h0Z"/></svg>
