<svg xmlns="http://www.w3.org/2000/svg" id="NotificationIcon" viewBox="0 0 32 32"><path fill="#5a5d70" d="M21.5 17.5v10c0 1.1-.9 2-2 2h-11c-1.1 0-2-.9-2-2v-23c0-1.1.9-2 2-2h11c1.1 0 2 .9 2 2v13z"></path><path fill="#898b99" d="M6.5 6.5h15v18h-15z"></path><path fill="#ffda87" d="M24.5 18.5h-9c-.6 0-1-.4-1-1v-5c0-.6.4-1 1-1h9c.6 0 1 .4 1 1v5c0 .6-.4 1-1 1z"></path><path fill="#f7a053" d="M25.1 11.7c-.2-.1-.4-.2-.6-.2h-9c-.2 0-.5.1-.6.2l5.1 2.8 5.1-2.8z"></path><path fill="#40455a" d="M15.5 5h-3c-.3 0-.5-.2-.5-.5s.2-.5.5-.5h3c.3 0 .5.2.5.5s-.2.5-.5.5zM15.5 19h-3c-.3 0-.5-.2-.5-.5s.2-.5.5-.5h3c.3 0 .5.2.5.5s-.2.5-.5.5z"></path><path fill="#40455a" d="M12.5 19h-2c-.3 0-.5-.2-.5-.5s.2-.5.5-.5h2c.3 0 .5.2.5.5s-.2.5-.5.5zM10.5 17h-1c-.3 0-.5-.2-.5-.5s.2-.5.5-.5h1c.3 0 .5.2.5.5s-.2.5-.5.5zM12.5 15h-2c-.3 0-.5-.2-.5-.5s.2-.5.5-.5h2c.3 0 .5.2.5.5s-.2.5-.5.5zM8.5 5h-.2c-.1 0-.1-.1-.2-.1-.1-.1-.1-.3-.1-.4s0-.3.1-.4c0 0 .1-.1.2-.1h.4c.1 0 .1.1.2.1 0 .1.1.3.1.4v.2c0 .1-.1.1-.1.2 0 0-.1.1-.2.1h-.2zM8.5 19h-.2c-.1 0-.1-.1-.2-.1s-.1-.1-.1-.2v-.2c0-.1 0-.3.1-.4.2-.2.5-.2.7 0 .1.1.2.3.2.4v.2c0 .1-.1.1-.1.2 0 0-.1.1-.2.1h-.2zM12.5 17h-.2c-.1 0-.1-.1-.2-.1s-.1-.1-.1-.2v-.2c0-.1 0-.3.1-.4.2-.2.5-.2.7 0 .1.1.2.2.2.4v.2c0 .1-.1.1-.1.2 0 0-.1.1-.2.1h-.2zM8.5 15h-.2c-.1 0-.1-.1-.2-.1s-.1-.1-.1-.2v-.2-.2c0-.1.1-.1.1-.2.2-.2.5-.2.7 0 .1 0 .1.1.1.2v.4c0 .1-.1.1-.1.2 0 0-.1.1-.2.1h-.1zM21 7H7c-.3 0-.5-.2-.5-.5S6.7 6 7 6h14c.3 0 .5.2.5.5s-.2.5-.5.5zM21 25H7c-.3 0-.5-.2-.5-.5s.2-.5.5-.5h14c.3 0 .5.2.5.5s-.2.5-.5.5z"></path><path fill="#40455a" d="M19.5 30h-11C7.1 30 6 28.9 6 27.5v-23C6 3.1 7.1 2 8.5 2h11C20.9 2 22 3.1 22 4.5v7c0 .3-.2.5-.5.5s-.5-.2-.5-.5v-7c0-.8-.7-1.5-1.5-1.5h-11C7.7 3 7 3.7 7 4.5v23c0 .8.7 1.5 1.5 1.5h11c.8 0 1.5-.7 1.5-1.5v-9c0-.3.2-.5.5-.5s.5.2.5.5v9c0 1.4-1.1 2.5-2.5 2.5z"></path><path fill="#40455a" d="M15.5 28h-3c-.3 0-.5-.2-.5-.5v-1c0-.3.2-.5.5-.5h3c.3 0 .5.2.5.5v1c0 .3-.2.5-.5.5zM13 27h2-2zM24.5 19h-9c-.8 0-1.5-.7-1.5-1.5v-5c0-.8.7-1.5 1.5-1.5h9c.8 0 1.5.7 1.5 1.5v5c0 .8-.7 1.5-1.5 1.5zm-9-7c-.3 0-.5.2-.5.5v5c0 .3.2.5.5.5h9c.3 0 .5-.2.5-.5v-5c0-.3-.2-.5-.5-.5h-9z"></path><path fill="#40455a" d="M20 15c-.1 0-.2 0-.2-.1l-5.1-2.8c-.2-.1-.3-.4-.2-.7.1-.2.4-.3.7-.2l4.9 2.6 4.9-2.6c.2-.1.5 0 .7.2.1.2 0 .5-.2.7l-5.1 2.8c-.2.1-.3.1-.4.1z"></path></svg>