<svg xmlns="http://www.w3.org/2000/svg" version="1.1" x="0px" y="0px" viewBox="0 0 48 48" xml space="preserve" id="SandglassIcon"><style type="text/css"></style><symbol id="New_Symbol_14" viewBox="-6.5 -6.5 13 13"><path class="st0" d="M0-6c2.2 0 4.1 1.5 4.7 3.5C6.3-2.5 6.4 0 5 0v1c0 2.8-2.2 5-5 5s-5-2.2-5-5V0c-1.4 0-1.3-2.5.2-2.5C-4.1-4.5-2.2-6 0-6z" fill="#FFD4C3" stroke="#504B46" stroke-linecap="round" stroke-linejoin="round" stroke-miterlimit="10"></path><circle class="st1" cx="-1.6" cy="-0.1" r="0.1" fill="#FFC258"></circle><path class="st2" d="M-1.6.5c-.3 0-.6-.3-.6-.6s.2-.7.6-.7c.3 0 .6.3.6.7s-.3.6-.6.6z" fill="#4F4B45"></path><circle class="st1" cx="1.6" cy="-0.1" r="0.1" fill="#FFC258"></circle><path class="st2" d="M1.6.5C1.3.5 1 .2 1-.1s.3-.6.6-.6.6.3.6.6-.2.6-.6.6z" fill="#4F4B45"></path><circle class="st3" cx="-3" cy="-1.5" r="0.5" fill="#FABFA5"></circle><circle class="st3" cx="3" cy="-1.5" r="0.5" fill="#FABFA5"></circle><path class="st4" d="M-1.2-3c.8-.5 1.7-.5 2.5 0" fill="none" stroke="#504B46" stroke-linecap="round" stroke-linejoin="round" stroke-miterlimit="10"></path></symbol><g id="Icons"><g id="XMLID_1070_"><ellipse id="XMLID_1646_" class="st5" cx="24" cy="45.1" rx="15.5" ry="1.7" fill="#45413C" opacity="0.15"></ellipse><g id="XMLID_1610_"><g id="XMLID_1629_"><path id="XMLID_1632_" class="st35" d="M35.2 34v8.3c0 1.1-.9 2-2 2H14.7c-1.1 0-2-.9-2-2V34c0-6.2 5-11.2 11.2-11.2s11.3 5 11.3 11.2z" fill="#00B8F0"></path><path id="XMLID_1631_" class="st36" d="M24 22.8c-6.2 0-11.2 5-11.2 11.2v8.3l17.6-17.6c-1.9-1.2-4-1.9-6.4-1.9z" fill="#4ACFFF"></path><path id="XMLID_1630_" class="st10" d="M35.2 34v8.3c0 1.1-.9 2-2 2H14.7c-1.1 0-2-.9-2-2V34c0-6.2 5-11.2 11.2-11.2s11.3 5 11.3 11.2z" fill="none" stroke="#45413C" stroke-linecap="round" stroke-linejoin="round" stroke-miterlimit="10"></path></g><g id="XMLID_1625_"><path id="XMLID_1628_" class="st35" d="M35.2 11.5V3.2c0-1.1-.9-2-2-2H14.7c-1.1 0-2 .9-2 2v8.3c0 6.2 5 11.2 11.2 11.2s11.3-5 11.3-11.2z" fill="#00B8F0"></path><path id="XMLID_1627_" class="st36" d="M32.8 1.2H14.7c-1.1 0-2 .9-2 2v8.3c0 2.7 1 5.2 2.6 7.2L32.8 1.2z" fill="#4ACFFF"></path><path id="XMLID_1626_" class="st10" d="M35.2 11.5V3.2c0-1.1-.9-2-2-2H14.7c-1.1 0-2 .9-2 2v8.3c0 6.2 5 11.2 11.2 11.2s11.3-5 11.3-11.2z" fill="none" stroke="#45413C" stroke-linecap="round" stroke-linejoin="round" stroke-miterlimit="10"></path></g><g id="XMLID_1621_"><path id="XMLID_1624_" class="st37" d="M12.8 1.2c-1.1 0-2 .9-2 2s.9 2 2 2h22.5c1.1 0 2-.9 2-2s-.9-2-2-2H12.8z" fill="#BF8256"></path><path id="XMLID_1623_" class="st38" d="M37.2 3.2c0-1.1-.9-2-2-2H12.8c-1.1 0-2 .9-2 2h26.4z" fill="#DEA47A"></path><path id="XMLID_1622_" class="st10" d="M12.8 1.2c-1.1 0-2 .9-2 2s.9 2 2 2h22.5c1.1 0 2-.9 2-2s-.9-2-2-2H12.8z" fill="none" stroke="#45413C" stroke-linecap="round" stroke-linejoin="round" stroke-miterlimit="10"></path></g><path id="XMLID_1620_" class="st37" d="M12.8 40.4c-1.1 0-2 .9-2 2s.9 2 2 2h22.5c1.1 0 2-.9 2-2s-.9-2-2-2H12.8z" fill="#BF8256"></path><path id="XMLID_1619_" class="st39" d="M10.8 42.3c0 1.1.9 2 2 2h22.5c1.1 0 2-.9 2-2H10.8z" fill="#915E3A"></path><path id="XMLID_1618_" class="st10" d="M12.8 40.4c-1.1 0-2 .9-2 2s.9 2 2 2h22.5c1.1 0 2-.9 2-2s-.9-2-2-2H12.8z" fill="none" stroke="#45413C" stroke-linecap="round" stroke-linejoin="round" stroke-miterlimit="10"></path><g id="XMLID_1614_"><path id="XMLID_1617_" class="st7" d="M31.4 12c.7-.2 1.4.4 1.2 1.1-.8 4.1-4.3 7.2-8.7 7.2s-7.9-3.1-8.7-7.2c-.1-.7.5-1.3 1.2-1.1 1.5.4 4.1 1 7.4 1s6.1-.6 7.6-1z" fill="#F0D5A8"></path><path id="XMLID_1616_" class="st40" d="M17.1 16.9l4.1-4.1c-2-.2-3.6-.6-4.6-.9-.7-.2-1.4.4-1.2 1.1.2 1.5.8 2.8 1.7 3.9z" fill="#FFF5E3"></path><path id="XMLID_1615_" class="st10" d="M31.4 12c.7-.2 1.4.4 1.2 1.1-.8 4.1-4.3 7.2-8.7 7.2s-7.9-3.1-8.7-7.2c-.1-.7.5-1.3 1.2-1.1 1.5.4 4.1 1 7.4 1s6.1-.6 7.6-1z" fill="none" stroke="#45413C" stroke-linecap="round" stroke-linejoin="round" stroke-miterlimit="10"></path></g><path id="XMLID_1613_" class="st7" d="M14.7 38.4h18.6v-2s-2-3.9-9.3-3.9-9.3 3.9-9.3 3.9v2z" fill="#F0D5A8"></path><path id="XMLID_1612_" class="st40" d="M22.5 32.6c-6.1.5-7.8 3.8-7.8 3.8v2h2l5.8-5.8z" fill="#FFF5E3"></path><path id="XMLID_1611_" class="st10" d="M14.7 38.4h18.6v-2s-2-3.9-9.3-3.9-9.3 3.9-9.3 3.9v2z" fill="none" stroke="#45413C" stroke-linecap="round" stroke-linejoin="round" stroke-miterlimit="10"></path></g></g></g></svg>
