<svg xmlns="http://www.w3.org/2000/svg" version="1.1" x="0px" y="0px" viewBox="0 0 48 48" xml:space="preserve"><style type="text/css">.st0{fill:#FFD4C3;stroke:#504B46;stroke-linecap:round;stroke-linejoin:round;stroke-miterlimit:10;} .st1{fill:#FFC258;} .st2{fill:#4F4B45;} .st3{fill:#FABFA5;} .st4{fill:none;stroke:#504B46;stroke-linecap:round;stroke-linejoin:round;stroke-miterlimit:10;} .Graphic_x0020_Style{opacity:0.15;fill:#45413C;} .st5{opacity:0.15;fill:#45413C;} .st6{fill:#DEBB7E;stroke:#45413C;stroke-linecap:round;stroke-linejoin:round;stroke-miterlimit:10;} .st7{fill:#F0D5A8;} .st8{fill:#F7E5C6;} .st9{fill:#DEBB7E;} .st10{fill:none;stroke:#45413C;stroke-linecap:round;stroke-linejoin:round;stroke-miterlimit:10;} .st11{fill:#FFE500;} .st12{fill:#EBCB00;} .st13{fill:none;stroke:#EBCB00;stroke-linecap:round;stroke-linejoin:round;stroke-miterlimit:10;} .st14{fill:#FF6242;stroke:#45413C;stroke-linecap:round;stroke-linejoin:round;stroke-miterlimit:10;} .st15{fill:#FFFFFF;stroke:#45413C;stroke-linecap:round;stroke-linejoin:round;stroke-miterlimit:10;} .st16{fill:#E5F8FF;} .st17{fill:#FFFFFF;} .st18{fill:#E8F4FA;} .st19{fill:#E8F4FA;stroke:#45413C;stroke-linecap:round;stroke-linejoin:round;stroke-miterlimit:10;} .st20{fill:#FFCCDD;} .st21{fill:#FFB0CA;stroke:#45413C;stroke-linecap:round;stroke-linejoin:round;stroke-miterlimit:10;} .st22{fill:#FF87AF;stroke:#45413C;stroke-linecap:round;stroke-linejoin:round;stroke-miterlimit:10;} .st23{fill:#E5F8FF;stroke:#45413C;stroke-linecap:round;stroke-linejoin:round;stroke-miterlimit:10;} .st24{fill:#BF8256;stroke:#45413C;stroke-linecap:round;stroke-linejoin:round;stroke-miterlimit:10;} .st25{fill:#9CEB60;} .st26{fill:#6DD627;} .st27{fill:#C8FFA1;} .st28{fill:#FFFACF;} .st29{fill:#FF87AF;} .st30{fill:#FFB0CA;} .st31{fill:#FF6196;} .st32{fill:#FFCCDD;stroke:#45413C;stroke-linecap:round;stroke-linejoin:round;stroke-miterlimit:10;} .st33{fill:#FF6196;stroke:#45413C;stroke-linecap:round;stroke-linejoin:round;stroke-miterlimit:10;} .st34{fill:#FFE5EE;} .st35{fill:#00B8F0;} .st36{fill:#4ACFFF;} .st37{fill:#BF8256;} .st38{fill:#DEA47A;} .st39{fill:#915E3A;} .st40{fill:#FFF5E3;} .st41{fill:#F0F0F0;} .st42{fill:#8CA4B8;} .st43{fill:#627B8C;} .st44{fill:#C0DCEB;} .st45{fill:#FFF48C;} .st46{fill:#FFE500;stroke:#45413C;stroke-linecap:round;stroke-linejoin:round;stroke-miterlimit:10;} .st47{fill:#FFAA54;} .st48{fill:#6DD627;stroke:#45413C;stroke-linecap:round;stroke-linejoin:round;stroke-miterlimit:10;} .st49{fill:#FF8A14;} .st50{fill:#FFCC99;} .st51{fill:#EBCB00;stroke:#45413C;stroke-linecap:round;stroke-linejoin:round;stroke-miterlimit:10;} .st52{fill:#00F5BC;stroke:#45413C;stroke-linecap:round;stroke-linejoin:round;stroke-miterlimit:10;} .st53{fill:#BF8DF2;stroke:#45413C;stroke-linecap:round;stroke-linejoin:round;stroke-miterlimit:10;} .st54{fill:#FF8A14;stroke:#45413C;stroke-linecap:round;stroke-linejoin:round;stroke-miterlimit:10;} .st55{fill:#4AEFF7;stroke:#45413C;stroke-linecap:round;stroke-linejoin:round;stroke-miterlimit:10;} .st56{fill:#FFF48C;stroke:#45413C;stroke-linecap:round;stroke-linejoin:round;stroke-miterlimit:10;} .st57{fill:#FF6242;} .st58{fill:#E04122;} .st59{fill:#46B000;} .st60{fill:none;stroke:#45413C;stroke-miterlimit:10;} .st61{fill:#00B8F0;stroke:#45413C;stroke-linecap:round;stroke-linejoin:round;stroke-miterlimit:10;} .st62{fill:#FF866E;} .st63{fill:#9F5AE5;stroke:#45413C;stroke-linecap:round;stroke-linejoin:round;stroke-miterlimit:10;} .st64{fill:#E4FFD1;} .st65{fill:#FFFEF2;} .st66{fill:#B89558;} .st67{fill:none;stroke:#915E3A;stroke-linecap:round;stroke-linejoin:round;stroke-miterlimit:10;} .st68{fill:#915E3A;stroke:#45413C;stroke-linecap:round;stroke-linejoin:round;stroke-miterlimit:10;} .st69{fill:#BF8DF2;} .st70{fill:#9F5AE5;} .st71{fill:#DABFF5;} .st72{fill:none;stroke:#45413C;stroke-linejoin:round;stroke-miterlimit:10;} .st73{fill:#656769;} .st74{fill:#87898C;} .st75{fill:#E0E0E0;} .st76{fill:#BDBEC0;} .st77{fill:#656769;stroke:#45413C;stroke-linecap:round;stroke-linejoin:round;stroke-miterlimit:10;} .st78{fill:#45413C;stroke:#45413C;stroke-linecap:round;stroke-linejoin:round;stroke-miterlimit:10;} .st79{fill:#FFA694;} .st80{fill:#E04122;stroke:#45413C;stroke-linecap:round;stroke-linejoin:round;stroke-miterlimit:10;} .st81{fill:#E0E0E0;stroke:#45413C;stroke-linecap:round;stroke-linejoin:round;stroke-miterlimit:10;} .st82{fill:#F0F0F0;stroke:#45413C;stroke-linecap:round;stroke-linejoin:round;stroke-miterlimit:10;} .st83{fill:#DAEDF7;} .st84{fill:#BDBEC0;stroke:#45413C;stroke-linecap:round;stroke-linejoin:round;stroke-miterlimit:10;} .st85{fill:#87898C;stroke:#45413C;stroke-linecap:round;stroke-linejoin:round;stroke-miterlimit:10;} .st86{fill:#00DFEB;} .st87{fill:#4AEFF7;} .st88{fill:#DAEDF7;stroke:#45413C;stroke-linecap:round;stroke-linejoin:round;stroke-miterlimit:10;} .st89{fill:#FFDA8F;} .st90{fill:#FFBE3D;} .st91{fill:#FFE9BD;} .st92{fill:#DEA47A;stroke:#45413C;stroke-linecap:round;stroke-linejoin:round;stroke-miterlimit:10;} .st93{fill:#45413C;} .st94{fill:#F0C2A1;} .st95{fill:none;stroke:#45413C;stroke-width:1.0064;stroke-linecap:round;stroke-linejoin:round;stroke-miterlimit:10;} .st96{fill:#525252;} .st97{fill:#EB6D00;stroke:#45413C;stroke-linecap:round;stroke-linejoin:round;stroke-miterlimit:10;} .st98{fill:#EB6D00;} .st99{fill:#E5FEFF;} .st100{fill:#FF866E;stroke:#45413C;stroke-linecap:round;stroke-linejoin:round;stroke-miterlimit:10;} .st101{fill:#627B8C;stroke:#45413C;stroke-linecap:round;stroke-linejoin:round;stroke-miterlimit:10;} .st102{fill:#FFFCE5;stroke:#45413C;stroke-linecap:round;stroke-linejoin:round;stroke-miterlimit:10;} .st103{fill:#A6FBFF;} .st104{fill:#D9FDFF;} .st105{fill:#FFFACF;stroke:#45413C;stroke-linecap:round;stroke-linejoin:round;stroke-miterlimit:10;} .st106{fill:#B8ECFF;} .st107{fill:#FFCABF;} .st108{fill:#E5FFF9;} .st109{fill:#C8FFA1;stroke:#45413C;stroke-linecap:round;stroke-linejoin:round;stroke-miterlimit:10;} .st110{fill:#4CF4FC;} .st111{fill:#F0D5A8;stroke:#45413C;stroke-linecap:round;stroke-linejoin:round;stroke-miterlimit:10;} .st112{fill:#FFDCD1;stroke:#45413C;stroke-linecap:round;stroke-linejoin:round;stroke-miterlimit:10;} .st113{fill:#80DDFF;} .st114{fill:#46B000;stroke:#45413C;stroke-linecap:round;stroke-linejoin:round;stroke-miterlimit:10;} .st115{fill:#4ACFFF;stroke:#45413C;stroke-linecap:round;stroke-linejoin:round;stroke-miterlimit:10;} .st116{fill:#ADC4D9;} .st117{fill:#BDBEC0;stroke:#45413C;stroke-width:1.0064;stroke-linecap:round;stroke-linejoin:round;stroke-miterlimit:10;} .st118{fill:#FFFCE5;} .st119{fill:#947746;} .st120{fill:#525252;stroke:#45413C;stroke-linecap:round;stroke-linejoin:round;stroke-miterlimit:10;}</style><symbol id="New_Symbol_14" viewBox="-6.5 -6.5 13 13"><path class="st0" d="M0-6c2.2 0 4.1 1.5 4.7 3.5C6.3-2.5 6.4 0 5 0v1c0 2.8-2.2 5-5 5s-5-2.2-5-5V0c-1.4 0-1.3-2.5.2-2.5C-4.1-4.5-2.2-6 0-6z" fill="#FFD4C3" stroke="#504B46" stroke-linecap="round" stroke-linejoin="round" stroke-miterlimit="10"/><circle class="st1" cx="-1.6" cy="-0.1" r="0.1" fill="#FFC258"/><path class="st2" d="M-1.6.5c-.3 0-.6-.3-.6-.6s.2-.7.6-.7c.3 0 .6.3.6.7s-.3.6-.6.6z" fill="#4F4B45"/><circle class="st1" cx="1.6" cy="-0.1" r="0.1" fill="#FFC258"/><path class="st2" d="M1.6.5C1.3.5 1 .2 1-.1s.3-.6.6-.6.6.3.6.6-.2.6-.6.6z" fill="#4F4B45"/><circle class="st3" cx="-3" cy="-1.5" r="0.5" fill="#FABFA5"/><circle class="st3" cx="3" cy="-1.5" r="0.5" fill="#FABFA5"/><path class="st4" d="M-1.2-3c.8-.5 1.7-.5 2.5 0" fill="none" stroke="#504B46" stroke-linecap="round" stroke-linejoin="round" stroke-miterlimit="10"/></symbol><g id="Icons"><g id="XMLID_1813_"><path id="XMLID_2116_" class="st11" d="M29.2 21.2s7.1-4.2 8.5-3.5c1.4.8-.6 8.2-5 10-4.5 1.9-3.5-6.5-3.5-6.5z" fill="#FFE500"/><path id="XMLID_2115_" class="st11" d="M19 21.2s-7.1-4.2-8.5-3.5c-1.4.8.6 8.2 5 10 4.4 1.9 3.5-6.5 3.5-6.5z" fill="#FFE500"/><path id="XMLID_2114_" class="st45" d="M29.2 23.7s7.1-4.2 8.5-3.5l.3.3c.3-1.4.3-2.5-.3-2.8-1.4-.8-8.5 3.5-8.5 3.5s-.2 1.4 0 2.9c-.1-.2 0-.4 0-.4z" fill="#FFF48C"/><path id="XMLID_1760_" class="st45" d="M10.5 20.2c1.4-.8 8.5 3.5 8.5 3.5v.4c.1-1.5 0-2.9 0-2.9s-7.1-4.2-8.5-3.5c-.5.3-.6 1.4-.3 2.8l.3-.3z" fill="#FFF48C"/><path id="XMLID_1759_" class="st10" d="M29.2 21.2s7.1-4.2 8.5-3.5c1.4.8-.6 8.2-5 10-4.5 1.9-3.5-6.5-3.5-6.5z" fill="none" stroke="#45413C" stroke-linecap="round" stroke-linejoin="round" stroke-miterlimit="10"/><path id="XMLID_1758_" class="st10" d="M19 21.2s-7.1-4.2-8.5-3.5c-1.4.8.6 8.2 5 10 4.4 1.9 3.5-6.5 3.5-6.5z" fill="none" stroke="#45413C" stroke-linecap="round" stroke-linejoin="round" stroke-miterlimit="10"/><ellipse id="XMLID_1757_" class="st5" cx="24.1" cy="44.7" rx="11.5" ry="1.5" fill="#45413C" opacity="0.15"/><ellipse id="XMLID_1756_" class="st11" cx="24.1" cy="30.2" rx="10.5" ry="12.5" fill="#FFE500"/><path id="XMLID_1755_" class="st12" d="M32.3 22.4c-1.9 2.4-4.9 4-8.2 4s-6.3-1.6-8.2-4c1.9-2.9 4.9-4.8 8.2-4.8s6.3 1.9 8.2 4.8z" fill="#EBCB00"/><ellipse id="XMLID_1754_" class="st10" cx="24.1" cy="30.2" rx="10.5" ry="12.5" fill="none" stroke="#45413C" stroke-linecap="round" stroke-linejoin="round" stroke-miterlimit="10"/><circle id="XMLID_1753_" class="st11" cx="24.1" cy="12.2" r="10.5" fill="#FFE500"/><path id="XMLID_1752_" class="st45" d="M24.1 4.6c5.3 0 9.7 3.9 10.4 9 .1-.5.1-1 .1-1.5 0-5.8-4.7-10.5-10.5-10.5S13.6 6.4 13.6 12.2c0 .5 0 1 .1 1.5.7-5.2 5.1-9.1 10.4-9.1z" fill="#FFF48C"/><circle id="XMLID_164_" class="st10" cx="24.1" cy="12.2" r="10.5" fill="none" stroke="#45413C" stroke-linecap="round" stroke-linejoin="round" stroke-miterlimit="10"/><path id="XMLID_163_" class="st41" d="M39.2 27.7L35.9 31c-.3.3-.9.3-1.2 0l-4.4-4.4c-.3-.3-.9-.3-1.2 0L24.7 31c-.3.3-.9.3-1.2 0l-4.4-4.4c-.3-.3-.9-.3-1.2 0L13.5 31c-.3.3-.9.3-1.2 0L9 27.7c-.3-.3-.8-.1-.7.3.7 11.1 7.5 16.7 15.8 16.7S39.2 39.1 39.9 28c0-.3-.5-.6-.7-.3z" fill="#F0F0F0"/><path id="XMLID_162_" class="st17" d="M9 30.9l3.3 2.9c.3.3.9.3 1.2 0l4.4-3.8c.3-.3.9-.3 1.2 0l4.4 3.8c.3.3.9.3 1.2 0l4.4-3.8c.3-.3.9-.3 1.2 0l4.4 3.8c.3.3.9.3 1.2 0l3.3-2.9c.1-.1.3-.1.4-.1.1-.9.3-1.8.3-2.7 0-.4-.5-.6-.7-.3L35.9 31c-.3.3-.9.3-1.2 0l-4.4-4.4c-.3-.3-.9-.3-1.2 0L24.7 31c-.3.3-.9.3-1.2 0l-4.4-4.4c-.3-.3-.9-.3-1.2 0L13.5 31c-.3.3-.9.3-1.2 0L9 27.7c-.3-.3-.8-.1-.7.3.1 1 .2 1.9.3 2.7.1 0 .3.1.4.2z" fill="#FFF"/><path id="XMLID_161_" class="st10" d="M39.2 27.7L35.9 31c-.3.3-.9.3-1.2 0l-4.4-4.4c-.3-.3-.9-.3-1.2 0L24.7 31c-.3.3-.9.3-1.2 0l-4.4-4.4c-.3-.3-.9-.3-1.2 0L13.5 31c-.3.3-.9.3-1.2 0L9 27.7c-.3-.3-.8-.1-.7.3.7 11.1 7.5 16.7 15.8 16.7S39.2 39.1 39.9 28c0-.3-.5-.6-.7-.3z" fill="none" stroke="#45413C" stroke-linecap="round" stroke-linejoin="round" stroke-miterlimit="10"/><path id="XMLID_160_" class="st49" d="M22.9 14.3l-2 1.5c-.4.3-.5.9-.2 1.4l1.4 1.9c1 1.4 3 1.4 4 0l1.4-1.9c.3-.4.2-1.1-.2-1.4l-2-1.5c-.7-.5-1.7-.5-2.4 0z" fill="#FF8A14"/><path id="XMLID_159_" class="st47" d="M20.8 17.4c0-.1 0-.1 0 0l2.1-1.2c.7-.4 1.6-.4 2.3 0l2 1.2.1.1.1-.2c.3-.4.2-1.1-.2-1.4l-2-1.5c-.7-.5-1.6-.5-2.3 0l-2 1.5c-.4.3-.5.9-.2 1.4l.1.1z" fill="#FFAA54"/><path id="XMLID_158_" class="st10" d="M22.9 14.3l-2 1.5c-.4.3-.5.9-.2 1.4l1.4 1.9c1 1.4 3 1.4 4 0l1.4-1.9c.3-.4.2-1.1-.2-1.4l-2-1.5c-.7-.5-1.7-.5-2.4 0z" fill="none" stroke="#45413C" stroke-linecap="round" stroke-linejoin="round" stroke-miterlimit="10"/><path id="XMLID_157_" class="st10" d="M20.5 16.6h.1s2.6 1 3.5 1 3.5-1 3.5-1h.1" fill="none" stroke="#45413C" stroke-linecap="round" stroke-linejoin="round" stroke-miterlimit="10"/><circle id="XMLID_156_" class="st78" cx="29.4" cy="10.8" r="1.4" fill="#45413C" stroke="#45413C" stroke-linecap="round" stroke-linejoin="round" stroke-miterlimit="10"/><circle id="XMLID_155_" class="st78" cx="18.7" cy="10.8" r="1.4" fill="#45413C" stroke="#45413C" stroke-linecap="round" stroke-linejoin="round" stroke-miterlimit="10"/><ellipse id="XMLID_154_" class="st12" cx="31.2" cy="14.8" rx="1.6" ry="1" fill="#EBCB00"/><ellipse id="XMLID_153_" class="st12" cx="16.9" cy="14.8" rx="1.6" ry="1" fill="#EBCB00"/></g></g></svg>
