<svg
  xmlns="http://www.w3.org/2000/svg"
  width="38.453"
  height="41.2"
  viewBox="0 0 38.453 41.2"
  style="width:15px;height:15px"
  id="ListSearchIcon"
>
  <path
    d="M9.373,40H35.467a1.373,1.373,0,0,1,1.373,1.373v30.9a1.373,1.373,0,0,1-1.373,1.373H9.373A1.373,1.373,0,0,1,8,72.273v-30.9A1.373,1.373,0,0,1,9.373,40Zm0,0"
    transform="translate(-7.313 -36.567)"
    fill="#20df39"
  ></path>
  <path
    d="M40.687,72H62.66a.687.687,0,0,1,.687.687v26.78a.687.687,0,0,1-.687.687H40.687A.687.687,0,0,1,40,99.467V72.687A.687.687,0,0,1,40.687,72Zm0,0"
    transform="translate(-36.567 -65.82)"
    fill="#1447ff"
  ></path>
  <path
    d="M116.36,13.493v2.06a.687.687,0,0,1-.687.687H104.687a.687.687,0,0,1-.687-.687V8.687A.687.687,0,0,1,104.687,8h10.987a.687.687,0,0,1,.687.687Zm0,0"
    transform="translate(-95.073 -7.313)"
    fill="#d5deff"
  ></path>
  <path
    d="M93.493,160.227v5.267H88V160h5.493Zm0,0"
    transform="translate(-80.447 -146.267)"
    fill="#20df39"
  ></path>
  <path
    d="M316.12,368v6.867a2.06,2.06,0,0,1-4.12,0V368Zm0,0"
    transform="translate(-285.22 -336.413)"
    fill="#d5deff"
  ></path>
  <path
    d="M322.747,342.8v2.163H320V342.8A9.219,9.219,0,0,0,322.747,342.8Zm0,0"
    transform="translate(-292.533 -313.377)"
    fill="#f7e29c"
  ></path>
  <path
    d="M241.48,136.027a8.927,8.927,0,0,1,.687,17.723,9.218,9.218,0,0,1-2.747,0,8.927,8.927,0,0,1-.632-17.524,8.793,8.793,0,0,1,2.005-.227c.233,0,.46.007.687.027Zm0,0"
    transform="translate(-211.953 -124.327)"
    fill="#20df39"
  ></path>
  <path
    d="M38.453,20.6a9.619,9.619,0,0,0-8.24-9.5V4.806a2.06,2.06,0,0,0-2.06-2.06h-6.18V1.373A1.373,1.373,0,0,0,20.6,0H9.613A1.373,1.373,0,0,0,8.24,1.373V2.746H2.06A2.06,2.06,0,0,0,0,4.806v30.9a2.06,2.06,0,0,0,2.06,2.06H26.093v.687a2.747,2.747,0,0,0,5.493,0V31.586A.687.687,0,0,0,30.9,30.9v-.915A9.625,9.625,0,0,0,38.453,20.6Zm-1.373,0a8.24,8.24,0,1,1-8.24-8.24A8.24,8.24,0,0,1,37.08,20.6ZM28.153,4.12a.687.687,0,0,1,.687.687v6.18a9.516,9.516,0,0,0-1.373.11V6.866a1.373,1.373,0,0,0-1.373-1.373h-4.12V4.12ZM9.613,1.373H20.6V8.24H9.613ZM20.6,9.613A1.373,1.373,0,0,0,21.973,8.24V6.866h4.12v4.525a9.607,9.607,0,0,0,.687,18.594V30.9a.687.687,0,0,0-.687.687v2.06H4.12V6.866H8.24V8.24A1.373,1.373,0,0,0,9.613,9.613ZM2.06,36.393a.687.687,0,0,1-.687-.687V4.806A.687.687,0,0,1,2.06,4.12H8.24V5.493H4.12A1.373,1.373,0,0,0,2.747,6.866v26.78A1.373,1.373,0,0,0,4.12,35.02H26.093v1.373Zm28.153,2.06a1.373,1.373,0,1,1-2.747,0v-6.18h2.747ZM29.527,30.9H28.153v-.722c.228.016.455.035.687.035s.459-.018.687-.035Zm0,0"
    transform="translate(0 0)"
  ></path>
  <path
    d="M256,166.867a6.874,6.874,0,0,0,6.867,6.867V172.36a5.493,5.493,0,1,1,0-10.987V160A6.874,6.874,0,0,0,256,166.867Zm0,0"
    transform="translate(-234.027 -146.267)"
  ></path>
  <path
    d="M80,140.6v5.493a.687.687,0,0,0,.687.687H86.18a.687.687,0,0,0,.687-.687V141.08l1.208-1.41-1.042-.893-.972,1.135H80.687A.687.687,0,0,0,80,140.6Zm1.373.687h3.51l-1.489,1.736-.849-.849-.971.971,1.373,1.373a.687.687,0,0,0,.485.2h.027a.687.687,0,0,0,.494-.24l1.539-1.8v2.722h-4.12Zm0,0"
    transform="translate(-73.133 -126.866)"
  ></path>
</svg>
