<svg xmlns="http://www.w3.org/2000/svg" version="1.1" x="0px" y="0px" viewBox="0 0 48 48" xml:space="preserve"><style type="text/css">.st0{fill:#FFD4C3;stroke:#504B46;stroke-linecap:round;stroke-linejoin:round;stroke-miterlimit:10;} .st1{fill:#FFC258;} .st2{fill:#4F4B45;} .st3{fill:#FABFA5;} .st4{fill:none;stroke:#504B46;stroke-linecap:round;stroke-linejoin:round;stroke-miterlimit:10;} .Graphic_x0020_Style{opacity:0.15;fill:#45413C;} .st5{opacity:0.15;fill:#45413C;} .st6{fill:#DEBB7E;stroke:#45413C;stroke-linecap:round;stroke-linejoin:round;stroke-miterlimit:10;} .st7{fill:#F0D5A8;} .st8{fill:#F7E5C6;} .st9{fill:#DEBB7E;} .st10{fill:none;stroke:#45413C;stroke-linecap:round;stroke-linejoin:round;stroke-miterlimit:10;} .st11{fill:#FFE500;} .st12{fill:#EBCB00;} .st13{fill:none;stroke:#EBCB00;stroke-linecap:round;stroke-linejoin:round;stroke-miterlimit:10;} .st14{fill:#FF6242;stroke:#45413C;stroke-linecap:round;stroke-linejoin:round;stroke-miterlimit:10;} .st15{fill:#FFFFFF;stroke:#45413C;stroke-linecap:round;stroke-linejoin:round;stroke-miterlimit:10;} .st16{fill:#E5F8FF;} .st17{fill:#FFFFFF;} .st18{fill:#E8F4FA;} .st19{fill:#E8F4FA;stroke:#45413C;stroke-linecap:round;stroke-linejoin:round;stroke-miterlimit:10;} .st20{fill:#FFCCDD;} .st21{fill:#FFB0CA;stroke:#45413C;stroke-linecap:round;stroke-linejoin:round;stroke-miterlimit:10;} .st22{fill:#FF87AF;stroke:#45413C;stroke-linecap:round;stroke-linejoin:round;stroke-miterlimit:10;} .st23{fill:#E5F8FF;stroke:#45413C;stroke-linecap:round;stroke-linejoin:round;stroke-miterlimit:10;} .st24{fill:#BF8256;stroke:#45413C;stroke-linecap:round;stroke-linejoin:round;stroke-miterlimit:10;} .st25{fill:#9CEB60;} .st26{fill:#6DD627;} .st27{fill:#C8FFA1;} .st28{fill:#FFFACF;} .st29{fill:#FF87AF;} .st30{fill:#FFB0CA;} .st31{fill:#FF6196;} .st32{fill:#FFCCDD;stroke:#45413C;stroke-linecap:round;stroke-linejoin:round;stroke-miterlimit:10;} .st33{fill:#FF6196;stroke:#45413C;stroke-linecap:round;stroke-linejoin:round;stroke-miterlimit:10;} .st34{fill:#FFE5EE;} .st35{fill:#00B8F0;} .st36{fill:#4ACFFF;} .st37{fill:#BF8256;} .st38{fill:#DEA47A;} .st39{fill:#915E3A;} .st40{fill:#FFF5E3;} .st41{fill:#F0F0F0;} .st42{fill:#8CA4B8;} .st43{fill:#627B8C;} .st44{fill:#C0DCEB;} .st45{fill:#FFF48C;} .st46{fill:#FFE500;stroke:#45413C;stroke-linecap:round;stroke-linejoin:round;stroke-miterlimit:10;} .st47{fill:#FFAA54;} .st48{fill:#6DD627;stroke:#45413C;stroke-linecap:round;stroke-linejoin:round;stroke-miterlimit:10;} .st49{fill:#FF8A14;} .st50{fill:#FFCC99;} .st51{fill:#EBCB00;stroke:#45413C;stroke-linecap:round;stroke-linejoin:round;stroke-miterlimit:10;} .st52{fill:#00F5BC;stroke:#45413C;stroke-linecap:round;stroke-linejoin:round;stroke-miterlimit:10;} .st53{fill:#BF8DF2;stroke:#45413C;stroke-linecap:round;stroke-linejoin:round;stroke-miterlimit:10;} .st54{fill:#FF8A14;stroke:#45413C;stroke-linecap:round;stroke-linejoin:round;stroke-miterlimit:10;} .st55{fill:#4AEFF7;stroke:#45413C;stroke-linecap:round;stroke-linejoin:round;stroke-miterlimit:10;} .st56{fill:#FFF48C;stroke:#45413C;stroke-linecap:round;stroke-linejoin:round;stroke-miterlimit:10;} .st57{fill:#FF6242;} .st58{fill:#E04122;} .st59{fill:#46B000;} .st60{fill:none;stroke:#45413C;stroke-miterlimit:10;} .st61{fill:#00B8F0;stroke:#45413C;stroke-linecap:round;stroke-linejoin:round;stroke-miterlimit:10;} .st62{fill:#FF866E;} .st63{fill:#9F5AE5;stroke:#45413C;stroke-linecap:round;stroke-linejoin:round;stroke-miterlimit:10;} .st64{fill:#E4FFD1;} .st65{fill:#FFFEF2;} .st66{fill:#B89558;} .st67{fill:none;stroke:#915E3A;stroke-linecap:round;stroke-linejoin:round;stroke-miterlimit:10;} .st68{fill:#915E3A;stroke:#45413C;stroke-linecap:round;stroke-linejoin:round;stroke-miterlimit:10;} .st69{fill:#BF8DF2;} .st70{fill:#9F5AE5;} .st71{fill:#DABFF5;} .st72{fill:none;stroke:#45413C;stroke-linejoin:round;stroke-miterlimit:10;} .st73{fill:#656769;} .st74{fill:#87898C;} .st75{fill:#E0E0E0;} .st76{fill:#BDBEC0;} .st77{fill:#656769;stroke:#45413C;stroke-linecap:round;stroke-linejoin:round;stroke-miterlimit:10;} .st78{fill:#45413C;stroke:#45413C;stroke-linecap:round;stroke-linejoin:round;stroke-miterlimit:10;} .st79{fill:#FFA694;} .st80{fill:#E04122;stroke:#45413C;stroke-linecap:round;stroke-linejoin:round;stroke-miterlimit:10;} .st81{fill:#E0E0E0;stroke:#45413C;stroke-linecap:round;stroke-linejoin:round;stroke-miterlimit:10;} .st82{fill:#F0F0F0;stroke:#45413C;stroke-linecap:round;stroke-linejoin:round;stroke-miterlimit:10;} .st83{fill:#DAEDF7;} .st84{fill:#BDBEC0;stroke:#45413C;stroke-linecap:round;stroke-linejoin:round;stroke-miterlimit:10;} .st85{fill:#87898C;stroke:#45413C;stroke-linecap:round;stroke-linejoin:round;stroke-miterlimit:10;} .st86{fill:#00DFEB;} .st87{fill:#4AEFF7;} .st88{fill:#DAEDF7;stroke:#45413C;stroke-linecap:round;stroke-linejoin:round;stroke-miterlimit:10;} .st89{fill:#FFDA8F;} .st90{fill:#FFBE3D;} .st91{fill:#FFE9BD;} .st92{fill:#DEA47A;stroke:#45413C;stroke-linecap:round;stroke-linejoin:round;stroke-miterlimit:10;} .st93{fill:#45413C;} .st94{fill:#F0C2A1;} .st95{fill:none;stroke:#45413C;stroke-width:1.0064;stroke-linecap:round;stroke-linejoin:round;stroke-miterlimit:10;} .st96{fill:#525252;} .st97{fill:#EB6D00;stroke:#45413C;stroke-linecap:round;stroke-linejoin:round;stroke-miterlimit:10;} .st98{fill:#EB6D00;} .st99{fill:#E5FEFF;} .st100{fill:#FF866E;stroke:#45413C;stroke-linecap:round;stroke-linejoin:round;stroke-miterlimit:10;} .st101{fill:#627B8C;stroke:#45413C;stroke-linecap:round;stroke-linejoin:round;stroke-miterlimit:10;} .st102{fill:#FFFCE5;stroke:#45413C;stroke-linecap:round;stroke-linejoin:round;stroke-miterlimit:10;} .st103{fill:#A6FBFF;} .st104{fill:#D9FDFF;} .st105{fill:#FFFACF;stroke:#45413C;stroke-linecap:round;stroke-linejoin:round;stroke-miterlimit:10;} .st106{fill:#B8ECFF;} .st107{fill:#FFCABF;} .st108{fill:#E5FFF9;} .st109{fill:#C8FFA1;stroke:#45413C;stroke-linecap:round;stroke-linejoin:round;stroke-miterlimit:10;} .st110{fill:#4CF4FC;} .st111{fill:#F0D5A8;stroke:#45413C;stroke-linecap:round;stroke-linejoin:round;stroke-miterlimit:10;} .st112{fill:#FFDCD1;stroke:#45413C;stroke-linecap:round;stroke-linejoin:round;stroke-miterlimit:10;} .st113{fill:#80DDFF;} .st114{fill:#46B000;stroke:#45413C;stroke-linecap:round;stroke-linejoin:round;stroke-miterlimit:10;} .st115{fill:#4ACFFF;stroke:#45413C;stroke-linecap:round;stroke-linejoin:round;stroke-miterlimit:10;} .st116{fill:#ADC4D9;} .st117{fill:#BDBEC0;stroke:#45413C;stroke-width:1.0064;stroke-linecap:round;stroke-linejoin:round;stroke-miterlimit:10;} .st118{fill:#FFFCE5;} .st119{fill:#947746;} .st120{fill:#525252;stroke:#45413C;stroke-linecap:round;stroke-linejoin:round;stroke-miterlimit:10;}</style><symbol id="New_Symbol_14" viewBox="-6.5 -6.5 13 13"><path class="st0" d="M0-6c2.2 0 4.1 1.5 4.7 3.5C6.3-2.5 6.4 0 5 0v1c0 2.8-2.2 5-5 5s-5-2.2-5-5V0c-1.4 0-1.3-2.5.2-2.5C-4.1-4.5-2.2-6 0-6z" fill="#FFD4C3" stroke="#504B46" stroke-linecap="round" stroke-linejoin="round" stroke-miterlimit="10"/><circle class="st1" cx="-1.6" cy="-0.1" r="0.1" fill="#FFC258"/><path class="st2" d="M-1.6.5c-.3 0-.6-.3-.6-.6s.2-.7.6-.7c.3 0 .6.3.6.7s-.3.6-.6.6z" fill="#4F4B45"/><circle class="st1" cx="1.6" cy="-0.1" r="0.1" fill="#FFC258"/><path class="st2" d="M1.6.5C1.3.5 1 .2 1-.1s.3-.6.6-.6.6.3.6.6-.2.6-.6.6z" fill="#4F4B45"/><circle class="st3" cx="-3" cy="-1.5" r="0.5" fill="#FABFA5"/><circle class="st3" cx="3" cy="-1.5" r="0.5" fill="#FABFA5"/><path class="st4" d="M-1.2-3c.8-.5 1.7-.5 2.5 0" fill="none" stroke="#504B46" stroke-linecap="round" stroke-linejoin="round" stroke-miterlimit="10"/></symbol><g id="Icons"><g id="XMLID_1985_"><ellipse id="XMLID_2012_" class="st5" cx="24.7" cy="44.4" rx="11.5" ry="1.5" fill="#45413C" opacity="0.15"/><path id="XMLID_1241_" class="st87" d="M35 27.7c-.3-3.4 4-5.5 4-5.5v-5s-6.8-2.2-7-7c-.2-4.1 6.1-5.8 11.2-7.1.6-.1.5-1-.1-1-5.4.1-14.7.8-22.1 3.6-5.8 2.2-9 6-10.9 9.2-1.3 2.3-3.3 4-5.8 5l-1.7.6c-.3.1-.6.5-.6.9v1c0 .5.3.9.8 1l1.5.3c2.9.6 5.4 2.3 7.3 4.7 2.1 2.7 5.4 5.2 10.4 5.8 6.6.9 13.3-.8 16.1-1.6.4-.1.5-.7.1-.9-1.2-.6-3-1.8-3.2-4z" fill="#4AEFF7"/><g id="XMLID_1238_"><path id="XMLID_1240_" class="st103" d="M2.8 23.4l1.5.3c.1 0 .2.1.4.1 2.3-.9 4.2-2.6 5.5-4.8 1.8-3.2 5.1-7 10.9-9.2 4-1.5 8.5-2.4 12.7-2.9 2-1.9 6-2.9 9.4-3.8.6-.1.5-1-.1-1-5.4.1-14.7.8-22.1 3.6-5.8 2.2-9 6-10.9 9.2-1.3 2.3-3.3 4-5.8 5l-1.7.6c-.3.1-.6.5-.6.9v1c0 .4.3.9.8 1z" fill="#A6FBFF"/><path id="XMLID_1239_" class="st103" d="M32.5 12.2c-.4.6-.6 1.3-.5 2 .2 4.8 7 7 7 7v-4.1c0 .1-4.8-1.5-6.5-4.9z" fill="#A6FBFF"/></g><path id="XMLID_1237_" class="st10" d="M35 27.7c-.3-3.4 4-5.5 4-5.5v-5s-6.8-2.2-7-7c-.2-4.1 6.1-5.8 11.2-7.1.6-.1.5-1-.1-1-5.4.1-14.7.8-22.1 3.6-5.8 2.2-9 6-10.9 9.2-1.3 2.3-3.3 4-5.8 5l-1.7.6c-.3.1-.6.5-.6.9v1c0 .5.3.9.8 1l1.5.3c2.9.6 5.4 2.3 7.3 4.7 2.1 2.7 5.4 5.2 10.4 5.8 6.6.9 13.3-.8 16.1-1.6.4-.1.5-.7.1-.9-1.2-.6-3-1.8-3.2-4z" fill="none" stroke="#45413C" stroke-linecap="round" stroke-linejoin="round" stroke-miterlimit="10"/><path id="XMLID_1236_" class="st41" d="M30.9 34.1c-1.1-2.7-2.4-7.3-2.4-13.9 0-7.8 1.6-13.9 2.6-17.1-1.4.2-2.9.5-4.3.8-.9 3.1-2.3 9.2-2.3 16.2 0 5.9 1.2 11 2.1 14.2 1.5.1 3 0 4.3-.2z" fill="#F0F0F0"/><g id="XMLID_39_"><path id="XMLID_1235_" class="st17" d="M31.1 3.1c-.4 1.1-.8 2.5-1.2 4.3-1.4.2-2.8.5-4.2.9.4-1.8.7-3.2 1-4.3 1.5-.4 3-.6 4.4-.9z" fill="#FFF"/></g><path id="XMLID_15_" class="st10" d="M30.9 34.1c-1.1-2.7-2.4-7.3-2.4-13.9 0-7.8 1.6-13.9 2.6-17.1-1.4.2-2.9.5-4.3.8-.9 3.1-2.3 9.2-2.3 16.2 0 5.9 1.2 11 2.1 14.2 1.5.1 3 0 4.3-.2z" fill="none" stroke="#45413C" stroke-linecap="round" stroke-linejoin="round" stroke-miterlimit="10"/><path id="XMLID_14_" class="st11" d="M21.5 33.2c-1.2-5.9-1.5-8.4-1-15 .3-4.5.9-9.5 2.5-13.2-.7.2-1.4.4-2 .7-2 .8-3.7 1.7-5.1 2.8-.7 2.8-1.4 6.9-1.4 12.2 0 10 2 15.2 6 18 2.4 1.7 4.4 2.3 5.9 2.5.5.1.8-.6.3-.9-1.8-1.2-4.4-3.4-5.2-7.1z" fill="#FFE500"/><g id="XMLID_12_"><path id="XMLID_13_" class="st45" d="M23 5c-.6 1.4-1.1 2.9-1.4 4.6-.2.1-.4.1-.6.2-2.4.9-4.4 2.1-6 3.5.2-1.9.6-3.5.9-4.8 1.4-1.1 3.1-2 5.1-2.8.7-.3 1.3-.5 2-.7z" fill="#FFF48C"/></g><path id="XMLID_11_" class="st10" d="M21.5 33.2c-1.2-5.9-1.5-8.4-1-15 .3-4.5.9-9.5 2.5-13.2-.7.2-1.4.4-2 .7-2 .8-3.7 1.7-5.1 2.8-.7 2.8-1.4 6.9-1.4 12.2 0 10 2 15.2 6 18 2.4 1.7 4.4 2.3 5.9 2.5.5.1.8-.6.3-.9-1.8-1.2-4.4-3.4-5.2-7.1z" fill="none" stroke="#45413C" stroke-linecap="round" stroke-linejoin="round" stroke-miterlimit="10"/><path id="XMLID_10_" class="st11" d="M39 17.2c1.9.4 3.8-3.6 5-4 1.2-.4 2 2.3 2 6 0 2.8-.2 6.1-1.5 6-1.5-.1-2.7-4.3-5.5-3v-5z" fill="#FFE500"/><path id="XMLID_9_" class="st45" d="M45.3 15.3h.3c-.4-1.5-.9-2.3-1.6-2.1-1.2.4-3.1 4.4-5 4v2.1c2.4.4 4.8-3.6 6.3-4z" fill="#FFF48C"/><path id="XMLID_8_" class="st10" d="M39 17.2c1.9.4 3.8-3.6 5-4 1.2-.4 2 2.3 2 6 0 2.8-.2 6.1-1.5 6-1.5-.1-2.7-4.3-5.5-3v-5z" fill="none" stroke="#45413C" stroke-linecap="round" stroke-linejoin="round" stroke-miterlimit="10"/><circle id="XMLID_7_" class="st93" cx="12.1" cy="19.1" r="1.1" fill="#45413C"/><circle id="XMLID_6_" class="st28" cx="16.9" cy="23.1" r="1.3" fill="#FFFACF"/><path id="XMLID_5_" class="st46" d="M42 18.2s2.1-.1 3.5-1" fill="#FFE500" stroke="#45413C" stroke-linecap="round" stroke-linejoin="round" stroke-miterlimit="10"/><path id="XMLID_4_" class="st46" d="M42 20.2s2.2 0 3.5 1" fill="#FFE500" stroke="#45413C" stroke-linecap="round" stroke-linejoin="round" stroke-miterlimit="10"/></g></g></svg>
