<svg xmlns="http://www.w3.org/2000/svg" viewBox="0 0 32 32" id="MosqueIcon"><rect width="7" height="15" x="12.5" y="16.5" fill="#fdc475"></rect><path fill="#2c2b2d" d="M19.5,32h-7a.49971.49971,0,0,1-.5-.5v-15a.49971.49971,0,0,1,.5-.5h7a.49971.49971,0,0,1,.5.5v15A.49971.49971,0,0,1,19.5,32ZM13,31h6V17H13Z"></path><path fill="#ffdaa7" d="M19.5,31.5h-7v-8.36A4.82573,4.82573,0,0,1,16,18.5h0a4.82573,4.82573,0,0,1,3.5,4.64Z"></path><path fill="#2c2b2d" d="M19.5,32h-7a.49971.49971,0,0,1-.5-.5V23.14014a5.34877,5.34877,0,0,1,3.86279-5.1211.50385.50385,0,0,1,.27442,0A5.34877,5.34877,0,0,1,20,23.14014V31.5A.49971.49971,0,0,1,19.5,32ZM13,31h6V23.14014a4.3448,4.3448,0,0,0-3-4.11768,4.3448,4.3448,0,0,0-3,4.11768Z"></path><rect width="8.397" height="9" x="19.5" y="22.5" fill="#fdc475"></rect><path fill="#2c2b2d" d="M27.897,32H19.5a.49971.49971,0,0,1-.5-.5v-9a.49971.49971,0,0,1,.5-.5h8.397a.49971.49971,0,0,1,.5.5v9A.49971.49971,0,0,1,27.897,32ZM20,31h7.397V23H20Z"></path><rect width="8.5" height="9" x="4" y="22.5" fill="#fdc475"></rect><path fill="#2c2b2d" d="M12.5,32H4a.49971.49971,0,0,1-.5-.5v-9A.49971.49971,0,0,1,4,22h8.5a.49971.49971,0,0,1,.5.5v9A.49971.49971,0,0,1,12.5,32Zm-8-1H12V23H4.5Z"></path><path fill="#f7991d" d="M19.5,16.5h-7l-.59244-2.36978a2,2,0,0,1,1.128-2.31269L16,10.5l2.96444,1.31753a2,2,0,0,1,1.128,2.31269Z"></path><path fill="#2c2b2d" d="M19.5,17h-7a.4998.4998,0,0,1-.48486-.37891l-.59229-2.36963a2.49579,2.49579,0,0,1,1.40967-2.89111L15.79688,10.043a.499.499,0,0,1,.40625,0l2.96435,1.31738a2.49579,2.49579,0,0,1,1.40967,2.89111l-.59229,2.36963A.4998.4998,0,0,1,19.5,17Zm-6.60937-1h6.21875l.498-1.99072a1.49733,1.49733,0,0,0-.84619-1.73487L16,11.04736l-2.76123,1.22705a1.49733,1.49733,0,0,0-.84619,1.73487Z"></path><path fill="#f7991d" d="M28,22.5H19.5V20.40382a3,3,0,0,1,1.72261-2.71446L23.75,16.5l2.52739,1.18936A3,3,0,0,1,28,20.40382Z"></path><path fill="#2c2b2d" d="M28,23H19.5a.49971.49971,0,0,1-.5-.5V20.40381a3.514,3.514,0,0,1,2.00977-3.167l2.52734-1.18946a.49985.49985,0,0,1,.42578,0l2.52734,1.18946A3.514,3.514,0,0,1,28.5,20.40381V22.5A.49971.49971,0,0,1,28,23Zm-8-1h7.5V20.40381a2.50932,2.50932,0,0,0-1.43555-2.26172L23.75,17.05273l-2.31445,1.08936A2.50932,2.50932,0,0,0,20,20.40381Z"></path><path fill="#f7991d" d="M12.5,22.5H4V20.40382a3,3,0,0,1,1.72261-2.71446L8.25,16.5l2.52739,1.18936A3,3,0,0,1,12.5,20.40382Z"></path><path fill="#2c2b2d" d="M12.5 23H4a.49971.49971 0 0 1-.5-.5V20.40381a3.514 3.514 0 0 1 2.00977-3.167l2.52734-1.18946a.49985.49985 0 0 1 .42578 0l2.52734 1.18946A3.514 3.514 0 0 1 13 20.40381V22.5A.49971.49971 0 0 1 12.5 23zm-8-1H12V20.40381a2.50932 2.50932 0 0 0-1.43555-2.26172L8.25 17.05273 5.93555 18.14209A2.50932 2.50932 0 0 0 4.5 20.40381zM16 11a.49971.49971 0 0 1-.5-.5v-1a.5.5 0 0 1 1 0v1A.49971.49971 0 0 1 16 11z"></path><path fill="#2c2b2d" d="M8.25 17a.49971.49971 0 0 1-.5-.5v-1a.5.5 0 0 1 1 0v1A.49971.49971 0 0 1 8.25 17zM23.75 17a.49971.49971 0 0 1-.5-.5v-1a.5.5 0 0 1 1 0v1A.49971.49971 0 0 1 23.75 17z"></path><path fill="#ffdaa7" d="M26,31.5H21.5V26.79975a2,2,0,0,1,1.18772-1.82763L23.75,24.5l1.06228.47212A2,2,0,0,1,26,26.79975Z"></path><path fill="#2c2b2d" d="M26,32H21.5a.49971.49971,0,0,1-.5-.5V26.7998a2.50182,2.50182,0,0,1,1.48438-2.28466l1.0625-.47217a.499.499,0,0,1,.40625,0l1.0625.47217A2.50183,2.50183,0,0,1,26.5,26.7998V31.5A.49971.49971,0,0,1,26,32Zm-4-1h3.5V26.7998a1.50077,1.50077,0,0,0-.89062-1.3706L23.75,25.04736l-.85937.38184A1.50076,1.50076,0,0,0,22,26.7998Z"></path><path fill="#ffdaa7" d="M10.5,31.5H6V26.79975a2,2,0,0,1,1.18772-1.82763L8.25,24.5l1.06228.47212A2,2,0,0,1,10.5,26.79975Z"></path><path fill="#2c2b2d" d="M10.5,32H6a.49971.49971,0,0,1-.5-.5V26.7998a2.50182,2.50182,0,0,1,1.48438-2.28466l1.0625-.47217a.499.499,0,0,1,.40625,0l1.0625.47217A2.50183,2.50183,0,0,1,11,26.7998V31.5A.49971.49971,0,0,1,10.5,32Zm-4-1H10V26.7998a1.50077,1.50077,0,0,0-.89062-1.3706L8.25,25.04736l-.85937.38184A1.50076,1.50076,0,0,0,6.5,26.7998Z"></path><path fill="#f7991d" d="M30.5,8.5h-3l-.63847-1.27693A1,1,0,0,1,27.13127,5.995L29,4.5l1.86873,1.495a1,1,0,0,1,.26974,1.22808Z"></path><path fill="#2c2b2d" d="M30.5,9h-3a.50021.50021,0,0,1-.44727-.27637l-.63867-1.27685a1.50857,1.50857,0,0,1,.40479-1.84229L28.6875,4.10938a.502.502,0,0,1,.625,0l1.86865,1.49511a1.508,1.508,0,0,1,.40479,1.8418l-.63867,1.27734A.50021.50021,0,0,1,30.5,9ZM27.80908,8h2.38184l.50049-1.00049a.50229.50229,0,0,0-.13526-.61377L29,5.14014l-1.55615,1.2456A.50283.50283,0,0,0,27.30859,7Z"></path><path fill="#2c2b2d" d="M31.5 9h-5a.5.5 0 0 1 0-1h5a.5.5 0 0 1 0 1zM29 5a.49971.49971 0 0 1-.5-.5v-1a.5.5 0 0 1 1 0v1A.49971.49971 0 0 1 29 5z"></path><rect width="2" height="23" x="28" y="8.5" fill="#fdc475"></rect><path fill="#2c2b2d" d="M30,32H28a.49971.49971,0,0,1-.5-.5V8.5A.49971.49971,0,0,1,28,8h2a.49971.49971,0,0,1,.5.5v23A.49971.49971,0,0,1,30,32Zm-1.5-1h1V9h-1Z"></path><path fill="#f7991d" d="M4.5,8.5h-3L.86153,7.22307A1,1,0,0,1,1.13127,5.995L3,4.5,4.86873,5.995a1,1,0,0,1,.26974,1.22808Z"></path><path fill="#2c2b2d" d="M4.5,9h-3a.50021.50021,0,0,1-.44727-.27637L.41406,7.44678A1.50857,1.50857,0,0,1,.81885,5.60449L2.6875,4.10938a.502.502,0,0,1,.625,0L5.18115,5.60449a1.508,1.508,0,0,1,.40479,1.8418L4.94727,8.72363A.50021.50021,0,0,1,4.5,9ZM1.80908,8H4.19092l.50049-1.00049a.50229.50229,0,0,0-.13526-.61377L3,5.14014,1.44385,6.38574A.50283.50283,0,0,0,1.30859,7Z"></path><path fill="#2c2b2d" d="M5.5 9H.5a.5.5 0 0 1 0-1h5a.5.5 0 0 1 0 1zM3 5a.49971.49971 0 0 1-.5-.5v-1a.5.5 0 0 1 1 0v1A.49971.49971 0 0 1 3 5z"></path><rect width="2" height="23" x="2" y="8.5" fill="#fdc475"></rect><path fill="#2c2b2d" d="M4,32H2a.49971.49971,0,0,1-.5-.5V8.5A.49971.49971,0,0,1,2,8H4a.49971.49971,0,0,1,.5.5v23A.49971.49971,0,0,1,4,32ZM2.5,31h1V9h-1Z"></path><path fill="#e0e0e2" d="M19.433,4.22821A3.491,3.491,0,0,1,19.58993.5,3.49535,3.49535,0,1,0,21.616,7.0093,3.46691,3.46691,0,0,0,22.7402,5.95643,3.491,3.491,0,0,1,19.433,4.22821Z"></path><path fill="#2c2b2d" d="M19.87256,7.98a4.02594,4.02594,0,0,1-1.042-.13818,3.99981,3.99981,0,0,1-2.82813-4.89893A3.96166,3.96166,0,0,1,19.55078.00146.4909.4909,0,0,1,20.023.25a.5.5,0,0,1-.021.5332A2.98133,2.98133,0,0,0,22.70117,5.458a.49224.49224,0,0,1,.47217.24853.50094.50094,0,0,1-.021.53321A3.956,3.956,0,0,1,19.87256,7.98ZM18.67139,1.228a2.82082,2.82082,0,0,0-.30518.15234,2.99985,2.99985,0,1,0,3,5.1958,2.75045,2.75045,0,0,0,.28418-.188,3.98108,3.98108,0,0,1-2.979-5.16015Z"></path></svg>
