<svg xmlns="http://www.w3.org/2000/svg" version="1.1" x="0px" y="0px" viewBox="0 0 48 48" xml space="preserve" id="SunflowerIcon"><style type="text/css"></style><symbol id="New_Symbol_14" viewBox="-6.5 -6.5 13 13"><path class="st0" d="M0-6c2.2 0 4.1 1.5 4.7 3.5C6.3-2.5 6.4 0 5 0v1c0 2.8-2.2 5-5 5s-5-2.2-5-5V0c-1.4 0-1.3-2.5.2-2.5C-4.1-4.5-2.2-6 0-6z" fill="#FFD4C3" stroke="#504B46" stroke-linecap="round" stroke-linejoin="round" stroke-miterlimit="10"></path><circle class="st1" cx="-1.6" cy="-0.1" r="0.1" fill="#FFC258"></circle><path class="st2" d="M-1.6.5c-.3 0-.6-.3-.6-.6s.2-.7.6-.7c.3 0 .6.3.6.7s-.3.6-.6.6z" fill="#4F4B45"></path><circle class="st1" cx="1.6" cy="-0.1" r="0.1" fill="#FFC258"></circle><path class="st2" d="M1.6.5C1.3.5 1 .2 1-.1s.3-.6.6-.6.6.3.6.6-.2.6-.6.6z" fill="#4F4B45"></path><circle class="st3" cx="-3" cy="-1.5" r="0.5" fill="#FABFA5"></circle><circle class="st3" cx="3" cy="-1.5" r="0.5" fill="#FABFA5"></circle><path class="st4" d="M-1.2-3c.8-.5 1.7-.5 2.5 0" fill="none" stroke="#504B46" stroke-linecap="round" stroke-linejoin="round" stroke-miterlimit="10"></path></symbol><g id="Icons"><g id="XMLID_1169_"><ellipse id="XMLID_243_" class="st5" cx="24" cy="45.5" rx="10" ry="1.5" fill="#45413C" opacity="0.15"></ellipse><g id="XMLID_137_"><path id="XMLID_677_" class="st48" d="M32.2 37.6s-2.4 5.5-3.7 6.5c-1.2 1-3 .8-4-.5-1-1.2-.8-3 .5-4 1.3-.9 7.2-2 7.2-2z" fill="#6DD627" stroke="#45413C" stroke-linecap="round" stroke-linejoin="round" stroke-miterlimit="10"></path><path id="XMLID_676_" class="st48" d="M15.8 36s2.4 5.5 3.7 6.5c1.2 1 3 .8 4-.5 1-1.2.8-3-.5-4s-7.2-2-7.2-2z" fill="#6DD627" stroke="#45413C" stroke-linecap="round" stroke-linejoin="round" stroke-miterlimit="10"></path><path id="XMLID_659_" class="st48" fill="#6DD627" stroke="#45413C" stroke-linecap="round" stroke-linejoin="round" stroke-miterlimit="10" d="M22.8 28.5h2.4v17h-2.4z"></path><g id="XMLID_144_"><g id="XMLID_620_"><path id="XMLID_647_" class="st11" d="M22.9 8.3c.6 1.4-.1 3.1-1.5 3.7-1.4.6-3.1-.1-3.7-1.5-.6-1.4-.3-8.2-.3-8.2s4.9 4.6 5.5 6z" fill="#FFE500"></path><path id="XMLID_644_" class="st11" d="M16.1 12.1c1.4.6 2.1 2.3 1.5 3.7-.6 1.4-2.3 2.1-3.7 1.5-1.4-.6-6-5.6-6-5.6s6.8-.2 8.2.4z" fill="#FFE500"></path><path id="XMLID_643_" class="st11" d="M13.9 19.5c1.4-.6 3.1.1 3.7 1.5.6 1.4-.1 3.1-1.5 3.7-1.4.6-8.2.3-8.2.3s4.6-4.9 6-5.5z" fill="#FFE500"></path><path id="XMLID_642_" class="st11" d="M17.7 26.3c.6-1.4 2.3-2.1 3.7-1.5 1.4.6 2.1 2.3 1.5 3.7-.6 1.4-5.6 6-5.6 6s-.2-6.8.4-8.2z" fill="#FFE500"></path><path id="XMLID_641_" class="st11" d="M25.1 28.5c-.6-1.4.1-3.1 1.5-3.7 1.4-.6 3.1.1 3.7 1.5.6 1.4.3 8.2.3 8.2s-4.9-4.6-5.5-6z" fill="#FFE500"></path><path id="XMLID_640_" class="st11" d="M31.9 24.7c-1.4-.6-2.1-2.3-1.5-3.7.6-1.4 2.3-2.1 3.7-1.5 1.4.6 6 5.6 6 5.6s-6.8.2-8.2-.4z" fill="#FFE500"></path><path id="XMLID_639_" class="st11" d="M34.1 17.3c-1.4.6-3.1-.1-3.7-1.5s.1-3.1 1.5-3.7c1.4-.6 8.2-.3 8.2-.3s-4.6 4.9-6 5.5z" fill="#FFE500"></path><path id="XMLID_638_" class="st11" d="M30.3 10.5c-.6 1.4-2.3 2.1-3.7 1.5-1.4-.6-2.1-2.3-1.5-3.7.6-1.4 5.6-6 5.6-6s.2 6.8-.4 8.2z" fill="#FFE500"></path><g id="XMLID_629_"><path id="XMLID_637_" class="st12" d="M21.4 12c1.4-.6 2.1-2.3 1.5-3.7-2 .2-3.8 1-5.2 2.2.6 1.5 2.2 2.1 3.7 1.5z" fill="#EBCB00"></path><path id="XMLID_636_" class="st12" d="M17.6 15.8c.6-1.4-.1-3.1-1.5-3.7-1.2 1.5-2 3.3-2.2 5.2 1.5.6 3.1-.1 3.7-1.5z" fill="#EBCB00"></path><path id="XMLID_635_" class="st12" d="M17.6 21c-.6-1.4-2.3-2.1-3.7-1.5.2 2 1 3.8 2.2 5.2 1.5-.6 2.1-2.2 1.5-3.7z" fill="#EBCB00"></path><path id="XMLID_634_" class="st12" d="M21.4 24.7c-1.4-.6-3.1.1-3.7 1.5 1.5 1.2 3.3 2 5.2 2.2.6-1.4-.1-3.1-1.5-3.7z" fill="#EBCB00"></path><path id="XMLID_633_" class="st12" d="M26.6 24.7c-1.4.6-2.1 2.3-1.5 3.7 2-.2 3.8-1 5.2-2.2-.6-1.4-2.2-2-3.7-1.5z" fill="#EBCB00"></path><path id="XMLID_632_" class="st12" d="M30.4 21c-.6 1.4.1 3.1 1.5 3.7 1.2-1.5 2-3.3 2.2-5.2-1.5-.6-3.1.1-3.7 1.5z" fill="#EBCB00"></path><path id="XMLID_631_" class="st12" d="M30.4 15.8c.6 1.4 2.3 2.1 3.7 1.5-.2-2-1-3.8-2.2-5.2-1.5.6-2.1 2.2-1.5 3.7z" fill="#EBCB00"></path><path id="XMLID_630_" class="st12" d="M26.6 12c1.4.6 3.1-.1 3.7-1.5-1.5-1.2-3.3-2-5.2-2.2-.6 1.5.1 3.1 1.5 3.7z" fill="#EBCB00"></path></g><path id="XMLID_628_" class="st10" d="M22.9 8.3c.6 1.4-.1 3.1-1.5 3.7-1.4.6-3.1-.1-3.7-1.5-.6-1.4-.3-8.2-.3-8.2s4.9 4.6 5.5 6z" fill="none" stroke="#45413C" stroke-linecap="round" stroke-linejoin="round" stroke-miterlimit="10"></path><path id="XMLID_627_" class="st10" d="M16.1 12.1c1.4.6 2.1 2.3 1.5 3.7-.6 1.4-2.3 2.1-3.7 1.5-1.4-.6-6-5.6-6-5.6s6.8-.2 8.2.4z" fill="none" stroke="#45413C" stroke-linecap="round" stroke-linejoin="round" stroke-miterlimit="10"></path><path id="XMLID_626_" class="st10" d="M13.9 19.5c1.4-.6 3.1.1 3.7 1.5.6 1.4-.1 3.1-1.5 3.7-1.4.6-8.2.3-8.2.3s4.6-4.9 6-5.5z" fill="none" stroke="#45413C" stroke-linecap="round" stroke-linejoin="round" stroke-miterlimit="10"></path><path id="XMLID_625_" class="st10" d="M17.7 26.3c.6-1.4 2.3-2.1 3.7-1.5 1.4.6 2.1 2.3 1.5 3.7-.6 1.4-5.6 6-5.6 6s-.2-6.8.4-8.2z" fill="none" stroke="#45413C" stroke-linecap="round" stroke-linejoin="round" stroke-miterlimit="10"></path><path id="XMLID_624_" class="st10" d="M25.1 28.5c-.6-1.4.1-3.1 1.5-3.7 1.4-.6 3.1.1 3.7 1.5.6 1.4.3 8.2.3 8.2s-4.9-4.6-5.5-6z" fill="none" stroke="#45413C" stroke-linecap="round" stroke-linejoin="round" stroke-miterlimit="10"></path><path id="XMLID_623_" class="st10" d="M31.9 24.7c-1.4-.6-2.1-2.3-1.5-3.7.6-1.4 2.3-2.1 3.7-1.5 1.4.6 6 5.6 6 5.6s-6.8.2-8.2-.4z" fill="none" stroke="#45413C" stroke-linecap="round" stroke-linejoin="round" stroke-miterlimit="10"></path><path id="XMLID_622_" class="st10" d="M34.1 17.3c-1.4.6-3.1-.1-3.7-1.5s.1-3.1 1.5-3.7c1.4-.6 8.2-.3 8.2-.3s-4.6 4.9-6 5.5z" fill="none" stroke="#45413C" stroke-linecap="round" stroke-linejoin="round" stroke-miterlimit="10"></path><path id="XMLID_621_" class="st10" d="M30.3 10.5c-.6 1.4-2.3 2.1-3.7 1.5-1.4-.6-2.1-2.3-1.5-3.7.6-1.4 5.6-6 5.6-6s.2 6.8-.4 8.2z" fill="none" stroke="#45413C" stroke-linecap="round" stroke-linejoin="round" stroke-miterlimit="10"></path></g><g id="XMLID_145_"><path id="XMLID_619_" class="st11" d="M26.8 8.7c0 1.6-1.3 2.8-2.8 2.8s-2.8-1.3-2.8-2.8S24 1 24 1s2.8 6.1 2.8 7.7z" fill="#FFE500"></path><path id="XMLID_618_" class="st11" d="M19.1 9.5c1.1 1.1 1.1 2.9 0 4s-2.9 1.1-4 0-3.4-7.4-3.4-7.4 6.3 2.3 7.4 3.4z" fill="#FFE500"></path><path id="XMLID_617_" class="st11" d="M14.3 15.6c1.6 0 2.8 1.3 2.8 2.8 0 1.6-1.3 2.8-2.8 2.8s-7.7-2.8-7.7-2.8 6.1-2.8 7.7-2.8z" fill="#FFE500"></path><path id="XMLID_199_" class="st11" d="M15.1 23.3c1.1-1.1 2.9-1.1 4 0s1.1 2.9 0 4-7.4 3.4-7.4 3.4 2.3-6.3 3.4-7.4z" fill="#FFE500"></path><path id="XMLID_198_" class="st11" d="M21.2 28.1c0-1.6 1.3-2.8 2.8-2.8s2.8 1.3 2.8 2.8-2.8 7.7-2.8 7.7-2.8-6.1-2.8-7.7z" fill="#FFE500"></path><path id="XMLID_197_" class="st11" d="M28.9 27.3c-1.1-1.1-1.1-2.9 0-4s2.9-1.1 4 0 3.4 7.4 3.4 7.4-6.3-2.3-7.4-3.4z" fill="#FFE500"></path><path id="XMLID_196_" class="st11" d="M33.7 21.2c-1.6 0-2.8-1.3-2.8-2.8 0-1.6 1.3-2.8 2.8-2.8s7.7 2.8 7.7 2.8-6.1 2.8-7.7 2.8z" fill="#FFE500"></path><path id="XMLID_195_" class="st11" d="M32.9 13.5c-1.1 1.1-2.9 1.1-4 0s-1.1-2.9 0-4 7.4-3.4 7.4-3.4-2.3 6.3-3.4 7.4z" fill="#FFE500"></path><path id="XMLID_194_" class="st12" d="M24 11.5c1.6 0 2.8-1.3 2.8-2.8-.9-.3-1.8-.4-2.8-.4-1 0-1.9.1-2.8.4 0 1.6 1.2 2.8 2.8 2.8z" fill="#EBCB00"></path><path id="XMLID_193_" class="st12" d="M19.1 13.5c1.1-1.1 1.1-2.9 0-4-1.7.9-3.1 2.3-4 4 1.1 1.1 2.9 1.1 4 0z" fill="#EBCB00"></path><path id="XMLID_192_" class="st12" d="M17.1 18.4c0-1.6-1.3-2.8-2.8-2.8-.3.9-.4 1.8-.4 2.8 0 1 .1 1.9.4 2.8 1.6 0 2.8-1.2 2.8-2.8z" fill="#EBCB00"></path><path id="XMLID_191_" class="st12" d="M19.1 23.3c-1.1-1.1-2.9-1.1-4 0 .9 1.7 2.3 3.1 4 4 1.1-1.1 1.1-2.9 0-4z" fill="#EBCB00"></path><path id="XMLID_190_" class="st12" d="M24 25.3c-1.6 0-2.8 1.3-2.8 2.8.9.3 1.8.4 2.8.4 1 0 1.9-.1 2.8-.4 0-1.6-1.2-2.8-2.8-2.8z" fill="#EBCB00"></path><path id="XMLID_189_" class="st12" d="M32.9 23.3c-1.1-1.1-2.9-1.1-4 0s-1.1 2.9 0 4c1.6-1 3-2.4 4-4z" fill="#EBCB00"></path><path id="XMLID_188_" class="st12" d="M30.9 18.4c0 1.6 1.3 2.8 2.8 2.8.3-.9.4-1.8.4-2.8 0-1-.1-1.9-.4-2.8-1.6 0-2.8 1.2-2.8 2.8z" fill="#EBCB00"></path><path id="XMLID_185_" class="st12" d="M28.9 13.5c1.1 1.1 2.9 1.1 4 0-.9-1.7-2.3-3.1-4-4-1.1 1.1-1.1 2.9 0 4z" fill="#EBCB00"></path><path id="XMLID_183_" class="st10" d="M26.8 8.7c0 1.6-1.3 2.8-2.8 2.8s-2.8-1.3-2.8-2.8S24 1 24 1s2.8 6.1 2.8 7.7z" fill="none" stroke="#45413C" stroke-linecap="round" stroke-linejoin="round" stroke-miterlimit="10"></path><path id="XMLID_182_" class="st10" d="M19.1 9.5c1.1 1.1 1.1 2.9 0 4s-2.9 1.1-4 0-3.4-7.4-3.4-7.4 6.3 2.3 7.4 3.4z" fill="none" stroke="#45413C" stroke-linecap="round" stroke-linejoin="round" stroke-miterlimit="10"></path><path id="XMLID_181_" class="st10" d="M14.3 15.6c1.6 0 2.8 1.3 2.8 2.8 0 1.6-1.3 2.8-2.8 2.8s-7.7-2.8-7.7-2.8 6.1-2.8 7.7-2.8z" fill="none" stroke="#45413C" stroke-linecap="round" stroke-linejoin="round" stroke-miterlimit="10"></path><path id="XMLID_180_" class="st10" d="M15.1 23.3c1.1-1.1 2.9-1.1 4 0s1.1 2.9 0 4-7.4 3.4-7.4 3.4 2.3-6.3 3.4-7.4z" fill="none" stroke="#45413C" stroke-linecap="round" stroke-linejoin="round" stroke-miterlimit="10"></path><path id="XMLID_179_" class="st10" d="M21.2 28.1c0-1.6 1.3-2.8 2.8-2.8s2.8 1.3 2.8 2.8-2.8 7.7-2.8 7.7-2.8-6.1-2.8-7.7z" fill="none" stroke="#45413C" stroke-linecap="round" stroke-linejoin="round" stroke-miterlimit="10"></path><path id="XMLID_178_" class="st10" d="M28.9 27.3c-1.1-1.1-1.1-2.9 0-4s2.9-1.1 4 0 3.4 7.4 3.4 7.4-6.3-2.3-7.4-3.4z" fill="none" stroke="#45413C" stroke-linecap="round" stroke-linejoin="round" stroke-miterlimit="10"></path><path id="XMLID_147_" class="st10" d="M33.7 21.2c-1.6 0-2.8-1.3-2.8-2.8 0-1.6 1.3-2.8 2.8-2.8s7.7 2.8 7.7 2.8-6.1 2.8-7.7 2.8z" fill="none" stroke="#45413C" stroke-linecap="round" stroke-linejoin="round" stroke-miterlimit="10"></path><path id="XMLID_146_" class="st10" d="M32.9 13.5c-1.1 1.1-2.9 1.1-4 0s-1.1-2.9 0-4 7.4-3.4 7.4-3.4-2.3 6.3-3.4 7.4z" fill="none" stroke="#45413C" stroke-linecap="round" stroke-linejoin="round" stroke-miterlimit="10"></path></g></g><g id="XMLID_138_"><circle id="XMLID_143_" class="st47" cx="24" cy="18.4" r="8.5" fill="#FFAA54"></circle><path id="XMLID_140_" class="st49" d="M24 9.9c-4.7 0-8.5 3.8-8.5 8.5s3.8 8.5 8.5 8.5 8.5-3.8 8.5-8.5-3.8-8.5-8.5-8.5zm0 15.8c-4.2 0-7.7-3.4-7.7-7.7s3.4-7.7 7.7-7.7 7.7 3.4 7.7 7.7-3.5 7.7-7.7 7.7z" fill="#FF8A14"></path><circle id="XMLID_139_" class="st10" cx="24" cy="18.4" r="8.5" fill="none" stroke="#45413C" stroke-linecap="round" stroke-linejoin="round" stroke-miterlimit="10"></circle></g></g></g></g></svg>
