<?xml version="1.0" encoding="UTF-8"?><svg xmlns="http://www.w3.org/2000/svg" xmlns:xlink="http://www.w3.org/1999/xlink" version="1.1" x="0px" y="0px" viewBox="0 0 48 48" xml:space="preserve"><style type="text/css">.st0{fill:#FFD4C3;stroke:#504B46;stroke-linecap:round;stroke-linejoin:round;stroke-miterlimit:10;} .st1{fill:#FFC258;} .st2{fill:#4F4B45;} .st3{fill:#FABFA5;} .st4{fill:none;stroke:#504B46;stroke-linecap:round;stroke-linejoin:round;stroke-miterlimit:10;} .Graphic_x0020_Style{opacity:0.15;fill:#45413C;} .st5{opacity:0.15;fill:#45413C;} .st6{fill:#DEBB7E;stroke:#45413C;stroke-linecap:round;stroke-linejoin:round;stroke-miterlimit:10;} .st7{fill:#F0D5A8;} .st8{fill:#F7E5C6;} .st9{fill:#DEBB7E;} .st10{fill:none;stroke:#45413C;stroke-linecap:round;stroke-linejoin:round;stroke-miterlimit:10;} .st11{fill:#FFE500;} .st12{fill:#EBCB00;} .st13{fill:none;stroke:#EBCB00;stroke-linecap:round;stroke-linejoin:round;stroke-miterlimit:10;} .st14{fill:#FF6242;stroke:#45413C;stroke-linecap:round;stroke-linejoin:round;stroke-miterlimit:10;} .st15{fill:#FFFFFF;stroke:#45413C;stroke-linecap:round;stroke-linejoin:round;stroke-miterlimit:10;} .st16{fill:#E5F8FF;} .st17{fill:#FFFFFF;} .st18{fill:#E8F4FA;} .st19{fill:#E8F4FA;stroke:#45413C;stroke-linecap:round;stroke-linejoin:round;stroke-miterlimit:10;} .st20{fill:#FFCCDD;} .st21{fill:#FFB0CA;stroke:#45413C;stroke-linecap:round;stroke-linejoin:round;stroke-miterlimit:10;} .st22{fill:#FF87AF;stroke:#45413C;stroke-linecap:round;stroke-linejoin:round;stroke-miterlimit:10;} .st23{fill:#E5F8FF;stroke:#45413C;stroke-linecap:round;stroke-linejoin:round;stroke-miterlimit:10;} .st24{fill:#BF8256;stroke:#45413C;stroke-linecap:round;stroke-linejoin:round;stroke-miterlimit:10;} .st25{fill:#9CEB60;} .st26{fill:#6DD627;} .st27{fill:#C8FFA1;} .st28{fill:#FFFACF;} .st29{fill:#FF87AF;} .st30{fill:#FFB0CA;} .st31{fill:#FF6196;} .st32{fill:#FFCCDD;stroke:#45413C;stroke-linecap:round;stroke-linejoin:round;stroke-miterlimit:10;} .st33{fill:#FF6196;stroke:#45413C;stroke-linecap:round;stroke-linejoin:round;stroke-miterlimit:10;} .st34{fill:#FFE5EE;} .st35{fill:#00B8F0;} .st36{fill:#4ACFFF;} .st37{fill:#BF8256;} .st38{fill:#DEA47A;} .st39{fill:#915E3A;} .st40{fill:#FFF5E3;} .st41{fill:#F0F0F0;} .st42{fill:#8CA4B8;} .st43{fill:#627B8C;} .st44{fill:#C0DCEB;} .st45{fill:#FFF48C;} .st46{fill:#FFE500;stroke:#45413C;stroke-linecap:round;stroke-linejoin:round;stroke-miterlimit:10;} .st47{fill:#FFAA54;} .st48{fill:#6DD627;stroke:#45413C;stroke-linecap:round;stroke-linejoin:round;stroke-miterlimit:10;} .st49{fill:#FF8A14;} .st50{fill:#FFCC99;} .st51{fill:#EBCB00;stroke:#45413C;stroke-linecap:round;stroke-linejoin:round;stroke-miterlimit:10;} .st52{fill:#00F5BC;stroke:#45413C;stroke-linecap:round;stroke-linejoin:round;stroke-miterlimit:10;} .st53{fill:#BF8DF2;stroke:#45413C;stroke-linecap:round;stroke-linejoin:round;stroke-miterlimit:10;} .st54{fill:#FF8A14;stroke:#45413C;stroke-linecap:round;stroke-linejoin:round;stroke-miterlimit:10;} .st55{fill:#4AEFF7;stroke:#45413C;stroke-linecap:round;stroke-linejoin:round;stroke-miterlimit:10;} .st56{fill:#FFF48C;stroke:#45413C;stroke-linecap:round;stroke-linejoin:round;stroke-miterlimit:10;} .st57{fill:#FF6242;} .st58{fill:#E04122;} .st59{fill:#46B000;} .st60{fill:none;stroke:#45413C;stroke-miterlimit:10;} .st61{fill:#00B8F0;stroke:#45413C;stroke-linecap:round;stroke-linejoin:round;stroke-miterlimit:10;} .st62{fill:#FF866E;} .st63{fill:#9F5AE5;stroke:#45413C;stroke-linecap:round;stroke-linejoin:round;stroke-miterlimit:10;} .st64{fill:#E4FFD1;} .st65{fill:#FFFEF2;} .st66{fill:#B89558;} .st67{fill:none;stroke:#915E3A;stroke-linecap:round;stroke-linejoin:round;stroke-miterlimit:10;} .st68{fill:#915E3A;stroke:#45413C;stroke-linecap:round;stroke-linejoin:round;stroke-miterlimit:10;} .st69{fill:#BF8DF2;} .st70{fill:#9F5AE5;} .st71{fill:#DABFF5;} .st72{fill:none;stroke:#45413C;stroke-linejoin:round;stroke-miterlimit:10;} .st73{fill:#656769;} .st74{fill:#87898C;} .st75{fill:#E0E0E0;} .st76{fill:#BDBEC0;} .st77{fill:#656769;stroke:#45413C;stroke-linecap:round;stroke-linejoin:round;stroke-miterlimit:10;} .st78{fill:#45413C;stroke:#45413C;stroke-linecap:round;stroke-linejoin:round;stroke-miterlimit:10;} .st79{fill:#FFA694;} .st80{fill:#E04122;stroke:#45413C;stroke-linecap:round;stroke-linejoin:round;stroke-miterlimit:10;} .st81{fill:#E0E0E0;stroke:#45413C;stroke-linecap:round;stroke-linejoin:round;stroke-miterlimit:10;} .st82{fill:#F0F0F0;stroke:#45413C;stroke-linecap:round;stroke-linejoin:round;stroke-miterlimit:10;} .st83{fill:#DAEDF7;} .st84{fill:#BDBEC0;stroke:#45413C;stroke-linecap:round;stroke-linejoin:round;stroke-miterlimit:10;} .st85{fill:#87898C;stroke:#45413C;stroke-linecap:round;stroke-linejoin:round;stroke-miterlimit:10;} .st86{fill:#00DFEB;} .st87{fill:#4AEFF7;} .st88{fill:#DAEDF7;stroke:#45413C;stroke-linecap:round;stroke-linejoin:round;stroke-miterlimit:10;} .st89{fill:#FFDA8F;} .st90{fill:#FFBE3D;} .st91{fill:#FFE9BD;} .st92{fill:#DEA47A;stroke:#45413C;stroke-linecap:round;stroke-linejoin:round;stroke-miterlimit:10;} .st93{fill:#45413C;} .st94{fill:#F0C2A1;} .st95{fill:none;stroke:#45413C;stroke-width:1.0064;stroke-linecap:round;stroke-linejoin:round;stroke-miterlimit:10;} .st96{fill:#525252;} .st97{fill:#EB6D00;stroke:#45413C;stroke-linecap:round;stroke-linejoin:round;stroke-miterlimit:10;} .st98{fill:#EB6D00;} .st99{fill:#E5FEFF;} .st100{fill:#FF866E;stroke:#45413C;stroke-linecap:round;stroke-linejoin:round;stroke-miterlimit:10;} .st101{fill:#627B8C;stroke:#45413C;stroke-linecap:round;stroke-linejoin:round;stroke-miterlimit:10;} .st102{fill:#FFFCE5;stroke:#45413C;stroke-linecap:round;stroke-linejoin:round;stroke-miterlimit:10;} .st103{fill:#A6FBFF;} .st104{fill:#D9FDFF;} .st105{fill:#FFFACF;stroke:#45413C;stroke-linecap:round;stroke-linejoin:round;stroke-miterlimit:10;} .st106{fill:#B8ECFF;} .st107{fill:#FFCABF;} .st108{fill:#E5FFF9;} .st109{fill:#C8FFA1;stroke:#45413C;stroke-linecap:round;stroke-linejoin:round;stroke-miterlimit:10;} .st110{fill:#4CF4FC;} .st111{fill:#F0D5A8;stroke:#45413C;stroke-linecap:round;stroke-linejoin:round;stroke-miterlimit:10;} .st112{fill:#FFDCD1;stroke:#45413C;stroke-linecap:round;stroke-linejoin:round;stroke-miterlimit:10;} .st113{fill:#80DDFF;} .st114{fill:#46B000;stroke:#45413C;stroke-linecap:round;stroke-linejoin:round;stroke-miterlimit:10;} .st115{fill:#4ACFFF;stroke:#45413C;stroke-linecap:round;stroke-linejoin:round;stroke-miterlimit:10;} .st116{fill:#ADC4D9;} .st117{fill:#BDBEC0;stroke:#45413C;stroke-width:1.0064;stroke-linecap:round;stroke-linejoin:round;stroke-miterlimit:10;} .st118{fill:#FFFCE5;} .st119{fill:#947746;} .st120{fill:#525252;stroke:#45413C;stroke-linecap:round;stroke-linejoin:round;stroke-miterlimit:10;}</style><symbol id="New_Symbol_14" viewBox="-6.5 -6.5 13 13"><path class="st0" d="M0-6c2.2 0 4.1 1.5 4.7 3.5C6.3-2.5 6.4 0 5 0v1c0 2.8-2.2 5-5 5s-5-2.2-5-5V0c-1.4 0-1.3-2.5.2-2.5C-4.1-4.5-2.2-6 0-6z" fill="#FFD4C3" stroke="#504B46" stroke-linecap="round" stroke-linejoin="round" stroke-miterlimit="10"/><circle class="st1" cx="-1.6" cy="-0.1" r="0.1" fill="#FFC258"/><path class="st2" d="M-1.6.5c-.3 0-.6-.3-.6-.6s.2-.7.6-.7c.3 0 .6.3.6.7s-.3.6-.6.6z" fill="#4F4B45"/><circle class="st1" cx="1.6" cy="-0.1" r="0.1" fill="#FFC258"/><path class="st2" d="M1.6.5C1.3.5 1 .2 1-.1s.3-.6.6-.6.6.3.6.6-.2.6-.6.6z" fill="#4F4B45"/><circle class="st3" cx="-3" cy="-1.5" r="0.5" fill="#FABFA5"/><circle class="st3" cx="3" cy="-1.5" r="0.5" fill="#FABFA5"/><path class="st4" d="M-1.2-3c.8-.5 1.7-.5 2.5 0" fill="none" stroke="#504B46" stroke-linecap="round" stroke-linejoin="round" stroke-miterlimit="10"/></symbol><g id="Icons"><g id="XMLID_1867_"><path id="XMLID_2563_" class="st18" d="M38.1 5.2c-.7.2-1.4.3-2.2.3h-9.6c-.6 0-1.2-.3-1.5-.8-.3-.5-.9-.8-1.5-.8h-7v5.3h7c.6 0 1.2-.3 1.5-.8.3-.5.9-.8 1.5-.8h9.6c.7 0 1.5.1 2.2.3.7.2 1.4.3 2.2.3h4.3c.9 0 1.6-.7 1.6-1.6 0-.9-.7-1.6-1.6-1.6h-4.3c-.8 0-1.5.1-2.2.2z" fill="#E8F4FA"/><path id="XMLID_2562_" class="st17" d="M24.8 6.1c.3.4.9.6 1.5.6h9.6c.7 0 1.5-.1 2.2-.2.7-.1 1.4-.2 2.2-.2h4.3c.7 0 1.3.3 1.5.8.1-.2.1-.3.1-.5 0-.9-.7-1.6-1.6-1.6h-4.3c-.7 0-1.5.1-2.2.3-.7.2-1.4.3-2.2.3h-9.6c-.6 0-1.2-.3-1.5-.8s-.9-.8-1.5-.8h-7v1.6h7c.6-.1 1.2.1 1.5.5z" fill="#FFF"/><path id="XMLID_2561_" class="st10" d="M38.1 5.2c-.7.2-1.4.3-2.2.3h-9.6c-.6 0-1.2-.3-1.5-.8-.3-.5-.9-.8-1.5-.8h-7v5.3h7c.6 0 1.2-.3 1.5-.8.3-.5.9-.8 1.5-.8h9.6c.7 0 1.5.1 2.2.3.7.2 1.4.3 2.2.3h4.3c.9 0 1.6-.7 1.6-1.6 0-.9-.7-1.6-1.6-1.6h-4.3c-.8 0-1.5.1-2.2.2z" fill="none" stroke="#45413C" stroke-linecap="round" stroke-linejoin="round" stroke-miterlimit="10"/><path id="XMLID_2560_" class="st11" d="M16.8 15.1c-.6 0-1.1-.5-1.1-1.1V9.2c0-.6.5-1.1 1.1-1.1.6 0 1.1.5 1.1 1.1V14c0 .6-.5 1.1-1.1 1.1z" fill="#FFE500"/><path id="XMLID_2559_" class="st12" d="M17.9 12.7h-2.1V9.2c0-.6.5-1.1 1.1-1.1.6 0 1.1.5 1.1 1.1v3.5z" fill="#EBCB00"/><path id="XMLID_2558_" class="st11" fill="#FFE500" d="M17.9 8.2H20v13.3h-2.1z"/><path id="XMLID_2557_" class="st12" fill="#EBCB00" d="M17.9 8.2H20v4.3h-2.1z"/><path id="XMLID_2556_" class="st10" d="M16.8 15.1c-.6 0-1.1-.5-1.1-1.1V9.2c0-.6.5-1.1 1.1-1.1.6 0 1.1.5 1.1 1.1V14c0 .6-.5 1.1-1.1 1.1z" fill="none" stroke="#45413C" stroke-linecap="round" stroke-linejoin="round" stroke-miterlimit="10"/><path id="XMLID_2555_" class="st10" fill="none" stroke="#45413C" stroke-linecap="round" stroke-linejoin="round" stroke-miterlimit="10" d="M17.9 8.2H20v13.3h-2.1z"/><ellipse id="XMLID_2554_" class="st5" cx="22.7" cy="43.6" rx="12.2" ry="1.6" fill="#45413C" opacity="0.15"/><path id="XMLID_2553_" class="st41" d="M43.4 29.7c0 6-9.3 10.9-20.8 10.9S1.8 35.7 1.8 29.7s9.3-10.4 20.8-10.4 20.8 4.4 20.8 10.4z" fill="#F0F0F0"/><path id="XMLID_2552_" class="st17" d="M22.7 22.7c10.4 0 18.9 3.6 20.5 8.7.2-.6.3-1.1.3-1.7 0-6-9.3-10.4-20.8-10.4S1.9 23.7 1.9 29.7c0 .6.1 1.1.3 1.7 1.5-5.1 10.1-8.7 20.5-8.7z" fill="#FFF"/><path id="XMLID_2551_" class="st10" d="M43.4 29.7c0 6-9.3 10.9-20.8 10.9S1.8 35.7 1.8 29.7s9.3-10.4 20.8-10.4 20.8 4.4 20.8 10.4z" fill="none" stroke="#45413C" stroke-linecap="round" stroke-linejoin="round" stroke-miterlimit="10"/><path id="XMLID_2550_" class="st11" d="M37 27.4c0 4.3-6.4 7.9-14.4 7.9S8.3 31.8 8.3 27.4s6.4-9.7 14.4-9.7S37 23.1 37 27.4z" fill="#FFE500"/><path id="XMLID_2549_" class="st45" d="M22.7 20.4c7.1 0 13 4.3 14.2 8.3.1-.4.2-.9.2-1.3 0-4.4-6.4-9.7-14.4-9.7S8.3 23.1 8.3 27.4c0 .4.1.9.2 1.3 1.2-4 7-8.3 14.2-8.3z" fill="#FFF48C"/><path id="XMLID_2548_" class="st10" d="M37 27.4c0 4.3-6.4 7.9-14.4 7.9S8.3 31.8 8.3 27.4s6.4-9.7 14.4-9.7S37 23.1 37 27.4z" fill="none" stroke="#45413C" stroke-linecap="round" stroke-linejoin="round" stroke-miterlimit="10"/><path id="XMLID_2547_" class="st46" d="M10 31.1l-.1-.6s-.7-5 3.7-7.5" fill="#FFE500" stroke="#45413C" stroke-linecap="round" stroke-linejoin="round" stroke-miterlimit="10"/><path id="XMLID_2546_" class="st10" d="M12 32.7c0-.1-1.2-5.6 3.2-8.1 0 0-2 6.1 2.4 7.6" fill="none" stroke="#45413C" stroke-linecap="round" stroke-linejoin="round" stroke-miterlimit="10"/><path id="XMLID_2545_" class="st10" d="M14.2 33.7s3.4.4 4.8-3.7-1.1-7.5-1.1-7.5" fill="none" stroke="#45413C" stroke-linecap="round" stroke-linejoin="round" stroke-miterlimit="10"/><path id="XMLID_2544_" class="st10" d="M17.9 34.8s3.5-.6 4.8-4.8-.5-8.5-.5-8.5" fill="none" stroke="#45413C" stroke-linecap="round" stroke-linejoin="round" stroke-miterlimit="10"/><path id="XMLID_2543_" class="st10" d="M23.2 27.3s2.3 2.6 6.2 2.7" fill="none" stroke="#45413C" stroke-linecap="round" stroke-linejoin="round" stroke-miterlimit="10"/><path id="XMLID_2542_" class="st10" d="M34.9 31.6s1-2.2 0-4.8-3.7-3.2-3.7-3.2c2 3.1 1.5 10.6-3.7 11.2-5.2.5-4.8-4.3-4.8-4.3 2.1 2.9 6 2.4 6.9-1.1.9-3.4-1.1-5.3-1.1-5.3" fill="none" stroke="#45413C" stroke-linecap="round" stroke-linejoin="round" stroke-miterlimit="10"/><path id="XMLID_2541_" class="st57" d="M23.2 16.7c-8.1 0-10.9 3.5-11.2 5.9s1.9 3.7 4.3 3.2 2.8 3.5 8 3.2c5.2-.3 4.1-3.2 7.5-4.3 2.1-.7 3.9-2.7 1.1-4.8-2.1-1.5-4.5-3.2-9.7-3.2z" fill="#FF6242"/><path id="XMLID_2540_" class="st62" d="M23.2 18.8c5.2 0 7.6 1.8 9.6 3.2.5.4.9.8 1.1 1.1.6-.9.5-2.1-1.1-3.3-1.9-1.4-4.3-3.2-9.6-3.2-8.1 0-10.9 3.5-11.2 5.9-.1.5 0 1 .2 1.5.7-2.3 3.7-5.2 11-5.2z" fill="#FF866E"/><path id="XMLID_2539_" class="st10" d="M23.2 16.7c-8.1 0-10.9 3.5-11.2 5.9s1.9 3.7 4.3 3.2 2.8 3.5 8 3.2c5.2-.3 4.1-3.2 7.5-4.3 2.1-.7 3.9-2.7 1.1-4.8-2.1-1.5-4.5-3.2-9.7-3.2z" fill="none" stroke="#45413C" stroke-linecap="round" stroke-linejoin="round" stroke-miterlimit="10"/><path id="XMLID_2538_" class="st11" d="M16.3 10.3c-.6 0-1.1-.5-1.1-1.1V4.4c0-.6.5-1.1 1.1-1.1.6 0 1.1.5 1.1 1.1v4.8c-.1.6-.5 1.1-1.1 1.1z" fill="#FFE500"/><path id="XMLID_2537_" class="st11" d="M18.4 10.3c-.6 0-1.1-.5-1.1-1.1V4.4c0-.6.5-1.1 1.1-1.1.6 0 1.1.5 1.1 1.1v4.8c0 .6-.5 1.1-1.1 1.1z" fill="#FFE500"/><path id="XMLID_1146_" class="st11" d="M20.5 10.3c-.6 0-1.1-.5-1.1-1.1V3.9c0-.6.5-1.1 1.1-1.1.6 0 1.1.5 1.1 1.1v5.3c0 .6-.5 1.1-1.1 1.1z" fill="#FFE500"/><path id="XMLID_1145_" class="st11" d="M14.3 9.8H14c-.5 0-.9-.4-.9-.9v-4c0-.5.4-.9.9-.9h.2c.5 0 .9.4.9.9v4c.1.4-.3.9-.8.9z" fill="#FFE500"/><path id="XMLID_1144_" class="st45" d="M16.3 3.4c-.6 0-1.1.5-1.1 1.1v2.1c0-.6.5-1.1 1.1-1.1.6 0 1.1.5 1.1 1.1V4.4c-.1-.6-.5-1-1.1-1z" fill="#FFF48C"/><path id="XMLID_1143_" class="st45" d="M18.4 3.4c-.6 0-1.1.5-1.1 1.1v2.1c0-.6.5-1.1 1.1-1.1s1.1.5 1.1 1.1V4.4c0-.6-.5-1-1.1-1z" fill="#FFF48C"/><path id="XMLID_1142_" class="st45" d="M20.5 2.8c-.6 0-1.1.5-1.1 1.1V6c0-.6.5-1.1 1.1-1.1s1.1.5 1.1 1.1V3.9c0-.6-.5-1.1-1.1-1.1z" fill="#FFF48C"/><path id="XMLID_1141_" class="st45" d="M14.3 3.9H14c-.5 0-.9.4-.9.9v2.1c0-.5.4-.9.9-.9h.2c.5 0 .9.4.9.9V4.8c.1-.5-.3-.9-.8-.9z" fill="#FFF48C"/><path id="XMLID_1140_" class="st10" d="M16.3 10.3c-.6 0-1.1-.5-1.1-1.1V4.4c0-.6.5-1.1 1.1-1.1.6 0 1.1.5 1.1 1.1v4.8c-.1.6-.5 1.1-1.1 1.1z" fill="none" stroke="#45413C" stroke-linecap="round" stroke-linejoin="round" stroke-miterlimit="10"/><path id="XMLID_1139_" class="st10" d="M18.4 10.3c-.6 0-1.1-.5-1.1-1.1V4.4c0-.6.5-1.1 1.1-1.1.6 0 1.1.5 1.1 1.1v4.8c0 .6-.5 1.1-1.1 1.1z" fill="none" stroke="#45413C" stroke-linecap="round" stroke-linejoin="round" stroke-miterlimit="10"/><path id="XMLID_1138_" class="st10" d="M20.5 10.3c-.6 0-1.1-.5-1.1-1.1V3.9c0-.6.5-1.1 1.1-1.1.6 0 1.1.5 1.1 1.1v5.3c0 .6-.5 1.1-1.1 1.1z" fill="none" stroke="#45413C" stroke-linecap="round" stroke-linejoin="round" stroke-miterlimit="10"/><path id="XMLID_1137_" class="st10" d="M14.3 9.8H14c-.5 0-.9-.4-.9-.9v-4c0-.5.4-.9.9-.9h.2c.5 0 .9.4.9.9v4c.1.4-.3.9-.8.9z" fill="none" stroke="#45413C" stroke-linecap="round" stroke-linejoin="round" stroke-miterlimit="10"/><path id="XMLID_1128_" class="st37" d="M19.8 22.7l-2.1-.4c-.3 0-.5-.3-.4-.6l.3-1.6c0-.3.3-.5.6-.4l2.1.4c.3 0 .5.3.4.6l-.3 1.6c-.1.3-.3.4-.6.4z" fill="#BF8256"/><path id="XMLID_1135_" class="st38" d="M17.4 22.2l.1-.7c0-.3.3-.5.6-.4l2.1.4c.1 0 .2.1.3.2l.1-.9c0-.3-.1-.6-.4-.6l-2.1-.4c-.3 0-.6.1-.6.4l-.3 1.6c0 .1.1.3.2.4z" fill="#DEA47A"/><path id="XMLID_1127_" class="st10" d="M19.8 22.7l-2.1-.4c-.3 0-.5-.3-.4-.6l.3-1.6c0-.3.3-.5.6-.4l2.1.4c.3 0 .5.3.4.6l-.3 1.6c-.1.3-.3.4-.6.4z" fill="none" stroke="#45413C" stroke-linecap="round" stroke-linejoin="round" stroke-miterlimit="10"/><path id="XMLID_1126_" class="st37" d="M27.6 24.3l-2 .8c-.3.1-.6 0-.7-.3l-.6-1.5c-.1-.3 0-.6.3-.7l2-.8c.3-.1.6 0 .7.3l.6 1.5c.1.3 0 .6-.3.7z" fill="#BF8256"/><path id="XMLID_1132_" class="st38" d="M24.7 24.3l1.9-.8c.3-.1.6 0 .7.3l.3.6h.1c.3-.1.4-.4.3-.7l-.6-1.5c-.1-.3-.4-.4-.7-.3l-2 .8c-.3.1-.4.4-.3.7l.3.9z" fill="#DEA47A"/><path id="XMLID_1125_" class="st10" d="M27.6 24.3l-2 .8c-.3.1-.6 0-.7-.3l-.6-1.5c-.1-.3 0-.6.3-.7l2-.8c.3-.1.6 0 .7.3l.6 1.5c.1.3 0 .6-.3.7z" fill="none" stroke="#45413C" stroke-linecap="round" stroke-linejoin="round" stroke-miterlimit="10"/><path id="XMLID_1123_" class="st37" d="M25.1 19.1l-1.3-1.7c-.2-.2-.1-.6.1-.7l1.3-1c.2-.2.6-.1.7.1l1.3 1.7c.2.2.1.6-.1.7l-1.3 1c-.2.2-.5.2-.7-.1z" fill="#BF8256"/><path id="XMLID_1129_" class="st38" d="M24.3 18l.9-.7c.2-.2.6-.1.7.1l.8 1.1.3-.3c.2-.2.3-.5.1-.7L26 15.8c-.2-.2-.5-.3-.7-.1l-1.3 1c-.2.2-.3.5-.1.7l.4.6z" fill="#DEA47A"/><path id="XMLID_1121_" class="st10" d="M25.1 19.1l-1.3-1.7c-.2-.2-.1-.6.1-.7l1.3-1c.2-.2.6-.1.7.1l1.3 1.7c.2.2.1.6-.1.7l-1.3 1c-.2.2-.5.2-.7-.1z" fill="none" stroke="#45413C" stroke-linecap="round" stroke-linejoin="round" stroke-miterlimit="10"/></g></g><metadata><rdf:RDF xmlns:rdf="http://www.w3.org/1999/02/22-rdf-syntax-ns#" xmlns:rdfs="http://www.w3.org/2000/01/rdf-schema#" xmlns:dc="http://purl.org/dc/elements/1.1/"><rdf:Description about="https://iconscout.com/legal#licenses" dc:title="spaghetti,pasta,noodle,food,fork" dc:description="spaghetti,pasta,noodle,food,fork" dc:publisher="Iconscout" dc:date="2017-09-21" dc:format="image/svg+xml" dc:language="en"><dc:creator><rdf:Bag><rdf:li>Vincent Le Moign</rdf:li></rdf:Bag></dc:creator></rdf:Description></rdf:RDF></metadata></svg>