<svg xmlns="http://www.w3.org/2000/svg" width="32" height="32" viewBox="0 0 32 32" id="AmbulanceIcon"><g stroke="#0572e4" transform="translate(0 -1018.361)"><path fill="#cdcccd" stroke="none" d="m 3.943543,1043.8622 -3.44354363,0 0,-3 30.99999463,0 0,3 -4.374995,0 m -4.21875,0 -14.7303285,0"></path><path fill="#ec7bb0" stroke="none" d="m 14.49995,1026.7819 0,-0.9197 c 0,-0.554 0.446,-1 1,-1 0.554,0 1,0.446 1,1 l 0,0.9197"></path><path fill="#f2f2f2" stroke="none" d="m 19.364212,1028.8875 4.635786,0 c 1.939,0 3.5,1.561 3.5,3.5 l 0,1.9747 0,1.5 1.500002,0 c 1.385,0 2.5,1.115 2.5,2.5 l 0,2.5155 -12.067894,0.01 z"></path><rect width="19" height="14" x=".5" y="1026.862" fill="#f2f2f2" stroke="none"></rect><circle cx="6" cy="1045.362" r="2.5" fill="#8a7988" stroke="none"></circle><circle cx="25" cy="1045.362" r="2.5" fill="#8a7988" stroke="none"></circle><path fill="#92d9f7" fill-rule="evenodd" stroke="none" d="m 25.499998,1034.831 -4,0 0,-3.9688 0.505885,0 1.494115,0 c 1.215265,0 2.005885,0.7768 2.005885,1.991 l 0,1.4369 z"></path><circle cx="6" cy="1045.362" r=".5" fill="#62355c" stroke="none"></circle><circle cx="25" cy="1045.362" r=".5" fill="#62355c" stroke="none"></circle><path fill="#ec7bb0" stroke="none" d="m 9.5,1030.8622 0,2 -2,0 0,2 2,0 0,2 2,0 0,-2 2,0 0,-2 -2,0 0,-2 -2,0 z"></path><path fill="#62355c" stroke="none" style="line-height:normal;text-indent:0;text-align:start;text-decoration-line:none;text-decoration-style:solid;text-decoration-color:#000;text-transform:none;block-progression:tb;isolation:auto;mix-blend-mode:normal" d="M -206.50781,505.80664 A 0.50005,0.50005 0 0 0 -207,506.31445 l 0,1 a 0.50005,0.50005 0 1 0 1,0 l 0,-1 a 0.50005,0.50005 0 0 0 -0.50781,-0.50781 z m -2.70899,1.29688 a 0.50005,0.50005 0 0 0 -0.34961,0.85937 l 0.70703,0.70703 a 0.50005,0.50005 0 1 0 0.70704,-0.70703 l -0.70704,-0.70703 a 0.50005,0.50005 0 0 0 -0.35742,-0.15234 z m 5.41992,0 a 0.50005,0.50005 0 0 0 -0.34374,0.15234 l -0.70704,0.70703 a 0.50005,0.50005 0 1 0 0.70704,0.70703 l 0.70703,-0.70703 a 0.50005,0.50005 0 0 0 -0.36329,-0.85937 z m -2.70312,1.71679 c -0.82235,0 -1.5,0.6777 -1.5,1.5 l 0,0.5 -13.5,0 a 0.50005,0.50005 0 0 0 -0.5,0.5 l 0,14 0,3 a 0.50004997,0.50004997 0 0 0 0.5,0.5 l 2.68555,0 c -0.11276,0.31471 -0.18555,0.64761 -0.18555,1 0,1.651 1.34907,3 3,3 1.65093,0 3,-1.349 3,-3 0,-0.35239 -0.0728,-0.68529 -0.18555,-1 l 13.3711,0 c -0.11276,0.31471 -0.18555,0.64761 -0.18555,1 0,1.651 1.34907,3 3,3 1.65093,0 3,-1.349 3,-3 0,-0.35239 -0.0728,-0.68529 -0.18555,-1 l 3.68555,0 a 0.50004997,0.50004997 0 0 0 0.5,-0.5 l 0,-3 0,-2.5 c 0,-1.6533 -1.34665,-3 -3,-3 l -1,0 0,-1 0,-1.97461 c 0,-2.2073 -1.79265,-4 -4,-4 l -4,0 0,-1.52539 a 0.50005,0.50005 0 0 0 -0.5,-0.5 l -2.5,0 0,-0.5 c 0,-0.8223 -0.67765,-1.5 -1.5,-1.5 z m 0,1 c 0.28565,0 0.5,0.2144 0.5,0.5 l 0,0.5 -1,0 0,-0.5 c 0,-0.2856 0.21435,-0.5 0.5,-0.5 z m -14.5,2 18,0 0,13 -18,0 0,-1 1.50781,0 a 0.50005,0.50005 0 1 0 0,-1 l -1.50781,0 0,-11 z m 19,2.02539 4,0 c 1.67065,0 3,1.3294 3,3 l 0,1.97461 0,2 2,0 c 1.11665,0 2,0.8834 2,2 l -1.50781,0 a 0.50005,0.50005 0 1 0 0,1 l 1.50781,0 0,1 -11,0 0,-10.97461 z m -10.5,0.97461 a 0.50005,0.50005 0 0 0 -0.5,0.5 l 0,1.5 -1.5,0 a 0.50005,0.50005 0 0 0 -0.5,0.5 l 0,2 a 0.50005,0.50005 0 0 0 0.5,0.5 l 1.5,0 0,1.5 a 0.50005,0.50005 0 0 0 0.5,0.5 l 2,0 a 0.50005,0.50005 0 0 0 0.5,-0.5 l 0,-1.5 1.5,0 a 0.50005,0.50005 0 0 0 0.5,-0.5 l 0,-2 a 0.50005,0.50005 0 0 0 -0.5,-0.5 l -1.5,0 0,-1.5 a 0.50005,0.50005 0 0 0 -0.5,-0.5 l -2,0 z m 11.5,0 0,4.96875 4.99414,0 0.006,-0.49414 0.006,-0.54297 0,-1.43945 c 0,-0.7156 -0.24231,-1.35834 -0.69531,-1.80664 -0.453,-0.4484 -1.09638,-0.68555 -1.81055,-0.68555 l -1.49414,0 -1.00586,0 z m -11,1 1,0 0,1.5 a 0.50005,0.50005 0 0 0 0.5,0.5 l 1.5,0 0,1 -1.5,0 a 0.50005,0.50005 0 0 0 -0.5,0.5 l 0,1.5 -1,0 0,-1.5 a 0.50005,0.50005 0 0 0 -0.5,-0.5 l -1.5,0 0,-1 1.5,0 a 0.50005,0.50005 0 0 0 0.5,-0.5 l 0,-1.5 z m 12,0 0.006,0 1.49414,0 c 0.5011,0 0.8613,0.15289 1.10742,0.39649 0.24613,0.2436 0.39844,0.5971 0.39844,1.0957 l 0,1.43359 0,0.043 -3.00586,0 0,-2.96875 z m -0.5,5 a 0.50005,0.50005 0 1 0 0,1 l 1,0 a 0.50005,0.50005 0 1 0 0,-1 l -1,0 z m -20.5,5 18.5,0 11.5,0 0,1.51563 0,0.48437 -3.7832,0 c -0.54991,-0.60866 -1.33625,-1 -2.2168,-1 -0.88055,0 -1.66689,0.39134 -2.2168,1 l -14.5664,0 c -0.54991,-0.60866 -1.33625,-1 -2.2168,-1 -0.88055,0 -1.66689,0.39134 -2.2168,1 l -2.7832,0 0,-2 z m 5,2 c 1.11049,0 2,0.8895 2,2 0,1.1105 -0.88951,2 -2,2 -1.11049,0 -2,-0.8895 -2,-2 0,-1.1105 0.88951,-2 2,-2 z m 19,0 c 1.11049,0 2,0.8895 2,2 0,1.1105 -0.88951,2 -2,2 -1.11049,0 -2,-0.8895 -2,-2 0,-1.1105 0.88951,-2 2,-2 z" color="#000" font-family="sans-serif" font-weight="400" overflow="visible" transform="translate(222 515.54)" white-space="normal"></path></g></svg>