<svg xmlns="http://www.w3.org/2000/svg" viewBox="0 0 32 32"><path fill="#58565d" d="M31.5,4.325v23.35a1,1,0,0,1-.81.98178l-14.5,2.80645a.99972.99972,0,0,1-.38,0L1.31,28.65677A1,1,0,0,1,.5,27.675V4.325a1,1,0,0,1,.81-.98178L15.81.53678a.99972.99972,0,0,1,.38,0l14.5,2.80645A1,1,0,0,1,31.5,4.325Z"/><path fill="#2c2b2d" d="M15.99951,31.98145a1.49908,1.49908,0,0,1-.2832-.02686L1.21484,29.14746A1.502,1.502,0,0,1,0,27.6748V4.3252A1.502,1.502,0,0,1,1.21533,2.85254L15.71484.0459a1.50607,1.50607,0,0,1,.56885-.00049L30.78516,2.85254A1.502,1.502,0,0,1,32,4.3252V27.6748a1.502,1.502,0,0,1-1.21533,1.47266L16.28516,31.9541A1.52927,1.52927,0,0,1,15.99951,31.98145Zm.001-30.9629a.49863.49863,0,0,0-.09668.00928L1.40527,3.834A.501.501,0,0,0,1,4.3252V27.6748a.501.501,0,0,0,.40479.49122l14.50048,2.80664a.5123.5123,0,0,0,.19092-.00049L30.59473,28.166A.501.501,0,0,0,31,27.6748V4.3252a.501.501,0,0,0-.40479-.49122L16.09473,1.02734A.50512.50512,0,0,0,16.00049,1.01855Z"/><polygon fill="#fdd402" points="31.5 10.5 16 8.5 .5 10.5 .5 7.5 16 5.5 31.5 7.5 31.5 10.5"/><path fill="#2c2b2d" d="M31.5,11a.56016.56016,0,0,1-.064-.00391L16,9.00391.564,10.99609a.51281.51281,0,0,1-.394-.1206A.50027.50027,0,0,1,0,10.5v-3a.50006.50006,0,0,1,.436-.49609l15.5-2a.55955.55955,0,0,1,.12792,0l15.5,2A.50006.50006,0,0,1,32,7.5v3a.50013.50013,0,0,1-.5.5ZM16,8a.5534.5534,0,0,1,.064.00391L31,9.93115V7.93945L16,6.00391,1,7.93945v1.9917L15.936,8.00391A.5534.5534,0,0,1,16,8Z"/><path fill="#8b8891" d="M.5,25.5l15.5,3,15.5-3v2.175a1,1,0,0,1-.81.98178l-14.5,2.80645a.99972.99972,0,0,1-.38,0L1.31,28.65677A1,1,0,0,1,.5,27.675Z"/><path fill="#2c2b2d" d="M16,32a.49971.49971,0,0,1-.5-.5V.5a.5.5,0,0,1,1,0v31A.49971.49971,0,0,1,16,32Z"/><polygon fill="#fdd402" points="4.5 15.5 14 14.5 14 11.5 4.5 12.5 4.5 15.5"/><path fill="#2c2b2d" d="M4.5,16a.50014.50014,0,0,1-.5-.5v-3a.49968.49968,0,0,1,.44775-.49707l9.5-1A.49983.49983,0,0,1,14.5,11.5v3a.49968.49968,0,0,1-.44775.49707l-9.5,1A.46924.46924,0,0,1,4.5,16ZM5,12.9502v1.99462l8.5-.895V12.05518Z"/><polygon fill="#fdd402" points=".5 12.92 2.5 12.71 2.5 15.71 .5 15.92 .5 12.92"/><path fill="#2c2b2d" d="M.5,16.41992a.50014.50014,0,0,1-.5-.5v-3a.49968.49968,0,0,1,.44775-.49707l2-.21A.49983.49983,0,0,1,3,12.71v3a.49968.49968,0,0,1-.44775.49707l-2,.21A.47345.47345,0,0,1,.5,16.41992Zm.5-3.0498v1.99463l1-.105V13.26514Z"/><polyline fill="#afaeb3" points="24.5 26.855 24.5 12.206 18 11.5 18 28.11"/><path fill="#2c2b2d" d="M18,28.60986a.49971.49971,0,0,1-.5-.5V11.5a.50027.50027,0,0,1,.166-.37207.4851.4851,0,0,1,.38818-.125l6.5.70605A.49984.49984,0,0,1,25,12.20605V26.855a.5.5,0,0,1-1,0V12.65479l-5.5-.59766V28.10986A.49971.49971,0,0,1,18,28.60986Z"/><polygon fill="#fdd402" points="26.5 12.39 26.5 15.39 31.5 15.92 31.5 12.92 26.5 12.39"/><path fill="#2c2b2d" d="M31.5 16.41992a.47529.47529 0 0 1-.05273-.00293l-5-.52978A.49961.49961 0 0 1 26 15.39014v-3a.49956.49956 0 0 1 .16553-.37159.50465.50465 0 0 1 .3872-.12548l5 .52978A.49961.49961 0 0 1 32 12.91992v3a.50014.50014 0 0 1-.5.5zM27 14.94043l4 .42383V13.36963l-4-.42383zM15.99951 31.98145a1.49908 1.49908 0 0 1-.2832-.02686L1.21484 29.14746A1.502 1.502 0 0 1 0 27.6748V25.5a.49956.49956 0 0 1 .59521-.49072L16 27.99072l15.40479-2.98144A.49956.49956 0 0 1 32 25.5v2.1748a1.502 1.502 0 0 1-1.21533 1.47266L16.28516 31.9541A1.52927 1.52927 0 0 1 15.99951 31.98145zM1 26.106V27.6748a.501.501 0 0 0 .40479.49122l14.50048 2.80664a.5123.5123 0 0 0 .19092-.00049L30.59473 28.166A.501.501 0 0 0 31 27.6748V26.106L16.09521 28.99072a.48061.48061 0 0 1-.19042 0z"/></svg>
