<svg width="13px" height="13px" viewBox="0 0 13 13" version="1.1" xmlns="http://www.w3.org/2000/svg" id="MiniSearchIcon">
    <title>MiniSearch</title>
    <g stroke="none" stroke-width="1" fill="none" fill-rule="evenodd">
        <g transform="translate(-1244.000000, -169.000000)" fill="#424242">
            <g transform="translate(928.000000, 156.000000)">
                <path d="M328.823204,24.2393321 L326.291573,21.708134 C326.177307,21.5938873 326.022413,21.530417 325.859901,21.530417 L325.446003,21.530417 C326.146836,20.6342154 326.563273,19.5069817 326.563273,18.2807343 C326.563273,15.3636364 324.199233,13 321.281636,13 C318.36404,13 316,15.3636364 316,18.2807343 C316,21.1978322 318.36404,23.5614686 321.281636,23.5614686 C322.508093,23.5614686 323.635519,23.145103 324.531874,22.4443902 L324.531874,22.858217 C324.531874,23.0207011 324.595355,23.1755688 324.709621,23.2898154 L327.241252,25.8210136 C327.479941,26.0596621 327.865907,26.0596621 328.102057,25.8210136 L328.820664,25.102529 C329.059354,24.8638805 329.059354,24.4779807 328.823204,24.2393321 Z M321.281636,21.530417 C319.486388,21.530417 318.031399,20.078215 318.031399,18.2807343 C318.031399,16.4857924 319.483849,15.0310517 321.281636,15.0310517 C323.076885,15.0310517 324.531874,16.4832536 324.531874,18.2807343 C324.531874,20.0756762 323.079424,21.530417 321.281636,21.530417 Z" id="Shape"></path>
            </g>
        </g>
    </g>
</svg>
