<svg xmlns="http://www.w3.org/2000/svg" version="1.1" x="0px" y="0px" viewBox="0 0 48 48" xml space="preserve" id="EyeIcon"><style type="text/css"></style><symbol id="New_Symbol_14" viewBox="-6.5 -6.5 13 13"><path class="st0" d="M0-6c2.2 0 4.1 1.5 4.7 3.5C6.3-2.5 6.4 0 5 0v1c0 2.8-2.2 5-5 5s-5-2.2-5-5V0c-1.4 0-1.3-2.5.2-2.5C-4.1-4.5-2.2-6 0-6z" fill="#FFD4C3" stroke="#504B46" stroke-linecap="round" stroke-linejoin="round" stroke-miterlimit="10"></path><circle class="st1" cx="-1.6" cy="-0.1" r="0.1" fill="#FFC258"></circle><path class="st2" d="M-1.6.5c-.3 0-.6-.3-.6-.6s.2-.7.6-.7c.3 0 .6.3.6.7s-.3.6-.6.6z" fill="#4F4B45"></path><circle class="st1" cx="1.6" cy="-0.1" r="0.1" fill="#FFC258"></circle><path class="st2" d="M1.6.5C1.3.5 1 .2 1-.1s.3-.6.6-.6.6.3.6.6-.2.6-.6.6z" fill="#4F4B45"></path><circle class="st3" cx="-3" cy="-1.5" r="0.5" fill="#FABFA5"></circle><circle class="st3" cx="3" cy="-1.5" r="0.5" fill="#FABFA5"></circle><path class="st4" d="M-1.2-3c.8-.5 1.7-.5 2.5 0" fill="none" stroke="#504B46" stroke-linecap="round" stroke-linejoin="round" stroke-miterlimit="10"></path></symbol><g id="Icons"><g id="XMLID_1869_"><ellipse id="XMLID_6799_" class="st5" cx="24" cy="38.2" rx="13.6" ry="1.9" fill="#45413C" opacity="0.15"></ellipse><path id="XMLID_656_" class="st17" d="M45.8 20c0 3.7-8 12.1-21.8 12.1S2.2 23.8 2.2 20 10.1 8 24 8s21.8 8.3 21.8 12z" fill="#FFF"></path><path id="XMLID_612_" class="st75" d="M24 13.8c10.9 0 18.1 5.1 20.7 9.1.7-1.1 1.1-2.1 1.1-2.9 0-3.7-7.9-12-21.8-12S2.2 16.3 2.2 20c0 .8.4 1.8 1.1 2.9 2.6-3.9 9.8-9.1 20.7-9.1z" fill="#E0E0E0"></path><path id="XMLID_586_" class="st10" d="M45.8 20c0 3.7-8 12.1-21.8 12.1S2.2 23.8 2.2 20 10.1 8 24 8s21.8 8.3 21.8 12z" fill="none" stroke="#45413C" stroke-linecap="round" stroke-linejoin="round" stroke-miterlimit="10"></path><path id="XMLID_554_" class="st77" d="M24 10.8c13.1 0 20.7 8.2 20.8 12 .7-1.1 1-2 1-2.8 0-3.7-7.9-12-21.8-12S2.2 16.3 2.2 20c0 .8.3 1.7 1 2.8.1-3.7 7.7-12 20.8-12z" fill="#656769" stroke="#45413C" stroke-linecap="round" stroke-linejoin="round" stroke-miterlimit="10"></path><circle id="XMLID_521_" class="st66" cx="24" cy="20" r="9" fill="#B89558"></circle><path id="XMLID_520_" class="st119" d="M30.2 13.6c1.1 1.4 1.8 3.2 1.8 5.1 0 4.4-3.6 8.1-8.1 8.1s-8.1-3.6-8.1-8.1c0-1.9.7-3.7 1.8-5.1-1.5 1.6-2.6 3.9-2.6 6.4 0 5 4 9 9 9s9-4 9-9c0-2.5-1.1-4.8-2.8-6.4z" fill="#947746"></path><circle id="XMLID_519_" class="st10" cx="24" cy="20" r="9" fill="none" stroke="#45413C" stroke-linecap="round" stroke-linejoin="round" stroke-miterlimit="10"></circle><circle id="XMLID_518_" class="st120" cx="24" cy="20" r="4" fill="#525252" stroke="#45413C" stroke-linecap="round" stroke-linejoin="round" stroke-miterlimit="10"></circle><circle id="XMLID_517_" class="st15" cx="20.6" cy="15.8" r="3.1" fill="#FFF" stroke="#45413C" stroke-linecap="round" stroke-linejoin="round" stroke-miterlimit="10"></circle></g></g></svg>
