<svg xmlns="http://www.w3.org/2000/svg" version="1.1" x="0px" y="0px" viewBox="0 0 48 48" xml space="preserve" id="IcecreamIcon"><style type="text/css"></style><symbol id="New_Symbol_14" viewBox="-6.5 -6.5 13 13"><path class="st0" d="M0-6c2.2 0 4.1 1.5 4.7 3.5C6.3-2.5 6.4 0 5 0v1c0 2.8-2.2 5-5 5s-5-2.2-5-5V0c-1.4 0-1.3-2.5.2-2.5C-4.1-4.5-2.2-6 0-6z" fill="#FFD4C3" stroke="#504B46" stroke-linecap="round" stroke-linejoin="round" stroke-miterlimit="10"></path><circle class="st1" cx="-1.6" cy="-0.1" r="0.1" fill="#FFC258"></circle><path class="st2" d="M-1.6.5c-.3 0-.6-.3-.6-.6s.2-.7.6-.7c.3 0 .6.3.6.7s-.3.6-.6.6z" fill="#4F4B45"></path><circle class="st1" cx="1.6" cy="-0.1" r="0.1" fill="#FFC258"></circle><path class="st2" d="M1.6.5C1.3.5 1 .2 1-.1s.3-.6.6-.6.6.3.6.6-.2.6-.6.6z" fill="#4F4B45"></path><circle class="st3" cx="-3" cy="-1.5" r="0.5" fill="#FABFA5"></circle><circle class="st3" cx="3" cy="-1.5" r="0.5" fill="#FABFA5"></circle><path class="st4" d="M-1.2-3c.8-.5 1.7-.5 2.5 0" fill="none" stroke="#504B46" stroke-linecap="round" stroke-linejoin="round" stroke-miterlimit="10"></path></symbol><g id="Icons"><g id="XMLID_1886_"><ellipse id="XMLID_1741_" class="st5" cx="24" cy="45.3" rx="14.5" ry="1.5" fill="#45413C" opacity="0.15"></ellipse><g id="XMLID_1767_"><g id="XMLID_1777_"><g id="XMLID_1786_"><path id="XMLID_1747_" class="st65" d="M35.9 18.8c.5-.7.7-1.6.6-2.6-.2-2.2-2.1-3.8-4.3-3.8h-1c.9-.7 1.5-1.8 1.5-3 0-2.1-1.7-3.8-3.8-3.8-2 0-8.1.7-6.9-3.4.2-.6-.3-1.1-.9-1-2.8.7-5.9 3.6-5.9 8.2 0 1.2.6 2.3 1.5 3h-1c-2.2 0-4.1 1.6-4.3 3.8-.1.9.2 1.8.6 2.6-3.1.9-5.3 3.9-5.2 7.3.2 3.9 3.6 6.8 7.5 6.8h19.2c3.9 0 7.3-3 7.5-6.8.2-3.5-2-6.4-5.1-7.3z" fill="#FFFEF2"></path><path id="XMLID_1746_" class="st17" d="M11.1 28.2c-.2-3.4 2.1-6.4 5.2-7.3-.5-.7-.7-1.6-.6-2.6.2-2.2 2.1-3.8 4.3-3.8h1c-.9-.7-1.5-1.8-1.5-3 0-3.1 1.4-5.4 3.1-6.8-.6-.5-.9-1.3-.6-2.5.2-.6-.3-1.1-.9-1-2.8.7-5.9 3.6-5.9 8.2 0 1.2.6 2.3 1.5 3h-1c-2.2 0-4.1 1.6-4.3 3.8-.1.9.2 1.8.6 2.6-3.1.9-5.3 3.9-5.2 7.3.2 3.5 2.9 6.2 6.3 6.7-1.1-1.2-1.9-2.8-2-4.6z" fill="#FFF"></path><path id="XMLID_1745_" class="st10" d="M35.9 18.8c.5-.7.7-1.6.6-2.6-.2-2.2-2.1-3.8-4.3-3.8h-1c.9-.7 1.5-1.8 1.5-3 0-2.1-1.7-3.8-3.8-3.8-2 0-8.1.7-6.9-3.4.2-.6-.3-1.1-.9-1-2.8.7-5.9 3.6-5.9 8.2 0 1.2.6 2.3 1.5 3h-1c-2.2 0-4.1 1.6-4.3 3.8-.1.9.2 1.8.6 2.6-3.1.9-5.3 3.9-5.2 7.3.2 3.9 3.6 6.8 7.5 6.8h19.2c3.9 0 7.3-3 7.5-6.8.2-3.5-2-6.4-5.1-7.3z" fill="none" stroke="#45413C" stroke-linecap="round" stroke-linejoin="round" stroke-miterlimit="10"></path></g><g id="XMLID_1778_"><ellipse id="XMLID_1744_" class="st45" cx="17.5" cy="21.2" rx="1.1" ry="0.8" fill="#FFF48C"></ellipse><g id="XMLID_1782_"><path id="XMLID_1743_" class="st21" d="M26.9 23c.5 0 .9.5.7.9-.4 1.6-1.9 2.8-3.7 2.8s-3.3-1.2-3.7-2.8c-.1-.5.2-.9.7-.9h6z" fill="#FFB0CA" stroke="#45413C" stroke-linecap="round" stroke-linejoin="round" stroke-miterlimit="10"></path><path id="XMLID_1740_" class="st22" d="M24 26.8c1.2 0 2.3-.6 3-1.5-.8-.5-1.8-.8-3-.8s-2.2.3-3 .8c.7 1 1.8 1.5 3 1.5z" fill="#FF87AF" stroke="#45413C" stroke-linecap="round" stroke-linejoin="round" stroke-miterlimit="10"></path></g><path id="XMLID_1684_" class="st10" d="M17.2 19.6c0-.6.5-1.1 1.1-1.1.6 0 1.1.5 1.1 1.1" fill="none" stroke="#45413C" stroke-linecap="round" stroke-linejoin="round" stroke-miterlimit="10"></path><ellipse id="XMLID_1683_" class="st45" cx="30.5" cy="21.2" rx="1.1" ry="0.8" fill="#FFF48C"></ellipse><path id="XMLID_1682_" class="st10" d="M30.8 19.6c0-.6-.5-1.1-1.1-1.1s-1.1.5-1.1 1.1" fill="none" stroke="#45413C" stroke-linecap="round" stroke-linejoin="round" stroke-miterlimit="10"></path></g></g><g id="XMLID_1768_"><g id="XMLID_1773_"><path id="XMLID_1681_" class="st31" d="M39.6 34.4H8.4c-.4 0-.8-.3-.8-.8v-3c0-.4.3-.8.8-.8h31.1c.4 0 .8.3.8.8v3c0 .5-.3.8-.7.8z" fill="#FF6196"></path><path id="XMLID_1680_" class="st29" d="M40.3 31.8H7.7v-1.1c0-.4.3-.8.8-.8h31.1c.4 0 .8.3.8.8v1.1z" fill="#FF87AF"></path><path id="XMLID_1679_" class="st10" d="M39.6 34.4H8.4c-.4 0-.8-.3-.8-.8v-3c0-.4.3-.8.8-.8h31.1c.4 0 .8.3.8.8v3c0 .5-.3.8-.7.8z" fill="none" stroke="#45413C" stroke-linecap="round" stroke-linejoin="round" stroke-miterlimit="10"></path></g><g id="XMLID_1769_"><path id="XMLID_1678_" class="st29" d="M35.4 45.1H12.6c-1.5 0-2.8-1.1-3-2.6l-1.1-8h31.1l-1.1 8c-.3 1.4-1.6 2.6-3.1 2.6z" fill="#FF87AF"></path><path id="XMLID_1677_" class="st31" fill="#FF6196" d="M39.3 36.3l.3-1.9H8.4l.3 1.9z"></path><path id="XMLID_1676_" class="st10" d="M35.4 45.1H12.6c-1.5 0-2.8-1.1-3-2.6l-1.1-8h31.1l-1.1 8c-.3 1.4-1.6 2.6-3.1 2.6z" fill="none" stroke="#45413C" stroke-linecap="round" stroke-linejoin="round" stroke-miterlimit="10"></path></g></g></g><path id="XMLID_1675_" class="st10" d="M38 25.3v1.1c0 .6-.5 1.1-1.1 1.1s-1.1-.5-1.1-1.1v-2.7" fill="none" stroke="#45413C" stroke-linecap="round" stroke-linejoin="round" stroke-miterlimit="10"></path><path id="XMLID_1674_" class="st10" d="M28.2 10.1V12c0 .6-.5 1.1-1.1 1.1-.6 0-1.1-.5-1.1-1.1v-.8" fill="none" stroke="#45413C" stroke-linecap="round" stroke-linejoin="round" stroke-miterlimit="10"></path><g id="XMLID_1762_"><path id="XMLID_1673_" class="st65" d="M13 29.1V31c0 .6-.5 1.1-1.1 1.1-.6 0-1.1-.5-1.1-1.1v-1.9H13z" fill="#FFFEF2"></path><path id="XMLID_1672_" class="st10" d="M13 29.9V31c0 .6-.5 1.1-1.1 1.1-.6 0-1.1-.5-1.1-1.1v-1.9" fill="none" stroke="#45413C" stroke-linecap="round" stroke-linejoin="round" stroke-miterlimit="10"></path></g></g></g></svg>
