<svg xmlns="http://www.w3.org/2000/svg" id="Customer7Icon" viewBox="0 0 32 32"><path fill="#fff" d="M14.5 1.5h-12c-.6 0-1 .4-1 1v8c0 .6.4 1 1 1h1v2l3-2h8c.6 0 1-.4 1-1v-8c0-.5-.4-1-1-1zM19.5 3.5h10c.6 0 1 .4 1 1v6c0 .6-.4 1-1 1h-1v2l-3-2h-6c-.6 0-1-.4-1-1v-6c0-.5.4-1 1-1z"></path><path fill="#a17852" d="M19.5 25.5V19c0-2.5 2-4.5 4.5-4.5s4.5 2 4.5 4.5v6.5"></path><path fill="#a3d86b" d="M28.7 25.8l-1.8-.6c-.4 1.5-2.9 2.6-2.9 2.6s-2.5-1.1-2.9-2.6l-1.8.6c-1.1.4-1.8 1.3-1.8 2.5v2.3h13v-2.3c0-1.2-.7-2.2-1.8-2.5z"></path><path fill="#64bc50" d="M30.5 30.5v-2.3c0-.5-.1-.9-.4-1.3-1.5.2-2.7 1.5-2.7 3.1v.5h3.1zM17.5 30.5v-2.3c0-.5.1-.9.4-1.3 1.5.2 2.7 1.5 2.7 3.1v.5h-3.1z"></path><path fill="#fed8aa" d="M21 25.2c.4 1.5 3 2.6 3 2.6s2.6-1.1 3-2.6l-1.1-.4v-2.1h-3.7v2.1l-1.2.4z"></path><path fill="#40455a" d="M24 28.3h-.2c-.3-.1-2.8-1.3-3.3-2.9-.1-.3.1-.5.3-.6l.8-.3v-1.7c0-.3.2-.5.5-.5h3.7c.3 0 .5.2.5.5v1.7l.8.3c.3.1.4.4.3.6-.5 1.7-3 2.8-3.3 2.9H24zm-2.3-2.8c.5.8 1.7 1.5 2.3 1.8.6-.3 1.8-1 2.3-1.8l-.6-.2c-.2-.1-.3-.3-.3-.5v-1.6h-2.7v1.6c0 .2-.1.4-.3.5l-.7.2z"></path><path fill="#fed8aa" d="M26.5 19.5V21c0 1.4-1.1 2.5-2.5 2.5s-2.5-1.1-2.5-2.5v-1.5"></path><path fill="#67acd5" d="M6.2 24.8l-2.9 1c-1.1.4-1.8 1.3-1.8 2.5v2.3h13v-2.3c0-1.1-.7-2.1-1.8-2.5l-2.9-1"></path><path fill="#5791d1" d="M14.5 30.5v-2.3c0-.5-.1-.9-.4-1.3-1.5.2-2.7 1.5-2.7 3.1v.5h3.1zM1.5 30.5v-2.3c0-.5.1-.9.4-1.3 1.5.2 2.7 1.5 2.7 3.1v.5H1.5z"></path><path fill="#fed8aa" d="M6.2 23.2v1.3c0 1 1.8 1.8 1.8 1.8s1.8-.8 1.8-1.8v-1.3"></path><path fill="#fed8aa" d="M4.5 17.1V20c0 1.9 1.6 3.5 3.5 3.5s3.5-1.6 3.5-3.5v-2.9h-7z"></path><path fill="#a17852" d="M11.5 19.3l.6-1.8c.2-.8-.4-1.6-1.3-1.6 0-1-.9-1.7-1.8-1.6l-3.8.7c-.9.1-1.5 1-1.3 1.9l.6 2.5 1.3-1c.1-.3.3-.4.6-.4h3.3c.2 0 .5.1.6.2l1.2 1.1z"></path><path fill="#40455a" d="M24 24c-1.7 0-3-1.3-3-3v-1.5c0-.3.2-.5.5-.5s.5.2.5.5V21c0 1.1.9 2 2 2s2-.9 2-2v-1.5c0-.3.2-.5.5-.5s.5.2.5.5V21c0 1.7-1.3 3-3 3zM30.5 31h-13c-.3 0-.5-.2-.5-.5v-2.3c0-1.3.9-2.5 2.1-2.9l2.9-.9c.3-.1.5.1.6.3s-.1.5-.3.6l-2.9.9c-.9.3-1.4 1.1-1.4 2V30h12v-1.8c0-.9-.6-1.7-1.4-2l-2.9-.9c-.3-.1-.4-.4-.3-.6.1-.3.4-.4.6-.3l2.9.9c1.3.4 2.1 1.6 2.1 2.9v2.3c0 .3-.2.5-.5.5z"></path><path fill="#40455a" d="M30.5 31h-3.1c-.3 0-.5-.2-.5-.5V30c0-1.8 1.4-3.4 3.2-3.6.2 0 .4.1.5.2.3.5.4 1 .4 1.6v2.3c0 .3-.2.5-.5.5zm-2.6-1H30v-1.8c0-.3-.1-.5-.2-.8-1.1.3-1.9 1.4-1.9 2.6zM20.6 31h-3.1c-.3 0-.5-.2-.5-.5v-2.3c0-.6.2-1.1.4-1.6.1-.2.3-.3.5-.2 1.8.2 3.2 1.8 3.2 3.6v.5c0 .3-.2.5-.5.5zM18 30h2.1c0-1.2-.8-2.2-2-2.5-.1.2-.2.5-.2.8V30zM8 26.8h-.2c-.2-.1-2.1-1-2.1-2.3v-1.3c0-.3.2-.5.5-.5s.5.2.5.5v1.3c0 .4.7 1 1.3 1.3.6-.3 1.3-.9 1.3-1.3v-1.3c0-.3.2-.5.5-.5s.5.2.5.5v1.3c0 1.3-1.9 2.2-2.1 2.3H8z"></path><path fill="#40455a" d="M8 24.1c-2.2 0-4-1.8-4-4v-.9c0-.3.2-.5.5-.5s.5.1.5.4v.9c0 1.7 1.3 3 3 3s3-1.3 3-3v-.9c0-.3.2-.5.5-.5s.5.2.5.5v.9c0 2.3-1.8 4.1-4 4.1z"></path><path fill="#40455a" d="M11.5 19.8c-.1 0-.2 0-.3-.1l-1.2-1c-.1-.1-.2-.1-.3-.1H6.4c-.1 0-.2 0-.3.1l-1.3 1c-.1.1-.3.1-.5.1-.1-.1-.3-.2-.3-.4L3.4 17c-.1-.6 0-1.2.3-1.6.3-.5.8-.8 1.4-.9l3.8-.6c.6-.1 1.2.1 1.7.5.4.3.6.7.7 1.2.4.1.7.3.9.6.3.4.5 1 .4 1.5l-.6 1.8c-.1.2-.2.3-.3.3h-.2zm-5.1-2.3h3.3c.4 0 .7.1 1 .3l.7.6.4-1.1c0-.2 0-.4-.2-.6-.2-.2-.4-.3-.6-.3-.3 0-.5-.2-.5-.5 0-.4-.1-.7-.4-.9-.2-.2-.6-.3-.9-.2l-3.8.6c-.3 0-.6.2-.7.5-.2.2-.2.5-.2.8l.4 1.7.6-.5c.2-.3.5-.4.9-.4zM14.5 31h-13c-.3 0-.5-.2-.5-.5v-2.3c0-1.3.9-2.5 2.1-2.9l2.9-1c.3-.1.5.1.6.3.1.3-.1.5-.3.6l-2.9 1c-.9.3-1.4 1.1-1.4 2V30h12v-1.8c0-.9-.6-1.7-1.4-2l-2.9-1c-.3-.1-.4-.4-.3-.6s.4-.4.6-.3l2.9 1c1.3.4 2.1 1.6 2.1 2.9v2.3c0 .3-.2.5-.5.5z"></path><path fill="#40455a" d="M14.5 31h-3.1c-.3 0-.5-.2-.5-.5V30c0-1.8 1.4-3.4 3.2-3.6.2 0 .4.1.5.2.3.5.4 1 .4 1.6v2.3c0 .3-.2.5-.5.5zm-2.6-1H14v-1.8c0-.3-.1-.5-.2-.8-1.1.3-1.9 1.4-1.9 2.6zM4.6 31H1.5c-.3 0-.5-.2-.5-.5v-2.3c0-.6.2-1.1.4-1.6.1-.2.3-.3.5-.2 1.8.2 3.2 1.8 3.2 3.6v.5c0 .3-.2.5-.5.5zM2 30h2.1c0-1.2-.8-2.2-2-2.5 0 .2-.1.4-.1.7V30zM3.5 14c-.1 0-.2 0-.2-.1-.2 0-.3-.2-.3-.4V12h-.5c-.8 0-1.5-.7-1.5-1.5v-8C1 1.7 1.7 1 2.5 1h12c.8 0 1.5.7 1.5 1.5v8c0 .8-.7 1.5-1.5 1.5H6.7l-2.9 1.9c-.1.1-.2.1-.3.1zm-1-12c-.3 0-.5.2-.5.5v8c0 .3.2.5.5.5h1c.3 0 .5.2.5.5v1.1l2.2-1.5c.1-.1.2-.1.3-.1h8c.3 0 .5-.2.5-.5v-8c0-.3-.2-.5-.5-.5h-12zM28.5 14c-.1 0-.2 0-.3-.1L25.4 12h-5.8c-.8 0-1.5-.7-1.5-1.5v-6c-.1-.8.6-1.5 1.4-1.5h10c.8 0 1.5.7 1.5 1.5v6c0 .8-.7 1.5-1.5 1.5H29v1.5c0 .2-.1.4-.3.4 0 .1-.1.1-.2.1zm-9-10c-.3 0-.5.2-.5.5v6c0 .3.2.5.5.5h6c.1 0 .2 0 .3.1l2.2 1.5v-1.1c0-.3.2-.5.5-.5h1c.3 0 .5-.2.5-.5v-6c0-.3-.2-.5-.5-.5h-10zM10 22H8.5c-.3 0-.5-.2-.5-.5s.2-.5.5-.5H10c.6 0 1-.4 1-1v-1c0-.3.2-.5.5-.5s.5.2.5.5v1c0 1.1-.9 2-2 2z"></path><path fill="#40455a" d="M20.5 6c-.3 0-.5-.2-.5-.5s.2-.5.5-.5h8c.3 0 .5.2.5.5s-.2.5-.5.5h-8zM28.5 8h-8c-.3 0-.5-.2-.5-.5s.2-.5.5-.5h8c.3 0 .5.2.5.5s-.2.5-.5.5zM23.5 10h-3c-.3 0-.5-.2-.5-.5s.2-.5.5-.5h3c.3 0 .5.2.5.5s-.2.5-.5.5zM28.5 26c-.3 0-.5-.2-.5-.5V19c0-2.2-1.8-4-4-4s-4 1.8-4 4v6.5c0 .3-.2.5-.5.5s-.5-.2-.5-.5V19c0-2.8 2.2-5 5-5s5 2.2 5 5v6.5c0 .3-.2.5-.5.5z"></path><path fill="#40455a" d="M22 20h-.5c-.3 0-.5-.2-.5-.5s.2-.5.5-.5h.5c.3 0 .5-.2.5-.5s.2-.5.5-.5.5.2.5.5c0 .8-.7 1.5-1.5 1.5z"></path><path fill="#40455a" d="M26.5 20H24c-.8 0-1.5-.7-1.5-1.5v-1c0-.3.2-.5.5-.5s.5.2.5.5v1c0 .3.2.5.5.5h2.5c.3 0 .5.2.5.5s-.2.5-.5.5zM9.5 9h-3c-.3 0-.5-.2-.5-.5s.2-.5.5-.5h3c.3 0 .5-.2.5-.5S9.8 7 9.5 7h-1c-.3 0-.5-.2-.5-.5s.2-.5.5-.5h1c.8 0 1.5.7 1.5 1.5S10.3 9 9.5 9z"></path><path fill="#40455a" d="M8.5 7h-1C6.7 7 6 6.3 6 5.5S6.7 4 7.5 4h3c.3 0 .5.2.5.5s-.2.5-.5.5h-3c-.3 0-.5.2-.5.5s.2.5.5.5h1c.3 0 .5.2.5.5s-.2.5-.5.5z"></path><path fill="#40455a" d="M8.5 5c-.3 0-.5-.2-.5-.5v-1c0-.3.2-.5.5-.5s.5.2.5.5v1c0 .3-.2.5-.5.5zM8.5 10c-.3 0-.5-.2-.5-.5v-1c0-.3.2-.5.5-.5s.5.2.5.5v1c0 .3-.2.5-.5.5z"></path></svg>