<svg xmlns="http://www.w3.org/2000/svg" width="32" height="32" viewBox="0 0 32 32" id="GenderIcon"><g stroke="#0572e4" transform="translate(107.632 -1356.362)"><path fill="#62355c" stroke="none" style="line-height:normal;text-indent:0;text-align:start;text-decoration-line:none;text-decoration-style:solid;text-decoration-color:#000;text-transform:none;block-progression:tb;isolation:auto;mix-blend-mode:normal" d="m -56.185547,554.99219 a 0.50004997,0.50004997 0 0 0 -0.132812,0.0176 l -4.771485,1.28515 a 0.50004997,0.50004997 0 1 0 0.259766,0.96289 l 3.605469,-0.96875 -3.259766,5.64453 c -1.818848,-0.7691 -3.963641,-0.13414 -4.958984,1.58985 -1.079335,1.86946 -0.390727,4.28556 1.509765,5.38281 1.900493,1.09725 4.334728,0.4847 5.414063,-1.38477 0.995112,-1.72358 0.474799,-3.89721 -1.09961,-5.08789 l 3.259766,-5.64453 0.960937,3.60547 a 0.50004997,0.50004997 0 0 0 0.923829,0.11719 0.50004997,0.50004997 0 0 0 0.04297,-0.37305 l -1.27539,-4.77539 a 0.50004997,0.50004997 0 0 0 -0.478516,-0.37109 z m -15.402344,3.45898 c -2.1945,0 -3.998026,1.74755 -3.998047,3.90625 1.9e-5,1.99051 1.538488,3.61196 3.498047,3.85547 l 0,4.23828 -1.978515,0 a 0.50005,0.50005 0 1 0 0,1 l 1.978515,0 0,2.49219 a 0.50004997,0.50004997 0 1 0 1,0 l 0,-2.49219 1.970703,0 a 0.50005,0.50005 0 1 0 0,-1 l -1.970703,0 0,-4.23828 c 1.95872,-0.24403 3.496076,-1.86537 3.496094,-3.85547 -2e-5,-2.1587 -1.801604,-3.90625 -3.996094,-3.90625 z m 0,1 c 1.66805,0 2.996084,1.30235 2.996094,2.90625 -1e-5,1.6038 -1.328044,2.90625 -2.996094,2.90625 -1.66806,0 -2.998036,-1.30245 -2.998047,-2.90625 1.1e-5,-1.6039 1.329987,-2.90625 2.998047,-2.90625 z m 9.355469,3.14453 c 0.570826,-0.0324 1.163379,0.0974 1.705078,0.41016 1.444617,0.83405 1.944508,2.62664 1.142578,4.01562 -0.80193,1.38899 -2.604211,1.85359 -4.048828,1.01954 -1.44453,-0.834 -1.944508,-2.6286 -1.142578,-4.01758 0.501206,-0.86812 1.392374,-1.37366 2.34375,-1.42774 z" color="#000" font-family="sans-serif" font-weight="400" overflow="visible" transform="translate(-27.047 807.912)" white-space="normal"></path></g></svg>