<svg xmlns="http://www.w3.org/2000/svg" version="1.1" x="0px" y="0px" viewBox="0 0 48 48" xml space="preserve" id="ToffeeIcon"><style type="text/css"></style><symbol id="New_Symbol_14" viewBox="-6.5 -6.5 13 13"><path class="st0" d="M0-6c2.2 0 4.1 1.5 4.7 3.5C6.3-2.5 6.4 0 5 0v1c0 2.8-2.2 5-5 5s-5-2.2-5-5V0c-1.4 0-1.3-2.5.2-2.5C-4.1-4.5-2.2-6 0-6z" fill="#FFD4C3" stroke="#504B46" stroke-linecap="round" stroke-linejoin="round" stroke-miterlimit="10"></path><circle class="st1" cx="-1.6" cy="-0.1" r="0.1" fill="#FFC258"></circle><path class="st2" d="M-1.6.5c-.3 0-.6-.3-.6-.6s.2-.7.6-.7c.3 0 .6.3.6.7s-.3.6-.6.6z" fill="#4F4B45"></path><circle class="st1" cx="1.6" cy="-0.1" r="0.1" fill="#FFC258"></circle><path class="st2" d="M1.6.5C1.3.5 1 .2 1-.1s.3-.6.6-.6.6.3.6.6-.2.6-.6.6z" fill="#4F4B45"></path><circle class="st3" cx="-3" cy="-1.5" r="0.5" fill="#FABFA5"></circle><circle class="st3" cx="3" cy="-1.5" r="0.5" fill="#FABFA5"></circle><path class="st4" d="M-1.2-3c.8-.5 1.7-.5 2.5 0" fill="none" stroke="#504B46" stroke-linecap="round" stroke-linejoin="round" stroke-miterlimit="10"></path></symbol><g id="Icons"><g id="XMLID_1812_"><path id="XMLID_2159_" class="st45" d="M30.6 26s2.9-4.2 8.8-5.4c5.7-1.2 7.8 2.3 7 5.2-.7 1.9-3.9 3.7-15.8.2z" fill="#FFF48C"></path><path id="XMLID_2158_" class="st28" d="M39.4 22.8c4.1-.8 6.4.8 7 2.8.8-2.9-1.3-6.3-7-5.1-5.9 1.2-8.8 5.4-8.8 5.4.6.2 1.1.3 1.7.5 1.4-1.3 3.8-2.9 7.1-3.6z" fill="#FFFACF"></path><path id="XMLID_2157_" class="st10" d="M30.6 26s2.9-4.2 8.8-5.4c5.7-1.2 7.8 2.3 7 5.2-.7 1.9-3.9 3.7-15.8.2z" fill="none" stroke="#45413C" stroke-linecap="round" stroke-linejoin="round" stroke-miterlimit="10"></path><path id="XMLID_2156_" class="st45" d="M30.6 26s.1 5.1 4.4 9.4c4.1 4.1 7.8 2.3 8.7-.6.5-2-1.2-5.3-13.1-8.8z" fill="#FFF48C"></path><path id="XMLID_2155_" class="st11" d="M36 32.3c3.2 3.2 6.1 2.8 7.7 1.2-.4-1.9-3.1-4.3-11.3-7 .5 1.7 1.6 3.9 3.6 5.8z" fill="#FFE500"></path><path id="XMLID_2154_" class="st10" d="M30.6 26s.1 5.1 4.4 9.4c4.1 4.1 7.8 2.3 8.7-.6.5-2-1.2-5.3-13.1-8.8z" fill="none" stroke="#45413C" stroke-linecap="round" stroke-linejoin="round" stroke-miterlimit="10"></path><path id="XMLID_2153_" class="st29" d="M30.6 26s9.3-.8 13.4.4c4.2 1.2 2.4 7.9-2 6.6-4.3-1.3-11.4-7-11.4-7z" fill="#FF87AF"></path><path id="XMLID_2152_" class="st30" d="M44 28.8c1.1.3 1.8 1.1 2.1 2 .6-1.7 0-3.8-2.1-4.4-4.2-1.3-13.4-.4-13.4-.4s1.3 1 3 2.3c3.1-.2 7.8-.3 10.4.5z" fill="#FFB0CA"></path><path id="XMLID_2151_" class="st10" d="M30.6 26s9.3-.8 13.4.4c4.2 1.2 2.4 7.9-2 6.6-4.3-1.3-11.4-7-11.4-7z" fill="none" stroke="#45413C" stroke-linecap="round" stroke-linejoin="round" stroke-miterlimit="10"></path><path id="XMLID_2150_" class="st45" d="M17.4 22s-.1-5.1-4.4-9.4c-4.1-4.1-7.8-2.3-8.7.6-.5 2 1.2 5.3 13.1 8.8z" fill="#FFF48C"></path><path id="XMLID_2149_" class="st28" d="M13 15.1c2.3 2.3 3.4 4.9 3.9 6.8.2 0 .3.1.4.1 0 0-.1-5.1-4.4-9.4-4.1-4.1-7.8-2.3-8.7.6-.2.5-.1 1.2.2 1.9 1.3-2.5 4.8-3.8 8.6 0z" fill="#FFFACF"></path><path id="XMLID_2148_" class="st10" d="M17.4 22s-.1-5.1-4.4-9.4c-4.1-4.1-7.8-2.3-8.7.6-.5 2 1.2 5.3 13.1 8.8z" fill="none" stroke="#45413C" stroke-linecap="round" stroke-linejoin="round" stroke-miterlimit="10"></path><path id="XMLID_2147_" class="st45" d="M17.4 22s-2.9 4.2-8.8 5.4c-5.7 1.2-7.8-2.3-7-5.2.7-1.9 3.9-3.7 15.8-.2z" fill="#FFF48C"></path><path id="XMLID_2146_" class="st11" d="M2.2 21.4c.5 2.2 2.7 4 7 3.1 2.7-.6 4.8-1.8 6.3-2.9-8.6-2.4-12-1.7-13.3-.2z" fill="#FFE500"></path><path id="XMLID_2145_" class="st10" d="M17.4 22s-2.9 4.2-8.8 5.4c-5.7 1.2-7.8-2.3-7-5.2.7-1.9 3.9-3.7 15.8-.2z" fill="none" stroke="#45413C" stroke-linecap="round" stroke-linejoin="round" stroke-miterlimit="10"></path><path id="XMLID_2144_" class="st29" d="M17.4 22s-7.3-5.8-11.5-7c-4.2-1.2-6.3 5.3-2 6.6 4.4 1.3 13.5.4 13.5.4z" fill="#FF87AF"></path><path id="XMLID_2143_" class="st30" d="M6 17.3c2.5.7 6.2 3.1 8.7 4.9 1.7-.1 2.8-.2 2.8-.2S10.2 16.2 6 15c-3-.9-4.9 2.3-4.1 4.6.4-1.6 2-2.9 4.1-2.3z" fill="#FFB0CA"></path><path id="XMLID_2142_" class="st10" d="M17.4 22s-7.3-5.8-11.5-7c-4.2-1.2-6.3 5.3-2 6.6 4.4 1.3 13.5.4 13.5.4z" fill="none" stroke="#45413C" stroke-linecap="round" stroke-linejoin="round" stroke-miterlimit="10"></path><ellipse id="XMLID_2141_" class="st5" cx="23.5" cy="35.7" rx="12.6" ry="1.6" fill="#45413C" opacity="0.15"></ellipse><ellipse id="XMLID_2140_" transform="matrix(0.2852 -0.9585 0.9585 0.2852 -5.8479 40.1587)" class="st29" cx="24" cy="24" rx="10.7" ry="10.7" fill="#FF87AF"></ellipse><path id="XMLID_2139_" class="st30" d="M13.7 24.7c1.7-5.7 7.7-8.9 13.3-7.2 4 1.2 6.8 4.5 7.5 8.4 1-5.3-2.2-10.6-7.5-12.2-5.7-1.7-11.6 1.5-13.3 7.2-.5 1.7-.6 3.4-.3 5l.3-1.2z" fill="#FFB0CA"></path><ellipse id="XMLID_2138_" transform="matrix(0.2852 -0.9585 0.9585 0.2852 -5.8479 40.1587)" class="st10" cx="24" cy="24" rx="10.7" ry="10.7" fill="none" stroke="#45413C" stroke-linecap="round" stroke-linejoin="round" stroke-miterlimit="10"></ellipse><path id="XMLID_2137_" class="st30" d="M29.7 15s-.1 0-.1-.1c.1 0 .1 0 .1.1z" fill="#FFB0CA"></path><path id="XMLID_2136_" class="st30" d="M30.4 15.4c-.2-.2-.5-.3-.7-.5.3.2.5.4.7.5z" fill="#FFB0CA"></path><path id="XMLID_2135_" class="st30" d="M31.2 16c-.2-.2-.5-.4-.7-.6.2.2.4.4.7.6z" fill="#FFB0CA"></path><path id="XMLID_2134_" class="st45" d="M33.3 18.6c-2.3.3-5.4 1-9.6 2.5-4.8 1.8-8 3.5-10.1 5-.3-1.5-.3-3 .1-4.6 2.2-1.6 5-3.3 8.4-4.5 3-1.1 5.5-1.7 7.7-2.1 1.4.9 2.6 2.2 3.5 3.7z" fill="#FFF48C"></path><path id="XMLID_2133_" class="st45" d="M33.3 18.6c-.8.1-1.8.3-2.9.5-1.8.4-4.1 1.1-6.7 2-4.8 1.8-8 3.5-10.1 5V26c-.1-.3-.1-.6-.2-.9-.1-.6-.1-1.1 0-1.7v-.3c0-.2 0-.4.1-.6 0-.2.1-.4.1-.5 0-.1 0-.3.1-.4 2.2-1.6 5-3.3 8.4-4.5 3-1.1 5.5-1.7 7.7-2.1.5.3.9.6 1.4 1 .2.1.3.3.4.4l.4.4c.4.4.8.9 1.1 1.4-.1 0 0 .2.2.4z" fill="#FFF48C"></path><path id="XMLID_2933_" class="st28" d="M30.8 15.7s-.1-.1 0 0c-.4-.3-.8-.6-1.1-.8-2.1.4-4.7 1-7.7 2.1-3.4 1.2-6.2 2.9-8.4 4.5 0 .1 0 .1-.1.2-.1.4-.1.8-.2 1.2-.1.7-.1 1.6 0 2.4 0 .2.1.4.1.6l.3-1.2c1.7-5.7 7.7-8.9 13.3-7.2.2.1.3.1.5.2h.1c1 .3 1.9.8 2.7 1.4 1.1-.2 2.1-.4 2.9-.5-.4-.7-.9-1.4-1.4-1.9-.3-.4-.6-.7-1-1z" fill="#FFFACF"></path><path id="XMLID_2131_" class="st10" d="M33.3 18.6c-2.3.3-5.4 1-9.6 2.5-4.8 1.8-8 3.5-10.1 5-.3-1.5-.3-3 .1-4.6 2.2-1.6 5-3.3 8.4-4.5 3-1.1 5.5-1.7 7.7-2.1 1.4.9 2.6 2.2 3.5 3.7z" fill="none" stroke="#45413C" stroke-linecap="round" stroke-linejoin="round" stroke-miterlimit="10"></path><path id="XMLID_2130_" class="st56" d="M34.4 26.6c-1.9.4-4.2 1.1-6.9 2.1-4.2 1.5-7.1 3-9.2 4.4-1.1-.7-2-1.5-2.7-2.5 2.4-2.1 5.8-4.4 10.3-6 3.5-1.3 6.4-2 8.8-2.3.1 1.4.1 2.9-.3 4.3z" fill="#FFF48C" stroke="#45413C" stroke-linecap="round" stroke-linejoin="round" stroke-miterlimit="10"></path></g></g></svg>
