<svg xmlns="http://www.w3.org/2000/svg" version="1.1" x="0px" y="0px" viewBox="0 0 48 48" xml space="preserve" id="Strawberry2Icon"><style type="text/css"></style><symbol id="New_Symbol_14" viewBox="-6.5 -6.5 13 13"><path class="st0" d="M0-6c2.2 0 4.1 1.5 4.7 3.5C6.3-2.5 6.4 0 5 0v1c0 2.8-2.2 5-5 5s-5-2.2-5-5V0c-1.4 0-1.3-2.5.2-2.5C-4.1-4.5-2.2-6 0-6z" fill="#FFD4C3" stroke="#504B46" stroke-linecap="round" stroke-linejoin="round" stroke-miterlimit="10"></path><circle class="st1" cx="-1.6" cy="-0.1" r="0.1" fill="#FFC258"></circle><path class="st2" d="M-1.6.5c-.3 0-.6-.3-.6-.6s.2-.7.6-.7c.3 0 .6.3.6.7s-.3.6-.6.6z" fill="#4F4B45"></path><circle class="st1" cx="1.6" cy="-0.1" r="0.1" fill="#FFC258"></circle><path class="st2" d="M1.6.5C1.3.5 1 .2 1-.1s.3-.6.6-.6.6.3.6.6-.2.6-.6.6z" fill="#4F4B45"></path><circle class="st3" cx="-3" cy="-1.5" r="0.5" fill="#FABFA5"></circle><circle class="st3" cx="3" cy="-1.5" r="0.5" fill="#FABFA5"></circle><path class="st4" d="M-1.2-3c.8-.5 1.7-.5 2.5 0" fill="none" stroke="#504B46" stroke-linecap="round" stroke-linejoin="round" stroke-miterlimit="10"></path></symbol><g id="Icons"><g id="XMLID_1809_"><path id="XMLID_2257_" class="st26" d="M34.9 6.7l-2.2-.3c-.5-.1-.9-.6-.7-1.1v-.1c.4-1.3-1-2.4-2.1-1.7L27.6 5c-.4.3-1 .1-1.2-.4l-1.1-2.4c-.5-1.1-2.1-1.1-2.6 0l-1.1 2.4c-.2.5-.8.7-1.2.4L18 3.5c-1.1-.7-2.5.4-2.1 1.7.2.5-.2 1.1-.7 1.1l-2.2.3c-1.3.2-1.7 1.9-.6 2.6l2.4 1.5 3-3 6.2-.5 6.1.6 3.1 3 2.4-1.5c1.1-.7.7-2.4-.7-2.6z" fill="#6DD627"></path><path id="XMLID_2256_" class="st25" d="M13.1 8l2.2-.2c.5-.1.9-.5.7-.9-.4-1 1-1.8 2.1-1.3l2.3 1.1c.4.2 1 .1 1.2-.3l1.1-1.8c.5-.9 2.1-.9 2.6 0l1.1 1.8c.2.4.8.5 1.2.3L30 5.6c1.1-.5 2.5.3 2.1 1.3-.2.4.2.8.7.9l2.1.2c.6.1.9.3 1.1.7.4-.8-.1-1.9-1.1-2l-2.2-.3c-.5-.1-.9-.6-.7-1.1v-.1c.4-1.3-1-2.4-2.1-1.7L27.6 5c-.4.3-1 .1-1.2-.4l-1.1-2.4c-.5-1.1-2.1-1.1-2.6 0l-1.1 2.4c-.2.5-.8.7-1.2.4L18 3.5c-1.1-.7-2.5.4-2.1 1.7.2.5-.2 1.1-.7 1.1l-2.2.3c-1 .1-1.5 1.2-1.1 2 .2-.3.6-.6 1.2-.6z" fill="#9CEB60"></path><path id="XMLID_2255_" class="st10" d="M34.9 6.7l-2.2-.3c-.5-.1-.9-.6-.7-1.1v-.1c.4-1.3-1-2.4-2.1-1.7L27.6 5c-.4.3-1 .1-1.2-.4l-1.1-2.4c-.5-1.1-2.1-1.1-2.6 0l-1.1 2.4c-.2.5-.8.7-1.2.4L18 3.5c-1.1-.7-2.5.4-2.1 1.7.2.5-.2 1.1-.7 1.1l-2.2.3c-1.3.2-1.7 1.9-.6 2.6l2.4 1.5 3-3 6.2-.5 6.1.6 3.1 3 2.4-1.5c1.1-.7.7-2.4-.7-2.6z" fill="none" stroke="#45413C" stroke-linecap="round" stroke-linejoin="round" stroke-miterlimit="10"></path><ellipse id="XMLID_2254_" class="st5" cx="24" cy="45.2" rx="11.5" ry="1.5" fill="#45413C" opacity="0.15"></ellipse><path id="XMLID_2253_" class="st57" d="M26.1 7.2h-4.2C9.7 7.2 2.1 20.1 9 29.6c.1.1.1.2.2.2l8.6 11.4c3 4 9.3 4 12.3 0l8.6-11.4c.3-.4.6-.8.8-1.2 6-9.4-1.7-21.4-13.4-21.4z" fill="#FF6242"></path><path id="XMLID_2252_" class="st62" d="M21.9 12.7h4.2c7.8 0 13.9 5.4 15.3 11.7C43.2 16 36.1 7.2 26.1 7.2h-4.2c-10.1 0-17 8.9-15.2 17.3C8 18.1 14 12.7 21.9 12.7z" fill="#FF866E"></path><path id="XMLID_2251_" class="st10" d="M26.1 7.2h-4.2C9.7 7.2 2.1 20.1 9 29.6c.1.1.1.2.2.2l8.6 11.4c3 4 9.3 4 12.3 0l8.6-11.4c.3-.4.6-.8.8-1.2 6-9.4-1.7-21.4-13.4-21.4z" fill="none" stroke="#45413C" stroke-linecap="round" stroke-linejoin="round" stroke-miterlimit="10"></path><ellipse id="XMLID_2250_" class="st80" cx="24" cy="12.2" rx="1" ry="1.8" fill="#E04122" stroke="#45413C" stroke-linecap="round" stroke-linejoin="round" stroke-miterlimit="10"></ellipse><ellipse id="XMLID_2249_" class="st80" cx="14" cy="14.4" rx="1" ry="1.8" fill="#E04122" stroke="#45413C" stroke-linecap="round" stroke-linejoin="round" stroke-miterlimit="10"></ellipse><ellipse id="XMLID_2248_" class="st80" cx="34" cy="14.4" rx="1" ry="1.8" fill="#E04122" stroke="#45413C" stroke-linecap="round" stroke-linejoin="round" stroke-miterlimit="10"></ellipse><path id="XMLID_2247_" class="st100" d="M24 34.3c-1.1 0-2.1-.9-2.2-2l-.2-3c0-.3.2-.5.5-.5H26c.3 0 .5.2.5.5l-.2 3c-.2 1.2-1.2 2-2.3 2z" fill="#FF866E" stroke="#45413C" stroke-linecap="round" stroke-linejoin="round" stroke-miterlimit="10"></path><circle id="XMLID_2246_" class="st78" cx="31.5" cy="21.3" r="1.5" fill="#45413C" stroke="#45413C" stroke-linecap="round" stroke-linejoin="round" stroke-miterlimit="10"></circle><circle id="XMLID_2245_" class="st78" cx="16.5" cy="21.3" r="1.5" fill="#45413C" stroke="#45413C" stroke-linecap="round" stroke-linejoin="round" stroke-miterlimit="10"></circle><ellipse id="XMLID_2244_" class="st58" cx="34.7" cy="27.5" rx="1.8" ry="1" fill="#E04122"></ellipse><ellipse id="XMLID_2243_" class="st58" cx="13.3" cy="27.5" rx="1.8" ry="1" fill="#E04122"></ellipse></g></g></svg>
