<svg style="width:15px;height:15px" version="1.1" xmlns="http://www.w3.org/2000/svg" width="23" height="32" viewBox="0 0 23 32" id="ExportIcon">
  <title>export</title>
  <path d="M0 9.333h6.667v1.333h-6.667v-1.333zM0 10.667h1.333v20h-1.333v-20zM0 30.667h22.667v1.333h-22.667v-1.333zM21.333 9.333h1.333v21.333h-1.333v-21.333zM16 9.333h5.333v1.333h-5.333v-1.333zM10.667 0h1.333v21.333h-1.333v-21.333zM9.333 1.333h1.333v2.667h-1.333v-2.667zM8 2.667h1.333v2.667h-1.333v-2.667zM6.667 4h1.333v2.667h-1.333v-2.667zM12 1.333h1.333v2.667h-1.333v-2.667zM13.333 2.667h1.333v2.667h-1.333v-2.667zM14.667 4h1.333v2.667h-1.333v-2.667z"></path>{' '}
</svg>
