<svg xmlns="http://www.w3.org/2000/svg" width="24" height="24" viewBox="0 0 24 24" id="Message2Icon"><g fill="#200E32" fill-rule="nonzero" transform="translate(2 3)"><path d="M19.9995923,5.05278334 L19.9995923,12.9472011 C20.0043147,14.2841091 19.4766326,15.5680066 18.5328791,16.5158446 C17.5891256,17.4636826 16.3067925,17.997634 14.9685837,18 L5.05767467,18 C3.71711397,18.0023415 2.43065079,17.4719729 1.48189642,16.525802 C0.53314205,15.5796312 0,14.2953473 0,12.9560812 L0,5.05278334 C0.000730045959,4.46465864 0.106069271,3.88134314 0.311104769,3.33004201 C1.03357227,1.33225686 2.9314488,0.000767553715 5.05767467,5.32907052e-15 L14.9419176,5.32907052e-15 C17.0940711,-0.00120130637 19.0103994,1.3606783 19.7151537,3.39220278 C19.9107015,3.92372534 20.0071062,4.48654586 19.9995923,5.05278334 Z" opacity=".4"></path><path d="M19.7151537,3.40108289 L19.6173779,3.48100388 C17.7774154,4.91070158 11.8219812,9.69708083 11.8219812,9.69708083 C10.7864111,10.5383811 9.30206825,10.5383811 8.26649815,9.69708083 C8.26649815,9.69708083 2.34661883,4.91958169 0.506656338,3.48988399 L0.311104769,3.33892212 C1.03060224,1.33763595 2.92915926,0.00211731296 5.05767467,7.95159307e-07 L14.9419176,7.95159307e-07 C17.0963982,0.000106643322 19.0134302,1.36605277 19.7151537,3.40108289 Z"></path></g></svg>