<svg xmlns="http://www.w3.org/2000/svg" width="24" height="24" viewBox="0 0 24 24" id="Chat3Icon"><g fill="none" fill-rule="evenodd" stroke="#200E32" stroke-linecap="round" stroke-linejoin="round" stroke-width="1.5" transform="translate(2 2)"><path d="M10.0568181,-3.37507799e-14 C6.54686532,-0.0141015786 3.28556632,1.80703838 1.46050022,4.80034679 C-0.364565872,7.7936552 -0.487081058,11.5223413 1.13756771,14.6286303 L1.33789312,15.0191059 C1.50209106,15.3263704 1.53643729,15.6864194 1.43328617,16.0191043 C1.14742034,16.7783674 0.908488743,17.5544276 0.71783828,18.3429101 C0.71783828,18.7429095 0.832309942,18.9714806 1.26157868,18.9619568 C2.02189879,18.7940564 2.77067506,18.5777416 3.5033154,18.3143388 C3.81886183,18.2274425 4.15437035,18.2475403 4.45724592,18.3714815 C4.73388577,18.5048146 5.29670478,18.8476712 5.31578339,18.8476712 C8.99153503,20.7804333 13.4807954,20.2472199 16.5997521,17.5074142 C19.7187087,14.7676084 20.8198838,10.3899785 19.3676078,6.50403406 C17.9153318,2.6180896 14.211089,0.0305307279 10.0568181,-3.37507799e-14 L10.0568181,-3.37507799e-14 Z"></path><ellipse cx="5.287" cy="10" fill="#200E32" rx="1" ry="1"></ellipse><ellipse cx="10.057" cy="10" fill="#200E32" rx="1" ry="1"></ellipse><ellipse cx="14.826" cy="10" fill="#200E32" rx="1" ry="1"></ellipse></g></svg>