<svg style="width:15px;height:15px" version="1.1" xmlns="http://www.w3.org/2000/svg" width="32" height="32" viewBox="0 0 32 32" id="BoxIcon">
  <title>box</title>
  <path d="M29.411 23.115c-0.122-0.33-0.488-0.499-0.819-0.377l-6.63 2.446c-0.33 0.122-0.499 0.488-0.377 0.819 0.095 0.258 0.339 0.417 0.598 0.417 0.073 0 0.148-0.013 0.221-0.040l6.63-2.446c0.33-0.122 0.499-0.488 0.377-0.819zM20.959 26.234c-0.122-0.33-0.488-0.499-0.819-0.377l-0.281 0.104c-0.33 0.122-0.499 0.488-0.377 0.819 0.095 0.258 0.339 0.417 0.598 0.417 0.073 0 0.148-0.013 0.221-0.040l0.281-0.104c0.33-0.122 0.499-0.488 0.377-0.819zM29.411 20.517c-0.122-0.33-0.488-0.499-0.819-0.377l-5.239 1.933c-0.33 0.122-0.499 0.488-0.377 0.819 0.095 0.258 0.339 0.417 0.598 0.417 0.073 0 0.148-0.013 0.221-0.040l5.239-1.933c0.33-0.122 0.499-0.488 0.377-0.819zM29.411 17.947c-0.122-0.33-0.488-0.499-0.819-0.377l-5.239 1.933c-0.33 0.122-0.499 0.488-0.377 0.819 0.095 0.258 0.339 0.417 0.598 0.417 0.073 0 0.148-0.013 0.221-0.040l5.239-1.933c0.33-0.122 0.499-0.488 0.377-0.819zM31.583 6.283l-15.363-5.668c-0.142-0.052-0.299-0.052-0.441 0l-15.363 5.669c-0.050 0.019-0.099 0.043-0.144 0.075-0.171 0.119-0.273 0.315-0.273 0.523v18.238c0 0.267 0.166 0.506 0.417 0.598l15.363 5.669c0.072 0.026 0.146 0.039 0.221 0.039s0.15-0.014 0.22-0.040l0 0 15.363-5.668c0.25-0.092 0.417-0.331 0.417-0.598v-18.238c0-0.267-0.166-0.506-0.417-0.598zM15.363 29.873l-14.088-5.198v-16.879l2.869 1.059v7.724c0 0.267 0.166 0.506 0.417 0.598l6.884 2.54c0.072 0.026 0.146 0.039 0.221 0.039 0.129 0 0.256-0.039 0.365-0.114 0.171-0.119 0.273-0.314 0.273-0.523v-7.253l3.060 1.129v16.879zM11.028 11.394v6.809l-5.61-2.070v-6.809l5.61 2.070zM6.622 8.405l5.043-1.861 5.043 1.861-5.043 1.861-5.043-1.861zM16 11.87l-2.5-0.922 5.271-1.945c0.25-0.092 0.417-0.331 0.417-0.598s-0.166-0.506-0.417-0.598l-6.884-2.54c-0.142-0.053-0.299-0.053-0.441 0l-6.671 2.462-2.295-0.847 13.521-4.989 13.521 4.989-13.521 4.989zM30.725 24.675l-14.088 5.198v-16.879l14.088-5.198v16.879z"></path>{' '}
</svg>
