<svg xmlns="http://www.w3.org/2000/svg" width="24" height="24" viewBox="0 0 24 24" id="Notification4Icon"><g fill="none" fill-rule="evenodd" stroke="#200E32" stroke-linecap="round" stroke-linejoin="round" stroke-width="1.5" transform="translate(3.5 2)"><path d="M.00082545485 11.7871203L.00082545485 11.568135C.0329512746 10.9202451.240598836 10.2924906.602355621 9.74960514 1.20450201 9.09746185 1.61670318 8.29830554 1.79571385 7.43597814 1.79571385 6.76950123 1.79571385 6.09350321 1.85392645 5.4270263 2.15469153 2.21841601 5.32727806 3.37507799e-14 8.46105618 3.37507799e-14L8.53867298 3.37507799e-14C11.6724511 3.37507799e-14 14.8450376 2.21841601 15.1555048 5.4270263 15.2137174 6.09350321 15.1555048 6.76950123 15.2040153 7.43597814 15.3854338 8.30030508 15.7972211 9.10194449 16.3973735 9.75912624 16.7618363 10.2972046 16.9698126 10.9226612 16.9989037 11.568135L16.9989037 11.7775992C17.0205591 12.6480449 16.720769 13.4968208 16.1548211 14.167395 15.4069586 14.9514753 14.392113 15.4392693 13.3024038 15.5384332 10.1069938 15.8812057 6.8830333 15.8812057 3.68762325 15.5384332 2.59914366 15.4349924 1.58575794 14.9479001.835206008 14.167395.278 13.496309-.0177593319 12.6525831.00082545485 11.7871203zM6.05493552 18.8517756C6.55421005 19.478449 7.28739599 19.8840184 8.09222803 19.978725 8.89706007 20.0734316 9.70716835 19.8494655 10.3432635 19.3563938 10.5389031 19.2105605 10.7149406 19.0410062 10.8671768 18.8517756"></path></g></svg>