<svg xmlns="http://www.w3.org/2000/svg" viewBox="0 0 32 32"><path fill="#8b8891" d="M28.45652,31.5h-25a2,2,0,0,1-2-2V26.60076a7,7,0,0,1,6.04354-6.93435L15.95652,18.5,24.413,19.66641a7,7,0,0,1,6.04354,6.93435V29.5A2,2,0,0,1,28.45652,31.5Z"/><path fill="#2c2b2d" d="M28.45605,32h-25a2.50263,2.50263,0,0,1-2.5-2.5V26.60059a7.52946,7.52946,0,0,1,6.47559-7.4292l8.45606-1.16651a.45863.45863,0,0,1,.13671,0l8.457,1.16651a7.5286,7.5286,0,0,1,6.4746,7.4292V29.5A2.50263,2.50263,0,0,1,28.45605,32Zm-12.5-12.99512L7.56836,20.16162a6.52649,6.52649,0,0,0-5.61231,6.439V29.5a1.50164,1.50164,0,0,0,1.5,1.5h25a1.50164,1.50164,0,0,0,1.5-1.5V26.60059a6.52561,6.52561,0,0,0-5.61132-6.439Z"/><path fill="#8b8891" d="M24.35716,8.29758c.21231,2.06884-.00043,4.144.094,6.21538a13.37137,13.37137,0,0,0,.47289,3.13445,14.02426,14.02426,0,0,1,.9356,2.91367c.25321,4.14378-5.57849,5.1181-9.55819,5.16342a19.62722,19.62722,0,0,1-7.14931-.91862c-2.89791-1.12063-3.28156-3.175-2.75175-5.54352a42.71856,42.71856,0,0,0,.88252-5.76168,45.71379,45.71379,0,0,1,.34568-5.1151C8.14868,5.75725,9.391,2.817,12.38888,1.39987a8.96057,8.96057,0,0,1,7.62683-.0605C23.07927,2.86332,24.07141,5.51319,24.35716,8.29758Z"/><path fill="#2c2b2d" d="M15.67578,26.22852a18.93362,18.93362,0,0,1-6.7041-.95655c-2.74316-1.06054-3.74316-3.062-3.05957-6.11914a42.49775,42.49775,0,0,0,.87305-5.69433c.05175-.62061.0664-1.24463.082-1.86866a19.20807,19.20807,0,0,1,.27148-3.30127C7.85645,4.6582,9.55078,2.18848,12.1748.94775A9.44325,9.44325,0,0,1,20.23828.8916c2.77539,1.38086,4.24317,3.71778,4.61621,7.35449v.00049a30.95473,30.95473,0,0,1,.08594,3.66309c-.01465.84863-.0293,1.72607.00977,2.58056a12.75,12.75,0,0,0,.4541,3.01807,9.58129,9.58129,0,0,0,.377,1.00928,6.22486,6.22486,0,0,1,.57715,2.01318,3.96711,3.96711,0,0,1-1.0791,3.05371c-2.0752,2.23194-6.51172,2.61182-8.97168,2.64014Q15.9956,26.22827,15.67578,26.22852Zm.67285-25.21534a8.80651,8.80651,0,0,0-3.74609.83887c-2.32227,1.09717-3.83008,3.32813-4.4834,6.63086a18.25129,18.25129,0,0,0-.25293,3.13135c-.01562.64355-.03125,1.28711-.085,1.92773a43.53733,43.53733,0,0,1-.89258,5.8291c-.58105,2.59571.14942,4.08106,2.44434,4.96827a19.22683,19.22683,0,0,0,6.96289.88525c1.85156-.021,6.3623-.28955,8.251-2.32129a2.96024,2.96024,0,0,0,.81347-2.31152,5.42034,5.42034,0,0,0-.50293-1.69092,10.86819,10.86819,0,0,1-.41406-1.11377,13.6904,13.6904,0,0,1-.49121-3.25147c-.041-.88525-.02637-1.7788-.01172-2.64257a30.26237,30.26237,0,0,0-.08008-3.54444h0c-.33594-3.26318-1.62793-5.34814-4.06738-6.56152A7.751,7.751,0,0,0,16.34863,1.01318Z"/><circle cx="16" cy="27.707" r=".5" fill="#2c2b2d"/><circle cx="16" cy="29.707" r=".5" fill="#2c2b2d"/><path fill="#2c2b2d" d="M13.20117 21.8877a8.86944 8.86944 0 0 1-6.71582-3.05957.49976.49976 0 1 1 .75391-.65625A7.87912 7.87912 0 0 0 13.95215 20.852a.49986.49986 0 1 1 .0957.99512Q13.626 21.88818 13.20117 21.8877zM17.77246 18.74512a8.72727 8.72727 0 0 1-2.60742-.40039.4999.4999 0 1 1 .29883-.9541 7.65675 7.65675 0 0 0 3.52246.25488 7.46124 7.46124 0 0 0 2.06152-.665.50007.50007 0 1 1 .44141.89746 8.46732 8.46732 0 0 1-2.33887.75391A8.37327 8.37327 0 0 1 17.77246 18.74512z"/><path fill="#ffdaa7" d="M21.70417,11c.21637,2.97294-2.27371,6.9239-5.70431,6.9239-3.33658,0-5.92205-3.89976-5.70431-6.9239.12551-1.74319,1.17016-3.02471,2.29623-4.40612,1.08447-1.33037,2.05608-2.52229,3.40808-2.51778,1.3222.00442,2.24394,1.17891,3.35946,2.47673A7.884,7.884,0,0,1,21.70417,11Z"/><path fill="#2c2b2d" d="M16,18.42383a5.6635,5.6635,0,0,1-4.10254-1.95606,7.7363,7.7363,0,0,1-2.10058-5.5039c.13671-1.90039,1.23925-3.25342,2.40722-4.68555,1.13184-1.38965,2.20215-2.70215,3.78809-2.70215H16.002C17.47559,3.58105,18.48047,4.75586,19.544,6l.19433.22705a8.31067,8.31067,0,0,1,2.46485,4.73682h0a7.74888,7.74888,0,0,1-2.08985,5.51855A5.65788,5.65788,0,0,1,16,18.42383ZM15.99316,4.57617c-1.1123,0-1.99316,1.08154-3.01367,2.3335-1.11133,1.36377-2.07129,2.54053-2.18457,4.126a6.69407,6.69407,0,0,0,1.835,4.751A4.67847,4.67847,0,0,0,16,17.42383a4.67306,4.67306,0,0,0,3.38086-1.62207,6.70171,6.70171,0,0,0,1.82422-4.76563h0a7.41305,7.41305,0,0,0-2.22461-4.15771l-.19629-.22852c-.98926-1.15674-1.77051-2.07031-2.78613-2.07373Z"/><path fill="#2c2b2d" d="M21.7041,11.5a.50007.50007,0,0,1-.4248-.76416,4.41371,4.41371,0,0,0,.6709-2.2207,4.49233,4.49233,0,0,0-.85547-2.72168.50036.50036,0,0,1,.81054-.58692,5.51218,5.51218,0,0,1,1.04493,3.334,5.42885,5.42885,0,0,1-.82129,2.72363A.50033.50033,0,0,1,21.7041,11.5Z"/></svg>
