<svg xmlns="http://www.w3.org/2000/svg" id="RadioIcon" viewBox="0 0 32 32"><path fill="#ff9e68" d="M24 17.5c-3 0-5.5-2.5-5.5-5.5v-.5h-5.1v.5c0 3-2.5 5.5-5.5 5.5-1.9 0-3.5-.9-4.5-2.3v8.3c0 1.1.9 2 2 2h21c1.1 0 2-.9 2-2v-8.3c-.9 1.4-2.5 2.3-4.4 2.3z"></path><circle cx="25" cy="22" r="1.5" fill="#a3d86b"></circle><path fill="#67acd5" d="M9.5 22.5h3v3h-3zM12.5 22.5h3v3h-3zM15.5 22.5h3v3h-3zM18.5 22.5h3v3h-3z"></path><path fill="#898b99" d="M24 17.5H8v-2h16z"></path><ellipse cx="8" cy="12" fill="#fff" rx="5.5" ry="5.5" transform="rotate(-71.929 8 12)"></ellipse><ellipse cx="24" cy="12" fill="#fff" rx="5.5" ry="5.5" transform="rotate(-71.929 23.998 12)"></ellipse><path fill="#898b99" d="M8 12L6.3 9c.5-.3 1.1-.5 1.7-.5s1.2.2 1.7.5L8 12zM8 12H4.5c0 .6.2 1.2.5 1.7s.8 1 1.3 1.3L8 12zM8 12h3.5c0 .6-.2 1.2-.5 1.7s-.8 1-1.3 1.3L8 12zM24 12l-1.7-3c.5-.3 1.1-.5 1.7-.5s1.2.2 1.7.5L24 12zM24 12h-3.5c0 .6.2 1.2.5 1.7s.8 1 1.3 1.3l1.7-3zM24 12h3.5c0 .6-.2 1.2-.5 1.7s-.8 1-1.3 1.3L24 12z"></path><path fill="#40455a" d="M19.5 16h-7c-.3 0-.5-.2-.5-.5s.2-.5.5-.5h7c.3 0 .5.2.5.5s-.2.5-.5.5zM21.5 21h-12c-.3 0-.5-.3-.5-.5 0-.3.2-.5.5-.5h12c.3 0 .5.2.5.5s-.2.5-.5.5z"></path><path fill="#40455a" d="M8 18c-.9 0-1.8-.2-2.7-.6-1.4-.7-2.5-2-3-3.5s-.4-3.1.4-4.6 2-2.5 3.5-3 3.1-.4 4.6.4c1.4.7 2.5 2 3 3.5s.4 3.1-.4 4.6c-1.1 2-3.2 3.2-5.4 3.2zm-2.3-1.5c1.2.6 2.5.7 3.8.3s2.3-1.3 2.9-2.5c1.2-2.5.3-5.5-2.2-6.7-1.1-.7-2.5-.8-3.8-.4-1.2.5-2.3 1.3-2.9 2.5-1.2 2.5-.2 5.5 2.2 6.8z"></path><path fill="#40455a" d="M8 12.5c-.2 0-.3-.1-.4-.3l-1.7-3c-.2-.2-.1-.5.1-.7 1.2-.7 2.8-.7 4 0 .2.1.3.4.2.7l-1.7 3c-.2.2-.3.3-.5.3zM7 9.2L8 11l1-1.8c-.6-.3-1.4-.3-2 0z"></path><path fill="#40455a" d="M8 18c-.9 0-1.9-.2-2.7-.7-1.4-.7-2.5-2-3-3.5s-.4-3.1.4-4.6c.7-1.4 2-2.5 3.5-3s3.1-.4 4.6.4c1.4.7 2.5 2 3 3.5s.4 3.1-.4 4.6c-.7 1.4-2 2.5-3.5 3-.7.2-1.3.3-1.9.3zM8 7c-.5 0-1 .1-1.6.2-1.2.5-2.3 1.3-2.9 2.5s-.7 2.5-.3 3.8c.9 2.6 3.7 4.1 6.3 3.2 2.6-.9 4.1-3.7 3.2-6.3-.4-1.3-1.3-2.3-2.5-2.9C9.6 7.2 8.8 7 8 7z"></path><path fill="#40455a" d="M8 18c-1.1 0-2.2-.3-3.2-.9-1.4-.9-2.3-2.2-2.6-3.8-.3-1.6-.1-3.2.8-4.5.9-1.4 2.2-2.3 3.8-2.6 1.6-.3 3.2-.1 4.5.8 1.4.9 2.3 2.2 2.6 3.8.3 1.6.1 3.2-.8 4.5C11.9 17 10 18 8 18zM8 7c-.4 0-.7 0-1.1.1-1.3.3-2.4 1.1-3.1 2.2-.7 1.1-1 2.5-.7 3.8.3 1.3 1.1 2.4 2.2 3.1 1.1.7 2.5 1 3.8.7 1.3-.3 2.4-1.1 3.1-2.2.7-1.1 1-2.5.7-3.8-.3-1.3-1.1-2.4-2.2-3.1C9.9 7.3 9 7 8 7z"></path><path fill="#40455a" d="M6.3 15.5c-.1 0-.2 0-.2-.1-.6-.3-1.1-.8-1.5-1.5-.4-.5-.6-1.2-.6-1.9 0-.3.2-.5.5-.5H8c.2 0 .3.1.4.2.1.2.1.3 0 .5l-1.7 3c-.1.3-.2.3-.4.3zm-1.3-3c.1.3.2.7.4 1 .2.3.4.6.7.8l1-1.8H5z"></path><path fill="#40455a" d="M8 18c-.6 0-1.3-.1-1.9-.3-1.5-.5-2.8-1.6-3.5-3-.7-1.4-.9-3.1-.4-4.6.5-1.5 1.6-2.8 3-3.5 1.4-.7 3.1-.9 4.6-.4 1.5.5 2.8 1.6 3.5 3 .7 1.4.9 3.1.4 4.6-.5 1.5-1.6 2.8-3 3.5-.8.5-1.8.7-2.7.7zM8 7c-.8 0-1.6.2-2.3.5-1.2.6-2.1 1.6-2.5 2.9-.9 2.6.6 5.4 3.2 6.3 2.6.9 5.4-.6 6.3-3.2.4-1.3.3-2.6-.3-3.8s-1.6-2.1-2.9-2.5C9 7.1 8.5 7 8 7z"></path><path fill="#40455a" d="M9.7 15.5c-.2 0-.3-.1-.4-.3l-1.7-3c-.1-.2-.1-.3 0-.5s.3-.2.4-.2h3.5c.3 0 .5.2.5.5 0 .7-.2 1.4-.6 2-.4.6-.9 1.1-1.5 1.5h-.2zm-.8-3l1 1.8c.3-.2.5-.5.7-.8.2-.3.3-.6.4-1H8.9zM24 18c-.9 0-1.8-.2-2.7-.6-1.4-.7-2.5-2-3-3.5s-.4-3.1.4-4.6 2-2.5 3.5-3 3.1-.4 4.6.4c1.4.7 2.5 2 3 3.5s.4 3.1-.4 4.6c-1.1 2-3.2 3.2-5.4 3.2zm-2.3-1.5c1.2.6 2.5.7 3.8.3 1.3-.4 2.3-1.3 2.9-2.5 1.2-2.5.3-5.5-2.2-6.7-1.2-.6-2.5-.7-3.8-.3-1.3.4-2.3 1.3-2.9 2.5-1.2 2.4-.2 5.4 2.2 6.7z"></path><path fill="#40455a" d="M24 12.5c-.2 0-.3-.1-.4-.3l-1.7-3c-.2-.2-.1-.5.1-.7 1.2-.7 2.8-.7 4 0 .2.1.3.4.2.7l-1.7 3c-.2.2-.3.3-.5.3zm-1-3.3l1 1.8 1-1.8c-.6-.3-1.4-.3-2 0z"></path><path fill="#40455a" d="M24 18c-.9 0-1.9-.2-2.7-.7-1.4-.7-2.5-2-3-3.5s-.4-3.1.4-4.6c.7-1.4 2-2.5 3.5-3s3.1-.4 4.6.4c1.4.7 2.5 2 3 3.5s.4 3.1-.4 4.6c-.7 1.4-2 2.5-3.5 3-.7.2-1.3.3-1.9.3zm0-11c-.5 0-1 .1-1.6.2-1.3.4-2.3 1.3-2.9 2.5s-.7 2.5-.3 3.8c.9 2.6 3.7 4.1 6.3 3.2 2.6-.9 4.1-3.7 3.2-6.3-.4-1.3-1.3-2.3-2.5-2.9-.6-.3-1.4-.5-2.2-.5z"></path><path fill="#40455a" d="M24 18c-1.1 0-2.2-.3-3.2-.9-1.4-.9-2.3-2.2-2.6-3.8-.3-1.6-.1-3.2.8-4.5.9-1.4 2.2-2.3 3.8-2.6 1.6-.3 3.2-.1 4.5.8 1.4.9 2.3 2.2 2.6 3.8.3 1.6.1 3.2-.8 4.5C27.9 17 26 18 24 18zm0-11c-.4 0-.7 0-1.1.1-1.3.3-2.4 1.1-3.1 2.2-.7 1.1-1 2.5-.7 3.8.3 1.3 1.1 2.4 2.2 3.1 1.1.7 2.5 1 3.8.7 1.3-.3 2.4-1.1 3.1-2.2.7-1.1 1-2.5.7-3.8-.3-1.3-1.1-2.4-2.2-3.1C25.9 7.3 25 7 24 7z"></path><path fill="#40455a" d="M22.3 15.5c-.1 0-.2 0-.2-.1-.6-.3-1.1-.8-1.5-1.5-.4-.6-.5-1.3-.6-2 0-.3.2-.5.5-.5H24c.2 0 .3.1.4.2s.1.3 0 .5l-1.7 3c-.1.4-.2.4-.4.4zm-1.3-3c.1.3.2.7.4 1 .2.3.4.6.7.8l1-1.8H21z"></path><path fill="#40455a" d="M24 18c-.6 0-1.3-.1-1.9-.3-1.5-.5-2.8-1.6-3.5-3-.7-1.4-.9-3.1-.4-4.6.5-1.5 1.6-2.8 3-3.5 1.4-.7 3.1-.9 4.6-.4 1.5.5 2.8 1.6 3.5 3 .7 1.4.9 3.1.4 4.6-.5 1.5-1.6 2.8-3 3.5-.8.5-1.8.7-2.7.7zm0-11c-.8 0-1.5.2-2.3.5-1.2.6-2.1 1.6-2.5 2.9-.9 2.6.6 5.4 3.2 6.3 2.6.9 5.4-.6 6.3-3.2.4-1.3.3-2.6-.3-3.8s-1.6-2.1-2.9-2.5c-.5-.1-1-.2-1.5-.2z"></path><path fill="#40455a" d="M25.7 15.5c-.2 0-.3-.1-.4-.3l-1.7-3c-.1-.2-.1-.3 0-.5s.3-.2.4-.2h3.5c.3 0 .5.2.5.5 0 .7-.2 1.4-.6 2-.4.6-.9 1.1-1.5 1.5h-.2zm-.8-3l1 1.8c.3-.2.5-.5.7-.8.2-.3.3-.6.4-1h-2.1zM25 24c-1.1 0-2-.9-2-2s.9-2 2-2 2 .9 2 2-.9 2-2 2zm0-3c-.6 0-1 .4-1 1s.4 1 1 1 1-.4 1-1-.4-1-1-1z"></path><circle cx="5.5" cy="23.5" r=".5" fill="#40455a"></circle><circle cx="7.5" cy="23.5" r=".5" fill="#40455a"></circle><path fill="#40455a" d="M24 18H8c-.3 0-.5-.2-.5-.5s.2-.5.5-.5h16c.3 0 .5.2.5.5s-.2.5-.5.5z"></path><path fill="#40455a" d="M26.5 26h-21C4.1 26 3 24.9 3 23.5v-8.3c0-.2.1-.4.3-.5.2-.1.4 0 .6.2C4.8 16.2 6.4 17 8 17c2.8 0 5-2.2 5-5v-.5c0-.1 0-.3.1-.4.1-.1.2-.2.4-.2h5.1c.1 0 .3.1.4.2.1.1.1.2.1.4v.5c0 2.8 2.2 5 5 5 1.6 0 3.2-.8 4.1-2.1.1-.2.4-.3.6-.2.2.1.3.3.3.5v8.3c-.1 1.4-1.2 2.5-2.6 2.5zM4 16.5v7c0 .8.7 1.5 1.5 1.5h21c.8 0 1.5-.7 1.5-1.5v-7c-1.1 1-2.5 1.5-4 1.5-3.3 0-6-2.7-6-6h-4c0 3.3-2.7 6-6 6-1.5 0-2.9-.6-4-1.5z"></path><path fill="#40455a" d="M12.5 26h-3c-.3 0-.5-.2-.5-.5v-3c0-.3.2-.5.5-.5h3c.3 0 .5.2.5.5v3c0 .3-.2.5-.5.5zM10 25h2v-2h-2v2z"></path><path fill="#40455a" d="M15.5 26h-3c-.3 0-.5-.2-.5-.5v-3c0-.3.2-.5.5-.5h3c.3 0 .5.2.5.5v3c0 .3-.2.5-.5.5zM13 25h2v-2h-2v2z"></path><path fill="#40455a" d="M18.5 26h-3c-.3 0-.5-.2-.5-.5v-3c0-.3.2-.5.5-.5h3c.3 0 .5.2.5.5v3c0 .3-.2.5-.5.5zM16 25h2v-2h-2v2z"></path><path fill="#40455a" d="M21.5 26h-3c-.3 0-.5-.2-.5-.5v-3c0-.3.2-.5.5-.5h3c.3 0 .5.2.5.5v3c0 .3-.2.5-.5.5zM19 25h2v-2h-2v2z"></path></svg>