<svg xmlns="http://www.w3.org/2000/svg" viewBox="0 0 32 32"><path fill="#e0e0e2" d="M25.08222,20.5l1.20632-1.80948a3.745,3.745,0,0,0,.59133-2.607h0a3.745,3.745,0,0,0-5.63412-2.68167L21.08222,13.5l-2.71-.71191,1.84863-1.10254a5.74471,5.74471,0,0,1,7.73242,8.11425l-3.00195,4.502Z"/><path fill="#2c2b2d" d="M24.95117,24.80176a.49056.49056,0,0,1-.15332-.02442.49966.49966,0,0,1-.34619-.49316l.13086-3.80176a.49363.49363,0,0,1,.0835-.25976l1.20654-1.80957a3.24546,3.24546,0,0,0-1.30615-4.73047,3.19593,3.19593,0,0,0-3.06348.14843l-.16455.09864a.50742.50742,0,0,1-.3833.05371l-2.71-.71192a.50005.50005,0,0,1-.1294-.91308l1.84864-1.10254a6.24488,6.24488,0,0,1,8.40478,8.82129l-3.002,4.502A.50118.50118,0,0,1,24.95117,24.80176Zm.62549-4.14258-.06543,1.90137,2.02588-3.03809a5.24254,5.24254,0,0,0-7.05908-7.4082l-.82666.49316,1.35449.35547a4.24488,4.24488,0,0,1,5.69873,6.00488Z"/><path fill="#fdd402" d="M15.58222,4V3.52683A3.02682,3.02682,0,0,1,18.609.5h0a3.02683,3.02683,0,0,1,3.02683,3.02683V4.012"/><path fill="#2c2b2d" d="M21.63574,4.51172a.49972.49972,0,0,1-.5-.5V3.52637a2.52686,2.52686,0,0,0-5.05371,0V4a.5.5,0,0,1-1,0V3.52637a3.52686,3.52686,0,0,1,7.05371,0v.48535A.49971.49971,0,0,1,21.63574,4.51172Z"/><path fill="#fdd402" d="M21.08221,31.5h-5a2,2,0,0,1-2-2V26.70653h9V29.5A2,2,0,0,1,21.08221,31.5Z"/><path fill="#2c2b2d" d="M21.082,32h-5a2.50263,2.50263,0,0,1-2.5-2.5V26.70605a.49972.49972,0,0,1,.5-.5h9a.49972.49972,0,0,1,.5.5V29.5A2.50263,2.50263,0,0,1,21.082,32Zm-6.5-4.79395V29.5a1.50164,1.50164,0,0,0,1.5,1.5h5a1.50164,1.50164,0,0,0,1.5-1.5V27.20605Z"/><path fill="#fdd402" d="M14.58222,25.5H11.90057a3,3,0,0,1-2.99416-2.81287L8.14082,10.43762A1,1,0,0,0,7.14277,9.5H3.08222l1-1.5-1-1.5,4.92171.6635a3,3,0,0,1,2.59679,2.85314L11.03236,20.802a1,1,0,0,0,.72274.89028L14.58222,22.5a1.5,1.5,0,0,1,0,3Z"/><path fill="#2c2b2d" d="M14.582,26H11.90039a3.50653,3.50653,0,0,1-3.49316-3.28125l-.76563-12.25A.50054.50054,0,0,0,7.14258,10H3.082a.49975.49975,0,0,1-.416-.77734L3.481,8,2.666,6.77734a.499.499,0,0,1-.00782-.542.50577.50577,0,0,1,.49073-.23047L8.0708,6.668a3.49464,3.49464,0,0,1,3.0293,3.3291l.43164,10.78516a.49957.49957,0,0,0,.36035.42968l2.76465.78907A2.00021,2.00021,0,0,1,14.582,26ZM4.01611,9H7.14258a1.50233,1.50233,0,0,1,1.49707,1.40625l.76562,12.25A2.50442,2.50442,0,0,0,11.90039,25H14.582a1,1,0,1,0,0-2,.50113.50113,0,0,1-.13721-.01953l-2.82714-.80762a1.50383,1.50383,0,0,1-1.084-1.335l-.43262-10.80176A2.49848,2.49848,0,0,0,7.937,7.6582L4.11182,7.14355l.38623.57911a.50055.50055,0,0,1,0,.55468Z"/><path fill="#fdd402" d="M16.59254,6.00331a3.09667,3.09667,0,0,0-.19913-.603A2.41228,2.41228,0,0,0,14.68783,4.006q3.474.003,6.94805.006c-.15627,4.54969-.27049,9.30956,1.7193,13.404.82373,1.695,2.01189,3.29652,2.17743,5.17381a5.76315,5.76315,0,0,1-2.42557,5.015,7.74717,7.74717,0,0,1-5.543,1.26682,7.49861,7.49861,0,0,1-4.28594-1.98793,5.382,5.382,0,0,1-1.6343-4.34752c.22885-1.95979,1.64571-3.53249,2.67065-5.21852a16.31821,16.31821,0,0,0,2.0376-5.44905A15.46978,15.46978,0,0,0,16.59254,6.00331Z"/><path fill="#2c2b2d" d="M18.70654,29.44824a9.02,9.02,0,0,1-1.20849-.081,8.00669,8.00669,0,0,1-4.57178-2.12793,5.851,5.851,0,0,1-1.7793-4.76074,9.71662,9.71662,0,0,1,1.9541-4.2168c.27-.39942.53956-.79883.78614-1.2041a15.74951,15.74951,0,0,0,1.97363-5.28125A15.224,15.224,0,0,0,16.105,6.11328h0a2.6272,2.6272,0,0,0-.1665-.50586,1.91061,1.91061,0,0,0-1.34619-1.11035.50025.50025,0,0,1,.0957-.99121h.00049l6.94775.00586a.49886.49886,0,0,1,.499.51758c-.146,4.26074-.312,9.09082,1.66944,13.168.21191.43652.44873.86621.68506,1.29589a10.44128,10.44128,0,0,1,1.541,4.05274,6.27119,6.27119,0,0,1-2.63037,5.46387A8.01067,8.01067,0,0,1,18.70654,29.44824ZM16.4209,4.50781a3.05633,3.05633,0,0,1,.42773.68555,3.637,3.637,0,0,1,.23194.69922h0a16.10068,16.10068,0,0,1-.23731,6.06933,16.74781,16.74781,0,0,1-2.10156,5.61524c-.25488.41894-.5332.83105-.812,1.24414a8.85753,8.85753,0,0,0-1.78955,3.77246,4.913,4.913,0,0,0,1.48925,3.93457,7.0152,7.0152,0,0,0,4.001,1.84863,7.27655,7.27655,0,0,0,5.18311-1.17675,5.25423,5.25423,0,0,0,2.22119-4.56641,9.552,9.552,0,0,0-1.4209-3.6582c-.24463-.44532-.48926-.88965-.7085-1.34082-2.0083-4.13282-1.92968-8.875-1.78662-13.123Z"/><path fill="#37b678" d="M25.22,24.81a32.0485,32.0485,0,0,1-6.02.69,31.79543,31.79543,0,0,1-7.25-.68,4.57627,4.57627,0,0,1-.32-2.07,31.89513,31.89513,0,0,0,7.57.75,31.86991,31.86991,0,0,0,6.34-.76A5.19485,5.19485,0,0,1,25.22,24.81Z"/><path fill="#2c2b2d" d="M18.542,26.00684a32.43626,32.43626,0,0,1-6.69531-.69727.50106.50106,0,0,1-.36182-.30566,5.0564,5.0564,0,0,1-.353-2.2959.501.501,0,0,1,.20214-.36133.50931.50931,0,0,1,.40528-.085A31.38839,31.38839,0,0,0,19.19043,23a31.31929,31.31929,0,0,0,6.23975-.748.50945.50945,0,0,1,.41113.08887.50153.50153,0,0,1,.19775.37109,5.66715,5.66715,0,0,1-.34961,2.26856.49875.49875,0,0,1-.36474.31836A32.45429,32.45429,0,0,1,19.21094,26Q18.87622,26.00732,18.542,26.00684ZM12.3252,24.3877A31.06948,31.06948,0,0,0,19.18994,25a31.53336,31.53336,0,0,0,5.647-.62109,4.74185,4.74185,0,0,0,.19678-1.01856A32.52928,32.52928,0,0,1,19.21,24a32.55135,32.55135,0,0,1-7.08691-.63379A4.12531,4.12531,0,0,0,12.3252,24.3877Zm12.89453.42187h0Z"/><path fill="#37b678" d="M21.64,4.01c-.03.79-.05,1.59-.07,2.38995v.1H16.68a4.02044,4.02044,0,0,0-.09-.5,2.6484,2.6484,0,0,0-.2-.6A2.4142,2.4142,0,0,0,14.69,4.01Z"/><path fill="#2c2b2d" d="M21.56982,7H16.68018a.5.5,0,0,1-.49659-.44141,3.62,3.62,0,0,0-.07861-.4375,2.27,2.27,0,0,0-.1665-.50683A1.92419,1.92419,0,0,0,14.59277,4.5a.49988.49988,0,0,1,.09717-.99023h6.9502a.49974.49974,0,0,1,.49951.51953c-.03027.78711-.04981,1.585-.06983,2.38379A.596.596,0,0,1,21.56982,7Zm-4.4663-1h3.97607c.0127-.49805.02588-.99609.04248-1.49023H16.41748a3.07463,3.07463,0,0,1,.42725.68261,3.11642,3.11642,0,0,1,.23535.71C17.08789,5.93359,17.0957,5.96582,17.10352,6Z"/></svg>
