<svg xmlns="http://www.w3.org/2000/svg" viewBox="0 0 32 32" id="PrayingManIcon"><polyline fill="#ffdaa7" points="13.666 6.818 12.149 9.725 15.385 10.916 16.365 8.935"></polyline><path fill="#2c2b2d" d="M15.38477,11.416a.48656.48656,0,0,1-.17286-.03125l-3.23632-1.19141a.49925.49925,0,0,1-.27051-.7002l1.51758-2.90625a.50013.50013,0,0,1,.88672.46289L12.85449,9.45215l2.28125.83984L15.917,8.71387a.50007.50007,0,1,1,.89649.44336L15.833,11.1377A.5003.5003,0,0,1,15.38477,11.416Z"></path><path fill="#ffdaa7" d="M15.167,8.94084,14.691,8.68678a3.22356,3.22356,0,0,1-1.32721-4.387l.964-1.77322a3.28348,3.28348,0,0,1,4.42725-1.31513l.47594.25406a3.22355,3.22355,0,0,1,1.32721,4.387l-.964,1.77321A3.28349,3.28349,0,0,1,15.167,8.94084Z"></path><path fill="#2c2b2d" d="M16.71094,9.82715a3.77514,3.77514,0,0,1-1.7793-.44531l-.47559-.25391A3.72188,3.72188,0,0,1,12.9248,4.06055l.96387-1.77246A3.791,3.791,0,0,1,18.99023.77051l.47657.2539a3.7233,3.7233,0,0,1,1.53125,5.06641L20.0332,7.86523A3.77428,3.77428,0,0,1,16.71094,9.82715ZM17.208,1.32422a2.77259,2.77259,0,0,0-2.44043,1.44043l-.96387,1.77344a2.7209,2.7209,0,0,0,1.123,3.707l.47558.2539h0a2.7838,2.7838,0,0,0,3.752-1.11132l.96484-1.77442A2.69587,2.69587,0,0,0,20.335,3.53711a2.72308,2.72308,0,0,0-1.33887-1.62988l-.47656-.25391A2.77882,2.77882,0,0,0,17.208,1.32422Z"></path><path fill="#e0e0e2" d="M14.46,2.35673l6.04827,3.58772.37479-1.14707a3.04422,3.04422,0,0,0-1.26594-3.51353l-.466-.2972a3.106,3.106,0,0,0-4.01993.589Z"></path><path fill="#2c2b2d" d="M20.50781,6.44434a.494.494,0,0,1-.25488-.07032L14.20508,2.78613a.49978.49978,0,0,1-.124-.75586L14.752,1.249a3.62035,3.62035,0,0,1,4.668-.68457l.4668.29883A3.54594,3.54594,0,0,1,21.3584,4.95313l-.375,1.14648a.50211.50211,0,0,1-.47559.34473ZM15.22754,2.23047l4.999,2.96582.18067-.55371a2.54634,2.54634,0,0,0-1.0586-2.93653l-.46679-.29882a2.61878,2.61878,0,0,0-3.37207.49414Z"></path><path fill="#58565d" d="M14.42572,2.32569,16.96,3.84A20.18909,20.18909,0,0,0,15.18,4.9a18.44978,18.44978,0,0,0-2.03,1.58l-.1.02a3.16094,3.16094,0,0,1,.31-2.2l.97-1.77Z"></path><path fill="#2c2b2d" d="M13.0498,7a.50046.50046,0,0,1-.48828-.3916,3.66946,3.66946,0,0,1,.35938-2.54688l1.05176-1.94726a.50038.50038,0,0,1,.71-.21778L17.2168,3.41016a.50058.50058,0,0,1-.02344.87207A19.63233,19.63233,0,0,0,15.457,5.31641a17.53863,17.53863,0,0,0-1.97265,1.53613.50149.50149,0,0,1-.23829.11914l-.10058.01953A.53691.53691,0,0,1,13.0498,7ZM14.626,3.02832,13.79883,4.54a2.67862,2.67862,0,0,0-.3086.99121c.45606-.37305.92188-.71875,1.41114-1.0459.34668-.23144.70019-.45215,1.05761-.66113Z"></path><path fill="#fff" d="M20.4942,31.5H5.91654V27.64017H7.38875l2.16542-1.01936,5.39915,1.01936,3.7843-3.39732,3.34169,3.81261A2.07855,2.07855,0,0,1,20.4942,31.5Z"></path><path fill="#2c2b2d" d="M20.49414,32H5.917a.49972.49972,0,0,1-.5-.5V27.64063a.49972.49972,0,0,1,.5-.5H7.27637L9.34082,26.169a.481.481,0,0,1,.30566-.03907l5.15625.97364,3.60059-3.23243a.47026.47026,0,0,1,.36426-.12695.49919.49919,0,0,1,.3457.16992l3.3418,3.8125a2.53793,2.53793,0,0,1,.41015,2.751A2.57149,2.57149,0,0,1,20.49414,32ZM6.417,31H20.49414a1.58632,1.58632,0,0,0,1.46-.93457,1.53048,1.53048,0,0,0-.251-1.67969l-3.00782-3.43261-3.4082,3.05957a.49739.49739,0,0,1-.42676.11914l-5.24023-.98926-2.01856.95019a.50213.50213,0,0,1-.21289.04786H6.417Z"></path><path fill="#fff" d="M12.08833,9.70793a2.67424,2.67424,0,0,1,.84163.03739,5.33772,5.33772,0,0,1,1.18341.30632,5.42317,5.42317,0,0,1,1.12215.58986c1.05474.72325,1.34123,2.09728,1.5833,3.26968q.0119.05764.02324.11541a12.48865,12.48865,0,0,1,.20524,1.56048c.09238,1.36357-.52272,2.25267-.93205,3.4738-.49893,1.48842.6637,2.90361,1.79071,3.75,1.51259,1.13592,3.31531,1.9546,4.14207,3.75645.14235.31023.61983,1.588-1.52185,1.68935-4.77707.226-4.52481.421-5.526.33269-2.30113-.203-2.69267-.92371-5.31076-1.00908a16.43825,16.43825,0,0,0-2.30064.05989c-.14644-.8407-.25185-1.64076-.39827-2.48146a20.39757,20.39757,0,0,1-.28458-2.5136,16.94192,16.94192,0,0,1,.04787-2.37278,15.53021,15.53021,0,0,1,.37478-2.24967,15.93045,15.93045,0,0,1,.69388-2.15736,18.23345,18.23345,0,0,1,1.00515-2.09582,27.55348,27.55348,0,0,1,2.0756-3.17275,2.69573,2.69573,0,0,1,.83661-.76589A1.15891,1.15891,0,0,1,12.08833,9.70793Z"></path><path fill="#2c2b2d" d="M15.42871,29.11133c-.14062,0-.28808-.00684-.47266-.02344a10.72236,10.72236,0,0,1-2.45019-.51074,9.35126,9.35126,0,0,0-2.833-.49707,16.17263,16.17263,0,0,0-2.22265.05664.492.492,0,0,1-.55372-.41016c-.07421-.42285-.13769-.83593-.20117-1.248-.0625-.40821-.125-.81641-.19726-1.2334a20.96364,20.96364,0,0,1-.291-2.5752,17.29275,17.29275,0,0,1,.04883-2.44336,15.99887,15.99887,0,0,1,.38769-2.32324,16.38349,16.38349,0,0,1,.71485-2.22363,18.86072,18.86072,0,0,1,1.03223-2.15332,27.9555,27.9555,0,0,1,2.11425-3.23145A3.1313,3.1313,0,0,1,11.502,9.3916,1.64985,1.64985,0,0,1,12,9.21582a2.73686,2.73686,0,0,1,.92676.02441,5.91275,5.91275,0,0,1,2.59082.98829c1.22656.84179,1.53906,2.36132,1.79,3.582l.02636.12793a12.95011,12.95011,0,0,1,.21192,1.61523,5.77245,5.77245,0,0,1-.60352,2.749c-.12011.292-.24414.5918-.35351.917-.49121,1.46582,1.11426,2.8125,1.61718,3.19043.3545.2666.72364.51367,1.09278.76172a8.04416,8.04416,0,0,1,3.20312,3.1875,1.636,1.636,0,0,1-.0039,1.54492,2.24773,2.24773,0,0,1-1.94825.85156c-2.55957.12109-3.64746.23144-4.29687.29687A7.96715,7.96715,0,0,1,15.42871,29.11133ZM8.92188,27.06738c.252,0,.51562.00391.78417.0127a10.35239,10.35239,0,0,1,3.09375.541,9.72236,9.72236,0,0,0,2.24415.47071,4.589,4.589,0,0,0,1.10839-.03418c.65918-.06641,1.76368-.17774,4.35059-.29981.59766-.02832,1.01367-.165,1.14062-.373a.74838.74838,0,0,0-.0498-.6084A7.19333,7.19333,0,0,0,18.74219,24.002c-.38379-.25683-.76856-.51562-1.13672-.792-1.70508-1.2793-2.43945-2.89062-1.96387-4.30859.11621-.34668.248-.668.377-.98047a4.84386,4.84386,0,0,0,.5293-2.29981,11.8383,11.8383,0,0,0-.19629-1.498l-.02246-.11133c-.22656-1.09863-.4834-2.34473-1.377-2.958a4.89757,4.89757,0,0,0-1.01758-.53516,4.84067,4.84067,0,0,0-1.07324-.27832,2.32258,2.32258,0,0,0-.6836-.04h-.002a.64672.64672,0,0,0-.19726.07031,2.17507,2.17507,0,0,0-.67579.627,27.02638,27.02638,0,0,0-2.03906,3.11621,17.83058,17.83058,0,0,0-.97754,2.03809,15.58521,15.58521,0,0,0-.67187,2.08887A15.07962,15.07962,0,0,0,7.252,20.31836a16.47879,16.47879,0,0,0-.04687,2.30273,20.25333,20.25333,0,0,0,.27734,2.45215c.07422.42383.1377.83887.20117,1.25293.04.25684.07911.51465.1211.77442C8.13379,27.07813,8.51367,27.06738,8.92188,27.06738ZM12.08789,9.708h0Z"></path><path fill="#ffdaa7" d="M5.91654,31.5V27.64017a2.64593,2.64593,0,0,0-1.416.39581,4.07906,4.07906,0,0,0-1.16644,1.54441A6.11617,6.11617,0,0,1,1.36308,31.5Z"></path><path fill="#2c2b2d" d="M5.917,32H1.36328a.49957.49957,0,0,1-.26758-.92187,5.70758,5.70758,0,0,0,1.81446-1.7627c.08691-.13965.16308-.27539.23632-.40723a3.25045,3.25045,0,0,1,1.082-1.291,3.09852,3.09852,0,0,1,1.68164-.47656H5.917a.50011.50011,0,0,1,.5.5V31.5A.49971.49971,0,0,1,5.917,32ZM2.81445,31H5.417V28.19434a1.901,1.901,0,0,0-.64258.26074,2.33932,2.33932,0,0,0-.75488.94043c-.081.14648-.166.29687-.26172.45019A6.0845,6.0845,0,0,1,2.81445,31Z"></path><path fill="#fff" d="M13.69585,12.17986l4.66758,2.40719L21.23468,10.786l2.7494.25344L21.00374,16.906A2.85612,2.85612,0,0,1,17.203,18.1649L11.8416,15.53783"></path><path fill="#2c2b2d" d="M18.4541,18.95508a3.33178,3.33178,0,0,1-1.4707-.34082l-5.36133-2.627a.50007.50007,0,0,1,.43945-.89843l5.36133,2.627a2.36177,2.36177,0,0,0,3.13574-1.03613l2.64649-5.21-1.73926-.16016-2.70312,3.5791a.50157.50157,0,0,1-.62891.14258L13.4668,12.624a.5001.5001,0,1,1,.459-.88867l4.292,2.21387L20.835,10.48438a.50672.50672,0,0,1,.44531-.19629l2.75.25293a.49968.49968,0,0,1,.39942.72461l-2.98047,5.86718A3.357,3.357,0,0,1,18.4541,18.95508Z"></path><path fill="#ffdaa7" d="M21.445,10.80536a10.66391,10.66391,0,0,0,.70831-1.99382c.18882-.76527,1.27926-1.83532,1.77062-1.74368a10.87464,10.87464,0,0,1-.25373,3.94263l-2.079-.19165"></path><path fill="#2c2b2d" d="M23.66992,11.51074c-.01465,0-.03027-.001-.0459-.002l-2.0791-.19238a.39587.39587,0,0,1-.06933-.01172.46859.46859,0,0,1-.24317-.04688.49882.49882,0,0,1-.23926-.665A10.24439,10.24439,0,0,0,21.668,8.69238c.21582-.875,1.49707-2.28027,2.34668-2.11621a.4975.4975,0,0,1,.40527.43262,11.39587,11.39587,0,0,1,.0459,2.21191,11.198,11.198,0,0,1-.31152,1.91309A.49978.49978,0,0,1,23.66992,11.51074Zm-1.49219-1.14062,1.10352.10254a10.14073,10.14073,0,0,0,.1875-1.32715,10.29972,10.29972,0,0,0,.01465-1.36719,2.72172,2.72172,0,0,0-.84473,1.15234A11.11221,11.11221,0,0,1,22.17773,10.37012Z"></path></svg>
