<svg xmlns="http://www.w3.org/2000/svg" id="Layer_1" viewBox="0 0 32 32"><ellipse cx="24" cy="10" fill="#67acd5" rx="7.5" ry="7.5" transform="rotate(-45.001 24.002 9.989)"/><ellipse cx="25.4" cy="8.6" fill="#fff" rx="2.5" ry="2.5" transform="rotate(-45.001 25.414 8.584)"/><path fill="#5c5e70" d="M5.5 12v1.5h-1c-.6 0-1-.4-1-1v-1c0-.6.4-1 1-1H5M16.5 12v1.5h1c.6 0 1-.4 1-1v-1c0-.6-.4-1-1-1H17"/><path fill="#a17852" d="M16.2 11.3h.3l1-2.8c.3-1.3-.7-2.5-2-2.5 0-1.5-1.4-2.7-2.9-2.4l-6 1c-1.4.1-2.3 1.5-2.1 2.9l1 3.8h.3"/><path fill="#a95d8a" d="M8.1 20.3l-4.7 1.6c-1.7.6-2.9 2.2-2.9 4v3.7h21v-3.7c0-1.8-1.2-3.4-2.9-4l-4.7-1.6"/><path fill="#814f80" d="M21.5 29.5v-3.7c0-.8-.2-1.5-.6-2.2-2.5.3-4.4 2.4-4.4 5v.8h5zM.5 29.5v-3.7c0-.8.2-1.5.6-2.2 2.5.3 4.4 2.4 4.4 5v.8h-5z"/><path fill="#fed8aa" d="M16.1 11.3c-.5 0-.9-.4-.9-.9V8.7c0-.4-.4-.6-.7-.3-1.7 1.3-4 1.8-6.1 1.4l-.8-.2c-.5 0-.9.4-.9.9s-.4.9-.9.9h-.3V13c0 3 2.5 5.5 5.5 5.5s5.5-2.5 5.5-5.5v-1.7h-.4z"/><path fill="#fed8aa" d="M8.1 17.8v2.1c0 1.6 2.9 2.9 2.9 2.9s2.9-1.3 2.9-2.9v-2.1"/><path fill="#40455a" d="M11 23.3h-.2c-.3-.1-3.2-1.5-3.2-3.4v-2.1c0-.3.2-.5.5-.5s.5.2.5.5v2.1c0 1 1.6 2 2.4 2.4.8-.4 2.4-1.4 2.4-2.4v-2.1c0-.3.2-.5.5-.5s.5.2.5.5v2.1c0 1.9-2.9 3.2-3.2 3.4H11z"/><path fill="#40455a" d="M11 19c-3.3 0-6-2.7-6-6v-1.5c0-.3.2-.5.5-.5s.5.2.5.5V13c0 2.8 2.2 5 5 5s5-2.2 5-5v-1.5c0-.3.2-.5.5-.5s.5.2.5.5V13c0 3.3-2.7 6-6 6z"/><path fill="#40455a" d="M16.5 11.8h-.3c-.3 0-.5-.2-.5-.5s.2-.5.4-.5l.9-2.5c.1-.4 0-.9-.3-1.2-.3-.4-.7-.6-1.2-.6-.3 0-.5-.2-.5-.5 0-.6-.3-1.2-.7-1.6-.4-.4-1-.5-1.6-.4l-6 1c-.5.1-1 .4-1.3.8-.3.5-.5 1-.4 1.6l.9 3.4c.2 0 .4.2.4.5s-.2.5-.5.5h-.3c-.2 0-.4-.2-.5-.4L4 7.6c-.2-.8 0-1.6.5-2.3.5-.7 1.2-1.1 2-1.3l6-1c.9-.1 1.7.1 2.4.7.6.5.9 1.2 1 1.9.6.1 1.1.4 1.5.9.5.6.7 1.4.5 2.1l-1 2.8c0 .2-.2.4-.4.4z"/><path fill="#40455a" d="M16.4 11.8h-.3c-.7 0-1.4-.6-1.4-1.4V8.9c-1.8 1.3-4.2 1.8-6.4 1.4l-.9-.2c-.1 0-.3.2-.3.4 0 .7-.6 1.4-1.4 1.4h-.1c-.3 0-.5-.2-.5-.5s.2-.5.5-.5h.3c.2 0 .4-.2.4-.4 0-.7.6-1.4 1.4-1.4l1 .2c2 .4 4.1-.1 5.7-1.3.3-.2.7-.2 1-.1.3.2.5.5.5.8v1.7c0 .2.2.4.4.4h.3c.3 0 .5.2.5.5s-.4.5-.7.5zM21.5 30H.5c-.3 0-.5-.2-.5-.5v-3.7c0-2 1.3-3.8 3.2-4.5l4.7-1.6c.3-.1.5.1.6.3.1.3-.1.5-.3.6l-4.7 1.6c-1.5.6-2.5 2-2.5 3.6V29h20v-3.2c0-1.6-1-3-2.5-3.5l-4.7-1.6c-.3-.1-.4-.4-.3-.6s.4-.4.6-.3l4.7 1.6c1.9.6 3.2 2.4 3.2 4.5v3.7c0 .2-.2.4-.5.4z"/><path fill="#40455a" d="M21.5 30h-5c-.3 0-.5-.2-.5-.5v-.8c0-2.8 2.1-5.2 4.9-5.5.2 0 .4.1.5.2.4.7.7 1.6.7 2.4v3.7c-.1.3-.3.5-.6.5zM17 29h4v-3.2c0-.5-.1-1.1-.4-1.6-2.1.4-3.7 2.3-3.7 4.5v.3zM5.5 30h-5c-.3 0-.5-.2-.5-.5v-3.7c0-.8.2-1.7.7-2.4.1-.2.3-.3.5-.2 2.7.3 4.8 2.7 4.8 5.5v.8c0 .3-.2.5-.5.5zM1 29h4v-.3c0-2.2-1.6-4-3.7-4.5-.2.5-.3 1.1-.3 1.6V29zM16 16.6h-3.5c-.3 0-.5-.2-.5-.5s.2-.5.5-.5H16c1.1 0 2-.9 2-2v-1.7c0-.3.2-.5.5-.5s.5.2.5.5v1.7c0 1.6-1.4 3-3 3zM5.5 14h-1c-.8 0-1.5-.7-1.5-1.5v-1c0-.8.7-1.5 1.5-1.5H5c.3 0 .5.2.5.5s-.2.5-.5.5h-.5c-.3 0-.5.2-.5.5v1c0 .3.2.5.5.5H5v-1c0-.3.2-.5.5-.5s.5.2.5.5v1.5c0 .3-.2.5-.5.5z"/><path fill="#40455a" d="M17.5 14h-1c-.3 0-.5-.2-.5-.5V12c0-.3.2-.5.5-.5s.5.2.5.5v1h.5c.3 0 .5-.2.5-.5v-1c0-.3-.2-.5-.5-.5H17c-.3 0-.5-.2-.5-.5s.2-.5.5-.5h.5c.8 0 1.5.7 1.5 1.5v1c0 .8-.7 1.5-1.5 1.5z"/><path fill="#40455a" d="M24 18c-1.7 0-3.2-.5-4.6-1.5-.2-.2-.3-.5-.1-.7.2-.2.5-.3.7-.1 1.2.8 2.6 1.3 4 1.3 3.9 0 7-3.1 7-7s-3.1-7-7-7c-2.1 0-4 .9-5.4 2.5-.2.2-.5.2-.7.1-.2-.2-.2-.5-.1-.7C19.4 3 21.6 2 24 2c4.4 0 8 3.6 8 8s-3.6 8-8 8z"/><path fill="#40455a" d="M25.4 11.6c-.8 0-1.6-.3-2.1-.9-.6-.6-.9-1.3-.9-2.1s.3-1.6.9-2.1c1.1-1.1 3.1-1.1 4.2 0 .6.6.9 1.3.9 2.1s-.3 1.6-.9 2.1c-.5.6-1.3.9-2.1.9zm0-5c-.5 0-1 .2-1.4.6s-.6.8-.6 1.4.2 1 .6 1.4c.8.8 2.1.8 2.8 0 .4-.4.6-.9.6-1.4s-.2-1-.6-1.4c-.3-.4-.9-.6-1.4-.6zm1.8 3.8z"/><path fill="#40455a" d="M20.8 13.7c-.1 0-.3 0-.4-.1-.2-.2-.2-.5 0-.7l2.8-2.8c.2-.2.5-.2.7 0s.2.5 0 .7l-2.8 2.8s-.2.1-.3.1z"/></svg>