<svg xmlns="http://www.w3.org/2000/svg" version="1.1" x="0px" y="0px" viewBox="0 0 48 48" xml space="preserve" id="LegIcon"><style type="text/css"></style><symbol id="New_Symbol_14" viewBox="-6.5 -6.5 13 13"><path class="st0" d="M0-6c2.2 0 4.1 1.5 4.7 3.5C6.3-2.5 6.4 0 5 0v1c0 2.8-2.2 5-5 5s-5-2.2-5-5V0c-1.4 0-1.3-2.5.2-2.5C-4.1-4.5-2.2-6 0-6z" fill="#FFD4C3" stroke="#504B46" stroke-linecap="round" stroke-linejoin="round" stroke-miterlimit="10"></path><circle class="st1" cx="-1.6" cy="-0.1" r="0.1" fill="#FFC258"></circle><path class="st2" d="M-1.6.5c-.3 0-.6-.3-.6-.6s.2-.7.6-.7c.3 0 .6.3.6.7s-.3.6-.6.6z" fill="#4F4B45"></path><circle class="st1" cx="1.6" cy="-0.1" r="0.1" fill="#FFC258"></circle><path class="st2" d="M1.6.5C1.3.5 1 .2 1-.1s.3-.6.6-.6.6.3.6.6-.2.6-.6.6z" fill="#4F4B45"></path><circle class="st3" cx="-3" cy="-1.5" r="0.5" fill="#FABFA5"></circle><circle class="st3" cx="3" cy="-1.5" r="0.5" fill="#FABFA5"></circle><path class="st4" d="M-1.2-3c.8-.5 1.7-.5 2.5 0" fill="none" stroke="#504B46" stroke-linecap="round" stroke-linejoin="round" stroke-miterlimit="10"></path></symbol><g id="Icons"><g id="XMLID_1975_"><path id="XMLID_507_" class="st41" d="M11.5 11.2l4 5.1 3-2.4-4-5.1c-1.3-1.7-.1-3.7-1.8-5.9-1-1.3-1.7-1-2.6-.3C9 3.5 9 4.9 9 4.9s-1.4-.3-2.5.6c-.9.7-1.1 1.5-.3 2.6 1.9 2.4 3.6 1 5.3 3.1z" fill="#F0F0F0"></path><path id="XMLID_506_" class="st17" d="M6.6 8.5C7.7 7.6 9 7.9 9 7.9s0-1.4 1.1-2.3c.9-.7 1.7-.5 2.6.3.4.4.8.8 1.1 1.2-.2-1.3 0-2.7-1.1-4.1-1-1.3-1.7-1-2.6-.3C9 3.5 9 4.9 9 4.9s-1.4-.3-2.5.6c-.9.7-1.1 1.5-.3 2.6l.4.4z" fill="#FFF"></path><path id="XMLID_505_" class="st10" d="M11.5 11.2l4 5.1 3-2.4-4-5.1c-1.3-1.7-.1-3.7-1.8-5.9-1-1.3-1.7-1-2.6-.3C9 3.5 9 4.9 9 4.9s-1.4-.3-2.5.6c-.9.7-1.1 1.5-.3 2.6 1.9 2.4 3.6 1 5.3 3.1z" fill="none" stroke="#45413C" stroke-linecap="round" stroke-linejoin="round" stroke-miterlimit="10"></path><ellipse id="XMLID_504_" class="st5" cx="25.8" cy="44.4" rx="12" ry="1.6" fill="#45413C" opacity="0.15"></ellipse><path id="XMLID_503_" class="st37" d="M20.8 39.3c4.1 5.2 11.6 6.1 16.8 2 5.2-4.1 6.1-11.6 2-16.8-4.8-6.1-16.6-8.4-16.7-8.6-1.3-1.7-1.4-2.6-1.4-2.9 0-.2 0-.4-.2-.5-.4-.6-1.2-.8-1.9-.6-1 .4-1.4 1.2-1.3 2-.6-.2-1.3-.1-1.8.3s-.8 1.1-.7 1.7c-.7-.3-1.5-.1-2.1.6-.6.7-.6 1.6-.1 2.2.1.1.3.3.5.3.4.1 1.2.4 2.5 2.1.2.2-.5 12 4.4 18.2z" fill="#BF8256"></path><path id="XMLID_502_" class="st37" d="M20.8 39.3c4.1 5.2 11.6 6.1 16.8 2 5.2-4.1 6.1-11.6 2-16.8-4.8-6.1-16.6-8.4-16.7-8.6-1.3-1.7-1.4-2.6-1.4-2.9 0-.2 0-.4-.2-.5-.4-.6-1.2-.8-1.9-.6-1 .4-1.4 1.2-1.3 2-.6-.2-1.3-.1-1.8.3s-.8 1.1-.7 1.7c-.7-.3-1.5-.1-2.1.6-.6.7-.6 1.6-.1 2.2.1.1.3.3.5.3.4.1 1.2.4 2.5 2.1.2.2-.5 12 4.4 18.2z" fill="#BF8256"></path><path id="XMLID_501_" class="st38" d="M13.8 19c.3 0 .9.3 1.7 1.1 0-.5.3-1 .7-1.3.5-.4 1.2-.5 1.8-.3-.1-.8.4-1.7 1.3-2 .7-.3 1.5 0 1.9.6.1.1.2.3.2.5 0 .4.1 1.3 1.4 2.9.2.2 11.9 2.6 16.7 8.6 1.2 1.5 2 3.3 2.3 5.1.6-3.3-.1-6.8-2.3-9.6-4.8-6.1-16.6-8.4-16.7-8.6-1.3-1.7-1.4-2.6-1.4-2.9 0-.2 0-.4-.2-.5-.4-.6-1.2-.8-1.9-.6-1 .4-1.4 1.2-1.3 2-.6-.2-1.3-.1-1.8.3s-.8 1.1-.7 1.7c-.7-.3-1.5-.1-2.1.6-.6.7-.6 1.6-.1 2.2.2 0 .3.1.5.2z" fill="#DEA47A"></path><path id="XMLID_500_" class="st10" d="M20.8 39.3c4.1 5.2 11.6 6.1 16.8 2 5.2-4.1 6.1-11.6 2-16.8-4.8-6.1-16.6-8.4-16.7-8.6-1.3-1.7-1.4-2.6-1.4-2.9 0-.2 0-.4-.2-.5-.4-.6-1.2-.8-1.9-.6-1 .4-1.4 1.2-1.3 2-.6-.2-1.3-.1-1.8.3s-.8 1.1-.7 1.7c-.7-.3-1.5-.1-2.1.6-.6.7-.6 1.6-.1 2.2.1.1.3.3.5.3.4.1 1.2.4 2.5 2.1.2.2-.5 12 4.4 18.2z" fill="none" stroke="#45413C" stroke-linecap="round" stroke-linejoin="round" stroke-miterlimit="10"></path></g></g></svg>
