<svg xmlns="http://www.w3.org/2000/svg" version="1.1" x="0px" y="0px" viewBox="0 0 48 48" xml:space="preserve"><style type="text/css">.st0{fill:#FFD4C3;stroke:#504B46;stroke-linecap:round;stroke-linejoin:round;stroke-miterlimit:10;} .st1{fill:#FFC258;} .st2{fill:#4F4B45;} .st3{fill:#FABFA5;} .st4{fill:none;stroke:#504B46;stroke-linecap:round;stroke-linejoin:round;stroke-miterlimit:10;} .Graphic_x0020_Style{opacity:0.15;fill:#45413C;} .st5{opacity:0.15;fill:#45413C;} .st6{fill:#DEBB7E;stroke:#45413C;stroke-linecap:round;stroke-linejoin:round;stroke-miterlimit:10;} .st7{fill:#F0D5A8;} .st8{fill:#F7E5C6;} .st9{fill:#DEBB7E;} .st10{fill:none;stroke:#45413C;stroke-linecap:round;stroke-linejoin:round;stroke-miterlimit:10;} .st11{fill:#FFE500;} .st12{fill:#EBCB00;} .st13{fill:none;stroke:#EBCB00;stroke-linecap:round;stroke-linejoin:round;stroke-miterlimit:10;} .st14{fill:#FF6242;stroke:#45413C;stroke-linecap:round;stroke-linejoin:round;stroke-miterlimit:10;} .st15{fill:#FFFFFF;stroke:#45413C;stroke-linecap:round;stroke-linejoin:round;stroke-miterlimit:10;} .st16{fill:#E5F8FF;} .st17{fill:#FFFFFF;} .st18{fill:#E8F4FA;} .st19{fill:#E8F4FA;stroke:#45413C;stroke-linecap:round;stroke-linejoin:round;stroke-miterlimit:10;} .st20{fill:#FFCCDD;} .st21{fill:#FFB0CA;stroke:#45413C;stroke-linecap:round;stroke-linejoin:round;stroke-miterlimit:10;} .st22{fill:#FF87AF;stroke:#45413C;stroke-linecap:round;stroke-linejoin:round;stroke-miterlimit:10;} .st23{fill:#E5F8FF;stroke:#45413C;stroke-linecap:round;stroke-linejoin:round;stroke-miterlimit:10;} .st24{fill:#BF8256;stroke:#45413C;stroke-linecap:round;stroke-linejoin:round;stroke-miterlimit:10;} .st25{fill:#9CEB60;} .st26{fill:#6DD627;} .st27{fill:#C8FFA1;} .st28{fill:#FFFACF;} .st29{fill:#FF87AF;} .st30{fill:#FFB0CA;} .st31{fill:#FF6196;} .st32{fill:#FFCCDD;stroke:#45413C;stroke-linecap:round;stroke-linejoin:round;stroke-miterlimit:10;} .st33{fill:#FF6196;stroke:#45413C;stroke-linecap:round;stroke-linejoin:round;stroke-miterlimit:10;} .st34{fill:#FFE5EE;} .st35{fill:#00B8F0;} .st36{fill:#4ACFFF;} .st37{fill:#BF8256;} .st38{fill:#DEA47A;} .st39{fill:#915E3A;} .st40{fill:#FFF5E3;} .st41{fill:#F0F0F0;} .st42{fill:#8CA4B8;} .st43{fill:#627B8C;} .st44{fill:#C0DCEB;} .st45{fill:#FFF48C;} .st46{fill:#FFE500;stroke:#45413C;stroke-linecap:round;stroke-linejoin:round;stroke-miterlimit:10;} .st47{fill:#FFAA54;} .st48{fill:#6DD627;stroke:#45413C;stroke-linecap:round;stroke-linejoin:round;stroke-miterlimit:10;} .st49{fill:#FF8A14;} .st50{fill:#FFCC99;} .st51{fill:#EBCB00;stroke:#45413C;stroke-linecap:round;stroke-linejoin:round;stroke-miterlimit:10;} .st52{fill:#00F5BC;stroke:#45413C;stroke-linecap:round;stroke-linejoin:round;stroke-miterlimit:10;} .st53{fill:#BF8DF2;stroke:#45413C;stroke-linecap:round;stroke-linejoin:round;stroke-miterlimit:10;} .st54{fill:#FF8A14;stroke:#45413C;stroke-linecap:round;stroke-linejoin:round;stroke-miterlimit:10;} .st55{fill:#4AEFF7;stroke:#45413C;stroke-linecap:round;stroke-linejoin:round;stroke-miterlimit:10;} .st56{fill:#FFF48C;stroke:#45413C;stroke-linecap:round;stroke-linejoin:round;stroke-miterlimit:10;} .st57{fill:#FF6242;} .st58{fill:#E04122;} .st59{fill:#46B000;} .st60{fill:none;stroke:#45413C;stroke-miterlimit:10;} .st61{fill:#00B8F0;stroke:#45413C;stroke-linecap:round;stroke-linejoin:round;stroke-miterlimit:10;} .st62{fill:#FF866E;} .st63{fill:#9F5AE5;stroke:#45413C;stroke-linecap:round;stroke-linejoin:round;stroke-miterlimit:10;} .st64{fill:#E4FFD1;} .st65{fill:#FFFEF2;} .st66{fill:#B89558;} .st67{fill:none;stroke:#915E3A;stroke-linecap:round;stroke-linejoin:round;stroke-miterlimit:10;} .st68{fill:#915E3A;stroke:#45413C;stroke-linecap:round;stroke-linejoin:round;stroke-miterlimit:10;} .st69{fill:#BF8DF2;} .st70{fill:#9F5AE5;} .st71{fill:#DABFF5;} .st72{fill:none;stroke:#45413C;stroke-linejoin:round;stroke-miterlimit:10;} .st73{fill:#656769;} .st74{fill:#87898C;} .st75{fill:#E0E0E0;} .st76{fill:#BDBEC0;} .st77{fill:#656769;stroke:#45413C;stroke-linecap:round;stroke-linejoin:round;stroke-miterlimit:10;} .st78{fill:#45413C;stroke:#45413C;stroke-linecap:round;stroke-linejoin:round;stroke-miterlimit:10;} .st79{fill:#FFA694;} .st80{fill:#E04122;stroke:#45413C;stroke-linecap:round;stroke-linejoin:round;stroke-miterlimit:10;} .st81{fill:#E0E0E0;stroke:#45413C;stroke-linecap:round;stroke-linejoin:round;stroke-miterlimit:10;} .st82{fill:#F0F0F0;stroke:#45413C;stroke-linecap:round;stroke-linejoin:round;stroke-miterlimit:10;} .st83{fill:#DAEDF7;} .st84{fill:#BDBEC0;stroke:#45413C;stroke-linecap:round;stroke-linejoin:round;stroke-miterlimit:10;} .st85{fill:#87898C;stroke:#45413C;stroke-linecap:round;stroke-linejoin:round;stroke-miterlimit:10;} .st86{fill:#00DFEB;} .st87{fill:#4AEFF7;} .st88{fill:#DAEDF7;stroke:#45413C;stroke-linecap:round;stroke-linejoin:round;stroke-miterlimit:10;} .st89{fill:#FFDA8F;} .st90{fill:#FFBE3D;} .st91{fill:#FFE9BD;} .st92{fill:#DEA47A;stroke:#45413C;stroke-linecap:round;stroke-linejoin:round;stroke-miterlimit:10;} .st93{fill:#45413C;} .st94{fill:#F0C2A1;} .st95{fill:none;stroke:#45413C;stroke-width:1.0064;stroke-linecap:round;stroke-linejoin:round;stroke-miterlimit:10;} .st96{fill:#525252;} .st97{fill:#EB6D00;stroke:#45413C;stroke-linecap:round;stroke-linejoin:round;stroke-miterlimit:10;} .st98{fill:#EB6D00;} .st99{fill:#E5FEFF;} .st100{fill:#FF866E;stroke:#45413C;stroke-linecap:round;stroke-linejoin:round;stroke-miterlimit:10;} .st101{fill:#627B8C;stroke:#45413C;stroke-linecap:round;stroke-linejoin:round;stroke-miterlimit:10;} .st102{fill:#FFFCE5;stroke:#45413C;stroke-linecap:round;stroke-linejoin:round;stroke-miterlimit:10;} .st103{fill:#A6FBFF;} .st104{fill:#D9FDFF;} .st105{fill:#FFFACF;stroke:#45413C;stroke-linecap:round;stroke-linejoin:round;stroke-miterlimit:10;} .st106{fill:#B8ECFF;} .st107{fill:#FFCABF;} .st108{fill:#E5FFF9;} .st109{fill:#C8FFA1;stroke:#45413C;stroke-linecap:round;stroke-linejoin:round;stroke-miterlimit:10;} .st110{fill:#4CF4FC;} .st111{fill:#F0D5A8;stroke:#45413C;stroke-linecap:round;stroke-linejoin:round;stroke-miterlimit:10;} .st112{fill:#FFDCD1;stroke:#45413C;stroke-linecap:round;stroke-linejoin:round;stroke-miterlimit:10;} .st113{fill:#80DDFF;} .st114{fill:#46B000;stroke:#45413C;stroke-linecap:round;stroke-linejoin:round;stroke-miterlimit:10;} .st115{fill:#4ACFFF;stroke:#45413C;stroke-linecap:round;stroke-linejoin:round;stroke-miterlimit:10;} .st116{fill:#ADC4D9;} .st117{fill:#BDBEC0;stroke:#45413C;stroke-width:1.0064;stroke-linecap:round;stroke-linejoin:round;stroke-miterlimit:10;} .st118{fill:#FFFCE5;} .st119{fill:#947746;} .st120{fill:#525252;stroke:#45413C;stroke-linecap:round;stroke-linejoin:round;stroke-miterlimit:10;}</style><symbol id="New_Symbol_14" viewBox="-6.5 -6.5 13 13"><path class="st0" d="M0-6c2.2 0 4.1 1.5 4.7 3.5C6.3-2.5 6.4 0 5 0v1c0 2.8-2.2 5-5 5s-5-2.2-5-5V0c-1.4 0-1.3-2.5.2-2.5C-4.1-4.5-2.2-6 0-6z" fill="#FFD4C3" stroke="#504B46" stroke-linecap="round" stroke-linejoin="round" stroke-miterlimit="10"/><circle class="st1" cx="-1.6" cy="-0.1" r="0.1" fill="#FFC258"/><path class="st2" d="M-1.6.5c-.3 0-.6-.3-.6-.6s.2-.7.6-.7c.3 0 .6.3.6.7s-.3.6-.6.6z" fill="#4F4B45"/><circle class="st1" cx="1.6" cy="-0.1" r="0.1" fill="#FFC258"/><path class="st2" d="M1.6.5C1.3.5 1 .2 1-.1s.3-.6.6-.6.6.3.6.6-.2.6-.6.6z" fill="#4F4B45"/><circle class="st3" cx="-3" cy="-1.5" r="0.5" fill="#FABFA5"/><circle class="st3" cx="3" cy="-1.5" r="0.5" fill="#FABFA5"/><path class="st4" d="M-1.2-3c.8-.5 1.7-.5 2.5 0" fill="none" stroke="#504B46" stroke-linecap="round" stroke-linejoin="round" stroke-miterlimit="10"/></symbol><g id="Icons"><g id="XMLID_1147_"><ellipse id="XMLID_105_" class="st5" cx="23.8" cy="44.6" rx="13.5" ry="1.5" fill="#45413C" opacity="0.15"/><g id="XMLID_556_"><g id="XMLID_581_"><ellipse id="XMLID_585_" transform="matrix(0.967 -0.2547 0.2547 0.967 -3.4003 4.1004)" class="st11" cx="14.1" cy="15.2" rx="8.2" ry="8.2" fill="#FFE500"/><path id="XMLID_584_" class="st12" d="M12.8 7.1c3.8-.6 7.5 1.8 8.5 5.6 1.1 4.1-1.4 8.2-5.4 9.3-4.1 1.1-8.2-1.4-9.3-5.4-1-3.8 1.1-7.7 4.7-9-3.9 1.4-6.2 5.7-5.1 9.8 1.2 4.4 5.6 7 10 5.8s7-5.6 5.8-10c-1-4.2-5.1-6.8-9.2-6.1z" fill="#EBCB00"/><ellipse id="XMLID_583_" transform="matrix(0.967 -0.2547 0.2547 0.967 -3.4003 4.1004)" class="st10" cx="14.1" cy="15.2" rx="8.2" ry="8.2" fill="none" stroke="#45413C" stroke-linecap="round" stroke-linejoin="round" stroke-miterlimit="10"/><ellipse id="XMLID_582_" transform="matrix(0.967 -0.2547 0.2547 0.967 -1.8833 3.4832)" class="st45" cx="12.5" cy="9" rx="2.4" ry="0.6" fill="#FFF48C"/></g><g id="XMLID_567_"><path id="XMLID_580_" class="st46" d="M11.8 2.6c-.1-.5-.6-.8-1.1-.6s-.8.6-.7 1.1l.5 1.8c.1.5.6.8 1.1.6.5-.1.8-.6.6-1.1l-.4-1.8z" fill="#FFE500" stroke="#45413C" stroke-linecap="round" stroke-linejoin="round" stroke-miterlimit="10"/><path id="XMLID_579_" class="st46" d="M3.6 8c-.4-.3-1-.1-1.2.3-.3.4-.1 1 .3 1.2l1.6.9c.4.3 1 .1 1.2-.3.3-.4.1-1-.3-1.2L3.6 8z" fill="#FFE500" stroke="#45413C" stroke-linecap="round" stroke-linejoin="round" stroke-miterlimit="10"/><path id="XMLID_578_" class="st46" d="M1.6 17.5c-.5.1-.8.6-.6 1.1s.6.8 1.1.6l1.8-.5c.5-.1.8-.6.6-1.1a.8.8 0 0 0-1.1-.6l-1.8.5z" fill="#FFE500" stroke="#45413C" stroke-linecap="round" stroke-linejoin="round" stroke-miterlimit="10"/><path id="XMLID_577_" class="st46" d="M6.9 25.7c-.3.4-.1 1 .3 1.2.4.3 1 .1 1.2-.3l.9-1.6c.3-.4.1-1-.3-1.2-.4-.3-1-.1-1.2.3l-.9 1.6z" fill="#FFE500" stroke="#45413C" stroke-linecap="round" stroke-linejoin="round" stroke-miterlimit="10"/><path id="XMLID_571_" class="st46" d="M16.5 27.7c.1.5.6.8 1.1.6.5-.1.8-.6.6-1.1l-.5-1.8a.8.8 0 0 0-1.1-.6c-.4.2-.7.7-.6 1.2l.5 1.7z" fill="#FFE500" stroke="#45413C" stroke-linecap="round" stroke-linejoin="round" stroke-miterlimit="10"/><path id="XMLID_570_" class="st46" d="M24.7 22.4c.4.3 1 .1 1.2-.3.3-.4.1-1-.3-1.2l-1.6-1c-.4-.3-1-.1-1.2.3-.3.4-.1 1 .3 1.2l1.6 1z" fill="#FFE500" stroke="#45413C" stroke-linecap="round" stroke-linejoin="round" stroke-miterlimit="10"/><path id="XMLID_569_" class="st46" d="M26.7 12.8c.5-.1.8-.6.6-1.1a.8.8 0 0 0-1.1-.6l-1.8.5c-.5.1-.8.6-.6 1.1.1.5.6.8 1.1.6l1.8-.5z" fill="#FFE500" stroke="#45413C" stroke-linecap="round" stroke-linejoin="round" stroke-miterlimit="10"/><path id="XMLID_568_" class="st46" d="M21.3 4.6c.3-.4.1-1-.3-1.2-.4-.3-1-.1-1.2.3l-.9 1.6c-.3.4-.1 1 .3 1.2.4.3 1 .1 1.2-.3l.9-1.6z" fill="#FFE500" stroke="#45413C" stroke-linecap="round" stroke-linejoin="round" stroke-miterlimit="10"/></g><g id="XMLID_557_"><ellipse id="XMLID_566_" transform="matrix(0.967 -0.2547 0.2547 0.967 -3.8997 2.8721)" class="st47" cx="9.1" cy="16.5" rx="0.9" ry="0.6" fill="#FFAA54"/><g id="XMLID_563_"><path id="XMLID_565_" class="st21" d="M16.8 16c.4-.1.8.2.8.6 0 1.4-.9 2.6-2.3 3-1.4.4-2.8-.3-3.4-1.5-.2-.3 0-.8.4-.9l4.5-1.2z" fill="#FFB0CA" stroke="#45413C" stroke-linecap="round" stroke-linejoin="round" stroke-miterlimit="10"/><path id="XMLID_564_" class="st22" d="M15.3 19.6c.9-.2 1.7-.9 2-1.7-.7-.2-1.6-.3-2.5 0s-1.7.7-2.1 1.2c.7.5 1.6.7 2.6.5z" fill="#FF87AF" stroke="#45413C" stroke-linecap="round" stroke-linejoin="round" stroke-miterlimit="10"/></g><path id="XMLID_562_" class="st10" d="M8.5 15.4c-.1-.5.2-1 .6-1.1.5-.1 1 .2 1.1.6" fill="none" stroke="#45413C" stroke-linecap="round" stroke-linejoin="round" stroke-miterlimit="10"/><ellipse id="XMLID_561_" transform="matrix(0.967 -0.2547 0.2547 0.967 -2.9006 5.328)" class="st47" cx="19.1" cy="13.9" rx="0.9" ry="0.6" fill="#FFAA54"/><path id="XMLID_560_" class="st10" d="M19.1 12.6A.8.8 0 0 0 18 12c-.5.1-.8.6-.6 1.1" fill="none" stroke="#45413C" stroke-linecap="round" stroke-linejoin="round" stroke-miterlimit="10"/></g></g><g id="XMLID_526_"><g id="XMLID_535_"><g id="XMLID_536_"><path id="XMLID_553_" class="st17" d="M47.1 26.4c0-1.7-1.2-3-2.7-3.4v-.5c0-1.9-1.5-3.4-3.4-3.4-.7 0-1.4.2-1.9.6v-.2c0-1.9-1.5-3.4-3.4-3.4-.9 0-1.8.4-2.4 1-.4-1.5-1.7-2.5-3.3-2.5-1.6 0-2.9 1.1-3.3 2.5-.6-.6-1.5-1-2.4-1-1.9 0-3.4 1.5-3.4 3.4v.2c-.6-.4-1.2-.6-1.9-.6-1.9 0-3.4 1.5-3.4 3.4v.5c-1.6.3-2.7 1.7-2.7 3.4s1.3 3.1 2.9 3.4c-.1.4-.2.8-.2 1.2 0 1.9 1.5 3.4 3.4 3.4.7 0 1.4-.2 1.9-.6v.2c0 1.9 1.5 3.4 3.4 3.4 1.1 0 2-.5 2.6-1.2.5 1.2 1.7 2 3.1 2 1.4 0 2.6-.8 3.1-2 .6.7 1.6 1.2 2.6 1.2 1.9 0 3.4-1.5 3.4-3.4v-.2c.6.4 1.2.6 1.9.6 1.9 0 3.4-1.5 3.4-3.4 0-.4-.1-.8-.2-1.2 1.7-.3 2.9-1.7 2.9-3.4z" fill="#FFF"/><path id="XMLID_539_" class="st41" d="M45.2 25.1c.1.4.2.8.2 1.3 0 2-1.6 3.7-3.7 3.7-.8 0-1.5-.2-2.1-.6v.2c0 2-1.6 3.7-3.7 3.7-1.1 0-2.1-.5-2.8-1.3-.6 1.3-1.8 2.1-3.3 2.1-1.5 0-2.7-.9-3.3-2.1-.7.8-1.7 1.3-2.8 1.3-2 0-3.7-1.6-3.7-3.7v-.2c-.6.4-1.3.6-2.1.6-2 0-3.7-1.6-3.7-3.7 0-.5.1-.9.2-1.3-.5-.1-1-.3-1.4-.5-.4.5-.6 1.2-.6 1.9 0 1.7 1.3 3.1 2.9 3.4-.1.4-.2.8-.2 1.2 0 1.9 1.5 3.4 3.4 3.4.7 0 1.4-.2 1.9-.6v.2c0 1.9 1.5 3.4 3.4 3.4 1.1 0 2-.5 2.6-1.2.5 1.2 1.7 2 3.1 2 1.4 0 2.6-.8 3.1-2 .6.7 1.6 1.2 2.6 1.2 1.9 0 3.4-1.5 3.4-3.4v-.2c.6.4 1.2.6 1.9.6 1.9 0 3.4-1.5 3.4-3.4 0-.4-.1-.8-.2-1.2 1.6-.3 2.9-1.7 2.9-3.4 0-.7-.2-1.3-.6-1.9.1.2-.3.4-.8.5z" fill="#F0F0F0"/><path id="XMLID_537_" class="st10" d="M47.1 26.4c0-1.7-1.2-3-2.7-3.4v-.5c0-1.9-1.5-3.4-3.4-3.4-.7 0-1.4.2-1.9.6v-.2c0-1.9-1.5-3.4-3.4-3.4-.9 0-1.8.4-2.4 1-.4-1.5-1.7-2.5-3.3-2.5-1.6 0-2.9 1.1-3.3 2.5-.6-.6-1.5-1-2.4-1-1.9 0-3.4 1.5-3.4 3.4v.2c-.6-.4-1.2-.6-1.9-.6-1.9 0-3.4 1.5-3.4 3.4v.5c-1.6.3-2.7 1.7-2.7 3.4s1.3 3.1 2.9 3.4c-.1.4-.2.8-.2 1.2 0 1.9 1.5 3.4 3.4 3.4.7 0 1.4-.2 1.9-.6v.2c0 1.9 1.5 3.4 3.4 3.4 1.1 0 2-.5 2.6-1.2.5 1.2 1.7 2 3.1 2 1.4 0 2.6-.8 3.1-2 .6.7 1.6 1.2 2.6 1.2 1.9 0 3.4-1.5 3.4-3.4v-.2c.6.4 1.2.6 1.9.6 1.9 0 3.4-1.5 3.4-3.4 0-.4-.1-.8-.2-1.2 1.7-.3 2.9-1.7 2.9-3.4z" fill="none" stroke="#45413C" stroke-linecap="round" stroke-linejoin="round" stroke-miterlimit="10"/></g></g><g id="XMLID_527_"><ellipse id="XMLID_534_" class="st30" cx="24.8" cy="27.9" rx="0.9" ry="0.6" fill="#FFB0CA"/><g id="XMLID_531_"><path id="XMLID_533_" class="st21" d="M32.3 29.5c.4 0 .7.4.6.8-.3 1.3-1.5 2.3-2.9 2.3s-2.6-1-2.9-2.3c-.1-.4.2-.8.6-.8h4.6z" fill="#FFB0CA" stroke="#45413C" stroke-linecap="round" stroke-linejoin="round" stroke-miterlimit="10"/><path id="XMLID_532_" class="st22" d="M29.9 32.5c1 0 1.8-.5 2.4-1.2-.6-.4-1.5-.6-2.4-.6s-1.8.2-2.4.6c.6.7 1.4 1.2 2.4 1.2z" fill="#FF87AF" stroke="#45413C" stroke-linecap="round" stroke-linejoin="round" stroke-miterlimit="10"/></g><path id="XMLID_530_" class="st10" d="M24.5 26.7c0-.5.4-.9.9-.9s.9.4.9.9" fill="none" stroke="#45413C" stroke-linecap="round" stroke-linejoin="round" stroke-miterlimit="10"/><ellipse id="XMLID_529_" class="st30" cx="35.1" cy="27.9" rx="0.9" ry="0.6" fill="#FFB0CA"/><path id="XMLID_528_" class="st10" d="M35.4 26.7c0-.5-.4-.9-.9-.9s-.9.4-.9.9" fill="none" stroke="#45413C" stroke-linecap="round" stroke-linejoin="round" stroke-miterlimit="10"/></g></g></g></g></svg>
