<svg width="12px" height="12px" viewBox="0 0 12 12" version="1.1" xmlns="http://www.w3.org/2000/svg">
    <title>phone</title>
    <g stroke="none" stroke-width="1" fill="none" fill-rule="evenodd">
        <g transform="translate(-1369.000000, -120.000000)" fill="#424242" fill-rule="nonzero">
            <g transform="translate(1181.000000, 75.000000)">
                <g transform="translate(111.000000, 41.000000)">
                    <g transform="translate(83.000000, 10.000000) scale(-1, 1) translate(-83.000000, -10.000000) translate(77.000000, 4.000000)">
                        <path d="M11.665214,8.80062257 L9.99175097,7.12715953 C9.3940856,6.52949416 8.37805447,6.76858366 8.13898833,7.54552529 C7.95968872,8.08344747 7.36202335,8.38228016 6.82412451,8.26272374 C5.62879377,7.96389105 4.01509728,6.40996109 3.71626459,5.15486381 C3.53696498,4.61694163 3.8955642,4.01927626 4.43346304,3.84 C5.21042802,3.60093385 5.44949416,2.58490272 4.85182879,1.98723735 L3.17836576,0.313774319 C2.70023346,-0.10459144 1.98303502,-0.10459144 1.56466926,0.313774319 L0.429105058,1.44933852 C-0.706459144,2.64466926 0.548638132,5.81229572 3.35766537,8.62132296 C6.16669261,11.4303502 9.33431907,12.7452374 10.5296498,11.5498833 L11.665214,10.4143191 C12.0836031,9.93618677 12.0836031,9.21898833 11.665214,8.80062257 Z" id="Path"></path>
                    </g>
                </g>
            </g>
        </g>
    </g>
</svg>
