<svg xmlns="http://www.w3.org/2000/svg" width="32" height="32" viewBox="0 0 32 32"><g transform="translate(-1109.751 -1580.092)"><rect width="19" height="13" x="1116.251" y="1587.593" fill="#c4def9" rx="0" ry="0"/><rect width="23" height="21" x="1114.251" y="1585.593" fill="#cdcccd" rx="1.5" ry="1.658"/><rect width="19" height="13" x="1116.251" y="1587.593" fill="#c4def9" rx="0" ry="0"/><circle cx="1117.251" cy="1603.593" r=".5" fill="#c4def9"/><circle cx="1119.251" cy="1603.593" r=".5" fill="#c4def9"/><circle cx="1121.251" cy="1603.593" r=".5" fill="#c4def9"/><circle cx="1134.251" cy="1603.593" r="1" fill="#c4def9"/><circle cx="1130.251" cy="1603.593" r="1" fill="#c4def9"/><path fill="#c4def9" fill-rule="evenodd" d="m 1116.2573,1594.7618 3.2746,0 1.6326,-2.554 1.642,5.1081 1.6327,-2.5541 1.8057,0 1.4689,-3.831 2.6197,7.6621 1.642,-3.8311 3.2701,0"/><rect width="19" height="13" x="1116.251" y="1587.593" fill="#65c5b4" rx="0" ry="0"/><circle cx="1134.251" cy="1603.593" r="1" fill="#938993"/><circle cx="1130.251" cy="1603.593" r="1" fill="#938993"/><path fill="#62355c" d="m 1115.7514,1585.0919 c -1.1276,0 -2,0.9968 -2,2.1582 l 0,17.6855 c 0,1.1613 0.8724,2.1563 2,2.1563 l 20,0 c 1.1276,0 2,-0.995 2,-2.1563 l 0,-17.6855 c 0,-1.1613 -0.8724,-2.1582 -2,-2.1582 l -20,0 z m 0,1 20,0 c 0.5344,0 1,0.4825 1,1.1582 l 0,17.6855 c 0,0.6757 -0.4656,1.1563 -1,1.1563 l -20,0 c -0.5344,0 -1,-0.4806 -1,-1.1563 l 0,-17.6855 c 0,-0.6757 0.4656,-1.1582 1,-1.1582 z m 0.5,1 a 0.50005,0.50005 0 0 0 -0.5,0.5 l 0,7.1269 a 0.50005,0.50005 0 0 0 0,0.076 l 0,5.7969 a 0.50005,0.50005 0 0 0 0.5,0.5 l 19,0 a 0.50005,0.50005 0 0 0 0.5,-0.5 l 0,-5.7871 a 0.50005,0.50005 0 0 0 0,-0.076 l 0,-7.1368 a 0.50005,0.50005 0 0 0 -0.5,-0.5 l -19,0 z m 0.5,1 18,0 0,6.1699 -2.7754,0 a 0.50005,0.50005 0 0 0 -0.4609,0.3027 l -1.1289,2.6367 -2.1992,-6.4316 a 0.50005,0.50005 0 0 0 -0.502,-0.3379 0.50005,0.50005 0 0 0 -0.4375,0.3203 l -1.3457,3.5098 -1.4629,0 a 0.50005,0.50005 0 0 0 -0.4218,0.2304 l -1.0586,1.6602 -1.3184,-4.0977 a 0.50005,0.50005 0 0 0 -0.8965,-0.1171 l -1.4863,2.3242 -2.5059,0 0,-6.1699 z m 10.9356,4.3046 2.1738,6.3575 a 0.50005,0.50005 0 0 0 0.9316,0.035 l 1.5137,-3.5274 2.4453,0 0,4.8301 -18,0 0,-4.8301 2.7813,0 a 0.50005,0.50005 0 0 0 0.4199,-0.2305 l 1.0605,-1.6601 1.3165,4.0976 a 0.50005,0.50005 0 0 0 0.8984,0.1172 l 1.4844,-2.3242 1.5332,0 a 0.50005,0.50005 0 0 0 0.4668,-0.3203 l 0.9746,-2.5449 z m 2.5644,9.6954 c -0.8225,0 -1.5,0.6775 -1.5,1.5 0,0.8225 0.6775,1.5 1.5,1.5 0.8225,0 1.5,-0.6775 1.5,-1.5 0,-0.8225 -0.6775,-1.5 -1.5,-1.5 z m 4,0 c -0.8225,0 -1.5,0.6775 -1.5,1.5 0,0.8225 0.6775,1.5 1.5,1.5 0.8225,0 1.5,-0.6775 1.5,-1.5 0,-0.8225 -0.6775,-1.5 -1.5,-1.5 z m -17,1 a 0.5,0.5 0 0 0 -0.5,0.5 0.5,0.5 0 0 0 0.5,0.5 0.5,0.5 0 0 0 0.5,-0.5 0.5,0.5 0 0 0 -0.5,-0.5 z m 2,0 a 0.5,0.5 0 0 0 -0.5,0.5 0.5,0.5 0 0 0 0.5,0.5 0.5,0.5 0 0 0 0.5,-0.5 0.5,0.5 0 0 0 -0.5,-0.5 z m 2,0 a 0.5,0.5 0 0 0 -0.5,0.5 0.5,0.5 0 0 0 0.5,0.5 0.5,0.5 0 0 0 0.5,-0.5 0.5,0.5 0 0 0 -0.5,-0.5 z m 9,0 c 0.2821,0 0.5,0.218 0.5,0.5 0,0.2821 -0.2179,0.5 -0.5,0.5 -0.282,0 -0.5,-0.2179 -0.5,-0.5 0,-0.282 0.218,-0.5 0.5,-0.5 z m 4,0 c 0.2821,0 0.5,0.218 0.5,0.5 0,0.2821 -0.2179,0.5 -0.5,0.5 -0.282,0 -0.5,-0.2179 -0.5,-0.5 0,-0.282 0.218,-0.5 0.5,-0.5 z" color="#000" font-family="sans-serif" font-weight="400" overflow="visible" white-space="normal" style="line-height:normal;text-indent:0;text-align:start;text-decoration-line:none;text-decoration-style:solid;text-decoration-color:#000;text-transform:none;block-progression:tb;isolation:auto;mix-blend-mode:normal"/></g></svg>