<svg xmlns="http://www.w3.org/2000/svg" version="1.1" x="0px" y="0px" viewBox="0 0 48 48" xml:space="preserve"><style type="text/css">.st0{fill:#FFD4C3;stroke:#504B46;stroke-linecap:round;stroke-linejoin:round;stroke-miterlimit:10;} .st1{fill:#FFC258;} .st2{fill:#4F4B45;} .st3{fill:#FABFA5;} .st4{fill:none;stroke:#504B46;stroke-linecap:round;stroke-linejoin:round;stroke-miterlimit:10;} .Graphic_x0020_Style{opacity:0.15;fill:#45413C;} .st5{opacity:0.15;fill:#45413C;} .st6{fill:#DEBB7E;stroke:#45413C;stroke-linecap:round;stroke-linejoin:round;stroke-miterlimit:10;} .st7{fill:#F0D5A8;} .st8{fill:#F7E5C6;} .st9{fill:#DEBB7E;} .st10{fill:none;stroke:#45413C;stroke-linecap:round;stroke-linejoin:round;stroke-miterlimit:10;} .st11{fill:#FFE500;} .st12{fill:#EBCB00;} .st13{fill:none;stroke:#EBCB00;stroke-linecap:round;stroke-linejoin:round;stroke-miterlimit:10;} .st14{fill:#FF6242;stroke:#45413C;stroke-linecap:round;stroke-linejoin:round;stroke-miterlimit:10;} .st15{fill:#FFFFFF;stroke:#45413C;stroke-linecap:round;stroke-linejoin:round;stroke-miterlimit:10;} .st16{fill:#E5F8FF;} .st17{fill:#FFFFFF;} .st18{fill:#E8F4FA;} .st19{fill:#E8F4FA;stroke:#45413C;stroke-linecap:round;stroke-linejoin:round;stroke-miterlimit:10;} .st20{fill:#FFCCDD;} .st21{fill:#FFB0CA;stroke:#45413C;stroke-linecap:round;stroke-linejoin:round;stroke-miterlimit:10;} .st22{fill:#FF87AF;stroke:#45413C;stroke-linecap:round;stroke-linejoin:round;stroke-miterlimit:10;} .st23{fill:#E5F8FF;stroke:#45413C;stroke-linecap:round;stroke-linejoin:round;stroke-miterlimit:10;} .st24{fill:#BF8256;stroke:#45413C;stroke-linecap:round;stroke-linejoin:round;stroke-miterlimit:10;} .st25{fill:#9CEB60;} .st26{fill:#6DD627;} .st27{fill:#C8FFA1;} .st28{fill:#FFFACF;} .st29{fill:#FF87AF;} .st30{fill:#FFB0CA;} .st31{fill:#FF6196;} .st32{fill:#FFCCDD;stroke:#45413C;stroke-linecap:round;stroke-linejoin:round;stroke-miterlimit:10;} .st33{fill:#FF6196;stroke:#45413C;stroke-linecap:round;stroke-linejoin:round;stroke-miterlimit:10;} .st34{fill:#FFE5EE;} .st35{fill:#00B8F0;} .st36{fill:#4ACFFF;} .st37{fill:#BF8256;} .st38{fill:#DEA47A;} .st39{fill:#915E3A;} .st40{fill:#FFF5E3;} .st41{fill:#F0F0F0;} .st42{fill:#8CA4B8;} .st43{fill:#627B8C;} .st44{fill:#C0DCEB;} .st45{fill:#FFF48C;} .st46{fill:#FFE500;stroke:#45413C;stroke-linecap:round;stroke-linejoin:round;stroke-miterlimit:10;} .st47{fill:#FFAA54;} .st48{fill:#6DD627;stroke:#45413C;stroke-linecap:round;stroke-linejoin:round;stroke-miterlimit:10;} .st49{fill:#FF8A14;} .st50{fill:#FFCC99;} .st51{fill:#EBCB00;stroke:#45413C;stroke-linecap:round;stroke-linejoin:round;stroke-miterlimit:10;} .st52{fill:#00F5BC;stroke:#45413C;stroke-linecap:round;stroke-linejoin:round;stroke-miterlimit:10;} .st53{fill:#BF8DF2;stroke:#45413C;stroke-linecap:round;stroke-linejoin:round;stroke-miterlimit:10;} .st54{fill:#FF8A14;stroke:#45413C;stroke-linecap:round;stroke-linejoin:round;stroke-miterlimit:10;} .st55{fill:#4AEFF7;stroke:#45413C;stroke-linecap:round;stroke-linejoin:round;stroke-miterlimit:10;} .st56{fill:#FFF48C;stroke:#45413C;stroke-linecap:round;stroke-linejoin:round;stroke-miterlimit:10;} .st57{fill:#FF6242;} .st58{fill:#E04122;} .st59{fill:#46B000;} .st60{fill:none;stroke:#45413C;stroke-miterlimit:10;} .st61{fill:#00B8F0;stroke:#45413C;stroke-linecap:round;stroke-linejoin:round;stroke-miterlimit:10;} .st62{fill:#FF866E;} .st63{fill:#9F5AE5;stroke:#45413C;stroke-linecap:round;stroke-linejoin:round;stroke-miterlimit:10;} .st64{fill:#E4FFD1;} .st65{fill:#FFFEF2;} .st66{fill:#B89558;} .st67{fill:none;stroke:#915E3A;stroke-linecap:round;stroke-linejoin:round;stroke-miterlimit:10;} .st68{fill:#915E3A;stroke:#45413C;stroke-linecap:round;stroke-linejoin:round;stroke-miterlimit:10;} .st69{fill:#BF8DF2;} .st70{fill:#9F5AE5;} .st71{fill:#DABFF5;} .st72{fill:none;stroke:#45413C;stroke-linejoin:round;stroke-miterlimit:10;} .st73{fill:#656769;} .st74{fill:#87898C;} .st75{fill:#E0E0E0;} .st76{fill:#BDBEC0;} .st77{fill:#656769;stroke:#45413C;stroke-linecap:round;stroke-linejoin:round;stroke-miterlimit:10;} .st78{fill:#45413C;stroke:#45413C;stroke-linecap:round;stroke-linejoin:round;stroke-miterlimit:10;} .st79{fill:#FFA694;} .st80{fill:#E04122;stroke:#45413C;stroke-linecap:round;stroke-linejoin:round;stroke-miterlimit:10;} .st81{fill:#E0E0E0;stroke:#45413C;stroke-linecap:round;stroke-linejoin:round;stroke-miterlimit:10;} .st82{fill:#F0F0F0;stroke:#45413C;stroke-linecap:round;stroke-linejoin:round;stroke-miterlimit:10;} .st83{fill:#DAEDF7;} .st84{fill:#BDBEC0;stroke:#45413C;stroke-linecap:round;stroke-linejoin:round;stroke-miterlimit:10;} .st85{fill:#87898C;stroke:#45413C;stroke-linecap:round;stroke-linejoin:round;stroke-miterlimit:10;} .st86{fill:#00DFEB;} .st87{fill:#4AEFF7;} .st88{fill:#DAEDF7;stroke:#45413C;stroke-linecap:round;stroke-linejoin:round;stroke-miterlimit:10;} .st89{fill:#FFDA8F;} .st90{fill:#FFBE3D;} .st91{fill:#FFE9BD;} .st92{fill:#DEA47A;stroke:#45413C;stroke-linecap:round;stroke-linejoin:round;stroke-miterlimit:10;} .st93{fill:#45413C;} .st94{fill:#F0C2A1;} .st95{fill:none;stroke:#45413C;stroke-width:1.0064;stroke-linecap:round;stroke-linejoin:round;stroke-miterlimit:10;} .st96{fill:#525252;} .st97{fill:#EB6D00;stroke:#45413C;stroke-linecap:round;stroke-linejoin:round;stroke-miterlimit:10;} .st98{fill:#EB6D00;} .st99{fill:#E5FEFF;} .st100{fill:#FF866E;stroke:#45413C;stroke-linecap:round;stroke-linejoin:round;stroke-miterlimit:10;} .st101{fill:#627B8C;stroke:#45413C;stroke-linecap:round;stroke-linejoin:round;stroke-miterlimit:10;} .st102{fill:#FFFCE5;stroke:#45413C;stroke-linecap:round;stroke-linejoin:round;stroke-miterlimit:10;} .st103{fill:#A6FBFF;} .st104{fill:#D9FDFF;} .st105{fill:#FFFACF;stroke:#45413C;stroke-linecap:round;stroke-linejoin:round;stroke-miterlimit:10;} .st106{fill:#B8ECFF;} .st107{fill:#FFCABF;} .st108{fill:#E5FFF9;} .st109{fill:#C8FFA1;stroke:#45413C;stroke-linecap:round;stroke-linejoin:round;stroke-miterlimit:10;} .st110{fill:#4CF4FC;} .st111{fill:#F0D5A8;stroke:#45413C;stroke-linecap:round;stroke-linejoin:round;stroke-miterlimit:10;} .st112{fill:#FFDCD1;stroke:#45413C;stroke-linecap:round;stroke-linejoin:round;stroke-miterlimit:10;} .st113{fill:#80DDFF;} .st114{fill:#46B000;stroke:#45413C;stroke-linecap:round;stroke-linejoin:round;stroke-miterlimit:10;} .st115{fill:#4ACFFF;stroke:#45413C;stroke-linecap:round;stroke-linejoin:round;stroke-miterlimit:10;} .st116{fill:#ADC4D9;} .st117{fill:#BDBEC0;stroke:#45413C;stroke-width:1.0064;stroke-linecap:round;stroke-linejoin:round;stroke-miterlimit:10;} .st118{fill:#FFFCE5;} .st119{fill:#947746;} .st120{fill:#525252;stroke:#45413C;stroke-linecap:round;stroke-linejoin:round;stroke-miterlimit:10;}</style><symbol id="New_Symbol_14" viewBox="-6.5 -6.5 13 13"><path class="st0" d="M0-6c2.2 0 4.1 1.5 4.7 3.5C6.3-2.5 6.4 0 5 0v1c0 2.8-2.2 5-5 5s-5-2.2-5-5V0c-1.4 0-1.3-2.5.2-2.5C-4.1-4.5-2.2-6 0-6z" fill="#FFD4C3" stroke="#504B46" stroke-linecap="round" stroke-linejoin="round" stroke-miterlimit="10"/><circle class="st1" cx="-1.6" cy="-0.1" r="0.1" fill="#FFC258"/><path class="st2" d="M-1.6.5c-.3 0-.6-.3-.6-.6s.2-.7.6-.7c.3 0 .6.3.6.7s-.3.6-.6.6z" fill="#4F4B45"/><circle class="st1" cx="1.6" cy="-0.1" r="0.1" fill="#FFC258"/><path class="st2" d="M1.6.5C1.3.5 1 .2 1-.1s.3-.6.6-.6.6.3.6.6-.2.6-.6.6z" fill="#4F4B45"/><circle class="st3" cx="-3" cy="-1.5" r="0.5" fill="#FABFA5"/><circle class="st3" cx="3" cy="-1.5" r="0.5" fill="#FABFA5"/><path class="st4" d="M-1.2-3c.8-.5 1.7-.5 2.5 0" fill="none" stroke="#504B46" stroke-linecap="round" stroke-linejoin="round" stroke-miterlimit="10"/></symbol><g id="Icons"><g id="XMLID_1189_"><ellipse id="XMLID_967_" class="st5" cx="24" cy="45.3" rx="10" ry="1.5" fill="#45413C" opacity="0.15"/><g id="XMLID_299_"><g id="XMLID_745_"><g id="XMLID_845_"><g id="XMLID_933_"><g id="XMLID_934_"><g id="XMLID_935_"><path id="XMLID_940_" class="st11" d="M22.6 10.2c.8 1.9-.1 4-2 4.8s-4-.1-4.8-2c-.6-1.5-.6-7.3-.5-9.7 0-.4.5-.6.8-.3 1.7 1.6 5.9 5.7 6.5 7.2z" fill="#FFE500"/></g></g></g><g id="XMLID_929_"><g id="XMLID_930_"><g id="XMLID_931_"><path id="XMLID_932_" class="st11" d="M13.8 15c1.9.8 2.8 2.9 2 4.8s-2.9 2.8-4.8 2c-1.5-.6-5.6-4.8-7.2-6.5-.3-.3-.1-.8.3-.8 2.4 0 8.2-.1 9.7.5z" fill="#FFE500"/></g></g></g><g id="XMLID_925_"><g id="XMLID_926_"><g id="XMLID_927_"><path id="XMLID_928_" class="st11" d="M11 24.7c1.9-.8 4 .1 4.8 2s-.1 4-2 4.8c-1.5.6-7.3.6-9.7.5-.4 0-.6-.5-.3-.8 1.6-1.8 5.7-5.9 7.2-6.5z" fill="#FFE500"/></g></g></g><g id="XMLID_921_"><g id="XMLID_922_"><g id="XMLID_923_"><path id="XMLID_924_" class="st11" d="M15.8 33.5c.8-1.9 2.9-2.8 4.8-2s2.8 2.9 2 4.8c-.6 1.5-4.8 5.6-6.5 7.2-.3.3-.8.1-.8-.3-.1-2.4-.1-8.3.5-9.7z" fill="#FFE500"/></g></g></g><g id="XMLID_917_"><g id="XMLID_918_"><g id="XMLID_919_"><path id="XMLID_920_" class="st11" d="M25.4 36.3c-.8-1.9.1-4 2-4.8s4 .1 4.8 2c.6 1.5.6 7.3.5 9.7 0 .4-.5.6-.8.3-1.7-1.7-5.9-5.7-6.5-7.2z" fill="#FFE500"/></g></g></g><g id="XMLID_913_"><g id="XMLID_914_"><g id="XMLID_915_"><path id="XMLID_916_" class="st11" d="M34.2 31.4c-1.9-.8-2.8-2.9-2-4.8.8-1.9 2.9-2.8 4.8-2 1.5.6 5.6 4.8 7.2 6.5.3.3.1.8-.3.8-2.4.1-8.2.2-9.7-.5z" fill="#FFE500"/></g></g></g><g id="XMLID_902_"><g id="XMLID_908_"><g id="XMLID_911_"><path id="XMLID_912_" class="st11" d="M37 21.8c-1.9.8-4-.1-4.8-2-.8-1.9.1-4 2-4.8 1.5-.6 7.3-.6 9.7-.5.4 0 .6.5.3.8-1.6 1.7-5.7 5.9-7.2 6.5z" fill="#FFE500"/></g></g></g><g id="XMLID_898_"><g id="XMLID_899_"><g id="XMLID_900_"><path id="XMLID_901_" class="st11" d="M32.2 13c-.8 1.9-2.9 2.8-4.8 2s-2.8-2.9-2-4.8c.6-1.5 4.8-5.6 6.5-7.2.3-.3.8-.1.8.3.1 2.4.1 8.2-.5 9.7z" fill="#FFE500"/></g></g></g><path id="XMLID_897_" class="st12" d="M20.6 15c1.9-.8 2.8-2.9 2-4.8-.1-.4-.5-.9-1-1.4-2.3.4-4.4 1.3-6.2 2.5.1.7.2 1.3.3 1.7.9 1.9 3 2.8 4.9 2z" fill="#EBCB00"/><path id="XMLID_896_" class="st12" d="M15.8 19.8c.8-1.9-.1-4-2-4.8-.4-.1-1-.3-1.7-.3-1.3 1.8-2.2 3.9-2.5 6.2.6.5 1.1.8 1.4 1 1.8.7 4-.2 4.8-2.1z" fill="#EBCB00"/><path id="XMLID_895_" class="st12" d="M15.8 26.7c-.8-1.9-2.9-2.8-4.8-2-.4.1-.9.5-1.4 1 .4 2.3 1.3 4.4 2.5 6.2.7-.1 1.3-.2 1.7-.3 1.8-.9 2.7-3.1 2-4.9z" fill="#EBCB00"/><path id="XMLID_894_" class="st12" d="M20.6 31.5c-1.9-.8-4 .1-4.8 2-.1.4-.3 1-.3 1.7 1.8 1.3 3.9 2.2 6.2 2.5.5-.6.8-1.1 1-1.4.6-1.9-.2-4-2.1-4.8z" fill="#EBCB00"/><path id="XMLID_893_" class="st12" d="M27.4 31.5c-1.9.8-2.8 2.9-2 4.8.1.4.5.9 1 1.4 2.3-.4 4.4-1.3 6.2-2.5-.1-.7-.2-1.3-.3-1.7-.9-1.9-3-2.8-4.9-2z" fill="#EBCB00"/><path id="XMLID_892_" class="st12" d="M37 24.7c-1.9-.8-4 .1-4.8 2-.8 1.9.1 4 2 4.8.4.1 1 .3 1.7.3 1.3-1.8 2.2-3.9 2.5-6.2-.5-.4-1-.8-1.4-.9z" fill="#EBCB00"/><path id="XMLID_891_" class="st12" d="M32.2 19.8c.8 1.9 2.9 2.8 4.8 2 .4-.1.9-.5 1.4-1-.4-2.3-1.3-4.4-2.5-6.2-.7.1-1.3.2-1.7.3-1.8.9-2.7 3.1-2 4.9z" fill="#EBCB00"/><path id="XMLID_890_" class="st12" d="M27.4 15c1.9.8 4-.1 4.8-2 .1-.4.3-1 .3-1.7-1.8-1.3-3.9-2.2-6.2-2.5-.5.6-.8 1.1-1 1.4-.6 1.9.2 4 2.1 4.8z" fill="#EBCB00"/><g id="XMLID_886_"><g id="XMLID_887_"><g id="XMLID_888_"><path id="XMLID_889_" class="st10" d="M22.6 10.2c.8 1.9-.1 4-2 4.8s-4-.1-4.8-2c-.6-1.5-.6-7.3-.5-9.7 0-.4.5-.6.8-.3 1.7 1.6 5.9 5.7 6.5 7.2z" fill="none" stroke="#45413C" stroke-linecap="round" stroke-linejoin="round" stroke-miterlimit="10"/></g></g></g><g id="XMLID_882_"><g id="XMLID_883_"><g id="XMLID_884_"><path id="XMLID_885_" class="st10" d="M13.8 15c1.9.8 2.8 2.9 2 4.8s-2.9 2.8-4.8 2c-1.5-.6-5.6-4.8-7.2-6.5-.3-.3-.1-.8.3-.8 2.4 0 8.2-.1 9.7.5z" fill="none" stroke="#45413C" stroke-linecap="round" stroke-linejoin="round" stroke-miterlimit="10"/></g></g></g><g id="XMLID_878_"><g id="XMLID_879_"><g id="XMLID_880_"><path id="XMLID_881_" class="st10" d="M11 24.7c1.9-.8 4 .1 4.8 2s-.1 4-2 4.8c-1.5.6-7.3.6-9.7.5-.4 0-.6-.5-.3-.8 1.6-1.8 5.7-5.9 7.2-6.5z" fill="none" stroke="#45413C" stroke-linecap="round" stroke-linejoin="round" stroke-miterlimit="10"/></g></g></g><g id="XMLID_874_"><g id="XMLID_875_"><g id="XMLID_876_"><path id="XMLID_877_" class="st10" d="M15.8 33.5c.8-1.9 2.9-2.8 4.8-2s2.8 2.9 2 4.8c-.6 1.5-4.8 5.6-6.5 7.2-.3.3-.8.1-.8-.3-.1-2.4-.1-8.3.5-9.7z" fill="none" stroke="#45413C" stroke-linecap="round" stroke-linejoin="round" stroke-miterlimit="10"/></g></g></g><g id="XMLID_870_"><g id="XMLID_871_"><g id="XMLID_872_"><path id="XMLID_873_" class="st10" d="M25.4 36.3c-.8-1.9.1-4 2-4.8s4 .1 4.8 2c.6 1.5.6 7.3.5 9.7 0 .4-.5.6-.8.3-1.7-1.7-5.9-5.7-6.5-7.2z" fill="none" stroke="#45413C" stroke-linecap="round" stroke-linejoin="round" stroke-miterlimit="10"/></g></g></g><g id="XMLID_854_"><g id="XMLID_855_"><g id="XMLID_857_"><path id="XMLID_867_" class="st10" d="M34.2 31.4c-1.9-.8-2.8-2.9-2-4.8.8-1.9 2.9-2.8 4.8-2 1.5.6 5.6 4.8 7.2 6.5.3.3.1.8-.3.8-2.4.1-8.2.2-9.7-.5z" fill="none" stroke="#45413C" stroke-linecap="round" stroke-linejoin="round" stroke-miterlimit="10"/></g></g></g><g id="XMLID_850_"><g id="XMLID_851_"><g id="XMLID_852_"><path id="XMLID_853_" class="st10" d="M37 21.8c-1.9.8-4-.1-4.8-2-.8-1.9.1-4 2-4.8 1.5-.6 7.3-.6 9.7-.5.4 0 .6.5.3.8-1.6 1.7-5.7 5.9-7.2 6.5z" fill="none" stroke="#45413C" stroke-linecap="round" stroke-linejoin="round" stroke-miterlimit="10"/></g></g></g><g id="XMLID_846_"><g id="XMLID_847_"><g id="XMLID_848_"><path id="XMLID_849_" class="st10" d="M32.2 13c-.8 1.9-2.9 2.8-4.8 2s-2.8-2.9-2-4.8c.6-1.5 4.8-5.6 6.5-7.2.3-.3.8-.1.8.3.1 2.4.1 8.2-.5 9.7z" fill="none" stroke="#45413C" stroke-linecap="round" stroke-linejoin="round" stroke-miterlimit="10"/></g></g></g></g><g id="XMLID_746_"><g id="XMLID_841_"><g id="XMLID_842_"><g id="XMLID_843_"><path id="XMLID_844_" class="st11" d="M17.7 11.7c1.4 1.4 1.4 3.8 0 5.2s-3.8 1.4-5.2 0c-1.1-1.1-3.3-6.5-4.2-8.8-.1-.3.2-.7.6-.5 2.2.8 7.7 3 8.8 4.1z" fill="#FFE500"/></g></g></g><g id="XMLID_828_"><g id="XMLID_829_"><g id="XMLID_833_"><path id="XMLID_837_" class="st11" d="M11.4 19.6c2 0 3.7 1.6 3.7 3.7S13.5 27 11.4 27c-1.6 0-7-2.3-9.2-3.3-.4-.2-.4-.7 0-.8 2.2-1 7.6-3.3 9.2-3.3z" fill="#FFE500"/></g></g></g><g id="XMLID_822_"><g id="XMLID_825_"><g id="XMLID_826_"><path id="XMLID_827_" class="st11" d="M12.5 29.5c1.4-1.4 3.8-1.4 5.2 0s1.4 3.8 0 5.2c-1.1 1.1-6.5 3.3-8.8 4.2-.4.1-.7-.2-.6-.6.9-2.2 3.1-7.6 4.2-8.8z" fill="#FFE500"/></g></g></g><g id="XMLID_814_"><g id="XMLID_815_"><g id="XMLID_820_"><path id="XMLID_821_" class="st11" d="M20.3 35.8c0-2 1.6-3.7 3.7-3.7s3.7 1.6 3.7 3.7c0 1.6-2.3 7-3.3 9.2-.2.4-.7.4-.8 0-1-2.2-3.3-7.6-3.3-9.2z" fill="#FFE500"/></g></g></g><g id="XMLID_807_"><g id="XMLID_808_"><g id="XMLID_811_"><path id="XMLID_813_" class="st11" d="M30.3 34.7c-1.4-1.4-1.4-3.8 0-5.2s3.8-1.4 5.2 0c1.1 1.1 3.3 6.5 4.2 8.8.1.4-.2.7-.6.6-2.2-.9-7.7-3-8.8-4.2z" fill="#FFE500"/></g></g></g><g id="XMLID_798_"><g id="XMLID_799_"><g id="XMLID_800_"><path id="XMLID_802_" class="st11" d="M36.6 26.9c-2 0-3.7-1.6-3.7-3.7s1.6-3.7 3.7-3.7c1.6 0 7 2.3 9.2 3.3.4.2.4.7 0 .8-2.2 1-7.6 3.3-9.2 3.3z" fill="#FFE500"/></g></g></g><g id="XMLID_794_"><g id="XMLID_795_"><g id="XMLID_796_"><path id="XMLID_797_" class="st11" d="M35.5 16.9c-1.4 1.4-3.8 1.4-5.2 0s-1.4-3.8 0-5.2c1.1-1.1 6.5-3.3 8.8-4.2.4-.1.7.2.6.6-.9 2.3-3.1 7.7-4.2 8.8z" fill="#FFE500"/></g></g></g><g id="XMLID_789_"><g id="XMLID_790_"><g id="XMLID_791_"><path id="XMLID_792_" class="st11" d="M27.7 10.6c0 2-1.6 3.7-3.7 3.7s-3.7-1.6-3.7-3.7c0-1.6 2.3-7 3.3-9.2.2-.4.7-.4.8 0 1 2.3 3.3 7.6 3.3 9.2z" fill="#FFE500"/></g></g></g><path id="XMLID_788_" class="st12" d="M17.7 16.9c1.4-1.4 1.4-3.8 0-5.2-.3-.3-.8-.6-1.4-1-1.9 1.2-3.5 2.8-4.7 4.7.4.7.7 1.2 1 1.4 1.3 1.6 3.7 1.6 5.1.1z" fill="#EBCB00"/><path id="XMLID_786_" class="st12" d="M15.1 23.2c0-2-1.6-3.7-3.7-3.7-.4 0-1 .1-1.7.3-.2 1.1-.4 2.2-.4 3.3 0 1.1.1 2.3.4 3.3.7.2 1.3.3 1.7.3 2 .2 3.7-1.4 3.7-3.5z" fill="#EBCB00"/><path id="XMLID_785_" class="st12" d="M17.7 29.5c-1.4-1.4-3.8-1.4-5.2 0-.3.3-.6.8-1 1.4 1.2 1.9 2.8 3.5 4.7 4.7.7-.4 1.2-.7 1.4-1 1.5-1.3 1.5-3.6.1-5.1z" fill="#EBCB00"/><path id="XMLID_784_" class="st12" d="M24 32.2c-2 0-3.7 1.6-3.7 3.7 0 .4.1 1 .3 1.7 1.1.2 2.2.4 3.3.4 1.1 0 2.3-.1 3.3-.4.2-.7.3-1.3.3-1.7.2-2.1-1.5-3.7-3.5-3.7z" fill="#EBCB00"/><path id="XMLID_783_" class="st12" d="M30.3 29.5c-1.4 1.4-1.4 3.8 0 5.2.3.3.8.6 1.4 1 1.9-1.2 3.5-2.8 4.7-4.7-.4-.7-.7-1.2-1-1.4-1.3-1.5-3.7-1.5-5.1-.1z" fill="#EBCB00"/><path id="XMLID_782_" class="st12" d="M38.3 19.9c-.7-.2-1.3-.3-1.7-.3-2 0-3.7 1.6-3.7 3.7 0 2 1.6 3.7 3.7 3.7.4 0 1-.1 1.7-.3.2-1.1.4-2.2.4-3.3 0-1.3-.2-2.4-.4-3.5z" fill="#EBCB00"/><path id="XMLID_781_" class="st12" d="M30.3 16.9c1.4 1.4 3.8 1.4 5.2 0 .3-.3.6-.8 1-1.4-1.2-1.9-2.8-3.5-4.7-4.7-.7.4-1.2.7-1.4 1-1.5 1.4-1.5 3.7-.1 5.1z" fill="#EBCB00"/><path id="XMLID_780_" class="st12" d="M24 14.3c2 0 3.7-1.6 3.7-3.7 0-.4-.1-1-.3-1.7-1.1-.2-2.2-.4-3.3-.4-1.1 0-2.3.1-3.3.4-.2.7-.3 1.3-.3 1.7-.2 2.1 1.5 3.7 3.5 3.7z" fill="#EBCB00"/><g id="XMLID_776_"><g id="XMLID_777_"><g id="XMLID_778_"><path id="XMLID_779_" class="st10" d="M17.7 11.7c1.4 1.4 1.4 3.8 0 5.2s-3.8 1.4-5.2 0c-1.1-1.1-3.3-6.5-4.2-8.8-.1-.3.2-.7.6-.5 2.2.8 7.7 3 8.8 4.1z" fill="none" stroke="#45413C" stroke-linecap="round" stroke-linejoin="round" stroke-miterlimit="10"/></g></g></g><g id="XMLID_772_"><g id="XMLID_773_"><g id="XMLID_774_"><path id="XMLID_775_" class="st10" d="M11.4 19.6c2 0 3.7 1.6 3.7 3.7S13.5 27 11.4 27c-1.6 0-7-2.3-9.2-3.3-.4-.2-.4-.7 0-.8 2.2-1 7.6-3.3 9.2-3.3z" fill="none" stroke="#45413C" stroke-linecap="round" stroke-linejoin="round" stroke-miterlimit="10"/></g></g></g><g id="XMLID_768_"><g id="XMLID_769_"><g id="XMLID_770_"><path id="XMLID_771_" class="st10" d="M12.5 29.5c1.4-1.4 3.8-1.4 5.2 0s1.4 3.8 0 5.2c-1.1 1.1-6.5 3.3-8.8 4.2-.4.1-.7-.2-.6-.6.9-2.2 3.1-7.6 4.2-8.8z" fill="none" stroke="#45413C" stroke-linecap="round" stroke-linejoin="round" stroke-miterlimit="10"/></g></g></g><g id="XMLID_764_"><g id="XMLID_765_"><g id="XMLID_766_"><path id="XMLID_767_" class="st10" d="M20.3 35.8c0-2 1.6-3.7 3.7-3.7s3.7 1.6 3.7 3.7c0 1.6-2.3 7-3.3 9.2-.2.4-.7.4-.8 0-1-2.2-3.3-7.6-3.3-9.2z" fill="none" stroke="#45413C" stroke-linecap="round" stroke-linejoin="round" stroke-miterlimit="10"/></g></g></g><g id="XMLID_759_"><g id="XMLID_760_"><g id="XMLID_761_"><path id="XMLID_763_" class="st10" d="M30.3 34.7c-1.4-1.4-1.4-3.8 0-5.2s3.8-1.4 5.2 0c1.1 1.1 3.3 6.5 4.2 8.8.1.4-.2.7-.6.6-2.2-.9-7.7-3-8.8-4.2z" fill="none" stroke="#45413C" stroke-linecap="round" stroke-linejoin="round" stroke-miterlimit="10"/></g></g></g><g id="XMLID_755_"><g id="XMLID_756_"><g id="XMLID_757_"><path id="XMLID_758_" class="st10" d="M36.6 26.9c-2 0-3.7-1.6-3.7-3.7s1.6-3.7 3.7-3.7c1.6 0 7 2.3 9.2 3.3.4.2.4.7 0 .8-2.2 1-7.6 3.3-9.2 3.3z" fill="none" stroke="#45413C" stroke-linecap="round" stroke-linejoin="round" stroke-miterlimit="10"/></g></g></g><g id="XMLID_751_"><g id="XMLID_752_"><g id="XMLID_753_"><path id="XMLID_754_" class="st10" d="M35.5 16.9c-1.4 1.4-3.8 1.4-5.2 0s-1.4-3.8 0-5.2c1.1-1.1 6.5-3.3 8.8-4.2.4-.1.7.2.6.6-.9 2.3-3.1 7.7-4.2 8.8z" fill="none" stroke="#45413C" stroke-linecap="round" stroke-linejoin="round" stroke-miterlimit="10"/></g></g></g><g id="XMLID_747_"><g id="XMLID_748_"><g id="XMLID_749_"><path id="XMLID_750_" class="st10" d="M27.7 10.6c0 2-1.6 3.7-3.7 3.7s-3.7-1.6-3.7-3.7c0-1.6 2.3-7 3.3-9.2.2-.4.7-.4.8 0 1 2.3 3.3 7.6 3.3 9.2z" fill="none" stroke="#45413C" stroke-linecap="round" stroke-linejoin="round" stroke-miterlimit="10"/></g></g></g></g></g><g id="XMLID_345_"><circle id="XMLID_744_" class="st47" cx="24" cy="23.2" r="12.7" fill="#FFAA54"/><path id="XMLID_743_" class="st49" d="M25.2 10.6c5.8.6 10.4 5.5 10.4 11.5 0 6.4-5.2 11.6-11.6 11.6s-11.6-5.2-11.6-11.6c0-6 4.6-10.9 10.4-11.5-6.5.6-11.6 6-11.6 12.7C11.3 30.3 17 36 24 36s12.7-5.7 12.7-12.7c0-6.7-5-12.2-11.5-12.7z" fill="#FF8A14"/><circle id="XMLID_742_" class="st10" cx="24" cy="23.2" r="12.7" fill="none" stroke="#45413C" stroke-linecap="round" stroke-linejoin="round" stroke-miterlimit="10"/></g><g id="XMLID_320_"><ellipse id="XMLID_344_" class="st49" cx="17.4" cy="25.6" rx="1.2" ry="0.8" fill="#FF8A14"/><g id="XMLID_325_"><path id="XMLID_337_" class="st21" d="M27 27.5c.5 0 .9.5.8 1-.4 1.7-1.9 2.9-3.7 2.9-1.8 0-3.3-1.2-3.7-2.9-.1-.5.2-1 .8-1H27z" fill="#FFB0CA" stroke="#45413C" stroke-linecap="round" stroke-linejoin="round" stroke-miterlimit="10"/><path id="XMLID_326_" class="st22" d="M24 31.4c1.2 0 2.3-.6 3-1.5-.8-.5-1.8-.8-3-.8s-2.3.3-3 .8c.7.9 1.8 1.5 3 1.5z" fill="#FF87AF" stroke="#45413C" stroke-linecap="round" stroke-linejoin="round" stroke-miterlimit="10"/></g><path id="XMLID_324_" class="st10" d="M17 24c0-.6.5-1.2 1.2-1.2s1.2.5 1.2 1.2" fill="none" stroke="#45413C" stroke-linecap="round" stroke-linejoin="round" stroke-miterlimit="10"/><ellipse id="XMLID_323_" class="st49" cx="30.6" cy="25.6" rx="1.2" ry="0.8" fill="#FF8A14"/><path id="XMLID_322_" class="st10" d="M31 24c0-.6-.5-1.2-1.2-1.2s-1.2.5-1.2 1.2" fill="none" stroke="#45413C" stroke-linecap="round" stroke-linejoin="round" stroke-miterlimit="10"/><ellipse id="XMLID_321_" class="st50" cx="24" cy="15.1" rx="3.1" ry="0.8" fill="#FC9"/></g></g></g></g></svg>
