<svg xmlns="http://www.w3.org/2000/svg" height="20.001" width="120.001" viewBox="0 0 128 35"><g transform="translate(-1652,-3159)"><rect width="128" height="37.263351" rx="4" x="1652" y="3159" fill="#000"></rect><g fill="#fff"><path d="m 1701.4602,3171.9028 q -0.4766,0.2188 -1.043,0.3828 -0.5625,0.1602 -1.0898,0.1602 -0.6797,0 -1.2461,-0.1875 -0.5664,-0.1875 -0.9648,-0.5625 -0.4024,-0.3789 -0.6211,-0.9453 -0.2188,-0.5703 -0.2188,-1.332 0,-1.3946 0.8125,-2.1993 0.8164,-0.8086 2.2383,-0.8086 0.4961,0 1.0117,0.1211 0.5195,0.1172 1.1172,0.4024 v 0.918 h -0.07 q -0.1211,-0.094 -0.3516,-0.2461 -0.2304,-0.1524 -0.4531,-0.2539 -0.2695,-0.1211 -0.6133,-0.1993 -0.3398,-0.082 -0.7734,-0.082 -0.9766,0 -1.5469,0.6289 -0.5664,0.625 -0.5664,1.6953 0,1.1289 0.5937,1.7578 0.5938,0.625 1.6172,0.625 0.375,0 0.7461,-0.074 0.375,-0.074 0.6563,-0.1914 v -1.4258 h -1.5586 v -0.6797 h 2.3242 z"></path><path d="m 1706.6438,3172.3325 h -3.832 v -5.8164 h 3.832 v 0.6875 h -3.0586 v 1.5938 h 3.0586 v 0.6875 h -3.0586 v 2.1601 h 3.0586 z"></path><path d="m 1712.0227,3167.2036 h -2.0781 v 5.1289 h -0.7735 v -5.1289 h -2.0781 v -0.6875 h 4.9297 z"></path><path d="m 1717.675,3172.3325 h -2.2968 v -0.5937 h 0.7617 v -4.6289 h -0.7617 v -0.5938 h 2.2968 v 0.5938 h -0.7617 v 4.6289 h 0.7617 z"></path><path d="m 1723.1477,3167.2036 h -2.0781 v 5.1289 h -0.7735 v -5.1289 h -2.0781 v -0.6875 h 4.9297 z"></path><path d="m 1731.0852,3167.1841 q 0.3555,0.3906 0.543,0.957 0.1914,0.5664 0.1914,1.2852 0,0.7187 -0.1953,1.289 -0.1914,0.5664 -0.5391,0.9453 -0.3594,0.3946 -0.8516,0.5938 -0.4882,0.1992 -1.1171,0.1992 -0.6133,0 -1.1172,-0.2031 -0.5,-0.2031 -0.8516,-0.5899 -0.3516,-0.3867 -0.543,-0.9492 -0.1875,-0.5625 -0.1875,-1.2851 0,-0.711 0.1875,-1.2735 0.1875,-0.5664 0.5469,-0.9687 0.3438,-0.3828 0.8516,-0.586 0.5117,-0.2031 1.1133,-0.2031 0.625,0 1.121,0.2071 0.5,0.2031 0.8477,0.582 z m -0.07,2.2422 q 0,-1.1328 -0.5078,-1.7461 -0.5078,-0.6172 -1.3867,-0.6172 -0.8868,0 -1.3946,0.6172 -0.5039,0.6133 -0.5039,1.7461 0,1.1445 0.5156,1.7539 0.5157,0.6054 1.3829,0.6054 0.8671,0 1.3789,-0.6054 0.5156,-0.6094 0.5156,-1.7539 z"></path><path d="m 1737.4836,3172.3325 h -0.957 l -2.7578,-5.2031 v 5.2031 h -0.7227 v -5.8164 h 1.1993 l 2.5156,4.75 v -4.75 h 0.7226 z"></path></g><g aria-label="SibApp" fill="#fff"><path d="m 1705.1956,3185.6772 q 0,0.6797 -0.3204,1.3438 -0.3125,0.6641 -0.8828,1.125 -0.625,0.5 -1.4609,0.7812 -0.8281,0.2813 -2,0.2813 -1.2578,0 -2.2656,-0.2344 -1,-0.2344 -2.0391,-0.6953 v -1.9375 h 0.1094 q 0.8828,0.7344 2.039,1.1328 1.1563,0.3985 2.1719,0.3985 1.4375,0 2.2344,-0.5391 0.8047,-0.5391 0.8047,-1.4375 0,-0.7734 -0.3828,-1.1406 -0.375,-0.3672 -1.1485,-0.5703 -0.5859,-0.1563 -1.2734,-0.2579 -0.6797,-0.1015 -1.4453,-0.2578 -1.5469,-0.3281 -2.2969,-1.1172 -0.7422,-0.7968 -0.7422,-2.0703 0,-1.4609 1.2344,-2.3906 1.2344,-0.9375 3.1328,-0.9375 1.2266,0 2.25,0.2344 1.0234,0.2344 1.8125,0.5781 v 1.8281 h -0.1094 q -0.664,-0.5625 -1.75,-0.9297 -1.0781,-0.375 -2.2109,-0.375 -1.2422,0 -2,0.5157 -0.75,0.5156 -0.75,1.3281 0,0.7266 0.375,1.1406 0.375,0.4141 1.3203,0.6328 0.5,0.1094 1.4219,0.2657 0.9219,0.1562 1.5625,0.3203 1.2969,0.3437 1.9531,1.039 0.6563,0.6953 0.6563,1.9453 z"></path><path d="m 1709.9409,3178.8101 h -1.6563 v -1.5235 h 1.6563 z m -0.094,10.1875 h -1.4687 v -8.7266 h 1.4687 z"></path><path d="m 1721.2487,3184.5679 q 0,1.0937 -0.3125,1.9687 -0.3047,0.875 -0.8281,1.4688 -0.5547,0.6172 -1.2188,0.9297 -0.6641,0.3046 -1.4609,0.3046 -0.7422,0 -1.2969,-0.1796 -0.5547,-0.1719 -1.0938,-0.4688 l -0.094,0.4063 h -1.375 v -12.1563 h 1.4687 v 4.3438 q 0.6172,-0.5079 1.3125,-0.8282 0.6954,-0.3281 1.5625,-0.3281 1.5469,0 2.4375,1.1875 0.8985,1.1875 0.8985,3.3516 z m -1.5156,0.039 q 0,-1.5625 -0.5157,-2.3672 -0.5156,-0.8125 -1.664,-0.8125 -0.6407,0 -1.2969,0.2813 -0.6563,0.2734 -1.2188,0.7109 v 5 q 0.625,0.2813 1.0704,0.3907 0.4531,0.1093 1.0234,0.1093 1.2187,0 1.9062,-0.7968 0.6954,-0.8047 0.6954,-2.5157 z"></path><path d="m 1733.6268,3188.9976 h -1.6484 l -1.1407,-3.2422 h -5.0312 l -1.1406,3.2422 h -1.5703 l 4.2343,-11.6329 h 2.0625 z m -3.2656,-4.5704 -2.0391,-5.7109 -2.0469,5.7109 z"></path><path d="m 1743.7549,3184.5288 q 0,1.0625 -0.3047,1.9453 -0.3046,0.875 -0.8593,1.4844 -0.5157,0.5781 -1.2188,0.8984 -0.6953,0.3125 -1.4765,0.3125 -0.6797,0 -1.2344,-0.1484 -0.5469,-0.1484 -1.1172,-0.4609 v 3.6562 h -1.4688 v -11.9453 h 1.4688 v 0.9141 q 0.5859,-0.4922 1.3125,-0.8204 0.7344,-0.3359 1.5625,-0.3359 1.5781,0 2.4531,1.1953 0.8828,1.1875 0.8828,3.3047 z m -1.5156,0.039 q 0,-1.5782 -0.5391,-2.3594 -0.539,-0.7813 -1.6562,-0.7813 -0.6328,0 -1.2734,0.2735 -0.6407,0.2734 -1.2266,0.7187 v 4.9453 q 0.625,0.2813 1.0703,0.3829 0.4531,0.1015 1.0234,0.1015 1.2266,0 1.9141,-0.8281 0.6875,-0.8281 0.6875,-2.4531 z"></path><path d="m 1754.5237,3184.5288 q 0,1.0625 -0.3047,1.9453 -0.3047,0.875 -0.8594,1.4844 -0.5156,0.5781 -1.2187,0.8984 -0.6953,0.3125 -1.4766,0.3125 -0.6797,0 -1.2344,-0.1484 -0.5468,-0.1484 -1.1172,-0.4609 v 3.6562 h -1.4687 v -11.9453 h 1.4687 v 0.9141 q 0.586,-0.4922 1.3125,-0.8204 0.7344,-0.3359 1.5625,-0.3359 1.5782,0 2.4532,1.1953 0.8828,1.1875 0.8828,3.3047 z m -1.5156,0.039 q 0,-1.5782 -0.5391,-2.3594 -0.5391,-0.7813 -1.6563,-0.7813 -0.6328,0 -1.2734,0.2735 -0.6406,0.2734 -1.2266,0.7187 v 4.9453 q 0.625,0.2813 1.0704,0.3829 0.4531,0.1015 1.0234,0.1015 1.2266,0 1.9141,-0.8281 0.6875,-0.8281 0.6875,-2.4531 z"></path></g><path d="m 1677.3715,3167.2188 a 5.812,5.812 0 0 0 2.133,-4.019 6.338,6.338 0 0 0 -4.39,1.352 5.555,5.555 0 0 0 -2.143,3.883 5.251,5.251 0 0 0 4.4,-1.216 z m -13.177,5.818 c -3.072,6.8 -0.946,11.45 0.1,12.945 a 12.642,12.642 0 0 1 3.257,-9.38 6.688,6.688 0 0 1 9.42,-1.384 c -5.067,-4.324 -12.724,-2.317 -12.777,-2.181 z m 15.93,-1.4 c -6.951,-2.818 -11.076,-0.762 -12.5,0.248 a 12.626,12.626 0 0 1 9.921,3.815 6.64,6.64 0 0 1 0.985,8.494 c 4.308,-4.863 1.869,-12.44 1.59,-12.557 z m 1.519,16.26 c 2.927,-6.938 1.058,-11.11 0,-12.7 a 12.713,12.713 0 0 1 -3.111,9.011 6.681,6.681 0 0 1 -5.73,2.99 8.613,8.613 0 0 1 -3.538,-1.036 q -0.189,-0.163 -0.379,-0.342 a 6.642,6.642 0 0 1 -1.425,-9.057 c -3.8,4.431 -2.454,12.212 -2.3,12.278 7.244,3.155 11.52,1.112 13.04,0.07 a 13,13 0 0 1 -8.945,-2.956 c 5.036,3.5 12.273,1.985 12.377,1.738 z m -3.983,-12.04 0.024,-0.017 c -0.044,-0.044 -0.085,-0.087 -0.131,-0.129 v -0.015 a 6.686,6.686 0 0 0 -0.565,-0.485 c 0.223,0.214 0.451,0.42 0.672,0.646 z m 0.852,8.361 a 0.126,0.126 0 0 1 0.024,-0.027 v 0 z" fill="#ffffff"></path></g></svg>
