<svg xmlns="http://www.w3.org/2000/svg" viewBox="0 0 32 32"><path fill="#b28966" d="M5.50154,7.394l-.4168.25215a.58705.58705,0,0,0-.26031.66454l.022.07656A1.76106,1.76106,0,0,1,4.79935,9.502l-.02841.07443a.587.587,0,0,0,.20331.68413l.394.28642c.39059.7304,2.14544,1.09728,3.60262,1.0478,2.00872-.0682,4.82384-.99066,4.87785-2.26869s-2.67324-2.43474-4.669-2.67218C7.73191,6.48166,5.95237,6.69917,5.50154,7.394Z"/><path fill="#2c2b2d" d="M8.73779,12.09863c-1.15722,0-3.10351-.24707-3.74463-1.206l-.313-.22754a1.09069,1.09069,0,0,1-.37647-1.26758,1.332,1.332,0,0,0,.0625-.87109,1.11528,1.11528,0,0,1,.46094-1.3086l.32959-.20019c.77441-.96875,2.98535-.99317,4.082-.85938,1.81982.21582,5.18652,1.374,5.10937,3.18946-.07617,1.81445-3.5288,2.68457-5.36035,2.74707C8.90967,12.09668,8.82617,12.09863,8.73779,12.09863ZM8.21,7.09668A3.363,3.363,0,0,0,5.9209,7.666a.51018.51018,0,0,1-.15967.15527l-.4165.25293a.08608.08608,0,0,0-.04.09863A2.335,2.335,0,0,1,5.2666,9.68066c-.04248.11036-.02978.15235.00195.17579l.39356.28613a.49036.49036,0,0,1,.147.16894c.22119.41309,1.61621.833,3.14453.78321,2.062-.07032,4.3628-1.00684,4.39551-1.78907.0332-.78418-2.17969-1.91113-4.22851-2.15527A7.70773,7.70773,0,0,0,8.21,7.09668Zm-2.7085.29687h0Z"/><path fill="#b28966" d="M18.75265,7.55416l-.4063.26876a.587.587,0,0,0-.2333.67449l.0251.07561A1.76109,1.76109,0,0,1,18.136,9.68875l-.02538.07551a.587.587,0,0,0,.23072.67538l.40528.2703c.41972.71405,2.18793,1.00988,3.64194.90168,2.00433-.14914,4.78-1.18436,4.7824-2.46353s-2.76924-2.325-4.773-2.48174C20.94441,6.55262,19.17509,6.84171,18.75265,7.55416Z"/><path fill="#2c2b2d" d="M21.82129,12.13086c-1.167,0-2.82227-.21875-3.43555-1.06055l-.32129-.21484a1.09154,1.09154,0,0,1-.42871-1.249,1.32938,1.32938,0,0,0,.02735-.875,1.11483,1.11483,0,0,1,.40918-1.32618l.32128-.21289C19.127,6.19336,21.335,6.082,22.4375,6.168c1.82715.14258,5.2373,1.165,5.2334,2.98144-.00293,1.81739-3.418,2.8252-5.24512,2.96094C22.249,12.123,22.044,12.13086,21.82129,12.13086ZM21.7627,7.1416a3.74273,3.74273,0,0,0-2.58008.667.50647.50647,0,0,1-.15332.16211l-.40625.26953a.08493.08493,0,0,0-.03516.09864,2.33548,2.33548,0,0,1,.02149,1.50976c-.03711.11133-.02247.15332.00976.17481l.40527.27051a.50271.50271,0,0,1,.1543.16308c.23731.40332,1.64649.77344,3.17285.65527,2.05762-.15234,4.31836-1.18066,4.31934-1.96484.002-.78418-2.25488-1.82129-4.31152-1.9834C22.15723,7.14844,21.958,7.1416,21.7627,7.1416Zm-3.00977.41211h0Z"/><path fill="#b28966" d="M12.1163,7.0037l-.4063.26875a.587.587,0,0,0-.2333.67449l.0251.07561a1.76109,1.76109,0,0,1-.00213,1.11573l-.02538.07551a.587.587,0,0,0,.23073.67538l.40527.2703c.41972.71406,2.18793,1.00988,3.64194.90169,2.00433-.14914,4.78-1.18436,4.7824-2.46354s-2.76924-2.325-4.773-2.48173C14.30806,6.00216,12.53874,6.29124,12.1163,7.0037Z"/><path fill="#2c2b2d" d="M15.19043,11.58105c-1.167,0-2.82617-.21875-3.44043-1.06152l-.32178-.21387A1.08952,1.08952,0,0,1,11,9.05469a1.33861,1.33861,0,0,0,.02734-.875,1.11567,1.11567,0,0,1,.40674-1.32422l.32276-.21289c.73486-1.00195,2.94336-1.11035,4.04394-1.02442,1.82715.14161,5.23731,1.16309,5.2334,2.98047-.00293,1.81641-3.417,2.8252-5.24463,2.96192C15.61426,11.57324,15.41113,11.58105,15.19043,11.58105Zm-.06836-4.99023a3.73192,3.73192,0,0,0-2.57568.668.4997.4997,0,0,1-.1543.16211l-.40625.26855a.08826.08826,0,0,0-.03467.10059,2.33965,2.33965,0,0,1,.02246,1.50781c-.03808.11231-.02392.1543.00928.17578l.4043.26953a.50281.50281,0,0,1,.15429.16309c.23731.40332,1.64258.77441,3.17432.65625,2.05664-.15332,4.31738-1.18164,4.31836-1.96582.002-.78418-2.25488-1.82129-4.31152-1.98242C15.51953,6.59863,15.31885,6.59082,15.12207,6.59082Zm-3.00586.41309h0Z"/><path fill="#b28966" d="M22.82242,10.71489l-.41681.25215a.587.587,0,0,0-.2603.66454l.022.07656a1.76117,1.76117,0,0,1-.04711,1.11473l-.02841.07443a.587.587,0,0,0,.2033.68413l.39405.28642c.39059.7304,2.14543,1.09728,3.60262,1.04781,2.00871-.0682,4.82383-.99066,4.87785-2.2687s-2.67324-2.43473-4.669-2.67217C25.05279,9.80254,23.27324,10.02005,22.82242,10.71489Z"/><path fill="#2c2b2d" d="M26.06348,15.41992c-1.15723,0-3.10743-.248-3.749-1.206l-.31347-.22852a1.08762,1.08762,0,0,1-.376-1.2666,1.32728,1.32728,0,0,0,.06152-.873,1.11977,1.11977,0,0,1,.459-1.30664l.332-.20019c.77637-.96875,2.99023-.99219,4.082-.86035,1.81934.21582,5.18652,1.374,5.11035,3.18945-.07812,1.81543-3.53027,2.68555-5.36133,2.748C26.23242,15.418,26.15039,15.41992,26.06348,15.41992ZM25.53516,10.418a3.37839,3.37839,0,0,0-2.294.56933.4963.4963,0,0,1-.16016.15528l-.417.25195a.089.089,0,0,0-.03808.09961,2.31937,2.31937,0,0,1-.03809,1.50684c-.043.11132-.03027.15234.001.17578l.39453.28711a.49173.49173,0,0,1,.14746.16894c.21973.41211,1.5957.833,3.14453.78321,2.06152-.07032,4.36133-1.00684,4.39453-1.791.03321-.7832-2.17969-1.91016-4.22754-2.1543A7.85854,7.85854,0,0,0,25.53516,10.418Zm-2.71289.29687h0Z"/><path fill="#b28966" d="M16.18067,10.71489l-.41681.25215a.587.587,0,0,0-.2603.66454l.022.07656a1.76117,1.76117,0,0,1-.04711,1.11473l-.02841.07443a.587.587,0,0,0,.2033.68413l.394.28642c.39059.7304,2.14543,1.09728,3.60262,1.04781,2.00871-.0682,4.82383-.99066,4.87785-2.2687s-2.67324-2.43473-4.669-2.67217C18.411,9.80254,16.63149,10.02005,16.18067,10.71489Z"/><path fill="#2c2b2d" d="M19.42188,15.41992c-1.15723,0-3.1084-.248-3.74952-1.206l-.31347-.22852a1.0879,1.0879,0,0,1-.376-1.2666,1.319,1.319,0,0,0,.062-.87207,1.11877,1.11877,0,0,1,.459-1.30762l.33252-.20019c.7749-.96875,2.98779-.99219,4.08056-.86035,1.82031.21582,5.1875,1.374,5.11133,3.18945-.07812,1.81543-3.53027,2.68555-5.36133,2.748C19.59082,15.418,19.50879,15.41992,19.42188,15.41992Zm-.5293-5.00195a3.3661,3.3661,0,0,0-2.29248.56933.49794.49794,0,0,1-.16065.15528l-.417.25195a.08923.08923,0,0,0-.03857.09961A2.30669,2.30669,0,0,1,15.9458,13.001c-.04248.11132-.03027.15234.001.1748l.395.28809a.50739.50739,0,0,1,.14648.16894c.22022.41211,1.59375.833,3.14551.78321,2.06152-.07032,4.36133-1.00684,4.39453-1.791.0332-.7832-2.17969-1.91016-4.22852-2.1543A7.85854,7.85854,0,0,0,18.89258,10.418Zm-2.71192.29687h0Z"/><path fill="#b28966" d="M2.18067,9.71489,1.76386,9.967a.587.587,0,0,0-.2603.66454l.022.07656a1.76117,1.76117,0,0,1-.04711,1.11473l-.02841.07443a.587.587,0,0,0,.2033.68413l.394.28642c.39059.7304,2.14543,1.09728,3.60262,1.04781,2.00871-.0682,4.82383-.99066,4.87785-2.2687s-2.67324-2.43473-4.669-2.67217C4.411,8.80254,2.63149,9.02005,2.18067,9.71489Z"/><path fill="#2c2b2d" d="M5.42188,14.41992c-1.15723,0-3.1084-.248-3.74952-1.206l-.31347-.22852a1.0879,1.0879,0,0,1-.376-1.2666,1.319,1.319,0,0,0,.062-.87207,1.11877,1.11877,0,0,1,.459-1.30762l.33252-.20019c.77441-.96875,2.98632-.99317,4.08154-.86035,1.81982.21582,5.18652,1.374,5.10937,3.18945S7.49805,14.35352,5.667,14.416C5.59033,14.418,5.5083,14.41992,5.42188,14.41992ZM4.89258,9.418A3.3661,3.3661,0,0,0,2.6001,9.9873a.49794.49794,0,0,1-.16065.15528l-.417.25195a.08923.08923,0,0,0-.03857.09961A2.30669,2.30669,0,0,1,1.9458,12.001c-.04248.11132-.03027.15234.001.1748l.395.28809a.50739.50739,0,0,1,.14648.16894c.2207.41211,1.61817.83985,3.145.78321,2.06152-.07032,4.36182-1.00684,4.395-1.791.0332-.7832-2.17969-1.91016-4.22852-2.1543A7.85228,7.85228,0,0,0,4.89258,9.418Zm-2.71192.29687h0Z"/><path fill="#b28966" d="M17.53232,10.47384l-.41681.25215a.587.587,0,0,0-.2603.66453l.022.07657a1.761,1.761,0,0,1-.04711,1.11473l-.02841.07443a.587.587,0,0,0,.20331.68413l.394.28642c.3906.7304,2.14544,1.09728,3.60262,1.0478,2.00872-.06819,4.82384-.99065,4.87785-2.26869s-2.67323-2.43473-4.669-2.67217C19.76268,9.56149,17.98314,9.779,17.53232,10.47384Z"/><path fill="#2c2b2d" d="M20.77344,15.17871c-1.15625,0-3.10742-.24805-3.749-1.20605l-.313-.22754a1.09023,1.09023,0,0,1-.377-1.26758,1.33714,1.33714,0,0,0,.0625-.873,1.11706,1.11706,0,0,1,.4585-1.30664l.332-.20019c.77637-.96875,2.99023-.99219,4.082-.86036,1.81934.21583,5.18652,1.374,5.11035,3.18946-.07812,1.81543-3.53027,2.68554-5.36133,2.748C20.94238,15.17676,20.86035,15.17871,20.77344,15.17871Zm-.52832-5.002a3.37839,3.37839,0,0,0-2.29395.56933.49647.49647,0,0,1-.16015.15528l-.417.252a.08763.08763,0,0,0-.03808.09961,2.34122,2.34122,0,0,1-.03906,1.50781c-.042.11035-.0293.15235.00292.17578l.39356.28614a.50207.50207,0,0,1,.14746.16894c.21973.41113,1.59668.83594,3.14453.7832,2.06153-.07031,4.36133-1.00683,4.39453-1.79s-2.17968-1.91114-4.22754-2.15528A7.85854,7.85854,0,0,0,20.24512,10.17676Zm-2.71289.29687h0Z"/><path fill="#b28966" d="M12.21061,10.03576l-.41681.25215a.587.587,0,0,0-.2603.66454l.022.07656a1.76113,1.76113,0,0,1-.04712,1.11474l-.02841.07443a.58705.58705,0,0,0,.20331.68413l.394.28642c.3906.7304,2.14544,1.09728,3.60262,1.0478,2.00872-.0682,4.82384-.99066,4.87785-2.26869s-2.67323-2.43474-4.669-2.67218C14.441,9.12341,12.66143,9.34092,12.21061,10.03576Z"/><path fill="#2c2b2d" d="M15.44727,14.74023c-1.15723,0-3.104-.24707-3.74512-1.20605l-.313-.22754a1.0907,1.0907,0,0,1-.37646-1.26758,1.33183,1.33183,0,0,0,.0625-.87109,1.11511,1.11511,0,0,1,.46093-1.30859l.32959-.19922c.77539-.96973,2.98877-.99317,4.082-.86036,1.81983.21583,5.187,1.374,5.10987,3.18946-.07715,1.81445-3.5293,2.68457-5.36035,2.74707C15.61914,14.73828,15.53564,14.74023,15.44727,14.74023Zm-.52735-5.002a3.35968,3.35968,0,0,0-2.29.57031.498.498,0,0,1-.16064.15528l-.41651.252a.08639.08639,0,0,0-.03857.09766,2.3408,2.3408,0,0,1-.03857,1.50879c-.04248.11035-.02979.15234.00195.17578l.39355.28613a.49042.49042,0,0,1,.147.169c.2207.41308,1.61132.83886,3.145.7832,2.06152-.07031,4.3623-1.00684,4.39453-1.78906.03418-.78418-2.17871-1.91114-4.228-2.15528A7.69148,7.69148,0,0,0,14.91992,9.73828Zm-2.70947.29785h0Z"/><path fill="#b28966" d="M7.47077,10.47384,7.054,10.726a.587.587,0,0,0-.26031.66453l.022.07657a1.7611,1.7611,0,0,1-.04711,1.11473l-.02841.07443a.587.587,0,0,0,.20331.68413l.394.28642c.39059.7304,2.14543,1.09728,3.60262,1.0478,2.00871-.06819,4.82383-.99065,4.87785-2.26869s-2.67324-2.43473-4.669-2.67217C9.70114,9.56149,7.9216,9.779,7.47077,10.47384Z"/><path fill="#2c2b2d" d="M10.71191,15.17871c-1.15722,0-3.10791-.24805-3.74951-1.20605l-.313-.22754A1.0907,1.0907,0,0,1,6.273,12.47754a1.3372,1.3372,0,0,0,.0625-.873,1.11636,1.11636,0,0,1,.45947-1.30664l.33154-.20019c.77442-.96875,2.98536-.99414,4.08155-.86036,1.81982.21583,5.18652,1.374,5.10937,3.19043-.07617,1.81446-3.52881,2.68457-5.36035,2.74707C10.88037,15.17676,10.79834,15.17871,10.71191,15.17871Zm-.52929-5.002a3.3661,3.3661,0,0,0-2.29248.56933.498.498,0,0,1-.16065.15528l-.4165.252a.08881.08881,0,0,0-.03906.09961,2.335,2.335,0,0,1-.03809,1.50781c-.04248.11035-.02979.15235.002.17578l.39356.28614a.49036.49036,0,0,1,.147.16894c.22022.41211,1.61279.84278,3.145.7832,2.06152-.07031,4.36182-1.00683,4.395-1.79s-2.17969-1.91114-4.22852-2.15528A7.85228,7.85228,0,0,0,10.18262,10.17676Zm-2.71192.29687h0Z"/><path fill="#f7991d" d="M10.5,25.90814h11l-.382-.382a2.55834,2.55834,0,0,1-.618-2.618h-9a2.55834,2.55834,0,0,1-.618,2.618Z"/><path fill="#2c2b2d" d="M21.50016,26.4082h-11a.5.5,0,0,1-.35351-.85351l.38232-.38184a2.04819,2.04819,0,0,0,.49707-2.10644.49993.49993,0,0,1,.47412-.65821h9a.501.501,0,0,1,.47461.65821,2.04573,2.04573,0,0,0,.49707,2.10644l.38184.38184a.5.5,0,0,1-.35352.85351Zm-9.877-1h8.75391a3.0353,3.0353,0,0,1-.49415-2H12.11735A3.03535,3.03535,0,0,1,11.62321,25.4082Z"/><path fill="#f7991d" d="M11.81687,22.86505,12,22.90814h8l.18313-.04309A16.00033,16.00033,0,0,0,31.5,12.90815H.5A16.00033,16.00033,0,0,0,11.81687,22.86505Z"/><path fill="#2c2b2d" d="M20,23.4082H12a.50082.50082,0,0,1-.11426-.01367l-.1831-.043h0A16.46907,16.46907,0,0,1,.03174,13.084.49975.49975,0,0,1,.5,12.4082h31a.49922.49922,0,0,1,.46777.67578A16.46851,16.46851,0,0,1,20.29785,23.35156l-.18359.044A.569.569,0,0,1,20,23.4082Zm-7.94189-1,8.01123-.03027a15.47051,15.47051,0,0,0,10.6914-8.96973H1.23975a15.47259,15.47259,0,0,0,10.6914,8.97071Z"/><path fill="#2c2b2d" d="M29.999,16.4082H2.001a.5.5,0,0,1,0-1H29.999a.5.5,0,0,1,0,1Z"/></svg>
