<svg xmlns="http://www.w3.org/2000/svg" version="1.1" x="0px" y="0px" viewBox="0 0 48 48" xml:space="preserve"><style type="text/css">.st0{fill:#FFD4C3;stroke:#504B46;stroke-linecap:round;stroke-linejoin:round;stroke-miterlimit:10;} .st1{fill:#FFC258;} .st2{fill:#4F4B45;} .st3{fill:#FABFA5;} .st4{fill:none;stroke:#504B46;stroke-linecap:round;stroke-linejoin:round;stroke-miterlimit:10;} .Graphic_x0020_Style{opacity:0.15;fill:#45413C;} .st5{opacity:0.15;fill:#45413C;} .st6{fill:#DEBB7E;stroke:#45413C;stroke-linecap:round;stroke-linejoin:round;stroke-miterlimit:10;} .st7{fill:#F0D5A8;} .st8{fill:#F7E5C6;} .st9{fill:#DEBB7E;} .st10{fill:none;stroke:#45413C;stroke-linecap:round;stroke-linejoin:round;stroke-miterlimit:10;} .st11{fill:#FFE500;} .st12{fill:#EBCB00;} .st13{fill:none;stroke:#EBCB00;stroke-linecap:round;stroke-linejoin:round;stroke-miterlimit:10;} .st14{fill:#FF6242;stroke:#45413C;stroke-linecap:round;stroke-linejoin:round;stroke-miterlimit:10;} .st15{fill:#FFFFFF;stroke:#45413C;stroke-linecap:round;stroke-linejoin:round;stroke-miterlimit:10;} .st16{fill:#E5F8FF;} .st17{fill:#FFFFFF;} .st18{fill:#E8F4FA;} .st19{fill:#E8F4FA;stroke:#45413C;stroke-linecap:round;stroke-linejoin:round;stroke-miterlimit:10;} .st20{fill:#FFCCDD;} .st21{fill:#FFB0CA;stroke:#45413C;stroke-linecap:round;stroke-linejoin:round;stroke-miterlimit:10;} .st22{fill:#FF87AF;stroke:#45413C;stroke-linecap:round;stroke-linejoin:round;stroke-miterlimit:10;} .st23{fill:#E5F8FF;stroke:#45413C;stroke-linecap:round;stroke-linejoin:round;stroke-miterlimit:10;} .st24{fill:#BF8256;stroke:#45413C;stroke-linecap:round;stroke-linejoin:round;stroke-miterlimit:10;} .st25{fill:#9CEB60;} .st26{fill:#6DD627;} .st27{fill:#C8FFA1;} .st28{fill:#FFFACF;} .st29{fill:#FF87AF;} .st30{fill:#FFB0CA;} .st31{fill:#FF6196;} .st32{fill:#FFCCDD;stroke:#45413C;stroke-linecap:round;stroke-linejoin:round;stroke-miterlimit:10;} .st33{fill:#FF6196;stroke:#45413C;stroke-linecap:round;stroke-linejoin:round;stroke-miterlimit:10;} .st34{fill:#FFE5EE;} .st35{fill:#00B8F0;} .st36{fill:#4ACFFF;} .st37{fill:#BF8256;} .st38{fill:#DEA47A;} .st39{fill:#915E3A;} .st40{fill:#FFF5E3;} .st41{fill:#F0F0F0;} .st42{fill:#8CA4B8;} .st43{fill:#627B8C;} .st44{fill:#C0DCEB;} .st45{fill:#FFF48C;} .st46{fill:#FFE500;stroke:#45413C;stroke-linecap:round;stroke-linejoin:round;stroke-miterlimit:10;} .st47{fill:#FFAA54;} .st48{fill:#6DD627;stroke:#45413C;stroke-linecap:round;stroke-linejoin:round;stroke-miterlimit:10;} .st49{fill:#FF8A14;} .st50{fill:#FFCC99;} .st51{fill:#EBCB00;stroke:#45413C;stroke-linecap:round;stroke-linejoin:round;stroke-miterlimit:10;} .st52{fill:#00F5BC;stroke:#45413C;stroke-linecap:round;stroke-linejoin:round;stroke-miterlimit:10;} .st53{fill:#BF8DF2;stroke:#45413C;stroke-linecap:round;stroke-linejoin:round;stroke-miterlimit:10;} .st54{fill:#FF8A14;stroke:#45413C;stroke-linecap:round;stroke-linejoin:round;stroke-miterlimit:10;} .st55{fill:#4AEFF7;stroke:#45413C;stroke-linecap:round;stroke-linejoin:round;stroke-miterlimit:10;} .st56{fill:#FFF48C;stroke:#45413C;stroke-linecap:round;stroke-linejoin:round;stroke-miterlimit:10;} .st57{fill:#FF6242;} .st58{fill:#E04122;} .st59{fill:#46B000;} .st60{fill:none;stroke:#45413C;stroke-miterlimit:10;} .st61{fill:#00B8F0;stroke:#45413C;stroke-linecap:round;stroke-linejoin:round;stroke-miterlimit:10;} .st62{fill:#FF866E;} .st63{fill:#9F5AE5;stroke:#45413C;stroke-linecap:round;stroke-linejoin:round;stroke-miterlimit:10;} .st64{fill:#E4FFD1;} .st65{fill:#FFFEF2;} .st66{fill:#B89558;} .st67{fill:none;stroke:#915E3A;stroke-linecap:round;stroke-linejoin:round;stroke-miterlimit:10;} .st68{fill:#915E3A;stroke:#45413C;stroke-linecap:round;stroke-linejoin:round;stroke-miterlimit:10;} .st69{fill:#BF8DF2;} .st70{fill:#9F5AE5;} .st71{fill:#DABFF5;} .st72{fill:none;stroke:#45413C;stroke-linejoin:round;stroke-miterlimit:10;} .st73{fill:#656769;} .st74{fill:#87898C;} .st75{fill:#E0E0E0;} .st76{fill:#BDBEC0;} .st77{fill:#656769;stroke:#45413C;stroke-linecap:round;stroke-linejoin:round;stroke-miterlimit:10;} .st78{fill:#45413C;stroke:#45413C;stroke-linecap:round;stroke-linejoin:round;stroke-miterlimit:10;} .st79{fill:#FFA694;} .st80{fill:#E04122;stroke:#45413C;stroke-linecap:round;stroke-linejoin:round;stroke-miterlimit:10;} .st81{fill:#E0E0E0;stroke:#45413C;stroke-linecap:round;stroke-linejoin:round;stroke-miterlimit:10;} .st82{fill:#F0F0F0;stroke:#45413C;stroke-linecap:round;stroke-linejoin:round;stroke-miterlimit:10;} .st83{fill:#DAEDF7;} .st84{fill:#BDBEC0;stroke:#45413C;stroke-linecap:round;stroke-linejoin:round;stroke-miterlimit:10;} .st85{fill:#87898C;stroke:#45413C;stroke-linecap:round;stroke-linejoin:round;stroke-miterlimit:10;} .st86{fill:#00DFEB;} .st87{fill:#4AEFF7;} .st88{fill:#DAEDF7;stroke:#45413C;stroke-linecap:round;stroke-linejoin:round;stroke-miterlimit:10;} .st89{fill:#FFDA8F;} .st90{fill:#FFBE3D;} .st91{fill:#FFE9BD;} .st92{fill:#DEA47A;stroke:#45413C;stroke-linecap:round;stroke-linejoin:round;stroke-miterlimit:10;} .st93{fill:#45413C;} .st94{fill:#F0C2A1;} .st95{fill:none;stroke:#45413C;stroke-width:1.0064;stroke-linecap:round;stroke-linejoin:round;stroke-miterlimit:10;} .st96{fill:#525252;} .st97{fill:#EB6D00;stroke:#45413C;stroke-linecap:round;stroke-linejoin:round;stroke-miterlimit:10;} .st98{fill:#EB6D00;} .st99{fill:#E5FEFF;} .st100{fill:#FF866E;stroke:#45413C;stroke-linecap:round;stroke-linejoin:round;stroke-miterlimit:10;} .st101{fill:#627B8C;stroke:#45413C;stroke-linecap:round;stroke-linejoin:round;stroke-miterlimit:10;} .st102{fill:#FFFCE5;stroke:#45413C;stroke-linecap:round;stroke-linejoin:round;stroke-miterlimit:10;} .st103{fill:#A6FBFF;} .st104{fill:#D9FDFF;} .st105{fill:#FFFACF;stroke:#45413C;stroke-linecap:round;stroke-linejoin:round;stroke-miterlimit:10;} .st106{fill:#B8ECFF;} .st107{fill:#FFCABF;} .st108{fill:#E5FFF9;} .st109{fill:#C8FFA1;stroke:#45413C;stroke-linecap:round;stroke-linejoin:round;stroke-miterlimit:10;} .st110{fill:#4CF4FC;} .st111{fill:#F0D5A8;stroke:#45413C;stroke-linecap:round;stroke-linejoin:round;stroke-miterlimit:10;} .st112{fill:#FFDCD1;stroke:#45413C;stroke-linecap:round;stroke-linejoin:round;stroke-miterlimit:10;} .st113{fill:#80DDFF;} .st114{fill:#46B000;stroke:#45413C;stroke-linecap:round;stroke-linejoin:round;stroke-miterlimit:10;} .st115{fill:#4ACFFF;stroke:#45413C;stroke-linecap:round;stroke-linejoin:round;stroke-miterlimit:10;} .st116{fill:#ADC4D9;} .st117{fill:#BDBEC0;stroke:#45413C;stroke-width:1.0064;stroke-linecap:round;stroke-linejoin:round;stroke-miterlimit:10;} .st118{fill:#FFFCE5;} .st119{fill:#947746;} .st120{fill:#525252;stroke:#45413C;stroke-linecap:round;stroke-linejoin:round;stroke-miterlimit:10;}</style><symbol id="New_Symbol_14" viewBox="-6.5 -6.5 13 13"><path class="st0" d="M0-6c2.2 0 4.1 1.5 4.7 3.5C6.3-2.5 6.4 0 5 0v1c0 2.8-2.2 5-5 5s-5-2.2-5-5V0c-1.4 0-1.3-2.5.2-2.5C-4.1-4.5-2.2-6 0-6z" fill="#FFD4C3" stroke="#504B46" stroke-linecap="round" stroke-linejoin="round" stroke-miterlimit="10"/><circle class="st1" cx="-1.6" cy="-0.1" r="0.1" fill="#FFC258"/><path class="st2" d="M-1.6.5c-.3 0-.6-.3-.6-.6s.2-.7.6-.7c.3 0 .6.3.6.7s-.3.6-.6.6z" fill="#4F4B45"/><circle class="st1" cx="1.6" cy="-0.1" r="0.1" fill="#FFC258"/><path class="st2" d="M1.6.5C1.3.5 1 .2 1-.1s.3-.6.6-.6.6.3.6.6-.2.6-.6.6z" fill="#4F4B45"/><circle class="st3" cx="-3" cy="-1.5" r="0.5" fill="#FABFA5"/><circle class="st3" cx="3" cy="-1.5" r="0.5" fill="#FABFA5"/><path class="st4" d="M-1.2-3c.8-.5 1.7-.5 2.5 0" fill="none" stroke="#504B46" stroke-linecap="round" stroke-linejoin="round" stroke-miterlimit="10"/></symbol><g id="Icons"><g id="XMLID_1892_"><ellipse id="XMLID_3_" class="st5" cx="11.7" cy="43.7" rx="9" ry="1.5" fill="#45413C" opacity="0.15"/><ellipse id="XMLID_40_" class="st5" cx="37.8" cy="43.7" rx="9" ry="1.5" fill="#45413C" opacity="0.15"/><g id="XMLID_1549_"><path id="XMLID_1493_" class="st61" d="M18.2 40.6c-.3-.9-2.4-2-5.3-2.8-.4-.1-.6-.4-.5-.8l1-5.7-2.1-.4-1 5.7c-.1.4-.4.6-.8.6-2.9-.3-5.3-.1-5.9.7-.1.1-.1.4.1.5.6.5 2.6 1.8 6.9 2.6 4.3.8 6.6.3 7.4 0 .1-.1.2-.3.2-.4z" fill="#00B8F0" stroke="#45413C" stroke-linecap="round" stroke-linejoin="round" stroke-miterlimit="10"/><g id="XMLID_1553_"><path id="XMLID_1492_" class="st35" d="M12.1 32.5c7 1.3 13.2-.8 14.1-5.8.7-3.8-.4-10.2-2.7-15-.9-1.2-3-2.4-7.1-3.1S10 8.2 8.8 9C4.9 12.7 1.6 18.3 1 22.1 0 27 5.1 31.2 12.1 32.5z" fill="#00B8F0"/><path id="XMLID_1491_" class="st36" d="M2.7 27.8c9.1-2.2 17-8.8 21.8-13.7-.3-.8-.6-1.7-1-2.4-.9-1.2-3-2.4-7.1-3.1-4-.7-6.4-.4-7.6.4-3.9 3.7-7.2 9.3-7.8 13.1-.4 2.1.3 4.1 1.7 5.7z" fill="#4ACFFF"/><path id="XMLID_1490_" class="st35" d="M8.8 9c-.2 1 3 2.4 7.1 3.1 4.1.7 7.5.6 7.7-.4-.9-1.2-3-2.4-7.1-3.1S10 8.2 8.8 9z" fill="#00B8F0"/><path id="XMLID_1489_" class="st10" d="M23.5 11.7c-.2 1-3.6 1.2-7.7.4-4-.7-7.2-2.1-7-3.1" fill="none" stroke="#45413C" stroke-linecap="round" stroke-linejoin="round" stroke-miterlimit="10"/><path id="XMLID_1488_" class="st10" d="M12.1 32.5c7 1.3 13.2-.8 14.1-5.8.7-3.8-.4-10.2-2.7-15-.9-1.2-3-2.4-7.1-3.1S10 8.2 8.8 9C4.9 12.7 1.6 18.3 1 22.1 0 27 5.1 31.2 12.1 32.5z" fill="none" stroke="#45413C" stroke-linecap="round" stroke-linejoin="round" stroke-miterlimit="10"/><g id="XMLID_1554_"><path id="XMLID_1487_" class="st49" d="M3.9 23.7s2.1-1.8 4.6-1.3c2.5.5 3.8 2.9 3.8 2.9l-8.4-1.6z" fill="#FF8A14"/><path id="XMLID_1486_" class="st49" d="M19 22.5c-3.5-.6-6.7 2.8-11.2 1.9-1.9-.4-3.7-1.1-5.1-1.8v.1c-.6 3.3 3.8 6.9 9.8 8 6 1.1 11.4-.7 12-4 .1-.6.2-1.3.1-2-1.7-.9-3.6-1.8-5.6-2.2z" fill="#FF8A14"/><path id="XMLID_1485_" class="st47" d="M7.8 24.5c-1.9-.4-3.7-1.1-5.1-1.8v.1c-.3 1.5.5 3.1 2.1 4.5 2.4-.8 4.8-1.8 6.9-3-1.2.3-2.5.4-3.9.2z" fill="#FFAA54"/></g></g><g id="XMLID_1550_"><ellipse id="XMLID_1484_" transform="matrix(0.1806 -0.9836 0.9836 0.1806 -7.151 21.2314)" class="st16" cx="9.2" cy="14.9" rx="1.4" ry="1.4" fill="#E5F8FF"/><ellipse id="XMLID_1483_" transform="matrix(0.1806 -0.9836 0.9836 0.1806 -10.8873 20.1883)" class="st16" cx="6.7" cy="16.6" rx="0.7" ry="0.7" fill="#E5F8FF"/></g></g><g id="XMLID_1495_"><path id="XMLID_1481_" class="st61" d="M45 32.2c-.6-.7-3-.9-5.9-.5-.4.1-.7-.2-.8-.5L37 25.5l-2.1.5 1.3 5.6c.1.4-.1.7-.5.8-2.8.8-4.9 2-5.1 3 0 .2.1.4.3.4.8.2 3.1.6 7.4-.3 4.2-1 6.2-2.4 6.8-2.9 0-.1 0-.3-.1-.4z" fill="#00B8F0" stroke="#45413C" stroke-linecap="round" stroke-linejoin="round" stroke-miterlimit="10"/><g id="XMLID_1499_"><path id="XMLID_1480_" class="st35" d="M36.3 27.1c6.9-1.6 11.8-6 10.7-10.8-.8-3.7-4.3-9.2-8.4-12.8-1.3-.8-3.7-1-7.7-.1S24.8 5.5 24 6.8c-2.1 4.9-2.9 11.4-2.1 15.1 1.1 4.9 7.4 6.8 14.4 5.2z" fill="#00B8F0"/><path id="XMLID_1479_" class="st36" d="M25.8 26.5C33.4 20.9 38 11.8 40.5 5.4c-.6-.7-1.3-1.3-1.9-1.8-1.3-.8-3.7-1-7.7-.1S24.8 5.6 24 6.9c-2.1 4.9-2.9 11.4-2.1 15.1.5 2 1.9 3.6 3.9 4.5z" fill="#4ACFFF"/><path id="XMLID_1478_" class="st35" d="M24 6.8c.2 1 3.7 1 7.7.1s7.1-2.4 6.9-3.4c-1.3-.8-3.7-1-7.7-.1-4 1-6.1 2.2-6.9 3.4z" fill="#00B8F0"/><path id="XMLID_1188_" class="st10" d="M38.6 3.5c.2 1-2.9 2.5-6.9 3.4-4 .9-7.5.9-7.7-.1" fill="none" stroke="#45413C" stroke-linecap="round" stroke-linejoin="round" stroke-miterlimit="10"/><path id="XMLID_1187_" class="st10" d="M36.3 27.1c6.9-1.6 11.8-6 10.7-10.8-.8-3.7-4.3-9.2-8.4-12.8-1.3-.8-3.7-1-7.7-.1S24.8 5.5 24 6.8c-2.1 4.9-2.9 11.4-2.1 15.1 1.1 4.9 7.4 6.8 14.4 5.2z" fill="none" stroke="#45413C" stroke-linecap="round" stroke-linejoin="round" stroke-miterlimit="10"/><g id="XMLID_1500_"><path id="XMLID_1186_" class="st49" d="M25.3 22.3s1.3-2.5 3.7-3c2.4-.5 4.7 1.1 4.7 1.1l-8.4 1.9z" fill="#FF8A14"/><path id="XMLID_1185_" class="st49" d="M38.7 15.2c-3.5.8-5.1 5.2-9.6 6.2-1.9.4-3.8.5-5.4.4v.1c.7 3.3 6.2 4.8 12.1 3.5 6-1.3 10.2-5.1 9.5-8.4-.1-.6-.4-1.3-.6-1.9-1.9-.2-4.1-.3-6 .1z" fill="#FF8A14"/><path id="XMLID_1184_" class="st47" d="M29.1 21.4c-1.9.4-3.8.5-5.4.4v.1c.3 1.5 1.7 2.7 3.7 3.3 1.9-1.7 3.7-3.5 5.2-5.5-1 .8-2.1 1.4-3.5 1.7z" fill="#FFAA54"/></g></g><g id="XMLID_1496_"><ellipse id="XMLID_1183_" transform="matrix(0.9755 -0.22 0.22 0.9755 -2.0079 6.1599)" class="st16" cx="26.7" cy="12.1" rx="1.4" ry="1.4" fill="#E5F8FF"/><ellipse id="XMLID_1182_" transform="matrix(0.9755 -0.22 0.22 0.9755 -2.6112 5.8669)" class="st16" cx="25" cy="14.7" rx="0.7" ry="0.7" fill="#E5F8FF"/></g></g></g></g></svg>
