<svg xmlns="http://www.w3.org/2000/svg" version="1.1" x="0px" y="0px" viewBox="0 0 48 48" xml space="preserve" id="Juice9Icon"><style type="text/css"></style><symbol id="New_Symbol_14" viewBox="-6.5 -6.5 13 13"><path class="st0" d="M0-6c2.2 0 4.1 1.5 4.7 3.5C6.3-2.5 6.4 0 5 0v1c0 2.8-2.2 5-5 5s-5-2.2-5-5V0c-1.4 0-1.3-2.5.2-2.5C-4.1-4.5-2.2-6 0-6z" fill="#FFD4C3" stroke="#504B46" stroke-linecap="round" stroke-linejoin="round" stroke-miterlimit="10"></path><circle class="st1" cx="-1.6" cy="-0.1" r="0.1" fill="#FFC258"></circle><path class="st2" d="M-1.6.5c-.3 0-.6-.3-.6-.6s.2-.7.6-.7c.3 0 .6.3.6.7s-.3.6-.6.6z" fill="#4F4B45"></path><circle class="st1" cx="1.6" cy="-0.1" r="0.1" fill="#FFC258"></circle><path class="st2" d="M1.6.5C1.3.5 1 .2 1-.1s.3-.6.6-.6.6.3.6.6-.2.6-.6.6z" fill="#4F4B45"></path><circle class="st3" cx="-3" cy="-1.5" r="0.5" fill="#FABFA5"></circle><circle class="st3" cx="3" cy="-1.5" r="0.5" fill="#FABFA5"></circle><path class="st4" d="M-1.2-3c.8-.5 1.7-.5 2.5 0" fill="none" stroke="#504B46" stroke-linecap="round" stroke-linejoin="round" stroke-miterlimit="10"></path></symbol><g id="Icons"><g id="XMLID_1220_"><ellipse id="XMLID_599_" class="st5" cx="24" cy="45.6" rx="10.4" ry="1.6" fill="#45413C" opacity="0.15"></ellipse><g id="XMLID_558_"><path id="XMLID_1307_" class="st61" d="M34.1 43.2c-.6-1.2-3.7-2.1-7.7-2.4-.5 0-.9-.5-.9-1V32h-2.9v7.9c0 .5-.4.9-.9 1-4 .3-7.1 1.2-7.7 2.4-.1.2 0 .5.2.6 1 .5 4 1.8 9.9 1.8s8.9-1.3 9.9-1.8c.1-.2.2-.4.1-.7z" fill="#00B8F0" stroke="#45413C" stroke-linecap="round" stroke-linejoin="round" stroke-miterlimit="10"></path><g id="XMLID_574_"><path id="XMLID_1306_" class="st35" d="M24 33.9c9.7 0 17.5-4.4 17.5-11.2 0-5.2-3-13.6-7.3-19.5C32.8 1.8 29.6.8 24 .8s-8.8 1-10.2 2.4c-4.3 6-7.3 14.3-7.3 19.5 0 6.8 7.8 11.2 17.5 11.2z" fill="#00B8F0"></path><path id="XMLID_1305_" class="st36" d="M10.3 30C22 24.8 30.9 14 36.2 6.3c-.6-1.1-1.3-2.1-2-3C32.8 1.8 29.6.8 24 .8s-8.8 1-10.2 2.4c-4.3 6-7.3 14.3-7.3 19.5 0 2.9 1.4 5.4 3.8 7.3z" fill="#4ACFFF"></path><path id="XMLID_596_" class="st35" d="M13.8 3.3c0 1.3 4.6 2.4 10.2 2.4s10.2-1.1 10.2-2.4C32.8 1.8 29.6.8 24 .8s-8.8 1-10.2 2.5z" fill="#00B8F0"></path><path id="XMLID_595_" class="st10" d="M34.2 3.3c0 1.3-4.6 2.4-10.2 2.4S13.8 4.6 13.8 3.3" fill="none" stroke="#45413C" stroke-linecap="round" stroke-linejoin="round" stroke-miterlimit="10"></path><path id="XMLID_594_" class="st10" d="M24 33.9c9.7 0 17.5-4.4 17.5-11.2 0-5.2-3-13.6-7.3-19.5C32.8 1.8 29.6.8 24 .8s-8.8 1-10.2 2.4c-4.3 6-7.3 14.3-7.3 19.5 0 6.8 7.8 11.2 17.5 11.2z" fill="none" stroke="#45413C" stroke-linecap="round" stroke-linejoin="round" stroke-miterlimit="10"></path><g id="XMLID_575_"><path id="XMLID_593_" class="st49" d="M10.9 24.2s2.4-2.9 5.8-2.9 5.8 2.9 5.8 2.9H10.9z" fill="#FF8A14"></path><path id="XMLID_592_" class="st49" d="M30.8 18.8c-4.9 0-8.3 5.4-14.6 5.4-2.7 0-5.2-.5-7.3-1.1v.1c0 4.6 6.8 8.3 15.1 8.3s15.1-3.7 15.1-8.3c0-.9-.1-1.8-.3-2.7-2.4-.9-5.3-1.7-8-1.7z" fill="#FF8A14"></path><path id="XMLID_576_" class="st47" d="M16.2 24.2c-2.7 0-5.2-.5-7.3-1.1v.1c0 2.1 1.5 4.1 3.9 5.5 3.1-1.6 5.9-3.6 8.6-5.8-1.5.8-3.2 1.3-5.2 1.3z" fill="#FFAA54"></path></g></g><g id="XMLID_559_"><circle id="XMLID_573_" class="st16" cx="15.7" cy="11.1" r="1.9" fill="#E5F8FF"></circle><circle id="XMLID_572_" class="st16" cx="12.8" cy="14" r="1" fill="#E5F8FF"></circle></g></g></g></g></svg>
