<svg
  style="width:15px;height:15px"
  version="1.1"
  xmlns="http://www.w3.org/2000/svg"
  width="32"
  height="32"
  viewBox="0 0 32 32"
  id="MapMarkerAddIcon"
>
  <title>map-marker-add</title>
  <path d="M14.328 31.716c-0.351 0-0.681-0.155-0.908-0.413l-0.33-0.392c-1.105-1.29-10.766-12.769-10.766-18.906 0.009-6.627 5.378-11.996 12.004-12.005h0.001c6.628 0.009 11.999 5.378 12.010 12.004v0.001c0 0.661-0.536 1.197-1.197 1.197s-1.197-0.536-1.197-1.197v0c-0.009-5.306-4.309-9.604-9.615-9.61h-0.001c-5.305 0.006-9.604 4.305-9.61 9.61v0.001c0 4.072 5.987 12.305 9.61 16.661 0.103-0.129 0.227-0.268 0.351-0.428 0.408-0.495 0.919-1.141 1.497-1.889 0.221-0.284 0.563-0.465 0.947-0.465 0.661 0 1.198 0.536 1.198 1.198 0 0.277-0.094 0.533-0.252 0.736l0.002-0.003c-0.947 1.225-1.748 2.214-2.568 3.188l0.121-0.148-0.392 0.449c-0.227 0.258-0.552 0.413-0.903 0.413zM14.333 16.779c-2.542-0.122-4.557-2.213-4.557-4.774s2.015-4.652 4.546-4.774l0.011-0c2.542 0.122 4.557 2.213 4.557 4.774s-2.015 4.652-4.546 4.774l-0.011 0zM14.333 9.626c-1.316 0-2.382 1.066-2.382 2.382s1.066 2.382 2.382 2.382v0c1.316 0 2.382-1.066 2.382-2.382s-1.066-2.382-2.382-2.382v0zM28.506 23.030h-10.317c-0.661 0-1.197-0.536-1.197-1.197s0.536-1.197 1.197-1.197h10.317c0.661 0 1.197 0.536 1.197 1.197s-0.536 1.197-1.197 1.197v0zM23.345 28.191c-0.661 0-1.197-0.536-1.197-1.197v0-10.323c0-0.661 0.536-1.197 1.197-1.197s1.197 0.536 1.197 1.197v0 10.317c0 0.661-0.536 1.197-1.197 1.197v0z"></path>{' '}
</svg>
