<svg
  xmlns:xlink="http://www.w3.org/1999/xlink"
  width="32pt"
  height="32pt"
  viewBox="0 0 32 32"
  version="1.1"
  id="InfoIcon"
>
  <g>
    <path d="M 16 1.460938 C 7.972656 1.460938 1.460938 7.972656 1.460938 16 C 1.460938 24.027344 7.972656 30.539062 16 30.539062 C 24.027344 30.539062 30.539062 24.027344 30.539062 16 C 30.539062 7.972656 24.027344 1.460938 16 1.460938 Z M 19.027344 23.996094 C 18.277344 24.289062 17.683594 24.515625 17.234375 24.667969 C 16.789062 24.820312 16.273438 24.898438 15.683594 24.898438 C 14.777344 24.898438 14.070312 24.679688 13.566406 24.234375 C 13.066406 23.796875 12.816406 23.234375 12.816406 22.554688 C 12.816406 22.289062 12.835938 22.019531 12.875 21.746094 C 12.910156 21.464844 12.972656 21.160156 13.054688 20.808594 L 13.992188 17.5 C 14.070312 17.183594 14.144531 16.882812 14.203125 16.601562 C 14.257812 16.316406 14.285156 16.058594 14.285156 15.820312 C 14.285156 15.402344 14.195312 15.105469 14.023438 14.941406 C 13.847656 14.773438 13.515625 14.691406 13.023438 14.691406 C 12.785156 14.691406 12.535156 14.730469 12.277344 14.804688 C 12.023438 14.878906 11.808594 14.953125 11.625 15.019531 L 11.875 14 C 12.484375 13.75 13.070312 13.539062 13.632812 13.359375 C 14.191406 13.183594 14.726562 13.089844 15.222656 13.089844 C 16.121094 13.089844 16.816406 13.3125 17.304688 13.746094 C 17.789062 14.179688 18.035156 14.746094 18.035156 15.4375 C 18.035156 15.582031 18.019531 15.835938 17.984375 16.195312 C 17.953125 16.558594 17.890625 16.890625 17.796875 17.195312 L 16.867188 20.496094 C 16.789062 20.757812 16.722656 21.0625 16.660156 21.398438 C 16.601562 21.734375 16.570312 21.996094 16.570312 22.167969 C 16.570312 22.605469 16.667969 22.910156 16.867188 23.066406 C 17.058594 23.226562 17.398438 23.304688 17.882812 23.304688 C 18.109375 23.304688 18.367188 23.265625 18.652344 23.1875 C 18.9375 23.105469 19.144531 23.039062 19.273438 22.976562 Z M 18.859375 10.605469 C 18.429688 11.007812 17.902344 11.210938 17.292969 11.210938 C 16.683594 11.210938 16.152344 11.007812 15.714844 10.605469 C 15.277344 10.203125 15.0625 9.710938 15.0625 9.140625 C 15.0625 8.566406 15.285156 8.070312 15.714844 7.664062 C 16.152344 7.253906 16.683594 7.054688 17.292969 7.054688 C 17.902344 7.054688 18.429688 7.253906 18.859375 7.664062 C 19.296875 8.070312 19.515625 8.566406 19.515625 9.140625 C 19.515625 9.710938 19.296875 10.203125 18.859375 10.605469 Z M 18.859375 10.605469 "></path>
  </g>
</svg>
