<svg xmlns="http://www.w3.org/2000/svg" version="1.1" x="0px" y="0px" viewBox="0 0 48 48" xml space="preserve" id="WatermelonIcon"><style type="text/css"></style><symbol id="New_Symbol_14" viewBox="-6.5 -6.5 13 13"><path class="st0" d="M0-6c2.2 0 4.1 1.5 4.7 3.5C6.3-2.5 6.4 0 5 0v1c0 2.8-2.2 5-5 5s-5-2.2-5-5V0c-1.4 0-1.3-2.5.2-2.5C-4.1-4.5-2.2-6 0-6z" fill="#FFD4C3" stroke="#504B46" stroke-linecap="round" stroke-linejoin="round" stroke-miterlimit="10"></path><circle class="st1" cx="-1.6" cy="-0.1" r="0.1" fill="#FFC258"></circle><path class="st2" d="M-1.6.5c-.3 0-.6-.3-.6-.6s.2-.7.6-.7c.3 0 .6.3.6.7s-.3.6-.6.6z" fill="#4F4B45"></path><circle class="st1" cx="1.6" cy="-0.1" r="0.1" fill="#FFC258"></circle><path class="st2" d="M1.6.5C1.3.5 1 .2 1-.1s.3-.6.6-.6.6.3.6.6-.2.6-.6.6z" fill="#4F4B45"></path><circle class="st3" cx="-3" cy="-1.5" r="0.5" fill="#FABFA5"></circle><circle class="st3" cx="3" cy="-1.5" r="0.5" fill="#FABFA5"></circle><path class="st4" d="M-1.2-3c.8-.5 1.7-.5 2.5 0" fill="none" stroke="#504B46" stroke-linecap="round" stroke-linejoin="round" stroke-miterlimit="10"></path></symbol><g id="Icons"><g id="XMLID_1068_"><ellipse id="XMLID_1459_" class="st5" cx="24" cy="43.4" rx="13.5" ry="1.5" fill="#45413C" opacity="0.15"></ellipse><g id="XMLID_1374_"><g id="XMLID_1403_"><path id="XMLID_1407_" class="st25" d="M44.9 20.8c1 0 1.8.8 1.7 1.8-1 11.6-10.7 20.8-22.6 20.8S2.4 34.2 1.5 22.6c-.1-1 .7-1.8 1.7-1.8h41.7z" fill="#9CEB60"></path><path id="XMLID_1406_" class="st26" d="M24 41.4c-8.4 0-15.7-4.1-20.2-10.5C7.5 38.3 15.2 43.4 24 43.4s16.5-5.1 20.2-12.5C39.7 37.2 32.4 41.4 24 41.4z" fill="#6DD627"></path><path id="XMLID_1405_" class="st27" d="M3.1 25h41.7c.5 0 .9.2 1.2.6.2-1 .4-1.9.4-2.9.1-1-.7-1.8-1.7-1.8H3.1c-1 0-1.8.8-1.7 1.8.1 1 .2 2 .4 2.9.4-.4.8-.6 1.3-.6z" fill="#C8FFA1"></path><path id="XMLID_1404_" class="st10" d="M44.9 20.8c1 0 1.8.8 1.7 1.8-1 11.6-10.7 20.8-22.6 20.8S2.4 34.2 1.5 22.6c-.1-1 .7-1.8 1.7-1.8h41.7z" fill="none" stroke="#45413C" stroke-linecap="round" stroke-linejoin="round" stroke-miterlimit="10"></path></g><g id="XMLID_1397_"><path id="XMLID_1401_" class="st28" d="M43.7 20.8c0 10.9-8.8 19.7-19.7 19.7S4.3 31.6 4.3 20.8h39.4z" fill="#FFFACF"></path><path id="XMLID_1400_" class="st17" d="M43.2 25c.3-1.3.5-2.7.5-4.2H4.3c0 1.4.2 2.8.5 4.2h38.4z" fill="#FFF"></path><path id="XMLID_1399_" class="st10" d="M43.7 20.8c0 10.9-8.8 19.7-19.7 19.7S4.3 31.6 4.3 20.8h39.4z" fill="none" stroke="#45413C" stroke-linecap="round" stroke-linejoin="round" stroke-miterlimit="10"></path></g><g id="XMLID_1393_"><path id="XMLID_1396_" class="st29" d="M41.2 20.8C41.2 30.3 33.5 38 24 38S6.8 30.3 6.8 20.8h34.4z" fill="#FF87AF"></path><path id="XMLID_1395_" class="st30" d="M40.6 25c.3-1.3.5-2.7.5-4.2H6.8c0 1.4.2 2.8.5 4.2h33.3z" fill="#FFB0CA"></path><path id="XMLID_1394_" class="st10" d="M41.2 20.8C41.2 30.3 33.5 38 24 38S6.8 30.3 6.8 20.8h34.4z" fill="none" stroke="#45413C" stroke-linecap="round" stroke-linejoin="round" stroke-miterlimit="10"></path></g><ellipse id="XMLID_1392_" class="st31" cx="18" cy="27.5" rx="1.1" ry="0.7" fill="#FF6196"></ellipse><g id="XMLID_1389_"><path id="XMLID_1391_" class="st32" d="M26.7 29.3c.5 0 .8.4.7.9-.4 1.5-1.8 2.6-3.4 2.6-1.6 0-3-1.1-3.4-2.6-.1-.4.2-.9.7-.9h5.4z" fill="#FCD" stroke="#45413C" stroke-linecap="round" stroke-linejoin="round" stroke-miterlimit="10"></path><path id="XMLID_1390_" class="st33" d="M24 32.8c1.1 0 2.1-.5 2.8-1.4-.7-.5-1.7-.7-2.8-.7-1.1 0-2.1.3-2.8.7.7.8 1.7 1.4 2.8 1.4z" fill="#FF6196" stroke="#45413C" stroke-linecap="round" stroke-linejoin="round" stroke-miterlimit="10"></path></g><path id="XMLID_1377_" class="st10" d="M17.6 26.1c0-.6.5-1.1 1.1-1.1.6 0 1.1.5 1.1 1.1" fill="none" stroke="#45413C" stroke-linecap="round" stroke-linejoin="round" stroke-miterlimit="10"></path><ellipse id="XMLID_1376_" class="st31" cx="30" cy="27.5" rx="1.1" ry="0.7" fill="#FF6196"></ellipse><path id="XMLID_1375_" class="st10" d="M30.4 26.1c0-.6-.5-1.1-1.1-1.1-.6 0-1.1.5-1.1 1.1" fill="none" stroke="#45413C" stroke-linecap="round" stroke-linejoin="round" stroke-miterlimit="10"></path></g><g id="XMLID_1321_"><g id="XMLID_1350_"><path id="XMLID_1354_" class="st17" d="M25.3 4.8c0-.9-.6-1.7-1.3-1.7-.7 0-1.3.8-1.3 1.7 0 .7.7 2.7 1.1 3.8.1.3.4.3.5 0 .3-1.1 1-3.1 1-3.8z" fill="#FFF"></path><path id="XMLID_1353_" class="st34" d="M24 4.2c-.6 0-1 .5-1.2 1.1 0-.2-.1-.4-.1-.6 0-.9.6-1.7 1.3-1.7.7 0 1.3.8 1.3 1.7 0 .1 0 .3-.1.6-.2-.6-.6-1.1-1.2-1.1z" fill="#FFE5EE"></path><path id="XMLID_1352_" class="st10" d="M25.3 4.8c0-.9-.6-1.7-1.3-1.7-.7 0-1.3.8-1.3 1.7 0 .7.7 2.7 1.1 3.8.1.3.4.3.5 0 .3-1.1 1-3.1 1-3.8z" fill="none" stroke="#45413C" stroke-linecap="round" stroke-linejoin="round" stroke-miterlimit="10"></path></g><g id="XMLID_1346_"><path id="XMLID_1349_" class="st17" d="M33.5 7c.4-.9.1-1.8-.6-2.1-.7-.3-1.5.2-1.9 1.1-.3.6-.4 2.8-.4 3.9 0 .3.2.4.4.2.8-.9 2.2-2.5 2.5-3.1z" fill="#FFF"></path><path id="XMLID_1348_" class="st34" d="M32.5 6c-.5-.2-1.1 0-1.6.6.1-.3.1-.5.2-.6.4-.9 1.2-1.3 1.9-1.1s.9 1.2.6 2.1c-.1.1-.2.3-.3.5 0-.7-.3-1.3-.8-1.5z" fill="#FFE5EE"></path><path id="XMLID_1347_" class="st10" d="M33.5 7c.4-.9.1-1.8-.6-2.1-.7-.3-1.5.2-1.9 1.1-.3.6-.4 2.8-.4 3.9 0 .3.2.4.4.2.8-.9 2.2-2.5 2.5-3.1z" fill="none" stroke="#45413C" stroke-linecap="round" stroke-linejoin="round" stroke-miterlimit="10"></path></g><g id="XMLID_1342_"><path id="XMLID_1345_" class="st17" d="M40.2 12.1c.7-.7.8-1.6.3-2.1s-1.5-.4-2.1.3c-.5.5-1.4 2.4-1.9 3.4-.1.3.1.5.3.3 1-.4 2.9-1.4 3.4-1.9z" fill="#FFF"></path><path id="XMLID_1344_" class="st34" d="M39.7 10.8c-.4-.4-1.1-.4-1.7-.1.1-.2.2-.4.3-.5.7-.7 1.6-.8 2.1-.3s.4 1.5-.3 2.1c-.1.1-.3.2-.5.3.5-.4.5-1.1.1-1.5z" fill="#FFE5EE"></path><path id="XMLID_1343_" class="st10" d="M40.2 12.1c.7-.7.8-1.6.3-2.1s-1.5-.4-2.1.3c-.5.5-1.4 2.4-1.9 3.4-.1.3.1.5.3.3 1-.4 2.9-1.4 3.4-1.9z" fill="none" stroke="#45413C" stroke-linecap="round" stroke-linejoin="round" stroke-miterlimit="10"></path></g><g id="XMLID_1326_"><path id="XMLID_1341_" class="st17" d="M14.5 7c-.4-.9-.1-1.8.6-2.1s1.5.2 1.9 1.1c.3.6.4 2.8.4 3.9 0 .3-.2.4-.4.2-.8-.9-2.2-2.5-2.5-3.1z" fill="#FFF"></path><path id="XMLID_1339_" class="st34" d="M15.5 6c.5-.2 1.1 0 1.6.6-.1-.3-.1-.5-.2-.6-.4-.9-1.2-1.3-1.9-1.1-.7.3-.9 1.2-.6 2.1.1.1.2.3.3.5 0-.7.3-1.3.8-1.5z" fill="#FFE5EE"></path><path id="XMLID_1338_" class="st10" d="M14.5 7c-.4-.9-.1-1.8.6-2.1s1.5.2 1.9 1.1c.3.6.4 2.8.4 3.9 0 .3-.2.4-.4.2-.8-.9-2.2-2.5-2.5-3.1z" fill="none" stroke="#45413C" stroke-linecap="round" stroke-linejoin="round" stroke-miterlimit="10"></path></g><g id="XMLID_1322_"><path id="XMLID_1325_" class="st17" d="M7.8 12.1c-.6-.6-.8-1.6-.3-2.1.6-.5 1.5-.4 2.2.3.5.5 1.4 2.4 1.9 3.4.1.3-.1.5-.3.3-1.1-.4-3-1.4-3.5-1.9z" fill="#FFF"></path><path id="XMLID_1324_" class="st34" d="M8.3 10.8c.4-.4 1.1-.4 1.7-.1-.1-.2-.2-.4-.3-.5-.7-.6-1.6-.7-2.2-.2-.5.5-.4 1.5.3 2.1.1.1.3.2.5.3-.4-.5-.4-1.2 0-1.6z" fill="#FFE5EE"></path><path id="XMLID_1323_" class="st10" d="M7.8 12.1c-.6-.6-.8-1.6-.3-2.1.6-.5 1.5-.4 2.2.3.5.5 1.4 2.4 1.9 3.4.1.3-.1.5-.3.3-1.1-.4-3-1.4-3.5-1.9z" fill="none" stroke="#45413C" stroke-linecap="round" stroke-linejoin="round" stroke-miterlimit="10"></path></g></g></g></g></svg>
