<svg xmlns="http://www.w3.org/2000/svg" width="24" height="24" viewBox="0 0 24 24" id="GameIcon"><g fill="none" fill-rule="evenodd" stroke="#200E32" stroke-linecap="round" stroke-linejoin="round" stroke-width="1.5" transform="translate(2 2)"><line x1="6.848" x2="6.848" y1="10.314" y2="14.059"></line><line x1="8.759" x2="4.938" y1="12.187" y2="12.187"></line><line x1="13.366" x2="13.259" y1="10.428" y2="10.428"></line><line x1="15.18" x2="15.073" y1="14.003" y2="14.003"></line><path d="M6.07216276 5.32907052e-15L6.07216276 5.32907052e-15C6.07216276.740482877 6.68464554 1.34076212 7.44018226 1.34076212L8.49666207 1.34076212C9.66228674 1.34491631 10.6064427 2.27026027 10.611741 3.41266022L10.611741 4.08771473M14.4283141 19.9626083C11.4231218 20.013497 8.47303168 20.0114199 5.57274558 19.9626083 2.35350217 19.9626083 0 17.6663844 0 14.5112835L0 9.86171565C0 6.70661469 2.35350217 4.41039079 5.57274558 4.41039079 8.48892657 4.36054061 11.441136 4.36157916 14.4283141 4.41039079 17.6475575 4.41039079 20 6.70765324 20 9.86171565L20 14.5112835C20 17.6663844 17.6475575 19.9626083 14.4283141 19.9626083z"></path></g></svg>