<svg xmlns="http://www.w3.org/2000/svg" width="32" height="32" viewBox="0 0 32 32" id="HeartBeatIcon"><g stroke="#0572e4" transform="translate(0 -1020.649)"><path fill="#ec7bb0" fill-rule="evenodd" stroke="none" d="m 20.965838,1029.6556 c -2.013465,-2.016 -5.255776,-2.0163 -7.269308,0 l -1.210488,1.2119 -1.210505,-1.2119 c -2.0134803,-2.016 -5.2558413,-2.016 -7.2693067,0 -2.013448,2.0158 -2.0134813,5.2622 0,7.2782 l 8.4734977,7.9284 0.0068,0 0.0068,0 8.4735,-7.9284 c 2.08053,-1.9467 2.013465,-5.2624 0,-7.2782 z"></path><path fill="#62355c" fill-rule="evenodd" stroke="none" d="m -167.35938,555.86523 c -1.44343,0 -2.88671,0.5514 -3.98828,1.6543 -2.20313,2.2057 -2.20314,5.77848 0,7.98438 l 0.0117,0.0117 8.47461,7.92774 c 0.0927,0.0867 0.21489,0.13484 0.3418,0.13476 l 0.006,0 0.008,0 c 0.12623,-4.2e-4 0.24763,-0.0486 0.33984,-0.13476 l 7.97657,-7.46289 1.28711,3.37109 c 0.16649,0.43895 0.79144,0.42726 0.9414,-0.0176 l 2.33594,-6.85937 1.21484,2.84766 c 0.0791,0.18417 0.26051,0.30332 0.46094,0.30273 l 2.44141,0 c 0.67616,0.01 0.67616,-1.00956 0,-1 l -2.11133,0 -1.59766,-3.74219 c -0.0813,-0.18951 -0.27048,-0.30973 -0.47656,-0.30273 -0.20777,0.007 -0.38973,0.14121 -0.45703,0.33789 l -2.31055,6.7832 -0.94726,-2.47851 c 2.01862,-3.3922 1.33684,-6.17868 -0.4395,-7.81446 -2.35627,-1.89311 -5.65685,-2.04527 -7.81054,0.11133 l -0.85547,0.85742 -0.85742,-0.85742 c -1.10157,-1.1029 -2.54485,-1.6543 -3.98829,-1.6543 z m 0,0.98829 0,0.002 c 1.18449,0 2.36934,0.45799 3.28126,1.37109 l 1.21093,1.21094 c 0.19526,0.19518 0.51177,0.19518 0.70703,0 l 1.21094,-1.21094 c 1.82388,-1.8264 4.73672,-1.8262 6.56055,0 l 0.002,0 0.002,0 c 1.76846,1.77377 1.86842,4.6334 0.16016,6.39844 l -2.38281,0 -1.57031,-2.46484 c -0.22718,-0.35811 -0.76899,-0.28862 -0.89844,0.11523 l -1.40235,4.38086 -1.14453,-1.79883 c -0.0916,-0.14456 -0.25074,-0.23224 -0.42187,-0.23242 l -3.44727,0 c -0.67616,-0.01 -0.67616,1.00956 0,1 l 3.17188,0 1.57031,2.4668 c 0.22718,0.35811 0.769,0.28862 0.89844,-0.11524 l 1.40234,-4.38086 1.14649,1.79883 c 0.0921,0.14381 0.25112,0.23071 0.42187,0.23047 l 1.60352,0 -7.23633,6.76953 -8.12695,-7.60156 -0.002,0 c -1.82182,-1.8262 -1.82114,-4.74316 0.002,-6.56836 0.9119,-0.9131 2.09676,-1.37109 3.28124,-1.37109 z" color="#000" font-family="sans-serif" style="line-height:normal;text-indent:0;text-align:start;text-decoration-line:none;text-decoration-style:solid;text-decoration-color:#000;text-transform:none;block-progression:tb;isolation:auto;mix-blend-mode:normal" font-weight="400" overflow="visible" transform="translate(175 471.783)" white-space="normal"></path></g></svg>