<svg xmlns="http://www.w3.org/2000/svg" width="32" height="32" viewBox="0 0 32 32"><path fill="#62355c" fill-rule="evenodd" d="m 8.97852,1030.3626 a 0.50005,0.50005 0 0 0 -0.43555,0.3067 l -2.37891,5.6914 -4.66015,0 a 0.50005,0.50005 0 1 0 0,1 l 4.99218,0 a 0.50005,0.50005 0 0 0 0.46094,-0.3067 l 1.99414,-4.7695 3.57813,10.7344 a 0.50005,0.50005 0 0 0 0.94336,0.018 l 2.12109,-5.6758 2.41016,0 a 0.50005,0.50005 0 0 0 0.42382,-0.2344 l 1.91797,-3.0762 2.18164,6.961 a 0.50005,0.50005 0 0 0 0.90039,0.1152 l 2.34571,-3.7656 4.72265,0 a 0.50005,0.50005 0 1 0 0,-1 l -5,0 a 0.50005,0.50005 0 0 0 -0.42382,0.2363 l -1.91797,3.0762 -2.17969,-6.961 a 0.50005,0.50005 0 0 0 -0.90234,-0.1152 l -2.34571,3.7637 -2.48047,0 a 0.50005,0.50005 0 0 0 -0.46875,0.3262 l -1.74609,4.6738 -3.55273,-10.6582 a 0.50005,0.50005 0 0 0 -0.5,-0.3399 z" color="#000" font-family="sans-serif" font-weight="400" overflow="visible" transform="translate(0 -1020.362)" white-space="normal" style="line-height:normal;text-indent:0;text-align:start;text-decoration-line:none;text-decoration-style:solid;text-decoration-color:#000;text-transform:none;block-progression:tb;isolation:auto;mix-blend-mode:normal"/></svg>