<svg xmlns="http://www.w3.org/2000/svg" width="32" height="32" viewBox="0 0 32 32"><g stroke="#0572e4" transform="translate(-921.751 -1716.568)"><path fill="#ec7bb0" fill-rule="evenodd" stroke="none" d="m 949.25537,1722.5402 c -1.30897,-1.304 -3.41682,-1.3042 -4.72583,0 l -0.78694,0.7838 -0.78696,-0.7838 c -1.30898,-1.304 -3.41686,-1.304 -4.72583,0 -1.30895,1.3038 -1.30897,3.4037 0,4.7076 l 5.50868,5.1282 0.004,0 0.004,0 5.50868,-5.1282 c 1.35256,-1.2592 1.30896,-3.4038 0,-4.7076 z"/><path fill="#fbdabb" fill-rule="evenodd" stroke="none" d="m 943.50727,1737.8857 7.02027,-3.2557 c 0,0 1.12616,-0.3808 1.61756,0.7816 0.26268,0.6212 0.0147,1.337 -0.57971,1.6732 l -0.23689,0.134 -9.71223,5.2791 c -0.80446,0.5406 -1.94473,0.6967 -2.88908,0.4572 l -9.98838,-3.3826 -0.2872,-7.414 5.47061,0 c 1.28806,0 2.45058,0.508 3.29107,1.3315 0.21012,0.2058 0.40014,0.4314 0.56692,0.6737 0.0834,0.1212 0.161,0.2465 0.23242,0.3756 0.0714,0.1292 0.13666,0.2341 0.19533,0.3704 l 0.10937,2e-4 4.63098,0 c 0.86346,0 1.55858,0.6852 1.55858,1.5364 0,0.8512 -0.69512,1.5364 -1.55858,1.5364 l -6.95435,0"/><rect width="5.471" height="10.184" x="923.255" y="1730.819" fill="#65c5b4" stroke="none" rx="8.206" ry="0"/><path fill="#62355c" stroke="none" style="line-height:normal;text-indent:0;text-align:start;text-decoration-line:none;text-decoration-style:solid;text-decoration-color:#000;text-transform:none;block-progression:tb;isolation:auto;mix-blend-mode:normal" d="m 940.59322,1721.0664 c -0.98312,0 -1.96725,0.3744 -2.7168,1.1211 -1.49913,1.4932 -1.49913,3.9227 0,5.416 0.004,0 0.009,0.01 0.0137,0.012 l 5.50781,5.127 c 0.0922,0.086 0.21362,0.1343 0.33985,0.1348 l 0.004,0 0.004,0 c 0.12691,0 0.2491,-0.048 0.3418,-0.1348 l 5.50781,-5.127 c 1.51405,-1.4095 1.48359,-3.7611 0.12109,-5.2656 -0.0249,-0.061 -0.0614,-0.1156 -0.10742,-0.1621 -1.49909,-1.4934 -3.93249,-1.4937 -5.43164,0 l -0.43555,0.4316 -0.43359,-0.4316 c -0.74956,-0.7467 -1.73172,-1.1211 -2.71484,-1.1211 z m 0,0.9922 c 0.72531,0 1.45034,0.2787 2.00976,0.836 l 0.78711,0.7851 c 0.19504,0.1939 0.51004,0.1939 0.70508,0 l 0.78711,-0.7851 c 1.11887,-1.1147 2.90068,-1.1146 4.01953,0 1.11866,1.1143 1.15315,2.9256 0.0117,3.9882 l -5.17188,4.8145 -5.1582,-4.8027 c -1.1188,-1.1145 -1.11877,-2.8856 0,-4 0.55942,-0.5573 1.28446,-0.836 2.00977,-0.836 z m -17.33789,8.127 c -0.27613,0 -0.49997,0.2238 -0.5,0.5 l 0,10.316 c 3e-5,0.2761 0.22387,0.4999 0.5,0.5 l 2.73437,0 2.73633,0 c 0.27613,-10e-5 0.49997,-0.2239 0.5,-0.5 l 0,-0.7379 9.33984,3.1641 c 0.0129,0 0.0259,0.01 0.0391,0.012 1.08749,0.2758 2.34199,0.1104 3.29101,-0.5274 l 9.67188,-5.2558 0.008,0 0.23633,-0.1329 c 0.80725,-0.4566 1.15327,-1.4526 0.79297,-2.3046 -0.30667,-0.7254 -0.90953,-1.0562 -1.38086,-1.125 l 0,0 c -0.47134,-0.069 -0.85743,0.062 -0.85743,0.062 -0.0166,0.01 -0.0329,0.014 -0.0488,0.022 l -5.33203,2.4726 c 0.007,-0.067 0.0215,-0.1323 0.0215,-0.2012 0,-1.1234 -0.93062,-2.0371 -2.05859,-2.0371 l -4.43946,0 c -0.0189,-0.033 -0.0413,-0.08 -0.0586,-0.1113 -0.0794,-0.1434 -0.16529,-0.2835 -0.25781,-0.418 -0.18517,-0.269 -0.39595,-0.5198 -0.62891,-0.748 -0.93169,-0.9129 -2.22305,-1.4727 -3.64258,-1.4727 l -4.69531,0 0,-0.9746 c -3e-5,-0.2761 -0.22387,-0.4999 -0.5,-0.5 l -2.73633,0 z m 0.5,1 2.23437,0 2.23633,0 0,9.316 -2.23633,0 -2.23437,0 z m 5.4707,1.4746 4.69531,0 c 1.1566,0 2.19212,0.4534 2.94141,1.1875 0.18728,0.1835 0.35746,0.3841 0.50586,0.5996 0.0743,0.108 0.14353,0.2193 0.20703,0.334 0.0784,0.1418 0.13156,0.228 0.17383,0.3262 l 0.1289,0.3027 0.43946,0 4.63086,0 c 0.59894,0 1.05859,0.4582 1.05859,1.0371 0,0.4266 -0.25207,0.7829 -0.62305,0.9434 l -0.0293,0.014 c -0.12451,0.049 -0.26069,0.08 -0.40625,0.08 l -6.95508,0 0,1 6.95508,0 c 0.20111,0 0.39176,-0.04 0.57617,-0.094 0.0674,0 0.13313,-0.022 0.19336,-0.053 l 6.97851,-3.2364 c 0.008,0 0.17354,-0.054 0.38281,-0.023 0.2146,0.031 0.42074,0.09 0.60547,0.5274 0.16506,0.3903 0.0163,0.8271 -0.36523,1.0429 l -0.23438,0.1329 -9.70703,5.2753 c -0.0141,0.01 -0.0278,0.016 -0.041,0.025 -0.6594,0.4431 -1.68344,0.5893 -2.48438,0.3868 l -0.002,0 -9.625,-3.2598 z" color="#000" font-family="sans-serif" font-weight="400" overflow="visible" white-space="normal"/></g></svg>