<svg xmlns="http://www.w3.org/2000/svg" width="32" height="32" viewBox="0 0 32 32"><g stroke="#0572e4" transform="translate(1.007 -1021.363)"><path fill="#92d9f7" fill-rule="evenodd" stroke="none" d="m 10.5,1032.2762 0,-3.6139 9,0 0,3.6139"/><rect width="13" height="3.003" x="8.5" y="1025.859" fill="#89b9d8" stroke="none" rx="0" ry="0"/><rect width="15.014" height="18.001" x="7.503" y="1031.862" fill="#92d9f7" stroke="none" rx="0" ry="2.7"/><path fill="#ec7bb0" stroke="none" d="m 22.5,1045.8622 -15,0 0,-10 15,0 z"/><path fill="#f2f2f2" stroke="none" d="m 14.010031,1037.8622 0,2 -2,0 0,2 2,0 0,2 2,0 0,-2 2,0 0,-2 -2,0 0,-2 -2,0 z"/><path fill="#62355c" stroke="none" d="m -24.505859,506.8125 a 0.50005,0.50005 0 0 0 -0.5,0.5 l 0,3.00195 a 0.50005,0.50005 0 0 0 0.5,0.5 l 10.5,0 0,2 -8.796875,0 c -1.764085,0 -3.199219,1.43708 -3.199219,3.20117 l 0,1.19922 a 0.50005,0.50005 0 0 0 0,0.19532 l 0,9.80468 a 0.50005,0.50005 0 0 0 0,0.19532 l 0,1.20507 c 0,1.7641 1.435112,3.20118 3.199219,3.20118 l 9.613281,0 c 1.764107,0 3.2011718,-1.43708 3.2011718,-3.20118 l 0,-12.59961 c 0,-1.70126 -1.3401498,-3.08427 -3.0175778,-3.18164 l 0,-2.01953 1.5,0 a 0.50005,0.50005 0 0 0 0.5,-0.5 l 0,-3.00195 a 0.50005,0.50005 0 0 0 -0.5,-0.5 l -13,0 z m 0.5,1 12,0 0,2.00195 -12,0 0,-2.00195 z m 1.203125,6.00195 9.613281,0 c 1.227407,0 2.201172,0.97368 2.201172,2.20117 l 0,0.79883 -14.013672,0 0,-0.79883 c 0,-1.22749 0.971812,-2.20117 2.199219,-2.20117 z m -2.199219,4 14.013672,0 0,9 -14.013672,0 0,-9 z m 6.005859,1 a 0.50005,0.50005 0 0 0 -0.5,0.5 l 0,1.5 -1.5,0 a 0.50005,0.50005 0 0 0 -0.5,0.5 l 0,2 a 0.50005,0.50005 0 0 0 0.5,0.5 l 1.5,0 0,1.5 a 0.50005,0.50005 0 0 0 0.5,0.5 l 2,0 a 0.50005,0.50005 0 0 0 0.5,-0.5 l 0,-1.5 1.5,0 a 0.50005,0.50005 0 0 0 0.5,-0.5 l 0,-2 a 0.50005,0.50005 0 0 0 -0.5,-0.5 l -1.5,0 0,-1.5 a 0.50005,0.50005 0 0 0 -0.5,-0.5 l -2,0 z m 0.5,1 1,0 0,1.5 a 0.50005,0.50005 0 0 0 0.5,0.5 l 1.5,0 0,1 -1.5,0 a 0.50005,0.50005 0 0 0 -0.5,0.5 l 0,1.5 -1,0 0,-1.5 a 0.50005,0.50005 0 0 0 -0.5,-0.5 l -1.5,0 0,-1 1.5,0 a 0.50005,0.50005 0 0 0 0.5,-0.5 l 0,-1.5 z m -6.505859,8 14.013672,0 0,0.80078 c 0,1.2273 -0.973787,2.20118 -2.201172,2.20118 l -9.613281,0 c -1.227385,0 -2.199219,-0.97388 -2.199219,-2.20118 l 0,-0.80078 z" color="#000" font-family="sans-serif" font-weight="400" overflow="visible" transform="translate(33.005 518.547)" white-space="normal" style="line-height:normal;text-indent:0;text-align:start;text-decoration-line:none;text-decoration-style:solid;text-decoration-color:#000;text-transform:none;block-progression:tb;isolation:auto;mix-blend-mode:normal"/><path fill="#62355c" fill-rule="evenodd" stroke="none" d="m 10,1028.6621 0,3.6133 1,0 0,-3.6133 -1,0 z" color="#000" font-family="sans-serif" font-weight="400" overflow="visible" white-space="normal" style="line-height:normal;text-indent:0;text-align:start;text-decoration-line:none;text-decoration-style:solid;text-decoration-color:#000;text-transform:none;block-progression:tb;isolation:auto;mix-blend-mode:normal"/></g></svg>