<svg xmlns="http://www.w3.org/2000/svg" width="32" height="32" viewBox="0 0 32 32"><g stroke="#0572e4" transform="rotate(-45 -1353.09 839.063) scale(1.00765)"><path fill="#f6b577" stroke="none" d="m 199.49995,1219.8622 0,7.5556 c 0,0.8002 -0.669,1.4444 -1.5,1.4444 l -5,0 c -0.831,0 -1.5,-0.6442 -1.5,-1.4444 l 0,-7.5556 0,-8.078 0,-7.4776 c 0,-0.8002 0.669,-1.4444 1.5,-1.4444 l 5,0 c 0.831,0 1.5,0.6442 1.5,1.4444 l 0,7.4776 z"/><rect width="8" height="26" x="1211.862" y="-208.5" fill="#f6b577" stroke="none" rx="1.5" ry="1.444" transform="rotate(90)"/><path fill="#62355c" stroke="none" style="line-height:normal;text-indent:0;text-align:start;text-decoration-line:none;text-decoration-style:solid;text-decoration-color:#000;text-transform:none;block-progression:tb;isolation:auto;mix-blend-mode:normal" d="m -212.38086,461.99805 c -0.50579,0.009 -1.01328,0.21054 -1.39844,0.5957 l -3.53515,3.53516 c -0.77033,0.77032 -0.80189,2.02623 -0.0391,2.78906 l 4.98829,4.98828 -4.98829,4.98828 c -0.76289,0.7629 -0.73126,2.02069 0.0391,2.79102 l 3.53515,3.53515 c 0.77033,0.77033 2.02812,0.80196 2.79102,0.0391 l 4.98828,-4.99024 4.99023,4.99024 c 0.76283,0.76282 2.01679,0.73126 2.78711,-0.0391 l 3.53516,-3.53515 c 0.77032,-0.77033 0.80384,-2.02624 0.041,-2.78907 l -4.99024,-4.99023 4.98828,-4.98828 c 0.76289,-0.76289 0.73126,-2.01874 -0.0391,-2.78906 l -3.53516,-3.53516 c -0.77032,-0.77032 -2.02617,-0.80195 -2.78906,-0.0391 l -4.98828,4.98828 -4.98828,-4.98828 c -0.38141,-0.38142 -0.88679,-0.56538 -1.39258,-0.55664 z m 0.01,0.99218 c 0.24717,-0.005 0.4914,0.0871 0.67578,0.27149 l 4.98828,4.98828 -4.95117,4.94922 -4.98828,-4.98828 c -0.36876,-0.36876 -0.36583,-0.97011 0.0391,-1.375 l 3.53515,-3.53516 c 0.20245,-0.20244 0.454,-0.30539 0.70118,-0.31055 z m 12.74023,0 c 0.24718,0.005 0.49873,0.10811 0.70117,0.31055 l 3.53516,3.53516 c 0.40489,0.40489 0.40785,1.00621 0.0391,1.375 l -5.27539,5.27734 -0.006,0.004 c -0.0453,0.0323 -0.0849,0.0719 -0.11719,0.11719 l -5.53515,5.5371 -0.004,0.002 c -0.0253,0.0186 -0.0489,0.0395 -0.0703,0.0625 -0.0169,0.0171 -0.0326,0.0354 -0.0469,0.0547 l -5.28515,5.28711 c -0.3688,0.3688 -0.97207,0.36583 -1.37696,-0.0391 l -3.53515,-3.53515 c -0.40489,-0.40489 -0.40786,-1.00816 -0.0391,-1.37696 l 16.34179,-16.33984 c 0.18439,-0.18439 0.42665,-0.27664 0.67383,-0.27149 z m -12.73437,1.64063 c -0.38497,-10e-6 -0.76981,0.14675 -1.06055,0.4375 l -0.70703,0.70703 c -0.4909,0.47125 0.23578,1.19793 0.70703,0.70703 l 0.70703,-0.70703 c 0.20199,-0.20198 0.50508,-0.20195 0.70703,0 l 2.83008,2.82813 c 0.47126,0.49056 1.1976,-0.23578 0.70703,-0.70704 l -2.83008,-2.82812 c -0.29072,-0.29073 -0.67558,-0.4375 -1.06054,-0.4375 z m 14.13671,0.99414 c -0.13452,10e-6 -0.26336,0.0542 -0.35742,0.15039 -0.19245,0.19801 -0.18797,0.51454 0.01,0.70703 l 0.70703,0.70703 c 0.20202,0.20202 0.20198,0.50505 0,0.70703 l -2.82813,2.82813 c -0.49056,0.47126 0.23578,1.1976 0.70704,0.70703 l 2.82812,-2.82812 c 0.58149,-0.58149 0.58153,-1.53957 0,-2.1211 l -0.70703,-0.70703 c -0.0945,-0.0967 -0.22418,-0.1509 -0.35938,-0.15039 z m -2.11523,8.98828 4.99023,4.99024 c 0.36876,0.36875 0.36388,0.97011 -0.041,1.375 l -3.53516,3.53515 c -0.40489,0.40489 -1.00429,0.40782 -1.37304,0.0391 l -4.99024,-4.99023 4.94922,-4.94922 z m -11.32813,1.62305 c -0.12976,0.004 -0.25302,0.0575 -0.34374,0.15039 l -2.83008,2.82812 c -0.58149,0.58149 -0.58146,1.53964 0,2.1211 l 0.70703,0.70703 c 0.47125,0.4909 1.19793,-0.23578 0.70703,-0.70703 l -0.70703,-0.70703 c -0.20195,-0.20195 -0.20199,-0.50505 0,-0.70703 l 2.83008,-2.82813 c 0.32527,-0.31801 0.0914,-0.8699 -0.36329,-0.85742 z m 8.49415,2.82226 c -0.13481,5.3e-4 -0.26369,0.0555 -0.35743,0.15235 -0.19115,0.19778 -0.18668,0.5128 0.01,0.70508 l 2.82812,2.83007 c 0.58153,0.58153 1.5396,0.5815 2.1211,0 l 0.70703,-0.70703 c 0.4909,-0.47125 -0.23578,-1.19793 -0.70703,-0.70703 l -0.70703,0.70703 c -0.202,0.20199 -0.50501,0.20202 -0.70703,0 l -2.82813,-2.83008 c -0.0945,-0.0967 -0.22418,-0.1509 -0.35937,-0.15039 z" color="#000" font-family="sans-serif" font-weight="400" overflow="visible" transform="rotate(45 -900.869 1329.538)" white-space="normal"/><path fill="#fbdabb" stroke="none" d="m -205.99196,470.57812 c -0.1353,-0.002 -0.26567,0.0508 -0.36133,0.14649 -0.19521,0.19525 -0.19521,0.51178 0,0.70703 0.19525,0.19522 0.51179,0.19522 0.70704,0 0.19521,-0.19525 0.19521,-0.51178 0,-0.70703 -0.0918,-0.0919 -0.21582,-0.14442 -0.34571,-0.14649 z m -1.41406,1.41407 c -0.1353,-0.002 -0.26567,0.0508 -0.36133,0.14648 -0.19521,0.19525 -0.19521,0.51178 0,0.70703 0.19525,0.19521 0.51178,0.19521 0.70703,0 0.19521,-0.19525 0.19521,-0.51178 0,-0.70703 -0.0918,-0.0919 -0.21581,-0.14441 -0.3457,-0.14648 z m 2.07031,0.70898 c -0.1173,0.0101 -0.22727,0.0613 -0.31054,0.14453 -0.19652,0.19548 -0.19652,0.51351 0,0.70899 0.19525,0.19521 0.51178,0.19521 0.70703,0 0.19652,-0.19548 0.19652,-0.51351 0,-0.70899 -0.10436,-0.10432 -0.24947,-0.15722 -0.39649,-0.14453 z m -3.53515,0.70703 c -0.11756,0.0106 -0.22757,0.0625 -0.31055,0.14649 -0.19521,0.19525 -0.19521,0.51178 0,0.70703 0.19525,0.19521 0.51178,0.19521 0.70703,0 0.19521,-0.19525 0.19521,-0.51178 0,-0.70703 -0.10401,-0.10504 -0.24916,-0.15867 -0.39648,-0.14649 z m 5.65625,0 c -0.11756,0.0106 -0.22757,0.0625 -0.31055,0.14649 -0.19521,0.19525 -0.19521,0.51178 0,0.70703 0.19525,0.19521 0.51178,0.19521 0.70703,0 0.19521,-0.19525 0.19521,-0.51178 0,-0.70703 -0.10401,-0.10504 -0.24916,-0.15867 -0.39648,-0.14649 z m -3.53516,0.70703 c -0.11756,0.0106 -0.22757,0.0625 -0.31055,0.14649 -0.19521,0.19525 -0.19521,0.51178 0,0.70703 0.19525,0.19521 0.51178,0.19521 0.70703,0 0.19521,-0.19525 0.19521,-0.51178 0,-0.70703 -0.10401,-0.10504 -0.24916,-0.15867 -0.39648,-0.14649 z m 2.17188,0.70704 c -0.1353,-0.002 -0.26567,0.0508 -0.36133,0.14648 -0.19521,0.19525 -0.19521,0.51178 0,0.70703 0.19525,0.19521 0.51178,0.19521 0.70703,0 0.19521,-0.19525 0.19521,-0.51178 0,-0.70703 -0.0918,-0.0919 -0.21581,-0.14441 -0.3457,-0.14648 z m -1.41407,1.41406 c -0.1353,-0.002 -0.26567,0.0508 -0.36133,0.14648 -0.19521,0.19525 -0.19521,0.51178 0,0.70703 0.19525,0.19522 0.51179,0.19522 0.70704,0 0.19521,-0.19525 0.19521,-0.51178 0,-0.70703 -0.0918,-0.0919 -0.21582,-0.14442 -0.34571,-0.14648 z" color="#000" font-family="sans-serif" font-weight="400" overflow="visible" transform="rotate(45 -900.869 1329.538)" white-space="normal" style="line-height:normal;text-indent:0;text-align:start;text-decoration-line:none;text-decoration-style:solid;text-decoration-color:#000;text-transform:none;block-progression:tb;isolation:auto;mix-blend-mode:normal"/></g></svg>