<svg xmlns="http://www.w3.org/2000/svg" width="32" height="32" viewBox="0 0 32 32"><g transform="translate(-1063.251 -1534.686)"><path fill="#ec7bb0" d="m 1086.7514,1547.1856 c 0,4.4183 -8,15 -8,15 0,0 -8,-10.5817 -8,-15 0,-4.4183 3.5817,-8 8,-8 4.4183,0 8,3.5817 8,8 z"/><circle cx="1078.751" cy="1547.186" r="5" fill="#f2f2f2"/><path fill="#62355c" style="line-height:normal;text-indent:0;text-align:start;text-decoration-line:none;text-decoration-style:solid;text-decoration-color:#000;text-transform:none;block-progression:tb;isolation:auto;mix-blend-mode:normal" d="m 1078.7514,1538.6856 c -4.6885,0 -8.5,3.8115 -8.5,8.5 0,1.2555 0.5331,2.7769 1.2969,4.4199 0.7638,1.6431 1.7724,3.394 2.7793,5.0039 2.0137,3.2196 4.0254,5.8789 4.0254,5.8789 a 0.50004997,0.50004997 0 0 0 0.7969,0 c 0,0 2.0116,-2.6593 4.0253,-5.8789 1.0069,-1.6099 2.0156,-3.3608 2.7793,-5.0039 0.7638,-1.643 1.2969,-3.1644 1.2969,-4.4199 0,-4.6885 -3.8115,-8.5 -8.5,-8.5 z m 0,1 c 4.1481,0 7.5,3.3519 7.5,7.5 0,0.9537 -0.4669,2.4143 -1.2031,3.998 -0.7362,1.5837 -1.7276,3.3067 -2.7207,4.8946 -1.7872,2.8574 -3.2355,4.7689 -3.5762,5.2246 -0.3407,-0.4557 -1.789,-2.3672 -3.5762,-5.2246 -0.9931,-1.5879 -1.9844,-3.3109 -2.7207,-4.8946 -0.7362,-1.5837 -1.2031,-3.0443 -1.2031,-3.998 0,-4.1481 3.352,-7.5 7.5,-7.5 z m 0,2 c -3.0316,0 -5.5,2.4684 -5.5,5.5 0,3.0317 2.4684,5.5 5.5,5.5 3.0317,0 5.5,-2.4683 5.5,-5.5 0,-3.0316 -2.4683,-5.5 -5.5,-5.5 z m 0,1 c 2.4912,0 4.5,2.0088 4.5,4.5 0,2.4912 -2.0088,4.5 -4.5,4.5 -2.4912,0 -4.5,-2.0088 -4.5,-4.5 0,-2.4912 2.0088,-4.5 4.5,-4.5 z m -0.01,0.9941 a 0.50004997,0.50004997 0 0 0 -0.4922,0.5059 l 0,2.5 -2.5,0 a 0.50004997,0.50004997 0 1 0 0,1 l 2.5,0 0,2.5 a 0.50004997,0.50004997 0 1 0 1,0 l 0,-2.5 2.5,0 a 0.50004997,0.50004997 0 1 0 0,-1 l -2.5,0 0,-2.5 a 0.50004997,0.50004997 0 0 0 -0.5078,-0.5059 z" color="#000" font-family="sans-serif" font-weight="400" overflow="visible" white-space="normal"/></g></svg>