<svg xmlns="http://www.w3.org/2000/svg" width="32" height="32" viewBox="0 0 32 32"><g stroke="#0572e4" transform="translate(-310 -1117.362)"><path fill="#f2f2f2" stroke="none" d="m 324.45843,1127.9184 c 1.41823,-1.9471 4.02321,-2.6062 6.19682,-1.5679 2.17363,1.0384 3.29788,3.479 2.67438,5.8058 -0.85902,3.2059 -2.32963,3.2059 -2.82963,8.2059 -10e-6,0.5359 -0.28591,1.0311 -0.75,1.299 -0.4641,0.2679 -1.0359,0.2679 -1.5,0 -0.46409,-0.2679 -0.74999,-0.7631 -0.75,-1.299 l 8.2e-4,-2.8334 c 0,-0.9204 -0.67194,-1.6666 -1.50082,-1.6666 -0.82888,0 -1.50082,0.7462 -1.50082,1.6666 l 8.2e-4,2.8334 c -10e-6,0.5359 -0.28591,1.0311 -0.75,1.299 -0.4641,0.2679 -1.0359,0.2679 -1.5,0 -0.46409,-0.2679 -0.74999,-0.7631 -0.75,-1.299 -0.39308,-5 -1.97061,-5 -2.82963,-8.2059 -0.52343,-1.9534 0.1814,-4.0298 1.78582,-5.2609 1.60442,-1.2311 3.79245,-1.3745 5.54381,-0.3633"/><path fill="#62355c" stroke="none" d="m -20.853516,420.01367 c -1.06342,0.07 -2.106421,0.4445 -2.988281,1.1211 -0.607542,0.4662 -1.088907,1.04956 -1.447265,1.69335 -1.069065,0.28546 -1.934459,0.62425 -2.56836,1.03126 -0.648374,0.4163 -1.115195,0.94105 -1.136719,1.59765 -0.02155,0.6565 0.422036,1.20335 1.048829,1.62695 0.622142,0.42046 1.480291,0.76818 2.554687,1.0625 0.38817,0.9394 0.83447,1.60254 1.216797,2.31446 0.52957,0.986 0.9892,2.13022 1.18164,4.57812 l -0.002,-0.041 c 10e-6,0.7138 0.38187,1.37747 1,1.73437 0.6181,0.3567 1.3819,0.3567 2,0 0.61813,-0.3569 0.99999,-1.02057 1,-1.73437 l 0,-2.83008 c 0,-0.6771 0.4712,-1.16992 1,-1.16992 0.5288,0 1,0.49282 1,1.16992 l 0,2.83008 c 10e-6,0.7138 0.38187,1.37747 1,1.73437 0.6181,0.3567 1.3819,0.3567 2,0 0.61813,-0.3569 0.99999,-1.02057 1,-1.73437 l -0.002,0.0527 c 0.24517,-2.4517 0.7063,-3.60475 1.22461,-4.59375 0.374776,-0.71519 0.802978,-1.37889 1.18164,-2.31836 0.556124,-0.15507 1.0810269,-0.32447 1.5351565,-0.51953 0.765244,-0.3286 1.3256819,-0.68812 1.6855469,-1.13672 0.359865,-0.4486 0.472346,-1.05595 0.25,-1.56054 -0.222346,-0.5047 -0.6774451,-0.88988 -1.2988282,-1.23438 -0.5918025,-0.3282 -1.3635155,-0.61501 -2.2949222,-0.86328 -0.539448,-0.96548 -1.353517,-1.78231 -2.410156,-2.28711 -1.59512,-0.7619 -3.37847,-0.62612 -4.869141,0.14258 -0.90273,-0.4648 -1.882788,-0.73012 -2.861328,-0.66602 z m 0.06445,0.9961 c 0.591929,-0.039 1.161081,0.20669 1.732421,0.40429 -0.30716,0.267 -0.634872,0.50531 -0.882812,0.84571 -0.394622,0.53908 0.414082,1.13095 0.808594,0.59179 1.2783,-1.755 3.617022,-2.34801 5.576171,-1.41211 1.959181,0.9359 2.968231,3.12741 2.40625,5.22461 -0.06333,0.23636 -0.136037,0.42463 -0.205078,0.62696 -2.975259,0.70963 -7.324143,0.92812 -11.052734,0.42578 -0.686256,-0.12355 -0.827369,0.92858 -0.132812,0.99023 3.57972,0.48238 7.624236,0.37141 10.71875,-0.26367 -0.264206,0.53099 -0.54704,0.99559 -0.835938,1.54687 -0.55675,1.0624 -1.081108,2.41264 -1.335938,4.96094 -0.0015,0.0162 -0.0021,0.0325 -0.002,0.0488 -10e-6,0.3581 -0.18995,0.68819 -0.5,0.86719 -0.3101,0.179 -0.6899,0.179 -1,0 -0.30952,-0.1787 -0.49935,-0.50784 -0.5,-0.86524 l 0,-2.83203 c 0,-1.1638 -0.87104,-2.16797 -2,-2.16797 -1.12896,0 -2,1.00417 -2,2.16797 l 0,2.83399 c -6.5e-4,0.3574 -0.19048,0.68653 -0.5,0.86523 -0.3101,0.179 -0.6899,0.179 -1,0 -0.31005,-0.179 -0.49999,-0.50909 -0.5,-0.86719 -1.56e-4,-0.013 -8.23e-4,-0.0261 -0.002,-0.0391 -0.20064,-2.5521 -0.724655,-3.90716 -1.296875,-4.97266 -0.57222,-1.0654 -1.137175,-1.79316 -1.546875,-3.32226 -0.47146,-1.7594 0.160349,-3.62558 1.605469,-4.73438 0.72255,-0.5545 1.575783,-0.86487 2.445313,-0.92187 l 0,-0.002 z m 10.589843,3.01953 c 0.5102272,0.17063 0.9659877,0.34778 1.2968752,0.53125 0.513457,0.2847 0.7860197,0.57692 0.8691407,0.76562 0.08312,0.1886 0.078461,0.28985 -0.1152344,0.53125 -0.193692,0.2414 -0.6237962,0.55295 -1.3007813,0.84375 -0.2206574,0.0948 -0.4888476,0.17825 -0.7460932,0.26367 0.0041,-0.0152 0.0096,-0.0256 0.01367,-0.041 0.2617952,-0.97698 0.2392777,-1.97254 -0.01758,-2.89453 z m -15.582031,0.008 c -0.2566,0.92626 -0.284755,1.91877 -0.02539,2.88672 0.0034,0.0125 0.0083,0.0208 0.01172,0.0332 -0.662309,-0.22423 -1.231848,-0.46117 -1.589844,-0.70312 -0.481606,-0.3254 -0.615078,-0.59183 -0.609375,-0.76563 0.0057,-0.1737 0.168879,-0.46041 0.677735,-0.78711 0.35827,-0.23002 0.906579,-0.453 1.535154,-0.66406 z" color="#000" font-family="sans-serif" font-weight="400" overflow="visible" transform="translate(343.995 705.362)" white-space="normal" style="line-height:normal;text-indent:0;text-align:start;text-decoration-line:none;text-decoration-style:solid;text-decoration-color:#000;text-transform:none;block-progression:tb;isolation:auto;mix-blend-mode:normal"/><path fill="#f8f8f8" stroke="none" style="line-height:normal;text-indent:0;text-align:start;text-decoration-line:none;text-decoration-style:solid;text-decoration-color:#000;text-transform:none;block-progression:tb;isolation:auto;mix-blend-mode:normal" d="m -14.755863,422.5957 0,0.002 c -0.577708,0.0205 -0.66572,0.84194 -0.105469,0.98437 1.10217,0.2885 1.867197,1.27672 1.867187,2.41602 -0.0096,0.67616 1.009563,0.67616 1,0 10e-6,-1.5891 -1.075971,-2.98032 -2.613281,-3.38282 -0.04822,-0.0139 -0.09826,-0.0205 -0.148437,-0.0195 z" color="#000" font-family="sans-serif" font-weight="400" overflow="visible" transform="translate(343.995 705.362)" white-space="normal"/></g></svg>