<svg xmlns="http://www.w3.org/2000/svg" id="Customer17Icon" viewBox="0 0 32 32"><path fill="#ff9e68" d="M12.1 20.5l-5.6 1.9C4.4 23 3 25 3 27.1v4.4h25v-4.4c0-2.2-1.4-4.1-3.4-4.7L19 20.5"></path><path fill="#fed8aa" d="M12 17.5V20c0 1.9 3.5 3.5 3.5 3.5S19 21.9 19 20v-2.5"></path><path fill="#40455a" d="M15.5 24l-.2-.1c-.4-.2-3.8-1.8-3.8-4v-2.5h1V20c0 1.2 2 2.5 3 2.9 1-.5 3-1.7 3-2.9v-2.5h1V20c0 2.2-3.4 3.8-3.8 4h-.2z"></path><path fill="#fed8aa" d="M22 5.5V12c0 3.6-2.9 6.5-6.5 6.5S9 15.6 9 12V5.5"></path><path fill="#40455a" d="M15.5 19c-3.9 0-7-3.1-7-7V5.5h1V12c0 3.3 2.7 6 6 6s6-2.7 6-6V5.5h1V12c0 3.9-3.1 7-7 7z"></path><path fill="#a17852" d="M9 9.5h.5c.6 0 1-.4 1-1s.4-1 1-1l1.1.2c2.5.5 5.1-.1 7.1-1.6.3-.2.8 0 .8.4v2c0 .6.4 1 1 1h.5l1-3.2c.3-1.5-.8-2.9-2.3-2.9 0-1.8-1.6-3.1-3.3-2.8l-6.9 1.1C8.8 2 7.8 3.5 8 5.1l1 4.4z"></path><path fill="#40455a" d="M22.4 10h-.9c-.8 0-1.5-.7-1.5-1.5v-2c-2.1 1.6-4.9 2.2-7.5 1.7L11.4 8c-.2 0-.4.2-.4.5 0 .8-.7 1.5-1.5 1.5h-.9l-1-4.8c-.2-.9 0-1.8.6-2.6.5-.8 1.3-1.3 2.2-1.4L17.2 0c1-.2 2 .1 2.7.7.7.7 1.1 1.4 1.2 2.3.7.1 1.3.5 1.7 1 .5.7.8 1.5.6 2.4l-1 3.6zM20 5.5c.2 0 .3 0 .4.1.4.2.6.5.6.9v2c0 .3.2.5.5.5h.1l.9-2.9c.1-.5 0-1.1-.4-1.5-.4-.4-.9-.7-1.4-.7h-.5v-.5c0-.8-.3-1.4-.8-1.9-.5-.4-1.2-.6-1.9-.5l-6.9 1.1c-.6.1-1.2.5-1.6 1-.4.6-.6 1.3-.5 1.9l.8 4h.1c.4 0 .6-.2.6-.5 0-.8.7-1.5 1.5-1.5l1.2.2c2.3.5 4.8-.1 6.7-1.5.2-.1.4-.2.6-.2z"></path><path fill="#e67144" d="M28 31.5v-4.4c0-.9-.3-1.8-.7-2.6-3 .4-5.3 2.9-5.3 6v1h6zM3 31.5v-4.4c0-.9.3-1.8.7-2.6 3 .4 5.3 2.9 5.3 6v1H3z"></path><path fill="#787882" d="M24 12.5h-2v-3h1c.6 0 1 .4 1 1v2z"></path><path fill="#40455a" d="M24.5 13h-3V9H23c.8 0 1.5.7 1.5 1.5V13zm-2-1h1v-1.5c0-.3-.2-.5-.5-.5h-.5v2z"></path><path fill="#787882" d="M9 12.5H8c-.6 0-1-.4-1-1v-1c0-.6.4-1 1-1h1v3z"></path><path fill="#40455a" d="M9.5 13H8c-.8 0-1.5-.7-1.5-1.5v-1C6.5 9.7 7.2 9 8 9h1.5v4zM8 10c-.3 0-.5.2-.5.5v1c0 .3.2.5.5.5h.5v-2H8z"></path><path fill="#787882" d="M17 16.5h-1c-.6 0-1-.4-1-1s.4-1 1-1h1c.6 0 1 .4 1 1s-.4 1-1 1z"></path><path fill="#40455a" d="M17 17h-1c-.8 0-1.5-.7-1.5-1.5S15.2 14 16 14h1c.8 0 1.5.7 1.5 1.5S17.8 17 17 17zm-1-2c-.3 0-.5.2-.5.5s.2.5.5.5h1c.3 0 .5-.2.5-.5s-.2-.5-.5-.5h-1z"></path><g><path fill="#40455a" d="M15.5 24h-.2c-.4-.2-3.8-1.8-3.8-4v-2.5c0-.3.2-.5.5-.5s.5.2.5.5V20c0 1.2 2 2.5 3 2.9 1-.5 3-1.7 3-2.9v-2.5c0-.3.2-.5.5-.5s.5.2.5.5V20c0 2.2-3.4 3.8-3.8 4h-.2z"></path><path fill="#40455a" d="M15.5 19c-3.9 0-7-3.1-7-7V9.5c0-.3.2-.5.5-.5s.5.2.5.5V12c0 3.3 2.7 6 6 6s6-2.7 6-6V9.5c0-.3.2-.5.5-.5s.5.2.5.5V12c0 3.9-3.1 7-7 7z"></path><path fill="#40455a" d="M22 10h-.5c-.8 0-1.5-.7-1.5-1.5v-2c-2.1 1.6-4.9 2.2-7.5 1.7L11.4 8c-.2 0-.4.2-.4.5 0 .8-.7 1.5-1.5 1.5H9c-.2 0-.4-.2-.5-.4l-.9-4.4c-.2-.9 0-1.8.6-2.6.5-.8 1.3-1.3 2.2-1.4L17.2 0c1-.2 2 .1 2.7.7.7.7 1.1 1.4 1.2 2.3.7.1 1.3.5 1.7 1 .5.7.8 1.5.6 2.4l-1 3.3c0 .2-.2.3-.4.3zm-2-4.5c.2 0 .3 0 .4.1.4.2.6.5.6.9v2c0 .3.2.5.5.5h.1l.9-2.9c.1-.5 0-1.1-.4-1.5-.4-.4-.9-.7-1.4-.7-.3 0-.5-.2-.5-.5 0-.8-.3-1.4-.8-1.9-.5-.4-1.2-.6-1.9-.5l-6.9 1.1c-.6.1-1.2.5-1.6 1-.4.6-.6 1.3-.5 1.9l.8 4h.1c.4 0 .6-.2.6-.5 0-.8.7-1.5 1.5-1.5l1.2.2c2.3.5 4.8-.1 6.7-1.5.2-.1.4-.2.6-.2zM28 32H3c-.3 0-.5-.2-.5-.5v-4.4c0-2.4 1.5-4.5 3.8-5.2l5.6-1.9c.3-.1.5.1.6.3s-.1.5-.3.6l-5.6 1.9c-1.8.6-3.1 2.3-3.1 4.3V31h24v-3.9c0-1.9-1.2-3.7-3.1-4.3L18.8 21c-.3-.1-.4-.4-.3-.6.1-.3.4-.4.6-.3l5.6 1.9c2.3.7 3.8 2.8 3.8 5.2v4.4c0 .2-.2.4-.5.4z"></path><path fill="#40455a" d="M28 32h-6c-.3 0-.5-.2-.5-.5v-1c0-3.3 2.5-6.1 5.7-6.4.2 0 .4.1.5.2.5.9.8 1.8.8 2.8v4.4c0 .3-.2.5-.5.5zm-5.5-1h5v-3.9c0-.7-.2-1.4-.5-2-2.6.5-4.5 2.7-4.5 5.4v.5zM9 32H3c-.3 0-.5-.2-.5-.5v-4.4c0-1 .3-2 .8-2.8.1-.2.3-.3.5-.3 3.3.4 5.7 3.2 5.7 6.4v1c0 .4-.2.6-.5.6zm-5.5-1h5v-.5c0-2.7-1.9-4.9-4.5-5.4-.3.6-.5 1.3-.5 2V31zM24 13h-2c-.3 0-.5-.2-.5-.5v-3c0-.3.2-.5.5-.5h1c.8 0 1.5.7 1.5 1.5v2c0 .3-.2.5-.5.5zm-1.5-1h1v-1.5c0-.3-.2-.5-.5-.5h-.5v2z"></path><path fill="#40455a" d="M21 16h-3c-.3 0-.5-.2-.5-.5s.2-.5.5-.5h3c1.4 0 2.5-1.1 2.5-2.5v-2c0-.3.2-.5.5-.5s.5.2.5.5v2c0 1.9-1.6 3.5-3.5 3.5zM9 13H8c-.8 0-1.5-.7-1.5-1.5v-1C6.5 9.7 7.2 9 8 9h1c.3 0 .5.2.5.5v3c0 .3-.2.5-.5.5zm-1-3c-.3 0-.5.2-.5.5v1c0 .3.2.5.5.5h.5v-2H8z"></path><path fill="#40455a" d="M17 17h-1c-.8 0-1.5-.7-1.5-1.5S15.2 14 16 14h1c.8 0 1.5.7 1.5 1.5S17.8 17 17 17zm-1-2c-.3 0-.5.2-.5.5s.2.5.5.5h1c.3 0 .5-.2.5-.5s-.2-.5-.5-.5h-1z"></path></g></svg>