<svg xmlns="http://www.w3.org/2000/svg" version="1.1" x="0px" y="0px" viewBox="0 0 48 48" xml:space="preserve"><style type="text/css">.st0{fill:#FFD4C3;stroke:#504B46;stroke-linecap:round;stroke-linejoin:round;stroke-miterlimit:10;} .st1{fill:#FFC258;} .st2{fill:#4F4B45;} .st3{fill:#FABFA5;} .st4{fill:none;stroke:#504B46;stroke-linecap:round;stroke-linejoin:round;stroke-miterlimit:10;} .Graphic_x0020_Style{opacity:0.15;fill:#45413C;} .st5{opacity:0.15;fill:#45413C;} .st6{fill:#DEBB7E;stroke:#45413C;stroke-linecap:round;stroke-linejoin:round;stroke-miterlimit:10;} .st7{fill:#F0D5A8;} .st8{fill:#F7E5C6;} .st9{fill:#DEBB7E;} .st10{fill:none;stroke:#45413C;stroke-linecap:round;stroke-linejoin:round;stroke-miterlimit:10;} .st11{fill:#FFE500;} .st12{fill:#EBCB00;} .st13{fill:none;stroke:#EBCB00;stroke-linecap:round;stroke-linejoin:round;stroke-miterlimit:10;} .st14{fill:#FF6242;stroke:#45413C;stroke-linecap:round;stroke-linejoin:round;stroke-miterlimit:10;} .st15{fill:#FFFFFF;stroke:#45413C;stroke-linecap:round;stroke-linejoin:round;stroke-miterlimit:10;} .st16{fill:#E5F8FF;} .st17{fill:#FFFFFF;} .st18{fill:#E8F4FA;} .st19{fill:#E8F4FA;stroke:#45413C;stroke-linecap:round;stroke-linejoin:round;stroke-miterlimit:10;} .st20{fill:#FFCCDD;} .st21{fill:#FFB0CA;stroke:#45413C;stroke-linecap:round;stroke-linejoin:round;stroke-miterlimit:10;} .st22{fill:#FF87AF;stroke:#45413C;stroke-linecap:round;stroke-linejoin:round;stroke-miterlimit:10;} .st23{fill:#E5F8FF;stroke:#45413C;stroke-linecap:round;stroke-linejoin:round;stroke-miterlimit:10;} .st24{fill:#BF8256;stroke:#45413C;stroke-linecap:round;stroke-linejoin:round;stroke-miterlimit:10;} .st25{fill:#9CEB60;} .st26{fill:#6DD627;} .st27{fill:#C8FFA1;} .st28{fill:#FFFACF;} .st29{fill:#FF87AF;} .st30{fill:#FFB0CA;} .st31{fill:#FF6196;} .st32{fill:#FFCCDD;stroke:#45413C;stroke-linecap:round;stroke-linejoin:round;stroke-miterlimit:10;} .st33{fill:#FF6196;stroke:#45413C;stroke-linecap:round;stroke-linejoin:round;stroke-miterlimit:10;} .st34{fill:#FFE5EE;} .st35{fill:#00B8F0;} .st36{fill:#4ACFFF;} .st37{fill:#BF8256;} .st38{fill:#DEA47A;} .st39{fill:#915E3A;} .st40{fill:#FFF5E3;} .st41{fill:#F0F0F0;} .st42{fill:#8CA4B8;} .st43{fill:#627B8C;} .st44{fill:#C0DCEB;} .st45{fill:#FFF48C;} .st46{fill:#FFE500;stroke:#45413C;stroke-linecap:round;stroke-linejoin:round;stroke-miterlimit:10;} .st47{fill:#FFAA54;} .st48{fill:#6DD627;stroke:#45413C;stroke-linecap:round;stroke-linejoin:round;stroke-miterlimit:10;} .st49{fill:#FF8A14;} .st50{fill:#FFCC99;} .st51{fill:#EBCB00;stroke:#45413C;stroke-linecap:round;stroke-linejoin:round;stroke-miterlimit:10;} .st52{fill:#00F5BC;stroke:#45413C;stroke-linecap:round;stroke-linejoin:round;stroke-miterlimit:10;} .st53{fill:#BF8DF2;stroke:#45413C;stroke-linecap:round;stroke-linejoin:round;stroke-miterlimit:10;} .st54{fill:#FF8A14;stroke:#45413C;stroke-linecap:round;stroke-linejoin:round;stroke-miterlimit:10;} .st55{fill:#4AEFF7;stroke:#45413C;stroke-linecap:round;stroke-linejoin:round;stroke-miterlimit:10;} .st56{fill:#FFF48C;stroke:#45413C;stroke-linecap:round;stroke-linejoin:round;stroke-miterlimit:10;} .st57{fill:#FF6242;} .st58{fill:#E04122;} .st59{fill:#46B000;} .st60{fill:none;stroke:#45413C;stroke-miterlimit:10;} .st61{fill:#00B8F0;stroke:#45413C;stroke-linecap:round;stroke-linejoin:round;stroke-miterlimit:10;} .st62{fill:#FF866E;} .st63{fill:#9F5AE5;stroke:#45413C;stroke-linecap:round;stroke-linejoin:round;stroke-miterlimit:10;} .st64{fill:#E4FFD1;} .st65{fill:#FFFEF2;} .st66{fill:#B89558;} .st67{fill:none;stroke:#915E3A;stroke-linecap:round;stroke-linejoin:round;stroke-miterlimit:10;} .st68{fill:#915E3A;stroke:#45413C;stroke-linecap:round;stroke-linejoin:round;stroke-miterlimit:10;} .st69{fill:#BF8DF2;} .st70{fill:#9F5AE5;} .st71{fill:#DABFF5;} .st72{fill:none;stroke:#45413C;stroke-linejoin:round;stroke-miterlimit:10;} .st73{fill:#656769;} .st74{fill:#87898C;} .st75{fill:#E0E0E0;} .st76{fill:#BDBEC0;} .st77{fill:#656769;stroke:#45413C;stroke-linecap:round;stroke-linejoin:round;stroke-miterlimit:10;} .st78{fill:#45413C;stroke:#45413C;stroke-linecap:round;stroke-linejoin:round;stroke-miterlimit:10;} .st79{fill:#FFA694;} .st80{fill:#E04122;stroke:#45413C;stroke-linecap:round;stroke-linejoin:round;stroke-miterlimit:10;} .st81{fill:#E0E0E0;stroke:#45413C;stroke-linecap:round;stroke-linejoin:round;stroke-miterlimit:10;} .st82{fill:#F0F0F0;stroke:#45413C;stroke-linecap:round;stroke-linejoin:round;stroke-miterlimit:10;} .st83{fill:#DAEDF7;} .st84{fill:#BDBEC0;stroke:#45413C;stroke-linecap:round;stroke-linejoin:round;stroke-miterlimit:10;} .st85{fill:#87898C;stroke:#45413C;stroke-linecap:round;stroke-linejoin:round;stroke-miterlimit:10;} .st86{fill:#00DFEB;} .st87{fill:#4AEFF7;} .st88{fill:#DAEDF7;stroke:#45413C;stroke-linecap:round;stroke-linejoin:round;stroke-miterlimit:10;} .st89{fill:#FFDA8F;} .st90{fill:#FFBE3D;} .st91{fill:#FFE9BD;} .st92{fill:#DEA47A;stroke:#45413C;stroke-linecap:round;stroke-linejoin:round;stroke-miterlimit:10;} .st93{fill:#45413C;} .st94{fill:#F0C2A1;} .st95{fill:none;stroke:#45413C;stroke-width:1.0064;stroke-linecap:round;stroke-linejoin:round;stroke-miterlimit:10;} .st96{fill:#525252;} .st97{fill:#EB6D00;stroke:#45413C;stroke-linecap:round;stroke-linejoin:round;stroke-miterlimit:10;} .st98{fill:#EB6D00;} .st99{fill:#E5FEFF;} .st100{fill:#FF866E;stroke:#45413C;stroke-linecap:round;stroke-linejoin:round;stroke-miterlimit:10;} .st101{fill:#627B8C;stroke:#45413C;stroke-linecap:round;stroke-linejoin:round;stroke-miterlimit:10;} .st102{fill:#FFFCE5;stroke:#45413C;stroke-linecap:round;stroke-linejoin:round;stroke-miterlimit:10;} .st103{fill:#A6FBFF;} .st104{fill:#D9FDFF;} .st105{fill:#FFFACF;stroke:#45413C;stroke-linecap:round;stroke-linejoin:round;stroke-miterlimit:10;} .st106{fill:#B8ECFF;} .st107{fill:#FFCABF;} .st108{fill:#E5FFF9;} .st109{fill:#C8FFA1;stroke:#45413C;stroke-linecap:round;stroke-linejoin:round;stroke-miterlimit:10;} .st110{fill:#4CF4FC;} .st111{fill:#F0D5A8;stroke:#45413C;stroke-linecap:round;stroke-linejoin:round;stroke-miterlimit:10;} .st112{fill:#FFDCD1;stroke:#45413C;stroke-linecap:round;stroke-linejoin:round;stroke-miterlimit:10;} .st113{fill:#80DDFF;} .st114{fill:#46B000;stroke:#45413C;stroke-linecap:round;stroke-linejoin:round;stroke-miterlimit:10;} .st115{fill:#4ACFFF;stroke:#45413C;stroke-linecap:round;stroke-linejoin:round;stroke-miterlimit:10;} .st116{fill:#ADC4D9;} .st117{fill:#BDBEC0;stroke:#45413C;stroke-width:1.0064;stroke-linecap:round;stroke-linejoin:round;stroke-miterlimit:10;} .st118{fill:#FFFCE5;} .st119{fill:#947746;} .st120{fill:#525252;stroke:#45413C;stroke-linecap:round;stroke-linejoin:round;stroke-miterlimit:10;}</style><symbol id="New_Symbol_14" viewBox="-6.5 -6.5 13 13"><path class="st0" d="M0-6c2.2 0 4.1 1.5 4.7 3.5C6.3-2.5 6.4 0 5 0v1c0 2.8-2.2 5-5 5s-5-2.2-5-5V0c-1.4 0-1.3-2.5.2-2.5C-4.1-4.5-2.2-6 0-6z" fill="#FFD4C3" stroke="#504B46" stroke-linecap="round" stroke-linejoin="round" stroke-miterlimit="10"/><circle class="st1" cx="-1.6" cy="-0.1" r="0.1" fill="#FFC258"/><path class="st2" d="M-1.6.5c-.3 0-.6-.3-.6-.6s.2-.7.6-.7c.3 0 .6.3.6.7s-.3.6-.6.6z" fill="#4F4B45"/><circle class="st1" cx="1.6" cy="-0.1" r="0.1" fill="#FFC258"/><path class="st2" d="M1.6.5C1.3.5 1 .2 1-.1s.3-.6.6-.6.6.3.6.6-.2.6-.6.6z" fill="#4F4B45"/><circle class="st3" cx="-3" cy="-1.5" r="0.5" fill="#FABFA5"/><circle class="st3" cx="3" cy="-1.5" r="0.5" fill="#FABFA5"/><path class="st4" d="M-1.2-3c.8-.5 1.7-.5 2.5 0" fill="none" stroke="#504B46" stroke-linecap="round" stroke-linejoin="round" stroke-miterlimit="10"/></symbol><g id="Icons"><g id="XMLID_1069_"><ellipse id="XMLID_1596_" class="st5" cx="24.3" cy="41.7" rx="13.5" ry="1.5" fill="#45413C" opacity="0.15"/><g id="XMLID_1540_"><g id="XMLID_1576_"><path id="XMLID_1582_" class="st25" d="M42 24.9l-4.7-1.2c-1.1 1.3-2.9 1.9-4.7 1.5-1.1 1.1-2.8 1.6-4.4 1.1-1.5-.3-2.6-1.3-3.2-2.5-.4 0-.7 0-1.1-.1-2-.5-3.4-2.2-3.6-4.2L3.5 15.2c-.9-.2-1.8.4-2 1.3-1.9 11 5 21.7 16 24.5 11 2.8 22.1-3.4 25.7-14 .2-.9-.3-1.8-1.2-2.1z" fill="#9CEB60"/><g id="XMLID_1579_"><path id="XMLID_1581_" class="st27" d="M42.3 29.1l.9-2.1c.3-.9-.2-1.8-1.1-2.1l-4.7-1.2c-1.1 1.3-2.9 1.9-4.7 1.5-.5.5-1.1.8-1.7 1l11.3 2.9z" fill="#C8FFA1"/><path id="XMLID_1580_" class="st27" d="M25.8 25c-.3-.3-.6-.7-.8-1.2-.4 0-.7 0-1.1-.1-2-.5-3.4-2.2-3.6-4.2L3.5 15.2c-.9-.2-1.8.4-2 1.3-.1.8-.2 1.5-.3 2.3L25.8 25z" fill="#C8FFA1"/></g><path id="XMLID_1578_" class="st10" d="M42 24.9l-4.7-1.2c-1.1 1.3-2.9 1.9-4.7 1.5-1.1 1.1-2.8 1.6-4.4 1.1-1.5-.3-2.6-1.3-3.2-2.5-.4 0-.7 0-1.1-.1-2-.5-3.4-2.2-3.6-4.2L3.5 15.2c-.9-.2-1.8.4-2 1.3-1.9 11 5 21.7 16 24.5 11 2.8 22.1-3.4 25.7-14 .2-.9-.3-1.8-1.2-2.1z" fill="none" stroke="#45413C" stroke-linecap="round" stroke-linejoin="round" stroke-miterlimit="10"/></g><g id="XMLID_1570_"><path id="XMLID_1575_" class="st28" d="M37.3 23.8c-1.1 1.3-2.9 1.9-4.7 1.5-1.1 1.1-2.8 1.6-4.4 1.1-1.5-.4-2.6-1.4-3.2-2.6-.4 0-.7 0-1.1-.1-2-.5-3.4-2.2-3.6-4.2l-15.7-4c-2.5 10 3.5 20.2 13.6 22.8 10 2.5 20.2-3.5 22.8-13.6l-3.7-.9z" fill="#FFFACF"/><g id="XMLID_1572_"><path id="XMLID_1574_" class="st17" d="M39.5 28.4c.6-1.2 1.1-2.4 1.4-3.8l-3.6-.9c-1.1 1.3-2.9 1.9-4.7 1.5-.5.5-1.1.8-1.7 1l8.6 2.2z" fill="#FFF"/><path id="XMLID_1573_" class="st17" d="M25.8 25c-.3-.3-.6-.7-.8-1.2-.4 0-.7 0-1.1-.1-2-.5-3.4-2.2-3.6-4.2l-15.7-4c-.3 1.3-.5 2.7-.6 4L25.8 25z" fill="#FFF"/></g><path id="XMLID_1571_" class="st10" d="M37.3 23.8c-1.1 1.3-2.9 1.9-4.7 1.5-1.1 1.1-2.8 1.6-4.4 1.1-1.5-.4-2.6-1.4-3.2-2.6-.4 0-.7 0-1.1-.1-2-.5-3.4-2.2-3.6-4.2l-15.7-4c-2.5 10 3.5 20.2 13.6 22.8 10 2.5 20.2-3.5 22.8-13.6l-3.7-.9z" fill="none" stroke="#45413C" stroke-linecap="round" stroke-linejoin="round" stroke-miterlimit="10"/></g><g id="XMLID_1564_"><path id="XMLID_1569_" class="st29" d="M37.3 23.8c-1.1 1.3-2.9 1.9-4.7 1.5-1.1 1.1-2.8 1.6-4.4 1.1-1.5-.4-2.6-1.4-3.2-2.6-.4 0-.7 0-1.1-.1-2-.5-3.4-2.2-3.6-4.2L6.9 16.1C4.7 24.8 10 33.7 18.8 35.9c8.8 2.2 17.6-3.1 19.8-11.8l-1.3-.3z" fill="#FF87AF"/><g id="XMLID_1566_"><path id="XMLID_1568_" class="st30" d="M37.1 27.8c.6-1.2 1.1-2.4 1.5-3.7l-1.3-.3c-1.1 1.3-2.9 1.9-4.7 1.5-.5.5-1.1.8-1.7 1l6.2 1.5z" fill="#FFB0CA"/><path id="XMLID_1567_" class="st30" d="M25.8 25c-.3-.3-.6-.7-.8-1.2-.4 0-.7 0-1.1-.1-2-.5-3.4-2.2-3.6-4.2L6.9 16.1c-.3 1.3-.5 2.7-.5 4L25.8 25z" fill="#FFB0CA"/></g><path id="XMLID_1565_" class="st10" d="M37.3 23.8c-1.1 1.3-2.9 1.9-4.7 1.5-1.1 1.1-2.8 1.6-4.4 1.1-1.5-.4-2.6-1.4-3.2-2.6-.4 0-.7 0-1.1-.1-2-.5-3.4-2.2-3.6-4.2L6.9 16.1C4.7 24.8 10 33.7 18.8 35.9c8.8 2.2 17.6-3.1 19.8-11.8l-1.3-.3z" fill="none" stroke="#45413C" stroke-linecap="round" stroke-linejoin="round" stroke-miterlimit="10"/></g><g id="XMLID_1541_"><path id="XMLID_1548_" class="st33" d="M9.8 20.9c-.1.4.2.9.6 1 .4.1.9-.2 1-.6l.2-.8c.1-.4-.2-.9-.6-1-.4-.1-.9.2-1 .6l-.2.8z" fill="#FF6196" stroke="#45413C" stroke-linecap="round" stroke-linejoin="round" stroke-miterlimit="10"/><path id="XMLID_1547_" class="st33" d="M12.7 25.8c-.1.4.2.9.6 1 .4.1.9-.2 1-.6l.2-.8c.1-.4-.2-.9-.6-1-.4-.1-.9.2-1 .6l-.2.8z" fill="#FF6196" stroke="#45413C" stroke-linecap="round" stroke-linejoin="round" stroke-miterlimit="10"/><path id="XMLID_1546_" class="st33" d="M17.5 22.9c-.1.4.2.9.6 1 .4.1.9-.2 1-.6l.2-.8c.1-.4-.2-.9-.6-1-.4-.1-.9.2-1 .6l-.2.8z" fill="#FF6196" stroke="#45413C" stroke-linecap="round" stroke-linejoin="round" stroke-miterlimit="10"/><path id="XMLID_1545_" class="st33" d="M28.9 29.9c-.1.4-.5.7-1 .6-.4-.1-.7-.5-.6-1l.2-.8c.1-.4.5-.7 1-.6.4.1.7.5.6 1l-.2.8z" fill="#FF6196" stroke="#45413C" stroke-linecap="round" stroke-linejoin="round" stroke-miterlimit="10"/><path id="XMLID_1544_" class="st33" d="M15.6 30.6c-.1.4.2.9.6 1 .4.1.9-.2 1-.6l.2-.8c.1-.4-.2-.9-.6-1-.4-.1-.9.2-1 .6l-.2.8z" fill="#FF6196" stroke="#45413C" stroke-linecap="round" stroke-linejoin="round" stroke-miterlimit="10"/><path id="XMLID_1543_" class="st33" d="M24.1 32.8c-.1.4-.5.7-1 .6-.4-.1-.7-.5-.6-1l.2-.8c.1-.4.5-.7 1-.6.4.1.7.5.6 1l-.2.8z" fill="#FF6196" stroke="#45413C" stroke-linecap="round" stroke-linejoin="round" stroke-miterlimit="10"/><path id="XMLID_1542_" class="st33" d="M20 27.6c-.1.4.2.9.6 1 .4.1.9-.2 1-.6l.2-.8c.1-.4-.2-.9-.6-1-.4-.1-.9.2-1 .6l-.2.8z" fill="#FF6196" stroke="#45413C" stroke-linecap="round" stroke-linejoin="round" stroke-miterlimit="10"/></g></g><g id="XMLID_1518_"><g id="XMLID_1536_"><path id="XMLID_1539_" class="st17" d="M34.1 7.1c.2-.9-.1-1.7-.8-1.9-.7-.2-1.4.4-1.6 1.2-.2.6 0 2.6.1 3.7 0 .3.3.3.4.1.6-.8 1.7-2.5 1.9-3.1z" fill="#FFF"/><path id="XMLID_1538_" class="st34" d="M33 6.3c-.5-.1-1.1.2-1.4.7 0-.2 0-.4.1-.5.2-.9.9-1.4 1.6-1.2.7.2 1 1 .8 1.9 0 .1-.1.3-.2.5-.1-.7-.4-1.3-.9-1.4z" fill="#FFE5EE"/><path id="XMLID_1537_" class="st10" d="M34.1 7.1c.2-.9-.1-1.7-.8-1.9-.7-.2-1.4.4-1.6 1.2-.2.6 0 2.6.1 3.7 0 .3.3.3.4.1.6-.8 1.7-2.5 1.9-3.1z" fill="none" stroke="#45413C" stroke-linecap="round" stroke-linejoin="round" stroke-miterlimit="10"/></g><g id="XMLID_1532_"><path id="XMLID_1535_" class="st17" d="M41 11.1c.5-.7.5-1.6 0-2-.5-.4-1.4-.2-2 .5-.4.5-1 2.4-1.4 3.4-.1.3.1.4.4.3.9-.6 2.6-1.7 3-2.2z" fill="#FFF"/><path id="XMLID_1534_" class="st34" d="M40.3 9.9c-.4-.3-1.1-.2-1.6.1.1-.2.2-.4.3-.5.5-.7 1.4-.9 2-.5.5.4.5 1.3 0 2l-.4.4c.3-.5.2-1.1-.3-1.5z" fill="#FFE5EE"/><path id="XMLID_1533_" class="st10" d="M41 11.1c.5-.7.5-1.6 0-2-.5-.4-1.4-.2-2 .5-.4.5-1 2.4-1.4 3.4-.1.3.1.4.4.3.9-.6 2.6-1.7 3-2.2z" fill="none" stroke="#45413C" stroke-linecap="round" stroke-linejoin="round" stroke-miterlimit="10"/></g><g id="XMLID_1528_"><path id="XMLID_1531_" class="st17" d="M45.9 17.5c.8-.4 1.1-1.3.8-1.9-.3-.6-1.2-.7-2-.3-.6.3-1.9 1.9-2.6 2.7-.2.2 0 .4.2.4 1-.2 3-.6 3.6-.9z" fill="#FFF"/><path id="XMLID_1530_" class="st34" d="M45.7 16.1c-.3-.5-.9-.6-1.5-.5.2-.1.3-.3.4-.3.8-.4 1.7-.3 2 .3.3.6 0 1.4-.8 1.9-.1.1-.3.1-.5.2.5-.5.7-1.1.4-1.6z" fill="#FFE5EE"/><path id="XMLID_1529_" class="st10" d="M45.9 17.5c.8-.4 1.1-1.3.8-1.9-.3-.6-1.2-.7-2-.3-.6.3-1.9 1.9-2.6 2.7-.2.2 0 .4.2.4 1-.2 3-.6 3.6-.9z" fill="none" stroke="#45413C" stroke-linecap="round" stroke-linejoin="round" stroke-miterlimit="10"/></g><g id="XMLID_1524_"><path id="XMLID_1527_" class="st17" d="M24.1 6.6c-.1-.9.3-1.7 1-1.8.7-.1 1.3.5 1.4 1.4.1.6-.3 2.6-.5 3.7-.1.3-.3.3-.4.1-.5-.9-1.4-2.8-1.5-3.4z" fill="#FFF"/><path id="XMLID_1526_" class="st34" d="M25.3 5.9c.5-.1 1 .3 1.3.9v-.5c-.1-.9-.8-1.5-1.4-1.4-.7.1-1.1.9-1 1.8 0 .1.1.3.1.5.1-.7.5-1.2 1-1.3z" fill="#FFE5EE"/><path id="XMLID_1525_" class="st10" d="M24.1 6.6c-.1-.9.3-1.7 1-1.8.7-.1 1.3.5 1.4 1.4.1.6-.3 2.6-.5 3.7-.1.3-.3.3-.4.1-.5-.9-1.4-2.8-1.5-3.4z" fill="none" stroke="#45413C" stroke-linecap="round" stroke-linejoin="round" stroke-miterlimit="10"/></g><g id="XMLID_1519_"><path id="XMLID_1523_" class="st17" d="M16.7 9.7c-.4-.8-.3-1.7.3-2 .6-.3 1.4 0 1.9.8.3.5.7 2.5.9 3.5 0 .3-.2.4-.4.2-.8-.6-2.3-2-2.7-2.5z" fill="#FFF"/><path id="XMLID_1521_" class="st34" d="M17.5 8.6c.5-.3 1.1-.1 1.5.3 0-.2 0-.4-.1-.5-.4-.8-1.3-1.1-1.9-.8-.6.3-.7 1.2-.3 2 .1.1.2.3.3.4-.1-.5.1-1.1.5-1.4z" fill="#FFE5EE"/><path id="XMLID_1520_" class="st10" d="M16.7 9.7c-.4-.8-.3-1.7.3-2 .6-.3 1.4 0 1.9.8.3.5.7 2.5.9 3.5 0 .3-.2.4-.4.2-.8-.6-2.3-2-2.7-2.5z" fill="none" stroke="#45413C" stroke-linecap="round" stroke-linejoin="round" stroke-miterlimit="10"/></g></g></g></g></svg>
