<svg xmlns="http://www.w3.org/2000/svg" id="Layer_1" viewBox="0 0 32 32"><path fill="#fed8aa" d="M6.5 11.5V13h-1c-.6 0-1-.4-1-1v-1c0-.6.4-1 1-1H6M17.5 11.5V13h1c.6 0 1-.4 1-1v-1c0-.6-.4-1-1-1H18"/><path fill="#a17852" d="M17.2 10.8h.3l1-2.8c.3-1.3-.7-2.5-2-2.5 0-1.5-1.4-2.7-2.9-2.4l-6 1C6.2 4.2 5.3 5.6 5.5 7l1 3.8h.3"/><path fill="#a3d86b" d="M9.1 19.8l-4.7 1.6c-1.7.6-2.9 2.2-2.9 4V29h21v-3.7c0-1.8-1.2-3.4-2.9-4l-4.7-1.6"/><path fill="#64bc50" d="M22.5 29v-3.7c0-.8-.2-1.5-.6-2.2-2.5.3-4.4 2.4-4.4 5v.9h5zM1.5 29v-3.7c0-.8.2-1.5.6-2.2 2.5.3 4.4 2.4 4.4 5v.9h-5z"/><path fill="#fed8aa" d="M17.1 10.8c-.5 0-.9-.4-.9-.9V8.2c0-.4-.4-.6-.7-.3-1.7 1.3-4 1.8-6.1 1.4l-.8-.2c-.5 0-.9.4-.9.9s-.4.9-.9.9h-.3v1.7c0 3 2.5 5.5 5.5 5.5s5.5-2.5 5.5-5.5v-1.7h-.4z"/><path fill="#fed8aa" d="M9 17.3v2.1c0 1.6 3 2.9 3 2.9s2.9-1.3 2.9-2.9v-2.1"/><path fill="#fff" d="M29.5 5h-7c-.6 0-1 .4-1 1v5c0 .6.4 1 1 1h1v2l3-2h3c.6 0 1-.4 1-1V6c0-.6-.4-1-1-1z"/><path fill="#40455a" d="M24.5 10.5c-.1 0-.3 0-.4-.1-.2-.2-.2-.5 0-.7l3-3c.2-.2.5-.2.7 0s.2.5 0 .7l-3 3c0 .1-.2.1-.3.1zM12 22.8h-.2c-.3-.1-3.2-1.5-3.2-3.4v-2.1c0-.3.2-.5.5-.5s.5.2.5.5v2.1c0 1 1.6 2 2.4 2.4.8-.4 2.4-1.4 2.4-2.4v-2.1c0-.3.2-.5.5-.5s.5.2.5.5v2.1c0 1.9-2.9 3.2-3.2 3.4H12z"/><path fill="#40455a" d="M12 18.5c-3.3 0-6-2.7-6-6V11c0-.3.2-.5.5-.5s.5.2.5.5v1.5c0 2.8 2.2 5 5 5s5-2.2 5-5V11c0-.3.2-.5.5-.5s.5.2.5.5v1.5c0 3.3-2.7 6-6 6z"/><path fill="#40455a" d="M17.5 11.3h-.3c-.3 0-.5-.2-.5-.5s.2-.5.4-.5l.9-2.5c.1-.4 0-.9-.3-1.2-.3-.4-.8-.6-1.2-.6-.3 0-.5-.2-.5-.5 0-.6-.3-1.2-.7-1.6-.4-.4-1-.5-1.6-.4l-6 1c-.5.1-1 .4-1.3.8-.3.5-.5 1-.4 1.6l.9 3.4c.2 0 .4.2.4.5s-.2.5-.5.5h-.3c-.2 0-.4-.2-.5-.4L5 7.1c-.2-.8 0-1.6.5-2.3.5-.7 1.2-1.1 2-1.2l6-1c.9-.1 1.7.1 2.4.7.6.5.9 1.2 1 1.9.6 0 1.1.3 1.5.8.5.6.7 1.4.5 2.1l-1 2.8c0 .2-.2.4-.4.4z"/><path fill="#40455a" d="M17.4 11.3h-.3c-.7 0-1.4-.6-1.4-1.4V8.4c-1.8 1.3-4.2 1.8-6.4 1.4l-.8-.2c-.1 0-.3.2-.3.4 0 .7-.6 1.4-1.4 1.4h-.2c-.3 0-.5-.2-.5-.5s.2-.5.5-.5h.3c.2 0 .4-.2.4-.4 0-.7.6-1.4 1.4-1.4l1 .2c2 .4 4.1-.1 5.7-1.3.3-.2.7-.2 1-.1.3.2.5.5.5.8v1.7c0 .2.2.4.4.4h.3c.3 0 .5.2.5.5s-.4.5-.7.5zM22.5 29.5h-21c-.3 0-.5-.2-.5-.5v-3.7c0-2 1.3-3.8 3.2-4.5l4.7-1.6c.3-.1.5.1.6.3.1.3-.1.5-.3.6l-4.7 1.6c-1.5.6-2.5 2-2.5 3.6v3.2h20v-3.2c0-1.6-1-3-2.5-3.5l-4.7-1.6c-.3-.1-.4-.4-.3-.6.1-.3.4-.4.6-.3l4.7 1.6c1.9.6 3.2 2.4 3.2 4.5V29c0 .3-.2.5-.5.5z"/><path fill="#40455a" d="M22.5 29.5h-5c-.3 0-.5-.2-.5-.5v-.8c0-2.8 2.1-5.2 4.9-5.5.2 0 .4.1.5.2.4.7.7 1.6.7 2.4V29c-.1.3-.3.5-.6.5zm-4.5-1h4v-3.2c0-.5-.1-1.1-.4-1.6-2.1.4-3.6 2.3-3.6 4.5v.3zM6.5 29.5h-5c-.3 0-.5-.2-.5-.5v-3.7c0-.8.2-1.7.7-2.4.1-.2.3-.3.5-.2C4.9 23 7 25.4 7 28.2v.8c0 .3-.2.5-.5.5zm-4.5-1h4v-.3c0-2.2-1.6-4-3.7-4.5-.2.5-.3 1.1-.3 1.6v3.2zM6.5 13.5h-1c-.8 0-1.5-.7-1.5-1.5v-1c0-.8.7-1.5 1.5-1.5H6c.3 0 .5.2.5.5s-.2.5-.5.5h-.5c-.3 0-.5.2-.5.5v1c0 .3.2.5.5.5H6v-1c0-.3.2-.5.5-.5s.5.2.5.5V13c0 .3-.2.5-.5.5zM18.5 13.5h-1c-.3 0-.5-.2-.5-.5v-1.5c0-.3.2-.5.5-.5s.5.2.5.5v1h.5c.3 0 .5-.2.5-.5v-1c0-.3-.2-.5-.5-.5H18c-.3 0-.5-.2-.5-.5s.2-.5.5-.5h.5c.8 0 1.5.7 1.5 1.5v1c0 .8-.7 1.5-1.5 1.5zM23.5 14.5c-.1 0-.2 0-.2-.1-.2-.1-.3-.2-.3-.4v-1.5h-.5c-.8 0-1.5-.7-1.5-1.5V6c0-.8.7-1.5 1.5-1.5h7c.8 0 1.5.7 1.5 1.5v5c0 .8-.7 1.5-1.5 1.5h-2.8l-2.9 1.9c-.1.1-.2.1-.3.1zm-1-9c-.3 0-.5.2-.5.5v5c0 .3.2.5.5.5h1c.3 0 .5.2.5.5v1.1l2.2-1.5c.1-.1.2-.1.3-.1h3c.3 0 .5-.2.5-.5V6c0-.3-.2-.5-.5-.5h-7z"/><circle cx="24.8" cy="7.3" r=".8" fill="#40455a"/><circle cx="27.2" cy="9.8" r=".8" fill="#40455a"/><path fill="#40455a" d="M11.5 22.3h1V29h-1z"/></svg>