<svg xmlns="http://www.w3.org/2000/svg" data-name="Layer 1" viewBox="0 0 32 32"><path fill="#37b678" d="M5.5,25.5V2.5a2,2,0,0,1,2-2h19v23"/><path fill="#2c2b2d" d="M5.5,26a.49971.49971,0,0,1-.5-.5V2.5A2.50263,2.50263,0,0,1,7.5,0h19a.49971.49971,0,0,1,.5.5v23a.5.5,0,0,1-1,0V1H7.5A1.50164,1.50164,0,0,0,6,2.5v23A.49971.49971,0,0,1,5.5,26Z"/><path fill="#e0e0e2" d="M7.5,23.5h19a0,0,0,0,1,0,0v5a0,0,0,0,1,0,0H7.5a2,2,0,0,1-2-2v-1A2,2,0,0,1,7.5,23.5Z"/><path fill="#2c2b2d" d="M26.5,29H7.5A2.50263,2.50263,0,0,1,5,26.5v-1A2.50263,2.50263,0,0,1,7.5,23h19a.49971.49971,0,0,1,.5.5v5A.49971.49971,0,0,1,26.5,29Zm-19-5A1.50164,1.50164,0,0,0,6,25.5v1A1.50164,1.50164,0,0,0,7.5,28H26V24Z"/><polygon fill="#e5303e" points="11.5 31.5 9.5 30.5 7.5 31.5 7.5 26.5 11.5 26.5 11.5 31.5"/><path fill="#2c2b2d" d="M11.5,32a.50154.50154,0,0,1-.22363-.05273L9.5,31.05859l-1.77637.88868A.49973.49973,0,0,1,7,31.5v-5a.49971.49971,0,0,1,.5-.5h4a.49971.49971,0,0,1,.5.5v5a.49921.49921,0,0,1-.5.5Zm-2-2a.5.5,0,0,1,.22363.05273L11,30.69141V27H8v3.69141l1.27637-.63868A.5.5,0,0,1,9.5,30Z"/><path fill="#fdd402" d="M7.5,4.5v14a2,2,0,0,1,2,2,1.97948,1.97948,0,0,1-.2774,1H21.7774a1.97948,1.97948,0,0,1-.2774-1,2,2,0,0,1,2-2,1.97948,1.97948,0,0,1,1,.2774V4.2226a1.97948,1.97948,0,0,1-1,.2774,2,2,0,0,1-2-2H9.5A2,2,0,0,1,7.5,4.5Z"/><path fill="#2c2b2d" d="M21.77734,22H9.22266a.50019.50019,0,0,1-.43213-.752A1.47,1.47,0,0,0,9,20.5,1.50164,1.50164,0,0,0,7.5,19a.49971.49971,0,0,1-.5-.5V4.5A.49971.49971,0,0,1,7.5,4,1.50164,1.50164,0,0,0,9,2.5.49971.49971,0,0,1,9.5,2h12a.49971.49971,0,0,1,.5.5A1.50164,1.50164,0,0,0,23.5,4a1.47287,1.47287,0,0,0,.748-.209A.49977.49977,0,0,1,25,4.22266V18.77734a.49977.49977,0,0,1-.752.43164A1.47287,1.47287,0,0,0,23.5,19,1.50164,1.50164,0,0,0,22,20.5a1.47,1.47,0,0,0,.20947.748.50019.50019,0,0,1-.43213.752ZM9.94775,21h11.1045A2.41416,2.41416,0,0,1,21,20.5,2.50263,2.50263,0,0,1,23.5,18a2.44063,2.44063,0,0,1,.5.05176V4.94824A2.44063,2.44063,0,0,1,23.5,5a2.50428,2.50428,0,0,1-2.44971-2H9.94971A2.50867,2.50867,0,0,1,8,4.9502V18.0498A2.50523,2.50523,0,0,1,10,20.5,2.41416,2.41416,0,0,1,9.94775,21Z"/><path fill="#e0e0e2" d="M12.57642,7.6804a4.92219,4.92219,0,0,1,2.09274-.63486,4.94261,4.94261,0,0,0,4.47294,7.74737A4.96291,4.96291,0,1,1,12.57642,7.6804Z"/><path fill="#2c2b2d" d="M15.0708,17.45215a5.46795,5.46795,0,0,1-2.74414-10.2041,5.38016,5.38016,0,0,1,2.30371-.7002.49957.49957,0,0,1,.45068.78125,4.44308,4.44308,0,0,0,4.022,6.96582.4888.4888,0,0,1,.47217.24805.5.5,0,0,1-.021.5332,5.39334,5.39334,0,0,1-4.4834,2.376ZM13.72461,7.72656a4.25044,4.25044,0,0,0-.89795.38672h0a4.46978,4.46978,0,0,0,4.46924,7.74219,4.23552,4.23552,0,0,0,.78515-.585,5.439,5.439,0,0,1-4.35644-7.54395Zm-1.14795-.0459h0Z"/><polygon fill="#e0e0e2" points="18.639 8.797 19.426 7.163 20.184 8.811 21.909 9.091 20.648 10.356 20.927 12.163 19.39 11.297 17.837 12.133 18.148 10.333 16.909 9.043 18.639 8.797"/><path fill="#2c2b2d" d="M20.92725,12.66309a.50167.50167,0,0,1-.24561-.06446l-1.29736-.73047-1.30957.70606a.5.5,0,0,1-.73-.52539l.26757-1.55176-1.064-1.10742a.50044.50044,0,0,1,.29053-.8418l1.46533-.208.6709-1.39355a.50112.50112,0,0,1,.45068-.2832h.0044a.49985.49985,0,0,1,.4497.291l.647,1.40625,1.4624.23731a.49929.49929,0,0,1,.27392.8457l-1.08252,1.08691.24073,1.55664a.49985.49985,0,0,1-.49414.57618Zm-1.5376-1.86621a.50028.50028,0,0,1,.2456.06445l.64063.36133-.12207-.79a.49814.49814,0,0,1,.14014-.42871l.57275-.5752-.7627-.124a.49837.49837,0,0,1-.374-.28418l-.31445-.6836-.32617.67676A.50125.50125,0,0,1,18.709,9.292l-.76318.1084.563.58594a.50247.50247,0,0,1,.13184.43164l-.13575.78808.64746-.3496A.49887.49887,0,0,1,19.38965,10.79688Zm-.751-2h0Z"/></svg>