<svg xmlns="http://www.w3.org/2000/svg" width="24" height="24" viewBox="0 0 24 24"><g fill="none" fill-rule="evenodd" stroke="#200E32" stroke-linecap="round" stroke-linejoin="round" stroke-width="1.5" transform="translate(2 3.5)"><path d="M15.2677346,5.56112535 L11.0022884,8.99539646 C10.1950744,9.62826732 9.06350694,9.62826732 8.25629295,8.99539646 L3.95423343,5.56112535"/><path d="M4.88787188,4.13786652e-14 L14.3157895,4.13786652e-14 C15.6751779,0.015246851 16.9690267,0.589927916 17.8960035,1.59020219 C18.8229802,2.59047647 19.3021688,3.92902958 19.2219681,5.29411767 L19.2219681,11.8219949 C19.3021688,13.187083 18.8229802,14.5256361 17.8960035,15.5259104 C16.9690267,16.5261847 15.6751779,17.1008658 14.3157895,17.1161126 L4.88787188,17.1161126 C1.9679634,17.1161126 -2.4308041e-14,14.740665 -2.4308041e-14,11.8219949 L-2.4308041e-14,5.29411767 C-2.4308041e-14,2.37544758 1.9679634,4.13786652e-14 4.88787188,4.13786652e-14 Z"/></g></svg>