<svg xmlns="http://www.w3.org/2000/svg" version="1.1" x="0px" y="0px" viewBox="0 0 48 48" xml:space="preserve"><style type="text/css">.st0{fill:#FFD4C3;stroke:#504B46;stroke-linecap:round;stroke-linejoin:round;stroke-miterlimit:10;} .st1{fill:#FFC258;} .st2{fill:#4F4B45;} .st3{fill:#FABFA5;} .st4{fill:none;stroke:#504B46;stroke-linecap:round;stroke-linejoin:round;stroke-miterlimit:10;} .Graphic_x0020_Style{opacity:0.15;fill:#45413C;} .st5{opacity:0.15;fill:#45413C;} .st6{fill:#DEBB7E;stroke:#45413C;stroke-linecap:round;stroke-linejoin:round;stroke-miterlimit:10;} .st7{fill:#F0D5A8;} .st8{fill:#F7E5C6;} .st9{fill:#DEBB7E;} .st10{fill:none;stroke:#45413C;stroke-linecap:round;stroke-linejoin:round;stroke-miterlimit:10;} .st11{fill:#FFE500;} .st12{fill:#EBCB00;} .st13{fill:none;stroke:#EBCB00;stroke-linecap:round;stroke-linejoin:round;stroke-miterlimit:10;} .st14{fill:#FF6242;stroke:#45413C;stroke-linecap:round;stroke-linejoin:round;stroke-miterlimit:10;} .st15{fill:#FFFFFF;stroke:#45413C;stroke-linecap:round;stroke-linejoin:round;stroke-miterlimit:10;} .st16{fill:#E5F8FF;} .st17{fill:#FFFFFF;} .st18{fill:#E8F4FA;} .st19{fill:#E8F4FA;stroke:#45413C;stroke-linecap:round;stroke-linejoin:round;stroke-miterlimit:10;} .st20{fill:#FFCCDD;} .st21{fill:#FFB0CA;stroke:#45413C;stroke-linecap:round;stroke-linejoin:round;stroke-miterlimit:10;} .st22{fill:#FF87AF;stroke:#45413C;stroke-linecap:round;stroke-linejoin:round;stroke-miterlimit:10;} .st23{fill:#E5F8FF;stroke:#45413C;stroke-linecap:round;stroke-linejoin:round;stroke-miterlimit:10;} .st24{fill:#BF8256;stroke:#45413C;stroke-linecap:round;stroke-linejoin:round;stroke-miterlimit:10;} .st25{fill:#9CEB60;} .st26{fill:#6DD627;} .st27{fill:#C8FFA1;} .st28{fill:#FFFACF;} .st29{fill:#FF87AF;} .st30{fill:#FFB0CA;} .st31{fill:#FF6196;} .st32{fill:#FFCCDD;stroke:#45413C;stroke-linecap:round;stroke-linejoin:round;stroke-miterlimit:10;} .st33{fill:#FF6196;stroke:#45413C;stroke-linecap:round;stroke-linejoin:round;stroke-miterlimit:10;} .st34{fill:#FFE5EE;} .st35{fill:#00B8F0;} .st36{fill:#4ACFFF;} .st37{fill:#BF8256;} .st38{fill:#DEA47A;} .st39{fill:#915E3A;} .st40{fill:#FFF5E3;} .st41{fill:#F0F0F0;} .st42{fill:#8CA4B8;} .st43{fill:#627B8C;} .st44{fill:#C0DCEB;} .st45{fill:#FFF48C;} .st46{fill:#FFE500;stroke:#45413C;stroke-linecap:round;stroke-linejoin:round;stroke-miterlimit:10;} .st47{fill:#FFAA54;} .st48{fill:#6DD627;stroke:#45413C;stroke-linecap:round;stroke-linejoin:round;stroke-miterlimit:10;} .st49{fill:#FF8A14;} .st50{fill:#FFCC99;} .st51{fill:#EBCB00;stroke:#45413C;stroke-linecap:round;stroke-linejoin:round;stroke-miterlimit:10;} .st52{fill:#00F5BC;stroke:#45413C;stroke-linecap:round;stroke-linejoin:round;stroke-miterlimit:10;} .st53{fill:#BF8DF2;stroke:#45413C;stroke-linecap:round;stroke-linejoin:round;stroke-miterlimit:10;} .st54{fill:#FF8A14;stroke:#45413C;stroke-linecap:round;stroke-linejoin:round;stroke-miterlimit:10;} .st55{fill:#4AEFF7;stroke:#45413C;stroke-linecap:round;stroke-linejoin:round;stroke-miterlimit:10;} .st56{fill:#FFF48C;stroke:#45413C;stroke-linecap:round;stroke-linejoin:round;stroke-miterlimit:10;} .st57{fill:#FF6242;} .st58{fill:#E04122;} .st59{fill:#46B000;} .st60{fill:none;stroke:#45413C;stroke-miterlimit:10;} .st61{fill:#00B8F0;stroke:#45413C;stroke-linecap:round;stroke-linejoin:round;stroke-miterlimit:10;} .st62{fill:#FF866E;} .st63{fill:#9F5AE5;stroke:#45413C;stroke-linecap:round;stroke-linejoin:round;stroke-miterlimit:10;} .st64{fill:#E4FFD1;} .st65{fill:#FFFEF2;} .st66{fill:#B89558;} .st67{fill:none;stroke:#915E3A;stroke-linecap:round;stroke-linejoin:round;stroke-miterlimit:10;} .st68{fill:#915E3A;stroke:#45413C;stroke-linecap:round;stroke-linejoin:round;stroke-miterlimit:10;} .st69{fill:#BF8DF2;} .st70{fill:#9F5AE5;} .st71{fill:#DABFF5;} .st72{fill:none;stroke:#45413C;stroke-linejoin:round;stroke-miterlimit:10;} .st73{fill:#656769;} .st74{fill:#87898C;} .st75{fill:#E0E0E0;} .st76{fill:#BDBEC0;} .st77{fill:#656769;stroke:#45413C;stroke-linecap:round;stroke-linejoin:round;stroke-miterlimit:10;} .st78{fill:#45413C;stroke:#45413C;stroke-linecap:round;stroke-linejoin:round;stroke-miterlimit:10;} .st79{fill:#FFA694;} .st80{fill:#E04122;stroke:#45413C;stroke-linecap:round;stroke-linejoin:round;stroke-miterlimit:10;} .st81{fill:#E0E0E0;stroke:#45413C;stroke-linecap:round;stroke-linejoin:round;stroke-miterlimit:10;} .st82{fill:#F0F0F0;stroke:#45413C;stroke-linecap:round;stroke-linejoin:round;stroke-miterlimit:10;} .st83{fill:#DAEDF7;} .st84{fill:#BDBEC0;stroke:#45413C;stroke-linecap:round;stroke-linejoin:round;stroke-miterlimit:10;} .st85{fill:#87898C;stroke:#45413C;stroke-linecap:round;stroke-linejoin:round;stroke-miterlimit:10;} .st86{fill:#00DFEB;} .st87{fill:#4AEFF7;} .st88{fill:#DAEDF7;stroke:#45413C;stroke-linecap:round;stroke-linejoin:round;stroke-miterlimit:10;} .st89{fill:#FFDA8F;} .st90{fill:#FFBE3D;} .st91{fill:#FFE9BD;} .st92{fill:#DEA47A;stroke:#45413C;stroke-linecap:round;stroke-linejoin:round;stroke-miterlimit:10;} .st93{fill:#45413C;} .st94{fill:#F0C2A1;} .st95{fill:none;stroke:#45413C;stroke-width:1.0064;stroke-linecap:round;stroke-linejoin:round;stroke-miterlimit:10;} .st96{fill:#525252;} .st97{fill:#EB6D00;stroke:#45413C;stroke-linecap:round;stroke-linejoin:round;stroke-miterlimit:10;} .st98{fill:#EB6D00;} .st99{fill:#E5FEFF;} .st100{fill:#FF866E;stroke:#45413C;stroke-linecap:round;stroke-linejoin:round;stroke-miterlimit:10;} .st101{fill:#627B8C;stroke:#45413C;stroke-linecap:round;stroke-linejoin:round;stroke-miterlimit:10;} .st102{fill:#FFFCE5;stroke:#45413C;stroke-linecap:round;stroke-linejoin:round;stroke-miterlimit:10;} .st103{fill:#A6FBFF;} .st104{fill:#D9FDFF;} .st105{fill:#FFFACF;stroke:#45413C;stroke-linecap:round;stroke-linejoin:round;stroke-miterlimit:10;} .st106{fill:#B8ECFF;} .st107{fill:#FFCABF;} .st108{fill:#E5FFF9;} .st109{fill:#C8FFA1;stroke:#45413C;stroke-linecap:round;stroke-linejoin:round;stroke-miterlimit:10;} .st110{fill:#4CF4FC;} .st111{fill:#F0D5A8;stroke:#45413C;stroke-linecap:round;stroke-linejoin:round;stroke-miterlimit:10;} .st112{fill:#FFDCD1;stroke:#45413C;stroke-linecap:round;stroke-linejoin:round;stroke-miterlimit:10;} .st113{fill:#80DDFF;} .st114{fill:#46B000;stroke:#45413C;stroke-linecap:round;stroke-linejoin:round;stroke-miterlimit:10;} .st115{fill:#4ACFFF;stroke:#45413C;stroke-linecap:round;stroke-linejoin:round;stroke-miterlimit:10;} .st116{fill:#ADC4D9;} .st117{fill:#BDBEC0;stroke:#45413C;stroke-width:1.0064;stroke-linecap:round;stroke-linejoin:round;stroke-miterlimit:10;} .st118{fill:#FFFCE5;} .st119{fill:#947746;} .st120{fill:#525252;stroke:#45413C;stroke-linecap:round;stroke-linejoin:round;stroke-miterlimit:10;}</style><symbol id="New_Symbol_14" viewBox="-6.5 -6.5 13 13"><path class="st0" d="M0-6c2.2 0 4.1 1.5 4.7 3.5C6.3-2.5 6.4 0 5 0v1c0 2.8-2.2 5-5 5s-5-2.2-5-5V0c-1.4 0-1.3-2.5.2-2.5C-4.1-4.5-2.2-6 0-6z" fill="#FFD4C3" stroke="#504B46" stroke-linecap="round" stroke-linejoin="round" stroke-miterlimit="10"/><circle class="st1" cx="-1.6" cy="-0.1" r="0.1" fill="#FFC258"/><path class="st2" d="M-1.6.5c-.3 0-.6-.3-.6-.6s.2-.7.6-.7c.3 0 .6.3.6.7s-.3.6-.6.6z" fill="#4F4B45"/><circle class="st1" cx="1.6" cy="-0.1" r="0.1" fill="#FFC258"/><path class="st2" d="M1.6.5C1.3.5 1 .2 1-.1s.3-.6.6-.6.6.3.6.6-.2.6-.6.6z" fill="#4F4B45"/><circle class="st3" cx="-3" cy="-1.5" r="0.5" fill="#FABFA5"/><circle class="st3" cx="3" cy="-1.5" r="0.5" fill="#FABFA5"/><path class="st4" d="M-1.2-3c.8-.5 1.7-.5 2.5 0" fill="none" stroke="#504B46" stroke-linecap="round" stroke-linejoin="round" stroke-miterlimit="10"/></symbol><g id="Icons"><g id="XMLID_1929_"><path id="XMLID_1514_" class="st85" d="M39.7 41.7c-3.7 0-3.7-4.3-3.7-8 0-4.6-2-5.9-3.2-5.9-.6 0-1.1-.5-1.1-1.1 0-.6.5-1.1 1.1-1.1 2 0 5.3 1.7 5.3 8 0 4.6.4 5.9 1.6 5.9 1.2 0 1.6-1.5 1.6-5.3V22.5c0-.6.5-1.1 1.1-1.1.6 0 1.1.5 1.1 1.1v11.7c0 2.7 0 7.5-3.8 7.5z" fill="#87898C" stroke="#45413C" stroke-linecap="round" stroke-linejoin="round" stroke-miterlimit="10"/><path id="XMLID_1513_" class="st88" d="M36.5 5.5l.9.5c2.2 1.3 3.7 3.5 4.3 5.9l.8 3c.3 1.1.4 2.2.4 3.4V22h-2.7v-4c0-.6-.1-1.1-.2-1.6l-.8-3.5c-.4-1.7-1.4-3.2-2.7-4.2V5.5z" fill="#DAEDF7" stroke="#45413C" stroke-linecap="round" stroke-linejoin="round" stroke-miterlimit="10"/><path id="XMLID_1512_" class="st85" fill="#87898C" stroke="#45413C" stroke-linecap="round" stroke-linejoin="round" stroke-miterlimit="10" d="M34.9 18.8h5.3v2.1h-5.3z"/><path id="XMLID_1511_" class="st83" d="M33.3 22.5H9.9c-1.8 0-3.2-1.4-3.2-3.2V4.4c0-1.8 1.4-3.2 3.2-3.2h23.5c1.8 0 3.2 1.4 3.2 3.2v14.9c-.1 1.8-1.5 3.2-3.3 3.2z" fill="#DAEDF7"/><path id="XMLID_1510_" class="st17" d="M33.3 1.2H9.9c-1.8 0-3.2 1.4-3.2 3.2v3.2c0-1.8 1.4-3.2 3.2-3.2h23.5c1.8 0 3.2 1.4 3.2 3.2V4.4c-.1-1.8-1.5-3.2-3.3-3.2z" fill="#FFF"/><path id="XMLID_1509_" class="st10" d="M33.3 22.5H9.9c-1.8 0-3.2-1.4-3.2-3.2V4.4c0-1.8 1.4-3.2 3.2-3.2h23.5c1.8 0 3.2 1.4 3.2 3.2v14.9c-.1 1.8-1.5 3.2-3.3 3.2z" fill="none" stroke="#45413C" stroke-linecap="round" stroke-linejoin="round" stroke-miterlimit="10"/><ellipse id="XMLID_1477_" class="st5" cx="21.6" cy="45.2" rx="17.6" ry="1.6" fill="#45413C" opacity="0.15"/><path id="XMLID_1476_" class="st14" d="M32.3 19.3H10.9c-.6 0-1.1-.5-1.1-1.1v-9h23.5v9.1c0 .6-.4 1-1 1z" fill="#FF6242" stroke="#45413C" stroke-linecap="round" stroke-linejoin="round" stroke-miterlimit="10"/><path id="XMLID_1475_" class="st57" fill="#FF6242" d="M32.3 41.7H10.9l-.5-19.2h22.4z"/><path id="XMLID_1474_" class="st58" fill="#E04122" d="M32.7 25.2l.1-2.7H10.4l.1 2.7z"/><path id="XMLID_1473_" class="st10" fill="none" stroke="#45413C" stroke-linecap="round" stroke-linejoin="round" stroke-miterlimit="10" d="M32.3 41.7H10.9l-.5-19.2h22.4z"/><path id="XMLID_1458_" class="st17" d="M33.3 9.2H9.9V5.5c0-.6.5-1.1 1.1-1.1h21.3c.6 0 1.1.5 1.1 1.1v3.7z" fill="#FFF"/><path id="XMLID_1457_" class="st75" d="M32.3 4.4H10.9c-.6 0-1.1.5-1.1 1.1v2.4c0-.6.5-1.1 1.1-1.1h21.3c.6 0 1.1.5 1.1 1.1V5.5c0-.6-.4-1.1-1-1.1z" fill="#E0E0E0"/><path id="XMLID_1456_" class="st10" d="M33.3 9.2H9.9V5.5c0-.6.5-1.1 1.1-1.1h21.3c.6 0 1.1.5 1.1 1.1v3.7z" fill="none" stroke="#45413C" stroke-linecap="round" stroke-linejoin="round" stroke-miterlimit="10"/><path id="XMLID_1455_" class="st85" d="M33.3 44.4H9.9v-1.6c0-.6.5-1.1 1.1-1.1h21.3c.6 0 1.1.5 1.1 1.1v1.6z" fill="#87898C" stroke="#45413C" stroke-linecap="round" stroke-linejoin="round" stroke-miterlimit="10"/><path id="XMLID_1454_" class="st25" d="M29.6 15.6h-5.9c-.6 0-1.1-.5-1.1-1.1v-1.6c0-.6.5-1.1 1.1-1.1h5.9c.6 0 1.1.5 1.1 1.1v1.6c0 .6-.5 1.1-1.1 1.1z" fill="#9CEB60"/><path id="XMLID_1453_" class="st26" d="M22.7 12.9v.8h8v-.8c0-.6-.5-1.1-1.1-1.1h-5.9c-.6.1-1 .5-1 1.1z" fill="#6DD627"/><path id="XMLID_1452_" class="st10" d="M29.6 15.6h-5.9c-.6 0-1.1-.5-1.1-1.1v-1.6c0-.6.5-1.1 1.1-1.1h5.9c.6 0 1.1.5 1.1 1.1v1.6c0 .6-.5 1.1-1.1 1.1z" fill="none" stroke="#45413C" stroke-linecap="round" stroke-linejoin="round" stroke-miterlimit="10"/><path id="XMLID_1451_" class="st57" d="M42.9 12.9l-.6-1.9c-.2-.6-1-.9-1.6-.6l-4.2 2.5v3.7l1.9-1.1c.6-.4 1.4 0 1.6.7.2.6.3 1.3.3 2v3.2c0 .6.5 1.1 1.1 1.1H43c.6 0 1.1-.5 1.1-1.1v-2.7c-.1-2-.5-3.8-1.2-5.8z" fill="#FF6242"/><path id="XMLID_1412_" class="st62" d="M42.9 12.9l-.6-1.9c-.2-.6-1-.9-1.6-.6l-4.2 2.5v2.4l4.2-2.5c.6-.4 1.3-.1 1.6.6l.6 1.9c.7 2 1.1 3.7 1.1 5.9v-2.4c0-2.1-.4-3.9-1.1-5.9z" fill="#FF866E"/><path id="XMLID_1411_" class="st10" d="M42.9 12.9l-.6-1.9c-.2-.6-1-.9-1.6-.6l-4.2 2.5v3.7l1.9-1.1c.6-.4 1.4 0 1.6.7.2.6.3 1.3.3 2v3.2c0 .6.5 1.1 1.1 1.1H43c.6 0 1.1-.5 1.1-1.1v-2.7c-.1-2-.5-3.8-1.2-5.8z" fill="none" stroke="#45413C" stroke-linecap="round" stroke-linejoin="round" stroke-miterlimit="10"/><circle id="XMLID_1410_" class="st41" cx="21.6" cy="32.7" r="6.4" fill="#F0F0F0"/><path id="XMLID_1409_" class="st17" d="M21.6 28.2c3.2 0 5.9 2.4 6.3 5.5 0-.3.1-.6.1-.9 0-3.5-2.9-6.4-6.4-6.4s-6.4 2.9-6.4 6.4c0 .3 0 .6.1.9.4-3.1 3.1-5.5 6.3-5.5z" fill="#FFF"/><circle id="XMLID_1408_" class="st10" cx="21.6" cy="32.7" r="6.4" fill="none" stroke="#45413C" stroke-linecap="round" stroke-linejoin="round" stroke-miterlimit="10"/><path id="XMLID_1320_" class="st85" d="M21 29.8l-1.5 3.1c-.4.8-.2 1.8.5 2.4.9.8 2.4.8 3.3 0 .7-.6.9-1.6.5-2.4l-1.5-3.1c-.3-.5-1.1-.5-1.3 0z" fill="#87898C" stroke="#45413C" stroke-linecap="round" stroke-linejoin="round" stroke-miterlimit="10"/></g></g></svg>
