<svg
  style="width:15px;height:15px"
  version="1.1"
  xmlns="http://www.w3.org/2000/svg"
  width="32"
  height="32"
  viewBox="0 0 32 32"
  id="CalendarIcon"
>
  <title>calendar</title>
  <path d="M27.477 5.077c1.408 0 2.56 1.131 2.56 2.539v20.267c0 1.408-1.152 2.56-2.56 2.56h-22.827c-1.395-0.024-2.517-1.161-2.517-2.56 0-0 0-0 0-0v0-20.267c0-1.408 1.152-2.56 2.539-2.56h1.28v1.28c0 1.408 1.109 2.539 2.517 2.539v-7.616c0.085-0.632 0.621-1.115 1.269-1.115s1.185 0.483 1.269 1.109l0.001 0.007v3.819h8.875v1.28c0 1.387 1.131 2.517 2.539 2.517v-7.616c0.084-0.632 0.621-1.115 1.269-1.115s1.185 0.483 1.269 1.109l0.001 0.007v3.819zM7.595 18.581h3.413v-3.392h-3.413zM14.379 25.365h3.413v-3.392h-3.413zM14.379 18.581h3.413v-3.392h-3.413zM21.163 25.365h3.392v-3.392h-3.392zM21.163 18.581h3.392v-3.392h-3.392z"></path>{' '}
</svg>
