<svg xmlns="http://www.w3.org/2000/svg" version="1.1" x="0px" y="0px" viewBox="0 0 48 48" xml space="preserve" id="Juice6Icon"><style type="text/css"></style><symbol id="New_Symbol_14" viewBox="-6.5 -6.5 13 13"><path class="st0" d="M0-6c2.2 0 4.1 1.5 4.7 3.5C6.3-2.5 6.4 0 5 0v1c0 2.8-2.2 5-5 5s-5-2.2-5-5V0c-1.4 0-1.3-2.5.2-2.5C-4.1-4.5-2.2-6 0-6z" fill="#FFD4C3" stroke="#504B46" stroke-linecap="round" stroke-linejoin="round" stroke-miterlimit="10"></path><circle class="st1" cx="-1.6" cy="-0.1" r="0.1" fill="#FFC258"></circle><path class="st2" d="M-1.6.5c-.3 0-.6-.3-.6-.6s.2-.7.6-.7c.3 0 .6.3.6.7s-.3.6-.6.6z" fill="#4F4B45"></path><circle class="st1" cx="1.6" cy="-0.1" r="0.1" fill="#FFC258"></circle><path class="st2" d="M1.6.5C1.3.5 1 .2 1-.1s.3-.6.6-.6.6.3.6.6-.2.6-.6.6z" fill="#4F4B45"></path><circle class="st3" cx="-3" cy="-1.5" r="0.5" fill="#FABFA5"></circle><circle class="st3" cx="3" cy="-1.5" r="0.5" fill="#FABFA5"></circle><path class="st4" d="M-1.2-3c.8-.5 1.7-.5 2.5 0" fill="none" stroke="#504B46" stroke-linecap="round" stroke-linejoin="round" stroke-miterlimit="10"></path></symbol><g id="Icons"><g id="XMLID_1891_"><ellipse id="XMLID_762_" class="st5" cx="11.4" cy="45.2" rx="9" ry="1.5" fill="#45413C" opacity="0.15"></ellipse><ellipse id="XMLID_1279_" class="st5" cx="36.1" cy="45.2" rx="9" ry="1.5" fill="#45413C" opacity="0.15"></ellipse><g id="XMLID_92_"><path id="XMLID_689_" class="st61" d="M10.7 29.6c0 4.1-1.9 10.6-1.9 10.6-.1.3-.4.6-.8.5-2.7-.5-5-.4-5.6.3-.1.1-.1.3 0 .5.6.5 2.4 1.8 6.4 2.8 3.9 1 6.2.6 6.9.5.2 0 .3-.2.3-.4-.2-.9-2.1-2-4.8-2.9-.3-.1-.5-.5-.4-.8 0 0 1.3-6.6 3.2-10.3l-3.3-.8z" fill="#00B8F0" stroke="#45413C" stroke-linecap="round" stroke-linejoin="round" stroke-miterlimit="10"></path><g id="XMLID_96_"><g id="XMLID_102_"><path id="XMLID_687_" class="st35" d="M12.1 4.4c.9-.8 3.1-.6 6.5.2s5.4 1.7 5.9 2.8c1 2-.1 14.4-.7 16.7-1.3 5.2-6.6 8.4-11.8 7.1-5.2-1.2-8.4-6.5-7.1-11.7.6-2.3 5.4-13.8 7.2-15.1z" fill="#00B8F0"></path><path id="XMLID_686_" class="st36" d="M6.1 26.9c9.8-1.9 15.7-9.5 18.8-15.1 0-2.1-.1-3.8-.4-4.4-.4-1.1-2.4-2-5.9-2.8s-5.6-1-6.5-.2c-1.8 1.3-6.6 12.7-7.2 15.1-.6 2.6-.2 5.3 1.2 7.4z" fill="#4ACFFF"></path><path id="XMLID_684_" class="st35" d="M18 7.2c3.4.8 6.3.9 6.5.2-.4-1.1-2.4-2-5.9-2.8s-5.6-1-6.5-.2c-.2.7 2.4 2 5.9 2.8z" fill="#00B8F0"></path><path id="XMLID_671_" class="st10" d="M12.1 4.4c.9-.8 3.1-.6 6.5.2s5.4 1.7 5.9 2.8c1 2-.1 14.4-.7 16.7-1.3 5.2-6.6 8.4-11.8 7.1-5.2-1.2-8.4-6.5-7.1-11.7.6-2.3 5.4-13.8 7.2-15.1z" fill="none" stroke="#45413C" stroke-linecap="round" stroke-linejoin="round" stroke-miterlimit="10"></path><path id="XMLID_667_" class="st10" d="M24.5 7.5c-.2.7-3.1.6-6.5-.2s-6-2.1-5.9-2.8" fill="none" stroke="#45413C" stroke-linecap="round" stroke-linejoin="round" stroke-miterlimit="10"></path></g><g id="XMLID_97_"><path id="XMLID_101_" class="st58" d="M7.2 21.5s1.3-2.4 4.9-1.6c3.6.9 3.9 3.7 3.9 3.7l-8.8-2.1z" fill="#E04122"></path><path id="XMLID_99_" class="st58" d="M22.1 23.8c-1.1 4.3-5.4 6.9-9.7 5.9S5.5 24.3 6.5 20c0 0 2.3 1.9 4.2 2.4 2 .5 5.2-1.5 7.1-1 2.1.4 4.3 2.4 4.3 2.4z" fill="#E04122"></path><path id="XMLID_98_" class="st57" d="M7.8 26.5c3.8-1 7-3 9.6-5.2-2-.1-4.8 1.5-6.6 1.1-2-.5-4.2-2.4-4.2-2.4-.7 2.3-.1 4.7 1.2 6.5z" fill="#FF6242"></path></g></g><g id="XMLID_93_"><ellipse id="XMLID_95_" transform="matrix(0.2405 -0.9707 0.9707 0.2405 0.4655 20.2573)" class="st16" cx="13.2" cy="9.8" rx="1.3" ry="1.3" fill="#E5F8FF"></ellipse><ellipse id="XMLID_94_" transform="matrix(0.2405 -0.9707 0.9707 0.2405 -2.8088 19.0089)" class="st16" cx="10.7" cy="11.3" rx="0.7" ry="0.7" fill="#E5F8FF"></ellipse></g></g><g id="XMLID_54_"><path id="XMLID_91_" class="st61" d="M33.3 27.7c2.2 3.5 3.9 10.1 3.9 10.1.1.3-.1.7-.4.8-2.6 1-4.4 2.3-4.6 3.2 0 .2.1.3.3.4.7.1 3 .3 6.8-.9 3.9-1.2 5.6-2.7 6.1-3.2.1-.1.1-.3 0-.5-.7-.6-2.9-.6-5.6.1-.3.1-.7-.1-.8-.4 0 0-2.4-6.3-2.7-10.5l-3 .9z" fill="#00B8F0" stroke="#45413C" stroke-linecap="round" stroke-linejoin="round" stroke-miterlimit="10"></path><g id="XMLID_58_"><g id="XMLID_63_"><path id="XMLID_90_" class="st35" d="M21.3 5.6c.3-1.2 2.3-2.1 5.7-3.2s5.5-1.4 6.5-.7C35.4 2.9 41 14 41.7 16.3c1.6 5.1-1.2 10.6-6.3 12.2-5.1 1.6-10.6-1.2-12.2-6.3-.8-2.3-2.8-14.5-1.9-16.6z" fill="#00B8F0"></path><path id="XMLID_89_" class="st36" d="M28 27.9c7.3-6.7 8.4-16.3 8.1-22.7-1.1-1.8-2-3.1-2.7-3.5-.9-.8-3.1-.4-6.5.7s-5.3 2.1-5.7 3.2c-.9 2.1 1.1 14.3 1.8 16.6 1 2.6 2.8 4.6 5 5.7z" fill="#4ACFFF"></path><path id="XMLID_88_" class="st35" d="M27.8 4.9c3.3-1.1 5.9-2.5 5.7-3.2-.9-.8-3.1-.4-6.5.7s-5.3 2.1-5.7 3.2c.2.7 3.1.4 6.5-.7z" fill="#00B8F0"></path><path id="XMLID_87_" class="st10" d="M21.3 5.6c.3-1.2 2.3-2.1 5.7-3.2s5.5-1.4 6.5-.7C35.4 2.9 41 14 41.7 16.3c1.6 5.1-1.2 10.6-6.3 12.2-5.1 1.6-10.6-1.2-12.2-6.3-.8-2.3-2.8-14.5-1.9-16.6z" fill="none" stroke="#45413C" stroke-linecap="round" stroke-linejoin="round" stroke-miterlimit="10"></path><path id="XMLID_64_" class="st10" d="M33.4 1.7c.2.7-2.3 2.1-5.7 3.2s-6.2 1.4-6.5.7" fill="none" stroke="#45413C" stroke-linecap="round" stroke-linejoin="round" stroke-miterlimit="10"></path></g><g id="XMLID_59_"><path id="XMLID_62_" class="st58" d="M26.1 22.7s-.2-2.8 3.3-3.9 5.3 1.1 5.3 1.1l-8.6 2.8z" fill="#E04122"></path><path id="XMLID_61_" class="st58" d="M40 16.8c1.4 4.2-1 8.8-5.2 10.1-4.2 1.4-8.8-1-10.1-5.2 0 0 3 .5 4.9-.2 1.9-.6 3.6-4 5.6-4.6 1.9-.6 4.8-.1 4.8-.1z" fill="#E04122"></path><path id="XMLID_60_" class="st57" d="M29.3 26.7c2.7-2.9 4.4-6.2 5.4-9.5-1.7 1-3.3 3.8-5.1 4.4-1.9.6-4.9.2-4.9.2.8 2.2 2.5 4 4.6 4.9z" fill="#FF6242"></path></g></g><g id="XMLID_55_"><ellipse id="XMLID_57_" transform="matrix(0.9522 -0.3056 0.3056 0.9522 -1.7435 8.1197)" class="st16" cx="25.1" cy="9.6" rx="1.3" ry="1.3" fill="#E5F8FF"></ellipse><ellipse id="XMLID_56_" transform="matrix(0.9522 -0.3056 0.3056 0.9522 -2.5783 7.8436)" class="st16" cx="23.8" cy="12.2" rx="0.7" ry="0.7" fill="#E5F8FF"></ellipse></g></g></g></g></svg>
