<svg
  xmlns="http://www.w3.org/2000/svg"
  width="43.516"
  height="43.516"
  viewBox="0 0 43.516 43.516"
  style="width:15px;height:15px"
  id="LaughEmoji"
>
  <g>
    <path
      d="M37.143 6.373a21.758 21.758 0 1 0 0 30.771 21.758 21.758 0 0 0 0-30.771zm-.907 29.869A20.489 20.489 0 0 1 7.273 7.274a20.489 20.489 0 0 1 28.969 28.968zm0 0"
      stroke-width="0"
      transform="translate(.001)"
    ></path>
    <path
      d="M313.061 164.092a.466.466 0 0 0 .152.025.618.618 0 0 0 .559-.544 2.606 2.606 0 0 1 4.954 0 .578.578 0 0 0 .711.511.763.763 0 0 0 .408-.892 3.686 3.686 0 0 0-7.191 0 .763.763 0 0 0 .408.9zm0 0"
      stroke-width="0"
      transform="translate(-285.98 -146.861)"
    ></path>
    <path
      d="M313.061 164.092a.466.466 0 0 0 .152.025.618.618 0 0 0 .559-.544 2.606 2.606 0 0 1 4.954 0 .578.578 0 0 0 .711.511.763.763 0 0 0 .408-.892 3.686 3.686 0 0 0-7.191 0 .763.763 0 0 0 .408.9zm0 0"
      stroke-width="0"
      transform="translate(-302.298 -146.861)"
    ></path>
    <path
      d="M158.858 335.083c8.411 13.925 16.511 0 16.511 0z"
      class="no-fill"
      stroke-linecap="round"
      stroke-linejoin="round"
      stroke-width="1.2"
      transform="translate(-145.102 -307.887)"
    ></path>
  </g>
</svg>
