<svg xmlns="http://www.w3.org/2000/svg" viewBox="0 0 32 32"><path fill="#e5303e" d="M25.56888,31.5H19.43112a1,1,0,0,1-.99746-.92875L17.5,17.5h10l-.93366,13.07125A1,1,0,0,1,25.56888,31.5Z"/><polygon fill="#e0e0e2" points="27.5 17.5 27.284 20.5 17.716 20.5 17.5 17.5 27.5 17.5"/><path fill="#2c2b2d" d="M25.56885,32h-6.1377a1.506,1.506,0,0,1-1.49609-1.39258l-.9336-13.07226A.49985.49985,0,0,1,17.5,17h10a.49985.49985,0,0,1,.49854.53516l-.9336,13.07129A1.50611,1.50611,0,0,1,25.56885,32ZM18.03711,18l.895,12.53613a.50226.50226,0,0,0,.499.46387h6.1377a.50237.50237,0,0,0,.499-.46484L26.96289,18Z"/><path fill="#e5303e" d="M12.14593,31.5H6.85407a2,2,0,0,1-1.857-1.25722l-.35406-.88516a1.99991,1.99991,0,0,1-.143-.74278V13.81051a2.00011,2.00011,0,0,1,.09415-.60641L8,2.5h3l3.40585,10.7041a2.00011,2.00011,0,0,1,.09415.60641V28.61484a1.99991,1.99991,0,0,1-.14305.74278l-.35406.88516A2,2,0,0,1,12.14593,31.5Z"/><polygon fill="#e0e0e2" points="7.045 5.5 8 2.5 11 2.5 11.955 5.5 7.045 5.5"/><path fill="#2c2b2d" d="M12.146,32H6.854a2.48819,2.48819,0,0,1-2.32129-1.57129l-.354-.88574A2.48292,2.48292,0,0,1,4,28.61523V13.81055a2.49163,2.49163,0,0,1,.11768-.75782L7.52344,2.34863A.49956.49956,0,0,1,8,2h3a.49956.49956,0,0,1,.47656.34863l3.40576,10.7041A2.49163,2.49163,0,0,1,15,13.81055V28.61523a2.47374,2.47374,0,0,1-.1792.92774l-.35351.88574A2.48819,2.48819,0,0,1,12.146,32ZM8.36572,3,5.0708,13.35547A1.50164,1.50164,0,0,0,5,13.81055V28.61523a1.49877,1.49877,0,0,0,.10693.55665l.3545.88574A1.493,1.493,0,0,0,6.854,31h5.292a1.493,1.493,0,0,0,1.39257-.94238l.354-.88574A1.4895,1.4895,0,0,0,14,28.61523V13.81055a1.50164,1.50164,0,0,0-.0708-.45508L10.63428,3Z"/><rect width="4" height="2" x="7.5" y=".5" fill="#8b8891"/><path fill="#2c2b2d" d="M11.5,3h-4A.49971.49971,0,0,1,7,2.5V.5A.49971.49971,0,0,1,7.5,0h4a.49971.49971,0,0,1,.5.5v2A.49971.49971,0,0,1,11.5,3ZM8,2h3V1H8Z"/><rect width="10" height="15" x="4.5" y="13.5" fill="#8b8891"/><path fill="#2c2b2d" d="M14.5 29H4.5a.49971.49971 0 0 1-.5-.5v-15a.49971.49971 0 0 1 .5-.5h10a.49971.49971 0 0 1 .5.5v15A.49971.49971 0 0 1 14.5 29zM5 28h9V14H5zM27.79 20.5a.50146.50146 0 0 1-.5.5H17.71a.50047.50047 0 0 1-.03-1h9.64A.50275.50275 0 0 1 27.79 20.5zM12.4 5.5a.48466.48466 0 0 1-.3.46.44729.44729 0 0 1-.2.04H7.1a.44729.44729 0 0 1-.2-.04.48466.48466 0 0 1-.3-.46A.49514.49514 0 0 1 7.1 5h4.8A.49514.49514 0 0 1 12.4 5.5z"/></svg>
