<svg xmlns="http://www.w3.org/2000/svg" viewBox="0 0 32 32" id="FastoonIcon"><rect width="13" height="14" x="9.5" y="9.5" fill="#e0e0e2"></rect><polygon fill="#fdd402" points="27.76 17.911 28.583 16.296 29.304 17.96 31.022 18.278 29.733 19.515 29.973 21.328 28.455 20.427 26.884 21.229 27.235 19.436 26.025 18.119 27.76 17.911"></polygon><path fill="#2c2b2d" d="M29.97266,21.82764a.50216.50216,0,0,1-.25489-.06983l-1.28125-.75976-1.32519.67675a.50012.50012,0,0,1-.71826-.5415l.30273-1.54541-1.03906-1.13037a.50036.50036,0,0,1,.30859-.835l1.46973-.17627.70166-1.37793a.50021.50021,0,0,1,.90478.02832l.61573,1.42041,1.45605.26953a.5.5,0,0,1,.25537.85254l-1.10644,1.062.20605,1.561a.4996.4996,0,0,1-.4956.56543Zm-1.51807-1.90039a.49946.49946,0,0,1,.25488.06982l.63282.37549-.1045-.79151a.5.5,0,0,1,.14942-.42626l.58593-.562-.75976-.14062a.50029.50029,0,0,1-.36817-.293l-.29931-.69043-.34033.66943a.50116.50116,0,0,1-.38623.26953l-.76612.0918.54981.59815a.50165.50165,0,0,1,.12256.43457l-.15381.78418.65527-.33448A.50059.50059,0,0,1,28.45459,19.92725Zm-.69482-2.01612h0Z"></path><path fill="#fdd402" d="M17.74939,20.10049,16,21.5l-1.74939-1.39951A2,2,0,0,1,13.5,18.53875v-4.0775a2,2,0,0,1,.75061-1.56174L16,11.5l1.74939,1.39951A2,2,0,0,1,18.5,14.46125v4.0775A2,2,0,0,1,17.74939,20.10049Z"></path><path fill="#2c2b2d" d="M16,22a.50145.50145,0,0,1-.3125-.10937L13.938,20.49121A2.49079,2.49079,0,0,1,13,18.53857V14.46143a2.4891,2.4891,0,0,1,.938-1.95215l1.74951-1.3999a.502.502,0,0,1,.625,0L18.062,12.50879A2.49079,2.49079,0,0,1,19,14.46143v4.07714a2.4891,2.4891,0,0,1-.938,1.95215v.00049L16.3125,21.89063A.50145.50145,0,0,1,16,22Zm0-9.85986L14.563,13.29A1.49253,1.49253,0,0,0,14,14.46143v4.07714a1.49421,1.49421,0,0,0,.563,1.17188L16,20.85986,17.437,19.71A1.49324,1.49324,0,0,0,18,18.53857V14.46143a1.49421,1.49421,0,0,0-.563-1.17188Zm1.74951,7.96045h0Z"></path><path fill="#fdd402" d="M22.5,21.9l-1.53644-1.84373A2,2,0,0,1,20.5,18.7759V14.2241a2,2,0,0,1,.46356-1.28037L22.5,11.1"></path><path fill="#2c2b2d" d="M22.50049,22.3999a.49943.49943,0,0,1-.38477-.17969L20.5791,20.37646A2.50644,2.50644,0,0,1,20,18.77588V14.22412a2.5042,2.5042,0,0,1,.5791-1.6001l1.53662-1.84423a.50027.50027,0,1,1,.76856.64062l-1.53662,1.84375a1.50162,1.50162,0,0,0-.34766.96v4.55176a1.50392,1.50392,0,0,0,.34766.96045l1.53662,1.84326a.5.5,0,0,1-.38379.82031Z"></path><path fill="#fdd402" d="M9.5,11.1l1.53644,1.84373A2,2,0,0,1,11.5,14.2241v4.5518a2,2,0,0,1-.46356,1.28037L9.5,21.9"></path><path fill="#2c2b2d" d="M9.49951,22.3999a.5.5,0,0,1-.38379-.82031l1.53662-1.84375a1.50162,1.50162,0,0,0,.34766-.96V14.22412a1.50392,1.50392,0,0,0-.34766-.96045L9.11572,11.42041a.50027.50027,0,0,1,.76856-.64062l1.53662,1.84375A2.50646,2.50646,0,0,1,12,14.22412v4.55176a2.50418,2.50418,0,0,1-.5791,1.6001L9.88428,22.22021A.49943.49943,0,0,1,9.49951,22.3999Z"></path><path fill="#f7991d" d="M16,28.5a13.6,13.6,0,0,1-6.5-5h13a13.6,13.6,0,0,1-6.5,5Z"></path><path fill="#2c2b2d" d="M16,29a.49737.49737,0,0,1-.17236-.03076,14.10342,14.10342,0,0,1-6.7378-5.18311A.5.5,0,0,1,9.5,23h13a.5.5,0,0,1,.41016.78613,14.10342,14.10342,0,0,1-6.7378,5.18311A.49737.49737,0,0,1,16,29Zm-5.49658-5A13.08547,13.08547,0,0,0,16,27.96582,13.08547,13.08547,0,0,0,21.49658,24Z"></path><path fill="#f7991d" d="M22.5,9.5H9.5a13.72,13.72,0,0,1,6.5-5,13.6,13.6,0,0,1,6.5,5Z"></path><path fill="#2c2b2d" d="M22.5,10H9.5a.49977.49977,0,0,1-.40918-.78711,14.21412,14.21412,0,0,1,6.73584-5.18164.49552.49552,0,0,1,.3457-.00049,14.10342,14.10342,0,0,1,6.7378,5.18311A.5.5,0,0,1,22.5,10ZM10.50684,9H21.49658a13.08738,13.08738,0,0,0-5.49609-3.96582A13.20654,13.20654,0,0,0,10.50684,9Z"></path><circle cx="16" cy="29.5" r="1" fill="#fdd402"></circle><path fill="#2c2b2d" d="M16,31a1.5,1.5,0,1,1,1.5-1.5A1.50164,1.50164,0,0,1,16,31Zm0-2a.5.5,0,1,0,.5.5A.50034.50034,0,0,0,16,29Z"></path><circle cx="28.5" cy="15.5" r="1" fill="#e5303e"></circle><path fill="#2c2b2d" d="M28.5 17A1.5 1.5 0 1 1 30 15.5 1.50164 1.50164 0 0 1 28.5 17zm0-2a.5.5 0 1 0 .5.5A.50034.50034 0 0 0 28.5 15zM16 32a.49971.49971 0 0 1-.5-.5v-1a.5.5 0 0 1 1 0v1A.49971.49971 0 0 1 16 32zM16 5a.49971.49971 0 0 1-.5-.5V.5a.5.5 0 0 1 1 0v4A.49971.49971 0 0 1 16 5zM23.5 24H8.5a.5.5 0 0 1 0-1h15a.5.5 0 0 1 0 1zM23.5 10H8.5a.5.5 0 0 1 0-1h15a.5.5 0 0 1 0 1z"></path><circle cx="16" cy="3.5" r="1" fill="#fdd402"></circle><path fill="#2c2b2d" d="M16 5a1.5 1.5 0 1 1 1.5-1.5A1.50164 1.50164 0 0 1 16 5zm0-2a.5.5 0 1 0 .5.5A.50034.50034 0 0 0 16 3zM28.5 15a.49971.49971 0 0 1-.5-.5V.5a.5.5 0 0 1 1 0v14A.49971.49971 0 0 1 28.5 15z"></path><circle cx="3.5" cy="20.5" r="1" fill="#e5303e"></circle><path fill="#2c2b2d" d="M3.5,22A1.5,1.5,0,1,1,5,20.5,1.50164,1.50164,0,0,1,3.5,22Zm0-2a.5.5,0,1,0,.5.5A.50034.50034,0,0,0,3.5,20Z"></path><path fill="#2c2b2d" d="M3.5,20a.49971.49971,0,0,1-.5-.5V.5a.5.5,0,0,1,1,0v19A.49971.49971,0,0,1,3.5,20Z"></path><path fill="#fdd402" d="M2.55411,22.19934a2.77341,2.77341,0,0,1,1.06651-.61712,2.78484,2.78484,0,0,0,3.44909,3.67556,2.79628,2.79628,0,1,1-4.5156-3.05844Z"></path><path fill="#2c2b2d" d="M4.47266 27.541c-.03565 0-.07178-.00049-.10743-.00147a3.3 3.3 0 0 1-2.15332-5.70508h0A3.27331 3.27331 0 0 1 3.46826 21.106a.5.5 0 0 1 .61817.65771 2.28513 2.28513 0 0 0 2.832 3.01758.49985.49985 0 0 1 .61718.6582 3.26729 3.26729 0 0 1-3.063 2.10157zM2.89648 22.564A2.3 2.3 0 0 0 4.397 26.54 2.24915 2.24915 0 0 0 6.044 25.918l.02783-.02588a3.28727 3.28727 0 0 1-3.14746-3.354l-.02784.02587zM22.5 24H9.5a.49971.49971 0 0 1-.5-.5V9.5A.49971.49971 0 0 1 9.5 9h13a.49971.49971 0 0 1 .5.5v14A.49971.49971 0 0 1 22.5 24zM10 23H22V10H10z"></path></svg>
