<svg xmlns="http://www.w3.org/2000/svg" version="1.1" x="0px" y="0px" viewBox="0 0 48 48" xml space="preserve" id="JuiceIcon"><style type="text/css"></style><symbol id="New_Symbol_14" viewBox="-6.5 -6.5 13 13"><path class="st0" d="M0-6c2.2 0 4.1 1.5 4.7 3.5C6.3-2.5 6.4 0 5 0v1c0 2.8-2.2 5-5 5s-5-2.2-5-5V0c-1.4 0-1.3-2.5.2-2.5C-4.1-4.5-2.2-6 0-6z" fill="#FFD4C3" stroke="#504B46" stroke-linecap="round" stroke-linejoin="round" stroke-miterlimit="10"></path><circle class="st1" cx="-1.6" cy="-0.1" r="0.1" fill="#FFC258"></circle><path class="st2" d="M-1.6.5c-.3 0-.6-.3-.6-.6s.2-.7.6-.7c.3 0 .6.3.6.7s-.3.6-.6.6z" fill="#4F4B45"></path><circle class="st1" cx="1.6" cy="-0.1" r="0.1" fill="#FFC258"></circle><path class="st2" d="M1.6.5C1.3.5 1 .2 1-.1s.3-.6.6-.6.6.3.6.6-.2.6-.6.6z" fill="#4F4B45"></path><circle class="st3" cx="-3" cy="-1.5" r="0.5" fill="#FABFA5"></circle><circle class="st3" cx="3" cy="-1.5" r="0.5" fill="#FABFA5"></circle><path class="st4" d="M-1.2-3c.8-.5 1.7-.5 2.5 0" fill="none" stroke="#504B46" stroke-linecap="round" stroke-linejoin="round" stroke-miterlimit="10"></path></symbol><g id="Icons"><g id="XMLID_1892_"><ellipse id="XMLID_3_" class="st5" cx="11.7" cy="43.7" rx="9" ry="1.5" fill="#45413C" opacity="0.15"></ellipse><ellipse id="XMLID_40_" class="st5" cx="37.8" cy="43.7" rx="9" ry="1.5" fill="#45413C" opacity="0.15"></ellipse><g id="XMLID_1549_"><path id="XMLID_1493_" class="st61" d="M18.2 40.6c-.3-.9-2.4-2-5.3-2.8-.4-.1-.6-.4-.5-.8l1-5.7-2.1-.4-1 5.7c-.1.4-.4.6-.8.6-2.9-.3-5.3-.1-5.9.7-.1.1-.1.4.1.5.6.5 2.6 1.8 6.9 2.6 4.3.8 6.6.3 7.4 0 .1-.1.2-.3.2-.4z" fill="#00B8F0" stroke="#45413C" stroke-linecap="round" stroke-linejoin="round" stroke-miterlimit="10"></path><g id="XMLID_1553_"><path id="XMLID_1492_" class="st35" d="M12.1 32.5c7 1.3 13.2-.8 14.1-5.8.7-3.8-.4-10.2-2.7-15-.9-1.2-3-2.4-7.1-3.1S10 8.2 8.8 9C4.9 12.7 1.6 18.3 1 22.1 0 27 5.1 31.2 12.1 32.5z" fill="#00B8F0"></path><path id="XMLID_1491_" class="st36" d="M2.7 27.8c9.1-2.2 17-8.8 21.8-13.7-.3-.8-.6-1.7-1-2.4-.9-1.2-3-2.4-7.1-3.1-4-.7-6.4-.4-7.6.4-3.9 3.7-7.2 9.3-7.8 13.1-.4 2.1.3 4.1 1.7 5.7z" fill="#4ACFFF"></path><path id="XMLID_1490_" class="st35" d="M8.8 9c-.2 1 3 2.4 7.1 3.1 4.1.7 7.5.6 7.7-.4-.9-1.2-3-2.4-7.1-3.1S10 8.2 8.8 9z" fill="#00B8F0"></path><path id="XMLID_1489_" class="st10" d="M23.5 11.7c-.2 1-3.6 1.2-7.7.4-4-.7-7.2-2.1-7-3.1" fill="none" stroke="#45413C" stroke-linecap="round" stroke-linejoin="round" stroke-miterlimit="10"></path><path id="XMLID_1488_" class="st10" d="M12.1 32.5c7 1.3 13.2-.8 14.1-5.8.7-3.8-.4-10.2-2.7-15-.9-1.2-3-2.4-7.1-3.1S10 8.2 8.8 9C4.9 12.7 1.6 18.3 1 22.1 0 27 5.1 31.2 12.1 32.5z" fill="none" stroke="#45413C" stroke-linecap="round" stroke-linejoin="round" stroke-miterlimit="10"></path><g id="XMLID_1554_"><path id="XMLID_1487_" class="st49" d="M3.9 23.7s2.1-1.8 4.6-1.3c2.5.5 3.8 2.9 3.8 2.9l-8.4-1.6z" fill="#FF8A14"></path><path id="XMLID_1486_" class="st49" d="M19 22.5c-3.5-.6-6.7 2.8-11.2 1.9-1.9-.4-3.7-1.1-5.1-1.8v.1c-.6 3.3 3.8 6.9 9.8 8 6 1.1 11.4-.7 12-4 .1-.6.2-1.3.1-2-1.7-.9-3.6-1.8-5.6-2.2z" fill="#FF8A14"></path><path id="XMLID_1485_" class="st47" d="M7.8 24.5c-1.9-.4-3.7-1.1-5.1-1.8v.1c-.3 1.5.5 3.1 2.1 4.5 2.4-.8 4.8-1.8 6.9-3-1.2.3-2.5.4-3.9.2z" fill="#FFAA54"></path></g></g><g id="XMLID_1550_"><ellipse id="XMLID_1484_" transform="matrix(0.1806 -0.9836 0.9836 0.1806 -7.151 21.2314)" class="st16" cx="9.2" cy="14.9" rx="1.4" ry="1.4" fill="#E5F8FF"></ellipse><ellipse id="XMLID_1483_" transform="matrix(0.1806 -0.9836 0.9836 0.1806 -10.8873 20.1883)" class="st16" cx="6.7" cy="16.6" rx="0.7" ry="0.7" fill="#E5F8FF"></ellipse></g></g><g id="XMLID_1495_"><path id="XMLID_1481_" class="st61" d="M45 32.2c-.6-.7-3-.9-5.9-.5-.4.1-.7-.2-.8-.5L37 25.5l-2.1.5 1.3 5.6c.1.4-.1.7-.5.8-2.8.8-4.9 2-5.1 3 0 .2.1.4.3.4.8.2 3.1.6 7.4-.3 4.2-1 6.2-2.4 6.8-2.9 0-.1 0-.3-.1-.4z" fill="#00B8F0" stroke="#45413C" stroke-linecap="round" stroke-linejoin="round" stroke-miterlimit="10"></path><g id="XMLID_1499_"><path id="XMLID_1480_" class="st35" d="M36.3 27.1c6.9-1.6 11.8-6 10.7-10.8-.8-3.7-4.3-9.2-8.4-12.8-1.3-.8-3.7-1-7.7-.1S24.8 5.5 24 6.8c-2.1 4.9-2.9 11.4-2.1 15.1 1.1 4.9 7.4 6.8 14.4 5.2z" fill="#00B8F0"></path><path id="XMLID_1479_" class="st36" d="M25.8 26.5C33.4 20.9 38 11.8 40.5 5.4c-.6-.7-1.3-1.3-1.9-1.8-1.3-.8-3.7-1-7.7-.1S24.8 5.6 24 6.9c-2.1 4.9-2.9 11.4-2.1 15.1.5 2 1.9 3.6 3.9 4.5z" fill="#4ACFFF"></path><path id="XMLID_1478_" class="st35" d="M24 6.8c.2 1 3.7 1 7.7.1s7.1-2.4 6.9-3.4c-1.3-.8-3.7-1-7.7-.1-4 1-6.1 2.2-6.9 3.4z" fill="#00B8F0"></path><path id="XMLID_1188_" class="st10" d="M38.6 3.5c.2 1-2.9 2.5-6.9 3.4-4 .9-7.5.9-7.7-.1" fill="none" stroke="#45413C" stroke-linecap="round" stroke-linejoin="round" stroke-miterlimit="10"></path><path id="XMLID_1187_" class="st10" d="M36.3 27.1c6.9-1.6 11.8-6 10.7-10.8-.8-3.7-4.3-9.2-8.4-12.8-1.3-.8-3.7-1-7.7-.1S24.8 5.5 24 6.8c-2.1 4.9-2.9 11.4-2.1 15.1 1.1 4.9 7.4 6.8 14.4 5.2z" fill="none" stroke="#45413C" stroke-linecap="round" stroke-linejoin="round" stroke-miterlimit="10"></path><g id="XMLID_1500_"><path id="XMLID_1186_" class="st49" d="M25.3 22.3s1.3-2.5 3.7-3c2.4-.5 4.7 1.1 4.7 1.1l-8.4 1.9z" fill="#FF8A14"></path><path id="XMLID_1185_" class="st49" d="M38.7 15.2c-3.5.8-5.1 5.2-9.6 6.2-1.9.4-3.8.5-5.4.4v.1c.7 3.3 6.2 4.8 12.1 3.5 6-1.3 10.2-5.1 9.5-8.4-.1-.6-.4-1.3-.6-1.9-1.9-.2-4.1-.3-6 .1z" fill="#FF8A14"></path><path id="XMLID_1184_" class="st47" d="M29.1 21.4c-1.9.4-3.8.5-5.4.4v.1c.3 1.5 1.7 2.7 3.7 3.3 1.9-1.7 3.7-3.5 5.2-5.5-1 .8-2.1 1.4-3.5 1.7z" fill="#FFAA54"></path></g></g><g id="XMLID_1496_"><ellipse id="XMLID_1183_" transform="matrix(0.9755 -0.22 0.22 0.9755 -2.0079 6.1599)" class="st16" cx="26.7" cy="12.1" rx="1.4" ry="1.4" fill="#E5F8FF"></ellipse><ellipse id="XMLID_1182_" transform="matrix(0.9755 -0.22 0.22 0.9755 -2.6112 5.8669)" class="st16" cx="25" cy="14.7" rx="0.7" ry="0.7" fill="#E5F8FF"></ellipse></g></g></g></g></svg>
