<svg xmlns="http://www.w3.org/2000/svg" version="1.1" x="0px" y="0px" viewBox="0 0 48 48" xml:space="preserve"><style type="text/css">.st0{fill:#FFD4C3;stroke:#504B46;stroke-linecap:round;stroke-linejoin:round;stroke-miterlimit:10;} .st1{fill:#FFC258;} .st2{fill:#4F4B45;} .st3{fill:#FABFA5;} .st4{fill:none;stroke:#504B46;stroke-linecap:round;stroke-linejoin:round;stroke-miterlimit:10;} .Graphic_x0020_Style{opacity:0.15;fill:#45413C;} .st5{opacity:0.15;fill:#45413C;} .st6{fill:#DEBB7E;stroke:#45413C;stroke-linecap:round;stroke-linejoin:round;stroke-miterlimit:10;} .st7{fill:#F0D5A8;} .st8{fill:#F7E5C6;} .st9{fill:#DEBB7E;} .st10{fill:none;stroke:#45413C;stroke-linecap:round;stroke-linejoin:round;stroke-miterlimit:10;} .st11{fill:#FFE500;} .st12{fill:#EBCB00;} .st13{fill:none;stroke:#EBCB00;stroke-linecap:round;stroke-linejoin:round;stroke-miterlimit:10;} .st14{fill:#FF6242;stroke:#45413C;stroke-linecap:round;stroke-linejoin:round;stroke-miterlimit:10;} .st15{fill:#FFFFFF;stroke:#45413C;stroke-linecap:round;stroke-linejoin:round;stroke-miterlimit:10;} .st16{fill:#E5F8FF;} .st17{fill:#FFFFFF;} .st18{fill:#E8F4FA;} .st19{fill:#E8F4FA;stroke:#45413C;stroke-linecap:round;stroke-linejoin:round;stroke-miterlimit:10;} .st20{fill:#FFCCDD;} .st21{fill:#FFB0CA;stroke:#45413C;stroke-linecap:round;stroke-linejoin:round;stroke-miterlimit:10;} .st22{fill:#FF87AF;stroke:#45413C;stroke-linecap:round;stroke-linejoin:round;stroke-miterlimit:10;} .st23{fill:#E5F8FF;stroke:#45413C;stroke-linecap:round;stroke-linejoin:round;stroke-miterlimit:10;} .st24{fill:#BF8256;stroke:#45413C;stroke-linecap:round;stroke-linejoin:round;stroke-miterlimit:10;} .st25{fill:#9CEB60;} .st26{fill:#6DD627;} .st27{fill:#C8FFA1;} .st28{fill:#FFFACF;} .st29{fill:#FF87AF;} .st30{fill:#FFB0CA;} .st31{fill:#FF6196;} .st32{fill:#FFCCDD;stroke:#45413C;stroke-linecap:round;stroke-linejoin:round;stroke-miterlimit:10;} .st33{fill:#FF6196;stroke:#45413C;stroke-linecap:round;stroke-linejoin:round;stroke-miterlimit:10;} .st34{fill:#FFE5EE;} .st35{fill:#00B8F0;} .st36{fill:#4ACFFF;} .st37{fill:#BF8256;} .st38{fill:#DEA47A;} .st39{fill:#915E3A;} .st40{fill:#FFF5E3;} .st41{fill:#F0F0F0;} .st42{fill:#8CA4B8;} .st43{fill:#627B8C;} .st44{fill:#C0DCEB;} .st45{fill:#FFF48C;} .st46{fill:#FFE500;stroke:#45413C;stroke-linecap:round;stroke-linejoin:round;stroke-miterlimit:10;} .st47{fill:#FFAA54;} .st48{fill:#6DD627;stroke:#45413C;stroke-linecap:round;stroke-linejoin:round;stroke-miterlimit:10;} .st49{fill:#FF8A14;} .st50{fill:#FFCC99;} .st51{fill:#EBCB00;stroke:#45413C;stroke-linecap:round;stroke-linejoin:round;stroke-miterlimit:10;} .st52{fill:#00F5BC;stroke:#45413C;stroke-linecap:round;stroke-linejoin:round;stroke-miterlimit:10;} .st53{fill:#BF8DF2;stroke:#45413C;stroke-linecap:round;stroke-linejoin:round;stroke-miterlimit:10;} .st54{fill:#FF8A14;stroke:#45413C;stroke-linecap:round;stroke-linejoin:round;stroke-miterlimit:10;} .st55{fill:#4AEFF7;stroke:#45413C;stroke-linecap:round;stroke-linejoin:round;stroke-miterlimit:10;} .st56{fill:#FFF48C;stroke:#45413C;stroke-linecap:round;stroke-linejoin:round;stroke-miterlimit:10;} .st57{fill:#FF6242;} .st58{fill:#E04122;} .st59{fill:#46B000;} .st60{fill:none;stroke:#45413C;stroke-miterlimit:10;} .st61{fill:#00B8F0;stroke:#45413C;stroke-linecap:round;stroke-linejoin:round;stroke-miterlimit:10;} .st62{fill:#FF866E;} .st63{fill:#9F5AE5;stroke:#45413C;stroke-linecap:round;stroke-linejoin:round;stroke-miterlimit:10;} .st64{fill:#E4FFD1;} .st65{fill:#FFFEF2;} .st66{fill:#B89558;} .st67{fill:none;stroke:#915E3A;stroke-linecap:round;stroke-linejoin:round;stroke-miterlimit:10;} .st68{fill:#915E3A;stroke:#45413C;stroke-linecap:round;stroke-linejoin:round;stroke-miterlimit:10;} .st69{fill:#BF8DF2;} .st70{fill:#9F5AE5;} .st71{fill:#DABFF5;} .st72{fill:none;stroke:#45413C;stroke-linejoin:round;stroke-miterlimit:10;} .st73{fill:#656769;} .st74{fill:#87898C;} .st75{fill:#E0E0E0;} .st76{fill:#BDBEC0;} .st77{fill:#656769;stroke:#45413C;stroke-linecap:round;stroke-linejoin:round;stroke-miterlimit:10;} .st78{fill:#45413C;stroke:#45413C;stroke-linecap:round;stroke-linejoin:round;stroke-miterlimit:10;} .st79{fill:#FFA694;} .st80{fill:#E04122;stroke:#45413C;stroke-linecap:round;stroke-linejoin:round;stroke-miterlimit:10;} .st81{fill:#E0E0E0;stroke:#45413C;stroke-linecap:round;stroke-linejoin:round;stroke-miterlimit:10;} .st82{fill:#F0F0F0;stroke:#45413C;stroke-linecap:round;stroke-linejoin:round;stroke-miterlimit:10;} .st83{fill:#DAEDF7;} .st84{fill:#BDBEC0;stroke:#45413C;stroke-linecap:round;stroke-linejoin:round;stroke-miterlimit:10;} .st85{fill:#87898C;stroke:#45413C;stroke-linecap:round;stroke-linejoin:round;stroke-miterlimit:10;} .st86{fill:#00DFEB;} .st87{fill:#4AEFF7;} .st88{fill:#DAEDF7;stroke:#45413C;stroke-linecap:round;stroke-linejoin:round;stroke-miterlimit:10;} .st89{fill:#FFDA8F;} .st90{fill:#FFBE3D;} .st91{fill:#FFE9BD;} .st92{fill:#DEA47A;stroke:#45413C;stroke-linecap:round;stroke-linejoin:round;stroke-miterlimit:10;} .st93{fill:#45413C;} .st94{fill:#F0C2A1;} .st95{fill:none;stroke:#45413C;stroke-width:1.0064;stroke-linecap:round;stroke-linejoin:round;stroke-miterlimit:10;} .st96{fill:#525252;} .st97{fill:#EB6D00;stroke:#45413C;stroke-linecap:round;stroke-linejoin:round;stroke-miterlimit:10;} .st98{fill:#EB6D00;} .st99{fill:#E5FEFF;} .st100{fill:#FF866E;stroke:#45413C;stroke-linecap:round;stroke-linejoin:round;stroke-miterlimit:10;} .st101{fill:#627B8C;stroke:#45413C;stroke-linecap:round;stroke-linejoin:round;stroke-miterlimit:10;} .st102{fill:#FFFCE5;stroke:#45413C;stroke-linecap:round;stroke-linejoin:round;stroke-miterlimit:10;} .st103{fill:#A6FBFF;} .st104{fill:#D9FDFF;} .st105{fill:#FFFACF;stroke:#45413C;stroke-linecap:round;stroke-linejoin:round;stroke-miterlimit:10;} .st106{fill:#B8ECFF;} .st107{fill:#FFCABF;} .st108{fill:#E5FFF9;} .st109{fill:#C8FFA1;stroke:#45413C;stroke-linecap:round;stroke-linejoin:round;stroke-miterlimit:10;} .st110{fill:#4CF4FC;} .st111{fill:#F0D5A8;stroke:#45413C;stroke-linecap:round;stroke-linejoin:round;stroke-miterlimit:10;} .st112{fill:#FFDCD1;stroke:#45413C;stroke-linecap:round;stroke-linejoin:round;stroke-miterlimit:10;} .st113{fill:#80DDFF;} .st114{fill:#46B000;stroke:#45413C;stroke-linecap:round;stroke-linejoin:round;stroke-miterlimit:10;} .st115{fill:#4ACFFF;stroke:#45413C;stroke-linecap:round;stroke-linejoin:round;stroke-miterlimit:10;} .st116{fill:#ADC4D9;} .st117{fill:#BDBEC0;stroke:#45413C;stroke-width:1.0064;stroke-linecap:round;stroke-linejoin:round;stroke-miterlimit:10;} .st118{fill:#FFFCE5;} .st119{fill:#947746;} .st120{fill:#525252;stroke:#45413C;stroke-linecap:round;stroke-linejoin:round;stroke-miterlimit:10;}</style><symbol id="New_Symbol_14" viewBox="-6.5 -6.5 13 13"><path class="st0" d="M0-6c2.2 0 4.1 1.5 4.7 3.5C6.3-2.5 6.4 0 5 0v1c0 2.8-2.2 5-5 5s-5-2.2-5-5V0c-1.4 0-1.3-2.5.2-2.5C-4.1-4.5-2.2-6 0-6z" fill="#FFD4C3" stroke="#504B46" stroke-linecap="round" stroke-linejoin="round" stroke-miterlimit="10"/><circle class="st1" cx="-1.6" cy="-0.1" r="0.1" fill="#FFC258"/><path class="st2" d="M-1.6.5c-.3 0-.6-.3-.6-.6s.2-.7.6-.7c.3 0 .6.3.6.7s-.3.6-.6.6z" fill="#4F4B45"/><circle class="st1" cx="1.6" cy="-0.1" r="0.1" fill="#FFC258"/><path class="st2" d="M1.6.5C1.3.5 1 .2 1-.1s.3-.6.6-.6.6.3.6.6-.2.6-.6.6z" fill="#4F4B45"/><circle class="st3" cx="-3" cy="-1.5" r="0.5" fill="#FABFA5"/><circle class="st3" cx="3" cy="-1.5" r="0.5" fill="#FABFA5"/><path class="st4" d="M-1.2-3c.8-.5 1.7-.5 2.5 0" fill="none" stroke="#504B46" stroke-linecap="round" stroke-linejoin="round" stroke-miterlimit="10"/></symbol><g id="Icons"><g id="XMLID_1430_"><ellipse id="XMLID_499_" class="st5" cx="24.1" cy="43.7" rx="20.2" ry="1.6" fill="#45413C" opacity="0.15"/><g id="XMLID_446_"><path id="XMLID_450_" class="st9" d="M43.2 31.1V36c0 3.9-8.6 7.1-19.1 7.1S4.9 39.9 4.9 36v-4.9h38.3z" fill="#DEBB7E"/><g id="XMLID_448_"><path id="XMLID_449_" class="st66" d="M4.9 33.3c0 3.9 8.6 7.1 19.1 7.1s19.1-3.2 19.1-7.1v-2.2H4.9v2.2z" fill="#B89558"/></g><path id="XMLID_447_" class="st10" d="M43.2 31.1V36c0 3.9-8.6 7.1-19.1 7.1S4.9 39.9 4.9 36v-4.9h38.3z" fill="none" stroke="#45413C" stroke-linecap="round" stroke-linejoin="round" stroke-miterlimit="10"/></g><g id="XMLID_444_"><path id="XMLID_445_" class="st24" d="M24.1 37.7c23.6 0 23-7.7 20.2-12-2.7-3.8-9.1-7.1-20.2-7.1s-17.5 3.2-20.2 7C1.1 30 .5 37.7 24.1 37.7z" fill="#BF8256" stroke="#45413C" stroke-linecap="round" stroke-linejoin="round" stroke-miterlimit="10"/></g><path id="XMLID_443_" class="st48" d="M43.2 23.4s3.3 1.1 3.3 4.4-4.4.5-6 1.6-.4 3.6-2.7 4.4c-3.3 1.1-5-2.1-7.1-1.6-2.7.5-1.6 3.3-6.6 3.3s-3.8-2.7-6.6-3.3c-2.1-.4-3.8 2.7-7.1 1.6-2.3-.8-1.1-3.3-2.7-4.4s-6 1.6-6-1.6S5 23.4 5 23.4h38.2z" fill="#6DD627" stroke="#45413C" stroke-linecap="round" stroke-linejoin="round" stroke-miterlimit="10"/><path id="XMLID_442_" class="st46" d="M42.7 27.3h-9.3V30c0 1.2 1 2.2 2.2 2.2h1.1v2.5c0 1.1.9 1.9 1.9 1.9 1.1 0 1.9-.9 1.9-1.9v-4.1c1.2 0 2.2-1 2.2-2.2v-1.1z" fill="#FFE500" stroke="#45413C" stroke-linecap="round" stroke-linejoin="round" stroke-miterlimit="10"/><g id="XMLID_285_"><g id="XMLID_440_"><path id="XMLID_441_" class="st24" d="M24.1 30c23.6 0 23-7.7 20.2-12-2.7-3.8-9.1-7.1-20.2-7.1S6.6 14.1 3.9 18C1.1 22.3.5 30 24.1 30z" fill="#BF8256" stroke="#45413C" stroke-linecap="round" stroke-linejoin="round" stroke-miterlimit="10"/></g><path id="XMLID_439_" class="st48" d="M43.2 15.8s3.3 1.1 3.3 4.4-4.4.5-6 1.6-.4 3.6-2.7 4.4c-3.3 1.1-5-2.1-7.1-1.6-2.7.5-1.6 3.3-6.6 3.3s-3.8-2.7-6.6-3.3c-2.1-.4-3.8 2.7-7.1 1.6-2.3-.8-1.1-3.3-2.7-4.4s-6 1.6-6-1.6S5 15.8 5 15.8h38.2z" fill="#6DD627" stroke="#45413C" stroke-linecap="round" stroke-linejoin="round" stroke-miterlimit="10"/><path id="XMLID_438_" class="st14" d="M7.1 18s-1.8 3.8 2.2 4.9c3.8 1.1 7.7-2.2 10.9-2.2s6.3 4.8 10.4 3.8c4.4-1.1 2.2-3.3 4.9-4.4s12 2.7 6.6-3.8L7.1 18z" fill="#FF6242" stroke="#45413C" stroke-linecap="round" stroke-linejoin="round" stroke-miterlimit="10"/><path id="XMLID_436_" class="st46" d="M26.8 21.3h-9.3V24c0 1.2 1 2.2 2.2 2.2h1.1v2.5c0 1.1.9 1.9 1.9 1.9s1.9-.9 1.9-1.9v-4.1c1.2 0 2.2-1 2.2-2.2v-1.1z" fill="#FFE500" stroke="#45413C" stroke-linecap="round" stroke-linejoin="round" stroke-miterlimit="10"/><g id="XMLID_427_"><g id="XMLID_432_"><path id="XMLID_435_" class="st7" d="M43.2 15.2c0 3.9-8.6 7.1-19.1 7.1S4.9 19.2 4.9 15.2C4.9 15.2 6 2.6 24 2.6s19.2 12.6 19.2 12.6z" fill="#F0D5A8"/><path id="XMLID_434_" class="st9" d="M24.1 18.5c-9 0-16.6-2.3-18.6-5.5-.4 1.3-.5 2.2-.5 2.2 0 3.9 8.6 7.1 19.1 7.1s19.1-3.2 19.1-7.1c0 0-.1-.9-.5-2.2-2 3.2-9.6 5.5-18.6 5.5z" fill="#DEBB7E"/><path id="XMLID_433_" class="st10" d="M43.2 15.2c0 3.9-8.6 7.1-19.1 7.1S4.9 19.2 4.9 15.2C4.9 15.2 6 2.6 24 2.6s19.2 12.6 19.2 12.6z" fill="none" stroke="#45413C" stroke-linecap="round" stroke-linejoin="round" stroke-miterlimit="10"/></g><path id="XMLID_431_" class="st6" d="M12.9 8.5c-.6.2-.9.8-.8 1.3.2.6.8.9 1.3.8l1.1-.3c.6-.2.9-.8.8-1.3-.2-.6-.8-.9-1.3-.8l-1.1.3z" fill="#DEBB7E" stroke="#45413C" stroke-linecap="round" stroke-linejoin="round" stroke-miterlimit="10"/><path id="XMLID_430_" class="st6" d="M19.3 11.4c-.3.5 0 1.2.5 1.4.5.3 1.2 0 1.4-.5l.5-1c.3-.5 0-1.2-.5-1.4-.5-.3-1.2 0-1.4.5l-.5 1z" fill="#DEBB7E" stroke="#45413C" stroke-linecap="round" stroke-linejoin="round" stroke-miterlimit="10"/><path id="XMLID_429_" class="st6" d="M35.3 8.5c.6.2.9.8.8 1.3-.2.6-.8.9-1.3.8l-1.1-.3c-.6-.2-.9-.8-.8-1.3.2-.6.8-.9 1.3-.8l1.1.3z" fill="#DEBB7E" stroke="#45413C" stroke-linecap="round" stroke-linejoin="round" stroke-miterlimit="10"/><path id="XMLID_428_" class="st6" d="M28.9 11.4c.3.5 0 1.2-.5 1.4-.5.3-1.2 0-1.4-.5l-.5-1c-.3-.5 0-1.2.5-1.4.5-.3 1.2 0 1.4.5l.5 1z" fill="#DEBB7E" stroke="#45413C" stroke-linecap="round" stroke-linejoin="round" stroke-miterlimit="10"/></g></g></g></g></svg>
