<svg
  style="width:15px;height:15px"
  version="1.1"
  xmlns="http://www.w3.org/2000/svg"
  width="32"
  height="32"
  viewBox="0 0 32 32"
  id="PaperRocketIcon"
>
  <title>paper-rocket</title>
  <path d="M19.435 31.744c-0.071 0.015-0.152 0.024-0.235 0.024-0.5 0-0.925-0.318-1.085-0.763l-0.003-0.008-3.84-11.307c-0.051-0.118-0.123-0.217-0.213-0.298l-0.001-0.001c-0.085-0.095-0.193-0.168-0.315-0.212l-0.005-0.002-11.285-3.84c-0.442-0.168-0.75-0.588-0.75-1.080 0-0.468 0.279-0.87 0.679-1.051l0.007-0.003 27.819-11.456c0.64-0.256 1.109 0.128 1.237 0.256s0.512 0.576 0.256 1.237l-11.456 27.819c-0.213 0.491-0.597 0.64-0.811 0.683z"></path>{' '}
</svg>
