<svg xmlns="http://www.w3.org/2000/svg" version="1.1" x="0px" y="0px" viewBox="0 0 48 48" xml:space="preserve"><style type="text/css">.st0{fill:#FFD4C3;stroke:#504B46;stroke-linecap:round;stroke-linejoin:round;stroke-miterlimit:10;} .st1{fill:#FFC258;} .st2{fill:#4F4B45;} .st3{fill:#FABFA5;} .st4{fill:none;stroke:#504B46;stroke-linecap:round;stroke-linejoin:round;stroke-miterlimit:10;} .Graphic_x0020_Style{opacity:0.15;fill:#45413C;} .st5{opacity:0.15;fill:#45413C;} .st6{fill:#DEBB7E;stroke:#45413C;stroke-linecap:round;stroke-linejoin:round;stroke-miterlimit:10;} .st7{fill:#F0D5A8;} .st8{fill:#F7E5C6;} .st9{fill:#DEBB7E;} .st10{fill:none;stroke:#45413C;stroke-linecap:round;stroke-linejoin:round;stroke-miterlimit:10;} .st11{fill:#FFE500;} .st12{fill:#EBCB00;} .st13{fill:none;stroke:#EBCB00;stroke-linecap:round;stroke-linejoin:round;stroke-miterlimit:10;} .st14{fill:#FF6242;stroke:#45413C;stroke-linecap:round;stroke-linejoin:round;stroke-miterlimit:10;} .st15{fill:#FFFFFF;stroke:#45413C;stroke-linecap:round;stroke-linejoin:round;stroke-miterlimit:10;} .st16{fill:#E5F8FF;} .st17{fill:#FFFFFF;} .st18{fill:#E8F4FA;} .st19{fill:#E8F4FA;stroke:#45413C;stroke-linecap:round;stroke-linejoin:round;stroke-miterlimit:10;} .st20{fill:#FFCCDD;} .st21{fill:#FFB0CA;stroke:#45413C;stroke-linecap:round;stroke-linejoin:round;stroke-miterlimit:10;} .st22{fill:#FF87AF;stroke:#45413C;stroke-linecap:round;stroke-linejoin:round;stroke-miterlimit:10;} .st23{fill:#E5F8FF;stroke:#45413C;stroke-linecap:round;stroke-linejoin:round;stroke-miterlimit:10;} .st24{fill:#BF8256;stroke:#45413C;stroke-linecap:round;stroke-linejoin:round;stroke-miterlimit:10;} .st25{fill:#9CEB60;} .st26{fill:#6DD627;} .st27{fill:#C8FFA1;} .st28{fill:#FFFACF;} .st29{fill:#FF87AF;} .st30{fill:#FFB0CA;} .st31{fill:#FF6196;} .st32{fill:#FFCCDD;stroke:#45413C;stroke-linecap:round;stroke-linejoin:round;stroke-miterlimit:10;} .st33{fill:#FF6196;stroke:#45413C;stroke-linecap:round;stroke-linejoin:round;stroke-miterlimit:10;} .st34{fill:#FFE5EE;} .st35{fill:#00B8F0;} .st36{fill:#4ACFFF;} .st37{fill:#BF8256;} .st38{fill:#DEA47A;} .st39{fill:#915E3A;} .st40{fill:#FFF5E3;} .st41{fill:#F0F0F0;} .st42{fill:#8CA4B8;} .st43{fill:#627B8C;} .st44{fill:#C0DCEB;} .st45{fill:#FFF48C;} .st46{fill:#FFE500;stroke:#45413C;stroke-linecap:round;stroke-linejoin:round;stroke-miterlimit:10;} .st47{fill:#FFAA54;} .st48{fill:#6DD627;stroke:#45413C;stroke-linecap:round;stroke-linejoin:round;stroke-miterlimit:10;} .st49{fill:#FF8A14;} .st50{fill:#FFCC99;} .st51{fill:#EBCB00;stroke:#45413C;stroke-linecap:round;stroke-linejoin:round;stroke-miterlimit:10;} .st52{fill:#00F5BC;stroke:#45413C;stroke-linecap:round;stroke-linejoin:round;stroke-miterlimit:10;} .st53{fill:#BF8DF2;stroke:#45413C;stroke-linecap:round;stroke-linejoin:round;stroke-miterlimit:10;} .st54{fill:#FF8A14;stroke:#45413C;stroke-linecap:round;stroke-linejoin:round;stroke-miterlimit:10;} .st55{fill:#4AEFF7;stroke:#45413C;stroke-linecap:round;stroke-linejoin:round;stroke-miterlimit:10;} .st56{fill:#FFF48C;stroke:#45413C;stroke-linecap:round;stroke-linejoin:round;stroke-miterlimit:10;} .st57{fill:#FF6242;} .st58{fill:#E04122;} .st59{fill:#46B000;} .st60{fill:none;stroke:#45413C;stroke-miterlimit:10;} .st61{fill:#00B8F0;stroke:#45413C;stroke-linecap:round;stroke-linejoin:round;stroke-miterlimit:10;} .st62{fill:#FF866E;} .st63{fill:#9F5AE5;stroke:#45413C;stroke-linecap:round;stroke-linejoin:round;stroke-miterlimit:10;} .st64{fill:#E4FFD1;} .st65{fill:#FFFEF2;} .st66{fill:#B89558;} .st67{fill:none;stroke:#915E3A;stroke-linecap:round;stroke-linejoin:round;stroke-miterlimit:10;} .st68{fill:#915E3A;stroke:#45413C;stroke-linecap:round;stroke-linejoin:round;stroke-miterlimit:10;} .st69{fill:#BF8DF2;} .st70{fill:#9F5AE5;} .st71{fill:#DABFF5;} .st72{fill:none;stroke:#45413C;stroke-linejoin:round;stroke-miterlimit:10;} .st73{fill:#656769;} .st74{fill:#87898C;} .st75{fill:#E0E0E0;} .st76{fill:#BDBEC0;} .st77{fill:#656769;stroke:#45413C;stroke-linecap:round;stroke-linejoin:round;stroke-miterlimit:10;} .st78{fill:#45413C;stroke:#45413C;stroke-linecap:round;stroke-linejoin:round;stroke-miterlimit:10;} .st79{fill:#FFA694;} .st80{fill:#E04122;stroke:#45413C;stroke-linecap:round;stroke-linejoin:round;stroke-miterlimit:10;} .st81{fill:#E0E0E0;stroke:#45413C;stroke-linecap:round;stroke-linejoin:round;stroke-miterlimit:10;} .st82{fill:#F0F0F0;stroke:#45413C;stroke-linecap:round;stroke-linejoin:round;stroke-miterlimit:10;} .st83{fill:#DAEDF7;} .st84{fill:#BDBEC0;stroke:#45413C;stroke-linecap:round;stroke-linejoin:round;stroke-miterlimit:10;} .st85{fill:#87898C;stroke:#45413C;stroke-linecap:round;stroke-linejoin:round;stroke-miterlimit:10;} .st86{fill:#00DFEB;} .st87{fill:#4AEFF7;} .st88{fill:#DAEDF7;stroke:#45413C;stroke-linecap:round;stroke-linejoin:round;stroke-miterlimit:10;} .st89{fill:#FFDA8F;} .st90{fill:#FFBE3D;} .st91{fill:#FFE9BD;} .st92{fill:#DEA47A;stroke:#45413C;stroke-linecap:round;stroke-linejoin:round;stroke-miterlimit:10;} .st93{fill:#45413C;} .st94{fill:#F0C2A1;} .st95{fill:none;stroke:#45413C;stroke-width:1.0064;stroke-linecap:round;stroke-linejoin:round;stroke-miterlimit:10;} .st96{fill:#525252;} .st97{fill:#EB6D00;stroke:#45413C;stroke-linecap:round;stroke-linejoin:round;stroke-miterlimit:10;} .st98{fill:#EB6D00;} .st99{fill:#E5FEFF;} .st100{fill:#FF866E;stroke:#45413C;stroke-linecap:round;stroke-linejoin:round;stroke-miterlimit:10;} .st101{fill:#627B8C;stroke:#45413C;stroke-linecap:round;stroke-linejoin:round;stroke-miterlimit:10;} .st102{fill:#FFFCE5;stroke:#45413C;stroke-linecap:round;stroke-linejoin:round;stroke-miterlimit:10;} .st103{fill:#A6FBFF;} .st104{fill:#D9FDFF;} .st105{fill:#FFFACF;stroke:#45413C;stroke-linecap:round;stroke-linejoin:round;stroke-miterlimit:10;} .st106{fill:#B8ECFF;} .st107{fill:#FFCABF;} .st108{fill:#E5FFF9;} .st109{fill:#C8FFA1;stroke:#45413C;stroke-linecap:round;stroke-linejoin:round;stroke-miterlimit:10;} .st110{fill:#4CF4FC;} .st111{fill:#F0D5A8;stroke:#45413C;stroke-linecap:round;stroke-linejoin:round;stroke-miterlimit:10;} .st112{fill:#FFDCD1;stroke:#45413C;stroke-linecap:round;stroke-linejoin:round;stroke-miterlimit:10;} .st113{fill:#80DDFF;} .st114{fill:#46B000;stroke:#45413C;stroke-linecap:round;stroke-linejoin:round;stroke-miterlimit:10;} .st115{fill:#4ACFFF;stroke:#45413C;stroke-linecap:round;stroke-linejoin:round;stroke-miterlimit:10;} .st116{fill:#ADC4D9;} .st117{fill:#BDBEC0;stroke:#45413C;stroke-width:1.0064;stroke-linecap:round;stroke-linejoin:round;stroke-miterlimit:10;} .st118{fill:#FFFCE5;} .st119{fill:#947746;} .st120{fill:#525252;stroke:#45413C;stroke-linecap:round;stroke-linejoin:round;stroke-miterlimit:10;}</style><symbol id="New_Symbol_14" viewBox="-6.5 -6.5 13 13"><path class="st0" d="M0-6c2.2 0 4.1 1.5 4.7 3.5C6.3-2.5 6.4 0 5 0v1c0 2.8-2.2 5-5 5s-5-2.2-5-5V0c-1.4 0-1.3-2.5.2-2.5C-4.1-4.5-2.2-6 0-6z" fill="#FFD4C3" stroke="#504B46" stroke-linecap="round" stroke-linejoin="round" stroke-miterlimit="10"/><circle class="st1" cx="-1.6" cy="-0.1" r="0.1" fill="#FFC258"/><path class="st2" d="M-1.6.5c-.3 0-.6-.3-.6-.6s.2-.7.6-.7c.3 0 .6.3.6.7s-.3.6-.6.6z" fill="#4F4B45"/><circle class="st1" cx="1.6" cy="-0.1" r="0.1" fill="#FFC258"/><path class="st2" d="M1.6.5C1.3.5 1 .2 1-.1s.3-.6.6-.6.6.3.6.6-.2.6-.6.6z" fill="#4F4B45"/><circle class="st3" cx="-3" cy="-1.5" r="0.5" fill="#FABFA5"/><circle class="st3" cx="3" cy="-1.5" r="0.5" fill="#FABFA5"/><path class="st4" d="M-1.2-3c.8-.5 1.7-.5 2.5 0" fill="none" stroke="#504B46" stroke-linecap="round" stroke-linejoin="round" stroke-miterlimit="10"/></symbol><g id="Icons"><g id="XMLID_1169_"><ellipse id="XMLID_243_" class="st5" cx="24" cy="45.5" rx="10" ry="1.5" fill="#45413C" opacity="0.15"/><g id="XMLID_137_"><path id="XMLID_677_" class="st48" d="M32.2 37.6s-2.4 5.5-3.7 6.5c-1.2 1-3 .8-4-.5-1-1.2-.8-3 .5-4 1.3-.9 7.2-2 7.2-2z" fill="#6DD627" stroke="#45413C" stroke-linecap="round" stroke-linejoin="round" stroke-miterlimit="10"/><path id="XMLID_676_" class="st48" d="M15.8 36s2.4 5.5 3.7 6.5c1.2 1 3 .8 4-.5 1-1.2.8-3-.5-4s-7.2-2-7.2-2z" fill="#6DD627" stroke="#45413C" stroke-linecap="round" stroke-linejoin="round" stroke-miterlimit="10"/><path id="XMLID_659_" class="st48" fill="#6DD627" stroke="#45413C" stroke-linecap="round" stroke-linejoin="round" stroke-miterlimit="10" d="M22.8 28.5h2.4v17h-2.4z"/><g id="XMLID_144_"><g id="XMLID_620_"><path id="XMLID_647_" class="st11" d="M22.9 8.3c.6 1.4-.1 3.1-1.5 3.7-1.4.6-3.1-.1-3.7-1.5-.6-1.4-.3-8.2-.3-8.2s4.9 4.6 5.5 6z" fill="#FFE500"/><path id="XMLID_644_" class="st11" d="M16.1 12.1c1.4.6 2.1 2.3 1.5 3.7-.6 1.4-2.3 2.1-3.7 1.5-1.4-.6-6-5.6-6-5.6s6.8-.2 8.2.4z" fill="#FFE500"/><path id="XMLID_643_" class="st11" d="M13.9 19.5c1.4-.6 3.1.1 3.7 1.5.6 1.4-.1 3.1-1.5 3.7-1.4.6-8.2.3-8.2.3s4.6-4.9 6-5.5z" fill="#FFE500"/><path id="XMLID_642_" class="st11" d="M17.7 26.3c.6-1.4 2.3-2.1 3.7-1.5 1.4.6 2.1 2.3 1.5 3.7-.6 1.4-5.6 6-5.6 6s-.2-6.8.4-8.2z" fill="#FFE500"/><path id="XMLID_641_" class="st11" d="M25.1 28.5c-.6-1.4.1-3.1 1.5-3.7 1.4-.6 3.1.1 3.7 1.5.6 1.4.3 8.2.3 8.2s-4.9-4.6-5.5-6z" fill="#FFE500"/><path id="XMLID_640_" class="st11" d="M31.9 24.7c-1.4-.6-2.1-2.3-1.5-3.7.6-1.4 2.3-2.1 3.7-1.5 1.4.6 6 5.6 6 5.6s-6.8.2-8.2-.4z" fill="#FFE500"/><path id="XMLID_639_" class="st11" d="M34.1 17.3c-1.4.6-3.1-.1-3.7-1.5s.1-3.1 1.5-3.7c1.4-.6 8.2-.3 8.2-.3s-4.6 4.9-6 5.5z" fill="#FFE500"/><path id="XMLID_638_" class="st11" d="M30.3 10.5c-.6 1.4-2.3 2.1-3.7 1.5-1.4-.6-2.1-2.3-1.5-3.7.6-1.4 5.6-6 5.6-6s.2 6.8-.4 8.2z" fill="#FFE500"/><g id="XMLID_629_"><path id="XMLID_637_" class="st12" d="M21.4 12c1.4-.6 2.1-2.3 1.5-3.7-2 .2-3.8 1-5.2 2.2.6 1.5 2.2 2.1 3.7 1.5z" fill="#EBCB00"/><path id="XMLID_636_" class="st12" d="M17.6 15.8c.6-1.4-.1-3.1-1.5-3.7-1.2 1.5-2 3.3-2.2 5.2 1.5.6 3.1-.1 3.7-1.5z" fill="#EBCB00"/><path id="XMLID_635_" class="st12" d="M17.6 21c-.6-1.4-2.3-2.1-3.7-1.5.2 2 1 3.8 2.2 5.2 1.5-.6 2.1-2.2 1.5-3.7z" fill="#EBCB00"/><path id="XMLID_634_" class="st12" d="M21.4 24.7c-1.4-.6-3.1.1-3.7 1.5 1.5 1.2 3.3 2 5.2 2.2.6-1.4-.1-3.1-1.5-3.7z" fill="#EBCB00"/><path id="XMLID_633_" class="st12" d="M26.6 24.7c-1.4.6-2.1 2.3-1.5 3.7 2-.2 3.8-1 5.2-2.2-.6-1.4-2.2-2-3.7-1.5z" fill="#EBCB00"/><path id="XMLID_632_" class="st12" d="M30.4 21c-.6 1.4.1 3.1 1.5 3.7 1.2-1.5 2-3.3 2.2-5.2-1.5-.6-3.1.1-3.7 1.5z" fill="#EBCB00"/><path id="XMLID_631_" class="st12" d="M30.4 15.8c.6 1.4 2.3 2.1 3.7 1.5-.2-2-1-3.8-2.2-5.2-1.5.6-2.1 2.2-1.5 3.7z" fill="#EBCB00"/><path id="XMLID_630_" class="st12" d="M26.6 12c1.4.6 3.1-.1 3.7-1.5-1.5-1.2-3.3-2-5.2-2.2-.6 1.5.1 3.1 1.5 3.7z" fill="#EBCB00"/></g><path id="XMLID_628_" class="st10" d="M22.9 8.3c.6 1.4-.1 3.1-1.5 3.7-1.4.6-3.1-.1-3.7-1.5-.6-1.4-.3-8.2-.3-8.2s4.9 4.6 5.5 6z" fill="none" stroke="#45413C" stroke-linecap="round" stroke-linejoin="round" stroke-miterlimit="10"/><path id="XMLID_627_" class="st10" d="M16.1 12.1c1.4.6 2.1 2.3 1.5 3.7-.6 1.4-2.3 2.1-3.7 1.5-1.4-.6-6-5.6-6-5.6s6.8-.2 8.2.4z" fill="none" stroke="#45413C" stroke-linecap="round" stroke-linejoin="round" stroke-miterlimit="10"/><path id="XMLID_626_" class="st10" d="M13.9 19.5c1.4-.6 3.1.1 3.7 1.5.6 1.4-.1 3.1-1.5 3.7-1.4.6-8.2.3-8.2.3s4.6-4.9 6-5.5z" fill="none" stroke="#45413C" stroke-linecap="round" stroke-linejoin="round" stroke-miterlimit="10"/><path id="XMLID_625_" class="st10" d="M17.7 26.3c.6-1.4 2.3-2.1 3.7-1.5 1.4.6 2.1 2.3 1.5 3.7-.6 1.4-5.6 6-5.6 6s-.2-6.8.4-8.2z" fill="none" stroke="#45413C" stroke-linecap="round" stroke-linejoin="round" stroke-miterlimit="10"/><path id="XMLID_624_" class="st10" d="M25.1 28.5c-.6-1.4.1-3.1 1.5-3.7 1.4-.6 3.1.1 3.7 1.5.6 1.4.3 8.2.3 8.2s-4.9-4.6-5.5-6z" fill="none" stroke="#45413C" stroke-linecap="round" stroke-linejoin="round" stroke-miterlimit="10"/><path id="XMLID_623_" class="st10" d="M31.9 24.7c-1.4-.6-2.1-2.3-1.5-3.7.6-1.4 2.3-2.1 3.7-1.5 1.4.6 6 5.6 6 5.6s-6.8.2-8.2-.4z" fill="none" stroke="#45413C" stroke-linecap="round" stroke-linejoin="round" stroke-miterlimit="10"/><path id="XMLID_622_" class="st10" d="M34.1 17.3c-1.4.6-3.1-.1-3.7-1.5s.1-3.1 1.5-3.7c1.4-.6 8.2-.3 8.2-.3s-4.6 4.9-6 5.5z" fill="none" stroke="#45413C" stroke-linecap="round" stroke-linejoin="round" stroke-miterlimit="10"/><path id="XMLID_621_" class="st10" d="M30.3 10.5c-.6 1.4-2.3 2.1-3.7 1.5-1.4-.6-2.1-2.3-1.5-3.7.6-1.4 5.6-6 5.6-6s.2 6.8-.4 8.2z" fill="none" stroke="#45413C" stroke-linecap="round" stroke-linejoin="round" stroke-miterlimit="10"/></g><g id="XMLID_145_"><path id="XMLID_619_" class="st11" d="M26.8 8.7c0 1.6-1.3 2.8-2.8 2.8s-2.8-1.3-2.8-2.8S24 1 24 1s2.8 6.1 2.8 7.7z" fill="#FFE500"/><path id="XMLID_618_" class="st11" d="M19.1 9.5c1.1 1.1 1.1 2.9 0 4s-2.9 1.1-4 0-3.4-7.4-3.4-7.4 6.3 2.3 7.4 3.4z" fill="#FFE500"/><path id="XMLID_617_" class="st11" d="M14.3 15.6c1.6 0 2.8 1.3 2.8 2.8 0 1.6-1.3 2.8-2.8 2.8s-7.7-2.8-7.7-2.8 6.1-2.8 7.7-2.8z" fill="#FFE500"/><path id="XMLID_199_" class="st11" d="M15.1 23.3c1.1-1.1 2.9-1.1 4 0s1.1 2.9 0 4-7.4 3.4-7.4 3.4 2.3-6.3 3.4-7.4z" fill="#FFE500"/><path id="XMLID_198_" class="st11" d="M21.2 28.1c0-1.6 1.3-2.8 2.8-2.8s2.8 1.3 2.8 2.8-2.8 7.7-2.8 7.7-2.8-6.1-2.8-7.7z" fill="#FFE500"/><path id="XMLID_197_" class="st11" d="M28.9 27.3c-1.1-1.1-1.1-2.9 0-4s2.9-1.1 4 0 3.4 7.4 3.4 7.4-6.3-2.3-7.4-3.4z" fill="#FFE500"/><path id="XMLID_196_" class="st11" d="M33.7 21.2c-1.6 0-2.8-1.3-2.8-2.8 0-1.6 1.3-2.8 2.8-2.8s7.7 2.8 7.7 2.8-6.1 2.8-7.7 2.8z" fill="#FFE500"/><path id="XMLID_195_" class="st11" d="M32.9 13.5c-1.1 1.1-2.9 1.1-4 0s-1.1-2.9 0-4 7.4-3.4 7.4-3.4-2.3 6.3-3.4 7.4z" fill="#FFE500"/><path id="XMLID_194_" class="st12" d="M24 11.5c1.6 0 2.8-1.3 2.8-2.8-.9-.3-1.8-.4-2.8-.4-1 0-1.9.1-2.8.4 0 1.6 1.2 2.8 2.8 2.8z" fill="#EBCB00"/><path id="XMLID_193_" class="st12" d="M19.1 13.5c1.1-1.1 1.1-2.9 0-4-1.7.9-3.1 2.3-4 4 1.1 1.1 2.9 1.1 4 0z" fill="#EBCB00"/><path id="XMLID_192_" class="st12" d="M17.1 18.4c0-1.6-1.3-2.8-2.8-2.8-.3.9-.4 1.8-.4 2.8 0 1 .1 1.9.4 2.8 1.6 0 2.8-1.2 2.8-2.8z" fill="#EBCB00"/><path id="XMLID_191_" class="st12" d="M19.1 23.3c-1.1-1.1-2.9-1.1-4 0 .9 1.7 2.3 3.1 4 4 1.1-1.1 1.1-2.9 0-4z" fill="#EBCB00"/><path id="XMLID_190_" class="st12" d="M24 25.3c-1.6 0-2.8 1.3-2.8 2.8.9.3 1.8.4 2.8.4 1 0 1.9-.1 2.8-.4 0-1.6-1.2-2.8-2.8-2.8z" fill="#EBCB00"/><path id="XMLID_189_" class="st12" d="M32.9 23.3c-1.1-1.1-2.9-1.1-4 0s-1.1 2.9 0 4c1.6-1 3-2.4 4-4z" fill="#EBCB00"/><path id="XMLID_188_" class="st12" d="M30.9 18.4c0 1.6 1.3 2.8 2.8 2.8.3-.9.4-1.8.4-2.8 0-1-.1-1.9-.4-2.8-1.6 0-2.8 1.2-2.8 2.8z" fill="#EBCB00"/><path id="XMLID_185_" class="st12" d="M28.9 13.5c1.1 1.1 2.9 1.1 4 0-.9-1.7-2.3-3.1-4-4-1.1 1.1-1.1 2.9 0 4z" fill="#EBCB00"/><path id="XMLID_183_" class="st10" d="M26.8 8.7c0 1.6-1.3 2.8-2.8 2.8s-2.8-1.3-2.8-2.8S24 1 24 1s2.8 6.1 2.8 7.7z" fill="none" stroke="#45413C" stroke-linecap="round" stroke-linejoin="round" stroke-miterlimit="10"/><path id="XMLID_182_" class="st10" d="M19.1 9.5c1.1 1.1 1.1 2.9 0 4s-2.9 1.1-4 0-3.4-7.4-3.4-7.4 6.3 2.3 7.4 3.4z" fill="none" stroke="#45413C" stroke-linecap="round" stroke-linejoin="round" stroke-miterlimit="10"/><path id="XMLID_181_" class="st10" d="M14.3 15.6c1.6 0 2.8 1.3 2.8 2.8 0 1.6-1.3 2.8-2.8 2.8s-7.7-2.8-7.7-2.8 6.1-2.8 7.7-2.8z" fill="none" stroke="#45413C" stroke-linecap="round" stroke-linejoin="round" stroke-miterlimit="10"/><path id="XMLID_180_" class="st10" d="M15.1 23.3c1.1-1.1 2.9-1.1 4 0s1.1 2.9 0 4-7.4 3.4-7.4 3.4 2.3-6.3 3.4-7.4z" fill="none" stroke="#45413C" stroke-linecap="round" stroke-linejoin="round" stroke-miterlimit="10"/><path id="XMLID_179_" class="st10" d="M21.2 28.1c0-1.6 1.3-2.8 2.8-2.8s2.8 1.3 2.8 2.8-2.8 7.7-2.8 7.7-2.8-6.1-2.8-7.7z" fill="none" stroke="#45413C" stroke-linecap="round" stroke-linejoin="round" stroke-miterlimit="10"/><path id="XMLID_178_" class="st10" d="M28.9 27.3c-1.1-1.1-1.1-2.9 0-4s2.9-1.1 4 0 3.4 7.4 3.4 7.4-6.3-2.3-7.4-3.4z" fill="none" stroke="#45413C" stroke-linecap="round" stroke-linejoin="round" stroke-miterlimit="10"/><path id="XMLID_147_" class="st10" d="M33.7 21.2c-1.6 0-2.8-1.3-2.8-2.8 0-1.6 1.3-2.8 2.8-2.8s7.7 2.8 7.7 2.8-6.1 2.8-7.7 2.8z" fill="none" stroke="#45413C" stroke-linecap="round" stroke-linejoin="round" stroke-miterlimit="10"/><path id="XMLID_146_" class="st10" d="M32.9 13.5c-1.1 1.1-2.9 1.1-4 0s-1.1-2.9 0-4 7.4-3.4 7.4-3.4-2.3 6.3-3.4 7.4z" fill="none" stroke="#45413C" stroke-linecap="round" stroke-linejoin="round" stroke-miterlimit="10"/></g></g><g id="XMLID_138_"><circle id="XMLID_143_" class="st47" cx="24" cy="18.4" r="8.5" fill="#FFAA54"/><path id="XMLID_140_" class="st49" d="M24 9.9c-4.7 0-8.5 3.8-8.5 8.5s3.8 8.5 8.5 8.5 8.5-3.8 8.5-8.5-3.8-8.5-8.5-8.5zm0 15.8c-4.2 0-7.7-3.4-7.7-7.7s3.4-7.7 7.7-7.7 7.7 3.4 7.7 7.7-3.5 7.7-7.7 7.7z" fill="#FF8A14"/><circle id="XMLID_139_" class="st10" cx="24" cy="18.4" r="8.5" fill="none" stroke="#45413C" stroke-linecap="round" stroke-linejoin="round" stroke-miterlimit="10"/></g></g></g></g></svg>
