<svg
  style="width:15px;height:15px"
  version="1.1"
  xmlns="http://www.w3.org/2000/svg"
  width="32"
  height="32"
  viewBox="0 0 32 32"
  id="FilterIcon"
>
  <title>filter</title>
  <path d="M12.565 31.573c-1.013 0-1.835-0.821-1.835-1.835v0-12.459l-9.131-9.237c-0.325-0.33-0.527-0.781-0.533-1.279v-4.908c0-1.045 0.832-1.856 1.835-1.856h25.301c1.024 0 1.856 0.811 1.856 1.835v4.907c0 0.491-0.213 0.96-0.533 1.28l-9.131 9.259v9.173c0 0.661-0.363 1.28-0.96 1.6l-5.973 3.285c-0.257 0.148-0.564 0.235-0.892 0.235-0.001 0-0.003 0-0.004 0h0zM4.757 5.973l9.109 9.259c0.341 0.341 0.533 0.811 0.533 1.28v10.112l2.304-1.28v-8.832c0-0.469 0.192-0.939 0.533-1.28l9.109-9.237v-2.325h-21.589z"></path>{' '}
</svg>
