<svg xmlns="http://www.w3.org/2000/svg" version="1.1" x="0px" y="0px" viewBox="0 0 48 48" xml space="preserve" id="EarIcon"><style type="text/css"></style><symbol id="New_Symbol_14" viewBox="-6.5 -6.5 13 13"><path class="st0" d="M0-6c2.2 0 4.1 1.5 4.7 3.5C6.3-2.5 6.4 0 5 0v1c0 2.8-2.2 5-5 5s-5-2.2-5-5V0c-1.4 0-1.3-2.5.2-2.5C-4.1-4.5-2.2-6 0-6z" fill="#FFD4C3" stroke="#504B46" stroke-linecap="round" stroke-linejoin="round" stroke-miterlimit="10"></path><circle class="st1" cx="-1.6" cy="-0.1" r="0.1" fill="#FFC258"></circle><path class="st2" d="M-1.6.5c-.3 0-.6-.3-.6-.6s.2-.7.6-.7c.3 0 .6.3.6.7s-.3.6-.6.6z" fill="#4F4B45"></path><circle class="st1" cx="1.6" cy="-0.1" r="0.1" fill="#FFC258"></circle><path class="st2" d="M1.6.5C1.3.5 1 .2 1-.1s.3-.6.6-.6.6.3.6.6-.2.6-.6.6z" fill="#4F4B45"></path><circle class="st3" cx="-3" cy="-1.5" r="0.5" fill="#FABFA5"></circle><circle class="st3" cx="3" cy="-1.5" r="0.5" fill="#FABFA5"></circle><path class="st4" d="M-1.2-3c.8-.5 1.7-.5 2.5 0" fill="none" stroke="#504B46" stroke-linecap="round" stroke-linejoin="round" stroke-miterlimit="10"></path></symbol><g id="Icons"><g id="XMLID_1930_"><path id="XMLID_1687_" class="st89" d="M20.1 38c-2.7 0-5-2.2-5-5V12.2c0-5.8 4.7-10.6 10.6-10.6 6.7 0 12.1 5.4 12.1 12.1 0 6.3-3 12.2-8.1 15.8-1.7 1.2-3.1 2.9-4 4.8-1 2.3-3.2 3.7-5.6 3.7z" fill="#FFDA8F"></path><g id="XMLID_1563_"><path id="XMLID_1686_" class="st90" d="M25.9 10c3.8 0 6.9 2.7 7.6 6.3.1-.7.1-1.4.1-2.1 0-4.3-3.5-7.7-7.7-7.7-3.6 0-6.6 2.9-6.6 6.6v3.6c0-3.8 2.9-6.7 6.6-6.7z" fill="#FFBE3D"></path></g><ellipse id="XMLID_1562_" class="st5" cx="24" cy="44.6" rx="13.7" ry="1.8" fill="#45413C" opacity="0.15"></ellipse><path id="XMLID_1561_" class="st91" d="M25.7 1.7c-5.8 0-10.6 4.7-10.6 10.6v3.6c0-5.8 4.7-10.6 10.6-10.6 6.1 0 11.2 4.6 11.9 10.5.1-.7.1-1.4.1-2.1 0-6.6-5.3-12-12-12z" fill="#FFE9BD"></path><path id="XMLID_1560_" class="st10" d="M20.1 38c-2.7 0-5-2.2-5-5V12.2c0-5.8 4.7-10.6 10.6-10.6 6.7 0 12.1 5.4 12.1 12.1 0 6.3-3 12.2-8.1 15.8-1.7 1.2-3.1 2.9-4 4.8-1 2.3-3.2 3.7-5.6 3.7z" fill="none" stroke="#45413C" stroke-linecap="round" stroke-linejoin="round" stroke-miterlimit="10"></path><path id="XMLID_1559_" class="st90" d="M21.7 18.3c-1.3 0-2.4 1.1-2.4 2.4V23c0-1.3 1.1-2.4 2.4-2.4s2.3 1 2.3 2.4v-2.2c0-1.4-1-2.5-2.3-2.5z" fill="#FFBE3D"></path><path id="XMLID_1558_" class="st10" d="M21.7 25.5c-1.3 0-2.4-1.1-2.4-2.4v-2.4c0-1.3 1.1-2.4 2.4-2.4 1.3 0 2.4 1.1 2.4 2.4v2.4c-.1 1.3-1.1 2.4-2.4 2.4z" fill="none" stroke="#45413C" stroke-linecap="round" stroke-linejoin="round" stroke-miterlimit="10"></path><path id="XMLID_1516_" class="st10" d="M19.3 20.7V13c0-3.6 2.9-6.6 6.6-6.6 4.3 0 7.7 3.5 7.7 7.7 0 2.4-.5 4.7-1.4 6.9l-.4.9" fill="none" stroke="#45413C" stroke-linecap="round" stroke-linejoin="round" stroke-miterlimit="10"></path><path id="XMLID_1515_" class="st10" d="M24.6 13c2.5 0 4.2 1 4.2 4.8" fill="none" stroke="#45413C" stroke-linecap="round" stroke-linejoin="round" stroke-miterlimit="10"></path></g></g></svg>
