<svg xmlns="http://www.w3.org/2000/svg" id="CassetteIcon" viewBox="0 0 32 32"><path fill="#e37a49" d="M28.5 7h-25c-.6 0-1 .4-1 1v16c0 .6.4 1 1 1h25c.6 0 1-.4 1-1V8c0-.6-.4-1-1-1zM11 19c-.8 0-1.5-.7-1.5-1.5S10.2 16 11 16s1.5.7 1.5 1.5S11.8 19 11 19zm10 0c-.8 0-1.5-.7-1.5-1.5S20.2 16 21 16s1.5.7 1.5 1.5S21.8 19 21 19z"></path><path fill="#c15c49" d="M21.8 14H4.5v6l3 3h17l3-3v-6h-5.7zM11 19c-.8 0-1.5-.7-1.5-1.5S10.2 16 11 16s1.5.7 1.5 1.5S11.8 19 11 19zm10 0c-.8 0-1.5-.7-1.5-1.5S20.2 16 21 16s1.5.7 1.5 1.5S21.8 19 21 19z"></path><path fill="#898b99" d="M19.5 17.5c0-.8.7-1.5 1.5-1.5H11c.8 0 1.5.7 1.5 1.5S11.8 19 11 19h10c-.8 0-1.5-.7-1.5-1.5z"></path><path fill="#5a5d70" d="M15.2 16H11c.8 0 1.5.7 1.5 1.5S11.8 19 11 19h4.2c.2-.5.3-1 .3-1.5s-.1-1-.3-1.5z"></path><path fill="#c15c49" d="M23.8 11H8.3L7 7h18z"></path><path fill="#40455a" d="M28.5 25.5h-25c-.8 0-1.5-.7-1.5-1.5V8c0-.8.7-1.5 1.5-1.5h25c.8 0 1.5.7 1.5 1.5v16c0 .8-.7 1.5-1.5 1.5zm-25-18c-.3 0-.5.2-.5.5v16c0 .3.2.5.5.5h25c.3 0 .5-.2.5-.5V8c0-.3-.2-.5-.5-.5h-25z"></path><path fill="#40455a" d="M23.8 11.5H8.3c-.2 0-.4-.1-.5-.4l-1.3-4c0-.2 0-.3.1-.4.1-.1.2-.2.4-.2h18c.2 0 .3.1.4.2.1.1.1.3.1.4l-1.3 4c0 .3-.2.4-.4.4zm-15.2-1h14.8l.9-3H7.7l.9 3zM11 19.5c-1.1 0-2-.9-2-2s.9-2 2-2 2 .9 2 2-.9 2-2 2zm0-3c-.6 0-1 .4-1 1s.4 1 1 1 1-.4 1-1-.4-1-1-1z"></path><circle cx="4.5" cy="9" r=".5" fill="#40455a"></circle><path fill="#40455a" d="M9.5 9.5c-.3 0-.5-.2-.5-.5s.2-.5.5-.5h1c.3 0 .5.2.5.5s-.2.5-.5.5h-1zM10.5 21.5c-.3 0-.5-.2-.5-.5s.2-.5.5-.5h1c.3 0 .5.2.5.5s-.2.5-.5.5h-1zM20.5 21.5c-.3 0-.5-.2-.5-.5s.2-.5.5-.5h1c.3 0 .5.2.5.5s-.2.5-.5.5h-1z"></path><circle cx="12.5" cy="9" r=".5" fill="#40455a"></circle><path fill="#40455a" d="M22.5 8.5h-1c-.3 0-.5.2-.5.5s.2.5.5.5h1c.3 0 .5-.2.5-.5s-.2-.5-.5-.5z"></path><circle cx="19.5" cy="9" r=".5" fill="#40455a"></circle><circle cx="27.5" cy="9" r=".5" fill="#40455a"></circle><circle cx="4.5" cy="23" r=".5" fill="#40455a"></circle><circle cx="27.5" cy="23" r=".5" fill="#40455a"></circle><path fill="#40455a" d="M21 19.5c-1.1 0-2-.9-2-2s.9-2 2-2 2 .9 2 2-.9 2-2 2zm0-3c-.6 0-1 .4-1 1s.4 1 1 1 1-.4 1-1-.4-1-1-1z"></path><path fill="#40455a" d="M24.5 23.5h-17c-.1 0-.3-.1-.4-.1l-3-3c0-.1-.1-.3-.1-.4v-6c0-.3.2-.5.5-.5h23c.3 0 .5.2.5.5v6c0 .1-.1.3-.1.4l-3 3c-.1 0-.3.1-.4.1zm-16.8-1h16.6l2.7-2.7v-5.3H5v5.3l2.7 2.7z"></path><path fill="#40455a" d="M21 19.5H11c-1.1 0-2-.9-2-2s.9-2 2-2h10c1.1 0 2 .9 2 2s-.9 2-2 2zm-10-3c-.6 0-1 .4-1 1s.4 1 1 1h10c.6 0 1-.4 1-1s-.4-1-1-1H11z"></path><path fill="#40455a" d="M15.2 19.5H11c-1.1 0-2-.9-2-2s.9-2 2-2h4.2c.2 0 .4.1.5.3.2.6.3 1.1.3 1.7s-.1 1.1-.3 1.7c-.1.2-.3.3-.5.3zm-4.2-3c-.6 0-1 .4-1 1s.4 1 1 1h3.9c.1-.3.1-.7.1-1s0-.7-.1-1H11z"></path></svg>