<svg xmlns="http://www.w3.org/2000/svg" width="24" height="24" viewBox="0 0 24 24"><g fill="#200E32" fill-rule="nonzero" transform="translate(2 2)"><circle cx="10" cy="10" r="10" opacity=".4"/><path d="M6.01673993,13.2512245 L7.66784957,8.05318647 C7.72058296,7.87578489 7.85741759,7.73567312 8.03372046,7.6785531 L13.2497259,6.03016628 C13.3952203,5.98055205 13.554711,5.99251394 13.6911475,6.06327315 C13.8275839,6.13403236 13.9290904,6.25742981 13.9720864,6.40479965 C14.0093045,6.51732354 14.0093045,6.63881162 13.9720864,6.75133551 L12.3397393,11.9493735 C12.2837199,12.128106 12.1435149,12.2680798 11.9644872,12.3240069 L6.7484817,13.9723937 C6.60293913,14.0192801 6.44465378,14.0060561 6.30894096,13.9356722 C6.17322814,13.8652883 6.07138042,13.7436011 6.02612123,13.5977603 C5.99481813,13.4847281 5.991598,13.3657797 6.01673993,13.2512245 Z"/></g></svg>