<svg xmlns="http://www.w3.org/2000/svg" width="24" height="24" viewBox="0 0 24 24"><g fill="#200E32" fill-rule="nonzero" transform="translate(2 2)"><path d="M14.6755556,0 L5.33333333,0 C1.92888889,0 0,1.92888889 0,5.33333333 L0,14.6666667 C0,18.0711111 1.92888889,20 5.33333333,20 L14.6755556,20 C18.08,20 20,18.0711111 20,14.6666667 L20,5.33333333 C20,1.92888889 18.08,0 14.6755556,0" opacity=".4"/><path d="M5.36871111 7.36897778C4.91537778 7.36897778 4.54204444 7.74231111 4.54204444 8.20453333L4.54204444 15.0756444C4.54204444 15.5289778 4.91537778 15.9023111 5.36871111 15.9023111 5.83093333 15.9023111 6.20426667 15.5289778 6.20426667 15.0756444L6.20426667 8.20453333C6.20426667 7.74231111 5.83093333 7.36897778 5.36871111 7.36897778M10.0353778 4.08897778C9.58204444 4.08897778 9.20871111 4.46231111 9.20871111 4.92453333L9.20871111 15.0756444C9.20871111 15.5289778 9.58204444 15.9023111 10.0353778 15.9023111 10.4976 15.9023111 10.8709333 15.5289778 10.8709333 15.0756444L10.8709333 4.92453333C10.8709333 4.46231111 10.4976 4.08897778 10.0353778 4.08897778M14.6399111 10.9956444C14.1776889 10.9956444 13.8043556 11.3689778 13.8043556 11.8312L13.8043556 15.0756444C13.8043556 15.5289778 14.1776889 15.9023111 14.6310222 15.9023111 15.0932444 15.9023111 15.4665778 15.5289778 15.4665778 15.0756444L15.4665778 11.8312C15.4665778 11.3689778 15.0932444 10.9956444 14.6399111 10.9956444"/></g></svg>