<svg xmlns="http://www.w3.org/2000/svg" width="24" height="24" viewBox="0 0 24 24"><g fill="#200E32" fill-rule="nonzero" transform="translate(3.498 2)"><path d="M0.00180549031,11.9123871 L0.00180549031,11.7079208 C0.0367212921,11.0530808 0.24337731,10.4186965 0.601265165,9.86772364 C1.19802822,9.19908491 1.60827797,8.3869066 1.79123736,7.51191574 C1.83597315,6.84517766 1.79123736,6.16065989 1.83597315,5.48503197 C2.15807089,2.24023996 5.37010109,-7.10542736e-15 8.44792389,-7.10542736e-15 L8.53739549,-7.10542736e-15 C11.6689013,-7.10542736e-15 14.800407,2.24023996 15.1403991,5.48503197 C15.2030292,6.15177005 15.1403991,6.84517766 15.194082,7.51191574 C15.3725916,8.38843933 15.7833951,9.20171403 16.3840542,9.86772364 C16.7574972,10.4124247 16.9712348,11.0495295 17.0014785,11.7079208 L17.0014785,11.9123871 C17.0069134,12.7993192 16.6890941,13.6582494 16.1066923,14.3304239 C15.3595416,15.1273861 14.343898,15.6240461 13.2525485,15.7261289 C10.0656792,16.1350352 6.83911573,16.1350352 3.65224649,15.7261289 C2.57359786,15.615656 1.57204968,15.1196696 0.833891308,14.3304239 C0.269752071,13.6518031 -0.0260755066,12.7921298 0.00180549031,11.9123871 Z"/><path d="M9.66473756,17.0951645 C9.02948925,17.0507153 8.51055401,17.0951645 7.99161877,17.0951645 C7.47696995,17.0862794 6.96316139,17.140018 6.46165452,17.2551816 C6.03219088,17.3529699 5.56693859,17.5841057 5.56693859,18.073047 C5.61200176,18.5455875 5.86817529,18.9730714 6.26481702,19.2376162 C7.0288692,19.8211238 7.99171291,20.085804 8.94896482,19.975473 C9.87945063,19.9068604 10.7299242,19.4272515 11.2662791,18.6686663 C11.5627393,18.2843505 11.4951166,17.7349776 11.1141774,17.4329784 L11.1141774,17.4329784 L11.1141774,17.4329784 C10.6631117,17.2124894 10.1674316,17.0969636 9.66473756,17.0951645 Z" opacity=".4"/></g></svg>