<svg xmlns="http://www.w3.org/2000/svg" width="24" height="24" viewBox="0 0 24 24"><g fill="#200E32" fill-rule="nonzero" transform="translate(3 2)"><path d="M13.191,0 L4.81,0 C1.77,0 0,1.78 0,4.83 L0,15.16 C0,18.26 1.77,20 4.81,20 L13.191,20 C16.28,20 18,18.26 18,15.16 L18,4.83 C18,1.78 16.28,0 13.191,0" opacity=".4"/><path d="M5.08,13.74 L12.92,13.74 C13.319,13.78 13.62,14.12 13.62,14.53 C13.62,14.929 13.319,15.27 12.92,15.31 L5.08,15.31 C4.78,15.35 4.49,15.2 4.33,14.95 C4.17,14.69 4.17,14.36 4.33,14.11 C4.49,13.85 4.78,13.71 5.08,13.74 Z M12.92,9.179 C13.35,9.179 13.7,9.53 13.7,9.96 C13.7,10.39 13.35,10.74 12.92,10.74 L5.08,10.74 C4.649,10.74 4.3,10.39 4.3,9.96 C4.3,9.53 4.649,9.179 5.08,9.179 L12.92,9.179 Z M8.069,4.65 C8.5,4.65 8.85,5 8.85,5.429 C8.85,5.87 8.5,6.22 8.069,6.22 L5.08,6.22 C4.649,6.22 4.3,5.87 4.3,5.44 C4.3,5.01 4.649,4.66 5.08,4.66 L5.08,4.65 L8.069,4.65 Z"/></g></svg>