<svg style="width:15px;height:15px" version="1.1" xmlns="http://www.w3.org/2000/svg" width="32" height="32" viewBox="0 0 32 32" id="CellphoneIcon">
  <title>cellphone</title>
  <path d="M24.3 0c1.564 0 2.834 1.27 2.834 2.834v26.077c0 1.564-1.27 2.834-2.834 2.834h-16.894c-1.565 0-2.834-1.269-2.834-2.834v-26.077c0-1.564 1.27-2.834 2.834-2.834zM6.771 28.917c0 0.35 0.284 0.635 0.635 0.635h16.894c0.356 0 0.64-0.284 0.64-0.635v-3.693h-18.169zM6.771 23.030h18.169v-17.27h-18.169zM7.406 2.199c-0.35 0-0.635 0.284-0.635 0.63v0.736h18.169v-0.731c0-0.356-0.284-0.635-0.64-0.635zM15.853 28.658c0.703 0 1.272-0.57 1.272-1.272s-0.57-1.272-1.272-1.272v0c-0.703 0-1.272 0.57-1.272 1.272s0.57 1.272 1.272 1.272v0z"></path>{' '}
</svg>
