<svg
  style="width:15px;height:15px"
  version="1.1"
  xmlns="http://www.w3.org/2000/svg"
  width="32"
  height="32"
  viewBox="0 0 32 32"
  id="SupportIcon"
>
  <title>support</title>
  <path d="M20.040 14.413l-5.627 5.627-2.787-2.8c-0.533-0.533-1.4-0.533-1.947 0l-5.6 5.627c-0.25 0.249-0.405 0.593-0.405 0.973s0.155 0.725 0.404 0.973l0 0 3.733 3.747c1.090 1.035 2.567 1.672 4.193 1.672 0.087 0 0.174-0.002 0.26-0.005l-0.012 0c3.627 0 8.2-2.32 11.933-6.040 2.667-2.667 4.627-5.76 5.52-8.693 0.973-3.227 0.573-5.96-1.147-7.667l-3.747-3.76c-0.533-0.533-1.413-0.533-1.947 0l-5.613 5.627c-0.246 0.248-0.398 0.59-0.398 0.967s0.152 0.719 0.398 0.967l-0-0zM1.373 16.040c0.76 0 1.373-0.613 1.373-1.373 0-3.187 1.24-6.173 3.493-8.427 2.145-2.158 5.115-3.493 8.398-3.493 0.010 0 0.020 0 0.031 0h-0.002c0.758 0 1.373-0.615 1.373-1.373s-0.615-1.373-1.373-1.373v0c-3.92 0-7.6 1.52-10.373 4.293-2.652 2.64-4.293 6.293-4.293 10.33 0 0.015 0 0.031 0 0.046v-0.002c0 0.76 0.613 1.373 1.373 1.373zM8.067 14.667c0.008-3.642 2.958-6.592 6.599-6.6h0.001c0.758 0 1.373-0.615 1.373-1.373s-0.615-1.373-1.373-1.373v0c-5.153 0.015-9.326 4.192-9.333 9.346v0.001c0 0.758 0.615 1.373 1.373 1.373s1.373-0.615 1.373-1.373v0z"></path>{' '}
</svg>
