<svg
  xmlns:xlink="http://www.w3.org/1999/xlink"
  width="32pt"
  height="32pt"
  viewBox="0 0 32 32"
  version="1.1"
  id="SearchIcon"
>
  <g>
    <path d="M 12.453125 24.902344 C 15.363281 24.914062 18.183594 23.886719 20.40625 22.003906 L 30.070312 31.667969 C 30.511719 32.109375 31.226562 32.109375 31.667969 31.667969 C 32.109375 31.226562 32.109375 30.511719 31.667969 30.070312 L 22.003906 20.40625 C 25.71875 15.921875 25.824219 9.457031 22.253906 4.855469 C 18.6875 0.253906 12.402344 -1.253906 7.132812 1.226562 C 1.863281 3.710938 -0.976562 9.515625 0.300781 15.199219 C 1.578125 20.878906 6.628906 24.914062 12.453125 24.90625 Z M 12.453125 2.265625 C 18.078125 2.265625 22.640625 6.824219 22.640625 12.453125 C 22.640625 18.078125 18.078125 22.640625 12.453125 22.640625 C 6.824219 22.640625 2.265625 18.078125 2.265625 12.453125 C 2.269531 6.828125 6.828125 2.269531 12.453125 2.265625 Z M 12.453125 2.265625 "></path>
  </g>
</svg>
