<svg xmlns="http://www.w3.org/2000/svg" version="1.1" x="0px" y="0px" viewBox="0 0 48 48" xml:space="preserve"><style type="text/css">.st0{fill:#FFD4C3;stroke:#504B46;stroke-linecap:round;stroke-linejoin:round;stroke-miterlimit:10;} .st1{fill:#FFC258;} .st2{fill:#4F4B45;} .st3{fill:#FABFA5;} .st4{fill:none;stroke:#504B46;stroke-linecap:round;stroke-linejoin:round;stroke-miterlimit:10;} .Graphic_x0020_Style{opacity:0.15;fill:#45413C;} .st5{opacity:0.15;fill:#45413C;} .st6{fill:#DEBB7E;stroke:#45413C;stroke-linecap:round;stroke-linejoin:round;stroke-miterlimit:10;} .st7{fill:#F0D5A8;} .st8{fill:#F7E5C6;} .st9{fill:#DEBB7E;} .st10{fill:none;stroke:#45413C;stroke-linecap:round;stroke-linejoin:round;stroke-miterlimit:10;} .st11{fill:#FFE500;} .st12{fill:#EBCB00;} .st13{fill:none;stroke:#EBCB00;stroke-linecap:round;stroke-linejoin:round;stroke-miterlimit:10;} .st14{fill:#FF6242;stroke:#45413C;stroke-linecap:round;stroke-linejoin:round;stroke-miterlimit:10;} .st15{fill:#FFFFFF;stroke:#45413C;stroke-linecap:round;stroke-linejoin:round;stroke-miterlimit:10;} .st16{fill:#E5F8FF;} .st17{fill:#FFFFFF;} .st18{fill:#E8F4FA;} .st19{fill:#E8F4FA;stroke:#45413C;stroke-linecap:round;stroke-linejoin:round;stroke-miterlimit:10;} .st20{fill:#FFCCDD;} .st21{fill:#FFB0CA;stroke:#45413C;stroke-linecap:round;stroke-linejoin:round;stroke-miterlimit:10;} .st22{fill:#FF87AF;stroke:#45413C;stroke-linecap:round;stroke-linejoin:round;stroke-miterlimit:10;} .st23{fill:#E5F8FF;stroke:#45413C;stroke-linecap:round;stroke-linejoin:round;stroke-miterlimit:10;} .st24{fill:#BF8256;stroke:#45413C;stroke-linecap:round;stroke-linejoin:round;stroke-miterlimit:10;} .st25{fill:#9CEB60;} .st26{fill:#6DD627;} .st27{fill:#C8FFA1;} .st28{fill:#FFFACF;} .st29{fill:#FF87AF;} .st30{fill:#FFB0CA;} .st31{fill:#FF6196;} .st32{fill:#FFCCDD;stroke:#45413C;stroke-linecap:round;stroke-linejoin:round;stroke-miterlimit:10;} .st33{fill:#FF6196;stroke:#45413C;stroke-linecap:round;stroke-linejoin:round;stroke-miterlimit:10;} .st34{fill:#FFE5EE;} .st35{fill:#00B8F0;} .st36{fill:#4ACFFF;} .st37{fill:#BF8256;} .st38{fill:#DEA47A;} .st39{fill:#915E3A;} .st40{fill:#FFF5E3;} .st41{fill:#F0F0F0;} .st42{fill:#8CA4B8;} .st43{fill:#627B8C;} .st44{fill:#C0DCEB;} .st45{fill:#FFF48C;} .st46{fill:#FFE500;stroke:#45413C;stroke-linecap:round;stroke-linejoin:round;stroke-miterlimit:10;} .st47{fill:#FFAA54;} .st48{fill:#6DD627;stroke:#45413C;stroke-linecap:round;stroke-linejoin:round;stroke-miterlimit:10;} .st49{fill:#FF8A14;} .st50{fill:#FFCC99;} .st51{fill:#EBCB00;stroke:#45413C;stroke-linecap:round;stroke-linejoin:round;stroke-miterlimit:10;} .st52{fill:#00F5BC;stroke:#45413C;stroke-linecap:round;stroke-linejoin:round;stroke-miterlimit:10;} .st53{fill:#BF8DF2;stroke:#45413C;stroke-linecap:round;stroke-linejoin:round;stroke-miterlimit:10;} .st54{fill:#FF8A14;stroke:#45413C;stroke-linecap:round;stroke-linejoin:round;stroke-miterlimit:10;} .st55{fill:#4AEFF7;stroke:#45413C;stroke-linecap:round;stroke-linejoin:round;stroke-miterlimit:10;} .st56{fill:#FFF48C;stroke:#45413C;stroke-linecap:round;stroke-linejoin:round;stroke-miterlimit:10;} .st57{fill:#FF6242;} .st58{fill:#E04122;} .st59{fill:#46B000;} .st60{fill:none;stroke:#45413C;stroke-miterlimit:10;} .st61{fill:#00B8F0;stroke:#45413C;stroke-linecap:round;stroke-linejoin:round;stroke-miterlimit:10;} .st62{fill:#FF866E;} .st63{fill:#9F5AE5;stroke:#45413C;stroke-linecap:round;stroke-linejoin:round;stroke-miterlimit:10;} .st64{fill:#E4FFD1;} .st65{fill:#FFFEF2;} .st66{fill:#B89558;} .st67{fill:none;stroke:#915E3A;stroke-linecap:round;stroke-linejoin:round;stroke-miterlimit:10;} .st68{fill:#915E3A;stroke:#45413C;stroke-linecap:round;stroke-linejoin:round;stroke-miterlimit:10;} .st69{fill:#BF8DF2;} .st70{fill:#9F5AE5;} .st71{fill:#DABFF5;} .st72{fill:none;stroke:#45413C;stroke-linejoin:round;stroke-miterlimit:10;} .st73{fill:#656769;} .st74{fill:#87898C;} .st75{fill:#E0E0E0;} .st76{fill:#BDBEC0;} .st77{fill:#656769;stroke:#45413C;stroke-linecap:round;stroke-linejoin:round;stroke-miterlimit:10;} .st78{fill:#45413C;stroke:#45413C;stroke-linecap:round;stroke-linejoin:round;stroke-miterlimit:10;} .st79{fill:#FFA694;} .st80{fill:#E04122;stroke:#45413C;stroke-linecap:round;stroke-linejoin:round;stroke-miterlimit:10;} .st81{fill:#E0E0E0;stroke:#45413C;stroke-linecap:round;stroke-linejoin:round;stroke-miterlimit:10;} .st82{fill:#F0F0F0;stroke:#45413C;stroke-linecap:round;stroke-linejoin:round;stroke-miterlimit:10;} .st83{fill:#DAEDF7;} .st84{fill:#BDBEC0;stroke:#45413C;stroke-linecap:round;stroke-linejoin:round;stroke-miterlimit:10;} .st85{fill:#87898C;stroke:#45413C;stroke-linecap:round;stroke-linejoin:round;stroke-miterlimit:10;} .st86{fill:#00DFEB;} .st87{fill:#4AEFF7;} .st88{fill:#DAEDF7;stroke:#45413C;stroke-linecap:round;stroke-linejoin:round;stroke-miterlimit:10;} .st89{fill:#FFDA8F;} .st90{fill:#FFBE3D;} .st91{fill:#FFE9BD;} .st92{fill:#DEA47A;stroke:#45413C;stroke-linecap:round;stroke-linejoin:round;stroke-miterlimit:10;} .st93{fill:#45413C;} .st94{fill:#F0C2A1;} .st95{fill:none;stroke:#45413C;stroke-width:1.0064;stroke-linecap:round;stroke-linejoin:round;stroke-miterlimit:10;} .st96{fill:#525252;} .st97{fill:#EB6D00;stroke:#45413C;stroke-linecap:round;stroke-linejoin:round;stroke-miterlimit:10;} .st98{fill:#EB6D00;} .st99{fill:#E5FEFF;} .st100{fill:#FF866E;stroke:#45413C;stroke-linecap:round;stroke-linejoin:round;stroke-miterlimit:10;} .st101{fill:#627B8C;stroke:#45413C;stroke-linecap:round;stroke-linejoin:round;stroke-miterlimit:10;} .st102{fill:#FFFCE5;stroke:#45413C;stroke-linecap:round;stroke-linejoin:round;stroke-miterlimit:10;} .st103{fill:#A6FBFF;} .st104{fill:#D9FDFF;} .st105{fill:#FFFACF;stroke:#45413C;stroke-linecap:round;stroke-linejoin:round;stroke-miterlimit:10;} .st106{fill:#B8ECFF;} .st107{fill:#FFCABF;} .st108{fill:#E5FFF9;} .st109{fill:#C8FFA1;stroke:#45413C;stroke-linecap:round;stroke-linejoin:round;stroke-miterlimit:10;} .st110{fill:#4CF4FC;} .st111{fill:#F0D5A8;stroke:#45413C;stroke-linecap:round;stroke-linejoin:round;stroke-miterlimit:10;} .st112{fill:#FFDCD1;stroke:#45413C;stroke-linecap:round;stroke-linejoin:round;stroke-miterlimit:10;} .st113{fill:#80DDFF;} .st114{fill:#46B000;stroke:#45413C;stroke-linecap:round;stroke-linejoin:round;stroke-miterlimit:10;} .st115{fill:#4ACFFF;stroke:#45413C;stroke-linecap:round;stroke-linejoin:round;stroke-miterlimit:10;} .st116{fill:#ADC4D9;} .st117{fill:#BDBEC0;stroke:#45413C;stroke-width:1.0064;stroke-linecap:round;stroke-linejoin:round;stroke-miterlimit:10;} .st118{fill:#FFFCE5;} .st119{fill:#947746;} .st120{fill:#525252;stroke:#45413C;stroke-linecap:round;stroke-linejoin:round;stroke-miterlimit:10;}</style><symbol id="New_Symbol_14" viewBox="-6.5 -6.5 13 13"><path class="st0" d="M0-6c2.2 0 4.1 1.5 4.7 3.5C6.3-2.5 6.4 0 5 0v1c0 2.8-2.2 5-5 5s-5-2.2-5-5V0c-1.4 0-1.3-2.5.2-2.5C-4.1-4.5-2.2-6 0-6z" fill="#FFD4C3" stroke="#504B46" stroke-linecap="round" stroke-linejoin="round" stroke-miterlimit="10"/><circle class="st1" cx="-1.6" cy="-0.1" r="0.1" fill="#FFC258"/><path class="st2" d="M-1.6.5c-.3 0-.6-.3-.6-.6s.2-.7.6-.7c.3 0 .6.3.6.7s-.3.6-.6.6z" fill="#4F4B45"/><circle class="st1" cx="1.6" cy="-0.1" r="0.1" fill="#FFC258"/><path class="st2" d="M1.6.5C1.3.5 1 .2 1-.1s.3-.6.6-.6.6.3.6.6-.2.6-.6.6z" fill="#4F4B45"/><circle class="st3" cx="-3" cy="-1.5" r="0.5" fill="#FABFA5"/><circle class="st3" cx="3" cy="-1.5" r="0.5" fill="#FABFA5"/><path class="st4" d="M-1.2-3c.8-.5 1.7-.5 2.5 0" fill="none" stroke="#504B46" stroke-linecap="round" stroke-linejoin="round" stroke-miterlimit="10"/></symbol><g id="Icons"><g id="XMLID_1872_"><ellipse id="XMLID_2970_" class="st76" cx="15.5" cy="36.7" rx="3.8" ry="9.5" fill="#BDBEC0"/><path id="XMLID_2969_" class="st74" d="M19.3 36.7c0-5.2-1.7-9.5-3.8-9.5s-3.8 4.2-3.8 9.5c0 1.4.1 2.7.3 3.9.5.1 1 .2 1.5.2.9 0 1.8-.2 2.6-.5.6.8 1.5 1.4 2.4 1.9.5-1.6.8-3.5.8-5.5z" fill="#87898C"/><ellipse id="XMLID_2968_" class="st76" cx="32.5" cy="36.7" rx="3.8" ry="9.5" fill="#BDBEC0"/><path id="XMLID_2967_" class="st74" d="M28.7 36.7c0-5.2 1.7-9.5 3.8-9.5 2.1 0 3.8 4.2 3.8 9.5 0 1.4-.1 2.7-.3 3.9-.5.1-1 .2-1.5.2-.9 0-1.8-.2-2.6-.5-.6.8-1.5 1.4-2.4 1.9-.5-1.6-.8-3.5-.8-5.5z" fill="#87898C"/><ellipse id="XMLID_2966_" class="st10" cx="15.5" cy="36.7" rx="3.8" ry="9.5" fill="none" stroke="#45413C" stroke-linecap="round" stroke-linejoin="round" stroke-miterlimit="10"/><ellipse id="XMLID_2965_" class="st10" cx="32.5" cy="36.7" rx="3.8" ry="9.5" fill="none" stroke="#45413C" stroke-linecap="round" stroke-linejoin="round" stroke-miterlimit="10"/><path id="XMLID_2852_" class="st99" d="M24 23.7c-.8 0-1.7.2-2.5.4-.9-1.2-2.3-2.1-3.9-2.2-.2-1.6-1-3-2.2-3.9 0-.2.1-.3.1-.5 0-2.4-2-4.4-4.4-4.4-2.4 0-4.4 2-4.4 4.4 0 .4.1.8.2 1.2-.9 1.1-1.5 2.5-1.5 4.1 0 1.5.6 3 1.5 4C6 28 5.6 29.4 5.6 31c0 4.2 3.4 7.6 7.6 7.6 1 0 2-.2 2.9-.6 1.7 2.1 4.6 3.4 7.9 3.4s6.2-1.4 7.9-3.4c.9.4 1.9.6 2.9.6 4.2 0 7.6-3.4 7.6-7.6 0-1.5-.5-2.9-1.2-4.1.9-1.1 1.5-2.5 1.5-4 0-1.6-.6-3-1.5-4.1.1-.4.2-.8.2-1.2 0-2.4-2-4.4-4.4-4.4-2.4 0-4.4 2-4.4 4.4 0 .2 0 .3.1.5-1.2 1-2 2.3-2.2 3.9-1.6.1-3 .9-3.9 2.2-.9-.3-1.8-.5-2.6-.5z" fill="#E5FEFF"/><g id="XMLID_1_"><path id="XMLID_165_" class="st17" d="M5.8 25.3c.3-.6.6-1.1 1-1.6-.1-.4-.2-.8-.2-1.2 0-2.4 2-4.4 4.4-4.4 2.4 0 4.4 2 4.4 4.4 0 .2 0 .3-.1.5 1.2 1 2 2.3 2.2 3.9 1.6.1 3 .9 3.9 2.2.7-.3 1.6-.4 2.5-.4s1.7.2 2.5.4c.9-1.2 2.3-2.1 3.9-2.2.2-1.6 1-3 2.2-3.9 0-.2-.1-.3-.1-.5 0-2.4 2-4.4 4.4-4.4 2.4 0 4.4 2 4.4 4.4 0 .4-.1.8-.2 1.2.4.5.7 1 1 1.6.3-.8.5-1.6.5-2.5 0-1.6-.6-3-1.5-4.1.1-.4.2-.8.2-1.2 0-2.4-2-4.4-4.4-4.4-2.4 0-4.4 2-4.4 4.4 0 .2 0 .3.1.5-1.2 1-2 2.3-2.2 3.9-1.6.1-3 .9-3.9 2.2-.7-.3-1.6-.4-2.5-.4s-1.7.2-2.5.4c-.9-1.2-2.3-2.1-3.9-2.2-.2-1.6-1-3-2.2-3.9 0-.2.1-.3.1-.5 0-2.4-2-4.4-4.4-4.4-2.4 0-4.4 2-4.4 4.4 0 .4.1.8.2 1.2-.9 1.1-1.5 2.5-1.5 4.1 0 .9.2 1.7.5 2.5z" fill="#FFF"/></g><path id="XMLID_2851_" class="st10" d="M24 23.7c-.8 0-1.7.2-2.5.4-.9-1.2-2.3-2.1-3.9-2.2-.2-1.6-1-3-2.2-3.9 0-.2.1-.3.1-.5 0-2.4-2-4.4-4.4-4.4-2.4 0-4.4 2-4.4 4.4 0 .4.1.8.2 1.2-.9 1.1-1.5 2.5-1.5 4.1 0 1.5.6 3 1.5 4C6 28 5.6 29.4 5.6 31c0 4.2 3.4 7.6 7.6 7.6 1 0 2-.2 2.9-.6 1.7 2.1 4.6 3.4 7.9 3.4s6.2-1.4 7.9-3.4c.9.4 1.9.6 2.9.6 4.2 0 7.6-3.4 7.6-7.6 0-1.5-.5-2.9-1.2-4.1.9-1.1 1.5-2.5 1.5-4 0-1.6-.6-3-1.5-4.1.1-.4.2-.8.2-1.2 0-2.4-2-4.4-4.4-4.4-2.4 0-4.4 2-4.4 4.4 0 .2 0 .3.1.5-1.2 1-2 2.3-2.2 3.9-1.6.1-3 .9-3.9 2.2-.9-.3-1.8-.5-2.6-.5z" fill="none" stroke="#45413C" stroke-linecap="round" stroke-linejoin="round" stroke-miterlimit="10"/><path id="XMLID_2960_" class="st28" d="M19.2 5.7c0-.2-1.5-5.2-6.6-4.4C7.4 2 7.7 7.4 8.5 9c.8 1.7 2.7 2 2.7 2s-1.7-3.1 1.1-4.1c1.6-.5 2.3 1.6 2.3 1.6l4.6-2.8z" fill="#FFFACF"/><g id="XMLID_2958_"><path id="XMLID_2959_" class="st118" d="M12.5 2.7c3.6-.5 5.4 1.8 6.2 3.3l.5-.3c0-.2-1.5-5.2-6.6-4.4-4 .5-4.7 3.8-4.5 6 .2-2 1.3-4.2 4.4-4.6z" fill="#FFFCE5"/></g><path id="XMLID_2957_" class="st10" d="M19.2 5.7c0-.2-1.5-5.2-6.6-4.4C7.4 2 7.7 7.4 8.5 9c.8 1.7 2.7 2 2.7 2s-1.7-3.1 1.1-4.1c1.6-.5 2.3 1.6 2.3 1.6l4.6-2.8z" fill="none" stroke="#45413C" stroke-linecap="round" stroke-linejoin="round" stroke-miterlimit="10"/><path id="XMLID_2956_" class="st28" d="M28.8 5.7c0-.2 1.5-5.2 6.6-4.4 5.1.7 4.8 6.1 4 7.8-.8 1.7-2.7 2-2.7 2S38.4 8 35.6 7c-1.6-.5-2.3 1.6-2.3 1.6l-4.5-2.9z" fill="#FFFACF"/><g id="XMLID_2954_"><path id="XMLID_2955_" class="st118" d="M35.5 3.2c3 .4 4.2 2.5 4.4 4.4.3-2.3-.4-5.7-4.4-6.3-5.1-.7-6.6 4.2-6.6 4.4l.6.4c.8-1.5 2.6-3.4 6-2.9z" fill="#FFFCE5"/></g><path id="XMLID_2953_" class="st10" d="M28.8 5.7c0-.2 1.5-5.2 6.6-4.4 5.1.7 4.8 6.1 4 7.8-.8 1.7-2.7 2-2.7 2S38.4 8 35.6 7c-1.6-.5-2.3 1.6-2.3 1.6l-4.5-2.9z" fill="none" stroke="#45413C" stroke-linecap="round" stroke-linejoin="round" stroke-miterlimit="10"/><path id="XMLID_2952_" class="st84" d="M16 8.7s-2.6 2.9-5.3 7.7c-1.6 2.8-1.8 4.4.9 6 3.9 2.3 4.3-2.4 4.9-7 .6-4.6-.5-6.7-.5-6.7z" fill="#BDBEC0" stroke="#45413C" stroke-linecap="round" stroke-linejoin="round" stroke-miterlimit="10"/><path id="XMLID_2951_" class="st32" d="M15.1 13.6s-3.4 4-3.1 5.3c.3 1.3 1.4 1.9 2.7 1.8 1.2-.1 1.8-3.5 1.8-3.5l-1.4-3.6z" fill="#FCD" stroke="#45413C" stroke-linecap="round" stroke-linejoin="round" stroke-miterlimit="10"/><path id="XMLID_2950_" class="st84" d="M32.2 8.7s2.6 2.9 5.3 7.7c1.6 2.8 1.8 4.4-.9 6-3.9 2.3-4.3-2.4-4.9-7-.7-4.6.5-6.7.5-6.7z" fill="#BDBEC0" stroke="#45413C" stroke-linecap="round" stroke-linejoin="round" stroke-miterlimit="10"/><path id="XMLID_2949_" class="st32" d="M33 13.6s3.4 4 3.1 5.3c-.3 1.3-1.4 1.9-2.7 1.8-1.2-.1-1.8-3.5-1.8-3.5l1.4-3.6z" fill="#FCD" stroke="#45413C" stroke-linecap="round" stroke-linejoin="round" stroke-miterlimit="10"/><ellipse id="XMLID_2948_" class="st5" cx="24" cy="45.6" rx="14.2" ry="1.5" fill="#45413C" opacity="0.15"/><path id="XMLID_2947_" class="st76" d="M33.6 14.9c0 8-4.6 14.5-9.6 14.5-5.1 0-9.6-6.5-9.6-14.5S18.9 4.3 24 4.3c5 0 9.6 2.7 9.6 10.6z" fill="#BDBEC0"/><path id="XMLID_2946_" class="st74" d="M24 4.3c-4.8 0-9.2 2.4-9.6 9.6.3.1.7.1 1 .1 1.3 0 2.5-.5 3.3-1.2.7 2 2.8 3.4 5.2 3.4 2.6 0 4.8-1.6 5.3-3.8.9 1 2.2 1.7 3.8 1.7h.5c-.3-7.3-4.7-9.8-9.5-9.8z" fill="#87898C"/><path id="XMLID_2945_" class="st10" d="M33.6 14.9c0 8-4.6 14.5-9.6 14.5-5.1 0-9.6-6.5-9.6-14.5S18.9 4.3 24 4.3c5 0 9.6 2.7 9.6 10.6z" fill="none" stroke="#45413C" stroke-linecap="round" stroke-linejoin="round" stroke-miterlimit="10"/><path id="XMLID_2944_" class="st85" d="M26.9 24.5c0 .8-1.3 2.4-2.9 2.4s-2.9-1.6-2.9-2.4c0-.8 1.3 0 2.9 0s2.9-.8 2.9 0z" fill="#87898C" stroke="#45413C" stroke-linecap="round" stroke-linejoin="round" stroke-miterlimit="10"/><path id="XMLID_2850_" class="st99" d="M24 1c-2.5 0-4.6 1.7-5.1 4-.6-.4-1.3-.6-2.1-.6-2.1 0-3.9 1.7-3.9 3.9 0 2.1 1.7 3.9 3.9 3.9 1.2 0 2.3-.6 3-1.5.4 1.9 2.2 3.4 4.2 3.4s3.8-1.5 4.2-3.4c.7.9 1.8 1.5 3 1.5 2.1 0 3.9-1.7 3.9-3.9 0-2.1-1.7-3.9-3.9-3.9-.8 0-1.5.2-2.1.6-.5-2.3-2.6-4-5.1-4z" fill="#E5FEFF"/><path id="XMLID_2853_" class="st17" d="M16.8 7.2c.8 0 1.5.2 2.1.6.6-2.3 2.7-4 5.1-4s4.6 1.7 5.1 4c.6-.4 1.3-.6 2.1-.6 1.6 0 3 1 3.6 2.5.2-.4.3-.9.3-1.4 0-2.1-1.7-3.9-3.9-3.9-.8 0-1.5.2-2.1.6-.6-2.3-2.7-4-5.1-4s-4.6 1.7-5.1 4c-.6-.4-1.3-.6-2.1-.6-2.1 0-3.9 1.7-3.9 3.9 0 .5.1.9.3 1.4.5-1.5 1.9-2.5 3.6-2.5z" fill="#FFF"/><path id="XMLID_2849_" class="st10" d="M24 1c-2.5 0-4.6 1.7-5.1 4-.6-.4-1.3-.6-2.1-.6-2.1 0-3.9 1.7-3.9 3.9 0 2.1 1.7 3.9 3.9 3.9 1.2 0 2.3-.6 3-1.5.4 1.9 2.2 3.4 4.2 3.4s3.8-1.5 4.2-3.4c.7.9 1.8 1.5 3 1.5 2.1 0 3.9-1.7 3.9-3.9 0-2.1-1.7-3.9-3.9-3.9-.8 0-1.5.2-2.1.6-.5-2.3-2.6-4-5.1-4z" fill="none" stroke="#45413C" stroke-linecap="round" stroke-linejoin="round" stroke-miterlimit="10"/><circle id="XMLID_2940_" class="st93" cx="28.4" cy="18" r="1.3" fill="#45413C"/><circle id="XMLID_2200_" class="st93" cx="19.6" cy="18" r="1.3" fill="#45413C"/><ellipse id="XMLID_2199_" class="st20" cx="30.2" cy="22" rx="0.9" ry="0.5" fill="#FCD"/><ellipse id="XMLID_2198_" class="st20" cx="17.8" cy="22" rx="0.9" ry="0.5" fill="#FCD"/><path id="XMLID_2197_" class="st10" fill="none" stroke="#45413C" stroke-linecap="round" stroke-linejoin="round" stroke-miterlimit="10" d="M24 26.9v2.5"/><path id="XMLID_2196_" class="st10" d="M16.4 2l-.8-.3s-1.1-.4-2.7.9c-1.7 1.5-.8 4.4-.8 4.4" fill="none" stroke="#45413C" stroke-linecap="round" stroke-linejoin="round" stroke-miterlimit="10"/><path id="XMLID_2195_" class="st10" d="M8.6 3.9l-.1.4s-.2 1.2.4 2.2c.8 1.2 1.8 1.3 1.8 1.3h.3" fill="none" stroke="#45413C" stroke-linecap="round" stroke-linejoin="round" stroke-miterlimit="10"/><path id="XMLID_2194_" class="st10" d="M31.6 2l.8-.3s1.1-.4 2.7.9c1.7 1.5.8 4.4.8 4.4" fill="none" stroke="#45413C" stroke-linecap="round" stroke-linejoin="round" stroke-miterlimit="10"/><path id="XMLID_2193_" class="st10" d="M39.4 3.9l.1.4s.5 3-2.6 3.4" fill="none" stroke="#45413C" stroke-linecap="round" stroke-linejoin="round" stroke-miterlimit="10"/><path id="XMLID_2192_" class="st105" d="M15.5 42.8c-1.1 0-2-.1-2.7.5.7 1.7 1.6 2.8 2.7 2.8s2-1.1 2.7-2.8c-.7-.6-1.7-.5-2.7-.5z" fill="#FFFACF" stroke="#45413C" stroke-linecap="round" stroke-linejoin="round" stroke-miterlimit="10"/><path id="XMLID_2191_" class="st10" fill="none" stroke="#45413C" stroke-linecap="round" stroke-linejoin="round" stroke-miterlimit="10" d="M15.5 42.8v3.3"/><path id="XMLID_2190_" class="st105" d="M32.5 42.8c-1.1 0-2-.1-2.7.5.7 1.7 1.6 2.8 2.7 2.8 1 0 2-1.1 2.7-2.8-.7-.6-1.6-.5-2.7-.5z" fill="#FFFACF" stroke="#45413C" stroke-linecap="round" stroke-linejoin="round" stroke-miterlimit="10"/><path id="XMLID_2189_" class="st10" fill="none" stroke="#45413C" stroke-linecap="round" stroke-linejoin="round" stroke-miterlimit="10" d="M32.5 42.8v3.3"/></g></g></svg>
