<svg xmlns="http://www.w3.org/2000/svg" version="1.1" id="Layer_1" x="0px" y="0px" width="64px" height="64px" viewBox="0 0 64 64" xml:space="preserve"><g stroke="#494949" stroke-width="1.5" stroke-linecap="round" stroke-linejoin="round" stroke-miterlimit="10" id="Men_x2019_s_Vest"><path fill="#D6E167" d="M39.499 9.265h2.828v10.594c0 5.905.962 7.483 4.007 8.902v27.704h-29V28.761c3.045-1.418 4.006-2.997 4.006-8.902V9.265l2.8.007v-.007c0 4.242 3.438 7.611 7.679 7.611 4.242 0 7.68-3.369 7.68-7.611z"/><path fill="#B7B444" d="M24.141 9.874v-.602 5.707a7.679 7.679 0 1 0 15.358 0V9.265v.609-.609c0 4.242-3.438 7.611-7.679 7.611s-7.679-3.369-7.679-7.611v.609z"/></g></svg>
