<svg xmlns="http://www.w3.org/2000/svg" width="24" height="24" viewBox="0 0 24 24" id="Home2Icon"><path fill="#200E32" fill-rule="nonzero" d="M6.64373233,18.7821107 L6.64373233,15.7152449 C6.64371685,14.9380902 7.27567036,14.3067075 8.05843544,14.3018198 L10.9326107,14.3018198 C11.7188748,14.3018198 12.3562677,14.9346318 12.3562677,15.7152449 L12.3562677,15.7152449 L12.3562677,18.7732212 C12.3562498,19.4472781 12.9040221,19.995083 13.5829406,20 L15.5438266,20 C16.4596364,20.0023291 17.3387522,19.6427941 17.9871692,19.0007051 C18.6355861,18.3586161 19,17.4867541 19,16.5775231 L19,7.86584638 C19,7.13138763 18.6720694,6.43471253 18.1046183,5.96350064 L11.4429783,0.674268354 C10.2785132,-0.250877524 8.61537279,-0.22099178 7.48539114,0.745384082 C7.48539114,0.745384082 0.967012253,5.96350064 0.967012253,5.96350064 C0.37274068,6.42082162 0.0175522924,7.11956262 0,7.86584638 L0,16.5686336 C0,18.463707 1.54738155,20 3.45617342,20 L5.37229029,20 C5.69917279,20.0023364 6.01348703,19.8750734 6.24547302,19.6464237 C6.477459,19.417774 6.60792577,19.1066525 6.60791706,18.7821107 L6.64373233,18.7821107 Z" transform="translate(2.5 2)"></path></svg>