<svg xmlns="http://www.w3.org/2000/svg" viewBox="0 0 32 32"><path fill="#fdc475" d="M11.61076,13.55072a5.41313,5.41313,0,0,1-4.37906-.64516,6.03392,6.03392,0,0,1-2.03465-3.611,6.43569,6.43569,0,0,0-.41513-2.05822C4.476,6.736,3.74042,6.78165,3.22913,6.53856a2.13627,2.13627,0,0,0-.53572-.19267,1.72878,1.72878,0,0,0-.4637-.01783c-.52993.048-.6223.28513-.90424.26607a1.09878,1.09878,0,0,1-.82283-1.018A1.30053,1.30053,0,0,1,.92409,4.598a2.61934,2.61934,0,0,1,.9803-.51508c.63661-.24847.6338-.22279.96643-.33455.93979-.31569.93333-.94865,1.65182-1.013.4014-.03593.46528.15613.89689.06606.438-.09143.54559-.32543.89372-.29944a.80522.80522,0,0,1,.65156.39925c.15726.33241-.16139.5858-.22076,1.07031-.07691.628.37787.85945.764,1.75413a6.83878,6.83878,0,0,1,.43956,2.12454c.2368,1.28815,1.15727,2.46842,2.59688,1.70766,1.2431-.65693,1.64192-2.29379,2.81178-3.07521,1.18521-.79166,2.58559-.69289,3.62621-1.76124.96252-.98819,2.02127-1.901,3.46242-1.21376,1.26541.60339,1.6069,2.09854,2.72146,2.8684a15.85957,15.85957,0,0,1,1.7858,1.07447A14.86259,14.86259,0,0,1,26.36945,9.18c.7447.9172.54982,1.16771,1.11821,2.13171a9.51516,9.51516,0,0,0,1.88584,2.41254C30.5748,14.79108,31.48885,14.90556,31.5,15.536c.00751.42473-1.65183,1.10153-2.9239.13257a12.25,12.25,0,0,1-2.81676-3.05605,16.8261,16.8261,0,0,0,1.11326,4.18,22.35254,22.35254,0,0,0,2.29278,3.90669,1.98087,1.98087,0,0,1,.36691,1.1541V29.5H26.70255l.94323-1.87765.15563-1.786q-1.07841-3.59172-2.15685-7.1835.19613,3.09977.39227,6.19952-.25833,1.34837-.58657,2.76994-.2231.96115-.4621,1.87766h-3.4734L22.952,27.62234A14.04117,14.04117,0,0,0,23.76248,24.32a17.29715,17.29715,0,0,0-.06125-3.97482,27.45654,27.45654,0,0,0-.51371-3.26967,6.20368,6.20368,0,0,1-.30809-2.03763c.02381-1.19555.40274-1.99928.17015-2.12076-.22649-.1183-.56342.59928-1.54825,1.12906a5.73151,5.73151,0,0,1-2.2764.56636c-.536.05336-1.26518.18778-2.15141.25609h0l1.55788,7.727a2.00005,2.00005,0,0,1,.03442.537L18.21342,29.5H15.38371L16.387,27.89478a1,1,0,0,0,.14869-.61159l-.68281-8.34387-1.41243-3.51221-.685,4.23927a2.99965,2.99965,0,0,0-.03278.66228l.21742,3.5433a3.00006,3.00006,0,0,1-.08673.92243l-.26381,1.03839a3.00039,3.00039,0,0,0-.09236.73869V29.5H10.66753l.83682-1.66582a1,1,0,0,0,.10641-.44889Z"/><path fill="#2c2b2d" d="M29.53223,30H26.70215a.50019.50019,0,0,1-.44727-.72461l.90039-1.792.13965-1.5957-.876-2.918.11718,1.85156a.49745.49745,0,0,1-.00781.126q-.26075,1.35644-.59082,2.78808-.22411.9668-.46582,1.89063a.49844.49844,0,0,1-.4834.374H21.51465a.50014.50014,0,0,1-.39746-.80371L22.50977,27.377a13.61771,13.61771,0,0,0,.75683-3.11523,16.00681,16.00681,0,0,0-.04-3.63379l-.02343-.23535a27.19918,27.19918,0,0,0-.50391-3.21,6.53854,6.53854,0,0,1-.31934-2.1543,7.46149,7.46149,0,0,1,.09864-1.04,4.55671,4.55671,0,0,1-.74122.49805,6.17052,6.17052,0,0,1-2.46289.623c-.19726.0205-.42187.05175-.67089.08593-.28028.03907-.5918.082-.93067.11914l1.44922,7.18262a2.54265,2.54265,0,0,1,.043.6709l-.45215,6.36719a.50027.50027,0,0,1-.499.46484H15.38379a.49962.49962,0,0,1-.42383-.76465l1.00293-1.60547a.49854.49854,0,0,0,.0752-.30566l-.67774-8.26856-.71289-1.77343L14.249,19.74609a2.47676,2.47676,0,0,0-.02734.55176l.21777,3.54395a3.5271,3.5271,0,0,1-.10156,1.07519l-.26367,1.03906a2.51691,2.51691,0,0,0-.07715.61524V29.5a.49971.49971,0,0,1-.5.5H10.668a.50019.50019,0,0,1-.44727-.72461l.83594-1.666a.49335.49335,0,0,0,.05371-.22364V14.16211a5.5349,5.5349,0,0,1-4.17871-.85645A6.48772,6.48772,0,0,1,4.70508,9.38574c-.03613-.20117-.05957-.42773-.083-.66211a3.29794,3.29794,0,0,0-.2666-1.22656c-.08594-.14062-.30762-.20312-.66211-.29a3.42464,3.42464,0,0,1-.67871-.21777,1.70414,1.70414,0,0,0-.41309-.15235,1.2681,1.2681,0,0,0-.32617-.01074.90469.90469,0,0,0-.3916.12012,1.163,1.163,0,0,1-.59277.14648A1.57116,1.57116,0,0,1,.00391,5.61133,1.74061,1.74061,0,0,1,.56348,4.251a2.98524,2.98524,0,0,1,1.15918-.63379c.46-.17969.60254-.22266.76074-.27051l.22754-.07227a1.63755,1.63755,0,0,0,.708-.47265A1.59746,1.59746,0,0,1,4.47754,2.2373a1.42767,1.42767,0,0,1,.583.06055.44053.44053,0,0,0,.25781.01465,1.04808,1.04808,0,0,0,.30664-.125,1.2725,1.2725,0,0,1,.72656-.18457A1.30861,1.30861,0,0,1,7.416,2.68652,1.10473,1.10473,0,0,1,7.3584,3.665a1.33229,1.33229,0,0,0-.11817.36719c-.02343.19531.03907.30468.24317.61914a5.60446,5.60446,0,0,1,.4834.876,3.76,3.76,0,0,1,.35644,1.376c.01953.21094.04492.46777.11621.85742a1.98826,1.98826,0,0,0,.87012,1.45313,1.07034,1.07034,0,0,0,1.00195-.09864,4.095,4.095,0,0,0,1.31934-1.42675A5.58935,5.58935,0,0,1,13.0791,6.06641a6.566,6.566,0,0,1,1.71778-.74805A4.12086,4.12086,0,0,0,16.624,4.37305c.80664-.8291,2.15528-2.2168,4.03614-1.31641A4.51136,4.51136,0,0,1,22.37988,4.749,4.61057,4.61057,0,0,0,23.4502,5.96484a6.02875,6.02875,0,0,0,.69726.39356,5.02907,5.02907,0,0,1,1.13965.7207,8.18066,8.18066,0,0,1,1.05078,1.23535c.13867.18848.27734.375.41992.54981a4.07284,4.07284,0,0,1,.76074,1.33594,4.79172,4.79172,0,0,0,.39942.85742,9.00311,9.00311,0,0,0,1.78711,2.293,8.35416,8.35416,0,0,0,1.24414.8955c.53516.33008,1.04.64161,1.05078,1.28125.00391.19141-.07715.55762-.65625.85059a2.999,2.999,0,0,1-3.07031-.31152A12.20712,12.20712,0,0,1,26.6582,14.585a16.223,16.223,0,0,0,.67774,2.01856,21.85277,21.85277,0,0,0,2.23633,3.80566,2.47019,2.47019,0,0,1,.46,1.44434V29.5A.49972.49972,0,0,1,29.53223,30ZM27.5127,29h1.51953V21.85352a1.479,1.479,0,0,0-.27442-.86426,22.81225,22.81225,0,0,1-2.34765-4.00684,17.34144,17.34144,0,0,1-1.14649-4.30469.50017.50017,0,0,1,.91406-.33984,11.85663,11.85663,0,0,0,2.70118,2.93359,1.97808,1.97808,0,0,0,2.06933.1875,3.46981,3.46981,0,0,0-.52441-.3623,9.3566,9.3566,0,0,1-1.38281-.998,10.02318,10.02318,0,0,1-1.98145-2.52832,5.75985,5.75985,0,0,1-.47754-1.01953,3.08627,3.08627,0,0,0-.60156-1.05566c-.15137-.18653-.29785-.38477-.44629-.585a7.45815,7.45815,0,0,0-.917-1.08887,4.2146,4.2146,0,0,0-.92383-.57227,7.00353,7.00353,0,0,1-.81152-.46191,5.40286,5.40286,0,0,1-1.32227-1.4668A3.70373,3.70373,0,0,0,20.22949,3.959c-1.03418-.49316-1.81543.00782-2.88867,1.11133a4.95967,4.95967,0,0,1-2.2373,1.2002,5.6939,5.6939,0,0,0-1.46973.62793A4.76655,4.76655,0,0,0,12.458,8.25,4.905,4.905,0,0,1,10.77832,10a2.02965,2.02965,0,0,1-1.90527.11328,2.9343,2.9343,0,0,1-1.418-2.17187C7.377,7.5127,7.34961,7.23047,7.32715,6.999a2.80074,2.80074,0,0,0-.27832-1.07519,4.61864,4.61864,0,0,0-.40528-.72852,1.79569,1.79569,0,0,1-.3955-1.28418,2.28771,2.28771,0,0,1,.19043-.63965A1.086,1.086,0,0,0,6.50781,3.085a.57733.57733,0,0,0-.23242-.084c-.04-.00684-.0498-.001-.1748.0664a2.0178,2.0178,0,0,1-.57813.22364,1.37849,1.37849,0,0,1-.72656-.0293.50462.50462,0,0,0-.22852-.02832c-.1748.01562-.24511.07812-.4414.27441a2.61049,2.61049,0,0,1-1.09571.71387l-.25683.082c-.14258.043-.27149.082-.6875.24512a2.94249,2.94249,0,0,0-.80664.40039A.80218.80218,0,0,0,1.00195,5.54a.67212.67212,0,0,0,.35743.55469,1.98017,1.98017,0,0,1,.82519-.26465,2.16132,2.16132,0,0,1,.60156.02441,2.61413,2.61413,0,0,1,.65625.23145,2.73953,2.73953,0,0,0,.48828.14941A1.86393,1.86393,0,0,1,5.208,6.97461,3.93232,3.93232,0,0,1,5.61719,8.624c.02051.20606.03906.40528.07226.58008a5.52888,5.52888,0,0,0,1.8418,3.30078,4.92961,4.92961,0,0,0,3.958.56055.49616.49616,0,0,1,.42871.09082.5012.5012,0,0,1,.19238.39453v13.835a1.50819,1.50819,0,0,1-.16015.67481L11.47852,29h1.51855V26.57129a3.47781,3.47781,0,0,1,.1084-.86231l.26367-1.03808a2.514,2.514,0,0,0,.07227-.76856l-.21778-3.543a3.47276,3.47276,0,0,1,.03907-.77442l.68457-4.23828a.49945.49945,0,0,1,.4375-.417.5047.5047,0,0,1,.51953.31054l1.41211,3.5127a.50179.50179,0,0,1,.03418.14551l.68359,8.34375a1.49074,1.49074,0,0,1-.22363.918L16.28613,29h1.46192l.41894-5.90234a1.52076,1.52076,0,0,0-.02539-.4043L16.583,14.9668a.50116.50116,0,0,1,.45215-.59766c.54-.041,1.01953-.10742,1.43164-.16406.26269-.03711.499-.06934.708-.08985a5.30037,5.30037,0,0,0,2.08887-.50976,4.16466,4.16466,0,0,0,.98926-.7666c.26758-.2627.59863-.58692,1.02832-.36524.45117.23731.35742.7334.25879,1.25977a7.5064,7.5064,0,0,0-.16016,1.31445,5.66868,5.66868,0,0,0,.28321,1.873,27.90828,27.90828,0,0,1,.53613,3.376l.02246.23339a16.79884,16.79884,0,0,1,.03711,3.84864,14.56874,14.56874,0,0,1-.83887,3.41894.52617.52617,0,0,1-.07031.12793L22.52734,29h2.07325q.186-.73095.3623-1.49121c.21387-.918.40234-1.81543.57129-2.68848l-.38867-6.13574a.501.501,0,0,1,.41113-.52344.50687.50687,0,0,1,.56641.34864l2.15722,7.18261a.48335.48335,0,0,1,.01953.18653L28.14355,27.665a.50935.50935,0,0,1-.05078.18164Z"/></svg>
