<svg xmlns="http://www.w3.org/2000/svg" version="1.1" x="0px" y="0px" viewBox="0 0 48 48" xml:space="preserve"><style type="text/css">.st0{fill:#FFD4C3;stroke:#504B46;stroke-linecap:round;stroke-linejoin:round;stroke-miterlimit:10;} .st1{fill:#FFC258;} .st2{fill:#4F4B45;} .st3{fill:#FABFA5;} .st4{fill:none;stroke:#504B46;stroke-linecap:round;stroke-linejoin:round;stroke-miterlimit:10;} .Graphic_x0020_Style{opacity:0.15;fill:#45413C;} .st5{opacity:0.15;fill:#45413C;} .st6{fill:#DEBB7E;stroke:#45413C;stroke-linecap:round;stroke-linejoin:round;stroke-miterlimit:10;} .st7{fill:#F0D5A8;} .st8{fill:#F7E5C6;} .st9{fill:#DEBB7E;} .st10{fill:none;stroke:#45413C;stroke-linecap:round;stroke-linejoin:round;stroke-miterlimit:10;} .st11{fill:#FFE500;} .st12{fill:#EBCB00;} .st13{fill:none;stroke:#EBCB00;stroke-linecap:round;stroke-linejoin:round;stroke-miterlimit:10;} .st14{fill:#FF6242;stroke:#45413C;stroke-linecap:round;stroke-linejoin:round;stroke-miterlimit:10;} .st15{fill:#FFFFFF;stroke:#45413C;stroke-linecap:round;stroke-linejoin:round;stroke-miterlimit:10;} .st16{fill:#E5F8FF;} .st17{fill:#FFFFFF;} .st18{fill:#E8F4FA;} .st19{fill:#E8F4FA;stroke:#45413C;stroke-linecap:round;stroke-linejoin:round;stroke-miterlimit:10;} .st20{fill:#FFCCDD;} .st21{fill:#FFB0CA;stroke:#45413C;stroke-linecap:round;stroke-linejoin:round;stroke-miterlimit:10;} .st22{fill:#FF87AF;stroke:#45413C;stroke-linecap:round;stroke-linejoin:round;stroke-miterlimit:10;} .st23{fill:#E5F8FF;stroke:#45413C;stroke-linecap:round;stroke-linejoin:round;stroke-miterlimit:10;} .st24{fill:#BF8256;stroke:#45413C;stroke-linecap:round;stroke-linejoin:round;stroke-miterlimit:10;} .st25{fill:#9CEB60;} .st26{fill:#6DD627;} .st27{fill:#C8FFA1;} .st28{fill:#FFFACF;} .st29{fill:#FF87AF;} .st30{fill:#FFB0CA;} .st31{fill:#FF6196;} .st32{fill:#FFCCDD;stroke:#45413C;stroke-linecap:round;stroke-linejoin:round;stroke-miterlimit:10;} .st33{fill:#FF6196;stroke:#45413C;stroke-linecap:round;stroke-linejoin:round;stroke-miterlimit:10;} .st34{fill:#FFE5EE;} .st35{fill:#00B8F0;} .st36{fill:#4ACFFF;} .st37{fill:#BF8256;} .st38{fill:#DEA47A;} .st39{fill:#915E3A;} .st40{fill:#FFF5E3;} .st41{fill:#F0F0F0;} .st42{fill:#8CA4B8;} .st43{fill:#627B8C;} .st44{fill:#C0DCEB;} .st45{fill:#FFF48C;} .st46{fill:#FFE500;stroke:#45413C;stroke-linecap:round;stroke-linejoin:round;stroke-miterlimit:10;} .st47{fill:#FFAA54;} .st48{fill:#6DD627;stroke:#45413C;stroke-linecap:round;stroke-linejoin:round;stroke-miterlimit:10;} .st49{fill:#FF8A14;} .st50{fill:#FFCC99;} .st51{fill:#EBCB00;stroke:#45413C;stroke-linecap:round;stroke-linejoin:round;stroke-miterlimit:10;} .st52{fill:#00F5BC;stroke:#45413C;stroke-linecap:round;stroke-linejoin:round;stroke-miterlimit:10;} .st53{fill:#BF8DF2;stroke:#45413C;stroke-linecap:round;stroke-linejoin:round;stroke-miterlimit:10;} .st54{fill:#FF8A14;stroke:#45413C;stroke-linecap:round;stroke-linejoin:round;stroke-miterlimit:10;} .st55{fill:#4AEFF7;stroke:#45413C;stroke-linecap:round;stroke-linejoin:round;stroke-miterlimit:10;} .st56{fill:#FFF48C;stroke:#45413C;stroke-linecap:round;stroke-linejoin:round;stroke-miterlimit:10;} .st57{fill:#FF6242;} .st58{fill:#E04122;} .st59{fill:#46B000;} .st60{fill:none;stroke:#45413C;stroke-miterlimit:10;} .st61{fill:#00B8F0;stroke:#45413C;stroke-linecap:round;stroke-linejoin:round;stroke-miterlimit:10;} .st62{fill:#FF866E;} .st63{fill:#9F5AE5;stroke:#45413C;stroke-linecap:round;stroke-linejoin:round;stroke-miterlimit:10;} .st64{fill:#E4FFD1;} .st65{fill:#FFFEF2;} .st66{fill:#B89558;} .st67{fill:none;stroke:#915E3A;stroke-linecap:round;stroke-linejoin:round;stroke-miterlimit:10;} .st68{fill:#915E3A;stroke:#45413C;stroke-linecap:round;stroke-linejoin:round;stroke-miterlimit:10;} .st69{fill:#BF8DF2;} .st70{fill:#9F5AE5;} .st71{fill:#DABFF5;} .st72{fill:none;stroke:#45413C;stroke-linejoin:round;stroke-miterlimit:10;} .st73{fill:#656769;} .st74{fill:#87898C;} .st75{fill:#E0E0E0;} .st76{fill:#BDBEC0;} .st77{fill:#656769;stroke:#45413C;stroke-linecap:round;stroke-linejoin:round;stroke-miterlimit:10;} .st78{fill:#45413C;stroke:#45413C;stroke-linecap:round;stroke-linejoin:round;stroke-miterlimit:10;} .st79{fill:#FFA694;} .st80{fill:#E04122;stroke:#45413C;stroke-linecap:round;stroke-linejoin:round;stroke-miterlimit:10;} .st81{fill:#E0E0E0;stroke:#45413C;stroke-linecap:round;stroke-linejoin:round;stroke-miterlimit:10;} .st82{fill:#F0F0F0;stroke:#45413C;stroke-linecap:round;stroke-linejoin:round;stroke-miterlimit:10;} .st83{fill:#DAEDF7;} .st84{fill:#BDBEC0;stroke:#45413C;stroke-linecap:round;stroke-linejoin:round;stroke-miterlimit:10;} .st85{fill:#87898C;stroke:#45413C;stroke-linecap:round;stroke-linejoin:round;stroke-miterlimit:10;} .st86{fill:#00DFEB;} .st87{fill:#4AEFF7;} .st88{fill:#DAEDF7;stroke:#45413C;stroke-linecap:round;stroke-linejoin:round;stroke-miterlimit:10;} .st89{fill:#FFDA8F;} .st90{fill:#FFBE3D;} .st91{fill:#FFE9BD;} .st92{fill:#DEA47A;stroke:#45413C;stroke-linecap:round;stroke-linejoin:round;stroke-miterlimit:10;} .st93{fill:#45413C;} .st94{fill:#F0C2A1;} .st95{fill:none;stroke:#45413C;stroke-width:1.0064;stroke-linecap:round;stroke-linejoin:round;stroke-miterlimit:10;} .st96{fill:#525252;} .st97{fill:#EB6D00;stroke:#45413C;stroke-linecap:round;stroke-linejoin:round;stroke-miterlimit:10;} .st98{fill:#EB6D00;} .st99{fill:#E5FEFF;} .st100{fill:#FF866E;stroke:#45413C;stroke-linecap:round;stroke-linejoin:round;stroke-miterlimit:10;} .st101{fill:#627B8C;stroke:#45413C;stroke-linecap:round;stroke-linejoin:round;stroke-miterlimit:10;} .st102{fill:#FFFCE5;stroke:#45413C;stroke-linecap:round;stroke-linejoin:round;stroke-miterlimit:10;} .st103{fill:#A6FBFF;} .st104{fill:#D9FDFF;} .st105{fill:#FFFACF;stroke:#45413C;stroke-linecap:round;stroke-linejoin:round;stroke-miterlimit:10;} .st106{fill:#B8ECFF;} .st107{fill:#FFCABF;} .st108{fill:#E5FFF9;} .st109{fill:#C8FFA1;stroke:#45413C;stroke-linecap:round;stroke-linejoin:round;stroke-miterlimit:10;} .st110{fill:#4CF4FC;} .st111{fill:#F0D5A8;stroke:#45413C;stroke-linecap:round;stroke-linejoin:round;stroke-miterlimit:10;} .st112{fill:#FFDCD1;stroke:#45413C;stroke-linecap:round;stroke-linejoin:round;stroke-miterlimit:10;} .st113{fill:#80DDFF;} .st114{fill:#46B000;stroke:#45413C;stroke-linecap:round;stroke-linejoin:round;stroke-miterlimit:10;} .st115{fill:#4ACFFF;stroke:#45413C;stroke-linecap:round;stroke-linejoin:round;stroke-miterlimit:10;} .st116{fill:#ADC4D9;} .st117{fill:#BDBEC0;stroke:#45413C;stroke-width:1.0064;stroke-linecap:round;stroke-linejoin:round;stroke-miterlimit:10;} .st118{fill:#FFFCE5;} .st119{fill:#947746;} .st120{fill:#525252;stroke:#45413C;stroke-linecap:round;stroke-linejoin:round;stroke-miterlimit:10;}</style><symbol id="New_Symbol_14" viewBox="-6.5 -6.5 13 13"><path class="st0" d="M0-6c2.2 0 4.1 1.5 4.7 3.5C6.3-2.5 6.4 0 5 0v1c0 2.8-2.2 5-5 5s-5-2.2-5-5V0c-1.4 0-1.3-2.5.2-2.5C-4.1-4.5-2.2-6 0-6z" fill="#FFD4C3" stroke="#504B46" stroke-linecap="round" stroke-linejoin="round" stroke-miterlimit="10"/><circle class="st1" cx="-1.6" cy="-0.1" r="0.1" fill="#FFC258"/><path class="st2" d="M-1.6.5c-.3 0-.6-.3-.6-.6s.2-.7.6-.7c.3 0 .6.3.6.7s-.3.6-.6.6z" fill="#4F4B45"/><circle class="st1" cx="1.6" cy="-0.1" r="0.1" fill="#FFC258"/><path class="st2" d="M1.6.5C1.3.5 1 .2 1-.1s.3-.6.6-.6.6.3.6.6-.2.6-.6.6z" fill="#4F4B45"/><circle class="st3" cx="-3" cy="-1.5" r="0.5" fill="#FABFA5"/><circle class="st3" cx="3" cy="-1.5" r="0.5" fill="#FABFA5"/><path class="st4" d="M-1.2-3c.8-.5 1.7-.5 2.5 0" fill="none" stroke="#504B46" stroke-linecap="round" stroke-linejoin="round" stroke-miterlimit="10"/></symbol><g id="Icons"><g id="XMLID_1822_"><path id="XMLID_2101_" class="st49" d="M35.4 2.3c-5.5-3.4-13.1-1-17.1 5.4-.2.4-.4.7-.6 1.1-.1.1-.1.2-.2.3-.1.3-.3.6-.4.8l-.3.9c0 .1 0 .1-.1.2-.6 1.8-.9 3.7-.7 5.5.1 5.3 2 10.2-.4 14.2-1 1.6-1.8 2.8-1.8 2.8l3.2 2s.8-1.3 1.8-2.8c2.5-4 7.7-4.4 12.5-6.7 1.7-.7 3.2-1.7 4.6-3.1l.1-.1.7-.7c.2-.2.4-.5.6-.7.1-.1.1-.2.2-.3.2-.3.5-.7.7-1 3.9-6.4 2.7-14.4-2.8-17.8zM18.3 29.9c.9-2.9.6-6.3.6-6.3s1 1.1 2.2 1.8c1.2.7 2.6 1.1 2.6 1.1s-3.1 1.3-5.4 3.4z" fill="#FF8A14"/><g id="XMLID_2099_"><path id="XMLID_2100_" class="st47" d="M16.1 17.3c.1-1.2.3-2.4.7-3.5 0-.1 0-.1.1-.2l.3-.9c.1-.3.2-.5.4-.8 0-.1.1-.2.2-.3.2-.4.4-.7.6-1.1C22.3 4.1 30 1.7 35.5 5.1c2.9 1.8 4.6 4.9 5 8.4.5-4.6-1.3-8.9-5-11.2-5.5-3.4-13.1-1-17.1 5.4-.2.4-.4.7-.6 1.1-.1.1-.1.2-.2.3-.1.3-.3.6-.4.8l-.3.9c0 .1 0 .1-.1.2-.6 1.8-.9 3.7-.7 5.5v.8z" fill="#FFAA54"/></g><path id="XMLID_2096_" class="st95" d="M35.4 2.3c-5.5-3.4-13.1-1-17.1 5.4-.2.4-.4.7-.6 1.1-.1.1-.1.2-.2.3-.1.3-.3.6-.4.8l-.3.9c0 .1 0 .1-.1.2-.6 1.8-.9 3.7-.7 5.5.1 5.3 2 10.2-.4 14.2-1 1.6-1.8 2.8-1.8 2.8l3.2 2s.8-1.3 1.8-2.8c2.5-4 7.7-4.4 12.5-6.7 1.7-.7 3.2-1.7 4.6-3.1l.1-.1.7-.7c.2-.2.4-.5.6-.7.1-.1.1-.2.2-.3.2-.3.5-.7.7-1 3.9-6.4 2.7-14.4-2.8-17.8zM18.3 29.9c.9-2.9.6-6.3.6-6.3s1 1.1 2.2 1.8c1.2.7 2.6 1.1 2.6 1.1s-3.1 1.3-5.4 3.4z" fill="none" stroke="#45413C" stroke-linecap="round" stroke-linejoin="round" stroke-miterlimit="10" stroke-width="1.0064"/><ellipse id="XMLID_2095_" class="st5" cx="22.6" cy="45.6" rx="13.5" ry="1.6" fill="#45413C" opacity="0.15"/><ellipse id="XMLID_2094_" transform="matrix(0.5273 -0.8497 0.8497 0.5273 1.5858 30.5614)" class="st17" cx="28.3" cy="13.9" rx="10.7" ry="8.9" fill="#FFF"/><path id="XMLID_2093_" class="st75" d="M20.7 11.8c3.1-5 9-7 13.2-4.4 2.1 1.3 3.4 3.6 3.7 6.1.4-3.6-.9-7-3.7-8.7-4.2-2.6-10.1-.6-13.2 4.4-1.5 2.5-2.1 5.2-1.8 7.7.2-1.7.8-3.5 1.8-5.1z" fill="#E0E0E0"/><ellipse id="XMLID_2092_" transform="matrix(0.5273 -0.8497 0.8497 0.5273 1.5858 30.5614)" class="st95" cx="28.3" cy="13.9" rx="10.7" ry="8.9" fill="none" stroke="#45413C" stroke-linecap="round" stroke-linejoin="round" stroke-miterlimit="10" stroke-width="1.0064"/><path id="XMLID_2091_" class="st74" d="M12 44.5L8 42l6.6-10.7c.3-.4.8-.6 1.3-.3l2.4 1.5c.4.3.6.8.3 1.3L12 44.5z" fill="#87898C"/><path id="XMLID_2090_" class="st76" d="M17.2 31.7L16 31c-.4-.3-1-.1-1.3.3L8.1 42l2 1.2 7.1-11.5z" fill="#BDBEC0"/><path id="XMLID_2089_" class="st95" d="M12 44.5L8 42l6.6-10.7c.3-.4.8-.6 1.3-.3l2.4 1.5c.4.3.6.8.3 1.3L12 44.5z" fill="none" stroke="#45413C" stroke-linecap="round" stroke-linejoin="round" stroke-miterlimit="10" stroke-width="1.0064"/><path id="XMLID_2086_" class="st74" d="M11.1 45L8 43c-.4-.3-.6-.8-.3-1.3l.2-.4c.3-.4.8-.6 1.3-.3l3.2 2c.4.3.6.8.3 1.3l-.2.4c-.4.4-.9.6-1.4.3z" fill="#87898C"/><path id="XMLID_2087_" class="st76" d="M9.7 43.3l.4-.7c.2-.3.5-.5.9-.5L9.2 41c-.4-.3-1-.1-1.3.3l-.2.4c-.3.4-.1 1 .3 1.3l1.6 1c-.1-.2-.1-.5.1-.7z" fill="#BDBEC0"/><path id="XMLID_2085_" class="st95" d="M11.1 45L8 43c-.4-.3-.6-.8-.3-1.3l.2-.4c.3-.4.8-.6 1.3-.3l3.2 2c.4.3.6.8.3 1.3l-.2.4c-.4.4-.9.6-1.4.3z" fill="none" stroke="#45413C" stroke-linecap="round" stroke-linejoin="round" stroke-miterlimit="10" stroke-width="1.0064"/><path id="XMLID_1738_" class="st95" fill="none" stroke="#45413C" stroke-linecap="round" stroke-linejoin="round" stroke-miterlimit="10" stroke-width="1.0064" d="M33.9 4.7L22.6 23"/><path id="XMLID_1737_" class="st95" fill="none" stroke="#45413C" stroke-linecap="round" stroke-linejoin="round" stroke-miterlimit="10" stroke-width="1.0064" d="M29.7 3.6l-10 16.1"/><path id="XMLID_1736_" class="st95" fill="none" stroke="#45413C" stroke-linecap="round" stroke-linejoin="round" stroke-miterlimit="10" stroke-width="1.0064" d="M36.8 8l-10 16.1"/><path id="XMLID_1735_" class="st95" fill="none" stroke="#45413C" stroke-linecap="round" stroke-linejoin="round" stroke-miterlimit="10" stroke-width="1.0064" d="M21 8.8l15 9.3"/><path id="XMLID_1734_" class="st95" fill="none" stroke="#45413C" stroke-linecap="round" stroke-linejoin="round" stroke-miterlimit="10" stroke-width="1.0064" d="M24.8 5.1l12.8 8"/><path id="XMLID_1733_" class="st95" fill="none" stroke="#45413C" stroke-linecap="round" stroke-linejoin="round" stroke-miterlimit="10" stroke-width="1.0064" d="M18.9 14.6l12.8 8"/><ellipse id="XMLID_1732_" transform="matrix(0.9528 -0.3035 0.3035 0.9528 -9.0066 11.9639)" class="st25" cx="34" cy="35" rx="3.7" ry="3.7" fill="#9CEB60"/><path id="XMLID_1731_" class="st27" d="M32.9 33.5c2-.6 4.1.5 4.7 2.4v.1c.2-.7.2-1.4 0-2.2-.6-2-2.7-3.1-4.7-2.4-1.9.6-3 2.6-2.5 4.6.3-1.2 1.2-2.1 2.5-2.5z" fill="#C8FFA1"/><ellipse id="XMLID_1730_" transform="matrix(0.9528 -0.3035 0.3035 0.9528 -9.0066 11.9639)" class="st95" cx="34" cy="35" rx="3.7" ry="3.7" fill="none" stroke="#45413C" stroke-linecap="round" stroke-linejoin="round" stroke-miterlimit="10" stroke-width="1.0064"/><path id="XMLID_1729_" class="st95" d="M35.4 31.6s-.5 1.7 0 3c.4 1.3 1.7 2.4 1.7 2.4" fill="none" stroke="#45413C" stroke-linecap="round" stroke-linejoin="round" stroke-miterlimit="10" stroke-width="1.0064"/><path id="XMLID_1728_" class="st95" d="M30.9 33s1.3 1.1 1.7 2.4c.4 1.3 0 3 0 3" fill="none" stroke="#45413C" stroke-linecap="round" stroke-linejoin="round" stroke-miterlimit="10" stroke-width="1.0064"/></g></g></svg>
