<svg xmlns="http://www.w3.org/2000/svg" version="1.1" x="0px" y="0px" viewBox="0 0 48 48" xml:space="preserve"><style type="text/css">.st0{fill:#FFD4C3;stroke:#504B46;stroke-linecap:round;stroke-linejoin:round;stroke-miterlimit:10;} .st1{fill:#FFC258;} .st2{fill:#4F4B45;} .st3{fill:#FABFA5;} .st4{fill:none;stroke:#504B46;stroke-linecap:round;stroke-linejoin:round;stroke-miterlimit:10;} .Graphic_x0020_Style{opacity:0.15;fill:#45413C;} .st5{opacity:0.15;fill:#45413C;} .st6{fill:#DEBB7E;stroke:#45413C;stroke-linecap:round;stroke-linejoin:round;stroke-miterlimit:10;} .st7{fill:#F0D5A8;} .st8{fill:#F7E5C6;} .st9{fill:#DEBB7E;} .st10{fill:none;stroke:#45413C;stroke-linecap:round;stroke-linejoin:round;stroke-miterlimit:10;} .st11{fill:#FFE500;} .st12{fill:#EBCB00;} .st13{fill:none;stroke:#EBCB00;stroke-linecap:round;stroke-linejoin:round;stroke-miterlimit:10;} .st14{fill:#FF6242;stroke:#45413C;stroke-linecap:round;stroke-linejoin:round;stroke-miterlimit:10;} .st15{fill:#FFFFFF;stroke:#45413C;stroke-linecap:round;stroke-linejoin:round;stroke-miterlimit:10;} .st16{fill:#E5F8FF;} .st17{fill:#FFFFFF;} .st18{fill:#E8F4FA;} .st19{fill:#E8F4FA;stroke:#45413C;stroke-linecap:round;stroke-linejoin:round;stroke-miterlimit:10;} .st20{fill:#FFCCDD;} .st21{fill:#FFB0CA;stroke:#45413C;stroke-linecap:round;stroke-linejoin:round;stroke-miterlimit:10;} .st22{fill:#FF87AF;stroke:#45413C;stroke-linecap:round;stroke-linejoin:round;stroke-miterlimit:10;} .st23{fill:#E5F8FF;stroke:#45413C;stroke-linecap:round;stroke-linejoin:round;stroke-miterlimit:10;} .st24{fill:#BF8256;stroke:#45413C;stroke-linecap:round;stroke-linejoin:round;stroke-miterlimit:10;} .st25{fill:#9CEB60;} .st26{fill:#6DD627;} .st27{fill:#C8FFA1;} .st28{fill:#FFFACF;} .st29{fill:#FF87AF;} .st30{fill:#FFB0CA;} .st31{fill:#FF6196;} .st32{fill:#FFCCDD;stroke:#45413C;stroke-linecap:round;stroke-linejoin:round;stroke-miterlimit:10;} .st33{fill:#FF6196;stroke:#45413C;stroke-linecap:round;stroke-linejoin:round;stroke-miterlimit:10;} .st34{fill:#FFE5EE;} .st35{fill:#00B8F0;} .st36{fill:#4ACFFF;} .st37{fill:#BF8256;} .st38{fill:#DEA47A;} .st39{fill:#915E3A;} .st40{fill:#FFF5E3;} .st41{fill:#F0F0F0;} .st42{fill:#8CA4B8;} .st43{fill:#627B8C;} .st44{fill:#C0DCEB;} .st45{fill:#FFF48C;} .st46{fill:#FFE500;stroke:#45413C;stroke-linecap:round;stroke-linejoin:round;stroke-miterlimit:10;} .st47{fill:#FFAA54;} .st48{fill:#6DD627;stroke:#45413C;stroke-linecap:round;stroke-linejoin:round;stroke-miterlimit:10;} .st49{fill:#FF8A14;} .st50{fill:#FFCC99;} .st51{fill:#EBCB00;stroke:#45413C;stroke-linecap:round;stroke-linejoin:round;stroke-miterlimit:10;} .st52{fill:#00F5BC;stroke:#45413C;stroke-linecap:round;stroke-linejoin:round;stroke-miterlimit:10;} .st53{fill:#BF8DF2;stroke:#45413C;stroke-linecap:round;stroke-linejoin:round;stroke-miterlimit:10;} .st54{fill:#FF8A14;stroke:#45413C;stroke-linecap:round;stroke-linejoin:round;stroke-miterlimit:10;} .st55{fill:#4AEFF7;stroke:#45413C;stroke-linecap:round;stroke-linejoin:round;stroke-miterlimit:10;} .st56{fill:#FFF48C;stroke:#45413C;stroke-linecap:round;stroke-linejoin:round;stroke-miterlimit:10;} .st57{fill:#FF6242;} .st58{fill:#E04122;} .st59{fill:#46B000;} .st60{fill:none;stroke:#45413C;stroke-miterlimit:10;} .st61{fill:#00B8F0;stroke:#45413C;stroke-linecap:round;stroke-linejoin:round;stroke-miterlimit:10;} .st62{fill:#FF866E;} .st63{fill:#9F5AE5;stroke:#45413C;stroke-linecap:round;stroke-linejoin:round;stroke-miterlimit:10;} .st64{fill:#E4FFD1;} .st65{fill:#FFFEF2;} .st66{fill:#B89558;} .st67{fill:none;stroke:#915E3A;stroke-linecap:round;stroke-linejoin:round;stroke-miterlimit:10;} .st68{fill:#915E3A;stroke:#45413C;stroke-linecap:round;stroke-linejoin:round;stroke-miterlimit:10;} .st69{fill:#BF8DF2;} .st70{fill:#9F5AE5;} .st71{fill:#DABFF5;} .st72{fill:none;stroke:#45413C;stroke-linejoin:round;stroke-miterlimit:10;} .st73{fill:#656769;} .st74{fill:#87898C;} .st75{fill:#E0E0E0;} .st76{fill:#BDBEC0;} .st77{fill:#656769;stroke:#45413C;stroke-linecap:round;stroke-linejoin:round;stroke-miterlimit:10;} .st78{fill:#45413C;stroke:#45413C;stroke-linecap:round;stroke-linejoin:round;stroke-miterlimit:10;} .st79{fill:#FFA694;} .st80{fill:#E04122;stroke:#45413C;stroke-linecap:round;stroke-linejoin:round;stroke-miterlimit:10;} .st81{fill:#E0E0E0;stroke:#45413C;stroke-linecap:round;stroke-linejoin:round;stroke-miterlimit:10;} .st82{fill:#F0F0F0;stroke:#45413C;stroke-linecap:round;stroke-linejoin:round;stroke-miterlimit:10;} .st83{fill:#DAEDF7;} .st84{fill:#BDBEC0;stroke:#45413C;stroke-linecap:round;stroke-linejoin:round;stroke-miterlimit:10;} .st85{fill:#87898C;stroke:#45413C;stroke-linecap:round;stroke-linejoin:round;stroke-miterlimit:10;} .st86{fill:#00DFEB;} .st87{fill:#4AEFF7;} .st88{fill:#DAEDF7;stroke:#45413C;stroke-linecap:round;stroke-linejoin:round;stroke-miterlimit:10;} .st89{fill:#FFDA8F;} .st90{fill:#FFBE3D;} .st91{fill:#FFE9BD;} .st92{fill:#DEA47A;stroke:#45413C;stroke-linecap:round;stroke-linejoin:round;stroke-miterlimit:10;} .st93{fill:#45413C;} .st94{fill:#F0C2A1;} .st95{fill:none;stroke:#45413C;stroke-width:1.0064;stroke-linecap:round;stroke-linejoin:round;stroke-miterlimit:10;} .st96{fill:#525252;} .st97{fill:#EB6D00;stroke:#45413C;stroke-linecap:round;stroke-linejoin:round;stroke-miterlimit:10;} .st98{fill:#EB6D00;} .st99{fill:#E5FEFF;} .st100{fill:#FF866E;stroke:#45413C;stroke-linecap:round;stroke-linejoin:round;stroke-miterlimit:10;} .st101{fill:#627B8C;stroke:#45413C;stroke-linecap:round;stroke-linejoin:round;stroke-miterlimit:10;} .st102{fill:#FFFCE5;stroke:#45413C;stroke-linecap:round;stroke-linejoin:round;stroke-miterlimit:10;} .st103{fill:#A6FBFF;} .st104{fill:#D9FDFF;} .st105{fill:#FFFACF;stroke:#45413C;stroke-linecap:round;stroke-linejoin:round;stroke-miterlimit:10;} .st106{fill:#B8ECFF;} .st107{fill:#FFCABF;} .st108{fill:#E5FFF9;} .st109{fill:#C8FFA1;stroke:#45413C;stroke-linecap:round;stroke-linejoin:round;stroke-miterlimit:10;} .st110{fill:#4CF4FC;} .st111{fill:#F0D5A8;stroke:#45413C;stroke-linecap:round;stroke-linejoin:round;stroke-miterlimit:10;} .st112{fill:#FFDCD1;stroke:#45413C;stroke-linecap:round;stroke-linejoin:round;stroke-miterlimit:10;} .st113{fill:#80DDFF;} .st114{fill:#46B000;stroke:#45413C;stroke-linecap:round;stroke-linejoin:round;stroke-miterlimit:10;} .st115{fill:#4ACFFF;stroke:#45413C;stroke-linecap:round;stroke-linejoin:round;stroke-miterlimit:10;} .st116{fill:#ADC4D9;} .st117{fill:#BDBEC0;stroke:#45413C;stroke-width:1.0064;stroke-linecap:round;stroke-linejoin:round;stroke-miterlimit:10;} .st118{fill:#FFFCE5;} .st119{fill:#947746;} .st120{fill:#525252;stroke:#45413C;stroke-linecap:round;stroke-linejoin:round;stroke-miterlimit:10;}</style><symbol id="New_Symbol_14" viewBox="-6.5 -6.5 13 13"><path class="st0" d="M0-6c2.2 0 4.1 1.5 4.7 3.5C6.3-2.5 6.4 0 5 0v1c0 2.8-2.2 5-5 5s-5-2.2-5-5V0c-1.4 0-1.3-2.5.2-2.5C-4.1-4.5-2.2-6 0-6z" fill="#FFD4C3" stroke="#504B46" stroke-linecap="round" stroke-linejoin="round" stroke-miterlimit="10"/><circle class="st1" cx="-1.6" cy="-0.1" r="0.1" fill="#FFC258"/><path class="st2" d="M-1.6.5c-.3 0-.6-.3-.6-.6s.2-.7.6-.7c.3 0 .6.3.6.7s-.3.6-.6.6z" fill="#4F4B45"/><circle class="st1" cx="1.6" cy="-0.1" r="0.1" fill="#FFC258"/><path class="st2" d="M1.6.5C1.3.5 1 .2 1-.1s.3-.6.6-.6.6.3.6.6-.2.6-.6.6z" fill="#4F4B45"/><circle class="st3" cx="-3" cy="-1.5" r="0.5" fill="#FABFA5"/><circle class="st3" cx="3" cy="-1.5" r="0.5" fill="#FABFA5"/><path class="st4" d="M-1.2-3c.8-.5 1.7-.5 2.5 0" fill="none" stroke="#504B46" stroke-linecap="round" stroke-linejoin="round" stroke-miterlimit="10"/></symbol><g id="Icons"><g id="XMLID_1840_"><path id="XMLID_2674_" class="st11" d="M5.9 25.6c.7-.1 1.4.4 1.6 1l.7 1.8c.8 2 .8 4.3 0 6.3-.9 2.2-2.8 4-5.1 4.7H3c-.7.2-1.4 0-1.8-.6-.4-.6-.4-1.4.1-1.9l1-1.1c.7-.8 1.2-1.6 1.6-2.5.6-1.5.8-3.1.6-4.7l-.1-1.1c-.2-1 .5-1.8 1.5-1.9z" fill="#FFE500"/><g id="XMLID_2671_"><path id="XMLID_2673_" class="st45" d="M4.5 28.6v.5c.3-.5.7-.8 1.3-.9.7-.1 1.4.4 1.6 1l.8 1.8c.3.6.4 1.2.5 1.9.2-1.5.1-3-.5-4.4l-.7-1.8c-.3-.7-.9-1.1-1.6-1-.9.1-1.6.9-1.5 1.9l.1 1z" fill="#FFF48C"/><path id="XMLID_2672_" class="st45" d="M1.6 39.2l.7-.8c.6-.8 1.2-1.6 1.5-2.5.6-1.5.8-3.1.6-4.7v-.1c-.1.8-.3 1.5-.6 2.2-.3.9-.8 1.7-1.5 2.5l-1 1.1c-.5.5-.5 1.3-.1 1.9.2.1.3.3.4.4z" fill="#FFF48C"/></g><path id="XMLID_2670_" class="st10" d="M5.9 25.6c.7-.1 1.4.4 1.6 1l.7 1.8c.8 2 .8 4.3 0 6.3-.9 2.2-2.8 4-5.1 4.7H3c-.7.2-1.4 0-1.8-.6-.4-.6-.4-1.4.1-1.9l1-1.1c.7-.8 1.2-1.6 1.6-2.5.6-1.5.8-3.1.6-4.7l-.1-1.1c-.2-1 .5-1.8 1.5-1.9z" fill="none" stroke="#45413C" stroke-linecap="round" stroke-linejoin="round" stroke-miterlimit="10"/><path id="XMLID_2669_" class="st10" fill="none" stroke="#45413C" stroke-linecap="round" stroke-linejoin="round" stroke-miterlimit="10" d="M5.6 25.6l-.7-1.7"/><path id="XMLID_2668_" class="st10" fill="none" stroke="#45413C" stroke-linecap="round" stroke-linejoin="round" stroke-miterlimit="10" d="M6.6 23.2l-3.5 1.4"/><path id="XMLID_2667_" class="st37" d="M19.4 43.6h8.8c8.7 0 16.4-5.9 18.5-14.4 1.3-5.4-1.3-10.9-6.3-13.3-3.7-1.8-8.1-.4-10.2 3.1-.5.9-.2 2.1.7 2.6.9.6 2.1.2 2.6-.7.9-1.7 3-2.3 4.7-1.6 3.5 1.5 5.4 5.4 4.4 9.1C41 35 35 39.6 28.1 39.6h-8l-.7 4z" fill="#BF8256"/><g id="XMLID_2664_"><path id="XMLID_2666_" class="st38" d="M20 41.8h8c6.9 0 12.9-4.6 14.6-11.3.3-1 .3-2 .2-3 0 .3-.1.6-.2.8C41 35 35 39.6 28.1 39.6h-8l-.7 3.9h.4l.2-1.7z" fill="#DEA47A"/><path id="XMLID_2665_" class="st38" d="M40.4 18c3.8 1.8 6.2 5.4 6.6 9.4.4-4.8-2.1-9.4-6.6-11.6-3.7-1.8-8.1-.4-10.2 3.1-.4.7-.3 1.5.1 2.1 2.1-3.4 6.4-4.7 10.1-3z" fill="#DEA47A"/></g><path id="XMLID_2663_" class="st10" d="M19.4 43.6h8.8c8.7 0 16.4-5.9 18.5-14.4 1.3-5.4-1.3-10.9-6.3-13.3-3.7-1.8-8.1-.4-10.2 3.1-.5.9-.2 2.1.7 2.6.9.6 2.1.2 2.6-.7.9-1.7 3-2.3 4.7-1.6 3.5 1.5 5.4 5.4 4.4 9.1C41 35 35 39.6 28.1 39.6h-8l-.7 4z" fill="none" stroke="#45413C" stroke-linecap="round" stroke-linejoin="round" stroke-miterlimit="10"/><path id="XMLID_2662_" class="st37" d="M30.7 30.2C29.1 21.9 21.9 16 13.5 16v12l-4.3-.8c-1.6-.3-2.9 1.2-2.4 2.7.2.8.9 1.4 1.7 1.5l5 .8v2.4c-1 1-1.6 2.5-1.5 4.1l.1 1h-.8c-1.7 0-3 1.6-2.7 3.2.1.5.5.8 1 .8h14.1c4.2 0 7.6-3.4 7.6-7.6-.1-2.1-.3-4-.6-5.9z" fill="#BF8256"/><ellipse id="XMLID_2661_" class="st5" cx="20" cy="44.3" rx="18" ry="1.5" fill="#45413C" opacity="0.15"/><path id="XMLID_1098_" class="st39" d="M13.5 25.8c4.5 0 8.4-2.7 10.2-6.5-2.9-2.1-6.4-3.3-10.2-3.3v9.8z" fill="#915E3A"/><path id="XMLID_1097_" class="st10" d="M30.7 30.2C29.1 21.9 21.9 16 13.5 16v12l-4.3-.8c-1.6-.3-2.9 1.2-2.4 2.7.2.8.9 1.4 1.7 1.5l5 .8v2.4c-1 1-1.6 2.5-1.5 4.1l.1 1h-.8c-1.7 0-3 1.6-2.7 3.2.1.5.5.8 1 .8h14.1c4.2 0 7.6-3.4 7.6-7.6-.1-2.1-.3-4-.6-5.9z" fill="none" stroke="#45413C" stroke-linecap="round" stroke-linejoin="round" stroke-miterlimit="10"/><path id="XMLID_1096_" class="st37" d="M22 8.7h-.2c-.9-3.8-4.3-6.6-8.3-6.6S6.1 5 5.2 8.8H5c-1.8 0-3.3 1.5-3.3 3.3v.7c0 1.8 1.5 3.3 3.3 3.3h.2c.9 3.8 4.3 6.6 8.3 6.6s7.4-2.8 8.3-6.6h.2c1.8 0 3.3-1.5 3.3-3.3V12c0-1.8-1.5-3.3-3.3-3.3z" fill="#BF8256"/><path id="XMLID_1042_" class="st38" d="M22 8.7h-.2c-.9-3.8-4.3-6.6-8.3-6.6C9.4 2.2 6 5 5.2 8.8H5c-1.8 0-3.3 1.5-3.3 3.3v.7c0 .4.1.7.2 1 .4-1.3 1.7-2.3 3.1-2.3h.2c.8-3.8 4.2-6.6 8.3-6.6 4 0 7.4 2.8 8.3 6.6h.2c1.5 0 2.7 1 3.1 2.3.1-.3.2-.7.2-1V12c0-1.8-1.5-3.3-3.3-3.3z" fill="#DEA47A"/><path id="XMLID_1041_" class="st10" d="M22 8.7h-.2c-.9-3.8-4.3-6.6-8.3-6.6S6.1 5 5.2 8.8H5c-1.8 0-3.3 1.5-3.3 3.3v.7c0 1.8 1.5 3.3 3.3 3.3h.2c.9 3.8 4.3 6.6 8.3 6.6s7.4-2.8 8.3-6.6h.2c1.8 0 3.3-1.5 3.3-3.3V12c0-1.8-1.5-3.3-3.3-3.3z" fill="none" stroke="#45413C" stroke-linecap="round" stroke-linejoin="round" stroke-miterlimit="10"/><path id="XMLID_1040_" class="st112" d="M18.1 14.6c1.1 1 1.7 2.4 1.7 4 0 .5-.1.9-.2 1.3-1.5 1.6-3.7 2.6-6.1 2.6-2.8 0-5.2-1.3-6.8-3.3 0-.2-.1-.4-.1-.6 0-1.5.7-2.9 1.7-4-1-.7-1.7-1.9-1.7-3.3 0-2.2 1.8-3.9 3.9-3.9 1 0 1.9.4 2.6 1 .7-.6 1.6-1 2.6-1 2.2 0 3.9 1.8 3.9 3.9.2 1.4-.5 2.6-1.5 3.3z" fill="#FFDCD1" stroke="#45413C" stroke-linecap="round" stroke-linejoin="round" stroke-miterlimit="10"/><ellipse id="XMLID_1039_" transform="matrix(5.446588e-02 -0.9985 0.9985 5.446588e-02 4.4837 27.4946)" class="st93" cx="16.8" cy="11.4" rx="1.3" ry="1.3" fill="#45413C"/><ellipse id="XMLID_1006_" transform="matrix(5.446588e-02 -0.9985 0.9985 5.446588e-02 -1.7256 20.9374)" class="st93" cx="10.2" cy="11.4" rx="1.3" ry="1.3" fill="#45413C"/><path id="XMLID_1005_" class="st10" d="M10.8 17.9s1.1 1.3 2.6 1.3c1.6 0 2.6-1.3 2.6-1.3" fill="none" stroke="#45413C" stroke-linecap="round" stroke-linejoin="round" stroke-miterlimit="10"/><path id="XMLID_1004_" class="st10" fill="none" stroke="#45413C" stroke-linecap="round" stroke-linejoin="round" stroke-miterlimit="10" d="M13.5 27.9l3.5.6"/><path id="XMLID_1003_" class="st10" d="M20.9 24.6l1.6 4.4c.8 2.2-1.1 4.4-3.3 4l-5.7-.9" fill="none" stroke="#45413C" stroke-linecap="round" stroke-linejoin="round" stroke-miterlimit="10"/><path id="XMLID_1002_" class="st10" d="M22.4 38.8c.2-3.2-2.4-5.9-5.7-5.8-1.3.1-2.4.6-3.2 1.5" fill="none" stroke="#45413C" stroke-linecap="round" stroke-linejoin="round" stroke-miterlimit="10"/></g></g></svg>
