<?xml version="1.0" standalone="no"?>
<!DOCTYPE svg PUBLIC "-//W3C//DTD SVG 1.1//EN" "http://www.w3.org/Graphics/SVG/1.1/DTD/svg11.dtd" >
<svg xmlns="http://www.w3.org/2000/svg">
<metadata>Generated by IcoMoon</metadata>
<defs>
<font id="icomoon" horiz-adv-x="1024">
<font-face units-per-em="1024" ascent="960" descent="-64" />
<missing-glyph horiz-adv-x="1024" />
<glyph unicode="&#x20;" horiz-adv-x="512" d="" />
<glyph unicode="&#xe900;" glyph-name="export" horiz-adv-x="725" d="M0 661.333h213.333v-42.667h-213.333v42.667zM0 618.667h42.667v-640h-42.667v640zM0-21.333h725.333v-42.667h-725.333v42.667zM682.667 661.333h42.667v-682.667h-42.667v682.667zM512 661.333h170.667v-42.667h-170.667v42.667zM341.333 960h42.667v-682.667h-42.667v682.667zM298.667 917.333h42.667v-85.333h-42.667v85.333zM256 874.667h42.667v-85.333h-42.667v85.333zM213.333 832h42.667v-85.333h-42.667v85.333zM384 917.333h42.667v-85.333h-42.667v85.333zM426.667 874.667h42.667v-85.333h-42.667v85.333zM469.333 832h42.667v-85.333h-42.667v85.333z" />
<glyph unicode="&#xe901;" glyph-name="box" d="M941.146 220.326c-3.902 10.57-15.63 15.976-26.2 12.076l-212.144-78.278c-10.57-3.9-15.976-15.63-12.076-26.2 3.042-8.24 10.84-13.342 19.14-13.342 2.344 0 4.73 0.408 7.060 1.266l212.144 78.278c10.57 3.9 15.976 15.63 12.076 26.2zM670.674 120.524c-3.898 10.572-15.63 15.978-26.2 12.078l-8.984-3.314c-10.568-3.9-15.976-15.63-12.076-26.198 3.040-8.24 10.84-13.344 19.14-13.344 2.344 0 4.73 0.408 7.060 1.266l8.984 3.314c10.568 3.9 15.976 15.628 12.076 26.198zM941.146 303.448c-3.902 10.57-15.63 15.972-26.2 12.076l-167.65-61.86c-10.57-3.9-15.976-15.63-12.076-26.2 3.042-8.24 10.84-13.342 19.14-13.342 2.344 0 4.73 0.408 7.060 1.266l167.65 61.86c10.57 3.9 15.976 15.63 12.076 26.2zM941.146 385.706c-3.902 10.57-15.63 15.972-26.2 12.076l-167.65-61.86c-10.57-3.9-15.976-15.63-12.076-26.2 3.042-8.24 10.84-13.342 19.14-13.342 2.344 0 4.73 0.408 7.060 1.266l167.65 61.86c10.57 3.9 15.976 15.63 12.076 26.2zM1010.664 758.944l-491.602 181.392c-4.558 1.68-9.566 1.68-14.122 0l-491.606-181.408c-1.61-0.596-3.158-1.384-4.598-2.386-5.474-3.816-8.736-10.066-8.736-16.736v-583.612c0-8.542 5.322-16.18 13.336-19.138l491.602-181.392c2.292-0.846 4.682-1.26 7.060-1.26 2.402 0 4.792 0.436 7.056 1.272l0.008-0.012 491.602 181.392c8.014 2.958 13.336 10.594 13.336 19.138v583.612c0 8.544-5.322 16.18-13.336 19.138zM491.602 4.070l-450.806 166.34v540.126l91.792-33.872v-247.156c0-8.542 5.322-16.18 13.336-19.138l220.302-81.29c2.292-0.846 4.682-1.26 7.060-1.26 4.116 0 8.196 1.246 11.666 3.664 5.472 3.814 8.734 10.064 8.734 16.734v232.106l97.912-36.128v-540.126zM352.892 595.378v-217.886l-179.506 66.236v217.886l179.506-66.236zM211.914 691.046l161.376 59.546 161.376-59.546-161.376-59.546-161.376 59.546zM512 580.156l-80.002 29.52 168.658 62.234c8.014 2.958 13.336 10.594 13.336 19.138s-5.322 16.18-13.336 19.138l-220.304 81.288c-4.558 1.68-9.564 1.68-14.124 0l-213.462-78.768-73.44 27.1 432.674 159.648 432.674-159.65-432.674-159.648zM983.204 170.41l-450.804-166.338v540.124l450.804 166.34v-540.126z" />
<glyph unicode="&#xe902;" glyph-name="comment" d="M234.666 661.334h469.334c11.792 0 21.334 9.542 21.334 21.334s-9.542 21.334-21.334 21.334h-469.334c-11.792 0-21.334-9.542-21.334-21.334 0.002-11.794 9.544-21.334 21.334-21.334zM490.666 448h-256c-11.792 0-21.334-9.542-21.334-21.334s9.542-21.334 21.334-21.334h256c11.792 0 21.334 9.542 21.334 21.334s-9.542 21.334-21.334 21.334zM942.334 832c-1.236 0-2.434-0.31-3.666-0.368v0.368c0 47.062-38.292 85.334-85.334 85.334h-768c-47.042 0-85.334-38.272-85.334-85.334v-832c0-8.626 5.208-16.416 13.166-19.708 2.626-1.104 5.416-1.626 8.166-1.626 5.542 0 11 2.166 15.084 6.25l207.084 207.084h609.834c47.042 0 85.334 38.27 85.334 85.334v353.844l61.416 61.406c0 0 0 0 0 0.020 15.208 15.208 23.916 36.25 23.916 57.73 0 45.040-36.624 81.666-81.666 81.666zM896 277.334c0-23.52-19.126-42.666-42.666-42.666h-618.668c-5.666 0-11.084-2.25-15.084-6.25l-176.916-176.918v780.5c0 23.52 19.126 42.666 42.666 42.666h768c23.544 0 42.668-19.146 42.668-42.666v-14.572c-4.050-2.784-7.924-5.846-11.416-9.344l-232.12-232.084h-417.798c-11.792 0-21.334-9.542-21.334-21.334s9.542-21.334 21.334-21.334h383.57l-20.486-102.48c-1.416-7 0.792-14.23 5.834-19.27 4.042-4.042 9.5-6.25 15.084-6.25 1.376 0 2.792 0.146 4.166 0.416l106.626 21.334c4.166 0.834 7.958 2.854 10.916 5.834l155.624 155.6v-311.182zM714.792 467.646l-68.916-13.792 13.792 69 193.656 193.656 55.174-55.174-193.706-193.69zM969.916 722.75l-31.25-31.25-55.178 55.178 31.26 31.26c7.25 7.23 17.292 11.396 27.584 11.396 21.5 0 39-17.5 39-39 0.002-10.25-4.166-20.314-11.416-27.584z" />
<glyph unicode="&#xe903;" glyph-name="user-o" d="M419.556 861.867c-15.644-7.111-46.933-32.711-71.111-58.311-38.4-41.244-42.667-52.622-42.667-142.222 0-95.289 1.422-100.978 54.044-152.178 51.2-52.622 56.889-54.044 152.178-54.044s100.978 1.422 152.178 54.044c52.622 51.2 54.044 56.889 54.044 152.178s-1.422 100.978-52.622 152.178c-46.933 46.933-61.156 52.622-135.111 56.889-45.511 1.422-95.289-1.422-110.933-8.533zM593.067 743.822c72.533-68.267 21.333-196.267-79.644-196.267-66.844 0-115.2 45.511-115.2 112.356 0 102.4 119.467 155.022 194.844 83.911zM291.556 349.867c-15.644-7.111-46.933-32.711-71.111-58.311-38.4-39.822-42.667-55.467-48.356-157.867l-4.267-112.356h42.667c41.244 0 41.244 1.422 49.778 86.756 5.689 69.689 15.644 95.289 44.089 125.156 36.978 35.556 44.089 36.978 207.644 36.978s170.667-1.422 207.644-36.978c28.444-29.867 38.4-55.467 44.089-125.156 8.533-85.333 8.533-86.756 49.778-86.756h42.667l-5.689 113.778c-4.267 109.511-5.689 115.2-58.311 166.4l-52.622 54.044-210.489 2.844c-115.2 1.422-221.867-1.422-237.511-8.533z" />
<glyph unicode="&#xe904;" glyph-name="picture" d="M1007.445 21.333h-887.467c-9.421 0-17.067 7.646-17.067 17.067v716.8c0 9.421 7.646 17.067 17.067 17.067h887.467c9.421 0 17.067-7.646 17.067-17.067v-716.8c0-9.421-7.646-17.067-17.067-17.067zM137.045 55.467h853.333v682.667h-853.333zM119.979 123.733h-102.4c-9.421 0-17.067 7.646-17.067 17.067v716.8c0 9.421 7.646 17.067 17.067 17.067h887.467c9.421 0 17.067-7.646 17.067-17.067v-102.4c0-9.421-7.646-17.067-17.067-17.067h-768v-597.333c0-9.421-7.646-17.067-17.067-17.067zM34.645 157.867h68.267v597.333c0 9.421 7.646 17.067 17.067 17.067h768v68.267h-853.333zM1007.445 21.333h-457.011c-6.724 0-12.817 3.942-15.565 10.069s-1.655 13.312 2.816 18.33l269.278 302.933c6.468 7.287 19.029 7.287 25.515 0l187.733-211.2c2.782-3.123 4.301-7.151 4.301-11.349v-91.716c0-9.421-7.646-17.067-17.067-17.067zM588.442 55.467h401.937v68.181l-170.667 192zM550.434 21.333h-430.455c-9.421 0-17.067 7.646-17.067 17.067v283.733c0 4.181 1.536 8.209 4.318 11.349l221.867 249.6c6.468 7.287 19.029 7.287 25.515 0l341.333-384c5.751-6.468 5.751-16.213 0-22.682l-132.745-149.333c-3.243-3.652-7.885-5.734-12.766-5.734zM137.045 55.467h405.726l117.572 132.267-318.498 358.315-204.8-230.4zM700.245 448c-47.053 0-85.333 38.281-85.333 85.333s38.281 85.333 85.333 85.333 85.333-38.281 85.333-85.333-38.281-85.333-85.333-85.333zM700.245 584.533c-28.228 0-51.2-22.972-51.2-51.2s22.972-51.2 51.2-51.2 51.2 22.972 51.2 51.2-22.972 51.2-51.2 51.2z" />
<glyph unicode="&#xe905;" glyph-name="ring" d="M512.128-64c-282.805 0-512.064 229.259-512.064 512.064s229.259 512.064 512.064 512.064c282.805 0 512.064-229.259 512.064-512.064v0c-0.364-282.659-229.405-511.7-512.029-512.064h-0.035zM512.128 896.12c-247.454 0-448.056-200.602-448.056-448.056s200.602-448.056 448.056-448.056c247.454 0 448.056 200.602 448.056 448.056v0c-0.218 247.366-200.689 447.837-448.035 448.056h-0.021z" />
<glyph unicode="&#xe906;" glyph-name="squre" d="M896.176-64h-768.096c-70.701 0-128.016 57.315-128.016 128.016v0 768.096c0 70.701 57.315 128.016 128.016 128.016v0h768.096c70.701 0 128.016-57.315 128.016-128.016v0-768.096c0-70.701-57.315-128.016-128.016-128.016v0zM128.080 896.12c-35.351 0-64.008-28.657-64.008-64.008v0-768.096c0-35.351 28.657-64.008 64.008-64.008v0h768.096c35.351 0 64.008 28.657 64.008 64.008v0 768.096c0 35.351-28.657 64.008-64.008 64.008v0z" />
<glyph unicode="&#xe907;" glyph-name="check-mark" horiz-adv-x="1316" d="M332.717-28.342l-290.432 271.078c-23.933 23.979-38.733 57.081-38.733 93.64 0 73.209 59.348 132.557 132.557 132.557 33.359 0 63.841-12.323 87.14-32.665l-0.156 0.134 197.377-184.121 669.013 669.013c24.021 24.12 57.259 39.046 93.983 39.046 73.25 0 132.631-59.381 132.631-132.631 0-36.526-14.765-69.604-38.652-93.589l-750.134-750.267c-2.651-2.651-5.302-4.905-8.086-7.556-24.148-25.043-57.993-40.596-95.47-40.596-35.155 0-67.114 13.685-90.84 36.019l0.067-0.063z" />
<glyph unicode="&#xe908;" glyph-name="circle" d="M1024 448c0-282.77-229.23-512-512-512s-512 229.23-512 512c0 282.77 229.23 512 512 512s512-229.23 512-512z" />
<glyph unicode="&#xe909;" glyph-name="heart" horiz-adv-x="1205" d="M1110.575 859.271c-60.704 62.076-145.305 100.566-238.895 100.566-92.25 0-175.766-37.396-236.216-97.856l-32.598-32.598-32.598 32.598c-60.184 58.944-142.67 95.318-233.651 95.318-184.48 0-334.031-149.551-334.031-334.031 0-90.963 36.36-173.434 95.338-233.672l-0.057 0.058 417.52-417.52c22.402-22.357 53.326-36.183 87.479-36.183s65.077 13.825 87.481 36.185l414.883 414.808c61.292 61.065 99.217 145.547 99.217 238.886 0 90.656-35.776 172.957-93.98 233.553l0.108-0.113zM1061.491 430.685l-414.885-414.584c-11.205-11.17-26.666-18.076-43.739-18.076s-32.534 6.906-43.741 18.077l-417.518 417.292c-49.265 49.265-79.736 117.323-79.736 192.499 0 150.351 121.883 272.234 272.234 272.234 75.175 0 143.234-30.471 192.499-79.736v0l32.598-32.598-49.988-49.988c-5.98-5.654-9.703-13.643-9.703-22.501 0-17.088 13.853-30.941 30.941-30.941 8.858 0 16.847 3.722 22.487 9.688l0.014 0.015 126.25 126.325c49.253 49.271 117.305 79.747 192.475 79.747 76.286 0 145.241-31.388 194.655-81.953l0.051-0.052c47.275-49.318 76.382-116.376 76.382-190.233 0-76.312-31.074-145.367-81.259-195.2l-0.016-0.016zM1079.408 587.801c-7.228 113.094-84.979 206.225-189.439 236.308l-1.856 0.457c-2.754 0.756-5.916 1.19-9.179 1.19-19.874 0-35.985-16.111-35.985-35.985 0-16.277 10.807-30.030 25.637-34.475l0.255-0.066c77.148-22.2 133.562-89.792 138.793-171.312l0.029-0.56c1.223-18.877 16.832-33.724 35.91-33.727h2.259c18.842 1.264 33.647 16.858 33.647 35.909 0 0.795-0.026 1.584-0.077 2.366l0.006-0.106z" />
<glyph unicode="&#xe90a;" glyph-name="share" horiz-adv-x="932" d="M763.909 271.859c-0.042 0-0.091 0-0.141 0-53.333 0-100.85-24.901-131.559-63.711l-0.268-0.351-308.196 177.743c7.652 18.487 12.096 39.955 12.096 62.46s-4.443 43.974-12.501 63.574l0.405-1.114 308.196 177.917c30.947-38.967 78.323-63.733 131.483-63.733 92.504 0 167.493 74.989 167.493 167.493s-74.989 167.493-167.493 167.493c-92.504 0-167.493-74.989-167.493-167.493 0-22.552 4.457-44.063 12.538-63.7l-0.406 1.115-308.079-177.859c-31.019 39.265-78.632 64.237-132.077 64.237-92.729 0-167.9-75.172-167.9-167.9s75.172-167.9 167.9-167.9c53.445 0 101.058 24.971 131.808 63.883l0.269 0.353 308.196-177.917c-7.617-18.483-12.039-39.941-12.039-62.431 0-92.729 75.172-167.9 167.9-167.9s167.9 75.172 167.9 167.9c0 92.729-75.172 167.9-167.9 167.9-0.006 0-0.012 0-0.018 0h0.001zM763.909 912.478c66.451 0 120.32-53.869 120.32-120.32s-53.869-120.32-120.32-120.32c-66.43 0-120.287 53.836-120.32 120.259v0.003c0.099 66.399 53.916 120.195 120.314 120.262h0.006zM167.9 327.709c-66.401 0.066-120.203 53.91-120.203 120.32 0 66.451 53.869 120.32 120.32 120.32s120.32-53.869 120.32-120.32c0-0.020 0-0.041 0-0.061v0.003c-0.099-66.44-53.982-120.262-120.436-120.262v0zM763.851-16.361c-66.451 0-120.32 53.869-120.32 120.32s53.869 120.32 120.32 120.32c66.451 0 120.32-53.869 120.32-120.32 0-0.020 0-0.041 0-0.061v0.003c-0.099-66.379-53.883-120.162-120.252-120.262h-0.009zM122.358 506.675c-28.548-0.033-51.682-23.167-51.715-51.712v-0.003c0-9.649 7.822-17.471 17.471-17.471s17.471 7.822 17.471 17.471v0c0 9.36 7.588 16.947 16.947 16.947v0c9.649 0 17.471 7.822 17.471 17.471s-7.822 17.471-17.471 17.471v0z" />
<glyph unicode="&#xe911;" glyph-name="cross" d="M931.144-1.208c-0.008 0-0.017 0-0.026 0-9.022 0-17.192 3.646-23.118 9.545l0.001-0.001-838.615 835.256c-5.961 5.936-9.65 14.149-9.65 23.224 0 18.099 14.672 32.772 32.772 32.772 9.024 0 17.197-3.648 23.123-9.549l838.737-835.255c5.962-5.935 9.652-14.149 9.652-23.224 0-18.097-14.671-32.768-32.768-32.768-0.009 0-0.018 0-0.027 0h0.001zM92.488-1.208c-18.091 0.009-32.753 14.676-32.753 32.768 0 9.075 3.689 17.289 9.65 23.223l0.001 0.001 838.656 835.256c5.933 5.917 14.12 9.576 23.163 9.576 18.115 0 32.801-14.685 32.801-32.801 0-9.073-3.684-17.286-9.637-23.224l-0.001-0.001-838.738-835.256c-5.924-5.898-14.095-9.544-23.117-9.544-0.009 0-0.018 0-0.027 0h0.001z" />
<glyph unicode="&#xe913;" glyph-name="menu" d="M922.952 823.48h-828.744c-18.097 0-32.768 14.671-32.768 32.768s14.671 32.768 32.768 32.768v0h828.744c18.097 0 32.768-14.671 32.768-32.768s-14.671-32.768-32.768-32.768v0zM922.952 411.136h-828.744c-18.097 0-32.768 14.671-32.768 32.768s14.671 32.768 32.768 32.768v0h828.744c18.097 0 32.768-14.671 32.768-32.768s-14.671-32.768-32.768-32.768v0zM922.952-1.208h-828.744c-18.097 0-32.768 14.671-32.768 32.768s14.671 32.768 32.768 32.768v0h828.744c18.097 0 32.768-14.671 32.768-32.768s-14.671-32.768-32.768-32.768v0z" />
<glyph unicode="&#xe914;" glyph-name="clock-o" d="M511.754-24.515c-0.037 0-0.080 0-0.123 0-262.614 0-475.505 212.891-475.505 475.505s212.891 475.505 475.505 475.505c262.614 0 475.505-212.891 475.505-475.505v0c-0.303-262.449-212.942-475.132-475.345-475.505h-0.036zM511.754 860.959c-0.036 0-0.080 0-0.123 0-226.419 0-409.969-183.549-409.969-409.969s183.549-409.969 409.969-409.969c226.419 0 409.969 183.549 409.969 409.969v0c-0.256 226.273-183.582 409.642-409.814 409.969h-0.032zM809.82 382.464h-320.143c-18.097 0-32.768 14.671-32.768 32.768v0 333.373c0 18.097 14.671 32.768 32.768 32.768s32.768-14.671 32.768-32.768v0-300.605h287.375c18.097 0 32.768-14.671 32.768-32.768s-14.671-32.768-32.768-32.768v0z" />
<glyph unicode="&#xe915;" glyph-name="logout" d="M616.98 65.393c0 0-0.001 0-0.002 0-18.097 0-32.768 14.671-32.768 32.768 0 0.115 0.001 0.23 0.002 0.345v-0.017l1.188 123.208h-305.193c-18.097 0-32.768 14.671-32.768 32.768v0 390.39c0 18.097 14.671 32.768 32.768 32.768v0h303.596l0.451 123.658c0.077 18.039 14.718 32.633 32.768 32.633 9.178 0 17.475-3.773 23.424-9.853l0.006-0.006 343.286-351.478c5.768-5.901 9.327-13.983 9.327-22.897s-3.559-16.995-9.333-22.903l0.006 0.006-343.286-351.519c-5.956-6.093-14.257-9.871-23.441-9.871-0.010 0-0.020 0-0.031 0h0.002zM312.975 287.232h305.521c0 0 0.001 0 0.002 0 18.097 0 32.768-14.671 32.768-32.768 0-0.115-0.001-0.23-0.002-0.345v0.017l-0.696-74.752 263.946 270.336-265.011 271.319-0.287-76.431c0-18.097-14.671-32.768-32.768-32.768v0h-303.473zM398.664-15.913h-319.488c-18.097 0-32.768 14.671-32.768 32.768v0 865.608c0 18.097 14.671 32.768 32.768 32.768v0h301.752c18.097 0 32.768-14.671 32.768-32.768s-14.671-32.768-32.768-32.768v0h-268.984v-800.072h286.72c18.097 0 32.768-14.671 32.768-32.768s-14.671-32.768-32.768-32.768v0z" />
<glyph unicode="&#xe916;" glyph-name="plus" d="M514.744-1.208c-18.097 0-32.768 14.671-32.768 32.768v0 847.872c0 18.097 14.671 32.768 32.768 32.768s32.768-14.671 32.768-32.768v0-847.872c0-18.097-14.671-32.768-32.768-32.768v0zM938.68 422.728h-847.872c-18.097 0-32.768 14.671-32.768 32.768s14.671 32.768 32.768 32.768v0h847.872c18.097 0 32.768-14.671 32.768-32.768s-14.671-32.768-32.768-32.768v0z" />
<glyph unicode="&#xe917;" glyph-name="paper-rocket-o" d="M685.507-10.752c-14.548 0.010-26.877 9.499-31.146 22.624l-0.065 0.232-140.902 444.088-448.143 144.835c-13.28 4.386-22.694 16.684-22.694 31.181 0 14.918 9.97 27.508 23.61 31.471l0.231 0.058 854.671 242.442c2.675 0.787 5.747 1.239 8.926 1.239 18.097 0 32.768-14.671 32.768-32.768 0-3.213-0.463-6.319-1.325-9.253l0.058 0.232-244.49-852.664c-4.019-13.666-16.356-23.509-31.024-23.716h-0.024zM188.17 630.149l361.431-116.859c10.081-3.335 17.857-11.151 21.070-21.026l0.065-0.232 113.295-356.68 198.246 691.692z" />
<glyph unicode="&#xe918;" glyph-name="home" d="M864.461-11.325h-704.512c-18.097 0-32.768 14.671-32.768 32.768v0 365.117c0.046 9.795 4.383 18.568 11.225 24.543l0.039 0.033 338.944 294.912c5.72 4.993 13.253 8.038 21.498 8.038 7.818 0 14.997-2.738 20.629-7.307l-0.061 0.048 365.568-294.912c7.503-6.043 12.268-15.222 12.288-25.515v-365.12c-0.093-18.027-14.728-32.604-32.768-32.604-0.029 0-0.058 0-0.087 0h0.005zM192.717 54.211h638.976v316.662l-331.981 267.837-306.954-267.059zM645.038 19.64c-18.097 0-32.768 14.671-32.768 32.768v0 268.288h-206.766v-268.288c0-18.097-14.671-32.768-32.768-32.768s-32.768 14.671-32.768 32.768v0 301.056c0 18.097 14.671 32.768 32.768 32.768v0h272.302c18.097 0 32.768-14.671 32.768-32.768v0-301.056c0-18.097-14.671-32.768-32.768-32.768v0zM905.216 517.632c-7.946 0.002-15.231 2.833-20.903 7.539l0.054-0.044-384.655 318.013-359.014-317.317c-5.753-5.1-13.367-8.215-21.709-8.215-18.11 0-32.791 14.681-32.791 32.791 0 9.768 4.271 18.539 11.048 24.546l0.034 0.030 379.904 335.872c5.748 5.093 13.354 8.203 21.686 8.203 7.955 0 15.249-2.835 20.925-7.55l-0.054 0.043 406.528-335.872c7.298-6.054 11.911-15.125 11.911-25.273 0-18.097-14.671-32.768-32.768-32.768-0.069 0-0.138 0-0.207 0.001h0.011z" />
<glyph unicode="&#xe919;" glyph-name="categories-o" d="M425.452 499.446h-347.628c-18.097 0-32.768 14.671-32.768 32.768v0 347.505c0 18.097 14.671 32.768 32.768 32.768v0h347.505c18.097 0 32.768-14.671 32.768-32.768v0-347.505c0 0 0 0 0 0 0-18.054-14.601-32.698-32.638-32.768h-0.007zM110.592 564.982h282.092v281.969h-282.092zM948.265 499.446h-347.505c-18.097 0-32.768 14.671-32.768 32.768v0 347.505c0 18.097 14.671 32.768 32.768 32.768v0h347.505c18.097 0 32.768-14.671 32.768-32.768v0-347.505c0-18.097-14.671-32.768-32.768-32.768v0zM633.528 564.982h281.969v281.969h-281.969zM425.452-7.598h-347.628c-18.097 0-32.768 14.671-32.768 32.768v0 347.505c0 18.097 14.671 32.768 32.768 32.768v0h347.505c18.097 0 32.768-14.671 32.768-32.768v0-347.505c0 0 0 0 0 0 0-18.054-14.601-32.698-32.638-32.768h-0.007zM110.592 57.938h282.092v281.969h-282.092zM948.265-7.598h-347.505c-18.097 0-32.768 14.671-32.768 32.768v0 347.505c0 18.097 14.671 32.768 32.768 32.768v0h347.505c18.097 0 32.768-14.671 32.768-32.768v0-347.505c0-18.097-14.671-32.768-32.768-32.768v0zM633.528 57.938h281.969v281.969h-281.969z" />
<glyph unicode="&#xe91a;" glyph-name="minus" d="M947.528 411.136h-869.704c-18.097 0-32.768 14.671-32.768 32.768s14.671 32.768 32.768 32.768v0h869.704c18.097 0 32.768-14.671 32.768-32.768s-14.671-32.768-32.768-32.768v0z" />
<glyph unicode="&#xe91b;" glyph-name="pencil-edit" d="M67.338-18.248c-18.096 0.002-32.764 14.672-32.764 32.768 0 1.72 0.133 3.409 0.388 5.058l-0.023-0.184 24.207 160.891c1.122 7.254 4.48 13.576 9.336 18.389l576.555 570.862c5.925 5.901 14.097 9.549 23.122 9.549s17.197-3.648 23.123-9.55l138.853-138.853c5.962-5.935 9.651-14.149 9.651-23.224s-3.689-17.289-9.65-23.223l-0.001-0.001-576.676-570.982c-4.903-4.849-11.334-8.163-18.506-9.156l-0.171-0.019-163.103-21.996c-1.295-0.196-2.799-0.315-4.328-0.328h-0.014zM122.348 159.764l-16.097-106.947 108.913 14.705 545.341 539.976-92.529 92.529zM917.504-4.936h-436.142c-18.097 0-32.768 14.671-32.768 32.768s14.671 32.768 32.768 32.768v0h436.142c18.097 0 32.768-14.671 32.768-32.768s-14.671-32.768-32.768-32.768v0zM939.745 707.359c-0.008 0-0.017 0-0.026 0-9.042 0-17.229 3.662-23.158 9.585v0l-138.854 138.895c-5.579 5.864-9.012 13.816-9.012 22.57 0 18.097 14.671 32.768 32.768 32.768 8.754 0 16.706-3.432 22.583-9.025l-0.014 0.013 138.895-138.772c5.938-5.931 9.61-14.128 9.61-23.183 0-18.097-14.671-32.768-32.768-32.768-0.009 0-0.018 0-0.027 0h0.001z" />
<glyph unicode="&#xe91c;" glyph-name="search" d="M417.792 145.838c-217.416 0-393.667 176.251-393.667 393.667s176.251 393.667 393.667 393.667c217.416 0 393.667-176.251 393.667-393.667v0c-0.256-217.313-176.354-393.411-393.642-393.667h-0.024zM417.792 867.635c-181.222 0-328.131-146.909-328.131-328.131s146.909-328.131 328.131-328.131c181.222 0 328.131 146.909 328.131 328.131v0c-0.21 181.137-146.994 327.921-328.111 328.131h-0.020zM965.14-34.222c-8.976 0.004-17.107 3.616-23.023 9.465l-255.26 251.86c-6.023 5.946-9.753 14.2-9.753 23.327 0 18.1 14.673 32.772 32.772 32.772 8.973 0 17.105-3.607 23.023-9.449l255.259-251.737c6.011-5.943 9.734-14.19 9.734-23.306 0-18.092-14.663-32.76-32.753-32.768h-0.001z" />
<glyph unicode="&#xe91d;" glyph-name="shopping-list" d="M649.134 771.256h-583.025c-18.097 0-32.768 14.671-32.768 32.768s14.671 32.768 32.768 32.768v0h583.025c18.097 0 32.768-14.671 32.768-32.768s-14.671-32.768-32.768-32.768v0zM649.134 425.513h-583.025c-18.097 0-32.768 14.671-32.768 32.768s14.671 32.768 32.768 32.768v0h583.025c18.097 0 32.768-14.671 32.768-32.768s-14.671-32.768-32.768-32.768v0zM649.134 61.87h-583.025c-18.097 0-32.768 14.671-32.768 32.768s14.671 32.768 32.768 32.768v0h583.025c18.097 0 32.768-14.671 32.768-32.768s-14.671-32.768-32.768-32.768v0zM867.369 690.565c-62.662 0-113.459 50.797-113.459 113.459s50.797 113.459 113.459 113.459c62.662 0 113.459-50.797 113.459-113.459v0c-0.070-62.634-50.826-113.389-113.453-113.459h-0.007zM867.369 851.948c-26.467 0-47.923-21.456-47.923-47.923s21.456-47.923 47.923-47.923c26.467 0 47.923 21.456 47.923 47.923v0c-0.047 26.449-21.475 47.877-47.919 47.923h-0.004zM867.369 340.357c-62.662 0-113.459 50.797-113.459 113.459s50.797 113.459 113.459 113.459c62.662 0 113.459-50.797 113.459-113.459v0c-0.070-62.634-50.826-113.389-113.453-113.459h-0.007zM867.369 501.74c-26.467 0-47.923-21.456-47.923-47.923s21.456-47.923 47.923-47.923c26.467 0 47.923 21.456 47.923 47.923v0c-0.047 26.449-21.475 47.877-47.919 47.923h-0.004zM867.369-18.944c-62.662 0-113.459 50.797-113.459 113.459s50.797 113.459 113.459 113.459c62.662 0 113.459-50.797 113.459-113.459v0c-0.070-62.634-50.826-113.389-113.453-113.459h-0.007zM867.369 142.479c-26.467 0-47.923-21.456-47.923-47.923s21.456-47.923 47.923-47.923c26.467 0 47.923 21.456 47.923 47.923v0c0 0 0 0 0 0 0 26.484-21.446 47.958-47.919 48.005h-0.004z" />
<glyph unicode="&#xe91e;" glyph-name="shopping-list-square" d="M617.144 661.729h-403.497c-18.097 0-32.768 14.671-32.768 32.768s14.671 32.768 32.768 32.768v0h403.456c18.097 0 32.768-14.671 32.768-32.768s-14.671-32.768-32.768-32.768v0zM617.144 413.225h-403.497c-18.097 0-32.768 14.671-32.768 32.768s14.671 32.768 32.768 32.768v0h403.456c18.097 0 32.768-14.671 32.768-32.768s-14.671-32.768-32.768-32.768v0zM617.144 164.762h-403.497c-18.097 0-32.768 14.671-32.768 32.768s14.671 32.768 32.768 32.768v0h403.456c18.097 0 32.768-14.671 32.768-32.768s-14.671-32.768-32.768-32.768v0zM786.432 661.729h-2.212c-18.097 0-32.768 14.671-32.768 32.768s14.671 32.768 32.768 32.768v0h2.212c18.097 0 32.768-14.671 32.768-32.768s-14.671-32.768-32.768-32.768v0zM786.432 413.225h-2.212c-18.097 0-32.768 14.671-32.768 32.768s14.671 32.768 32.768 32.768v0h2.212c18.097 0 32.768-14.671 32.768-32.768s-14.671-32.768-32.768-32.768v0zM786.432 164.762h-2.212c-18.097 0-32.768 14.671-32.768 32.768s14.671 32.768 32.768 32.768v0h2.212c18.097 0 32.768-14.671 32.768-32.768s-14.671-32.768-32.768-32.768v0zM963.461-33.034h-905.216c-18.097 0-32.768 14.671-32.768 32.768v0 888.34c0 18.097 14.671 32.768 32.768 32.768v0h905.216c18.097 0 32.768-14.671 32.768-32.768v0-888.34c0-18.097-14.671-32.768-32.768-32.768v0zM91.013 32.502h839.68v822.804h-839.68z" />
<glyph unicode="&#xe91f;" glyph-name="trash-o" d="M892.15 800.543h-770.621c-18.097 0-32.768 14.671-32.768 32.768s14.671 32.768 32.768 32.768v0h770.621c18.097 0 32.768-14.671 32.768-32.768s-14.671-32.768-32.768-32.768v0zM586.67 851.456h-159.744c-18.097 0-32.768 14.671-32.768 32.768s14.671 32.768 32.768 32.768v0h159.744c18.097 0 32.768-14.671 32.768-32.768s-14.671-32.768-32.768-32.768v0zM817.316-36.475h-620.954c-18.097 0-32.768 14.671-32.768 32.768v0 676.618c0 18.097 14.671 32.768 32.768 32.768s32.768-14.671 32.768-32.768v0-643.85h555.418v643.85c0 18.097 14.671 32.768 32.768 32.768s32.768-14.671 32.768-32.768v0-676.618c0-18.097-14.671-32.768-32.768-32.768v0zM347.259 141.701c-18.097 0-32.768 14.671-32.768 32.768v0 365.65c0 18.097 14.671 32.768 32.768 32.768s32.768-14.671 32.768-32.768v0-365.65c0-18.097-14.671-32.768-32.768-32.768v0zM513.884 141.701c-18.097 0-32.768 14.671-32.768 32.768v0 365.65c0 18.097 14.671 32.768 32.768 32.768s32.768-14.671 32.768-32.768v-365.65c0-18.097-14.671-32.768-32.768-32.768v0zM666.624 141.701c-18.097 0-32.768 14.671-32.768 32.768v0 365.65c0 18.097 14.671 32.768 32.768 32.768s32.768-14.671 32.768-32.768v0-365.65c0-18.097-14.671-32.768-32.768-32.768v0z" />
<glyph unicode="&#xe920;" glyph-name="bike-o" d="M185.139-13.251c-93.178 0-168.714 75.536-168.714 168.714s75.536 168.714 168.714 168.714c93.178 0 168.714-75.536 168.714-168.714v0c-0.093-93.141-75.574-168.621-168.705-168.714h-0.009zM185.139 258.601c-56.984 0-103.178-46.194-103.178-103.178s46.194-103.178 103.178-103.178c56.984 0 103.178 46.194 103.178 103.178v0c-0.047 56.965-46.213 103.132-103.174 103.178h-0.005zM473.17 334.664h-191.119c-18.097 0-32.768 14.671-32.768 32.768s14.671 32.768 32.768 32.768v0h191.16c42.926 0 79.176 25.108 79.176 54.804s-36.25 54.804-79.176 54.804h-114.688c-18.097 0-32.768 14.671-32.768 32.768s14.671 32.768 32.768 32.768v0h114.688c79.79 0 144.712-53.985 144.712-120.34s-64.963-120.34-144.753-120.34zM312.074 487.404h-101.048c-0.001 0-0.002 0-0.004 0-18.097 0-32.768 14.671-32.768 32.768 0 0.173 0.001 0.345 0.004 0.518v-0.026l1.966 115.466c0.277 17.885 14.84 32.276 32.764 32.276 0.001 0 0.003 0 0.004 0h0.532c17.869-0.297 32.24-14.852 32.24-32.764 0-0.189-0.002-0.377-0.005-0.565v0.028l-1.27-82.166h67.584c18.097 0 32.768-14.671 32.768-32.768s-14.671-32.768-32.768-32.768v0zM888.832 353.792h-328.253c-18.097 0-32.768 14.671-32.768 32.768s14.671 32.768 32.768 32.768v0h328.253c27.156 0 46.039 15.483 46.039 29.368s-18.924 29.368-46.039 29.368h-320.061c-18.097 0-32.768 14.671-32.768 32.768s14.671 32.768 32.768 32.768v0h320.061c61.44 0 111.575-42.557 111.575-94.904s-50.135-94.904-111.575-94.904zM836.321-13.251c-93.178 0-168.714 75.536-168.714 168.714s75.536 168.714 168.714 168.714c93.178 0 168.714-75.536 168.714-168.714v0c-0.093-93.141-75.574-168.621-168.705-168.714h-0.009zM836.321 258.601c-56.984 0-103.178-46.194-103.178-103.178s46.194-103.178 103.178-103.178c56.984 0 103.178 46.194 103.178 103.178v0c-0.047 56.965-46.213 103.132-103.174 103.178h-0.005zM185.139 122.655c-18.096 0.001-32.766 14.672-32.766 32.768 0 3.966 0.705 7.768 1.996 11.287l-0.073-0.227 190.956 534.2c4.659 12.78 16.703 21.742 30.842 21.75h159.745c18.097 0 32.768-14.671 32.768-32.768s-14.671-32.768-32.768-32.768v0h-136.643l-183.214-512.492c-4.659-12.78-16.703-21.742-30.842-21.75h-0.001zM836.362 122.368c-14.456 0.011-26.721 9.381-31.063 22.379l-0.067 0.231-68.28 209.592c-1.040 3.057-1.64 6.578-1.64 10.24 0 18.109 14.681 32.79 32.79 32.79 14.448 0 26.713-9.344 31.083-22.319l0.068-0.231 68.28-209.674c1.024-3.033 1.614-6.527 1.614-10.158 0-18.097-14.671-32.768-32.768-32.768-0.006 0-0.012 0-0.018 0h0.001z" />
<glyph unicode="&#xe921;" glyph-name="store" d="M912.179-23.613h-803.226c-18.097 0-32.768 14.671-32.768 32.768v0 524.493c0 18.097 14.671 32.768 32.768 32.768s32.768-14.671 32.768-32.768v0-491.725h737.69v491.725c0 18.097 14.671 32.768 32.768 32.768s32.768-14.671 32.768-32.768v0-524.493c0-18.097-14.671-32.768-32.768-32.768v0zM633.446 7.352c-18.097 0-32.768 14.671-32.768 32.768v0 268.288h-186.368v-268.288c0-18.097-14.671-32.768-32.768-32.768s-32.768 14.671-32.768 32.768v0 301.056c0 18.097 14.671 32.768 32.768 32.768v0h251.904c18.097 0 32.768-14.671 32.768-32.768v0-301.056c0-18.097-14.671-32.768-32.768-32.768v0zM809.656 475.197c-61.504 0.055-115.71 31.25-147.709 78.666l-0.402 0.633c-32.427-47.98-86.626-79.107-148.094-79.107-63.509 0-119.257 33.227-150.808 83.245l-0.433 0.735c-32.001-50.718-87.736-83.917-151.224-83.917-98.351 0-178.094 79.668-178.217 177.99v228.733c0 18.097 14.671 32.768 32.768 32.768v0h889.651c18.097 0 32.768-14.671 32.768-32.768v0-228.721c-0.116-98.417-79.879-178.165-178.29-178.258h-0.009zM658.964 686.223h5.161c18.097 0 32.768-14.671 32.768-32.768v0c2.375-60.378 51.896-108.425 112.64-108.425s110.265 48.047 112.633 108.21l0.007 0.215v195.953h-823.869v-195.953c2.375-60.378 51.896-108.425 112.64-108.425s110.265 48.047 112.633 108.21l0.007 0.215c0 18.097 14.671 32.768 32.768 32.768v0h11.469c18.097 0 32.768-14.671 32.768-32.768v0c2.375-60.378 51.896-108.425 112.64-108.425s110.265 48.047 112.633 108.21l0.007 0.215c0 0 0 0.001 0 0.002 0 18.097 14.671 32.768 32.768 32.768 0.115 0 0.23-0.001 0.345-0.002h-0.017z" />
<glyph unicode="&#xe922;" glyph-name="calendar" d="M879.275 797.525c45.056 0 81.92-36.181 81.92-81.237v-648.533c0-45.056-36.864-81.92-81.92-81.92h-730.453c-44.652 0.768-80.555 37.146-80.555 81.909 0 0.004 0 0.008 0 0.012v-0.001 648.533c0 45.056 36.864 81.92 81.237 81.92h40.96v-40.96c0-45.056 35.499-81.237 80.555-81.237v243.712c2.704 20.237 19.858 35.683 40.619 35.683s37.915-15.446 40.596-35.473l0.023-0.21v-122.197h283.989v-40.96c0-44.373 36.181-80.555 81.237-80.555v243.712c2.704 20.237 19.858 35.683 40.619 35.683s37.915-15.446 40.596-35.473l0.023-0.21v-122.197zM243.029 365.397h109.227v108.544h-109.227zM460.117 148.309h109.227v108.544h-109.227zM460.117 365.397h109.227v108.544h-109.227zM677.205 148.309h108.544v108.544h-108.544zM677.205 365.397h108.544v108.544h-108.544z" />
<glyph unicode="&#xe923;" glyph-name="categories" d="M363.055 957.207h-363.055v-437.527h437.527v437.527zM74.473 594.153h288.582v288.582h-288.582zM921.6 960h-363.055v-437.527h437.527v437.527zM633.018 596.945h288.582v288.582h-288.582zM363.055 398.662h-363.055v-437.527h437.527v437.527zM74.473 35.607h288.582v288.582h-288.582zM921.6 401.455h-363.055v-437.527h437.527v437.527zM633.018 38.4h288.582v288.582h-288.582z" />
<glyph unicode="&#xe924;" glyph-name="cellphone" d="M777.59 960c50.062 0 90.697-40.635 90.697-90.697v-834.479c0-50.062-40.635-90.697-90.697-90.697h-540.607c-50.091 0-90.697 40.606-90.697 90.697v834.479c0 50.062 40.635 90.697 90.697 90.697zM216.665 34.662c0-11.215 9.102-20.317 20.317-20.317h540.607c11.378 0 20.48 9.102 20.48 20.317v118.166h-581.404zM216.665 223.045h581.404v552.635h-581.404zM236.983 889.62c-11.215 0-20.317-9.102-20.317-20.155v-23.568h581.404v23.406c0 11.378-9.102 20.317-20.48 20.317zM507.286 42.951c22.487 0 40.716 18.229 40.716 40.716s-18.229 40.716-40.716 40.716v0c-22.487 0-40.716-18.229-40.716-40.716s18.229-40.716 40.716-40.716v0z" />
<glyph unicode="&#xe925;" glyph-name="clock" d="M908.629 717.653c-85.364 145.901-241.298 242.349-419.758 242.349-0.509 0-1.018-0.001-1.526-0.002h0.079c-1.018 0.008-2.221 0.012-3.425 0.012-267.312 0-484.011-216.699-484.011-484.011 0-1.204 0.004-2.408 0.013-3.61l-0.001 0.185c-0.003-0.611-0.004-1.333-0.004-2.056 0-267.689 217.005-484.693 484.693-484.693 0.962 0 1.923 0.003 2.883 0.008l-0.148-0.001c0.61-0.003 1.331-0.004 2.052-0.004 267.689 0 484.693 217.005 484.693 484.693 0 0.722-0.002 1.443-0.005 2.164v-0.111c0 88.747-21.845 170.667-65.536 245.077zM583.68 397.483c0-6.827-2.048-12.971-6.827-17.749-4.308-4.234-10.221-6.848-16.743-6.848-0.354 0-0.706 0.008-1.056 0.023l0.050-0.002h-245.76c-6.827 0-13.653 2.731-17.749 6.827-4.234 4.308-6.848 10.221-6.848 16.743 0 0.354 0.008 0.706 0.023 1.056l-0.002-0.050v49.152c0 7.509 2.048 13.653 6.827 17.749 4.779 4.779 10.24 6.827 17.749 6.827h172.032v271.701c0 6.827 2.731 12.971 6.827 17.067 4.779 4.779 10.923 6.827 17.749 6.827h49.152c6.827 0 13.653-2.048 17.749-6.827 4.779-4.096 6.827-10.24 6.827-17.067z" />
<glyph unicode="&#xe926;" glyph-name="digits" d="M204.8 960h-64.126c-40.569-0.095-73.431-32.957-73.527-73.518v-138.501c0 0 0 0 0 0 0-40.641 32.899-73.599 73.517-73.694h64.303c40.628 0.096 73.527 33.053 73.527 73.694 0 0 0 0 0 0v0 138.492c-0.095 40.569-32.957 73.431-73.518 73.527h-0.009zM223.098 747.982c0-9.904-8.393-17.962-18.13-17.962h-64.294c-9.904 0-17.962 8.058-17.962 17.962v138.492c0 10.072 8.058 17.962 17.962 17.962h64.294c9.904 0 17.962-8.058 17.962-17.962zM696.656 674.287h64.294c40.628 0.096 73.527 33.053 73.527 73.694 0 0 0 0 0 0v0 138.492c-0.095 40.569-32.957 73.431-73.518 73.527h-64.303c-40.569-0.095-73.431-32.957-73.527-73.518v-138.501c0 0 0 0 0 0 0-40.641 32.899-73.599 73.517-73.694h0.009zM678.694 886.473c0 10.072 8.058 17.962 17.962 17.962h64.126c9.904 0 17.962-8.058 17.962-17.962v-138.492c0-9.904-8.058-17.962-17.962-17.962h-64.126c-10.072 0-17.962 8.058-17.962 17.962zM354.035 674.287h55.397v285.713h-55.397zM499.242 674.287h55.397v285.713h-55.397zM902.967 674.287h55.397v285.713h-55.397zM204.8 219.866h-64.126c-40.569-0.095-73.431-32.957-73.527-73.518v-138.669c0.095-40.569 32.957-73.431 73.518-73.527h64.303c40.569 0.095 73.431 32.957 73.527 73.518v138.669c-0.095 40.569-32.957 73.431-73.518 73.527h-0.009zM223.098 7.848c0-9.904-8.393-17.962-18.13-17.962h-64.294c-9.904 0-17.962 8.058-17.962 17.962v138.492c0 10.072 8.058 17.962 17.962 17.962h64.294c9.904 0 17.962-8.058 17.962-17.962zM760.95 219.866h-64.294c-40.569-0.095-73.431-32.957-73.527-73.518v-138.669c0.095-40.569 32.957-73.431 73.518-73.527h64.303c0.050 0 0.109 0 0.168 0 40.515 0 73.359 32.844 73.359 73.359 0 0.059 0 0.118 0 0.177v-0.009 138.66c-0.095 40.569-32.957 73.431-73.518 73.527h-0.009zM778.744 7.848c0-9.904-8.058-17.962-17.962-17.962h-64.126c-10.072 0-17.962 8.058-17.962 17.962v138.492c0 10.072 8.058 17.962 17.962 17.962h64.126c9.904 0 17.962-8.058 17.962-17.962zM902.967-65.679h55.397v285.377h-55.397zM354.035-65.679h55.397v285.377h-55.397zM499.242-65.679h55.397v285.377h-55.397zM481.448 590.017h-64.126c-40.569-0.095-73.431-32.957-73.527-73.518v-138.669c0.095-40.569 32.957-73.431 73.518-73.527h64.135c0 0 0 0 0 0 40.641 0 73.599 32.899 73.694 73.517v138.501c0 40.7-32.994 73.694-73.694 73.694v0zM499.578 377.999c0-10.072-8.058-18.13-18.13-18.13h-64.126c-10.072 0-17.962 8.058-17.962 18.13v138.324c0 10.072 8.058 18.13 17.962 18.13h64.126c10.072 0 18.13-8.058 18.13-18.13zM956.181 377.831v138.492c0 0 0 0 0 0 0 40.641-32.899 73.599-73.517 73.694h-64.303c-40.569-0.095-73.431-32.957-73.527-73.518v-138.669c0.095-40.569 32.957-73.431 73.518-73.527h64.303c40.569 0.095 73.431 32.957 73.527 73.518v0.009zM900.784 377.831c0-9.904-8.226-17.962-18.13-17.962h-64.294c-9.904 0-17.962 8.058-17.962 18.13v138.324c0 10.072 8.058 18.13 17.962 18.13h64.294c10.072 0 17.962-8.058 17.962-18.13zM209.332 304.304h55.397v285.713h-55.397zM624.472 304.304h55.397v285.713h-55.397zM69.33 304.304h55.397v285.713h-55.397z" />
<glyph unicode="&#xe927;" glyph-name="envelope" d="M884.053 87.467c21.76 0 40.96 7.253 57.173 21.333l-275.627 275.627-19.2-13.653c-20.48-15.36-37.547-27.307-50.347-35.84s-29.867-17.067-51.2-25.6c-21.333-8.96-41.387-13.653-59.733-13.653h-0.853c-18.773 0-38.4 4.267-59.733 13.227s-38.4 17.493-51.2 26.027c-27.872 18.514-50.53 34.793-72.628 51.766l3.081-2.273-275.627-275.627c16.213-14.080 34.987-21.333 56.747-21.333zM53.333 557.653c-20.829 13.913-38.888 29.533-54.821 47.115l-0.219 0.245v-419.413l243.2 243.2c-49.067 34.133-111.36 76.8-188.16 128.853zM916.907 557.653c-73.813-49.92-136.533-93.013-188.587-129.28l243.2-242.773v419.413c-15.787-17.067-34.133-33.28-54.613-46.933zM884.053 851.627h-798.72c-28.16 0-49.493-9.387-64.427-28.16s-22.613-42.667-22.613-70.827c0-22.613 9.813-46.933 29.867-73.813 17.787-24.454 38.816-45.211 62.736-62.157l0.837-0.563 110.933-77.653 87.893-60.587 54.613-38.4 8.107-5.547c27.038-18.699 41.488-29.078 55.866-39.551l-11.493 7.977 28.16-17.493c11.093-6.4 21.333-11.52 31.147-14.507 8.096-3.040 17.451-4.898 27.21-5.118l0.097-0.002h0.853c8.533 0 17.493 1.707 27.307 5.12 9.813 2.987 20.053 8.107 31.147 14.507 27.661 15.955 51.358 32.171 73.727 49.985l-1.194-0.918 8.533 5.547 54.613 38.4 198.827 138.24c26.265 18.203 48.357 40.295 66.001 65.709l0.559 0.851c17.493 26.027 26.453 53.333 26.453 81.92 0 23.893-8.533 44.373-25.6 61.44s-37.547 25.6-61.44 25.6z" />
<glyph unicode="&#xe928;" glyph-name="filter" d="M402.091-50.347c-32.424 0-58.709 26.285-58.709 58.709v0 398.677l-292.181 295.595c-10.392 10.55-16.87 24.98-17.066 40.922v157.051c0 33.451 26.624 59.392 58.709 59.392h809.643c32.768 0 59.392-25.941 59.392-58.709v-157.013c0-15.701-6.827-30.72-17.067-40.96l-292.181-296.277v-293.547c0-21.163-11.605-40.96-30.72-51.2l-191.147-105.131c-8.211-4.723-18.055-7.509-28.55-7.509-0.043 0-0.086 0-0.129 0h0.007zM152.235 768.853l291.499-296.277c10.923-10.923 17.067-25.941 17.067-40.96v-323.584l73.728 40.96v282.624c0 15.019 6.144 30.037 17.067 40.96l291.499 295.595v74.411h-690.859z" />
<glyph unicode="&#xe929;" glyph-name="map-marker" d="M508.16 926.72c-209.668-0.847-379.309-171.011-379.309-380.797 0-88.993 30.528-170.857 81.682-235.689l-0.613 0.806 298.24-375.040 298.24 375.040c50.541 64.026 81.069 145.889 81.069 234.883 0 209.786-169.641 379.95-379.228 380.797h-0.081zM508.16 387.84c-90.133 0-163.2 73.067-163.2 163.2s73.067 163.2 163.2 163.2v0c90.133 0 163.2-73.067 163.2-163.2s-73.067-163.2-163.2-163.2v0z" />
<glyph unicode="&#xe92a;" glyph-name="map-marker-add" d="M458.488-54.916c-11.231 0-21.801 4.955-29.068 13.213l-10.57 12.552c-35.345 41.29-344.526 408.609-344.526 604.986 0.282 212.055 172.11 383.884 384.139 384.165h0.027c212.089-0.282 383.955-172.090 384.33-384.129v-0.036c0-21.162-17.155-38.317-38.317-38.317s-38.317 17.155-38.317 38.317v0c-0.282 169.789-137.893 307.343-307.677 307.53h-0.018c-169.768-0.188-307.342-137.761-307.53-307.512v-0.018c0-130.312 191.587-393.745 307.53-533.141 3.303 4.129 7.267 8.588 11.231 13.708 13.048 15.855 29.399 36.501 47.897 60.449 7.077 9.083 18.016 14.869 30.307 14.869 21.165 0 38.322-17.157 38.322-38.322 0-8.874-3.016-17.043-8.079-23.538l0.064 0.086c-30.292-39.201-55.929-70.862-82.163-102.005l3.876 4.725-12.552-14.369c-7.267-8.258-17.672-13.213-28.903-13.213zM458.653 423.061c-81.352 3.901-145.834 70.807-145.834 152.774s64.481 148.873 145.485 152.761l0.349 0.013c81.352-3.901 145.834-70.807 145.834-152.774s-64.481-148.873-145.485-152.761l-0.349-0.013zM458.653 651.974c-42.096 0-76.222-34.126-76.222-76.222s34.126-76.222 76.222-76.222v0c42.096 0 76.222 34.126 76.222 76.222s-34.126 76.222-76.222 76.222v0zM912.186 223.050h-330.157c-21.162 0-38.317 17.155-38.317 38.317s17.155 38.317 38.317 38.317h330.157c21.162 0 38.317-17.155 38.317-38.317s-17.155-38.317-38.317-38.317v0zM747.025 57.889c-21.162 0-38.317 17.155-38.317 38.317v0 330.323c0 21.162 17.155 38.317 38.317 38.317s38.317-17.155 38.317-38.317v0-330.157c0-21.162-17.155-38.317-38.317-38.317v0z" />
<glyph unicode="&#xe92b;" glyph-name="map-marker-o" d="M508.036-54.916c-11.066 0-21.636 4.955-28.903 13.213l-10.735 12.387c-35.345 41.29-344.526 408.774-344.526 605.151 0.282 212.113 172.204 383.978 384.313 384.165h0.018c212.055-0.282 383.884-172.11 384.165-384.139v-0.027c0-191.092-286.885-537.435-344.361-604.986l-10.901-12.552c-7.267-8.258-17.837-13.213-29.068-13.213zM508.036 883.2c-169.711-0.188-307.248-137.667-307.53-307.338v-0.027c0-130.312 191.587-393.745 307.53-533.306 115.943 139.726 307.695 403.985 307.695 533.306-0.188 169.768-137.761 307.342-307.512 307.53h-0.018zM508.201 423.061c-81.352 3.901-145.834 70.807-145.834 152.774s64.481 148.873 145.485 152.761l0.349 0.013c81.352-3.901 145.834-70.807 145.834-152.774s-64.481-148.873-145.485-152.761l-0.349-0.013zM508.201 651.974c-1.059 0.053-2.301 0.083-3.549 0.083-42.142 0-76.305-34.163-76.305-76.305s34.163-76.305 76.305-76.305c1.248 0 2.49 0.030 3.723 0.089l-0.174-0.007c40.587 1.948 72.755 35.328 72.755 76.222s-32.169 74.274-72.581 76.215l-0.174 0.007z" />
<glyph unicode="&#xe92c;" glyph-name="orders-history" d="M867.109 751.909v-631.954c-1.434-81.455-67.604-146.984-149.173-147.383h-460.108c-81.38 0.409-147.291 66.063-148.114 147.305l-0.001 0.078v631.589h168.96c-0.005 0.553-0.008 1.207-0.008 1.861 0 113.916 92.347 206.263 206.263 206.263 1.289 0 2.575-0.012 3.858-0.035l-0.193 0.003c1.091 0.021 2.377 0.033 3.666 0.033 113.916 0 206.263-92.347 206.263-206.263 0-0.654-0.003-1.308-0.009-1.961l0.001 0.1zM488.594 901.851c-82.031-1.966-148.093-67.645-150.668-149.337l-0.006-0.24h300.983c-2.768 81.652-68.557 147.058-150.105 149.207l-0.203 0.004zM488.594 109.349c140.173 0 253.806 113.633 253.806 253.806s-113.633 253.806-253.806 253.806v0c-140.173 0-253.806-113.633-253.806-253.806s113.633-253.806 253.806-253.806v0zM515.657 495.177h-54.491v-124.343l-73.143-73.143 38.4-38.034 88.869 88.869z" />
<glyph unicode="&#xe92d;" glyph-name="paper-rocket" d="M621.909-55.808c-2.265-0.495-4.867-0.778-7.536-0.778-15.99 0-29.603 10.181-34.709 24.415l-0.081 0.257-122.88 361.813c-1.631 3.763-3.942 6.948-6.803 9.536l-0.024 0.021c-2.728 3.041-6.171 5.385-10.068 6.773l-0.172 0.053-361.131 122.88c-14.141 5.37-24.008 18.807-24.008 34.55 0 14.965 8.917 27.847 21.728 33.623l0.233 0.094 890.197 366.592c20.48 8.192 35.499-4.096 39.595-8.192s16.384-18.432 8.192-39.595l-366.592-890.197c-6.827-15.701-19.115-20.48-25.941-21.845z" />
<glyph unicode="&#xe92e;" glyph-name="shopping-basket" d="M287.086 149.577c48.475 0 87.771-39.297 87.771-87.771s-39.297-87.771-87.771-87.771v0c-48.475 0-87.771 39.297-87.771 87.771s39.297 87.771 87.771 87.771v0zM345.6 559.177h409.6v-58.514h-409.6zM1018.514 705.463l-117.029-351.086c-21.943-82.286-65.097-146.286-146.286-146.286h-438.857c-80.791 0-146.286 65.494-146.286 146.286v0l-29.257 321.829v101.669l-140.8 122.514 34.011 41.326 165.669-148.48v-87.771zM947.566 646.949h-747.886l29.257-292.571c0-48.475 39.297-87.771 87.771-87.771v0h438.857c48.274 0 75.337 37.669 87.771 87.771zM345.966 442.149h380.343v-58.514h-380.343zM755.566 149.577c48.475 0 87.771-39.297 87.771-87.771s-39.297-87.771-87.771-87.771v0c-48.475 0-87.771 39.297-87.771 87.771s39.297 87.771 87.771 87.771v0zM726.309 32.549h58.514v58.514h-58.514z" />
<glyph unicode="&#xe92f;" glyph-name="sort" d="M976.782 676.693l-188.871 184.32c-2.276 2.844-5.689 3.982-9.102 5.689l-6.258 4.551-9.671 1.707c-3.413 0.569-5.689 1.707-9.102 1.707l-5.689-1.138c-4.551 0-8.533-0.569-13.084-2.276l-4.551-3.413c-3.413-1.707-7.396-3.982-10.809-6.827l-188.871-184.32c-10.024-8.997-16.301-21.995-16.301-36.46 0-27.020 21.904-48.924 48.924-48.924 14.040 0 26.698 5.914 35.62 15.386l0.023 0.025 105.813 102.4v-596.764c0-27.020 21.904-48.924 48.924-48.924s48.924 21.904 48.924 48.924v597.333l105.813-102.969c8.836-8.749 20.996-14.155 34.42-14.155 13.705 0 26.094 5.635 34.976 14.715l0.009 0.009c8.584 8.806 13.878 20.853 13.878 34.137 0 13.848-5.753 26.352-15 35.253l-0.016 0.015zM392.533 331.378l-105.813-102.4v596.764c0 27.020-21.904 48.924-48.924 48.924s-48.924-21.904-48.924-48.924v-597.333l-105.813 103.538c-8.821 8.545-20.862 13.812-34.133 13.812-27.108 0-49.083-21.975-49.083-49.083 0-13.837 5.726-26.336 14.937-35.259l0.013-0.013 188.871-184.32c3.413-3.413 7.964-5.689 11.378-7.396l4.551-2.844c5.472-2.267 11.827-3.583 18.489-3.583s13.017 1.316 18.818 3.703l-0.329-0.12 3.982 2.844c3.982 2.276 7.964 3.982 11.378 7.396l188.871 184.32c8.226 8.733 13.281 20.533 13.281 33.514 0 27.020-21.904 48.924-48.924 48.924-12.556 0-24.007-4.73-32.669-12.505l0.046 0.040z" />
<glyph unicode="&#xe930;" glyph-name="support" d="M641.28 498.773l-180.053-180.053-89.173 89.6c-17.067 17.067-44.8 17.067-62.293 0l-179.2-180.053c-7.996-7.96-12.944-18.975-12.944-31.147s4.948-23.187 12.942-31.145l0.002-0.002 119.467-119.893c34.878-33.122 82.141-53.494 134.163-53.494 2.784 0 5.555 0.058 8.311 0.174l-0.394-0.013c116.053 0 262.4 74.24 381.867 193.28 85.333 85.333 148.053 184.32 176.64 278.187 31.147 103.253 18.347 190.72-36.693 245.333l-119.893 120.32c-17.067 17.067-45.227 17.067-62.293 0l-179.627-180.053c-7.869-7.938-12.731-18.868-12.731-30.933s4.862-22.995 12.734-30.937l-0.003 0.003zM43.947 446.72c24.32 0 43.947 19.627 43.947 43.947 0 101.973 39.68 197.547 111.787 269.653 68.644 69.051 163.692 111.788 268.723 111.788 0.327 0 0.655 0 0.982-0.001h-0.051c24.271 0 43.947 19.676 43.947 43.947s-19.676 43.947-43.947 43.947v0c-125.44 0-243.2-48.64-331.947-137.387-84.869-84.471-137.389-201.379-137.389-330.554 0-0.49 0.001-0.979 0.002-1.468v0.076c0-24.32 19.627-43.947 43.947-43.947zM258.133 490.667c0.242 116.545 94.655 210.958 211.177 211.2h0.023c24.271 0 43.947 19.676 43.947 43.947s-19.676 43.947-43.947 43.947v0c-164.904-0.485-298.425-134.156-298.667-299.070v-0.023c0-24.271 19.676-43.947 43.947-43.947s43.947 19.676 43.947 43.947v0z" />
<glyph unicode="&#xe931;" glyph-name="user" d="M495.787 413.013c136.533 0 246.613 116.053 246.613 258.987 0.040 1.672 0.062 3.641 0.062 5.616 0 137.421-109.742 249.211-246.369 252.512l-0.306 0.006c-136.978-3.545-246.667-115.43-246.667-252.934 0-1.828 0.019-3.652 0.058-5.471l-0.005 0.272c0-142.080 110.507-258.987 246.613-258.987zM69.12 8.533h856.747c17.92 0 32.427 15.36 32.427 34.133 0 179.2-138.667 325.12-309.333 325.12h-302.933c-170.24 0-309.333-145.067-309.333-325.12 0-18.773 14.507-34.133 32.427-34.133z" />
<glyph unicode="&#xe932;" glyph-name="user-add" d="M431.942 371.976h6.982c62.992 0.931 114.192 23.273 152.204 65.939 81.765 92.16 69.042 248.553 67.336 265.775-5.43 114.812-59.888 169.27-104.727 195.025-33.342 18.934-73.221 30.139-115.708 30.254h-3.603c-23.893 0-70.749-3.879-115.743-29.479-45.304-25.6-100.538-80.524-105.968-195.491-1.707-17.532-14.429-174.080 67.336-266.085 37.702-42.822 88.902-65.008 152.048-66.095zM275.239 699.035l6.982 0.31c6.516 143.981 108.606 159.651 152.048 159.651h2.327c54.303-1.241 145.842-23.583 152.048-159.185 0-0.776 0-1.862 0.465-3.103 0.931-9.93 11.792-142.895-49.959-212.558-24.979-27.927-58.492-41.891-102.555-42.356h-2.172c-44.218 0.465-77.731 14.274-102.4 42.512-62.836 70.284-51.045 205.421-50.269 212.558zM979.006 331.636h-136.533v136.533c0 19.88-16.116 35.995-35.995 35.995s-35.995-16.116-35.995-35.995v0-136.533h-136.533c-19.88 0-35.995-16.116-35.995-35.995s16.116-35.995 35.995-35.995h136.533v-136.533c0-19.88 16.116-35.995 35.995-35.995s35.995 16.116 35.995 35.995v0 136.533h136.533c19.88 0 35.995 16.116 35.995 35.995s-16.116 35.995-35.995 35.995v0zM69.818 120.010v4.965c1.552 47.476 6.672 94.953 50.579 110.778 93.712 24.048 170.667 72.921 193.008 88.126 10.346 6.223 17.161 17.39 17.161 30.149 0 19.365-15.699 35.064-35.064 35.064-8.56 0-16.403-3.067-22.491-8.163l0.055 0.045c-49.12-33.141-106.054-59.788-166.981-76.891l-4.151-0.995-2.482-0.776c-94.798-32.582-97.901-132.189-99.297-175.321v-5.741c-0.155-1.086-1.396-99.452 10.861-130.638 2.638-6.672 11.171-14.429 12.878-15.825l1.862-1.552h702.992v71.99h-655.050c-1.87 20.943-3.321 46.922-3.999 73.093l-0.035 1.69z" />
<glyph unicode="&#xe933;" glyph-name="wallet" d="M59.733 67.84h773.12c32.853 0 59.733 26.88 59.733 59.733v186.453h-286.72c-0.148-0.001-0.323-0.001-0.498-0.001-43.883 0-83.572 17.953-112.124 46.916l-0.018 0.019c-28.983 28.636-46.934 68.381-46.934 112.32 0 0.113 0 0.225 0 0.338v-0.017 17.067c0 0.021 0 0.047 0 0.072 0 43.882 17.953 83.571 46.915 112.123l0.019 0.018c28.636 28.983 68.381 46.934 112.32 46.934 0.113 0 0.225 0 0.338 0h286.703v186.453c0 32.853-26.88 59.733-59.733 59.733h-773.12c-32.853 0-59.733-26.88-59.733-59.733v-708.267c0-33.28 26.88-60.16 59.733-60.16zM958.72 544.853c0 24.747-20.053 44.8-44.8 44.8h-308.053c-54.904 0-99.413-44.509-99.413-99.413v-17.067c0-54.904 44.509-99.413 99.413-99.413v0h308.053c24.747 0 44.8 20.053 44.8 44.8zM622.080 428.8c-29.22 0-52.907 23.687-52.907 52.907s23.687 52.907 52.907 52.907v0c29.22 0 52.907-23.687 52.907-52.907s-23.687-52.907-52.907-52.907v0z" />
<glyph unicode="&#xe934;" glyph-name="angle-down" d="M35.211 712.803c-34.133-34.133-35.211-35.93-35.211-51.020v-16.168l248.994-248.634c245.76-246.119 248.994-248.994 263.006-248.994s17.246 2.874 263.006 248.634l248.994 248.994v15.809c0 15.45-1.078 17.246-35.211 51.38-54.973 54.973-24.792 73.656-268.396-169.589-112.82-112.46-205.878-204.8-206.956-204.8s-89.106 87.669-195.818 194.38c-106.352 107.071-200.129 199.051-207.674 204.8-9.342 6.827-18.324 10.42-26.588 10.42-11.498 0-16.887-3.952-48.146-35.211z" />
<glyph unicode="&#xe935;" glyph-name="angle-left" d="M460.98 711.006c-246.119-245.76-248.994-248.994-248.994-263.006s2.874-17.246 248.634-263.006l248.994-248.994h15.809c15.45 0 17.246 1.078 51.38 35.211 54.973 54.973 73.656 24.792-169.589 268.396-112.46 112.82-204.8 205.878-204.8 206.956s87.669 89.106 194.38 195.818c107.071 106.352 199.051 200.129 204.8 207.674 6.827 9.342 10.42 18.324 10.42 26.588 0 11.498-3.952 16.887-35.211 48.146-34.133 34.133-35.93 35.211-51.020 35.211h-16.168l-248.634-248.994z" />
<glyph unicode="&#xe936;" glyph-name="angle-right" d="M800.34 471.604l-478.15 478.129c-6.843 6.835-14.717 10.267-23.604 10.267-8.891 0-16.761-3.432-23.6-10.267l-51.294-51.305c-6.85-6.839-10.26-14.695-10.26-23.6s3.411-16.761 10.26-23.6l403.238-403.238-403.238-403.245c-6.85-6.839-10.26-14.709-10.26-23.59 0-8.902 3.411-16.772 10.26-23.611l51.298-51.287c6.839-6.846 14.709-10.257 23.6-10.257 8.887 0 16.758 3.418 23.6 10.257l478.125 478.132c6.835 6.835 10.257 14.709 10.257 23.6s-3.396 16.761-10.232 23.615z" />
<glyph unicode="&#xe937;" glyph-name="angle-up" d="M248.994 499.38l-248.994-248.994v-15.809c0-15.45 1.078-17.246 35.211-51.38 54.973-54.973 24.792-73.656 268.396 169.589 112.82 112.82 205.878 204.8 206.956 204.8s89.106-87.669 195.818-194.38c106.352-107.071 200.129-199.051 207.674-204.8 9.342-6.827 18.324-10.42 26.588-10.42 11.498 0 16.887 3.952 48.146 35.211 34.133 34.133 35.211 35.93 35.211 51.020v16.168l-248.994 248.634c-245.76 246.119-248.994 248.994-263.006 248.994s-17.246-2.874-263.006-248.634z" />
<glyph unicode="&#xe938;" glyph-name="basket-not-allowed" d="M746.417 153.246c-51.048-0.090-92.396-41.493-92.396-92.554 0-51.116 41.438-92.554 92.554-92.554 0.055 0 0.111 0 0.166 0h-0.009c51.048 0.090 92.396 41.493 92.396 92.554 0 51.116-41.438 92.554-92.554 92.554-0.055 0-0.111 0-0.166 0h0.009zM991.39 933.534c-14.178 14.178-37.337 14.178-51.673 0l-918.449-918.292c-6.599-6.618-10.679-15.751-10.679-25.836 0-20.21 16.384-36.594 36.594-36.594 10.125 0 19.289 4.112 25.914 10.757l918.293 918.293c14.178 14.178 14.178 37.337 0 51.673zM140.209 659.574l28.514-313.502c0-29.932 8.98-57.817 24.261-81.29l52.303 52.46c-3.588 8.754-5.671 18.914-5.671 29.56 0 0.020 0 0.040 0 0.060v-0.003l-27.884 277.898h341.071l70.892 70.892h-412.751v81.605l-169.039 151.71-41.905-51.042 140.209-121.935zM883.003 695.493l-70.892-70.892h112.010l-98.304-276.165-0.158-0.63c-13.391-53.406-40.015-80.345-79.242-80.345h-291.446l-70.892-70.892h362.338c72.625 0 122.88 49.782 149.346 147.456l117.051 351.468zM330.988 143.478l-123.825-123.825c15.432-30.816 46.765-51.602 82.952-51.602 51.073 0 92.475 41.403 92.475 92.475 0 36.187-20.785 67.52-51.069 82.71l-0.533 0.242z" />
<glyph unicode="&#xe939;" glyph-name="binoculars" d="M566.613 239.787h-136.533c-11.311 0-20.48 9.169-20.48 20.48v0 34.702c0 11.378 9.102 20.48 20.48 20.48h136.533c11.378 0 20.48-9.102 20.48-20.48v-34.702c0-11.378-9.102-20.48-20.48-20.48zM534.756 351.289h-72.818c-0.003 0-0.007 0-0.011 0-7.655 0-13.897 6.047-14.21 13.625l-0.001 0.028v336.782c0 7.964 6.258 14.222 14.222 14.222h73.387c7.396 0 13.653-6.258 13.653-14.222v-336.782c0-7.964-5.689-14.222-13.653-14.222zM806.684 480.427c50.062 0 96.711-15.929 134.258-43.804 11.378-8.533 27.307 2.844 21.618 16.498l-146.773 351.573c-38.684 103.538-228.693 100.124-236.658-62.578v-376.604c0-14.222 19.342-19.342 26.169-6.827 38.883 72.92 114.433 121.714 201.383 121.742h0.004zM959.147 365.511c-34.8 46.875-89.98 76.921-152.178 76.921-104.377 0-188.992-84.615-188.992-188.992 0-42.18 13.818-81.132 37.174-112.578l-0.359 0.506c34.8-46.875 89.98-76.921 152.178-76.921 104.377 0 188.992 84.615 188.992 188.992 0 42.18-13.818 81.132-37.174 112.578l0.359-0.506zM815.787 345.031c-55.751 0-101.262-45.511-101.262-101.831 0-12.882-10.443-23.324-23.324-23.324s-23.324 10.443-23.324 23.324v0c-0.001 0.169-0.001 0.369-0.001 0.569 0 81.689 66.222 147.911 147.911 147.911 0 0 0.001 0 0.001 0v0c12.882 0 23.324-10.443 23.324-23.324s-10.443-23.324-23.324-23.324v0zM189.44 480.427c-50.062 0-96.711-15.929-134.258-43.804-11.378-8.533-27.307 2.844-21.618 16.498l146.773 351.573c38.684 103.538 229.262 100.124 236.658-62.578v-376.604c0-14.222-19.342-19.342-26.169-6.827-38.883 72.92-114.433 121.714-201.383 121.742h-0.004zM341.902 365.511c-34.8 46.875-89.98 76.921-152.178 76.921-104.377 0-188.992-84.615-188.992-188.992 0-42.18 13.818-81.132 37.174-112.578l-0.359 0.506c34.8-46.875 89.98-76.921 152.178-76.921 104.377 0 188.992 84.615 188.992 188.992 0 42.18-13.818 81.132-37.174 112.578l0.359-0.506zM199.111 345.031c-56.32 0-101.831-45.511-101.831-101.831 0-12.882-10.443-23.324-23.324-23.324s-23.324 10.443-23.324 23.324v0c0 81.92 66.56 148.48 147.911 148.48 12.882 0 23.324-10.443 23.324-23.324s-10.443-23.324-23.324-23.324v0z" />
<glyph unicode="&#xe93a;" glyph-name="pencil" d="M864 960c88.364 0 160-71.634 160-160 0-36.020-11.91-69.258-32-96l-64-64-224 224 64 64c26.742 20.090 59.978 32 96 32zM64 224l-64-288 288 64 592 592-224 224-592-592zM715.578 596.422l-448-448-55.156 55.156 448 448 55.156-55.156z" />
<glyph unicode="&#xe93b;" glyph-name="discount" horiz-adv-x="997" d="M413.59 922.764c-41.226-34.577-47.875-35.906-107.719-23.938-78.462 15.958-97.081 3.99-118.358-75.803-13.299-53.195-18.618-58.514-77.132-77.132l-63.834-18.618v-82.452c0-59.844-6.649-90.431-22.608-110.379-31.917-35.906-31.917-136.977-1.33-172.883 17.288-19.948 23.938-50.535 23.938-109.049v-82.452l62.504-19.948c58.514-17.288 65.164-23.938 83.782-82.452 23.938-73.143 49.205-86.442 121.018-66.494 42.556 11.969 53.195 9.309 101.070-26.597 69.153-49.205 93.091-47.875 155.595 2.66 49.205 38.566 54.525 39.896 106.39 25.268 79.792-21.278 103.73-9.309 125.008 63.834 17.288 58.514 22.608 63.834 83.782 83.782 73.143 22.608 85.112 50.535 61.174 135.647-10.639 39.896-7.979 51.865 18.618 83.782 37.236 46.545 42.556 126.338 9.309 164.904-17.288 19.948-23.938 50.535-23.938 110.379v82.452l-65.164 21.278c-61.174 18.618-66.494 23.938-83.782 82.452-19.948 70.483-50.535 86.442-126.338 65.164-39.896-10.639-50.535-7.979-91.761 25.268-58.514 49.205-111.709 49.205-170.223 1.33zM644.987 805.735l69.153 7.979 11.969-55.855c10.639-51.865 15.958-57.184 73.143-73.143l61.174-17.288-13.299-62.504c-14.629-61.174-14.629-61.174 37.236-106.39l51.865-45.216-50.535-41.226c-45.216-37.236-50.535-46.545-43.886-89.101 3.99-26.597 10.639-57.184 14.629-69.153 6.649-15.958-5.319-25.268-53.195-39.896-57.184-17.288-65.164-23.938-78.462-71.813-15.958-55.855-21.278-57.184-97.081-41.226-37.236 9.309-47.875 3.99-86.442-34.577l-42.556-43.886-43.886 45.216c-31.917 31.917-50.535 42.556-73.143 37.236-15.958-3.99-43.886-11.969-62.504-15.958-30.587-7.979-35.906-2.66-50.535 51.865-14.629 57.184-19.948 61.174-75.803 75.803-41.226 10.639-58.514 21.278-54.525 33.247 3.99 9.309 10.639 38.566 15.958 65.164 7.979 42.556 3.99 51.865-41.226 94.421l-50.535 46.545 49.205 41.226c45.216 37.236 49.205 45.216 41.226 86.442-3.99 25.268-11.969 54.525-15.958 63.834-3.99 13.299 11.969 23.938 54.525 34.577 57.184 14.629 62.504 18.618 75.803 73.143l14.629 58.514 70.483-7.979c67.823-7.979 70.483-7.979 107.719 38.566l37.236 47.875 39.896-47.875c38.566-45.216 41.226-46.545 107.719-38.566zM329.808 666.099c-62.504-23.938-77.132-115.699-26.597-174.213 27.927-33.247 114.369-31.917 148.945 2.66s35.906 119.688 3.99 150.275c-31.917 27.927-83.782 37.236-126.338 21.278zM464.125 482.577c-175.543-175.543-199.481-215.439-134.317-224.748 42.556-6.649 365.714 316.509 359.065 359.065-9.309 65.164-49.205 41.226-224.748-134.317zM569.184 426.722c-22.608-9.309-41.226-29.257-50.535-57.184-25.268-78.462 15.958-140.966 95.751-140.966 67.823 0 103.73 35.906 103.73 103.73 0 79.792-69.153 123.678-148.945 94.421z" />
<glyph unicode="&#xe93f;" glyph-name="credit-card" d="M928 832h-832c-52.8 0-96-43.2-96-96v-576c0-52.8 43.2-96 96-96h832c52.8 0 96 43.2 96 96v576c0 52.8-43.2 96-96 96zM96 768h832c17.346 0 32-14.654 32-32v-96h-896v96c0 17.346 14.654 32 32 32zM928 128h-832c-17.346 0-32 14.654-32 32v288h896v-288c0-17.346-14.654-32-32-32zM128 320h64v-128h-64zM256 320h64v-128h-64zM384 320h64v-128h-64z" />
<glyph unicode="&#xe97c;" glyph-name="spinner" d="M512 656.904c-32.964 0-59.686 26.724-59.686 59.686v179.060c0 32.964 26.722 59.686 59.686 59.686 32.962 0 59.688-26.722 59.688-59.686v-179.060c0-32.964-26.726-59.686-59.688-59.686zM512-36.956c-20.602 0-37.304 16.702-37.304 37.304v179.060c0 20.602 16.702 37.304 37.304 37.304 20.604 0 37.304-16.704 37.304-37.304v-179.060c0-20.602-16.7-37.304-37.304-37.304zM377.756 624.64c-19.34 0-38.146 10.034-48.512 27.988l-89.53 155.070c-15.452 26.764-6.282 60.986 20.482 76.438 26.762 15.45 60.986 6.284 76.438-20.482l89.53-155.072c15.452-26.764 6.282-60.986-20.482-76.438-8.81-5.084-18.432-7.504-27.926-7.504zM735.856 26.744c-11.602 0-22.886 6.022-29.108 16.792l-89.53 155.070c-9.27 16.056-3.77 36.592 12.29 45.864 16.056 9.264 36.59 3.77 45.864-12.292l89.532-155.068c9.27-16.058 3.768-36.592-12.292-45.864-5.286-3.048-11.060-4.502-16.756-4.502zM279.344 530.060c-8.86 0-17.838 2.256-26.064 7.006l-155.072 89.53c-24.978 14.422-33.538 46.362-19.116 71.342 14.42 24.978 46.364 33.538 71.342 19.116l155.070-89.53c24.98-14.422 33.538-46.362 19.116-71.34-9.668-16.756-27.226-26.124-45.276-26.124zM899.648 194.326c-5.064 0-10.196 1.29-14.894 4.004l-155.068 89.53c-14.274 8.24-19.164 26.494-10.924 40.768 8.242 14.276 26.496 19.166 40.766 10.924l155.070-89.532c14.274-8.24 19.164-26.492 10.924-40.766-5.53-9.574-15.562-14.928-25.874-14.928zM243.41 399.504h-179.060c-26.784 0-48.496 21.712-48.496 48.496s21.712 48.496 48.496 48.496h179.060c26.784 0 48.496-21.712 48.496-48.496s-21.712-48.496-48.496-48.496zM959.65 418.156c-0.002 0 0 0 0 0h-179.060c-16.482 0.002-29.844 13.364-29.844 29.844s13.364 29.844 29.844 29.844c0.002 0 0 0 0 0h179.060c16.482 0 29.844-13.362 29.844-29.844 0-16.48-13.364-29.844-29.844-29.844zM124.366 179.402c-15.472 0-30.518 8.028-38.81 22.39-12.362 21.41-5.026 48.79 16.384 61.148l155.072 89.532c21.41 12.368 48.79 5.028 61.15-16.384 12.362-21.412 5.026-48.79-16.384-61.15l-155.072-89.53c-7.050-4.070-14.748-6.006-22.34-6.006zM744.632 552.448c-10.314 0-20.346 5.352-25.874 14.926-8.24 14.274-3.35 32.526 10.924 40.768l155.070 89.528c14.272 8.236 32.526 3.352 40.768-10.922 8.24-14.274 3.35-32.526-10.924-40.768l-155.070-89.528c-4.7-2.714-9.83-4.004-14.894-4.004zM288.136 19.284c-6.962 0-14.016 1.774-20.48 5.504-19.626 11.332-26.35 36.428-15.020 56.054l89.53 155.070c11.33 19.628 36.426 26.352 56.054 15.022 19.626-11.332 26.35-36.43 15.020-56.054l-89.53-155.072c-7.598-13.166-21.392-20.524-35.574-20.524zM646.266 650.758c-5.062 0-10.196 1.29-14.894 4.002-14.274 8.242-19.164 26.494-10.924 40.766l89.534 155.070c8.24 14.274 26.492 19.166 40.766 10.922 14.274-8.242 19.164-26.494 10.924-40.766l-89.532-155.070c-5.53-9.57-15.56-14.924-25.874-14.924z" />
<glyph unicode="&#xe9ad;" glyph-name="trash" d="M192-64h640l64 704h-768zM640 832v128h-256v-128h-320v-192l64 64h768l64-64v192h-320zM576 832h-128v64h128v-64z" />
<glyph unicode="&#xea2e;" glyph-name="loop" d="M889.68 793.68c-93.608 102.216-228.154 166.32-377.68 166.32-282.77 0-512-229.23-512-512h96c0 229.75 186.25 416 416 416 123.020 0 233.542-53.418 309.696-138.306l-149.696-149.694h352v352l-134.32-134.32zM928 448c0-229.75-186.25-416-416-416-123.020 0-233.542 53.418-309.694 138.306l149.694 149.694h-352v-352l134.32 134.32c93.608-102.216 228.154-166.32 377.68-166.32 282.77 0 512 229.23 512 512h-96z" />
<glyph unicode="&#xea3a;" glyph-name="arrow-up" d="M877.254 557.254l-320 320c-24.992 24.994-65.514 24.994-90.508 0l-320-320c-24.994-24.994-24.994-65.516 0-90.51 24.994-24.996 65.516-24.996 90.51 0l210.744 210.746v-613.49c0-35.346 28.654-64 64-64s64 28.654 64 64v613.49l210.746-210.746c12.496-12.496 28.876-18.744 45.254-18.744s32.758 6.248 45.254 18.746c24.994 24.994 24.994 65.514 0 90.508z" />
<glyph unicode="&#xea3c;" glyph-name="arrow-right" d="M621.254 82.746l320 320c24.994 24.992 24.994 65.516 0 90.51l-320 320c-24.994 24.992-65.516 24.992-90.51 0-24.994-24.994-24.994-65.516 0-90.51l210.746-210.746h-613.49c-35.346 0-64-28.654-64-64s28.654-64 64-64h613.49l-210.746-210.746c-12.496-12.496-18.744-28.876-18.744-45.254s6.248-32.758 18.744-45.254c24.994-24.994 65.516-24.994 90.51 0z" />
<glyph unicode="&#xea3e;" glyph-name="arrow-down" d="M877.254 338.746l-320-320c-24.992-24.994-65.514-24.994-90.508 0l-320 320c-24.994 24.994-24.994 65.516 0 90.51 24.994 24.996 65.516 24.996 90.51 0l210.744-210.746v613.49c0 35.346 28.654 64 64 64s64-28.654 64-64v-613.49l210.746 210.746c12.496 12.496 28.876 18.744 45.254 18.744s32.758-6.248 45.254-18.746c24.994-24.994 24.994-65.514 0-90.508z" />
<glyph unicode="&#xea40;" glyph-name="arrow-left" d="M402.746 82.746l-320 320c-24.994 24.992-24.994 65.516 0 90.51l320 320c24.994 24.992 65.516 24.992 90.51 0 24.994-24.994 24.994-65.516 0-90.51l-210.746-210.746h613.49c35.346 0 64-28.654 64-64s-28.654-64-64-64h-613.49l210.746-210.746c12.496-12.496 18.744-28.876 18.744-45.254s-6.248-32.758-18.744-45.254c-24.994-24.994-65.516-24.994-90.51 0z" />
</font>
</defs>
</svg>
