<svg xmlns="http://www.w3.org/2000/svg" version="1.1" x="0px" y="0px" viewBox="0 0 48 48" xml space="preserve" id="StrawberryIcon"><style type="text/css"></style><symbol id="New_Symbol_14" viewBox="-6.5 -6.5 13 13"><path class="st0" d="M0-6c2.2 0 4.1 1.5 4.7 3.5C6.3-2.5 6.4 0 5 0v1c0 2.8-2.2 5-5 5s-5-2.2-5-5V0c-1.4 0-1.3-2.5.2-2.5C-4.1-4.5-2.2-6 0-6z" fill="#FFD4C3" stroke="#504B46" stroke-linecap="round" stroke-linejoin="round" stroke-miterlimit="10"></path><circle class="st1" cx="-1.6" cy="-0.1" r="0.1" fill="#FFC258"></circle><path class="st2" d="M-1.6.5c-.3 0-.6-.3-.6-.6s.2-.7.6-.7c.3 0 .6.3.6.7s-.3.6-.6.6z" fill="#4F4B45"></path><circle class="st1" cx="1.6" cy="-0.1" r="0.1" fill="#FFC258"></circle><path class="st2" d="M1.6.5C1.3.5 1 .2 1-.1s.3-.6.6-.6.6.3.6.6-.2.6-.6.6z" fill="#4F4B45"></path><circle class="st3" cx="-3" cy="-1.5" r="0.5" fill="#FABFA5"></circle><circle class="st3" cx="3" cy="-1.5" r="0.5" fill="#FABFA5"></circle><path class="st4" d="M-1.2-3c.8-.5 1.7-.5 2.5 0" fill="none" stroke="#504B46" stroke-linecap="round" stroke-linejoin="round" stroke-miterlimit="10"></path></symbol><g id="Icons"><g id="XMLID_1897_"><ellipse id="XMLID_1001_" class="st5" cx="25.1" cy="44.7" rx="15.3" ry="1.8" fill="#45413C" opacity="0.15"></ellipse><path id="XMLID_946_" class="st57" d="M19.4 7.1l-3.8 1.8c-11 5.2-12 20.7-1.5 26.9.1 0 .2.1.3.1l12.9 7.3c4.5 2.6 10.2-.1 11.1-5.2L41 23.4c.1-.5.2-1 .2-1.5C42.3 10.3 29.9 2.1 19.4 7.1z" fill="#FF6242"></path><path id="XMLID_944_" class="st62" d="M15.6 14.3l3.8-1.8C28.6 8.2 39.2 14 41 23.2c.1-.4.1-.9.2-1.3C42.3 10.3 29.9 2.1 19.4 7.1l-3.8 1.8C8.8 12 5.9 19.1 7 25.6c.8-4.7 3.7-9 8.6-11.3z" fill="#FF866E"></path><path id="XMLID_939_" class="st10" d="M19.4 7.1l-3.8 1.8c-11 5.2-12 20.7-1.5 26.9.1 0 .2.1.3.1l12.9 7.3c4.5 2.6 10.2-.1 11.1-5.2L41 23.4c.1-.5.2-1 .2-1.5C42.3 10.3 29.9 2.1 19.4 7.1z" fill="none" stroke="#45413C" stroke-linecap="round" stroke-linejoin="round" stroke-miterlimit="10"></path><path id="XMLID_938_" class="st26" d="M28.3 9.4l-1.4-1.3c-.3-.3-.3-.8 0-1.1l1-1c.5-.5.1-1.3-.6-1.3l-1.4.1c-.4 0-.8-.3-.8-.7L25 2.2c0-.6-.7-.9-1.2-.6l-4.3 3.3c-.2.2-.5.2-.8.1l-1.1-.5c-.5-.6-.8-1.1-1-1.4-.5-1-2.8.2-2.3 1.1.1.3.3 1.1.4 2l-.4.8c-.1.3-.3.5-.6.5L8.4 8.8c-.6.1-.8.9-.3 1.3l1.4 1.3c.3.3.3.8 0 1.1l-1 1c-.5.5-.1 1.3.6 1.3l1.4-.1c.4 0 .8.3.8.7l.1 1.9c0 .6.7.9 1.2.6l4.3-3.3c.2-.2.5-.2.8-.1l2.5 1.1c.4.2.9 0 1-.5l.8-2.6c.1-.3.3-.5.6-.5l5.3-1.2c.7-.3.9-1 .4-1.4z" fill="#6DD627"></path><g id="XMLID_936_"><path id="XMLID_937_" class="st25" d="M28 10.7l-3.2.8c-.1-.3-.1-.6.1-.9l1-1c.5-.5.1-1.3-.6-1.3l-1.4.1c-.5 0-.9-.4-.9-.8l-.1-1.9c0-.6-.7-.9-1.2-.6l-1.8 1.4c-.9-.5-1.7-1.3-2.4-2.1l1.1.6c.2.1.5.1.8-.1l4.3-3.3c.5-.4 1.2 0 1.2.5l.1 2c0 .4.4.7.8.7l1.4-.1c.7 0 1.1.8.6 1.3l-1 1.1c-.3.3-.3.8 0 1.1l1.4 1.3c.6.3.4 1-.2 1.2z" fill="#9CEB60"></path></g><ellipse id="XMLID_910_" transform="matrix(0.9053 -0.4248 0.4248 0.9053 -9.337 7.7646)" class="st80" cx="12.7" cy="24.8" rx="1.5" ry="2.6" fill="#E04122" stroke="#45413C" stroke-linecap="round" stroke-linejoin="round" stroke-miterlimit="10"></ellipse><ellipse id="XMLID_909_" transform="matrix(0.9053 -0.4248 0.4248 0.9053 -11.2549 11.7454)" class="st80" cx="20.7" cy="31.1" rx="1.5" ry="2.6" fill="#E04122" stroke="#45413C" stroke-linecap="round" stroke-linejoin="round" stroke-miterlimit="10"></ellipse><ellipse id="XMLID_907_" transform="matrix(0.9053 -0.4248 0.4248 0.9053 -6.5755 11.8735)" class="st80" cx="23.3" cy="20.7" rx="1.5" ry="2.6" fill="#E04122" stroke="#45413C" stroke-linecap="round" stroke-linejoin="round" stroke-miterlimit="10"></ellipse><ellipse id="XMLID_906_" transform="matrix(0.9053 -0.4248 0.4248 0.9053 -12.0467 16.1034)" class="st80" cx="30.1" cy="35.1" rx="1.5" ry="2.6" fill="#E04122" stroke="#45413C" stroke-linecap="round" stroke-linejoin="round" stroke-miterlimit="10"></ellipse><ellipse id="XMLID_905_" transform="matrix(0.9053 -0.4248 0.4248 0.9053 -3.0919 15.8404)" class="st80" cx="34" cy="14.9" rx="1.5" ry="2.6" fill="#E04122" stroke="#45413C" stroke-linecap="round" stroke-linejoin="round" stroke-miterlimit="10"></ellipse><ellipse id="XMLID_904_" transform="matrix(0.9053 -0.4248 0.4248 0.9053 -7.6283 16.4337)" class="st80" cx="33" cy="25.3" rx="1.5" ry="2.6" fill="#E04122" stroke="#45413C" stroke-linecap="round" stroke-linejoin="round" stroke-miterlimit="10"></ellipse><path id="XMLID_903_" class="st10" d="M13.6 10.6c1.4-.7 1-5.5.6-6.4-.4-.9 1.9-2.1 2.3-1.1.5 1 3.3 4.6 5.3 3.7" fill="none" stroke="#45413C" stroke-linecap="round" stroke-linejoin="round" stroke-miterlimit="10"></path><path id="XMLID_866_" class="st10" d="M28.3 9.4l-1.4-1.3c-.3-.3-.3-.8 0-1.1l1-1c.5-.5.1-1.3-.6-1.3l-1.4.1c-.4 0-.8-.3-.8-.7L25 2.2c0-.6-.7-.9-1.2-.6l-4.3 3.3c-.2.2-.5.2-.8.1l-1.1-.5c-.5-.6-.8-1.1-1-1.4-.5-1-2.8.2-2.3 1.1.1.3.3 1.1.4 2l-.4.8c-.1.3-.3.5-.6.5L8.4 8.8c-.6.1-.8.9-.3 1.3l1.4 1.3c.3.3.3.8 0 1.1l-1 1c-.5.5-.1 1.3.6 1.3l1.4-.1c.4 0 .8.3.8.7l.1 1.9c0 .6.7.9 1.2.6l4.3-3.3c.2-.2.5-.2.8-.1l2.5 1.1c.4.2.9 0 1-.5l.8-2.6c.1-.3.3-.5.6-.5l5.3-1.2c.7-.3.9-1 .4-1.4z" fill="none" stroke="#45413C" stroke-linecap="round" stroke-linejoin="round" stroke-miterlimit="10"></path></g></g></svg>
