<svg xmlns="http://www.w3.org/2000/svg" id="Customer2Icon" viewBox="0 0 32 32"><path fill="#67acd5" d="M24.6 22.4L19 20.5h-6.9l-5.6 1.9C4.4 23 3 25 3 27.1v4.4h25v-4.4c0-2.1-1.4-4.1-3.4-4.7z"></path><path fill="#a2e2ff" d="M18.9 20.5h-6.8l2.9 11z"></path><path fill="#5791d1" d="M28 31.5v-4.4c0-.9-.3-1.8-.7-2.6-3 .4-5.3 2.9-5.3 6v1h6zM3 31.5v-4.4c0-.9.3-1.8.7-2.6 3 .4 5.3 2.9 5.3 6v1H3z"></path><path fill="#a17852" d="M12 19.5c-1.2-.1-2.4-.3-3.6-.6L7 18.5V9C7 4.3 10.8.5 15.5.5S24 4.3 24 9v9.5l-1.4.3c-1.1.3-2.2.5-3.3.6"></path><path fill="#40455a" d="M11.9 20c-1.2-.1-2.5-.4-3.7-.6L6.4 19V9c0-5 4-9 9-9s9 4 9 9v9.9l-1.8.4c-1.1.3-2.3.5-3.4.6l-.1-1c1.1-.1 2.2-.3 3.3-.6l1-.2V9c0-4.4-3.6-8-8-8s-8 3.6-8 8v9.1l1 .2c1.2.3 2.4.5 3.6.6l-.1 1.1z"></path><path fill="#5c5e70" d="M24 12.5h-2v-3h1c.6 0 1 .4 1 1v2zM9 12.5H8c-.6 0-1-.4-1-1v-1c0-.6.4-1 1-1h1v3z"></path><path fill="#fed8aa" d="M20.9 7.7l-2.4.3c-2.5.3-5.1-.3-7.2-1.9-.3-.2-.8 0-.8.4v1c0 .9-.7 1.7-1.5 1.9V12c0 3.6 2.9 6.5 6.5 6.5S22 15.6 22 12V8.6c0-.6-.5-1-1.1-.9z"></path><path fill="#40455a" d="M12 20c-1.3-.1-2.5-.4-3.7-.6L6.9 19c-.2-.1-.4-.3-.4-.5V9c0-5 4-9 9-9s9 4 9 9v9.5c0 .2-.2.4-.4.5l-1.4.3c-1.1.3-2.3.5-3.4.6-.3 0-.5-.2-.6-.4 0-.3.2-.5.4-.6 1.1-.1 2.2-.3 3.3-.6l1-.2V9c0-4.4-3.6-8-8-8s-8 3.6-8 8v9.1l1 .2c1.2.3 2.4.5 3.6.6.3 0 .5.3.4.6.1.3-.1.5-.4.5z"></path><path fill="#40455a" d="M22 10c-.3 0-.5-.2-.5-.5v-.9c0-.1-.1-.3-.2-.4-.1-.1-.2-.1-.4-.1l-2.4.3c-2.7.4-5.4-.3-7.5-2v1C11 8.9 9.9 10 8.5 10H7c-.3 0-.5-.2-.5-.5S6.7 9 7 9h1.5c.9 0 1.5-.7 1.5-1.5v-1c0-.4.2-.7.6-.9.3-.2.7-.1 1 .1 2 1.5 4.4 2.1 6.8 1.8l2.4-.3c.4-.1.9.1 1.2.4.3.3.5.7.5 1.1v.9c0 .2-.2.4-.5.4z"></path><path fill="#fed8aa" d="M12 17.5V20c0 1.9 3.5 3.5 3.5 3.5S19 21.9 19 20v-2.5"></path><path fill="#40455a" d="M15.5 24h-.2c-.4-.2-3.8-1.8-3.8-4v-2.5c0-.3.2-.5.5-.5s.5.2.5.5V20c0 1.2 2 2.5 3 2.9 1-.5 3-1.7 3-2.9v-2.5c0-.3.2-.5.5-.5s.5.2.5.5V20c0 2.2-3.4 3.8-3.8 4h-.2z"></path><path fill="#5791d1" d="M12 20.5l-3.3 1.1 1 2.9 1.3 1-.7.9 1.7 5.1h3zM18.7 20.5l3.3 1.1-1 2.9-1.3 1 .7.9-1.7 5.1h-3z"></path><path fill="#40455a" d="M15.5 19c-3.9 0-7-3.1-7-7V9.5c0-.3.2-.5.5-.5s.5.2.5.5V12c0 3.3 2.7 6 6 6s6-2.7 6-6V9.5c0-.3.2-.5.5-.5s.5.2.5.5V12c0 3.9-3.1 7-7 7zM28 32H3c-.3 0-.5-.2-.5-.5v-4.4c0-2.4 1.5-4.5 3.8-5.2l5.6-1.9c.3-.1.5.1.6.3.1.3-.1.5-.3.6l-5.6 1.9c-1.8.6-3.1 2.3-3.1 4.3V31h24v-3.9c0-1.9-1.2-3.7-3.1-4.3L18.8 21c-.3-.1-.4-.4-.3-.6.1-.3.4-.4.6-.3l5.6 1.9c2.3.7 3.8 2.8 3.8 5.2v4.4c0 .2-.2.4-.5.4z"></path><path fill="#40455a" d="M28 32h-6c-.3 0-.5-.2-.5-.5v-1c0-3.3 2.5-6.1 5.7-6.4.2 0 .4.1.5.2.5.9.8 1.8.8 2.8v4.4c0 .3-.2.5-.5.5zm-5.5-1h5v-3.9c0-.7-.2-1.4-.5-2-2.6.5-4.5 2.7-4.5 5.4v.5zM9 32H3c-.3 0-.5-.2-.5-.5v-4.4c0-1 .3-2 .8-2.8.1-.2.3-.3.5-.2 3.3.4 5.7 3.2 5.7 6.4v1c0 .3-.2.5-.5.5zm-5.5-1h5v-.5c0-2.7-1.9-4.9-4.5-5.4-.3.6-.5 1.3-.5 2V31zM24 13h-2c-.3 0-.5-.2-.5-.5v-3c0-.3.2-.5.5-.5h1c.8 0 1.5.7 1.5 1.5v2c0 .3-.2.5-.5.5zm-1.5-1h1v-1.5c0-.3-.2-.5-.5-.5h-.5v2z"></path><path fill="#40455a" d="M21 16h-3c-.3 0-.5-.2-.5-.5s.2-.5.5-.5h3c1.4 0 2.5-1.1 2.5-2.5v-2c0-.3.2-.5.5-.5s.5.2.5.5v2c0 1.9-1.6 3.5-3.5 3.5zM9 13H8c-.8 0-1.5-.7-1.5-1.5v-1C6.5 9.7 7.2 9 8 9h1c.3 0 .5.2.5.5v3c0 .3-.2.5-.5.5zm-1-3c-.3 0-.5.2-.5.5v1c0 .3.2.5.5.5h.5v-2H8z"></path><path fill="#5c5e70" d="M17 16.5h-1c-.6 0-1-.4-1-1s.4-1 1-1h1c.6 0 1 .4 1 1s-.4 1-1 1z"></path><path fill="#40455a" d="M17 17h-1c-.8 0-1.5-.7-1.5-1.5S15.2 14 16 14h1c.8 0 1.5.7 1.5 1.5S17.8 17 17 17zm-1-2c-.3 0-.5.2-.5.5s.2.5.5.5h1c.3 0 .5-.2.5-.5s-.2-.5-.5-.5h-1zM15 32c-.2 0-.4-.1-.5-.4l-3-11c-.1-.3.1-.5.4-.6.3-.1.5.1.6.4l3 11c.1.3-.1.5-.4.6H15zM12 32c-.2 0-.4-.1-.5-.3l-1.7-5.1c-.1-.2 0-.3.1-.5l.4-.5-.9-.6-.2-.2-1-2.9c-.1-.3.1-.5.3-.6.3-.1.5.1.6.3l.9 2.8 1.2.9c.1.1.2.2.2.3 0 .1 0 .3-.1.4l-.5.7 1.6 4.8c.1.3-.1.5-.3.6 0-.1 0-.1-.1-.1z"></path><path fill="#40455a" d="M15.5 32h-.2c-.3-.1-.4-.4-.3-.6l3.5-11c.1-.3.4-.4.6-.3.3.1.4.4.3.6l-3.5 11c0 .2-.2.3-.4.3zM18.5 32h-.2c-.3-.1-.4-.4-.3-.6l1.6-4.8-.5-.7c-.1-.2-.1-.3-.1-.5 0-.1.1-.2.2-.3l1.2-.9 1-2.9c.1-.3.4-.4.6-.3.3.1.4.4.3.6l-1 3.1c0 .1-.1.2-.2.2l-.9.7.4.5c.1.1.1.3.1.5L19 31.7c-.1.2-.3.3-.5.3z"></path></svg>