<svg xmlns="http://www.w3.org/2000/svg" viewBox="0 0 24 24" id="KeypadFillIcon"><g><g><rect width="24" height="24" opacity="0"></rect><path d="M5 2a3 3 0 1 0 3 3 3 3 0 0 0-3-3z"></path><path d="M12 2a3 3 0 1 0 3 3 3 3 0 0 0-3-3z"></path><path d="M19 8a3 3 0 1 0-3-3 3 3 0 0 0 3 3z"></path><path d="M5 9a3 3 0 1 0 3 3 3 3 0 0 0-3-3z"></path><path d="M12 9a3 3 0 1 0 3 3 3 3 0 0 0-3-3z"></path><path d="M19 9a3 3 0 1 0 3 3 3 3 0 0 0-3-3z"></path><path d="M5 16a3 3 0 1 0 3 3 3 3 0 0 0-3-3z"></path><path d="M12 16a3 3 0 1 0 3 3 3 3 0 0 0-3-3z"></path><path d="M19 16a3 3 0 1 0 3 3 3 3 0 0 0-3-3z"></path></g></g></svg>
