<svg xmlns="http://www.w3.org/2000/svg" version="1.1" x="0px" y="0px" viewBox="0 0 48 48" xml space="preserve" id="Cloud3Icon"><style type="text/css"></style><symbol id="New_Symbol_14" viewBox="-6.5 -6.5 13 13"><path class="st0" d="M0-6c2.2 0 4.1 1.5 4.7 3.5C6.3-2.5 6.4 0 5 0v1c0 2.8-2.2 5-5 5s-5-2.2-5-5V0c-1.4 0-1.3-2.5.2-2.5C-4.1-4.5-2.2-6 0-6z" fill="#FFD4C3" stroke="#504B46" stroke-linecap="round" stroke-linejoin="round" stroke-miterlimit="10"></path><circle class="st1" cx="-1.6" cy="-0.1" r="0.1" fill="#FFC258"></circle><path class="st2" d="M-1.6.5c-.3 0-.6-.3-.6-.6s.2-.7.6-.7c.3 0 .6.3.6.7s-.3.6-.6.6z" fill="#4F4B45"></path><circle class="st1" cx="1.6" cy="-0.1" r="0.1" fill="#FFC258"></circle><path class="st2" d="M1.6.5C1.3.5 1 .2 1-.1s.3-.6.6-.6.6.3.6.6-.2.6-.6.6z" fill="#4F4B45"></path><circle class="st3" cx="-3" cy="-1.5" r="0.5" fill="#FABFA5"></circle><circle class="st3" cx="3" cy="-1.5" r="0.5" fill="#FABFA5"></circle><path class="st4" d="M-1.2-3c.8-.5 1.7-.5 2.5 0" fill="none" stroke="#504B46" stroke-linecap="round" stroke-linejoin="round" stroke-miterlimit="10"></path></symbol><g id="Icons"><g id="XMLID_1136_"><ellipse id="XMLID_512_" class="st5" cx="24" cy="45.3" rx="13.5" ry="1.5" fill="#45413C" opacity="0.15"></ellipse><g id="XMLID_492_"><g id="XMLID_493_"><path id="XMLID_497_" class="st42" d="M46.7 16.8c0-2.2-1.5-4-3.6-4.4 0-.2.1-.4.1-.6 0-2.5-2-4.5-4.5-4.5-.9 0-1.8.3-2.5.8v-.3c0-2.5-2-4.5-4.5-4.5-1.2 0-2.4.5-3.2 1.3-.5-1.9-2.3-3.3-4.3-3.3s-3.8 1.4-4.3 3.3c-.8-.8-1.9-1.3-3.2-1.3-2.5 0-4.5 2-4.5 4.5v.3c-.7-.5-1.6-.8-2.5-.8C7 7.3 5 9.3 5 11.8c0 .2 0 .4.1.6-2 .4-3.6 2.2-3.6 4.4 0 2.3 1.7 4.1 3.8 4.5-.2.5-.3 1-.3 1.6 0 2.5 2 4.5 4.5 4.5.9 0 1.8-.3 2.5-.8v.3c0 2.5 2 4.5 4.5 4.5 1.4 0 2.6-.6 3.4-1.6.7 1.5 2.3 2.6 4.1 2.6 1.8 0 3.4-1.1 4.1-2.6.8 1 2.1 1.6 3.4 1.6 2.5 0 4.5-2 4.5-4.5v-.3c.7.5 1.6.8 2.5.8 2.5 0 4.5-2 4.5-4.5 0-.6-.1-1.1-.3-1.6 2.3-.4 4-2.2 4-4.5z" fill="#8CA4B8"></path><path id="XMLID_496_" class="st43" d="M44.1 15.1c.2.5.3 1.1.3 1.7 0 2.7-2.2 4.8-4.8 4.8-1 0-1.9-.3-2.7-.8v.3c0 2.7-2.2 4.8-4.8 4.8-1.5 0-2.8-.7-3.7-1.7C27.6 25.9 26 27 24 27s-3.6-1.2-4.4-2.8c-.9 1-2.2 1.7-3.7 1.7-2.7 0-4.8-2.2-4.8-4.8v-.3c-.8.5-1.7.8-2.7.8-2.7 0-4.8-2.2-4.8-4.8 0-.6.1-1.2.3-1.7-.7-.1-1.3-.4-1.8-.7-.5.7-.7 1.5-.7 2.5 0 2.3 1.7 4.1 3.8 4.5-.2.5-.3 1-.3 1.6 0 2.5 2 4.5 4.5 4.5.9 0 1.8-.3 2.5-.8v.3c0 2.5 2 4.5 4.5 4.5 1.4 0 2.6-.6 3.4-1.6.7 1.5 2.3 2.6 4.1 2.6 1.8 0 3.4-1.1 4.1-2.6.8 1 2.1 1.6 3.4 1.6 2.5 0 4.5-2 4.5-4.5v-.3c.7.5 1.6.8 2.5.8 2.5 0 4.5-2 4.5-4.5 0-.6-.1-1.1-.3-1.6 2.2-.3 3.8-2.2 3.8-4.5 0-.9-.3-1.7-.7-2.5-.3.3-.9.6-1.6.7z" fill="#627B8C"></path><path id="XMLID_494_" class="st10" d="M46.7 16.8c0-2.2-1.5-4-3.6-4.4 0-.2.1-.4.1-.6 0-2.5-2-4.5-4.5-4.5-.9 0-1.8.3-2.5.8v-.3c0-2.5-2-4.5-4.5-4.5-1.2 0-2.4.5-3.2 1.3-.5-1.9-2.3-3.3-4.3-3.3s-3.8 1.4-4.3 3.3c-.8-.8-1.9-1.3-3.2-1.3-2.5 0-4.5 2-4.5 4.5v.3c-.7-.5-1.6-.8-2.5-.8C7 7.3 5 9.3 5 11.8c0 .2 0 .4.1.6-2 .4-3.6 2.2-3.6 4.4 0 2.3 1.7 4.1 3.8 4.5-.2.5-.3 1-.3 1.6 0 2.5 2 4.5 4.5 4.5.9 0 1.8-.3 2.5-.8v.3c0 2.5 2 4.5 4.5 4.5 1.4 0 2.6-.6 3.4-1.6.7 1.5 2.3 2.6 4.1 2.6 1.8 0 3.4-1.1 4.1-2.6.8 1 2.1 1.6 3.4 1.6 2.5 0 4.5-2 4.5-4.5v-.3c.7.5 1.6.8 2.5.8 2.5 0 4.5-2 4.5-4.5 0-.6-.1-1.1-.3-1.6 2.3-.4 4-2.2 4-4.5z" fill="none" stroke="#45413C" stroke-linecap="round" stroke-linejoin="round" stroke-miterlimit="10"></path></g></g><ellipse id="XMLID_491_" class="st43" cx="16.9" cy="17.7" rx="1.3" ry="0.8" fill="#627B8C"></ellipse><g id="XMLID_489_"><path id="XMLID_490_" class="st21" d="M20.8 23.6c-.3 0-.5-.1-.7-.3-.1-.3-.2-.5-.1-.8.2-.9.8-1.7 1.5-2.3.7-.6 1.6-.9 2.6-.9s1.9.3 2.6.9c.7.6 1.3 1.4 1.5 2.3.1.3 0 .5-.2.7-.2.2-.4.3-.7.3 0 0-2-.4-3.3-.4-1.2 0-3.2.5-3.2.5z" fill="#FFB0CA" stroke="#45413C" stroke-linecap="round" stroke-linejoin="round" stroke-miterlimit="10"></path></g><path id="XMLID_488_" class="st10" d="M19.7 14.3c-.4 1.1-1.6 1.7-2.7 1.3" fill="none" stroke="#45413C" stroke-linecap="round" stroke-linejoin="round" stroke-miterlimit="10"></path><ellipse id="XMLID_487_" class="st43" cx="31.2" cy="17.7" rx="1.3" ry="0.8" fill="#627B8C"></ellipse><path id="XMLID_486_" class="st10" d="M28.4 14.3c.4 1.1 1.6 1.7 2.7 1.3" fill="none" stroke="#45413C" stroke-linecap="round" stroke-linejoin="round" stroke-miterlimit="10"></path><g id="XMLID_482_"><path id="XMLID_485_" class="st44" d="M31.8 44.2c0 .9-.7 1.6-1.6 1.6-.9 0-1.6-.7-1.6-1.6 0-.6.8-2.5 1.3-3.5.1-.2.5-.2.6 0 .5 1 1.3 2.9 1.3 3.5z" fill="#C0DCEB"></path><path id="XMLID_484_" class="st18" d="M30.2 44.7c-.7 0-1.2-.4-1.5-1-.1.2-.1.4-.1.5 0 .9.7 1.6 1.6 1.6.9 0 1.6-.7 1.6-1.6 0-.1 0-.3-.1-.5-.2.6-.8 1-1.5 1z" fill="#E8F4FA"></path><path id="XMLID_483_" class="st10" d="M31.8 44.2c0 .9-.7 1.6-1.6 1.6-.9 0-1.6-.7-1.6-1.6 0-.6.8-2.5 1.3-3.5.1-.2.5-.2.6 0 .5 1 1.3 2.9 1.3 3.5z" fill="none" stroke="#45413C" stroke-linecap="round" stroke-linejoin="round" stroke-miterlimit="10"></path></g><g id="XMLID_478_"><path id="XMLID_481_" class="st44" d="M36.8 37.3c0 .9-.7 1.6-1.6 1.6s-1.6-.7-1.6-1.6c0-.6.8-2.5 1.3-3.5.1-.2.5-.2.6 0 .5 1 1.3 2.9 1.3 3.5z" fill="#C0DCEB"></path><path id="XMLID_480_" class="st18" d="M35.2 37.9c-.7 0-1.2-.4-1.5-1-.1.2-.1.4-.1.5 0 .9.7 1.6 1.6 1.6.9 0 1.6-.7 1.6-1.6 0-.1 0-.3-.1-.5-.2.5-.8 1-1.5 1z" fill="#E8F4FA"></path><path id="XMLID_479_" class="st10" d="M36.8 37.3c0 .9-.7 1.6-1.6 1.6s-1.6-.7-1.6-1.6c0-.6.8-2.5 1.3-3.5.1-.2.5-.2.6 0 .5 1 1.3 2.9 1.3 3.5z" fill="none" stroke="#45413C" stroke-linecap="round" stroke-linejoin="round" stroke-miterlimit="10"></path></g><g id="XMLID_474_"><path id="XMLID_477_" class="st44" d="M16.2 44.2c0 .9.7 1.6 1.6 1.6s1.6-.7 1.6-1.6c0-.6-.8-2.5-1.3-3.5-.1-.2-.5-.2-.6 0-.5 1-1.3 2.9-1.3 3.5z" fill="#C0DCEB"></path><path id="XMLID_476_" class="st18" d="M17.8 44.7c.7 0 1.2-.4 1.5-1 .1.2.1.4.1.5 0 .9-.7 1.6-1.6 1.6s-1.6-.7-1.6-1.6c0-.1 0-.3.1-.5.2.6.8 1 1.5 1z" fill="#E8F4FA"></path><path id="XMLID_475_" class="st10" d="M16.2 44.2c0 .9.7 1.6 1.6 1.6s1.6-.7 1.6-1.6c0-.6-.8-2.5-1.3-3.5-.1-.2-.5-.2-.6 0-.5 1-1.3 2.9-1.3 3.5z" fill="none" stroke="#45413C" stroke-linecap="round" stroke-linejoin="round" stroke-miterlimit="10"></path></g><g id="XMLID_470_"><path id="XMLID_473_" class="st44" d="M11.2 37.3c0 .9.7 1.6 1.6 1.6.9 0 1.6-.7 1.6-1.6 0-.6-.8-2.5-1.3-3.5-.1-.2-.5-.2-.6 0-.5 1-1.3 2.9-1.3 3.5z" fill="#C0DCEB"></path><path id="XMLID_472_" class="st18" d="M12.8 37.9c.7 0 1.2-.4 1.5-1 .1.2.1.4.1.5 0 .9-.7 1.6-1.6 1.6-.9 0-1.6-.7-1.6-1.6 0-.1 0-.3.1-.5.2.5.8 1 1.5 1z" fill="#E8F4FA"></path><path id="XMLID_471_" class="st10" d="M11.2 37.3c0 .9.7 1.6 1.6 1.6.9 0 1.6-.7 1.6-1.6 0-.6-.8-2.5-1.3-3.5-.1-.2-.5-.2-.6 0-.5 1-1.3 2.9-1.3 3.5z" fill="none" stroke="#45413C" stroke-linecap="round" stroke-linejoin="round" stroke-miterlimit="10"></path></g><g id="XMLID_466_"><path id="XMLID_469_" class="st44" d="M25.6 40.8c0 .9-.7 1.6-1.6 1.6-.9 0-1.6-.7-1.6-1.6 0-.6.8-2.5 1.3-3.5.1-.2.5-.2.6 0 .4 1 1.3 2.8 1.3 3.5z" fill="#C0DCEB"></path><path id="XMLID_468_" class="st18" d="M24 41.3c-.7 0-1.2-.4-1.5-1-.1.2-.1.4-.1.5 0 .9.7 1.6 1.6 1.6.9 0 1.6-.7 1.6-1.6 0-.1 0-.3-.1-.5-.3.6-.8 1-1.5 1z" fill="#E8F4FA"></path><path id="XMLID_467_" class="st10" d="M25.6 40.8c0 .9-.7 1.6-1.6 1.6-.9 0-1.6-.7-1.6-1.6 0-.6.8-2.5 1.3-3.5.1-.2.5-.2.6 0 .4 1 1.3 2.8 1.3 3.5z" fill="none" stroke="#45413C" stroke-linecap="round" stroke-linejoin="round" stroke-miterlimit="10"></path></g><g id="XMLID_464_"><path id="XMLID_465_" class="st21" d="M20.8 23.6c-.3 0-.5-.1-.7-.3-.1-.3-.2-.5-.1-.8.2-.9.8-1.7 1.5-2.3.7-.6 1.6-.9 2.6-.9s1.9.3 2.6.9c.7.6 1.3 1.4 1.5 2.3.1.3 0 .5-.2.7-.2.2-.4.3-.7.3 0 0-2-.4-3.3-.4-1.2 0-3.2.5-3.2.5z" fill="#FFB0CA" stroke="#45413C" stroke-linecap="round" stroke-linejoin="round" stroke-miterlimit="10"></path></g></g></g></svg>
