<svg xmlns="http://www.w3.org/2000/svg" version="1.1" viewBox="0 0 182.7 54.8" id="CafeBazzarButton">
  <path fill="#040606"
    d="M182.7 49.3c0 3-2.4 5.5-5.3 5.5H5.2A5.2 5.5 0 010 49.4v-44C0 2.5 2.4 0 5.2 0h172.2c2.9 0 5.3 2.5 5.3 5.5v43.8"
  ></path>
  <g fill="#fff">
    <path d="M92 15.2V34c0 1.2.7 2.7 1.3 3.6l.3.5.5.5c.5.4 1.2 1 2 1.2.6.3 1.7.7 2.6.7h7.2a3.6 3.6 0 002.3-1 3.6 3.6 0 00-.7-5.8c-1.4-.8-7-.1-7.8-.5a1 1 0 01-.6-.6c-.2-.5 0-13.3 0-14.5 0-2.4.1-4.4-1.8-5.6a3.6 3.6 0 00-5 1.2 3 3 0 00-.3 1.5m-21 25c0 1.3.2 2.2 1.2 3 .7.7 1.7 1 2.8 1h6c4.5 0 7.5-3.2 7.5-7.8v-9.7a4 4 0 00-.9-3 3.5 3.5 0 00-5.1 0c-1.2 1.2-1 1.8-1 3.2v8c0 1.6-.3 2-2 2h-3.9c-1.6 0-2.2 0-3.2.7-.7.5-1.4 1.4-1.4 2.5m-21-7.1c0 1.6.5 2.9 2 3.6l1.3.3H61c3.3 0 6.7-3.3 6.7-7.3V19.3a3.6 3.6 0 00-1-2.6 3.6 3.6 0 00-5.3 0c-.7 1.1-.8 1.5-.8 3.2v8c0 .8 0 1.2-.4 1.6-.4.4-.7.3-1.5.3h-4c-1.8 0-3.2.3-4.1 1.7a4 4 0 00-.5 1.6" ></path>
    <path d="M71 11.8v18.4c0 2.8 4 4.6 6 2.2.6-.8 1.1-1.6 1.1-3V12.4c0-1.2-.5-2-1-2.7-2.4-2.4-6-.6-6 2.2M88.3 44c0 2.2 1.6 3.6 3.6 3.6 3.8 0 4.7-5.2 1.5-6.8a3.6 3.6 0 00-5 3.2m-7-28.6c0 1.2.2 2 1 2.8 2 2 6 .7 6-2.7A3.6 3.6 0 0085 12a3.7 3.7 0 00-3.6 3.5" ></path>
    <g stroke-width="1.3">
      <path d="M119 23.5c0-.4.2-.6.4-.9l.9-.2c.2 0 .6 0 .7.2.3.3.4.5.4 1 0 .2 0 .6-.4.8l-.7.3c-.4 0-.6 0-.9-.3a1.2 1.3 0 01-.4-.9zm-2.4 10.2c1 0 1.7-.3 2.2-.7.4-.4.6-.9.6-1.7v-5h1.6V31c0 .6 0 1.2-.2 1.6L120 34a3.5 3.6 0 01-2.8 1.3H116l-.3-1.5h1m6.7-2.5v-10h1.5v10h-1.5m13-7c0-.4.2-.7.4-.8l.7-.4c.3 0 .5.1.6.4.3.1.4.4.4.6 0 .4-.1.5-.4.8l-.6.3c-.2 0-.5 0-.7-.3a1 1 0 01-.3-.8zm-2.6 0a1 1 0 011-1.2l.7.4.3.6c0 .4 0 .5-.3.8l-.7.3a1 1 0 01-1-1zm9.9 7h-1l-1-.5c-.4.4-.9.5-1.3.5h-8.1c-.6 0-1.2-.1-1.6-.6-.4-.4-.5-1-.5-1.8v-2.5h1.5v2.2c0 .4 0 .8.2 1l.9.2h7.2c.4 0 .7 0 .8-.3l.2-.9v-2.2h1.5v2.2c0 .5.2.8.5 1l.8.2h.1v1.5" ></path>
      <path d="M149.1 27.1a2.1 2.2 0 00-.3-1.3l-.5-.4a1.2 1.3 0 00-.5-.2c-.5 0-.8.1-1 .4l-.3.7c0 .3.2.4.4.6h.6zm-2.4-5.5c0-.4 0-.7.2-1l.9-.2c.2 0 .5 0 .7.3.3.2.4.5.4.9s-.1.6-.4.9c-.2.2-.5.2-.7.2a1.2 1.3 0 01-.9-.2 1.2 1.3 0 01-.4-1zm-3.3 8.2h.3l.2-.1h4.1c.5 0 .9 0 1-.3l.1-.8h-1.8c-.8 0-1.2-.2-1.5-.7-.4-.4-.5-1-.5-1.7 0-.4 0-.6.3-1a2.5 2.6 0 011.2-1.3 2.7 2.8 0 012.2 0l.9.8.6 1 .1 1.3V29.4l-.6 1-.6.6c-.4.2-.6.2-1.1.2h-4.9v-1.4m12 1.4c-.7 0-1.2-.1-1.7-.5s-.7-1.2-.7-2v-7.5h1.5v7.2c0 .5.1.9.3 1l1 .3h.3v1.5h-.6" ></path>
      <path d="M157.7 34c0-.3 0-.6.2-.7.3-.3.5-.3.8-.3s.5 0 .7.3l.3.6c0 .4 0 .7-.3.8l-.7.4-.8-.4a1 1 0 01-.2-.8zm-2.1-4.2h.1l.4-.1h2.6l.2-.4.3-.4v-2.6h1.5v2.5c0 .7-.2 1.3-.5 1.8-.4.5-1 .6-1.8.6h-2.8zm-.4 4.1c0-.2 0-.5.3-.6 0-.3.3-.3.7-.3.3 0 .5 0 .6.3.3.1.4.4.4.6a1 1 0 01-1 1.2c-.4 0-.6-.2-.7-.4a1 1 0 01-.3-.8m8.2-.9c.5-.4.7-.9.7-1.7v-5h1.5V31c0 .6 0 1.2-.2 1.6-.1.5-.4 1-.8 1.3-.3.5-.7.8-1.2 1l-1.5.3h-.7l-.3-1.5h.4c1 0 1.6-.3 2-.7m4.6-1.8l-.3-1.5h5l.5-.2.2-.3c0-.3 0-.6-.2-.7l-3.5-3.7 1.1-1 3.3 3.7.5.9.3.9c0 .5-.3 1-.6 1.3-.4.5-.9.6-1.6.6h-4.7" ></path>
    </g>
    <path d="M24.5 44.3a14 14 0 01-5.1-1.4c-2.2-1-3-2-4.4-5.8-2.7-7.1-4.4-15-3.4-16.7.3-.7 1-1.3 2-1.7.9-.5 4-1.4 6.4-2l1.7-.3 1.3-2.6c2-4.2 3.2-5.5 4.8-5.5 1 0 1.9.4 2.6 1.3.6.7 2.5 4.2 3 5.8l.4 1 1.3.3c4.6 1 6.5 1.7 7.8 2.8.8.8 1 1.4 1 3 0 4.5-4 16.8-6.5 19.3-1.5 1.7-4 2.4-8.6 2.5a50 50 0 01-4.3 0zm-.9-28.8c1.8-3.3 3.6-4.6 5.2-4 1 .5 2.4 2.2 3.3 4.1.4.9.8 1.2.6.5a45 45 0 00-2-4.4c-.5-1-1.4-2-2-2.2-1.5-.8-3 .6-5 4.7l-.8 2c0 .5.2.2.7-.7zm7.7.7c0-.3-1.1-2.1-1.7-2.8-1.1-1.3-2-1.4-3-.4a12 12 0 00-2.2 3c0 .3.6.3 3.5.3h3.4z" ></path>
  </g>
</svg>
