<svg style="width:15px;height:15px" version="1.1" xmlns="http://www.w3.org/2000/svg" width="32" height="32" viewBox="0 0 32 32" id="AngleDownIcon">
  <title>angle-down</title>
  <path d="M1.1 7.725c-1.067 1.067-1.1 1.123-1.1 1.594v0.505l7.781 7.77c7.68 7.691 7.781 7.781 8.219 7.781s0.539-0.090 8.219-7.77l7.781-7.781v-0.494c0-0.483-0.034-0.539-1.1-1.606-1.718-1.718-0.775-2.302-8.387 5.3-3.526 3.514-6.434 6.4-6.467 6.4s-2.785-2.74-6.119-6.074c-3.324-3.346-6.254-6.22-6.49-6.4-0.292-0.213-0.573-0.326-0.831-0.326-0.359 0-0.528 0.123-1.505 1.1z"></path>{' '}
</svg>
