<svg xmlns="http://www.w3.org/2000/svg" version="1.1" id="TrackIcon" x="0px" y="0px" width="64px" height="64px" viewBox="0 0 64 64" xml space="preserve"><path fill="#C69981" stroke="#494949" stroke-width="1.5" stroke-linecap="round" stroke-linejoin="round" stroke-miterlimit="10" d="M31.674 21.716c.053.078.217.329.271.417 3.982 6.67 5.657 33.908 5.657 33.908 3.7.131 6.342-.463 6.342-.463l-2.049-25.371-1.649-18.698.047-1.841s-2.621 1.248-8.503 1.379h-.316c-5.881-.131-8.469-1.379-8.469-1.379l.012 1.841-1.652 18.698-2.047 25.371s2.641.594 6.342.463c0 0 1.674-27.238 5.656-33.908.055-.088.219-.34.271-.417h.087z" id="Track_Pant"></path></svg>
