<svg xmlns="http://www.w3.org/2000/svg" viewBox="0 0 32 32" id="PrayingBeadsIcon"><circle cx="7.087" cy="2.163" r="1.5" fill="#f7991d"></circle><path fill="#2c2b2d" d="M7.08643,4.16357a2,2,0,1,1,2-2A2.002,2.002,0,0,1,7.08643,4.16357Zm0-3a1,1,0,1,0,1,1A1.0013,1.0013,0,0,0,7.08643,1.16357Z"></path><circle cx="10.245" cy="2.453" r="1.5" fill="#f7991d"></circle><path fill="#2c2b2d" d="M10.24561,4.45313a2,2,0,1,1,2-2A2.002,2.002,0,0,1,10.24561,4.45313Zm0-3a1,1,0,1,0,1,1A1.0013,1.0013,0,0,0,10.24561,1.45313Z"></path><circle cx="12.551" cy="4.39" r="1.5" fill="#f7991d"></circle><path fill="#2c2b2d" d="M12.55127,6.39014a2,2,0,1,1,2-2A2.002,2.002,0,0,1,12.55127,6.39014Zm0-3a1,1,0,1,0,1,1A1.0013,1.0013,0,0,0,12.55127,3.39014Z"></path><circle cx="14.051" cy="7.145" r="1.5" fill="#f7991d"></circle><path fill="#2c2b2d" d="M14.05127,9.145a2,2,0,1,1,2-2A2.002,2.002,0,0,1,14.05127,9.145Zm0-3a1,1,0,1,0,1,1A1.0013,1.0013,0,0,0,14.05127,6.145Z"></path><circle cx="15.874" cy="9.645" r="1.5" fill="#f7991d"></circle><path fill="#2c2b2d" d="M15.874,11.645a2,2,0,1,1,2-2A2.002,2.002,0,0,1,15.874,11.645Zm0-3a1,1,0,1,0,1,1A1.0013,1.0013,0,0,0,15.874,8.645Z"></path><circle cx="17.983" cy="11.9" r="1.5" fill="#f7991d"></circle><path fill="#2c2b2d" d="M17.98242,13.8999a2,2,0,1,1,2-2A2.00187,2.00187,0,0,1,17.98242,13.8999Zm0-3a1,1,0,1,0,1,1A1.0012,1.0012,0,0,0,17.98242,10.8999Z"></path><circle cx="20.604" cy="13.4" r="1.5" fill="#f7991d"></circle><path fill="#2c2b2d" d="M20.60449,15.3999a2,2,0,1,1,2-2A2.00229,2.00229,0,0,1,20.60449,15.3999Zm0-3a1,1,0,1,0,1,1A1.001,1.001,0,0,0,20.60449,12.3999Z"></path><circle cx="23.15" cy="15.097" r="1.5" fill="#f7991d"></circle><path fill="#2c2b2d" d="M23.15039,17.09668a2,2,0,1,1,2-2A2.00229,2.00229,0,0,1,23.15039,17.09668Zm0-3a1,1,0,1,0,1,1A1.001,1.001,0,0,0,23.15039,14.09668Z"></path><circle cx="25.256" cy="17.233" r="1.5" fill="#f7991d"></circle><path fill="#2c2b2d" d="M25.25586,19.2334a2,2,0,1,1,2-2A2.00229,2.00229,0,0,1,25.25586,19.2334Zm0-3a1,1,0,1,0,1,1A1.001,1.001,0,0,0,25.25586,16.2334Z"></path><circle cx="26.686" cy="20.046" r="1.5" fill="#f7991d"></circle><path fill="#2c2b2d" d="M26.68555,22.04639a2,2,0,1,1,2-2A2.0023,2.0023,0,0,1,26.68555,22.04639Zm0-3a1,1,0,1,0,1,1A1.001,1.001,0,0,0,26.68555,19.04639Z"></path><circle cx="25.246" cy="22.754" r="1.5" fill="#f7991d"></circle><path fill="#2c2b2d" d="M25.24609,24.75391a2,2,0,1,1,2-2A2.0023,2.0023,0,0,1,25.24609,24.75391Zm0-3a1,1,0,1,0,1,1A1.001,1.001,0,0,0,25.24609,21.75391Z"></path><circle cx="22.94" cy="24.691" r="1.5" fill="#f7991d"></circle><path fill="#2c2b2d" d="M22.94043,26.69092a2,2,0,1,1,2-2A2.00229,2.00229,0,0,1,22.94043,26.69092Zm0-3a1,1,0,1,0,1,1A1.001,1.001,0,0,0,22.94043,23.69092Z"></path><circle cx="20.05" cy="25.46" r="1.5" fill="#f7991d"></circle><path fill="#2c2b2d" d="M20.0498,27.46045a2,2,0,1,1,2-2A2.0023,2.0023,0,0,1,20.0498,27.46045Zm0-3a1,1,0,1,0,1,1A1.001,1.001,0,0,0,20.0498,24.46045Z"></path><circle cx="17.104" cy="24.636" r="1.5" fill="#f7991d"></circle><path fill="#2c2b2d" d="M17.10352,26.63574a2,2,0,1,1,2-2A2.00188,2.00188,0,0,1,17.10352,26.63574Zm0-3a1,1,0,1,0,1,1A1.00089,1.00089,0,0,0,17.10352,23.63574Z"></path><circle cx="14.983" cy="22.515" r="1.5" fill="#f7991d"></circle><path fill="#2c2b2d" d="M14.98291,24.51465a2,2,0,1,1,2-2A2.002,2.002,0,0,1,14.98291,24.51465Zm0-3a1,1,0,1,0,1,1A1.0013,1.0013,0,0,0,14.98291,21.51465Z"></path><circle cx="12.934" cy="20.046" r="1.5" fill="#f7991d"></circle><path fill="#2c2b2d" d="M12.93359,22.04639a2,2,0,1,1,2-2A2.002,2.002,0,0,1,12.93359,22.04639Zm0-3a1,1,0,1,0,1,1A1.0013,1.0013,0,0,0,12.93359,19.04639Z"></path><circle cx="11.434" cy="17.233" r="1.5" fill="#f7991d"></circle><path fill="#2c2b2d" d="M11.43359,19.2334a2,2,0,1,1,2-2A2.002,2.002,0,0,1,11.43359,19.2334Zm0-3a1,1,0,1,0,1,1A1.0013,1.0013,0,0,0,11.43359,16.2334Z"></path><circle cx="9.334" cy="14.645" r="1.5" fill="#f7991d"></circle><path fill="#2c2b2d" d="M9.3335,16.645a2,2,0,1,1,2-2A2.002,2.002,0,0,1,9.3335,16.645Zm0-3a1,1,0,1,0,1,1A1.0013,1.0013,0,0,0,9.3335,13.645Z"></path><circle cx="7.087" cy="12.535" r="1.5" fill="#f7991d"></circle><path fill="#2c2b2d" d="M7.08643,14.53467a2,2,0,1,1,2-2A2.002,2.002,0,0,1,7.08643,14.53467Zm0-3a1,1,0,1,0,1,1A1.0013,1.0013,0,0,0,7.08643,11.53467Z"></path><circle cx="4.442" cy="11.035" r="1.5" fill="#f7991d"></circle><path fill="#2c2b2d" d="M4.44189,13.03467a2,2,0,1,1,2-2A2.002,2.002,0,0,1,4.44189,13.03467Zm0-3a1,1,0,1,0,1,1A1.00131,1.00131,0,0,0,4.44189,10.03467Z"></path><circle cx="2.488" cy="8.576" r="1.5" fill="#f7991d"></circle><path fill="#2c2b2d" d="M2.48779,10.57666a2,2,0,1,1,2-2A2.002,2.002,0,0,1,2.48779,10.57666Zm0-3a1,1,0,1,0,1,1A1.0013,1.0013,0,0,0,2.48779,7.57666Z"></path><circle cx="2.021" cy="5.453" r="1.5" fill="#f7991d"></circle><path fill="#2c2b2d" d="M2.02051,7.45313a2,2,0,1,1,2-2A2.002,2.002,0,0,1,2.02051,7.45313Zm0-3a1,1,0,1,0,1,1A1.0013,1.0013,0,0,0,2.02051,4.45313Z"></path><circle cx="4.075" cy="2.89" r="1.5" fill="#f7991d"></circle><path fill="#2c2b2d" d="M4.07471 4.89014a2 2 0 1 1 2-2A2.002 2.002 0 0 1 4.07471 4.89014zm0-3a1 1 0 1 0 1 1A1.0013 1.0013 0 0 0 4.07471 1.89014zM26.25684 26.61426a.49839.49839 0 0 1-.35352-.14649L24.2334 24.79736a.49995.49995 0 0 1 .707-.707l1.66992 1.67041a.5.5 0 0 1-.35351.85352z"></path><path fill="#e5303e" d="M26.25692,26.114a8.03642,8.03642,0,0,1,2.86139.5185,9.21,9.21,0,0,1,1.97218,1.22916.99749.99749,0,0,1,.09467,1.49809l-1.68249,1.68249a.99748.99748,0,0,1-1.49809-.09468,9.20966,9.20966,0,0,1-1.22916-1.97217,8.03642,8.03642,0,0,1-.5185-2.86139"></path><path fill="#2c2b2d" d="M28.793,31.83691c-.03418,0-.06738-.00146-.10156-.00341a1.488,1.488,0,0,1-1.084-.583,9.13452,9.13452,0,0,1-1.2998-2.09815,8.50581,8.50581,0,0,1-.55078-3.03955.5185.5185,0,0,1,.52441-.49853,8.49291,8.49291,0,0,1,3.01367.55029,9.16068,9.16068,0,0,1,2.09961,1.29981,1.49676,1.49676,0,0,1,.14453,2.24853L29.85645,31.396A1.504,1.504,0,0,1,28.793,31.83691Zm-2.02051-5.20654a7.50805,7.50805,0,0,0,.4707,2.16846A8.39146,8.39146,0,0,0,28.40234,30.644a.48138.48138,0,0,0,.35645.19141.49392.49392,0,0,0,.39062-.14649L30.832,29.00635a.50639.50639,0,0,0,.14649-.39063.48051.48051,0,0,0-.19141-.35644,8.4139,8.4139,0,0,0-1.8457-1.15918A7.48638,7.48638,0,0,0,26.77246,26.63037Z"></path></svg>
