<svg xmlns="http://www.w3.org/2000/svg" version="1.1" x="0px" y="0px" viewBox="0 0 48 48" xml space="preserve" id="Orange2Icon"><style type="text/css"></style><symbol id="New_Symbol_14" viewBox="-6.5 -6.5 13 13"><path class="st0" d="M0-6c2.2 0 4.1 1.5 4.7 3.5C6.3-2.5 6.4 0 5 0v1c0 2.8-2.2 5-5 5s-5-2.2-5-5V0c-1.4 0-1.3-2.5.2-2.5C-4.1-4.5-2.2-6 0-6z" fill="#FFD4C3" stroke="#504B46" stroke-linecap="round" stroke-linejoin="round" stroke-miterlimit="10"></path><circle class="st1" cx="-1.6" cy="-0.1" r="0.1" fill="#FFC258"></circle><path class="st2" d="M-1.6.5c-.3 0-.6-.3-.6-.6s.2-.7.6-.7c.3 0 .6.3.6.7s-.3.6-.6.6z" fill="#4F4B45"></path><circle class="st1" cx="1.6" cy="-0.1" r="0.1" fill="#FFC258"></circle><path class="st2" d="M1.6.5C1.3.5 1 .2 1-.1s.3-.6.6-.6.6.3.6.6-.2.6-.6.6z" fill="#4F4B45"></path><circle class="st3" cx="-3" cy="-1.5" r="0.5" fill="#FABFA5"></circle><circle class="st3" cx="3" cy="-1.5" r="0.5" fill="#FABFA5"></circle><path class="st4" d="M-1.2-3c.8-.5 1.7-.5 2.5 0" fill="none" stroke="#504B46" stroke-linecap="round" stroke-linejoin="round" stroke-miterlimit="10"></path></symbol><g id="Icons"><g id="XMLID_1889_"><ellipse id="XMLID_1583_" class="st5" cx="13.2" cy="45" rx="9" ry="1.5" fill="#45413C" opacity="0.15"></ellipse><ellipse id="XMLID_1597_" class="st5" cx="34.2" cy="45" rx="9" ry="1.5" fill="#45413C" opacity="0.15"></ellipse><g id="XMLID_1694_"><path id="XMLID_1707_" class="st61" d="M12.2 30.6c.1 3.9-1.5 10.1-1.5 10.1-.1.3-.4.5-.7.5-2.6-.4-4.7-.2-5.3.5-.1.1-.1.3.1.4.5.4 2.3 1.7 6 2.5s5.9.4 6.5.2c.2 0 .3-.2.2-.4-.2-.8-2.1-1.9-4.6-2.6-.3-.1-.5-.4-.4-.7 0 0 1-6.3 2.8-9.8l-3.1-.7z" fill="#00B8F0" stroke="#45413C" stroke-linecap="round" stroke-linejoin="round" stroke-miterlimit="10"></path><g id="XMLID_1702_"><path id="XMLID_1706_" class="st35" d="M22.3 25.9c-.8 3.9-4.9 7.1-8.8 6.2-3.9-.8-6.3-5.3-5.4-9.3L14 1.7l11.8 2.5-3.5 21.7z" fill="#00B8F0"></path><path id="XMLID_1705_" class="st36" d="M24 15.1l1.7-10.8-11.8-2.5-5.9 21c-.2.9-.2 1.9-.1 2.8 6.2-2.2 11.9-5.8 16.1-10.5z" fill="#4ACFFF"></path><path id="XMLID_1704_" class="st10" d="M22.3 25.9c-.8 3.9-4.9 7.1-8.8 6.2-3.9-.8-6.3-5.3-5.4-9.3L14 1.7l11.8 2.5-3.5 21.7z" fill="none" stroke="#45413C" stroke-linecap="round" stroke-linejoin="round" stroke-miterlimit="10"></path><ellipse id="XMLID_1703_" transform="matrix(0.2113 -0.9774 0.9774 0.2113 12.6332 21.7084)" class="st61" cx="19.8" cy="3" rx="1.3" ry="6" fill="#00B8F0" stroke="#45413C" stroke-linecap="round" stroke-linejoin="round" stroke-miterlimit="10"></ellipse></g><g id="XMLID_1698_"><path id="XMLID_1701_" class="st11" d="M11.5 18.7s1-1.4 2.8-1c2.2.5 3.1 2.3 3.1 2.3l-5.9-1.3z" fill="#FFE500"></path><path id="XMLID_1700_" class="st11" d="M20.9 25c-.7 3.1-4 6.3-7 5.6-3.1-.7-4.8-4.9-4.1-8l1.4-4.9s.4 1.1 2.6 1.5c2.2.5 3.2-1.3 5.4-.8s2.6 1.5 2.6 1.5l-.9 5.1z" fill="#FFE500"></path><path id="XMLID_1699_" class="st45" d="M20.2 18.8c-.3-.1-.7-.3-1.1-.4-2.2-.5-3.2 1.3-5.4.8s-2.6-1.5-2.6-1.5l-1.4 4.9c-.2.8-.2 1.6-.1 2.5 3.9-1.6 7.5-3.7 10.6-6.3z" fill="#FFF48C"></path></g><g id="XMLID_1695_"><ellipse id="XMLID_1697_" transform="matrix(0.2113 -0.9774 0.9774 0.2113 6.0514 21.9025)" class="st16" cx="16.6" cy="7.2" rx="1.3" ry="1.3" fill="#E5F8FF"></ellipse><ellipse id="XMLID_1696_" transform="matrix(0.2112 -0.9774 0.9774 0.2112 2.8468 20.8432)" class="st16" cx="14.3" cy="8.7" rx="0.6" ry="0.6" fill="#E5F8FF"></ellipse></g></g><g id="XMLID_1462_"><path id="XMLID_1693_" class="st61" d="M33 31.2c1.8 3.5 2.9 9.8 2.9 9.8.1.3-.1.6-.4.7-2.5.8-4.3 1.8-4.6 2.6 0 .2.1.3.2.4.7.2 2.8.5 6.5-.3s5.5-2.1 6-2.5c.1-.1.2-.3.1-.4-.6-.7-2.7-.8-5.3-.4-.3.1-.6-.2-.7-.5 0 0-1.7-6.2-1.6-10.1l-3.1.7z" fill="#00B8F0" stroke="#45413C" stroke-linecap="round" stroke-linejoin="round" stroke-miterlimit="10"></path><g id="XMLID_1471_"><path id="XMLID_1692_" class="st35" d="M40.2 22.7c.9 3.9-1.4 8.4-5.4 9.3-3.9.9-8-2.2-8.9-6.1L22.4 4.3l11.7-2.7 6.1 21.1z" fill="#00B8F0"></path><path id="XMLID_1691_" class="st36" d="M37.2 12.2l-3-10.5-11.8 2.6L26 25.9c.2.9.6 1.8 1.1 2.6 4.6-4.6 8.3-10.3 10.1-16.3z" fill="#4ACFFF"></path><path id="XMLID_1690_" class="st10" d="M40.2 22.7c.9 3.9-1.4 8.4-5.4 9.3-3.9.9-8-2.2-8.9-6.1L22.4 4.3l11.7-2.7 6.1 21.1z" fill="none" stroke="#45413C" stroke-linecap="round" stroke-linejoin="round" stroke-miterlimit="10"></path><ellipse id="XMLID_1472_" transform="matrix(0.9753 -0.221 0.221 0.9753 3.378389e-02 6.326)" class="st61" cx="28.3" cy="3" rx="6" ry="1.3" fill="#00B8F0" stroke="#45413C" stroke-linecap="round" stroke-linejoin="round" stroke-miterlimit="10"></ellipse></g><g id="XMLID_1467_"><path id="XMLID_1470_" class="st11" d="M27.4 20.7s.3-1.7 2.1-2.1c2.2-.5 3.7.8 3.7.8l-5.8 1.3z" fill="#FFE500"></path><path id="XMLID_1469_" class="st11" d="M38.5 22.4c.7 3.1-.9 7.4-4 8.1-3.1.7-6.4-2.5-7.1-5.5l-.8-5s.8.8 3 .3 2.4-2.5 4.5-3c2.2-.5 3 .3 3 .3l1.4 4.8z" fill="#FFE500"></path><path id="XMLID_1468_" class="st45" d="M35.3 17.1c-.3 0-.7.1-1.2.2-2.2.5-2.4 2.5-4.5 3-2.2.5-3-.3-3-.3l.8 5c.2.8.5 1.5 1 2.3 2.8-3.1 5.2-6.5 6.9-10.2z" fill="#FFF48C"></path></g><g id="XMLID_1463_"><ellipse id="XMLID_1466_" transform="matrix(0.9753 -0.221 0.221 0.9753 -1.1261 6.2073)" class="st16" cx="27.2" cy="8.1" rx="1.3" ry="1.3" fill="#E5F8FF"></ellipse><ellipse id="XMLID_1465_" transform="matrix(0.9753 -0.221 0.221 0.9753 -1.6639 5.9459)" class="st16" cx="25.7" cy="10.4" rx="0.6" ry="0.6" fill="#E5F8FF"></ellipse></g></g></g></g></svg>
