<svg
  version="1.0"
  xmlns="http://www.w3.org/2000/svg"
  width="588.000000pt"
  height="378.000000pt"
  viewBox="0 0 588.000000 378.000000"
  preserveAspectRatio="xMidYMid meet"
  style="width:150px;height:150px"
  id="EmptyBasketIcon"
>
  <g
    transform="translate(0.000000,378.000000) scale(0.100000,-0.100000)"
    stroke="none"
  >
    <path
      class="sleepy-z"
      fill="rgb(16, 224, 44)"
      fill-opacity="0.6"
      d="M2740 3150 c0 -18 7 -20 70 -20 40 0 70 -4 70 -10 0 -5 -34 -55 -75 -111 -41 -55 -75 -107 -75 -115 0 -11 22 -14 115 -14 96 0 115 3 115 15 0 18 2 17 -83 20 -37 1 -70 5 -74 8 -3 4 29 52 71 107 42 56 76 110 76 121 0 18 -8 19 -105 19 -98 0 -105 -1 -105 -20z"
    >
      <animate
        attributeName="fill-opacity"
        begin="0.7s"
        dur="1.8s"
        values="0.1;1;0.1"
        calcMode="linear"
        repeatCount="indefinite"
      />
    </path>
    <path
      class="sleepy-z"
      fill="rgb(16, 224, 44)"
      d="M3310 2575 c0 -12 13 -15 55 -15 30 0 55 -2 55 -5 0 -3 -27 -42 -60 -87 -33 -44 -60 -84 -60 -89 0 -5 41 -9 90 -9 73 0 90 3 90 15 0 12 -14 15 -65 15 l-66 0 61 79 c33 44 60 87 60 95 0 13 -14 16 -80 16 -64 0 -80 -3 -80 -15z"
    >
      <animate
        attributeName="fill-opacity"
        begin="0.4s"
        dur="1.8s"
        values="0.1;1;0.1"
        calcMode="linear"
        repeatCount="indefinite"
      />
    </path>
    <path
      class="sleepy-z"
      fill="rgb(16, 224, 44)"
      d="M2640 2286 c0 -10 14 -16 45 -18 l46 -3 -46 -63 c-59 -81 -55 -94 27 -90 78 4 95 28 19 28 -28 0 -51 3 -51 6 0 3 20 32 45 64 62 81 60 90 -20 90 -50 0 -65 -3 -65 -14z"
    >
      <animate
        attributeName="fill-opacity"
        begin="0.2s"
        dur="1.8s"
        values="0.1;1;0.1"
        calcMode="linear"
        repeatCount="indefinite"
      />
    </path>
    <path
      class="sleepy-z"
      fill="rgb(16, 224, 44)"
      d="M3065 1770 c3 -5 17 -10 31 -10 31 0 30 -4 -4 -49 -49 -62 -49 -61 14 -61 59 0 66 15 11 22 l-29 3 29 40 c49 67 49 65 -7 65 -32 0 -49 -4 -45 -10z"
    >
      <animate
        attributeName="fill-opacity"
        begin="0s"
        dur="1.8s"
        values="0.1;1;0.1"
        calcMode="linear"
        repeatCount="indefinite"
      />
    </path>
    <path
      fill="rgb(189, 189, 189)"
      class="empty-box"
      d="M1273 1963 c-38 -15 -7 -54 232 -293 l245 -245 0 -630 c0 -478 3 -634 12 -643 9 -9 327 -12 1370 -12 1332 0 1357 0 1368 19 6 13 10 233 10 643 l0 624 225 224 c124 124 228 233 231 243 3 10 0 25 -7 33 -10 12 -86 14 -553 12 l-541 -3 -225 -227 -224 -228 -396 0 -396 0 -244 245 -244 245 -426 -1 c-234 0 -431 -3 -437 -6z m1080 -301 l237 -238 -3 -604 -2 -605 -382 -3 -383 -2 0 600 0 600 254 0 c271 0 292 4 262 46 -13 18 -32 19 -278 22 l-263 3 -202 202 c-112 111 -203 205 -203 209 0 5 163 8 363 8 l363 0 237 -238z m2487 201 c0 -4 -84 -92 -187 -195 l-187 -188 -476 0 -475 0 195 195 195 195 467 0 c258 0 468 -3 468 -7z m-402 -1055 l2 -598 -895 0 -895 0 0 593 c0 327 3 597 7 600 3 4 405 6 892 5 l886 -3 3 -597z"
    />
    <path
      fill="rgb(189, 189, 189)"
      class="empty-box"
      d="M3224 1086 c-14 -35 57 -96 111 -96 28 0 101 45 110 69 11 27 -13 36 -37 14 -58 -53 -89 -54 -135 -8 -40 40 -42 40 -49 21z"
    />
    <path
      fill="rgb(189, 189, 189)"
      class="empty-box"
      d="M3738 1065 c-46 -43 -67 -44 -111 -5 -40 35 -57 38 -57 10 0 -25 74 -80 107 -80 51 0 129 62 117 93 -9 23 -14 22 -56 -18z"
    />
    <path
      fill="rgb(189, 189, 189)"
      class="empty-box"
      d="M3410 706 c-57 -16 -122 -50 -140 -71 -27 -33 9 -34 71 -3 118 58 224 58 352 0 55 -25 68 -28 77 -17 9 11 5 18 -22 35 -97 59 -243 84 -338 56z"
    />
    <path
      fill="rgb(189, 189, 189)"
      class="empty-box"
      d="M154 196 c-3 -8 -4 -23 -2 -33 3 -17 20 -18 224 -21 184 -2 223 0 233 12 9 11 10 20 1 35 -10 20 -19 21 -231 21 -182 0 -221 -2 -225 -14z"
    />
    <path
      fill="rgb(189, 189, 189)"
      class="empty-box"
      d="M739 194 c-9 -11 -10 -20 -2 -32 9 -15 48 -17 419 -17 l409 0 0 30 0 30 -406 3 c-362 2 -408 0 -420 -14z"
    />
    <path
      fill="rgb(189, 189, 189)"
      class="empty-box"
      d="M4661 196 c-9 -11 -10 -20 -1 -35 11 -21 16 -21 474 -21 499 0 503 0 476 49 -11 21 -16 21 -474 21 -391 0 -465 -2 -475 -14z"
    />
  </g>
</svg>
