<?xml version="1.0" encoding="UTF-8"?><!DOCTYPE svg PUBLIC "-//W3C//DTD SVG 1.1//EN" "http://www.w3.org/Graphics/SVG/1.1/DTD/svg11.dtd"><svg xmlns="http://www.w3.org/2000/svg" xmlns:xlink="http://www.w3.org/1999/xlink" version="1.1" id="Layer_1" x="0px" y="0px" width="64px" height="64px" viewBox="0 0 64 64" xml:space="preserve"><g stroke="#494949" stroke-width="1.5" stroke-linecap="round" stroke-linejoin="round" stroke-miterlimit="10" id="Men_x2019_s_Vest"><path fill="#D6E167" d="M39.499 9.265h2.828v10.594c0 5.905.962 7.483 4.007 8.902v27.704h-29V28.761c3.045-1.418 4.006-2.997 4.006-8.902V9.265l2.8.007v-.007c0 4.242 3.438 7.611 7.679 7.611 4.242 0 7.68-3.369 7.68-7.611z"/><path fill="#B7B444" d="M24.141 9.874v-.602 5.707a7.679 7.679 0 1 0 15.358 0V9.265v.609-.609c0 4.242-3.438 7.611-7.679 7.611s-7.679-3.369-7.679-7.611v.609z"/></g><metadata><rdf:RDF xmlns:rdf="http://www.w3.org/1999/02/22-rdf-syntax-ns#" xmlns:rdfs="http://www.w3.org/2000/01/rdf-schema#" xmlns:dc="http://purl.org/dc/elements/1.1/"><rdf:Description about="https://iconscout.com/legal#licenses" dc:title="mens,vest" dc:description="mens,vest" dc:publisher="Iconscout" dc:date="2017-09-22" dc:format="image/svg+xml" dc:language="en"><dc:creator><rdf:Bag><rdf:li>Creativebin</rdf:li></rdf:Bag></dc:creator></rdf:Description></rdf:RDF></metadata></svg>