<?xml version="1.0" encoding="UTF-8"?><!DOCTYPE svg PUBLIC "-//W3C//DTD SVG 1.1//EN" "http://www.w3.org/Graphics/SVG/1.1/DTD/svg11.dtd"><svg xmlns="http://www.w3.org/2000/svg" xmlns:xlink="http://www.w3.org/1999/xlink" version="1.1" id="Layer_1" x="0px" y="0px" width="64px" height="64px" viewBox="0 0 64 64" xml:space="preserve"><g id="Jacket"><path fill="#72CACA" stroke="#494949" stroke-width="1.5" stroke-linecap="round" stroke-linejoin="round" stroke-miterlimit="10" d="M42.779 39.258s.688.981 1.275 2.748c.59 1.766-.115 2.45 1.314 4.807 1.431 2.354-.434 2.061 1.729 5.199 0 0 1.209 1.285 1.012 3.159 0 0 2.682.435 4.315-.479 0 0-.85-2.223 0-4.25 0 0 .853 0-1.372-4.709 0 0 .133-5.752-2.158-9.221 0 0 .129-2.941-1.112-4.445 0 0-1.036-5.625-.775-9.483 0 0 .917-6.016-5.558-7.06 0 0 .891-2.633-4.502-4.078 0 0-5.316-1.789-11.845.412-6.121 2.066-4.318 3.468-4.219 4.351 0 0-5.591.197-4.903 7.65 0 0-.901 6.302-.157 7.969 0 0-2.162 2.751-1.32 4.098 0 0-1.195 2.646-.998 4.021.196 1.375-1.668 2.791-1.668 7.259 0 3.433-2.157 2.451-.589 5.101l-.572 2.648s1.079.49 4.553 0c0 0-.351-2.746 1.61-3.334 0 0 .785-1.082 1.571-6.182.784-5.102 2.058-6.867 2.058-6.867s-.174 4.642-.761 10.789l-.491 2.453s7.063 4.904 24.819.787v-2.453c-.001-.002-.611-5.835-1.256-10.89z"/><path fill="#60A8A6" stroke="#494949" stroke-width="1.5" stroke-linecap="round" stroke-linejoin="round" stroke-miterlimit="10" d="M47.523 52.607c.326.551.701 1.455.586 2.563 0 0 2.682.434 4.315-.479 0 0-.469-1.229-.36-2.693-2.715-.864-4.539.609-4.539.609h-.002z"/><path fill="#60A8A6" stroke="#494949" stroke-width="1.5" stroke-linecap="round" stroke-linejoin="round" stroke-miterlimit="10" d="M15.823 52.303c-.803 1.018-.595 2.65-.595 2.65-3.474.49-4.553 0-4.553 0l.572-2.648c2.289-1.382 4.576 0 4.576-.002z"/><g fill="none" stroke="#494949" stroke-width="1.5" stroke-linecap="round" stroke-linejoin="round" stroke-miterlimit="10"><path d="M19.215 24.872s2.617 9.81 6.475 9.874"/><path d="M25.69 38.867s-2.093 6.257-4.316 7.453"/><path d="M43.424 25.269s-2.617 9.808-6.477 9.872"/><path d="M36.947 38.867s2.094 6.257 4.316 7.453"/><path d="M27.928 20.448s.566.91 0 2.969c-.569 2.06.361 3.386.509 4.316.146.934-.051 2.109 0 2.355"/><path d="M34.843 20.205s-1.182 3.749-.272 5.565c.904 1.82.301 2.732.272 4.037"/><path d="M20.467 38.57s.859-5.354 1.985-6.181"/><path d="M39.871 33.218s2.615 1.628 2.908 6.04"/></g><path fill="#60A8A6" stroke="#494949" stroke-width="1.5" stroke-linecap="round" stroke-linejoin="round" stroke-miterlimit="10" d="M20.883 16.208c-.1-.883-1.902-2.284 4.219-4.351 6.529-2.201 11.845-.412 11.845-.412 5.393 1.445 4.502 4.078 4.502 4.078-2.063 5.337-10.125 5.337-10.125 5.337-7.615.179-10.441-4.652-10.441-4.652z"/><path fill="#60A8A6" stroke="#494949" stroke-width="1.5" stroke-linecap="round" stroke-linejoin="round" stroke-miterlimit="10" d="M35.064 12.576s-3.096-.584-7.281.266c0 0-7.66.909-3.016 4.834 0 0 3.6 3.183 6.557 3.185 2.932.002 6.814-4.252 6.814-4.252 2.4-3.126-3.074-4.033-3.074-4.033z"/><path fill="#60A8A6" stroke="#494949" stroke-width="1.5" stroke-linecap="round" stroke-linejoin="round" stroke-miterlimit="10" d="M27.784 12.842s-3.729.588 3.071 7.846c0 0 .13.392 1.114 0 0 0 6.779-7.942 2.549-8.173 0 0-2.549-.523-6.734.327z"/><path fill="#60A8A6" stroke="#494949" stroke-width="1.5" stroke-linecap="round" stroke-linejoin="round" stroke-miterlimit="10" d="M19.215 51.813s7.063 4.904 24.819.787v-2.453c-14.29 4.739-24.396-.447-24.396-.447l-.423 2.113z"/><path fill="none" stroke="#494949" stroke-width="1.5" stroke-linecap="round" stroke-linejoin="round" stroke-miterlimit="10" d="M31.494 20.859c-7.614.18-10.61-4.651-10.61-4.651s-5.591.197-4.903 7.65c0 0-.901 6.302-.157 7.969 0 0-2.162 2.751-1.32 4.098 0 0-1.195 2.646-.998 4.021.196 1.375-1.668 2.791-1.668 7.26 0 3.434-2.157 2.451-.589 5.1l-.572 2.649s1.079.489 4.553 0c0 0-.351-2.746 1.61-3.334 0 0 .785-1.082 1.571-6.183.784-5.101 2.058-6.867 2.058-6.867s-.174 4.643-.761 10.791l-.491 2.453s3.683 2.559 12.415 2.429c0 0-.646-12.825 0-14.919.645-2.092.271-4.577-.169-7.65-.44-3.074.031-10.816.031-10.816z"/><path fill="none" stroke="#494949" stroke-width="1.5" stroke-linecap="round" stroke-linejoin="round" stroke-miterlimit="10" d="M41.449 15.523c6.475 1.044 5.558 7.06 5.558 7.06-.261 3.858.775 9.483.775 9.483 1.241 1.502 1.112 4.445 1.112 4.445 2.291 3.468 2.158 9.222 2.158 9.222 2.225 4.709 1.372 4.709 1.372 4.709-.85 2.026 0 4.25 0 4.25-1.635.912-4.315.479-4.315.479.197-1.874-1.012-3.159-1.012-3.159-2.162-3.14-.298-2.846-1.729-5.2-1.432-2.354-.727-3.041-1.314-4.806-.589-1.767-1.275-2.748-1.275-2.748a568.255 568.255 0 0 1 1.255 10.89V52.6c-4.937 1.144-9.043 1.592-12.404 1.643 0 0-.646-12.825 0-14.919.645-2.093.271-4.577-.169-7.65-.44-3.073.032-10.813.032-10.813-.618-.002 7.834.159 9.956-5.338z"/></g><metadata><rdf:RDF xmlns:rdf="http://www.w3.org/1999/02/22-rdf-syntax-ns#" xmlns:rdfs="http://www.w3.org/2000/01/rdf-schema#" xmlns:dc="http://purl.org/dc/elements/1.1/"><rdf:Description about="https://iconscout.com/legal#licenses" dc:title="jacket" dc:description="jacket" dc:publisher="Iconscout" dc:date="2017-09-22" dc:format="image/svg+xml" dc:language="en"><dc:creator><rdf:Bag><rdf:li>Creativebin</rdf:li></rdf:Bag></dc:creator></rdf:Description></rdf:RDF></metadata></svg>