<?xml version="1.0" encoding="UTF-8"?><!DOCTYPE svg PUBLIC "-//W3C//DTD SVG 1.1//EN" "http://www.w3.org/Graphics/SVG/1.1/DTD/svg11.dtd"><svg xmlns="http://www.w3.org/2000/svg" xmlns:xlink="http://www.w3.org/1999/xlink" version="1.1" id="Layer_1" x="0px" y="0px" width="64px" height="64px" viewBox="0 0 64 64" xml:space="preserve"><g stroke="#494949" stroke-width="1.5" stroke-linecap="round" stroke-linejoin="round" stroke-miterlimit="10"><path fill="#72CACA" d="M31.299 25.945c.055.082.226.341.278.432 4.137 6.93 5.878 30.454 5.878 30.454 3.839.136 9.363-1.037 9.363-1.037l-3.563-25.857-1.313-8.297-1.491-9.418-.599-3.336s-2.332 1.097-8.438 1.232h-.324c-6.106-.135-8.571-1.219-8.571-1.219l-.593 3.252-2.941 18.183-3.563 25.727s5.79.907 9.629.771c0 0 1.74-23.523 5.876-30.454.055-.091.224-.351.278-.432l.094-.001z"/><path fill="none" d="M25.76 13.381l-5.313 8.261"/><path fill="#60A8A6" d="M41.943 21.64l-.869-5.496-.633-3.992c-1.131.52-2.611.905-3.979 1.103l5.479 8.386"/><path fill="#60A8A6" d="M20.447 21.64l.871-5.496.632-3.992c1.129.52 2.61.905 3.979 1.103l-5.481 8.386"/><path fill="none" d="M30.139 23.238l1.067 2.659"/><path fill="#72CACA" d="M34.178 13.492c-1.492.102-2.591.082-2.591.082h-.326s.935 8.482-1.122 9.664l.667.256c5.236.549 3.372-10.002 3.372-10.002z"/><path fill="#72CACA" d="M21.927 12.15l.593-3.252s2.465 1.084 8.571 1.219h.325c6.105-.135 8.438-1.232 8.438-1.232l.59 3.268c-1.131.52-2.612.905-3.979 1.103-2.504.361-4.877.319-4.877.319h-.326c-.001-.001-6.142.046-9.335-1.425z"/><path fill="none" d="M33.271 11.753a.248.248 0 1 1-.498 0 .25.25 0 0 1 .252-.247c.136 0 .246.111.246.247z"/><path fill="none" d="M31.253 10.611v2.537"/></g><metadata><rdf:RDF xmlns:rdf="http://www.w3.org/1999/02/22-rdf-syntax-ns#" xmlns:rdfs="http://www.w3.org/2000/01/rdf-schema#" xmlns:dc="http://purl.org/dc/elements/1.1/"><rdf:Description about="https://iconscout.com/legal#licenses" dc:title="jeans" dc:description="jeans" dc:publisher="Iconscout" dc:date="2017-09-22" dc:format="image/svg+xml" dc:language="en"><dc:creator><rdf:Bag><rdf:li>Creativebin</rdf:li></rdf:Bag></dc:creator></rdf:Description></rdf:RDF></metadata></svg>