<?xml version="1.0" encoding="UTF-8"?><!DOCTYPE svg PUBLIC "-//W3C//DTD SVG 1.1//EN" "http://www.w3.org/Graphics/SVG/1.1/DTD/svg11.dtd"><svg xmlns="http://www.w3.org/2000/svg" xmlns:xlink="http://www.w3.org/1999/xlink" version="1.1" id="Layer_1" x="0px" y="0px" width="64px" height="64px" viewBox="0 0 64 64" xml:space="preserve"><g id="Frock" stroke="#494949" stroke-width="1.5" stroke-linecap="round" stroke-linejoin="round" stroke-miterlimit="10"><path fill="#DD7236" d="M28.693 54.885c2.017 1.555 7.795.186 7.795.186 2.658 1.563 5.728-.262 6.188-.979 3.505 1.821 6.539-3.132 6.539-3.132-4.282-1.1-5.931-11.146-5.931-11.146-.85-5.146-3.328-8.169-4.006-8.875-.049-.745.074-2.3.228-3.306.181-1.176.865-2.677 1.179-3.226.066-.117.344-.456.371-.891.03-.437-.139-.964-.148-1.099-.073-1.115.253.572.253.572l.629.236c1.969.313 3.935-.708 3.856-1.103-.078-.394-1.576-7.006-1.888-8.264-.315-1.261-2.206-1.733-3.227-1.733-1.025 0-2.679-.237-2.679-.237l-1.42-1.179s-.074 1.104-.392 1.731c-.315.628-1.419 1.338-2.911 1.649-1.496.317-3.639-.565-4.188-1.04-.553-.472-1.714-2.735-1.714-2.735s-.787 1.024-1.181 1.419c-.397.392-1.024.313-1.816.392-.785.08-1.726.396-2.673.943-.947.555-1.494 1.101-1.734 1.813-.231.706-1.493 4.722-1.807 6.925 1.101.944 4.404.631 4.404.631l.553-1.418s0 .632-.077 1.418c-.078.788 1.168 2.311 1.73 3.247.372.622 1.639 4.535.701 5.232-1.9 1.696-4.446 9.958-4.446 9.958-1.474 5.425-6.434 9.888-6.434 9.888 2.689 3.13 6.938 2.263 6.938 2.263 2.912 3.241 7.308 1.86 7.308 1.86z"/><path fill="#F18543" d="M25.331 30.917c.938-.697-.329-4.61-.701-5.232-.562-.937-1.808-2.459-1.73-3.247.077-.786.077-1.418.077-1.418l-.553 1.418s-3.303.313-4.404-.631c.314-2.203 1.576-6.219 1.807-6.925.241-.712.788-1.258 1.734-1.813.947-.548 1.888-.863 2.673-.943.792-.079 1.418 0 1.816-.392.394-.395 1.181-1.419 1.181-1.419s1.161 2.264 1.714 2.735c.548.475 2.692 1.357 4.188 1.04 1.492-.312 2.596-1.021 2.911-1.649.317-.627.392-1.731.392-1.731l1.42 1.179s1.653.237 2.679.237c1.021 0 2.911.473 3.228 1.733.312 1.258 1.809 7.87 1.887 8.264.078.395-1.887 1.416-3.856 1.103l-.629-.236s-.326-1.688-.253-.572c.01.135.179.662.148 1.099-.027.435-.305.773-.371.891-.313.549-.998 2.05-1.179 3.226-.144.943-.255 2.499-.227 3.306a17.502 17.502 0 0 1-6.331 1.701c-4.684.33-7.621-1.724-7.621-1.724z"/><path fill="none" d="M39.279 30.938c.678.705 3.158 3.729 4.006 8.875 0 0 1.648 10.047 5.931 11.146 0 0-3.034 4.953-6.539 3.132-.462.718-3.53 2.541-6.188.979 0 0-5.778 1.369-7.795-.186 0 0-4.396 1.381-7.305-1.859 0 0-4.248.867-6.938-2.262 0 0 4.96-4.464 6.434-9.889 0 0 2.546-8.262 4.446-9.958 0 0 2.937 2.054 7.619 1.722a17.48 17.48 0 0 0 6.329-1.7z"/><g fill="#DDDDDC"><path d="M32.313 20.162c0 .03-.021.051-.049.051a.05.05 0 0 1-.049-.051c0-.024.024-.049.049-.049a.05.05 0 0 1 .049.049z"/><circle cx="32.264" cy="25.718" r="0.049"/></g></g><metadata><rdf:RDF xmlns:rdf="http://www.w3.org/1999/02/22-rdf-syntax-ns#" xmlns:rdfs="http://www.w3.org/2000/01/rdf-schema#" xmlns:dc="http://purl.org/dc/elements/1.1/"><rdf:Description about="https://iconscout.com/legal#licenses" dc:title="frock" dc:description="frock" dc:publisher="Iconscout" dc:date="2017-09-22" dc:format="image/svg+xml" dc:language="en"><dc:creator><rdf:Bag><rdf:li>Creativebin</rdf:li></rdf:Bag></dc:creator></rdf:Description></rdf:RDF></metadata></svg>