<?xml version="1.0" encoding="UTF-8"?><!DOCTYPE svg PUBLIC "-//W3C//DTD SVG 1.1//EN" "http://www.w3.org/Graphics/SVG/1.1/DTD/svg11.dtd"><svg xmlns="http://www.w3.org/2000/svg" xmlns:xlink="http://www.w3.org/1999/xlink" version="1.1" id="Layer_1" x="0px" y="0px" width="64px" height="64px" viewBox="0 0 64 64" xml:space="preserve"><g stroke="#494949" stroke-width="1.5" stroke-linecap="round" stroke-linejoin="round" stroke-miterlimit="10"><path fill="#72CACA" d="M31.979 56.87c6.358.106 13.091-.702 13.091-.702 0-19.234.431-27.94.431-27.94l2.578 2.739 7.522-6.338-5.804-8.759c-2.417-3.169-4.028-3.761-4.028-3.761l-7.845-3.225c-2.633 1.881-5.945 1.743-5.945 1.743h-.29s-3.313.138-5.946-1.743l-7.847 3.225s-1.612.592-4.027 3.761l-5.805 8.759 7.523 6.338 2.578-2.739s.431 8.706.431 27.94c0 0 6.733.809 13.092.702h.291z"/><path fill="#60A8A6" d="M47.699 13.505c.593.556 1.302 1.32 2.099 2.364l5.804 8.759-7.522 6.338-2.578-2.739c-.432-10.369 2.198-14.721 2.197-14.722z"/><path fill="#60A8A6" d="M15.968 13.505c-.592.556-1.302 1.32-2.099 2.364l-5.804 8.759 7.523 6.338 2.578-2.739c.432-10.369-2.198-14.721-2.198-14.722z"/><path fill="none" d="M25.745 8.884s1.575 4.894 5.946 4.787h.289c4.37.107 5.945-4.787 5.945-4.787l3.688 1.517c-.25.908-2.217 7.068-9.587 7.066h-.386c-7.372.002-9.337-6.164-9.586-7.067v.001l3.691-1.517z"/><path fill="#60A8A6" d="M37.924 8.884s-1.576 4.894-5.945 4.787h-.289c-4.371.107-5.946-4.787-5.946-4.787 2.633 1.881 5.946 1.743 5.946 1.743h.289s3.313.138 5.945-1.743z"/></g><metadata><rdf:RDF xmlns:rdf="http://www.w3.org/1999/02/22-rdf-syntax-ns#" xmlns:rdfs="http://www.w3.org/2000/01/rdf-schema#" xmlns:dc="http://purl.org/dc/elements/1.1/"><rdf:Description about="https://iconscout.com/legal#licenses" dc:title="t,shirt" dc:description="t,shirt" dc:publisher="Iconscout" dc:date="2017-09-22" dc:format="image/svg+xml" dc:language="en"><dc:creator><rdf:Bag><rdf:li>Creativebin</rdf:li></rdf:Bag></dc:creator></rdf:Description></rdf:RDF></metadata></svg>