<?xml version="1.0" encoding="UTF-8"?><!DOCTYPE svg PUBLIC "-//W3C//DTD SVG 1.1//EN" "http://www.w3.org/Graphics/SVG/1.1/DTD/svg11.dtd"><svg xmlns="http://www.w3.org/2000/svg" xmlns:xlink="http://www.w3.org/1999/xlink" version="1.1" id="Layer_1" x="0px" y="0px" width="64px" height="64px" viewBox="0 0 64 64" xml:space="preserve"><path fill="#E55D59" stroke="#494949" stroke-width="1.5" stroke-linecap="round" stroke-linejoin="round" stroke-miterlimit="10" d="M38.32 10.964l.437 1.755c3.07 5.908 1.614 13.659 1.614 13.659-.387 3.991.457 7.522.457 7.522 2.611 6.217 2.229 20.027 2.229 20.027L37.036 55c-.853-2.243-1.043-8.899-1.043-8.899-.154-4.297-1.611-9.746-1.611-9.746-.766-6.907-2.855-12.293-2.855-12.293l-.193.007s-2.006 5.379-2.773 12.287c0 0-1.457 5.449-1.611 9.746 0 0-.094 6.946-.867 8.899l-5.85-1.09-.029.017s-.383-13.812 2.225-20.027c0 0 .846-3.531.461-7.522 0 0-1.459-7.751 1.61-13.659l.438-1.755h-.002c1.982 2.136 5.975 2.138 6.493 2.138 5.235-.384 6.891-2.139 6.891-2.139z" id="Woman_x2019_s_Pant"/><metadata><rdf:RDF xmlns:rdf="http://www.w3.org/1999/02/22-rdf-syntax-ns#" xmlns:rdfs="http://www.w3.org/2000/01/rdf-schema#" xmlns:dc="http://purl.org/dc/elements/1.1/"><rdf:Description about="https://iconscout.com/legal#licenses" dc:title="womans,pant" dc:description="womans,pant" dc:publisher="Iconscout" dc:date="2017-09-22" dc:format="image/svg+xml" dc:language="en"><dc:creator><rdf:Bag><rdf:li>Creativebin</rdf:li></rdf:Bag></dc:creator></rdf:Description></rdf:RDF></metadata></svg>