<?xml version="1.0" encoding="UTF-8"?><!DOCTYPE svg PUBLIC "-//W3C//DTD SVG 1.1//EN" "http://www.w3.org/Graphics/SVG/1.1/DTD/svg11.dtd"><svg xmlns="http://www.w3.org/2000/svg" xmlns:xlink="http://www.w3.org/1999/xlink" version="1.1" id="Layer_1" x="0px" y="0px" width="64px" height="64px" viewBox="0 0 64 64" xml:space="preserve"><g id="Woman_x2019_s_Collared_T-shirt"><path fill="#E55D59" stroke="#494949" stroke-width="1.5" stroke-linecap="round" stroke-linejoin="round" stroke-miterlimit="10" d="M42.938 38.166s3.886 6.023 2.477 16.85c-16.246 4.684-27.682-.067-27.682-.067-1.794-9.616 2.025-15.312 2.939-17.882.921-2.572-.687-5.28-.687-5.28-2.012-2.637-1.271-6.134-1.271-6.134.108-1.092.108-1.969.108-1.969l-.77 1.969s-4.587.438-6.115-.874c.438-3.06 2.188-8.636 2.51-9.616.334-.987 1.096-1.747 2.408-2.516 1.315-.763 2.622-1.201 3.716-1.31 1.097-.11 1.966 0 2.518-.544.548-.551 1.639-1.974 1.639-1.974s1.611 3.146 2.379 3.801c.766.658 3.742 1.886 5.817 1.447 2.072-.438 3.601-1.421 4.041-2.295.438-.871.545-2.402.545-2.402l1.97 1.637s2.293.33 3.719.33c1.422 0 4.043.655 4.48 2.407.434 1.745 2.512 10.925 2.622 11.472.107.548-2.622 1.967-5.358 1.531l-.873-.327s-.452-2.344-.35-.795c.012.185.247.918.204 1.524 0 0 .128 2.523-1.606 4.956-1.38 1.93.62 6.061.62 6.061z"/><path fill="#C4494F" stroke="#494949" stroke-width="1.5" stroke-linecap="round" stroke-linejoin="round" stroke-miterlimit="10" d="M31.122 14.342h1.897v9.916h-1.897z"/><path fill="none" stroke="#494949" stroke-width="1.5" stroke-linecap="round" stroke-linejoin="round" stroke-miterlimit="10" d="M39.479 11.006s.703 3.886-4.254 6.09c0 0-.18-3.192-3.029-2.754h-1.073c-2.449-.551-2.781 2.754-2.781 2.754-4.408-1.79-5.04-6.53-5.04-6.53l1.427-1.747s1.611 3.146 2.379 3.801c.766.658 3.742 1.886 5.817 1.447 2.072-.438 3.601-1.421 4.041-2.295.438-.871.546-2.402.546-2.402l1.967 1.636z"/><path fill="#C4494F" stroke="#494949" stroke-width="1.5" stroke-linecap="round" stroke-linejoin="round" stroke-miterlimit="10" d="M32.924 14.066c2.072-.438 3.602-1.421 4.041-2.295.438-.871.545-2.402.545-2.402l1.969 1.637s.703 3.886-4.254 6.09c0 0-.18-3.192-3.029-2.754v-.188l.728-.088z"/><path fill="#C4494F" stroke="#494949" stroke-width="1.5" stroke-linecap="round" stroke-linejoin="round" stroke-miterlimit="10" d="M31.122 14.342c-2.449-.551-2.781 2.754-2.781 2.754-4.408-1.79-5.04-6.53-5.04-6.53l1.427-1.747s1.611 3.146 2.379 3.801c.573.492 2.383 1.304 4.129 1.497l-.114.225z"/></g><metadata><rdf:RDF xmlns:rdf="http://www.w3.org/1999/02/22-rdf-syntax-ns#" xmlns:rdfs="http://www.w3.org/2000/01/rdf-schema#" xmlns:dc="http://purl.org/dc/elements/1.1/"><rdf:Description about="https://iconscout.com/legal#licenses" dc:title="womans,collared,t,shirt" dc:description="womans,collared,t,shirt" dc:publisher="Iconscout" dc:date="2017-09-22" dc:format="image/svg+xml" dc:language="en"><dc:creator><rdf:Bag><rdf:li>Creativebin</rdf:li></rdf:Bag></dc:creator></rdf:Description></rdf:RDF></metadata></svg>