<?xml version="1.0" encoding="UTF-8"?><!DOCTYPE svg PUBLIC "-//W3C//DTD SVG 1.1//EN" "http://www.w3.org/Graphics/SVG/1.1/DTD/svg11.dtd"><svg xmlns="http://www.w3.org/2000/svg" xmlns:xlink="http://www.w3.org/1999/xlink" version="1.1" id="Layer_1" x="0px" y="0px" width="64px" height="64px" viewBox="0 0 64 64" xml:space="preserve"><g id="Men_x2019_s_Shirt" stroke="#494949" stroke-width="1.5" stroke-linecap="round" stroke-linejoin="round" stroke-miterlimit="10"><path fill="#DDDDDC" d="M19.403 29.875l-2.004 4.342-6.977-2.8 5.712-13.815 8.468-2.957 1.135-2.763s5.383-2.487 12.303 0l1.131 2.763 7.952 2.957 5.715 13.815-6.98 2.8-2.002-4.342-.004-.001.865 21.586c-2.65 3.394-13.088 3.538-13.088 3.538-11.229.344-13.011-3.538-13.011-3.538l.785-21.585z"/><path fill="#A87B69" d="M25.737 11.883s5.383-2.487 12.303 0l-3.281 3.895-1.474.751.15 1.564-1.501 3.952-1.973-3.952.014-1.564-.954-.751-3.284-3.895z"/><path fill="#C69981" d="M19.403 29.875l-2.004 4.342-6.977-2.8 5.712-13.815 8.468-2.957 1.135-2.763 3.284 3.895.954.751-.014 1.564 1.973 3.952s-.89 27.075.148 32.94c-.436.019-.454.013-.454.013-11.229.344-13.011-3.538-13.011-3.538l.786-21.584"/><path fill="#C69981" d="M43.855 29.875l2.002 4.342 6.979-2.8-5.715-13.815-7.952-2.957-1.131-2.763-3.281 3.895-1.474.751.149 1.564-1.5 3.952s-.89 27.075.148 32.94c2.03-.074 10.313-.555 12.634-3.524l-.864-21.586.005.001z"/><path fill="none" d="M33.473 45.622a.17.17 0 0 1-.171.17.17.17 0 0 1-.172-.17.17.17 0 0 1 .172-.173.17.17 0 0 1 .171.173z"/><path fill="none" d="M33.54 39.424a.17.17 0 1 1-.342 0c0-.097.077-.171.172-.171s.17.074.17.171z"/><circle fill="none" cx="33.439" cy="34.08" r="0.171"/><path fill="none" d="M33.85 27.882a.172.172 0 0 1-.344 0 .17.17 0 0 1 .174-.171.17.17 0 0 1 .17.171z"/><path fill="#A87B69" d="M38.04 11.883c-6.92-2.487-12.303 0-12.303 0l1.324 1.568c1.818-.521 5.358-1.153 9.626.032l1.353-1.6z"/><circle fill="none" cx="34.02" cy="22.094" r="0.171"/><path fill="#A87B69" d="M38.04 11.883l1.137 2.763-2.368 6.559-2.05-5.427z"/><path fill="#A87B69" d="M25.737 11.883l-1.134 2.763 2.369 6.559 2.049-5.427z"/></g><metadata><rdf:RDF xmlns:rdf="http://www.w3.org/1999/02/22-rdf-syntax-ns#" xmlns:rdfs="http://www.w3.org/2000/01/rdf-schema#" xmlns:dc="http://purl.org/dc/elements/1.1/"><rdf:Description about="https://iconscout.com/legal#licenses" dc:title="mens,shirt" dc:description="mens,shirt" dc:publisher="Iconscout" dc:date="2017-09-22" dc:format="image/svg+xml" dc:language="en"><dc:creator><rdf:Bag><rdf:li>Creativebin</rdf:li></rdf:Bag></dc:creator></rdf:Description></rdf:RDF></metadata></svg>