<?xml version="1.0" encoding="UTF-8"?><!DOCTYPE svg PUBLIC "-//W3C//DTD SVG 1.1//EN" "http://www.w3.org/Graphics/SVG/1.1/DTD/svg11.dtd"><svg xmlns="http://www.w3.org/2000/svg" xmlns:xlink="http://www.w3.org/1999/xlink" version="1.1" id="Layer_1" x="0px" y="0px" width="64px" height="64px" viewBox="0 0 64 64" xml:space="preserve"><g id="Collared_T-shirt" stroke="#494949" stroke-width="1.5" stroke-linecap="round" stroke-linejoin="round" stroke-miterlimit="10"><path fill="#D6E167" d="M36.376 7.813c-6.613-.923-10.435.745-10.435.745l-2.16 2.015-6.086 2.888s-1.609.59-4.028 3.759l-5.804 8.758 7.523 6.339 2.58-2.74s.428 8.705.428 27.94c0 0 6.734.81 13.093.701h.288c6.358.108 13.091-.701 13.091-.701 0-19.235.43-27.94.43-27.94l2.579 2.74 7.521-6.339-5.804-8.758c-2.42-3.169-4.026-3.759-4.026-3.759l-6.729-3.484-2.461-2.164z"/><path fill="#DDDDDC" d="M16.979 22.384s.019 2.167.987 7.193"/><path fill="#DDDDDC" d="M46.314 22.384s-.021 2.167-.989 7.193"/><path fill="#B7B444" d="M30.617 16.808s.344-1.956 2.066-2.577c-.709 3.809 0 14.491 0 14.491-.873.944-2.105.819-2.105.819V17.188l.039-.38z"/><path fill="#B7B444" d="M32.917 14.047c1.515-.622 4.569-4.2 3.459-6.233l2.461 2.163s.369 5.599-2.239 8.207c0 0-1.056-.181-1.49-2.832-.001-.001-1.285-1.677-2.191-1.305z"/><path fill="#B7B444" d="M29.892 13.852c-1.828-1.828-4.358 3.875-4.358 3.875-2.048-3.428-1.753-7.155-1.753-7.155l2.16-2.015s.598 2.686 2.982 4.622c0 .001.596.3.969.673z"/><path fill="#B7B444" d="M36.376 7.813c1.11 2.034-1.944 5.612-3.459 6.233-1.577.67-2.3 2.761-2.3 2.761l-.039.257.076-1.087c.193-1.748-.889-2.243-.889-2.243l.127.117c-.373-.373-.969-.672-.969-.672-2.385-1.936-2.982-4.622-2.982-4.622s3.822-1.667 10.435-.744z"/><path fill="#B7B444" d="M36.337 10.126c.321-.832.399-1.653.039-2.313-6.613-.923-10.435.745-10.435.745s.191.856.785 1.95c0-.001 3.662-1.244 9.611-.382z"/></g><metadata><rdf:RDF xmlns:rdf="http://www.w3.org/1999/02/22-rdf-syntax-ns#" xmlns:rdfs="http://www.w3.org/2000/01/rdf-schema#" xmlns:dc="http://purl.org/dc/elements/1.1/"><rdf:Description about="https://iconscout.com/legal#licenses" dc:title="collared,t,shirt" dc:description="collared,t,shirt" dc:publisher="Iconscout" dc:date="2017-09-22" dc:format="image/svg+xml" dc:language="en"><dc:creator><rdf:Bag><rdf:li>Creativebin</rdf:li></rdf:Bag></dc:creator></rdf:Description></rdf:RDF></metadata></svg>