<?xml version="1.0" encoding="UTF-8"?><!DOCTYPE svg PUBLIC "-//W3C//DTD SVG 1.1//EN" "http://www.w3.org/Graphics/SVG/1.1/DTD/svg11.dtd"><svg xmlns="http://www.w3.org/2000/svg" xmlns:xlink="http://www.w3.org/1999/xlink" version="1.1" id="Layer_1" x="0px" y="0px" width="64px" height="64px" viewBox="0 0 64 64" xml:space="preserve"><g id="Men_x2019_s_Sleeveless_Jacket" stroke="#494949" stroke-width="1.5" stroke-linecap="round" stroke-linejoin="round" stroke-miterlimit="10"><path fill="#72CACA" d="M36.941 12.285l.93 2.102.295.662 8.466 2.957h-.039.039s1.323 3.354-.606 9.552c0 0-1.325 3.48-2.481 6.825l.554 17.075c-3.291 2.888-12.825 3.397-12.825 3.397-10.241.09-13.34-2.938-13.34-2.938l.765-17.536c-1.153-3.345-2.48-6.825-2.48-6.825-1.927-6.198-.608-9.552-.608-9.552l8.469-2.957.29-.662.933-2.102c-.004.002 5.746-2.875 11.638.002z"/><path fill="none" d="M22.08 30.474h5.324"/><path fill="none" d="M34.197 30.474h5.326"/><path fill="none" d="M18.736 34.382l.226-3.974c-.565-9.153-3.271-12.272-3.271-12.272"/><path fill="#60A8A6" d="M25.299 12.285s1.633 3.63 5.821 3.699c4.188-.069 5.821-3.699 5.821-3.699l.93 2.102s-1.089 4.289-6.814 5.234c-5.727-.945-6.69-5.234-6.69-5.234l.932-2.102z"/><path fill="#60A8A6" d="M15.607 18.005s2.789 3.25 3.354 12.403l-.226 3.974h-.04c-1.153-3.345-2.48-6.825-2.48-6.825-1.926-6.198-.608-9.552-.608-9.552z"/><path fill="#60A8A6" d="M46.634 18.005s-2.786 3.25-3.356 12.403l.228 3.974h.039c1.156-3.345 2.481-6.825 2.481-6.825 1.927-6.198.608-9.552.608-9.552z"/><path fill="none" d="M31.271 54.855c-10.241.09-13.34-2.938-13.34-2.938l.765-17.536c-1.153-3.345-2.48-6.825-2.48-6.825-1.927-6.198-.608-9.552-.608-9.552l8.469-2.957.29-.662.933-2.102s1.633 3.63 5.821 3.699c-.001.001-.889 33.007.15 38.873z"/><path fill="none" d="M46.593 18.005h.039l-8.466-2.957-.295-.662-.93-2.102s-1.635 3.63-5.821 3.699c0 0-.888 33.005.151 38.873 0 0 9.534-.51 12.825-3.397l-.554-17.075c1.156-3.345 2.481-6.825 2.481-6.825 1.931-6.198.606-9.552.606-9.552l-.036-.002z"/><path fill="#60A8A6" d="M25.299 12.285s1.633 3.63 5.821 3.699c4.188-.069 5.821-3.699 5.821-3.699-5.892-2.877-11.642 0-11.642 0z"/></g><metadata><rdf:RDF xmlns:rdf="http://www.w3.org/1999/02/22-rdf-syntax-ns#" xmlns:rdfs="http://www.w3.org/2000/01/rdf-schema#" xmlns:dc="http://purl.org/dc/elements/1.1/"><rdf:Description about="https://iconscout.com/legal#licenses" dc:title="mens,sleeveless,jacket" dc:description="mens,sleeveless,jacket" dc:publisher="Iconscout" dc:date="2017-09-22" dc:format="image/svg+xml" dc:language="en"><dc:creator><rdf:Bag><rdf:li>Creativebin</rdf:li></rdf:Bag></dc:creator></rdf:Description></rdf:RDF></metadata></svg>