<?xml version="1.0" encoding="UTF-8"?><!DOCTYPE svg PUBLIC "-//W3C//DTD SVG 1.1//EN" "http://www.w3.org/Graphics/SVG/1.1/DTD/svg11.dtd"><svg xmlns="http://www.w3.org/2000/svg" xmlns:xlink="http://www.w3.org/1999/xlink" version="1.1" id="Layer_1" x="0px" y="0px" width="64px" height="64px" viewBox="0 0 64 64" xml:space="preserve"><g id="Sweater"><path fill="#E55D59" stroke="#494949" stroke-width="1.5" stroke-linecap="round" stroke-linejoin="round" stroke-miterlimit="10" d="M42.563 52.502c0-17.716.398-25.735.398-25.735l7.355 27.827h6.937L46.918 15.385c-2.227-2.923-3.709-3.467-3.709-3.467l-7.227-2.97c-2.072 2.727-5.479 4.65-5.479 4.65h-.268s-3.431-1.924-5.476-4.65l-7.226 2.97s-1.482.544-3.712 3.467L4.989 54.593h6.765l6.033-27.827s.395 8.019.395 25.735h1.946v2.425h20.421v-2.425l2.014.001z"/><path fill="#72CACA" stroke="#494949" stroke-width="1.5" stroke-linecap="round" stroke-linejoin="round" stroke-miterlimit="10" d="M22.303 9.96l2.459-1.011c2.045 2.727 5.476 4.65 5.476 4.65h.268s3.405-1.924 5.479-4.65l2.473 1.016c-2.729 3.823-7.897 6.783-7.897 6.783h-.373c-.003 0-5.255-2.876-7.885-6.788z"/><path fill="#72CACA" stroke="#494949" stroke-width="1.5" stroke-linecap="round" stroke-linejoin="round" stroke-miterlimit="10" d="M10.843 54.593H6.424l-.493 2.221h4.455z"/><path fill="#72CACA" stroke="#494949" stroke-width="1.5" stroke-linecap="round" stroke-linejoin="round" stroke-miterlimit="10" d="M51.512 54.593h4.42l.491 2.221h-4.452z"/><path fill="#72CACA" stroke="#494949" stroke-width="1.5" stroke-linecap="round" stroke-linejoin="round" stroke-miterlimit="10" d="M20.128 52.502h20.421v2.425H20.128z"/></g><metadata><rdf:RDF xmlns:rdf="http://www.w3.org/1999/02/22-rdf-syntax-ns#" xmlns:rdfs="http://www.w3.org/2000/01/rdf-schema#" xmlns:dc="http://purl.org/dc/elements/1.1/"><rdf:Description about="https://iconscout.com/legal#licenses" dc:title="sweater" dc:description="sweater" dc:publisher="Iconscout" dc:date="2017-09-22" dc:format="image/svg+xml" dc:language="en"><dc:creator><rdf:Bag><rdf:li>Creativebin</rdf:li></rdf:Bag></dc:creator></rdf:Description></rdf:RDF></metadata></svg>