<?xml version="1.0" encoding="UTF-8"?><!DOCTYPE svg PUBLIC "-//W3C//DTD SVG 1.1//EN" "http://www.w3.org/Graphics/SVG/1.1/DTD/svg11.dtd"><svg xmlns="http://www.w3.org/2000/svg" xmlns:xlink="http://www.w3.org/1999/xlink" version="1.1" id="Layer_1" x="0px" y="0px" width="64px" height="64px" viewBox="0 0 64 64" xml:space="preserve"><g id="Men_x2019_s_Full_Sleeve_Shirt" stroke="#494949" stroke-width="1.5" stroke-linecap="round" stroke-linejoin="round" stroke-miterlimit="10"><path fill="#C69981" d="M49.786 48.729c.485 1.487 1.327 3.207 1.327 3.207l5.134-.935c.313-.776-1.097-3.499-1.097-3.499l.006.02.088-.02-8.174-29.424-7.948-2.958-1.654-2.763-5.723-1.144h-.336l-5.724 1.144-1.135 2.763-8.468 2.958-8.173 29.424.139.031.016-.031s-1.361 2.723-1.049 3.499l5.133.935s.797-1.72 1.279-3.207l5.924-18.377.205 21.782 11.854 2.52h.336l11.852-2.52.207-21.782 5.924 18.377"/><path fill="none" d="M22.515 30.546h5.325"/><path fill="none" d="M34.634 30.546h5.326"/><path fill="#A87B69" d="M38.753 14.503c-.644 2.342-4.073 4.334-4.073 4.334l-3.188 1.057-2.458-.734c-2.461-.593-4.271-4.557-4.271-4.557l.925-2.246 3.282 2.793 2.584 1.042 2.632-1.042 3.283-2.793 1.284 2.146z"/><path fill="#A87B69" d="M8.063 47.502s-1.361 2.723-1.049 3.499l5.133.935s.797-1.72 1.279-3.207l-2.729-.605-2.65-.589"/><path fill="#A87B69" d="M49.786 48.729c.485 1.487 1.327 3.207 1.327 3.207l5.134-.935c.313-.776-1.097-3.499-1.097-3.499l.006.02-2.717.604-2.713.604"/><path fill="none" d="M31.409 54.65l-11.854-2.519-.205-21.781-5.924 18.378c-.482 1.486-1.279 3.205-1.279 3.205L7.014 51c-.313-.777 1.049-3.499 1.049-3.499l-.016.031-.139-.031 8.173-29.424 8.468-2.958 1.136-2.763 3.282 2.793 2.584 1.042s-.844 32.593.193 38.459"/><path fill="none" d="M31.745 54.65c-1.037-5.865-.193-38.458-.193-38.458l2.634-1.042 3.282-2.793 1.654 2.763 7.948 2.958 8.174 29.424-.088.02-.006-.02s1.408 2.723 1.097 3.499l-5.134.935s-.842-1.72-1.327-3.207h-.06l-5.925-18.377-.206 21.782-11.85 2.516h-.336"/><path fill="#A87B69" d="M25.686 12.357l5.723-1.144h.336l5.723 1.144-3.282 2.793-2.634 1.042-2.584-1.042z"/></g><metadata><rdf:RDF xmlns:rdf="http://www.w3.org/1999/02/22-rdf-syntax-ns#" xmlns:rdfs="http://www.w3.org/2000/01/rdf-schema#" xmlns:dc="http://purl.org/dc/elements/1.1/"><rdf:Description about="https://iconscout.com/legal#licenses" dc:title="mens,full,sleeve,shirt" dc:description="mens,full,sleeve,shirt" dc:publisher="Iconscout" dc:date="2017-09-22" dc:format="image/svg+xml" dc:language="en"><dc:creator><rdf:Bag><rdf:li>Creativebin</rdf:li></rdf:Bag></dc:creator></rdf:Description></rdf:RDF></metadata></svg>