<?xml version="1.0" encoding="UTF-8"?><!DOCTYPE svg PUBLIC "-//W3C//DTD SVG 1.1//EN" "http://www.w3.org/Graphics/SVG/1.1/DTD/svg11.dtd"><svg xmlns="http://www.w3.org/2000/svg" xmlns:xlink="http://www.w3.org/1999/xlink" version="1.1" id="Layer_1" x="0px" y="0px" width="64px" height="64px" viewBox="0 0 64 64" xml:space="preserve"><g id="Woman_x2019_s_T-shirt"><path fill="#E55D59" stroke="#494949" stroke-width="1.5" stroke-linecap="round" stroke-linejoin="round" stroke-miterlimit="10" d="M38.469 9.671l1.725 1.742s2.295.331 3.719.331c1.419 0 4.043.655 4.479 2.406.438 1.745 2.514 10.925 2.623 11.472.108.549-2.623 1.969-5.354 1.532l-.872-.325s-.458-2.347-.354-.798c.012.188.246.92.207 1.524 0 0 .127 2.526-1.609 4.958-1.379 1.928.619 6.06.619 6.06s3.884 6.024 2.479 16.849c-16.25 4.686-27.687-.066-27.687-.066-1.792-9.614 2.026-15.312 2.942-17.883.919-2.568-.688-5.278-.688-5.278-2.01-2.639-1.268-6.133-1.268-6.133.105-1.092.105-1.971.105-1.971l-.767 1.971s-4.589.436-6.116-.875c.437-3.06 2.188-8.636 2.511-9.619.331-.985 1.093-1.746 2.406-2.516 1.315-.76 2.624-1.199 3.715-1.308 1.098-.111 1.968 0 2.519-.546.547-.547 1.638-1.97 1.638-1.97s7.623-1.796 13.028.443z"/><path fill="#C4494F" stroke="#494949" stroke-width="1.5" stroke-linecap="round" stroke-linejoin="round" stroke-miterlimit="10" d="M38.469 9.671c-5.405-2.239-13.029-.442-13.029-.442s-.138 3.61 6.394 3.61c-.001 0 4.812.412 6.635-3.168z"/></g><metadata><rdf:RDF xmlns:rdf="http://www.w3.org/1999/02/22-rdf-syntax-ns#" xmlns:rdfs="http://www.w3.org/2000/01/rdf-schema#" xmlns:dc="http://purl.org/dc/elements/1.1/"><rdf:Description about="https://iconscout.com/legal#licenses" dc:title="womans,t,shirt" dc:description="womans,t,shirt" dc:publisher="Iconscout" dc:date="2017-09-22" dc:format="image/svg+xml" dc:language="en"><dc:creator><rdf:Bag><rdf:li>Creativebin</rdf:li></rdf:Bag></dc:creator></rdf:Description></rdf:RDF></metadata></svg>