<?xml version="1.0" encoding="UTF-8"?><!DOCTYPE svg PUBLIC "-//W3C//DTD SVG 1.1//EN" "http://www.w3.org/Graphics/SVG/1.1/DTD/svg11.dtd"><svg xmlns="http://www.w3.org/2000/svg" xmlns:xlink="http://www.w3.org/1999/xlink" version="1.1" id="Layer_1" x="0px" y="0px" width="64px" height="64px" viewBox="0 0 64 64" xml:space="preserve"><g id="Scarf_1_" stroke="#494949" stroke-width="1.5" stroke-linecap="round" stroke-linejoin="round" stroke-miterlimit="10"><path fill="none" d="M24.017 51.555s-.159 4.786.396 5.618"/><path fill="none" d="M27.689 51.555s.475 4.786 1.029 5.618"/><path fill="none" d="M32.423 51.376s.474 4.785 1.025 5.618"/><path fill="none" d="M35.878 48.564s.478 4.789 1.029 5.619"/><g fill="#72CACA"><path d="M30.85 26.024s6-3.703 5.655-7.835c0 0-.11-4.886-5.577-4.614 0 0-3.898.127-3.994 5.234 0 0-1.049 7.92 11.77 10.134l-2.31 5.772s-10.906-1.781-14.692-11.226c0 0-4.657-13.908 8.48-14.585 0 0 11.968-1.602 12.177 9.561 0 0 .299 7.252-5.778 10.028"/><path d="M27.945 31.146c1.853 1.282 3.738 2.129 5.256 2.677-.076 5.065 2.677 14.563 2.677 14.563l-3.479.16v3.008H24.01c-1.107-13.769 3.938-20.412 3.938-20.412"/></g></g><metadata><rdf:RDF xmlns:rdf="http://www.w3.org/1999/02/22-rdf-syntax-ns#" xmlns:rdfs="http://www.w3.org/2000/01/rdf-schema#" xmlns:dc="http://purl.org/dc/elements/1.1/"><rdf:Description about="https://iconscout.com/legal#licenses" dc:title="scarf" dc:description="scarf" dc:publisher="Iconscout" dc:date="2017-09-22" dc:format="image/svg+xml" dc:language="en"><dc:creator><rdf:Bag><rdf:li>Creativebin</rdf:li></rdf:Bag></dc:creator></rdf:Description></rdf:RDF></metadata></svg>