<?xml version="1.0" encoding="UTF-8"?><!DOCTYPE svg PUBLIC "-//W3C//DTD SVG 1.1//EN" "http://www.w3.org/Graphics/SVG/1.1/DTD/svg11.dtd"><svg xmlns="http://www.w3.org/2000/svg" xmlns:xlink="http://www.w3.org/1999/xlink" version="1.1" id="Layer_1" x="0px" y="0px" width="64px" height="64px" viewBox="0 0 64 64" xml:space="preserve"><g id="Woman_x2019_s_Dress" stroke="#494949" stroke-width="1.5" stroke-linecap="round" stroke-linejoin="round" stroke-miterlimit="10"><path fill="#DDDDDC" d="M38.477 26.756s.152-.367-.184-.785c0 0-.238-1.466-.134-1.912l.866-4.896s.576-2.031.836-2.212c0 0-1.045-4.335.367-7.791l-.552-.524-2.783-.496s.194.948.053 1.598c0 0-.286 1.572-.627 1.966-.338.391-.883 2.081-4.495 2.171-3.222.079-4.456-2.017-4.456-2.017s-1.15-1.493-1.388-3.718l-1.985.601s-.709-.263-1.18.42c0 0 1.781 1.57.837 7.542 0 0 .454 1.011.803 3.736l.631 4.188s-.349.909-.42 2.585l-1.771 5.002s2.259 4.42 5.013 3.043c2.752-1.378 2.78 2.459 6.208.263 3.431-2.191 4.184 1.233 6.975-2.683l-2.614-6.081z"/><path fill="#D6E167" d="M47.173 47.453s4.97 5.344 2.216 7.314l-7.212 1.422v.277l-4.79.463c-.404-.156-2.504.33-2.504.33-.165.887-5.011.319-5.011.319v-.638c-.807-.56-2.506-.252-2.506-.252-.969.569-4.93 0-4.93 0v-.566c-.324-.645-3.799-.637-5.335-.879-1.534-.242-2.18-.807-2.18-.807-4.722-1.817.935-8.648.935-8.648l.34-.271c.032-2.772 3.532-5.93 3.532-5.93-.47-2.873 2.808-7.432 2.808-7.432.076-.11.358.056.358.056l1.771-5.002c.071-1.676.42-2.585.42-2.585l-.631-4.188c-.349-2.726-.803-3.736-.803-3.736.944-5.972-.837-7.542-.837-7.542.471-.683 1.18-.42 1.18-.42l1.985-.601c.237 2.225 1.388 3.718 1.388 3.718s1.234 2.096 4.456 2.017c3.612-.09 4.157-1.78 4.495-2.171.341-.394.627-1.966.627-1.966.143-.649-.053-1.598-.053-1.598l2.784.496.552.524c-1.412 3.456-.367 7.791-.367 7.791-.26.181-.836 2.212-.836 2.212l-.866 4.896c-.104.446.134 1.912.134 1.912.336.418.184.785.184.785l2.612 6.08s4.55 4.482 3.233 6.93c0 0 3.152 2.426 3.07 6.883-.007.322-.072.571-.188.766l-.031.041z"/><path fill="#B7B444" d="M22.894 32.213s2.259 4.42 5.013 3.043c2.752-1.378 2.78 2.459 6.208.264 3.431-2.192 4.184 1.232 6.975-2.684 0 0 5.6 5.518 2.577 7.652-1.58 1.113-2.997.392-5.08 1.272-2.084.884-1.346.392-4.188.981-2.845.588-2.16.294-3.432.294-1.275 0-2.355.394-4.021 0-1.668-.394-.652-.663-2.611-.663-1.963 0-3.175-.904-3.175-.904-3.992-1.842 1.378-9.313 1.378-9.313l.356.058z"/><path fill="#D6E167" d="M19.728 39.589c.156.744.607 1.502 1.43 1.882 0 0 1.212.903 3.175.903 1.959 0 .943.271 2.611.663 1.666.393 2.746 0 4.021 0 1.272 0 .586.294 3.432-.294 2.844-.591 2.104-.099 4.188-.981 2.083-.882 3.5-.158 5.08-1.272.298-.21.515-.455.657-.724 0 0 3.182 2.566 3.068 6.883-.067 2.574-3.984.521-6.761 1.697-2.774 1.172-1.792.521-5.573 1.303-3.785.783-2.873.393-4.566.393-1.697 0-3.132.523-5.351 0-2.218-.521-1.507-.975-4.117-.975-2.607 0-3.58-1.113-3.58-1.113-3.782-2.865 2.286-8.365 2.286-8.365z"/><path fill="#B7B444" d="M15.856 45.79s-5.656 6.831-.935 8.647c0 0 .646.564 2.18.808 1.536.241 5.011.235 5.335.879v.567s3.961.568 4.93 0c0 0 1.699-.309 2.506.252v.637s4.846.566 5.011-.319c0 0 2.1-.487 2.504-.329l4.79-.464v-.278l7.212-1.422c2.754-1.971-2.216-7.313-2.216-7.313-.832 1.347-4.112-.138-6.541.892-2.774 1.174-1.792.521-5.573 1.303-3.785.785-2.873.394-4.566.394-1.697 0-3.132.524-5.351 0-2.218-.522-1.507-.974-4.117-.974-2.607 0-3.58-1.114-3.58-1.114-.918-.695-1.256-1.545-1.242-2.435l-.347.269z"/></g><metadata><rdf:RDF xmlns:rdf="http://www.w3.org/1999/02/22-rdf-syntax-ns#" xmlns:rdfs="http://www.w3.org/2000/01/rdf-schema#" xmlns:dc="http://purl.org/dc/elements/1.1/"><rdf:Description about="https://iconscout.com/legal#licenses" dc:title="womans,dress" dc:description="womans,dress" dc:publisher="Iconscout" dc:date="2017-09-22" dc:format="image/svg+xml" dc:language="en"><dc:creator><rdf:Bag><rdf:li>Creativebin</rdf:li></rdf:Bag></dc:creator></rdf:Description></rdf:RDF></metadata></svg>