<?xml version="1.0" encoding="UTF-8"?><!DOCTYPE svg PUBLIC "-//W3C//DTD SVG 1.1//EN" "http://www.w3.org/Graphics/SVG/1.1/DTD/svg11.dtd"><svg xmlns="http://www.w3.org/2000/svg" xmlns:xlink="http://www.w3.org/1999/xlink" version="1.1" id="Layer_1" x="0px" y="0px" width="64px" height="64px" viewBox="0 0 64 64" xml:space="preserve"><g id="Tunic_Dress" stroke="#494949" stroke-width="1.5" stroke-linecap="round" stroke-linejoin="round" stroke-miterlimit="10"><path fill="#F18543" d="M37.361 9.849s-.289 1.574-.627 1.968c-.34.392-.883 2.08-4.498 2.171-3.221.078-4.456-2.016-4.456-2.016s-1.152-1.494-1.388-3.719c0 0-2.447.675-3.166 1.02 0 0 1.781 1.57.835 7.543 0 0 .456 1.011.803 3.735l.63 4.189s-.349.908-.419 2.585c0 0-1.397 1.747-4.051 14.873 0 0-1.675 11.174-2.233 12.852 0 0 .559.486 1.885.697 1.327.208 3.212-.069 3.492.487v.488s3.422.492 4.26 0c0 0 1.467-.264 2.165.217v.553s4.189.488 4.331-.276c0 0 1.815-.421 2.163-.284l4.141-.4v-.242l3.646-.597s-1.797-10.75-2.584-16.096c0 0-1.256-8.486-3.4-12.727 0 0 .153-.368-.187-.786 0 0-.233-1.467-.13-1.913l.863-4.895s.578-2.032.836-2.213c0 0-1.006-4.633.519-8.145l-3.483-.667c-.001.002.193.949.053 1.598z"/><path fill="none" d="M38.553 25.301l-.715.262-.425-.183 1.14-.64z"/><path fill="#B7B7B7" d="M24.555 28.42c.347-.874.522-1.095.522-1.095.071-1.677.419-2.585.419-2.585s9.255.035 10.613.822c0 0 .865-.525 1.729 0l.994 11.366-4.71 2.982.745-6.37c-.473.211-4.602.754-4.602.754l2.215-5.875-7.925.001z"/><path fill="#DD7236" d="M32.48 28.42l-2.215 5.875s4.297-.594 4.77-.806l1.074-7.927c-1.727.001-3.629 2.858-3.629 2.858z"/><path fill="#DD7236" d="M36.109 25.563s.867-.525 1.729 0l.994 11.367-4.71 2.981 1.987-14.348z"/><path fill="#DD7236" d="M36.109 25.563c-1.357-.787-10.612-.822-10.612-.822s-.349.908-.419 2.585c0 0-.176.221-.522 1.095h7.926c-.002-.001 1.9-2.858 3.627-2.858z"/><path fill="#DD7236" d="M29.896 24.839c1.476.059 3.055.15 4.273.296-.067-3.275.271-11.478.271-11.478-.567.182-1.287.308-2.204.33-.943.022-1.716-.14-2.337-.383 0 0 .203 9.181-.003 11.235z"/><path fill="none" d="M32.322 19.362a.25.25 0 0 1-.25.251.252.252 0 0 1-.25-.251c0-.136.113-.249.25-.249.138 0 .25.114.25.249z"/><circle fill="none" cx="32.073" cy="22.874" r="0.25"/><path fill="none" d="M32.322 16.34a.25.25 0 1 1-.501.003.25.25 0 0 1 .501-.003z"/><path fill="#F18543" d="M29.896 24.839c.206-2.054.003-11.234.003-11.234h-.001c-1.5-.587-2.117-1.633-2.117-1.633s-1.152-1.494-1.388-3.719c0 0-2.447.675-3.166 1.02 0 0 1.781 1.57.835 7.543 0 0 .456 1.011.803 3.735l.63 4.189c.002 0 2.058.007 4.401.099z"/><path fill="#F18543" d="M38.488 24.74l-1.141.64v.001c-.701-.184-1.302.182-1.302.182-.31-.179-1.021-.318-1.94-.428-.068-3.275.271-11.478.271-11.478 1.672-.532 2.039-1.549 2.292-1.841.34-.394.628-1.968.628-1.968.141-.648-.052-1.596-.052-1.596l3.481.667c-1.522 3.512-.518 8.145-.518 8.145-.26.181-.836 2.213-.836 2.213l-.865 4.895c-.029.146-.035.292-.018.568z"/><path fill="none" d="M30.594 28.42v11.072c-1.484 12.169 0 17.447 0 17.447-.697-.479-2.165-.217-2.165-.217-.838.492-4.26 0-4.26 0v-.488.488s.891-14.615 1.624-21.523l1.076-6.779h3.725z"/><path fill="none" d="M26.87 28.42l-1.076 6.779c-.733 6.908-1.624 21.523-1.624 21.523v-.488c-.28-.558-2.166-.279-3.492-.487-1.326-.211-1.885-.697-1.885-.697.559-1.678 2.233-12.852 2.233-12.852 1.711-8.462 2.899-12.194 3.528-13.778h2.316z"/><path fill="#B7B7B7" d="M32.48 28.42l-1.886 5.003V28.42z"/><path fill="#F18543" d="M34.925 57.216c-.142.765-4.331.276-4.331.276v-.553s-1.484-5.278 0-17.447l.041-5.249c1.053-.149 4.014-.581 4.4-.755l-.913 6.423.803-.509.011.019s.477 14.559-.011 17.795z"/><path fill="#F18543" d="M41.229 56.289v.24l-4.141.4c-.348-.136-2.163.285-2.163.285.488-3.234.011-17.795.011-17.795l3.455-2.212c.309 2.337 1.401 4.408 1.5 7.19 0 .003.271 8.874 1.338 11.892z"/><path fill="#F18543" d="M37.786 25.135l1.047 11.795-.442.279c.31 2.337 1.402 4.408 1.5 7.191 0 0 .272 8.871 1.338 11.889l3.647-.598s-1.797-10.748-2.584-16.096c0 0-1.256-8.485-3.401-12.726 0 0 .154-.368-.186-.786 0 0-.121-.758-.15-1.351l-.769.403z"/></g><metadata><rdf:RDF xmlns:rdf="http://www.w3.org/1999/02/22-rdf-syntax-ns#" xmlns:rdfs="http://www.w3.org/2000/01/rdf-schema#" xmlns:dc="http://purl.org/dc/elements/1.1/"><rdf:Description about="https://iconscout.com/legal#licenses" dc:title="tunic,dress" dc:description="tunic,dress" dc:publisher="Iconscout" dc:date="2017-09-22" dc:format="image/svg+xml" dc:language="en"><dc:creator><rdf:Bag><rdf:li>Creativebin</rdf:li></rdf:Bag></dc:creator></rdf:Description></rdf:RDF></metadata></svg>