<?xml version="1.0" encoding="UTF-8"?><!DOCTYPE svg PUBLIC "-//W3C//DTD SVG 1.1//EN" "http://www.w3.org/Graphics/SVG/1.1/DTD/svg11.dtd"><svg xmlns="http://www.w3.org/2000/svg" xmlns:xlink="http://www.w3.org/1999/xlink" version="1.1" id="Layer_1" x="0px" y="0px" width="64px" height="64px" viewBox="0 0 64 64" xml:space="preserve"><g id="Woman_x2019_s_Sweater" stroke="#494949" stroke-width="1.5" stroke-linecap="round" stroke-linejoin="round" stroke-miterlimit="10"><path fill="#C69981" d="M49.156 53.716c-.738-.276-6.961-27.132-6.961-27.132s-.387-1.989-.299-.675c.012.159.209.779.174 1.293 0 0 .109 2.142-1.365 4.205-1.167 1.635.527 5.14.527 5.14s3.293 5.107 2.103 14.29c-13.783 3.974-23.483-.058-23.483-.058-1.521-8.154 1.718-12.984 2.495-15.166.78-2.182-.585-4.479-.585-4.479-1.704-2.237-1.075-5.203-1.075-5.203.09-.926.09-1.671.09-1.671l-6.67 29.671c.557 1.245-.865 2.984-.865 2.984-2.292.602-5.596-1.366-5.596-1.366s-.235-3.028 1.438-3.022c.371-2.596 7.712-33.559 7.984-34.394.281-.836.929-1.48 2.042-2.133 1.114-.646 2.225-1.019 3.149-1.11.806-.08 1.469-1.123 1.936-1.405v.002c-1.793-.987 1.602-3.98 1.602-3.98s6.782-1.597 11.594.393l.395.634c1.23 1.947.918 2.689.512 2.972l.002.004s1.947 1.382 3.154 1.382c1.205 0 3.433.556 3.8 2.042.371 1.479 8.833 34.914 8.926 35.378 1.674-.006 1.438 3.024 1.438 3.024s-3.301 1.966-5.594 1.364c-.003.001-1.426-1.739-.868-2.984z"/><path fill="#D6E167" d="M9.083 52.527c-1.673-.006-1.438 3.023-1.438 3.023s3.304 1.968 5.596 1.366c0 0 1.422-1.739.865-2.984 0 0-3.752-.114-5.023-1.405z"/><path fill="#D6E167" d="M49.156 53.716c-.561 1.245.865 2.985.865 2.985 2.293.602 5.594-1.364 5.594-1.364s.236-3.03-1.438-3.024c.094.462-3.516 1.974-5.021 1.403z"/><path fill="#D6E167" d="M38.296 13.506c.406-.282.72-1.024-.512-2.972l-.393-.634c-4.812-1.99-11.595-.393-11.595-.393s-3.395 2.993-1.602 3.98c.141.076.311.142.519.191 0 0 9.313-.98 13.071 0a.98.98 0 0 0 .512-.172z"/></g><metadata><rdf:RDF xmlns:rdf="http://www.w3.org/1999/02/22-rdf-syntax-ns#" xmlns:rdfs="http://www.w3.org/2000/01/rdf-schema#" xmlns:dc="http://purl.org/dc/elements/1.1/"><rdf:Description about="https://iconscout.com/legal#licenses" dc:title="womans,sweater" dc:description="womans,sweater" dc:publisher="Iconscout" dc:date="2017-09-22" dc:format="image/svg+xml" dc:language="en"><dc:creator><rdf:Bag><rdf:li>Creativebin</rdf:li></rdf:Bag></dc:creator></rdf:Description></rdf:RDF></metadata></svg>