<?xml version="1.0" encoding="UTF-8"?><!DOCTYPE svg PUBLIC "-//W3C//DTD SVG 1.1//EN" "http://www.w3.org/Graphics/SVG/1.1/DTD/svg11.dtd"><svg xmlns="http://www.w3.org/2000/svg" xmlns:xlink="http://www.w3.org/1999/xlink" version="1.1" id="Layer_1" x="0px" y="0px" width="64px" height="64px" viewBox="0 0 64 64" xml:space="preserve"><g id="Skirt" stroke="#494949" stroke-width="1.5" stroke-linecap="round" stroke-linejoin="round" stroke-miterlimit="10"><path fill="#D6E167" d="M22.092 14.192s7.853 5.49 19.139 0c0 0 4.42 4.04 5.793 12.351 0 0 2.289 13.954 8.234 15.48 0 0-4.648 5.262-9.758 5.031 0 0-.441.813.037 1.448 0 0-3.852.685-5.378 2.288 0 0-3.354 1.369-4.726 0 0 0-2.822-.307-4.192.607 0 0-2.747.841-6.559 0 0 0-4.357-4.153-7.938-3.24 0 0 .543-.114.85-1.26 0 0-6.873-.803-10.61-5.146 0 0 6.887-6.201 8.935-13.73-.001.002 3.535-11.472 6.173-13.829z"/><path fill="#D6E167" d="M26.655 16.074c2.465.615 5.824.905 9.811-.114v-.001s1.522 24.027 9.071 30.941l-.037.155s-.441.813.037 1.449c0 0-3.852.684-5.378 2.288 0 0-3.354 1.369-4.726 0 0 0-2.822-.306-4.192.608 0 0-2.747.84-6.559 0 0 0-4.357-4.154-7.938-3.241 0 0 .543-.114.85-1.259 7.785-12.416 9.065-30.826 9.065-30.826h-.004z"/><path fill="#B7B444" d="M26.659 16.074s-1.28 18.41-9.065 30.826c0 0-6.873-.803-10.61-5.146 0 0 6.887-6.201 8.935-13.73 0 0 3.536-11.475 6.174-13.831 0 0 1.666 1.164 4.563 1.882l.003-.001z"/><path fill="#B7B444" d="M36.466 15.959s1.522 24.027 9.071 30.941l-.037.155c5.107.23 9.758-5.031 9.758-5.031-5.945-1.525-8.234-15.479-8.234-15.479-1.373-8.311-5.793-12.351-5.793-12.351-1.67.81-3.26 1.382-4.763 1.768"/></g><metadata><rdf:RDF xmlns:rdf="http://www.w3.org/1999/02/22-rdf-syntax-ns#" xmlns:rdfs="http://www.w3.org/2000/01/rdf-schema#" xmlns:dc="http://purl.org/dc/elements/1.1/"><rdf:Description about="https://iconscout.com/legal#licenses" dc:title="skirt" dc:description="skirt" dc:publisher="Iconscout" dc:date="2017-09-22" dc:format="image/svg+xml" dc:language="en"><dc:creator><rdf:Bag><rdf:li>Creativebin</rdf:li></rdf:Bag></dc:creator></rdf:Description></rdf:RDF></metadata></svg>