<?xml version="1.0" encoding="UTF-8"?><!DOCTYPE svg PUBLIC "-//W3C//DTD SVG 1.1//EN" "http://www.w3.org/Graphics/SVG/1.1/DTD/svg11.dtd"><svg xmlns="http://www.w3.org/2000/svg" xmlns:xlink="http://www.w3.org/1999/xlink" version="1.1" id="Layer_1" x="0px" y="0px" width="64px" height="64px" viewBox="0 0 64 64" xml:space="preserve"><g id="Woman_x2019_s_Jeans" stroke="#494949" stroke-width="1.5" stroke-linecap="round" stroke-linejoin="round" stroke-miterlimit="10"><path fill="#72CACA" d="M25.062 8.825l-.728 2.052s-.305.293-.705 1.061c-.574 1.103-1.343 3.18-1.678 6.765-.177 1.896-.232 4.213-.072 7.028 0 0 .703 5.696-.095 8.153 0 0-.925 2.15-1.008 5.416 0 0-1.174 3.979-1.047 6.785 0 0-.84 3.854-.547 9.511 0 0 1.875 1.979 6.493 1.299 0 0 .229-.527.321-2.09 0 0 .194-1.13.685-8.468l1.59-9.213s2.931-9.635 3.602-14.071c0 0 2.344 5.943 3.184 13.483 0 0 1.592 5.948 1.762 10.637 0 0-.084 8.632 1.507 9.722 0 0 3.024 1.047 6.2-1.176 0 0 .42-15.074-2.432-21.861 0 0-.919-3.856-.498-8.208 0 0 1.588-8.463-1.764-14.913l-.477-1.91s-1.808 1.91-7.522 2.328c0-.002-4.608-.005-6.771-2.33z"/><circle fill="none" cx="33.547" cy="12.95" r="0.075"/><path fill="none" d="M31.874 23.053c0-.511 0-.637-.04-1.458"/><path fill="none" d="M23.619 11.956c.404-.779.715-1.079.715-1.079l.728-2.052c2.163 2.325 6.771 2.328 6.771 2.328 5.715-.418 7.522-2.328 7.522-2.328l.477 1.91c.209.401.4.813.572 1.23-.758 1.463-3.932 2.299-6.206 2.72a31.724 31.724 0 0 1-2.407.357c-2.116-.17-3.688-.485-4.854-.852-3.014-.945-3.318-2.234-3.318-2.234z"/><path fill="none" d="M34.198 14.686c-1.366.254-2.364.346-2.364.346 0 1.534.021 4.319 0 6.563 3.835 0 2.364-6.909 2.364-6.909z"/><path fill="none" d="M31.834 11.147v3.884"/><path fill="#60A8A6" d="M26.938 14.191c-3.015-.946-3.319-2.235-3.319-2.235l.01-.019c-.574 1.103-1.343 3.18-1.678 6.765 4.483 1.68 4.988-4.511 4.987-4.511z"/><path fill="#60A8A6" d="M36.877 14.052c3.066-.934 3.527-2.086 3.527-2.086l-.01-.021c.573 1.102 1.222 3.099 1.504 6.801-4.482 1.677-5.021-4.694-5.021-4.694z"/></g><metadata><rdf:RDF xmlns:rdf="http://www.w3.org/1999/02/22-rdf-syntax-ns#" xmlns:rdfs="http://www.w3.org/2000/01/rdf-schema#" xmlns:dc="http://purl.org/dc/elements/1.1/"><rdf:Description about="https://iconscout.com/legal#licenses" dc:title="womans,jeans" dc:description="womans,jeans" dc:publisher="Iconscout" dc:date="2017-09-22" dc:format="image/svg+xml" dc:language="en"><dc:creator><rdf:Bag><rdf:li>Creativebin</rdf:li></rdf:Bag></dc:creator></rdf:Description></rdf:RDF></metadata></svg>