<?xml version="1.0" encoding="UTF-8"?><!DOCTYPE svg PUBLIC "-//W3C//DTD SVG 1.1//EN" "http://www.w3.org/Graphics/SVG/1.1/DTD/svg11.dtd"><svg xmlns="http://www.w3.org/2000/svg" xmlns:xlink="http://www.w3.org/1999/xlink" version="1.1" id="Layer_1" x="0px" y="0px" width="64px" height="64px" viewBox="0 0 64 64" xml:space="preserve"><g id="Women_x2019_s_Short"><path fill="#F18543" stroke="#494949" stroke-width="1.5" stroke-linecap="round" stroke-linejoin="round" stroke-miterlimit="10" d="M47.23 15.56v4.137l4.901 14.682 2.812 13.26-9.354 2.428-11.896.205-2.542-12.599h-.064l-2.54 12.599-11.967-.137-9.281-2.496 2.811-13.261 4.896-14.682V15.56s8.914 3.694 32.224 0z" id="_x34_52"/><path fill="#DD7236" stroke="#494949" stroke-width="1.5" stroke-linecap="round" stroke-linejoin="round" stroke-miterlimit="10" d="M47.23 19.602V15.56c-23.312 3.694-32.226 0-32.226 0v4.137s3.813 3.158 15.499 3.158c.002-.001 12.323-.096 16.727-3.253z"/><g fill="none" stroke="#494949" stroke-width="1.5" stroke-linecap="round" stroke-linejoin="round" stroke-miterlimit="10"><path d="M30.268 20.962s.877-3.315 3.35-1.812c0 0 .616 3.417-3.112 3.704-2.787.213-1.702 7.537-1.227 8.013"/><path d="M30.682 22.429s-.827-4.782-3.244-2.797c0 0-.077 3.009 3.264 3.197 1.621.093 1.232 6.432 2.112 7.35"/></g></g><metadata><rdf:RDF xmlns:rdf="http://www.w3.org/1999/02/22-rdf-syntax-ns#" xmlns:rdfs="http://www.w3.org/2000/01/rdf-schema#" xmlns:dc="http://purl.org/dc/elements/1.1/"><rdf:Description about="https://iconscout.com/legal#licenses" dc:title="womens,short" dc:description="womens,short" dc:publisher="Iconscout" dc:date="2017-09-22" dc:format="image/svg+xml" dc:language="en"><dc:creator><rdf:Bag><rdf:li>Creativebin</rdf:li></rdf:Bag></dc:creator></rdf:Description></rdf:RDF></metadata></svg>