<?xml version="1.0" encoding="UTF-8"?><!DOCTYPE svg PUBLIC "-//W3C//DTD SVG 1.1//EN" "http://www.w3.org/Graphics/SVG/1.1/DTD/svg11.dtd"><svg xmlns="http://www.w3.org/2000/svg" xmlns:xlink="http://www.w3.org/1999/xlink" version="1.1" id="Layer_1" x="0px" y="0px" width="64px" height="64px" viewBox="0 0 64 64" xml:space="preserve"><g id="Woman_x2019_s_Shirt" stroke="#494949" stroke-width="1.5" stroke-linecap="round" stroke-linejoin="round" stroke-miterlimit="10"><path fill="#E55D59" d="M55.493 47.027s.612 1.72 1.046 3.498l-5.494.935s-.577-1.719-1.055-3.206h.005l-5.927-18.381.865 21.586c-2.654 3.395-13.088 3.538-13.088 3.538-11.229.344-13.01-3.538-13.01-3.538l.786-21.586-5.926 18.381c-.48 1.486-1.058 3.206-1.058 3.206l-5.508-.935a40.838 40.838 0 0 1 1.05-3.498l8.172-29.425 8.467-2.957 1.136-2.763s5.382-2.487 12.303 0l1.132 2.763 7.95 2.957 8.173 29.425h-.019z"/><path fill="#C4494F" d="M25.954 11.883s5.382-2.487 12.303 0l-3.284 3.895-1.472.751.149 1.564-1.5 3.952-1.974-3.952.013-1.564-.953-.751-3.282-3.895z"/><path fill="none" d="M33.689 45.622c0 .093-.078.17-.172.17a.17.17 0 0 1-.17-.17c0-.099.075-.173.17-.173a.17.17 0 0 1 .172.173z"/><path fill="none" d="M33.757 39.424a.17.17 0 0 1-.17.172.171.171 0 1 1 0-.343c.095 0 .17.074.17.171z"/><circle fill="none" cx="33.654" cy="34.08" r="0.171"/><path fill="none" d="M34.064 27.882a.17.17 0 0 1-.342 0 .17.17 0 0 1 .17-.171.17.17 0 0 1 .172.171z"/><circle fill="none" cx="34.236" cy="22.094" r="0.171"/><path fill="#C4494F" d="M13.695 48.255c-.48 1.486-1.058 3.206-1.058 3.206l-5.508-.934a40.88 40.88 0 0 1 1.05-3.5l5.516 1.228z"/><path fill="#C4494F" d="M49.99 48.255a351.677 351.677 0 0 0 1.055 3.206l5.494-.934a40.855 40.855 0 0 0-1.046-3.5l-5.503 1.228z"/><path fill="#C4494F" d="M25.954 11.883l-1.136 2.763 2.37 6.559 2.05-5.427z"/><path fill="#C4494F" d="M38.257 11.883l1.136 2.763-2.37 6.559-2.05-5.427z"/><path fill="none" d="M32.298 54.986c2.034-.075 10.313-.557 12.636-3.525l-.865-21.586 5.927 18.381h-.006a351.677 351.677 0 0 0 1.055 3.206l5.494-.935a40.813 40.813 0 0 0-1.046-3.498h.021L47.34 17.604l-7.951-2.957-1.131-2.763-3.283 3.895-1.473.751.148 1.564-1.499 3.952c.001-.002-.89 27.074.147 32.94z"/><path fill="none" d="M32.298 54.986c-1.037-5.866-.146-32.941-.146-32.941l-1.974-3.952.013-1.564-.953-.751-3.284-3.895-1.136 2.763-8.467 2.957-8.172 29.424s-.615 1.72-1.05 3.498l5.508.935s.578-1.719 1.058-3.206l5.926-18.381-.786 21.587s1.781 3.882 13.01 3.538c0 0 .018.006.453-.012z"/><path fill="#C4494F" d="M38.257 11.883c-6.921-2.487-12.303 0-12.303 0l1.322 1.568c1.819-.521 5.359-1.153 9.626.032l1.355-1.6z"/></g><metadata><rdf:RDF xmlns:rdf="http://www.w3.org/1999/02/22-rdf-syntax-ns#" xmlns:rdfs="http://www.w3.org/2000/01/rdf-schema#" xmlns:dc="http://purl.org/dc/elements/1.1/"><rdf:Description about="https://iconscout.com/legal#licenses" dc:title="womans,shirt" dc:description="womans,shirt" dc:publisher="Iconscout" dc:date="2017-09-22" dc:format="image/svg+xml" dc:language="en"><dc:creator><rdf:Bag><rdf:li>Creativebin</rdf:li></rdf:Bag></dc:creator></rdf:Description></rdf:RDF></metadata></svg>