<?xml version="1.0" encoding="UTF-8"?><!DOCTYPE svg PUBLIC "-//W3C//DTD SVG 1.1//EN" "http://www.w3.org/Graphics/SVG/1.1/DTD/svg11.dtd"><svg xmlns="http://www.w3.org/2000/svg" xmlns:xlink="http://www.w3.org/1999/xlink" version="1.1" id="Layer_1" x="0px" y="0px" width="64px" height="64px" viewBox="0 0 64 64" xml:space="preserve"><g id="Woman_x2019_s_Top" stroke="#494949" stroke-width="1.5" stroke-linecap="round" stroke-linejoin="round" stroke-miterlimit="10"><path fill="#D6E167" d="M21.592 17.661s-.54 5.281-4.22 6.243c0 0 3.04 2.88 1.919 8.642 0 0-4.801 14.086-4.319 19.207 0 0-.291 2.853-1.411 4.935 0 0 .758.986 3.804.508 3.048-.479 4.808 1.439 6.889.802 2.08-.642 1.763-.378 4.642.132 2.883.507 2.08.611 5.122 0 3.041-.613 4.319-.293 6.725-.293 2.4 0 3.535-.036 5.137-.837 1.6-.798 2.805-.979 2.805-.979l-1.699-4.586s.64-6.722-4.48-19.048c0 0-1.602-4.643 1.92-8.481 0 0-3.521-4.003-4.322-6.243l-4.801 2.562s-.143 1.739-4.043 2.219c0 0-3.521-.096-3.942-2.079l-5.726-2.704z"/><path fill="#B7B444" d="M19.538 30.305c.085-4.269-2.166-6.4-2.166-6.4 3.68-.962 4.22-6.243 4.22-6.243l5.721 2.701c.422 1.983 3.942 2.079 3.942 2.079 3.899-.479 4.043-2.219 4.043-2.219l4.802-2.562c.801 2.24 4.321 6.243 4.321 6.243-2.03 2.214-2.358 4.695-2.271 6.399 0 0-.271 3.421-5.904 4.142 0 0-1.491.188-3.096-.379-1.745-.854-4.38-.086-4.38-.086-1.688.672-3.328.465-3.328.465-5.63-.718-5.904-4.14-5.904-4.14z"/><path fill="#B7B444" d="M46.98 51.434l1.701 4.586s-1.205.182-2.806.979c-1.603.801-2.735.837-5.138.837s-3.684-.32-6.723.293c-3.042.611-2.24.507-5.123 0-2.879-.51-2.562-.771-4.642-.132-2.081.639-3.841-1.281-6.889-.802-3.046.479-3.804-.508-3.804-.508 1.12-2.082 1.411-4.935 1.411-4.935s6.496 2.226 10.755.786c2.981-1.003 4.61.494 5.884.732 0 0 2.046.842 5.143 0 3.095-.84 6.042.307 8.138-.767l2.093-1.069z"/><path fill="none" d="M36.818 19.41l2.765-1.476s1.981-10.859-.06-10.438c-2.039.422-2.602 3.346-2.771 11.76l.066.154z"/><path fill="none" d="M24.963 19.253l-2.772-1.311s-2.04-10.867.004-10.446c2.039.422 2.6 3.346 2.769 11.76l-.001-.003z"/></g><metadata><rdf:RDF xmlns:rdf="http://www.w3.org/1999/02/22-rdf-syntax-ns#" xmlns:rdfs="http://www.w3.org/2000/01/rdf-schema#" xmlns:dc="http://purl.org/dc/elements/1.1/"><rdf:Description about="https://iconscout.com/legal#licenses" dc:title="womans,top" dc:description="womans,top" dc:publisher="Iconscout" dc:date="2017-09-22" dc:format="image/svg+xml" dc:language="en"><dc:creator><rdf:Bag><rdf:li>Creativebin</rdf:li></rdf:Bag></dc:creator></rdf:Description></rdf:RDF></metadata></svg>