<?xml version="1.0" encoding="UTF-8"?><!DOCTYPE svg PUBLIC "-//W3C//DTD SVG 1.1//EN" "http://www.w3.org/Graphics/SVG/1.1/DTD/svg11.dtd"><svg xmlns="http://www.w3.org/2000/svg" xmlns:xlink="http://www.w3.org/1999/xlink" version="1.1" id="Layer_1" x="0px" y="0px" width="64px" height="64px" viewBox="0 0 64 64" xml:space="preserve"><g id="Men_x2019_s_Blazer" stroke="#494949" stroke-width="1.5" stroke-linecap="round" stroke-linejoin="round" stroke-miterlimit="10"><path fill="#C69981" d="M55.759 43.395l1.435 3.819-6.584 2.831-1.491-3.929-5.991-14.377s-.027 7.694.395 19.774l-9.185.818-1.808.135c-1.097 0-1.037-1.033-1.037-1.033-.416.916-1.565.898-1.565.898L20.668 52c-.359-12.046-.169-20.178-.169-20.178l-5.871 14.376-1.548 3.807-6.605-2.813 1.606-3.797 10.514-25.597 8.04-2.684 1.073-1.071s2.696-1.526 8.851 0l1.074 1.071 8.042 2.684 10.084 25.597z"/><path fill="none" d="M31.492 51.432l-.035-5.072s.038-4.273.208-9.73l4.892-22.585 1.074 1.071 8.042 2.684 10.086 25.598 1.435 3.818-6.584 2.831-1.491-3.929-5.992-14.378s-.027 7.693.395 19.775l-9.185.817-1.808.135c-1.097-.001-1.037-1.035-1.037-1.035z"/><path fill="none" d="M31.701 36.5l-3.994-22.457-1.073 1.071-8.04 2.684L8.08 43.395l-1.606 3.797 6.605 2.813 1.548-3.807 5.871-14.376s-.189 8.132.169 20.178l9.259.332s1.149.018 1.565-.898l.21-14.934z"/><path fill="#A87B69" d="M36.559 14.043c-6.156-1.526-8.852 0-8.852 0L31.701 36.5l4.858-22.457z"/><path fill="none" d="M23.431 43.154h5.647"/><path fill="none" d="M34.448 43.154h5.648"/></g><metadata><rdf:RDF xmlns:rdf="http://www.w3.org/1999/02/22-rdf-syntax-ns#" xmlns:rdfs="http://www.w3.org/2000/01/rdf-schema#" xmlns:dc="http://purl.org/dc/elements/1.1/"><rdf:Description about="https://iconscout.com/legal#licenses" dc:title="mens,blazer" dc:description="mens,blazer" dc:publisher="Iconscout" dc:date="2017-09-22" dc:format="image/svg+xml" dc:language="en"><dc:creator><rdf:Bag><rdf:li>Creativebin</rdf:li></rdf:Bag></dc:creator></rdf:Description></rdf:RDF></metadata></svg>