<?xml version="1.0" encoding="UTF-8"?><!DOCTYPE svg PUBLIC "-//W3C//DTD SVG 1.1//EN" "http://www.w3.org/Graphics/SVG/1.1/DTD/svg11.dtd"><svg xmlns="http://www.w3.org/2000/svg" xmlns:xlink="http://www.w3.org/1999/xlink" version="1.1" id="Layer_1" x="0px" y="0px" width="64px" height="64px" viewBox="0 0 64 64" xml:space="preserve"><g id="Tank_Top"><path fill="#72CACA" stroke="#494949" stroke-width="1.5" stroke-linecap="round" stroke-linejoin="round" stroke-miterlimit="10" d="M36.814 11.104c.553.218.787 1.573.787 1.573s.246.592-.158 4.048c-.748 6.379-2.111 7.864-2.111 7.864s-1.277 1.982-3.957 1.982c-2.679 0-3.806-2.004-3.806-2.004l-.628-1.186s-.95-1.679-.924-4.332c0 0 .119-4.409.52-5.852 0 0 .473-1.759.773-1.877-1.899-.559-2.502 5.111-2.502 5.111-.128 1.146-.831 4.399-.831 4.399-.957 4.079-3.699 6.313-3.699 6.313-.764.446-.51 1.467-.51 1.467.449 2.806 1.468 5.102 1.468 5.102s1.658 6.122.766 10.521c-.894 4.403-2.874 8.549-2.874 8.549 17.03 4.338 23.024.509 23.024.509s-2.104-6.058-2.361-9.565c-.254-3.507 1.596-9.121 1.596-9.121 1.491-3.636 1.725-6.312 1.725-6.312.062-.893-.701-1.34-.701-1.34-4.402-2.421-3.825-10.97-3.825-10.97.07-5.525-1.772-4.879-1.772-4.879z" id="_x34_61"/><path fill="#60A8A6" stroke="#494949" stroke-width="1.5" stroke-linecap="round" stroke-linejoin="round" stroke-miterlimit="10" d="M35.332 24.589s1.363-1.485 2.111-7.864c.404-3.456.158-4.048.158-4.048s-.234-1.355-.787-1.573c-4.554-.026-1.482 13.485-1.482 13.485z"/><path fill="#60A8A6" stroke="#494949" stroke-width="1.5" stroke-linecap="round" stroke-linejoin="round" stroke-miterlimit="10" d="M27.882 24.989l-.94-1.607s-.95-1.679-.924-4.332c0 0 .119-4.409.52-5.852 0 0 .473-1.759.773-1.877 3.811 1.125.571 13.668.571 13.668z"/><path fill="none" stroke="#494949" stroke-width="1.5" stroke-linecap="round" stroke-linejoin="round" stroke-miterlimit="10" d="M27.88 24.992c.494.588 1.611 1.579 3.495 1.579 2.68 0 3.957-1.982 3.957-1.982s-3.072-13.511 1.482-13.485c0 0 1.858-.436 1.77 4.879 0 0-.577 8.549 3.825 10.97 0 0 .763.447.702 1.34 0 0-.233 2.676-1.725 6.313 0 0-1.851 5.613-1.597 9.119.257 3.51 2.362 9.566 2.362 9.566s-5.995 3.829-23.025-.509c0 0 1.98-4.146 2.874-8.548.893-4.398-.766-10.521-.766-10.521s-1.019-2.296-1.468-5.102c0 0-.254-1.021.51-1.467 0 0 2.742-2.233 3.699-6.313 0 0 .703-3.254.831-4.399 0 0 .603-5.67 2.502-5.111 3.812 1.125.571 13.668.571 13.668v.003z"/></g><metadata><rdf:RDF xmlns:rdf="http://www.w3.org/1999/02/22-rdf-syntax-ns#" xmlns:rdfs="http://www.w3.org/2000/01/rdf-schema#" xmlns:dc="http://purl.org/dc/elements/1.1/"><rdf:Description about="https://iconscout.com/legal#licenses" dc:title="tank,top" dc:description="tank,top" dc:publisher="Iconscout" dc:date="2017-09-22" dc:format="image/svg+xml" dc:language="en"><dc:creator><rdf:Bag><rdf:li>Creativebin</rdf:li></rdf:Bag></dc:creator></rdf:Description></rdf:RDF></metadata></svg>