<?xml version="1.0" encoding="UTF-8"?><!DOCTYPE svg PUBLIC "-//W3C//DTD SVG 1.1//EN" "http://www.w3.org/Graphics/SVG/1.1/DTD/svg11.dtd"><svg xmlns="http://www.w3.org/2000/svg" xmlns:xlink="http://www.w3.org/1999/xlink" version="1.1" id="Layer_1" x="0px" y="0px" width="64px" height="64px" viewBox="0 0 64 64" xml:space="preserve"><g id="Hat_1_"><path fill="#C69981" stroke="#494949" stroke-width="1.5" stroke-linecap="round" stroke-linejoin="round" stroke-miterlimit="10" d="M20.575 36.007c-5.633 1.767-9.258 3.817-8.979 5.377.418 2.349 9.497 2.693 20.281.773 10.783-1.918 19.188-5.378 18.77-7.726-.293-1.641-4.813-2.302-11.194-1.896-.873-2.419-2.298-5.938-3.632-7.337 0 0-.907-1.354-3.391-1.675 0 0-.408-.069-1.322-.018l-.73-.369c-3.927-1.403-6.362.387-6.362.387-2.196 1.2-2.552 2.792-2.552 2.792-.805 1.956-.904 6.837-.889 9.692z"/><path fill="#A87B69" stroke="#494949" stroke-width="1.5" stroke-linecap="round" stroke-linejoin="round" stroke-miterlimit="10" d="M40.529 35.682s-.563-1.718-1.078-3.146c-.873-2.419-2.299-5.938-3.631-7.337 0 0-.908-1.354-3.392-1.675 0 0-.408-.069-1.322-.018l-.73-.369c-3.927-1.403-6.362.387-6.362.387-2.196 1.2-2.552 2.792-2.552 2.792-.803 1.955-.902 6.836-.887 9.69.008 1.294.104 3.256.104 3.256 2.931-.148 6.294-.535 9.845-1.166 3.703-.658 7.124-1.5 10.005-2.414z"/><path fill="none" stroke="#494949" stroke-width="1.5" stroke-linecap="round" stroke-linejoin="round" stroke-miterlimit="10" d="M30.963 23.515a14.952 14.952 0 0 0-4.514.998"/></g><metadata><rdf:RDF xmlns:rdf="http://www.w3.org/1999/02/22-rdf-syntax-ns#" xmlns:rdfs="http://www.w3.org/2000/01/rdf-schema#" xmlns:dc="http://purl.org/dc/elements/1.1/"><rdf:Description about="https://iconscout.com/legal#licenses" dc:title="hat" dc:description="hat" dc:publisher="Iconscout" dc:date="2017-09-22" dc:format="image/svg+xml" dc:language="en"><dc:creator><rdf:Bag><rdf:li>Creativebin</rdf:li></rdf:Bag></dc:creator></rdf:Description></rdf:RDF></metadata></svg>