<?xml version="1.0" encoding="UTF-8"?><!DOCTYPE svg PUBLIC "-//W3C//DTD SVG 1.1//EN" "http://www.w3.org/Graphics/SVG/1.1/DTD/svg11.dtd"><svg xmlns="http://www.w3.org/2000/svg" xmlns:xlink="http://www.w3.org/1999/xlink" version="1.1" id="Layer_1" x="0px" y="0px" width="64px" height="64px" viewBox="0 0 64 64" xml:space="preserve"><g id="Hoodie" stroke="#494949" stroke-width="1.5" stroke-linecap="round" stroke-linejoin="round" stroke-miterlimit="10"><path fill="#E55D59" d="M12.446 49.984s-1.054 2.127-.826 2.695l3.743.68s.661-1.418 1.011-2.502l.266.06 4.955-15.365.17 18.212s-.099 1.648 1.075 2.31c0 0 .034.379 0 1.761 0 0 5.559 2.216 18.389-.316v-2.217c.426-.236.623-.791.633-1.162l.173-18.586 4.955 15.365.374-.083c.344 1.063 1.019 2.495 1.019 2.495l3.668-.668c.224-.555-.854-2.68-.854-2.68l.404-.09-6.832-24.602-7.137-3.6-.393-.908c4.421-2.877 2.669-5.395 2.669-5.395-4.265-7.772-7.774-8.254-7.774-8.254-3.574 1.375-7.426 8.666-7.426 8.666-1.17 2.888 2.2 4.813 2.2 4.813l-.017 1.105-8.029 3.572-6.832 24.603.416.091z"/><path fill="none" d="M27.208 43.249l-3.044 5.297"/><path fill="none" d="M36.139 43.249l3.045 5.297"/><path fill="none" d="M16.374 50.857l.266.06 4.955-15.365.17 18.212s-.099 1.648 1.075 2.31c.168.095.288.134.514.181 0 0 3.771.764 8.643.63-.867-4.903-.041-29.679-.041-29.679-.618-2.014-.88-4.044-.88-4.044-.401-1.516-4.169-2.547-4.169-2.547l-.017 1.104-8.029 3.572-6.832 24.602.418.092"/><path fill="#C4494F" d="M16.374 50.857c-.35 1.084-1.011 2.502-1.011 2.502l-3.743-.68c-.228-.568.826-2.695.826-2.695l3.953.877-.025-.004z"/><path fill="#C4494F" d="M51.195 49.98s1.078 2.127.854 2.681l-3.668.668s-.675-1.433-1.018-2.495l3.832-.854z"/><path fill="none" d="M40.249 55.682c-2.796.813-5.679 1.133-8.252 1.201-.867-4.902-.041-29.679-.041-29.679 1.479-1.554 1.597-3.597 1.597-3.597.516-1.701 3.686-2.824 3.686-2.824l.393.908 7.137 3.6L51.6 49.893l-.404.09s1.078 2.125.854 2.68l-3.668.668s-.675-1.434-1.019-2.495l-.374.083-4.955-15.365-.173 18.586c-.01.371-.207.926-.633 1.162-.374.206-.979.38-.979.38z"/><path fill="#C4494F" d="M22.839 56.072c.168.095.288.134.514.181 0 0 3.771.763 8.643.63 2.574-.068 5.456-.388 8.252-1.201 0 0 .604-.174.979-.382v2.218c-12.83 2.531-18.389.315-18.389.315.036-1.382.001-1.761.001-1.761z"/><path fill="#C4494F" d="M26.906 20.613s3.768 1.031 4.169 2.547c0 0 .263 2.03.88 4.044 1.48-1.554 1.597-3.597 1.597-3.597.517-1.701 3.685-2.824 3.685-2.824 4.422-2.877 2.67-5.395 2.67-5.395-4.266-7.772-7.774-8.254-7.774-8.254-3.574 1.375-7.426 8.666-7.426 8.666-1.171 2.888 2.199 4.813 2.199 4.813z"/><g fill="none"><path d="M28.075 16.28s-.687 1.515.825 3.166c1.514 1.65 3.384 1.658 3.431 4.162"/><path d="M36.328 15.567s1.307 2.914 0 3.741c-1.305.822-4.469 2.256-3.996 6.688"/></g><path fill="#E55D59" d="M40.123 17.315c-1.434-4.192-7.791-3.441-7.791-3.441-7.71.756-7.87 3.095-7.87 3.095-.051-.614.244-1.168.244-1.168s3.852-7.291 7.426-8.666c0 0 3.509.481 7.774 8.254 0-.001.504.891.217 1.926z"/></g><metadata><rdf:RDF xmlns:rdf="http://www.w3.org/1999/02/22-rdf-syntax-ns#" xmlns:rdfs="http://www.w3.org/2000/01/rdf-schema#" xmlns:dc="http://purl.org/dc/elements/1.1/"><rdf:Description about="https://iconscout.com/legal#licenses" dc:title="hoodie" dc:description="hoodie" dc:publisher="Iconscout" dc:date="2017-09-22" dc:format="image/svg+xml" dc:language="en"><dc:creator><rdf:Bag><rdf:li>Creativebin</rdf:li></rdf:Bag></dc:creator></rdf:Description></rdf:RDF></metadata></svg>