<?xml version="1.0" encoding="UTF-8"?><!DOCTYPE svg PUBLIC "-//W3C//DTD SVG 1.1//EN" "http://www.w3.org/Graphics/SVG/1.1/DTD/svg11.dtd"><svg xmlns="http://www.w3.org/2000/svg" xmlns:xlink="http://www.w3.org/1999/xlink" version="1.1" id="Layer_1" x="0px" y="0px" width="64px" height="64px" viewBox="0 0 64 64" xml:space="preserve"><g id="Woman_x2019_s_Formal_Coat_x2F_Blazer" stroke="#494949" stroke-width="1.5" stroke-linecap="round" stroke-linejoin="round" stroke-miterlimit="10"><path fill="#72CACA" d="M55.046 43.377l1.435 3.818-6.586 2.832-1.49-3.93-5.989-14.377s-.027 7.695.393 19.774l-9.184.818-1.808.136c-1.099 0-1.038-1.035-1.038-1.035-.416.917-1.564.899-1.564.899l-9.259-.332c-.359-12.045-.169-20.177-.169-20.177L13.915 46.18l-1.549 3.807-6.604-2.814 1.605-3.796L17.883 17.78l8.039-2.684 1.071-1.071s2.697-1.525 8.853 0l1.074 1.071 8.039 2.684 10.087 25.597z"/><path fill="none" d="M33.449 37.42a.23.23 0 1 1-.46 0 .23.23 0 0 1 .46 0z"/><path fill="none" d="M33.218 44.271a.229.229 0 0 1-.226.229.232.232 0 0 1-.235-.229.231.231 0 0 1 .461 0z"/><path fill="#60A8A6" d="M48.404 46.098l1.491 3.929 6.585-2.832-1.387-3.713z"/><path fill="#60A8A6" d="M7.366 43.377l-1.605 3.796 6.604 2.815 1.549-3.806z"/><path fill="none" d="M30.778 51.415l-.033-5.072s.037-4.274.208-9.731l4.891-22.585 1.075 1.071 8.039 2.684 10.088 25.596 1.435 3.818-6.586 2.832-1.49-3.93-5.989-14.378s-.027 7.695.393 19.774l-9.184.818-1.808.136c-1.099.002-1.039-1.033-1.039-1.033z"/><path fill="#60A8A6" d="M30.953 36.609c1.301-5.021 7.818-10.601 7.818-10.601l-1.342-1.237 2.684-1.703-3.194-7.973-1.075-1.071-4.891 22.585z"/><path fill="#60A8A6" d="M26.992 14.025l-1.071 1.071-3.817 7.973 2.683 1.703-1.344 1.237s6.241 5.453 7.544 10.474l-3.995-22.458z"/><path fill="none" d="M30.986 36.482l-3.994-22.458-1.071 1.071-8.039 2.684L7.366 43.377l-1.605 3.796 6.604 2.813 1.549-3.805 5.872-14.377s-.19 8.133.169 20.178l9.259.33s1.148.019 1.564-.898l.208-14.932z"/><path fill="#60A8A6" d="M35.844 14.025c-6.154-1.525-8.852 0-8.852 0l3.994 22.458-.033.127 4.891-22.585z"/></g><metadata><rdf:RDF xmlns:rdf="http://www.w3.org/1999/02/22-rdf-syntax-ns#" xmlns:rdfs="http://www.w3.org/2000/01/rdf-schema#" xmlns:dc="http://purl.org/dc/elements/1.1/"><rdf:Description about="https://iconscout.com/legal#licenses" dc:title="womans,formal,coat,blazer" dc:description="womans,formal,coat,blazer" dc:publisher="Iconscout" dc:date="2017-09-22" dc:format="image/svg+xml" dc:language="en"><dc:creator><rdf:Bag><rdf:li>Creativebin</rdf:li></rdf:Bag></dc:creator></rdf:Description></rdf:RDF></metadata></svg>