<?xml version="1.0" encoding="UTF-8"?><!DOCTYPE svg PUBLIC "-//W3C//DTD SVG 1.1//EN" "http://www.w3.org/Graphics/SVG/1.1/DTD/svg11.dtd"><svg xmlns="http://www.w3.org/2000/svg" xmlns:xlink="http://www.w3.org/1999/xlink" version="1.1" id="Layer_1" x="0px" y="0px" width="64px" height="64px" viewBox="0 0 64 64" xml:space="preserve"><g id="Woman_x2019_s_Coat" stroke="#494949" stroke-width="1.5" stroke-linecap="round" stroke-linejoin="round" stroke-miterlimit="10"><path fill="#D6E167" d="M31.793 49.637c-.496 1.896-1.143 2.572-1.143 2.572l-.316.086c-4.926.703-12.209-4.615-12.209-4.615 4.775-12.762 1.383-20.211 1.383-20.211l-6.345 16.264c-4.569.736-6.221-3.348-6.221-3.348l9.475-22.859 10.206-2.973 1.052-1.051c2.031 1.354 4.287 1.428 4.287 1.428h.123s2.255-.074 4.287-1.428l1.052 1.051 9.832 2.973 9.473 22.859s-1.556 3.404-5.845 3.348l-6.458-15.438s-3.355 9.166.537 19.871c0 0-7.456 4.91-11.548 4.194-.002-.001-1.025-.149-1.622-2.723z"/><path fill="#D6E167" d="M31.793 49.637c.597 2.574 1.62 2.723 1.62 2.723 4.092.716 11.548-4.194 11.548-4.194-3.893-10.705-.537-19.871-.537-19.871l6.458 15.438c4.289.058 5.845-3.348 5.845-3.348l-9.473-22.859-9.832-2.973-1.052-1.051c.825 8.949-4.038 19.701-4.038 19.701-.087.281-.167.582-.241.904-.933 4.082-.731 11.129-.731 11.129.002 1.879.196 3.379.433 4.401z"/><path fill="#B7B444" d="M32.332 33.203c-.087.281-.167.582-.241.904-6.59-3.124-9.75-12.359-9.75-12.359l1.652-.377s-.986-2.225 1.843-6.588l.785-.23 1.052-1.051s-.985 12.859 4.659 19.701z"/><path fill="#B7B444" d="M36.37 13.502c.825 8.949-4.038 19.701-4.038 19.701-.087.281-.167.582-.241.904 6.05-4.206 9.279-12.359 9.279-12.359l-1.653-.377s1.055-2.295-1.773-6.66l-.521-.158-1.053-1.051z"/><path fill="none" d="M32.332 33.203c-5.644-6.842-4.659-19.701-4.659-19.701l-1.052 1.051-10.206 2.973-9.474 22.859s1.652 4.084 6.221 3.348l6.345-16.264s3.392 7.449-1.383 20.211c0 0 7.284 5.318 12.209 4.615l.316-.086s.647-.676 1.143-2.572c-.237-1.021-.431-2.521-.433-4.4 0 0-.202-7.047.731-11.129.075-.323.155-.624.242-.905z"/><path fill="#B7B444" d="M27.673 13.502s-.985 12.859 4.659 19.701c0 0 4.863-10.752 4.038-19.701-2.032 1.354-4.287 1.428-4.287 1.428h-.123s-2.255-.075-4.287-1.428z"/></g><metadata><rdf:RDF xmlns:rdf="http://www.w3.org/1999/02/22-rdf-syntax-ns#" xmlns:rdfs="http://www.w3.org/2000/01/rdf-schema#" xmlns:dc="http://purl.org/dc/elements/1.1/"><rdf:Description about="https://iconscout.com/legal#licenses" dc:title="womans,coat" dc:description="womans,coat" dc:publisher="Iconscout" dc:date="2017-09-22" dc:format="image/svg+xml" dc:language="en"><dc:creator><rdf:Bag><rdf:li>Creativebin</rdf:li></rdf:Bag></dc:creator></rdf:Description></rdf:RDF></metadata></svg>