<svg xmlns="http://www.w3.org/2000/svg" id="PlaceIcon" viewBox="0 0 32 32"><path fill="#ff5345" d="M24.8 4.6C20-.3 12-.3 7.2 4.6c-4.9 4.9-4.9 12.8 0 17.7l8.8 8.8 8.8-8.8c4.9-4.9 4.9-12.8 0-17.7zm-1.6 15.1c-1.7 2-4.3 3.3-7.2 3.3-5.2 0-9.5-4.3-9.5-9.5S10.8 4 16 4s9.5 4.3 9.5 9.5c0 2.4-.9 4.6-2.3 6.2z"></path><path fill="#67acd5" d="M22.2 17l-1.5-1.5c-.2-.2-.6-.3-.8-.1l-1.5 1c-.5.3-1.2.3-1.7-.2l-3.6-3.6c-.4-.4-.5-1.1-.2-1.7l1-1.5c.2-.3.1-.6-.1-.8l-1.5-1.5c-.3-.3-.7-.3-.9 0l-1.3 1.3c-.6.7-.8 1.7-.6 2.6.4 1.5 1.1 2.9 2.2 4l2.7 2.7c1.1 1.1 2.5 1.9 4 2.2.9.2 1.9 0 2.5-.7l1.3-1.3c.3-.2.3-.6 0-.9z"></path><path fill="#5791d1" d="M21.3 18.9l1-1c.3-.3.3-.7 0-.9l-1.5-1.5c-.2-.2-.6-.3-.8-.1l-1.3.8 2.6 2.7zM13.1 10.8l.9-1.3c.2-.3.1-.6-.1-.8l-1.5-1.5c-.3-.3-.7-.3-.9 0l-1 1 2.6 2.6z"></path><path fill="#40455a" d="M16 31.6c-.1 0-.3 0-.4-.1l-8.8-8.8c-5.1-5.1-5.1-13.3 0-18.4s13.3-5.1 18.4 0 5.1 13.3 0 18.4l-8.8 8.8c-.1 0-.3.1-.4.1zm0-30.2c-3.1 0-6.1 1.2-8.5 3.5-4.7 4.7-4.7 12.3 0 17l8.5 8.5 8.5-8.5c4.7-4.7 4.7-12.3 0-17-2.4-2.3-5.4-3.5-8.5-3.5z"></path><path fill="#40455a" d="M16 23.5c-5.5 0-10-4.5-10-10s4.5-10 10-10 10 4.5 10 10c0 2.4-.9 4.7-2.5 6.6-1.9 2.1-4.6 3.4-7.5 3.4zm0-19c-5 0-9 4-9 9s4 9 9 9c2.6 0 5.1-1.1 6.8-3.1 1.4-1.6 2.2-3.7 2.2-5.9 0-5-4-9-9-9z"></path><path fill="#40455a" d="M19.2 20.5c-.3 0-.5 0-.8-.1-1.6-.4-3-1.2-4.2-2.4l-2.7-2.7c-1.2-1.2-2-2.6-2.4-4.2-.3-1.1.1-2.2.8-3l1.3-1.3c.5-.5 1.2-.5 1.6 0l1.5 1.5c.4.4.5 1 .1 1.5l-1 1.5c-.2.3-.2.8.1 1l3.6 3.6c.3.3.7.3 1 .1l1.5-1c.5-.3 1.1-.2 1.5.1l1.5 1.5c.5.5.5 1.2 0 1.6l-1.3 1.3c-.5.7-1.3 1-2.1 1zM12 7.5h-.1l-1.3 1.3c-.5.5-.7 1.3-.6 2 .4 1.4 1.1 2.7 2.1 3.7l2.7 2.7c1 1 2.3 1.8 3.7 2.1.7.2 1.5 0 2-.6l1.3-1.3c.1-.1.1-.2 0-.2l-1.5-1.5c-.1-.1-.1-.1-.2 0l-1.5 1c-.7.5-1.7.4-2.3-.2L12.9 13c-.6-.6-.7-1.6-.2-2.3l1-1.5V9l-1.5-1.5H12z"></path><path fill="#40455a" d="M13.2 11.2c-.1 0-.3 0-.4-.1l-2.4-2.3c-.2-.2-.2-.5 0-.7.2-.2.5-.2.7 0l2.4 2.3c.2.2.2.5 0 .7 0 0-.2.1-.3.1zM21.1 19.1c-.1 0-.3 0-.4-.1l-2.3-2.3c-.2-.2-.2-.5 0-.7s.5-.2.7 0l2.3 2.3c.2.2.2.5 0 .7 0 .1-.1.1-.3.1z"></path></svg>