<svg xmlns="http://www.w3.org/2000/svg" id="Feedback3Icon" viewBox="0 0 32 32"><path fill="#516d97" d="M4.5 12.4h5.7v12.8H4.5z"></path><path fill="#fff" d="M7.5 12.4h5.7v12.8H7.5z"></path><path fill="#fed8aa" d="M27.4 18.1c0-.8-.6-1.4-1.4-1.4.8 0 1.4-.6 1.4-1.4s-.6-1.4-1.4-1.4h-3.5c-.8 0-1.4-.6-1.4-1.4V9.8c0-1.7-1.4-3.1-3.1-3.1h-.5v3.4c0 .6-.2 1.2-.6 1.7l-1.1 1.5c-.3.4-.7.6-1.1.6h-1.4v10H15c.5 0 1 .2 1.2.7.2.5.7.8 1.3.8h7.1c.8 0 1.4-.6 1.4-1.4s-.6-1.4-1.4-1.4H26c.8 0 1.4-.6 1.4-1.4s-.6-1.4-1.4-1.4c.7-.2 1.4-.9 1.4-1.7z"></path><path fill="#40455a" d="M13.2 25.8H7.5c-.3 0-.5-.2-.5-.5s.2-.5.5-.5h5.2V12.9H7.5c-.3 0-.5-.2-.5-.5s.2-.5.5-.5h5.7c.3 0 .5.2.5.5v12.8c0 .3-.3.6-.5.6z"></path><path fill="#40455a" d="M7.5 25.8H4.6c-.3 0-.5-.2-.5-.5s.2-.5.5-.5H7V12.9H4.6c-.3 0-.5-.2-.5-.5s.2-.5.5-.5h2.8c.3 0 .5.2.5.5v12.8c.1.3-.2.6-.4.6z"></path><circle cx="10.3" cy="22.4" r=".7" fill="#40455a"></circle><path fill="#40455a" d="M26 17.2h-2.8c-.3 0-.5-.2-.5-.5s.2-.5.5-.5H26c.5 0 .9-.4.9-.9s-.4-.9-.9-.9h-3.6c-.3 0-.5-.2-.5-.5s.2-.5.5-.5H26c1.1 0 1.9.9 1.9 1.9 0 1-.9 1.9-1.9 1.9z"></path><path fill="#40455a" d="M26 20.1h-2.8c-.3 0-.5-.2-.5-.5s.2-.5.5-.5H26c.5 0 .9-.4.9-.9s-.4-.9-.9-.9h-2.8c-.3 0-.5-.2-.5-.5s.2-.5.5-.5H26c1.1 0 1.9.9 1.9 1.9 0 1-.9 1.9-1.9 1.9z"></path><path fill="#40455a" d="M26 22.9h-2.8c-.3 0-.5-.2-.5-.5s.2-.5.5-.5H26c.5 0 .9-.4.9-.9s-.4-.9-.9-.9h-2.8c-.3 0-.5-.2-.5-.5s.2-.5.5-.5H26c1.1 0 1.9.9 1.9 1.9 0 1-.9 1.9-1.9 1.9z"></path><path fill="#40455a" d="M24.5 25.8h-7.1c-.7 0-1.4-.4-1.7-1-.1-.2-.4-.4-.8-.4h-1.8c-.3 0-.5-.2-.5-.5s.2-.5.5-.5H15c.7 0 1.3.4 1.6.9.2.3.5.5.8.5h7.1c.5 0 .9-.4.9-.9s-.4-.9-.9-.9h-1.4c-.3 0-.5-.2-.5-.5s.2-.5.5-.5h1.4c1.1 0 1.9.9 1.9 1.9.1 1-.8 1.9-1.9 1.9zM14.6 14.4h-1.4c-.3 0-.5-.2-.5-.5s.2-.5.5-.5h1.4c.3 0 .6-.1.7-.4l1.1-1.5c.3-.4.5-.9.5-1.4V6.8c0-.3.2-.5.5-.5h.5c2 0 3.6 1.6 3.6 3.6v2.6c0 .3-.2.5-.5.5s-.5-.2-.5-.5V9.8c0-1.4-1.1-2.6-2.6-2.6V10c0 .7-.2 1.4-.7 2l-1.1 1.5c-.3.6-.9.9-1.5.9z"></path><path fill="#40455a" d="M24.5 14.4h-2.1c-1.1 0-1.9-.9-1.9-1.9V11c0-.3.2-.5.5-.5s.5.2.5.5v1.4c0 .5.4.9.9.9h2.1c.3 0 .5.2.5.5s-.2.6-.5.6z"></path></svg>