<svg xmlns="http://www.w3.org/2000/svg" id="Layer_1" viewBox="0 0 32 32"><path fill="#a3d86b" d="M20.7 8.2l-2.1-2.1c-.4-.4-1-.4-1.4 0-.4.4-.4 1 0 1.4l.4.4h-4.2c-.6 0-1 .4-1 1s.4 1 1 1h4.2l-.4.4c-.4.4-.4 1 0 1.4.4.4 1 .4 1.4 0l2.1-2.1c.4-.4.4-1 0-1.4z"/><path fill="#ff9e68" d="M19.6 15.6l2.1 2.1c.4.4 1 .4 1.4 0 .4-.4.4-1 0-1.4l-.4-.4H27c.6 0 1-.4 1-1s-.4-1-1-1h-4.2l.4-.4c.4-.4.4-1 0-1.4-.4-.4-1-.4-1.4 0l-2.1 2.1c-.4.4-.4 1-.1 1.4z"/><path fill="#67acd5" d="M22.4 21.7l-2.2-2.2c-.3-.3-.9-.4-1.3-.1l-2.2 1.5c-.8.5-1.8.4-2.5-.2l-5.5-5.5c-.7-.7-.8-1.7-.2-2.5l1.5-2.2c.3-.4.2-.9-.1-1.3L7.5 6.9c-.4-.4-1-.4-1.4 0L4.2 8.8c-1 1-1.4 2.4-1.1 3.8.6 2.3 1.7 4.3 3.4 6l4.1 4.1c1.7 1.7 3.7 2.8 6 3.4 1.4.3 2.8-.1 3.8-1.1l1.9-1.9c.5-.4.5-1 .1-1.4z"/><path fill="#5791d1" d="M20.9 24.6l1.5-1.5c.4-.4.4-1 0-1.4l-2.2-2.2c-.3-.3-.9-.4-1.3-.1L17 20.6l3.9 4zM8.6 12.3l1.3-1.9c.3-.4.2-.9-.1-1.3L7.5 6.9c-.4-.4-1-.4-1.4 0L4.7 8.3l3.9 4z"/><path fill="#40455a" d="M17.6 26.7c-.4 0-.7 0-1.1-.1-2.4-.6-4.5-1.8-6.2-3.5L6.2 19c-1.7-1.7-2.9-3.9-3.5-6.2-.4-1.5.1-3.2 1.2-4.3l1.9-1.9c.6-.6 1.5-.6 2.1 0l2.2 2.2c.5.5.6 1.3.2 1.9l-1.5 2.2c-.4.6-.3 1.4.2 1.9l5.5 5.5c.5.5 1.3.6 1.9.2l2.2-1.5c.6-.4 1.4-.3 1.9.2l2.2 2.2c.6.6.6 1.5 0 2.1l-1.9 1.9c-.8.9-2 1.3-3.2 1.3zM6.8 7.1c-.1 0-.3 0-.4.1L4.5 9.1c-.9.9-1.2 2.1-.9 3.3.5 2.2 1.7 4.2 3.3 5.7l4.1 4.1c1.6 1.6 3.6 2.7 5.7 3.3 1.2.3 2.5-.1 3.3-.9l1.9-1.9c.2-.2.2-.5 0-.7l-2.2-2.2c-.2-.2-.4-.2-.6-.1L17 21.2c-1 .7-2.3.5-3.2-.3l-5.5-5.5c-.8-.8-1-2.2-.3-3.2L9.5 10c.1-.2.1-.5-.1-.6L7.2 7.2c-.1-.1-.2-.1-.4-.1z"/><path fill="#40455a" d="M8.6 12.6c-.1 0-.3 0-.4-.1L4.7 9c-.2-.2-.2-.5 0-.7.2-.2.5-.2.7 0L9 11.8c.2.2.2.5 0 .7-.1.1-.3.1-.4.1zM20.6 24.7c-.1 0-.3 0-.4-.1L16.7 21c-.2-.2-.2-.5 0-.7s.5-.2.7 0l3.5 3.5c.2.2.2.5 0 .7 0 .1-.1.2-.3.2zM17.9 12.5c-.4 0-.8-.2-1.1-.4-.3-.3-.4-.7-.4-1.1 0-.2 0-.4.1-.6h-3.1c-.8 0-1.5-.7-1.5-1.5s.7-1.5 1.5-1.5h3.1c-.1-.2-.1-.4-.1-.6 0-.4.2-.8.4-1.1.6-.6 1.6-.6 2.1 0L21 7.8c.3.3.4.7.4 1.1 0 .4-.2.8-.4 1.1l-2.1 2.1c-.3.3-.6.4-1 .4zm-4.5-4.1c-.3 0-.5.2-.5.5s.2.5.5.5h4.2c.2 0 .4.1.5.3.1.2 0 .4-.1.5l-.4.4c-.1.1-.1.2-.1.4 0 .1.1.3.1.4.2.2.5.2.7 0l2.1-2.1c.1-.1.1-.2.1-.4 0-.1-.1-.3-.1-.4l-2.1-2.1c-.2-.2-.5-.2-.7 0-.1.1-.1.2-.1.4 0 .1.1.3.1.4l.4.4c.1.1.2.4.1.5-.1.2-.3.3-.5.3h-4.2zM22.5 18.5c-.4 0-.8-.2-1.1-.4L19.3 16c-.3-.3-.4-.7-.4-1.1 0-.4.2-.8.4-1.1l2.1-2.1c.6-.6 1.6-.6 2.1 0 .3.3.4.7.4 1.1 0 .2 0 .4-.1.6H27c.8 0 1.5.7 1.5 1.5s-.7 1.5-1.5 1.5h-3.1c.1.2.1.4.1.6 0 .4-.2.8-.4 1.1-.3.3-.7.4-1.1.4zm0-6.2c-.1 0-.3.1-.4.1L20 14.5c-.1.1-.1.2-.1.4 0 .1.1.3.1.4l2.1 2.1c.2.2.5.2.7 0 .1-.1.1-.2.1-.4 0-.1-.1-.3-.1-.4l-.4-.4c-.1-.1-.2-.4-.1-.5.1-.2.3-.3.5-.3H27c.3 0 .5-.2.5-.5s-.2-.5-.5-.5h-4.2c-.2 0-.4-.1-.5-.3-.1-.2 0-.4.1-.5l.4-.4c.1-.1.1-.2.1-.4 0-.1-.1-.3-.1-.4-.1-.1-.2-.1-.3-.1z"/></svg>