<svg xmlns="http://www.w3.org/2000/svg" width="32" height="32" viewBox="0 0 32 32" id="SpermIcon"><g stroke="#0572e4" transform="translate(126.64 -1556.414) scale(.99232)"><path fill="#f2f2f2" stroke="none" d="M1035.6276 1194.1183a2 2.4999723 0 0 1-2 2.5 2 2.4999723 0 0 1-2-2.5 2 2.4999723 0 0 1 2-2.5 2 2.4999723 0 0 1 2 2.5zM1043.6276 1189.1182a2 2.4999723 0 0 1-2 2.4999 2 2.4999723 0 0 1-2-2.4999 2 2.4999723 0 0 1 2-2.5 2 2.4999723 0 0 1 2 2.5zM1051.6276 1194.1182a2 2.4999723 0 0 1-2 2.4999 2 2.4999723 0 0 1-2-2.4999 2 2.4999723 0 0 1 2-2.5 2 2.4999723 0 0 1 2 2.5z" transform="rotate(45)"></path><path fill="#62355c" stroke="none" d="m -112.74414,552.13672 c -0.85804,-0.0782 -1.80216,0.28253 -2.50781,0.98828 -0.98998,0.98985 -1.29966,2.44837 -0.67383,3.48047 -1.00187,0.94675 -1.65398,1.31623 -2.17383,1.53906 -0.57646,0.247 -1.13915,0.38134 -1.74805,0.99024 -0.34441,0.3444 -0.50017,0.77845 -0.48632,1.15625 0.0138,0.3779 0.1504,0.68435 0.25976,0.93945 0.10936,0.2551 0.19163,0.46559 0.20508,0.58789 0.0135,0.1223 0.0237,0.14605 -0.11524,0.28125 -0.74805,0.7281 -2.26047,0.84837 -4.45898,3.04687 a 0.50005,0.50005 0 1 0 0.70703,0.70704 c 2.04413,-2.0441 3.34337,-1.96081 4.44922,-3.03711 0.32451,-0.3158 0.45097,-0.75403 0.41211,-1.10743 -0.0389,-0.3534 -0.17752,-0.63104 -0.28125,-0.87304 -0.10373,-0.242 -0.1727,-0.44258 -0.17773,-0.58008 -0.005,-0.1375 0.007,-0.22816 0.19336,-0.41406 0.45175,-0.4518 0.77262,-0.49405 1.43359,-0.77735 0.60019,-0.25725 1.39466,-0.72083 2.48437,-1.75 1.03342,0.64667 2.50774,0.34386 3.50586,-0.65429 1.12911,-1.1291 1.37338,-2.86888 0.35352,-3.88868 -0.38248,-0.3825 -0.86604,-0.58784 -1.38086,-0.63476 z m -0.13086,0.99805 c 0.31784,0.0233 0.60133,0.14038 0.80469,0.34375 0.54221,0.5422 0.4699,1.65121 -0.35352,2.4746 -0.80899,0.809 -1.89133,0.89025 -2.44336,0.37891 a 0.50005,0.50005 0 0 0 -0.004,-0.004 0.50005,0.50005 0 0 0 -0.0488,-0.0508 c -0.51466,-0.55112 -0.4356,-1.63488 0.375,-2.44531 0.51459,-0.51469 1.14019,-0.7361 1.66992,-0.69726 z m 9.32227,1.12304 c -0.85804,-0.0782 -1.80217,0.28253 -2.50782,0.98828 -0.98992,0.98994 -1.29796,2.44859 -0.67187,3.48047 -1.00218,0.94707 -1.65594,1.31827 -2.17578,1.54102 -0.57646,0.2471 -1.13915,0.37938 -1.74805,0.98828 -0.34442,0.3444 -0.49823,0.7804 -0.48437,1.1582 0.0138,0.3778 0.14845,0.6824 0.25781,0.9375 0.10936,0.2551 0.19358,0.46559 0.20703,0.58789 0.0135,0.1223 0.0218,0.14791 -0.11719,0.28321 -0.74805,0.7281 -2.26047,0.84642 -4.45898,3.04492 a 0.50005,0.50005 0 1 0 0.70703,0.70703 c 2.04412,-2.0441 3.3453,-1.96071 4.45117,-3.03711 0.3245,-0.3158 0.45097,-0.75402 0.41211,-1.10742 -0.0389,-0.3534 -0.17752,-0.63105 -0.28125,-0.87305 -0.10374,-0.242 -0.17271,-0.44258 -0.17773,-0.58008 -0.005,-0.1375 0.005,-0.22816 0.1914,-0.41406 0.45176,-0.4517 0.77457,-0.49404 1.43555,-0.77734 0.60038,-0.25733 1.39414,-0.72211 2.48437,-1.75196 1.03316,0.64686 2.50572,0.34572 3.50391,-0.65234 1.12911,-1.1291 1.37338,-2.86887 0.35351,-3.88867 -0.38247,-0.3825 -0.86603,-0.58784 -1.38085,-0.63477 z m -0.13086,0.99805 c 0.31783,0.0233 0.60133,0.14039 0.80468,0.34375 0.54221,0.5422 0.46991,1.65111 -0.35351,2.47461 -0.8136,0.81339 -1.90224,0.89012 -2.45117,0.36914 a 0.50005,0.50005 0 0 0 -0.0391,-0.041 c -0.51983,-0.54939 -0.44378,-1.63622 0.36914,-2.44922 0.5146,-0.51468 1.1402,-0.7361 1.66993,-0.69726 z m 2.25195,8.19531 c -0.85804,-0.0782 -1.80216,0.28058 -2.50781,0.98633 -0.98992,0.98993 -1.29795,2.44858 -0.67188,3.48047 -1.00275,0.94754 -1.65576,1.3182 -2.17578,1.54101 -0.57645,0.2471 -1.13719,0.38144 -1.74609,0.99024 -0.34442,0.3445 -0.50018,0.77845 -0.48633,1.15625 0.0138,0.3778 0.14845,0.68435 0.25781,0.93945 0.10936,0.2552 0.19358,0.46364 0.20703,0.58594 0.0134,0.1223 0.0237,0.1479 -0.11523,0.2832 -0.74806,0.728 -2.26243,0.84642 -4.46094,3.04492 a 0.50005,0.50005 0 1 0 0.70703,0.70704 c 2.04413,-2.0441 3.34531,-1.95896 4.45117,-3.03516 0.32451,-0.3158 0.45097,-0.75598 0.41211,-1.10938 -0.0388,-0.3534 -0.17751,-0.62909 -0.28125,-0.87109 -0.10373,-0.242 -0.17269,-0.44453 -0.17773,-0.58203 -0.005,-0.1375 0.007,-0.22621 0.19336,-0.41211 0.45176,-0.4518 0.77261,-0.49404 1.43359,-0.77734 0.60059,-0.25733 1.39553,-0.72138 2.48633,-1.75196 1.03315,0.64678 2.50379,0.34383 3.50195,-0.65429 1.129114,-1.1291 1.373376,-2.86888 0.35352,-3.88868 -0.38248,-0.3825 -0.86604,-0.58589 -1.38086,-0.63281 z m -0.12891,0.9961 c 0.31784,0.0233 0.59938,0.14038 0.80274,0.34375 0.54221,0.5422 0.4699,1.65121 -0.35352,2.4746 -0.80753,0.80744 -1.88467,0.88918 -2.4375,0.38086 a 0.50005,0.50005 0 0 0 -0.002,-0.002 0.50005,0.50005 0 0 0 -0.0605,-0.0606 c -0.50833,-0.55288 -0.42856,-1.63201 0.37891,-2.43945 0.51459,-0.51469 1.14214,-0.7361 1.67187,-0.69726 z" color="#000" font-family="sans-serif" font-weight="400" overflow="visible" transform="translate(0 1020.362)" white-space="normal" style="line-height:normal;text-indent:0;text-align:start;text-decoration-line:none;text-decoration-style:solid;text-decoration-color:#000;text-transform:none;block-progression:tb;isolation:auto;mix-blend-mode:normal"></path></g></svg>