<svg xmlns="http://www.w3.org/2000/svg" version="1.1" x="0px" y="0px" viewBox="0 0 48 48" xml space="preserve" id="Juice7Icon"><style type="text/css"></style><symbol id="New_Symbol_14" viewBox="-6.5 -6.5 13 13"><path class="st0" d="M0-6c2.2 0 4.1 1.5 4.7 3.5C6.3-2.5 6.4 0 5 0v1c0 2.8-2.2 5-5 5s-5-2.2-5-5V0c-1.4 0-1.3-2.5.2-2.5C-4.1-4.5-2.2-6 0-6z" fill="#FFD4C3" stroke="#504B46" stroke-linecap="round" stroke-linejoin="round" stroke-miterlimit="10"></path><circle class="st1" cx="-1.6" cy="-0.1" r="0.1" fill="#FFC258"></circle><path class="st2" d="M-1.6.5c-.3 0-.6-.3-.6-.6s.2-.7.6-.7c.3 0 .6.3.6.7s-.3.6-.6.6z" fill="#4F4B45"></path><circle class="st1" cx="1.6" cy="-0.1" r="0.1" fill="#FFC258"></circle><path class="st2" d="M1.6.5C1.3.5 1 .2 1-.1s.3-.6.6-.6.6.3.6.6-.2.6-.6.6z" fill="#4F4B45"></path><circle class="st3" cx="-3" cy="-1.5" r="0.5" fill="#FABFA5"></circle><circle class="st3" cx="3" cy="-1.5" r="0.5" fill="#FABFA5"></circle><path class="st4" d="M-1.2-3c.8-.5 1.7-.5 2.5 0" fill="none" stroke="#504B46" stroke-linecap="round" stroke-linejoin="round" stroke-miterlimit="10"></path></symbol><g id="Icons"><g id="XMLID_1888_"><ellipse id="XMLID_1742_" class="st5" cx="12.5" cy="45.1" rx="9" ry="1.5" fill="#45413C" opacity="0.15"></ellipse><ellipse id="XMLID_2021_" class="st5" cx="35.7" cy="45.1" rx="9" ry="1.5" fill="#45413C" opacity="0.15"></ellipse><g id="XMLID_1643_"><path id="XMLID_1727_" class="st61" d="M10.8 30.5c.1 3.9-1.5 10-1.5 10-.1.3-.4.5-.7.5-2.6-.4-4.7-.2-5.2.5-.1.1-.1.3.1.4.5.4 2.3 1.6 6 2.4 3.7.8 5.8.4 6.5.2.2 0 .3-.2.2-.4-.2-.8-2.1-1.8-4.6-2.5-.3-.1-.5-.4-.4-.7 0 0 1-6.3 2.7-9.8l-3.1-.6z" fill="#00B8F0" stroke="#45413C" stroke-linecap="round" stroke-linejoin="round" stroke-miterlimit="10"></path><g id="XMLID_1722_"><path id="XMLID_1726_" class="st35" d="M20.8 25.9c-.8 3.9-4.8 7-8.7 6.2-3.9-.8-6.3-5.3-5.5-9.2l5.7-21L24 4.4l-3.2 21.5z" fill="#00B8F0"></path><path id="XMLID_1725_" class="st36" d="M22.4 15.1L24 4.4 12.3 1.9l-5.7 21c-.2.9-.2 1.9-.1 2.8 6.1-2.3 11.8-5.8 15.9-10.6z" fill="#4ACFFF"></path><path id="XMLID_1724_" class="st10" d="M20.8 25.9c-.8 3.9-4.8 7-8.7 6.2-3.9-.8-6.3-5.3-5.5-9.2l5.7-21L24 4.4l-3.2 21.5z" fill="none" stroke="#45413C" stroke-linecap="round" stroke-linejoin="round" stroke-miterlimit="10"></path><ellipse id="XMLID_1723_" transform="matrix(0.2056 -0.9786 0.9786 0.2056 11.3338 20.2519)" class="st61" cx="18.1" cy="3.1" rx="1.3" ry="6" fill="#00B8F0" stroke="#45413C" stroke-linecap="round" stroke-linejoin="round" stroke-miterlimit="10"></ellipse></g><g id="XMLID_1648_"><path id="XMLID_1721_" class="st11" d="M10 18.8s.9-1.4 2.8-1c2.2.5 3.1 2.3 3.1 2.3L10 18.8z" fill="#FFE500"></path><path id="XMLID_1658_" class="st11" d="M19.3 24.9c-.6 3.1-3.9 6.3-7 5.6-3.1-.6-4.8-4.9-4.1-7.9l1.3-4.9s.4 1.1 2.6 1.5c2.2.5 3.2-1.3 5.3-.8 2.2.5 2.6 1.5 2.6 1.5l-.7 5z" fill="#FFE500"></path><path id="XMLID_1657_" class="st45" d="M18.6 18.8c-.3-.1-.7-.3-1.1-.4-2.2-.5-3.2 1.3-5.3.8-2.2-.5-2.6-1.5-2.6-1.5l-1.3 4.9c-.2.8-.2 1.6-.1 2.5 3.8-1.6 7.4-3.7 10.4-6.3z" fill="#FFF48C"></path><ellipse id="XMLID_1656_" transform="matrix(0.2056 -0.9786 0.9786 0.2056 -0.6057 30.8464)" class="st11" cx="18.7" cy="15.8" rx="0.6" ry="0.6" fill="#FFE500"></ellipse><ellipse id="XMLID_1655_" transform="matrix(0.2056 -0.9786 0.9786 0.2056 -8.3534 35.7201)" class="st45" cx="17.8" cy="23" rx="0.6" ry="0.6" fill="#FFF48C"></ellipse><ellipse id="XMLID_1654_" transform="matrix(0.2056 -0.9786 0.9786 0.2056 -17.0761 32.6261)" class="st45" cx="11.6" cy="26.8" rx="0.6" ry="0.6" fill="#FFF48C"></ellipse><ellipse id="XMLID_1653_" transform="matrix(0.2056 -0.9786 0.9786 0.2056 -12.1104 32.7465)" class="st45" cx="14.1" cy="23.8" rx="0.6" ry="0.6" fill="#FFF48C"></ellipse><ellipse id="XMLID_1652_" transform="matrix(0.2056 -0.9786 0.9786 0.2056 -14.72 37.2098)" class="st45" cx="15.6" cy="27.7" rx="0.6" ry="0.6" fill="#FFF48C"></ellipse><ellipse id="XMLID_1651_" transform="matrix(0.2056 -0.9786 0.9786 0.2056 -5.6409 24.5192)" class="st11" cx="12.3" cy="15.7" rx="0.6" ry="0.6" fill="#FFE500"></ellipse><ellipse id="XMLID_1650_" transform="matrix(0.2056 -0.9786 0.9786 0.2056 -11.988 27.7814)" class="st28" cx="11.1" cy="21.3" rx="0.6" ry="0.6" fill="#FFFACF"></ellipse><ellipse id="XMLID_1649_" transform="matrix(0.2056 -0.9786 0.9786 0.2056 -0.303 26.2322)" class="st11" cx="16" cy="13.3" rx="0.6" ry="0.6" fill="#FFE500"></ellipse></g><g id="XMLID_1644_"><ellipse id="XMLID_1647_" transform="matrix(0.2056 -0.9786 0.9786 0.2056 4.7761 20.5023)" class="st16" cx="15" cy="7.3" rx="1.3" ry="1.3" fill="#E5F8FF"></ellipse><ellipse id="XMLID_1645_" transform="matrix(0.2056 -0.9786 0.9786 0.2056 1.5729 19.4741)" class="st16" cx="12.8" cy="8.8" rx="0.6" ry="0.6" fill="#E5F8FF"></ellipse></g></g><g id="XMLID_1598_"><path id="XMLID_1642_" class="st61" d="M31.8 31.2c1.8 3.5 2.9 9.7 2.9 9.7.1.3-.1.6-.4.7-2.5.8-4.3 1.8-4.5 2.6 0 .2.1.3.2.4.7.2 2.8.5 6.5-.3 3.7-.9 5.4-2.1 6-2.5.1-.1.2-.3.1-.4-.6-.7-2.7-.8-5.2-.4-.3.1-.6-.2-.7-.5 0 0-1.7-6.1-1.6-10l-3.3.7z" fill="#00B8F0" stroke="#45413C" stroke-linecap="round" stroke-linejoin="round" stroke-miterlimit="10"></path><g id="XMLID_1637_"><path id="XMLID_1641_" class="st35" d="M38.9 22.8c.9 3.9-1.4 8.4-5.3 9.3-3.9.9-7.9-2.2-8.8-6L21.2 4.6l11.7-2.7 6 20.9z" fill="#00B8F0"></path><path id="XMLID_1640_" class="st36" d="M35.9 12.4l-3-10.5-11.7 2.7L24.8 26c.2.9.6 1.8 1.1 2.6 4.6-4.6 8.2-10.2 10-16.2z" fill="#4ACFFF"></path><path id="XMLID_1639_" class="st10" d="M38.9 22.8c.9 3.9-1.4 8.4-5.3 9.3-3.9.9-7.9-2.2-8.8-6L21.2 4.6l11.7-2.7 6 20.9z" fill="none" stroke="#45413C" stroke-linecap="round" stroke-linejoin="round" stroke-miterlimit="10"></path><ellipse id="XMLID_1638_" transform="matrix(0.9747 -0.2235 0.2235 0.9747 -4.712598e-02 6.1152)" class="st61" cx="27" cy="3.3" rx="6" ry="1.3" fill="#00B8F0" stroke="#45413C" stroke-linecap="round" stroke-linejoin="round" stroke-miterlimit="10"></ellipse></g><g id="XMLID_1602_"><path id="XMLID_1636_" class="st11" d="M26.2 20.9s.3-1.7 2.1-2.1c2.1-.5 3.7.8 3.7.8l-5.8 1.3z" fill="#FFE500"></path><path id="XMLID_1635_" class="st11" d="M37.2 22.5c.7 3-.9 7.3-4 8-3 .7-6.4-2.4-7.1-5.5l-.8-5s.8.8 3 .3c2.1-.5 2.3-2.5 4.5-3 2.1-.5 3 .3 3 .3l1.4 4.9z" fill="#FFE500"></path><path id="XMLID_1634_" class="st45" d="M34 17.3c-.3 0-.7.1-1.2.2-2.1.5-2.3 2.5-4.5 3-2.1.5-3-.3-3-.3l.8 5c.2.8.5 1.5 1 2.3 2.8-3.2 5.2-6.6 6.9-10.2z" fill="#FFF48C"></path><ellipse id="XMLID_1633_" transform="matrix(0.9747 -0.2235 0.2235 0.9747 -2.415 7.6973)" class="st11" cx="32.8" cy="14.5" rx="0.6" ry="0.6" fill="#FFE500"></ellipse><ellipse id="XMLID_1609_" transform="matrix(0.9747 -0.2234 0.2234 0.9747 -3.9027 8.3698)" class="st45" cx="35" cy="21.4" rx="0.6" ry="0.6" fill="#FFF48C"></ellipse><ellipse id="XMLID_1608_" transform="matrix(0.9747 -0.2234 0.2234 0.9747 -5.3691 7.6107)" class="st45" cx="30.9" cy="27.5" rx="0.6" ry="0.6" fill="#FFF48C"></ellipse><ellipse id="XMLID_1607_" transform="matrix(0.9747 -0.2235 0.2235 0.9747 -4.4946 7.7535)" class="st45" cx="32" cy="23.7" rx="0.6" ry="0.6" fill="#FFF48C"></ellipse><ellipse id="XMLID_1606_" transform="matrix(0.9747 -0.2235 0.2235 0.9747 -5.0644 8.4786)" class="st45" cx="34.9" cy="26.6" rx="0.6" ry="0.6" fill="#FFF48C"></ellipse><ellipse id="XMLID_1605_" transform="matrix(0.9747 -0.2235 0.2235 0.9747 -3.1511 6.4565)" class="st11" cx="27" cy="17.2" rx="0.6" ry="0.6" fill="#FFE500"></ellipse><ellipse id="XMLID_1604_" transform="matrix(0.9747 -0.2235 0.2235 0.9747 -4.353 6.8803)" class="st28" cx="28.2" cy="22.7" rx="0.6" ry="0.6" fill="#FFFACF"></ellipse><ellipse id="XMLID_1603_" transform="matrix(0.9747 -0.2235 0.2235 0.9747 -2.2492 6.8892)" class="st11" cx="29.3" cy="13.4" rx="0.6" ry="0.6" fill="#FFE500"></ellipse></g><g id="XMLID_1599_"><ellipse id="XMLID_1601_" transform="matrix(0.9747 -0.2234 0.2234 0.9747 -1.2123 5.9997)" class="st16" cx="25.9" cy="8.4" rx="1.3" ry="1.3" fill="#E5F8FF"></ellipse><ellipse id="XMLID_1600_" transform="matrix(0.9747 -0.2235 0.2235 0.9747 -1.7536 5.7415)" class="st16" cx="24.5" cy="10.6" rx="0.6" ry="0.6" fill="#E5F8FF"></ellipse></g></g></g></g></svg>
