<svg xmlns="http://www.w3.org/2000/svg" id="Customer8Icon" viewBox="0 0 32 32"><path fill="#a17852" d="M27.5 17.3v.8c.5-.1.9-.1 1.4-.2h.2c.4-.1.7-.4.7-.8V14c0-2.1-1.7-3.8-3.8-3.8s-3.8 1.7-3.8 3.8v3c0 .4.3.7.7.8h.2c.5.1.9.2 1.4.2v-.8"></path><path fill="#fed8aa" d="M28.1 13.5v2.1c0 1.2-.9 2.1-2.1 2.1-1.2 0-2.1-.9-2.1-2.1v-2.1"></path><path fill="#a95d8a" d="M24.5 18.8l-2.5.8c-.3.1-.6.3-.8.5l1 .3c1.4.5 2.3 1.8 2.3 3.2h7v-1.9c0-.9-.6-1.8-1.5-2.1l-2.5-.8"></path><path fill="#fed8aa" d="M24.5 17.3v1.2c0 .9 1.5 1.5 1.5 1.5s1.5-.7 1.5-1.5v-1.2"></path><path fill="#814f80" d="M31.5 23.6v-1.9c0-.4-.1-.8-.3-1.1-1.3.2-2.3 1.3-2.3 2.6v.4h2.6z"></path><path fill="#a95d8a" d="M4.5 18.8l-2.5.8c-.9.3-1.5 1.1-1.5 2.1v1.9h7c0-1.5.9-2.8 2.3-3.2l1-.3c-.2-.2-.5-.4-.8-.5l-2.5-.8"></path><path fill="#814f80" d="M.5 23.6v-1.9c0-.4.1-.8.3-1.1 1.3.2 2.3 1.3 2.3 2.6v.4H.5z"></path><path fill="#fed8aa" d="M4.5 17.5v1.1c0 .9 1.5 1.5 1.5 1.5s1.5-.7 1.5-1.5v-1.1"></path><path fill="#fed8aa" d="M3 12v2.8c0 1.6 1.3 3 3 3s3-1.3 3-3V12H3z"></path><path fill="#a17852" d="M3 14.1l-.5-1.5c-.1-.7.4-1.3 1.1-1.3 0-.8.7-1.5 1.6-1.3l3.2.5c.8.1 1.3.8 1.1 1.6l-.5 2-1.1-.9c-.2-.1-.3-.2-.5-.2H4.6c-.2 0-.4.1-.5.2l-1.1.9zM20.2 11.8h.2l.8-2.3c.2-1-.6-2-1.6-2 0-1.2-1.1-2.2-2.3-2l-4.8.8c-1.1.2-1.9 1.3-1.7 2.4l.8 3.1h.3"></path><path fill="#a95d8a" d="M13.7 19.1l-3.8 1.3c-1.4.5-2.3 1.8-2.3 3.2v3h17v-3c0-1.5-.9-2.8-2.3-3.2l-3.8-1.3"></path><path fill="#814f80" d="M24.5 26.6v-3c0-.6-.2-1.2-.5-1.7-2 .2-3.6 2-3.6 4v.7h4.1zM7.5 26.6v-3c0-.6.2-1.2.5-1.7 2 .2 3.6 2 3.6 4v.7H7.5z"></path><path fill="#fed8aa" d="M20.2 11.8c-.4 0-.7-.3-.7-.7V9.7c0-.3-.3-.4-.6-.3-1.4 1.1-3.2 1.5-4.9 1.1l-.7-.1c-.4 0-.7.3-.7.7s-.3.7-.7.7h-.3v1.4c0 2.5 2 4.5 4.5 4.5s4.5-2 4.5-4.5v-1.4h-.4z"></path><path fill="#fed8aa" d="M13.6 17v1.7c0 1.3 2.4 2.4 2.4 2.4s2.4-1.1 2.4-2.4V17"></path><path fill="#40455a" d="M20.8 12.5h-.4c-.7 0-1.2-.6-1.2-1.2V10c-1.6 1.1-3.5 1.5-5.4 1.1L13 11s-.1.1-.1.2c0 .7-.6 1.2-1.2 1.2h-.4c-.2 0-.4-.2-.5-.4L10 8.8c-.1-.7 0-1.4.4-2 .4-.6 1-1 1.7-1.1l5-.8c.9-.1 1.7.1 2.3.6.5.4.8 1 .9 1.6.5.1.9.4 1.3.8.4.5.6 1.2.4 1.9l-.7 2.4c-.1.1-.3.3-.5.3zm-3.1-6.6h-.3l-5 .8c-.4.1-.8.3-1.1.7-.3.4-.3.8-.3 1.3l.6 2.8c.1 0 .2-.1.2-.2 0-.7.6-1.2 1.2-1.2l.9.2c1.7.3 3.4-.1 4.8-1.1.3-.3.7-.3 1-.2.3.1.5.4.5.8v1.5c0 .1.1.2.2.2l.6-2c.1-.3 0-.7-.3-1-.2-.3-.6-.5-1-.5-.3 0-.5-.2-.5-.5 0-.5-.2-1-.6-1.3-.2-.2-.5-.3-.9-.3zM6 20.6h-.2c-.3-.1-1.8-.9-1.8-2v-1.1c0-.3.2-.5.5-.5s.5.2.5.5v1.1c0 .3.6.7 1 1 .5-.3 1-.7 1-1v-1.1c0-.3.3-.5.5-.5s.5.2.5.5v1.1c0 1.1-1.5 1.9-1.8 2H6z"></path><path fill="#40455a" d="M6 18.3c-1.9 0-3.5-1.6-3.5-3.5V14c0-.3.2-.5.5-.5s.5.2.5.5v.8c0 1.4 1.1 2.5 2.5 2.5s2.5-1.1 2.5-2.5V14c0-.3.2-.5.5-.5s.5.2.5.5v.8c0 1.9-1.6 3.5-3.5 3.5z"></path><path fill="#40455a" d="M3 14.6h-.1c-.2 0-.3-.2-.3-.3L2 12.8c-.1-.5 0-1 .3-1.4.2-.3.5-.4.8-.5.1-.4.3-.7.6-1 .4-.4 1-.5 1.5-.4l3.3.5c.5.1.9.4 1.2.8.3.4.4.9.3 1.4l-.5 2.1c0 .2-.2.3-.3.4-.2.1-.3 0-.5-.1l-1.1-.9c-.1-.1-.1-.1-.2-.1H4.6c-.1 0-.2 0-.2.1l-1.1.9H3zm1.9-4.2c-.2 0-.4.1-.5.2-.2.2-.3.4-.3.6 0 .3-.2.5-.5.5-.2 0-.4.1-.5.2-.1.3-.2.5-.1.6l.3.8.5-.4c.2-.2.5-.3.9-.3h2.8c.3 0 .6.1.9.3l.4.4.2-1.4c0-.2 0-.4-.2-.6s-.3-.3-.5-.3l-3.2-.5c-.1-.1-.1-.1-.2-.1zM3.1 24.1H.5c-.3 0-.5-.2-.5-.5v-1.9c0-.5.1-1 .4-1.4.1-.2.3-.3.5-.2 1.6.2 2.8 1.5 2.8 3.1v.4c-.1.3-.3.5-.6.5zm-2.1-1h1.6c0-.9-.7-1.7-1.5-2-.1.2-.1.4-.1.6v1.4z"></path><path fill="#40455a" d="M7.7 16.5H6.4c-.3 0-.5-.2-.5-.5s.2-.5.5-.5h1.3c.4 0 .8-.3.8-.8v-.8c0-.3.2-.5.5-.5s.5.2.5.5v.8c0 1-.8 1.8-1.8 1.8zM16 21.8h-.2c-.3-.1-2.8-1.3-2.8-3V17c0-.3.2-.5.5-.5s.5.2.5.5v1.8c0 .7 1.2 1.5 2 1.9.8-.4 2-1.2 2-1.9V17c0-.3.2-.5.5-.5s.5.2.5.5v1.8c0 1.7-2.5 2.8-2.8 3H16z"></path><path fill="#40455a" d="M16 18.1c-2.8 0-5.1-2.3-5.1-5.1v-1c0-.3.2-.5.5-.5s.5.2.5.5v1c0 2.2 1.8 4.1 4.1 4.1s4.1-1.8 4.1-4.1v-1c0-.3.2-.5.5-.5s.5.2.5.5v1c0 2.8-2.3 5.1-5.1 5.1zM24.5 27.1h-17c-.3 0-.5-.2-.5-.5v-3c0-1.7 1.1-3.2 2.7-3.7l3.7-1.2c.3-.1.5.1.6.3.1.3-.1.5-.3.6L10 20.9c-1.2.4-2 1.5-2 2.8v2.5h16v-2.5c0-1.3-.8-2.4-2-2.8l-3.7-1.2c-.3-.1-.4-.4-.3-.6.1-.3.4-.4.6-.3l3.7 1.2c1.6.5 2.7 2 2.7 3.7v3c0 .2-.2.4-.5.4z"></path><path fill="#40455a" d="M24.5 27.1h-17c-.3 0-.5-.2-.5-.5v-3c0-1.7 1.1-3.2 2.7-3.7l3.7-1.2c.3-.1.5.1.6.3.1.3-.1.5-.3.6L10 20.9c-1.2.4-2 1.5-2 2.8v2.5h16v-2.5c0-1.3-.8-2.4-2-2.8l-3.7-1.2c-.3-.1-.4-.4-.3-.6.1-.3.4-.4.6-.3l3.7 1.2c1.6.5 2.7 2 2.7 3.7v3c0 .2-.2.4-.5.4z"></path><path fill="#40455a" d="M24.5 27.1h-17c-.3 0-.5-.2-.5-.5v-3c0-1.7 1.1-3.2 2.7-3.7l3.7-1.2c.3-.1.5.1.6.3.1.3-.1.5-.3.6L10 20.9c-1.2.4-2 1.5-2 2.8v2.5h16v-2.5c0-1.3-.8-2.4-2-2.8l-3.7-1.2c-.3-.1-.4-.4-.3-.6.1-.3.4-.4.6-.3l3.7 1.2c1.6.5 2.7 2 2.7 3.7v3c0 .2-.2.4-.5.4z"></path><path fill="#40455a" d="M7.5 24.1h-7c-.3 0-.5-.2-.5-.5v-1.9c0-1.2.7-2.2 1.9-2.6l2.5-.8c.3-.1.5.1.6.3.1.3-.1.5-.3.6l-2.5.8c-.7.3-1.2 1-1.2 1.7v1.4h6c.2-1.4 1.1-2.6 2.5-3.1l-2.2-.7c-.2-.1-.3-.4-.3-.7.1-.3.4-.4.6-.3l2.5.8c.4.1.7.3 1 .6.1.1.2.3.1.5s-.2.3-.3.4l-1 .3c-1.2.4-2 1.5-2 2.7.1.3-.1.5-.4.5zM24.5 27.1h-4.1c-.3 0-.5-.2-.5-.5v-.7c0-2.3 1.7-4.3 4-4.5.2 0 .4.1.5.2.4.6.6 1.3.6 2v3c0 .3-.2.5-.5.5zm-3.6-1H24v-2.5c0-.4-.1-.8-.3-1.2-1.6.4-2.8 1.8-2.8 3.5v.2z"></path><path fill="#40455a" d="M11.6 27.1H7.5c-.3 0-.5-.2-.5-.5v-3c0-.7.2-1.4.6-2 .1-.2.3-.3.5-.2 2.3.3 4 2.2 4 4.5v.7c0 .3-.2.5-.5.5zm-3.6-1h3.1v-.2c0-1.7-1.2-3.1-2.8-3.5-.2.4-.3.8-.3 1.2v2.5zM18.6 15.4h-2c-.3 0-.5-.2-.5-.5s.2-.5.5-.5h2c.8 0 1.5-.7 1.5-1.5 0-.3.2-.5.5-.5s.5.2.5.5c0 1.4-1.1 2.5-2.5 2.5zM31.5 24.1h-2.6c-.3 0-.5-.2-.5-.5v-.4c0-1.6 1.2-2.9 2.8-3.1.2 0 .4.1.5.2.3.4.4.9.4 1.4v1.9c-.1.3-.3.5-.6.5zm-2.1-1H31v-1.4c0-.2 0-.4-.1-.6-.9.3-1.5 1.1-1.5 2zM26 20.6h-.2c-.3-.1-1.8-.9-1.8-2v-1.2c0-.3.2-.5.5-.5s.5.1.5.4v1.2c0 .3.6.7 1 1 .5-.3 1-.7 1-1v-1.2c0-.3.2-.5.5-.5s.5.2.5.5v1.2c0 1.1-1.5 1.9-1.8 2-.1.1-.1.1-.2.1z"></path><path fill="#40455a" d="M26 18.2c-1.4 0-2.6-1.2-2.6-2.6v-2.1c0-.3.2-.5.5-.5s.5.2.5.5v2.1c0 .9.7 1.6 1.6 1.6s1.6-.7 1.6-1.6v-2.1c0-.3.2-.5.5-.5s.5.2.5.5v2.1c0 1.5-1.2 2.6-2.6 2.6zM31.5 24.1h-2.6c-.3 0-.5-.2-.5-.5v-.4c0-1.6 1.2-2.9 2.8-3.1.2 0 .4.1.5.2.3.4.4.9.4 1.4v1.9c-.1.3-.3.5-.6.5zm-2.1-1H31v-1.4c0-.2 0-.4-.1-.6-.9.3-1.5 1.1-1.5 2z"></path><path fill="#40455a" d="M24.3 14h-.4c-.3 0-.5-.2-.5-.5s.2-.5.5-.5h.4c.2 0 .3-.2.3-.3 0-.3.2-.5.5-.5s.5.2.5.5c.1.7-.6 1.3-1.3 1.3zM29.8 16.5c-.3 0-.5-.2-.5-.5v-.8c0-.7-.5-1.2-1.2-1.2h-1.7c-.3 0-.5-.2-.5-.5s.2-.5.5-.5h1.7c1.2 0 2.2 1 2.2 2.2v.8c0 .3-.2.5-.5.5z"></path><path fill="#40455a" d="M27.7 14H26c-.7 0-1.3-.6-1.3-1.3 0-.3.2-.5.5-.5s.5.2.5.5c0 .2.2.3.3.3h1.7c.3 0 .5.2.5.5s-.2.5-.5.5zM26.8 16.5h-.4c-.3 0-.5-.2-.5-.5s.2-.5.5-.5h.4c.4 0 .8-.3.8-.8 0-.3.2-.5.5-.5s.5.2.5.5c0 1-.8 1.8-1.8 1.8z"></path><path fill="#40455a" d="M27.5 18.6c-.1 0-.2 0-.3-.1-.1-.1-.2-.2-.2-.4v-.8c0-.3.2-.5.5-.5s.5.2.5.5v.3c.3 0 .5-.1.8-.1h.2c.2 0 .3-.2.3-.3v-3.1c0-1.8-1.5-3.3-3.3-3.3s-3.3 1.5-3.3 3.3V17c0 .2.1.3.3.3h.2c.3.1.5.1.8.1v-.3c0-.3.2-.5.5-.5s.5.4.5.7v.8c0 .1-.1.3-.2.4-.1.1-.2.1-.4.1-.5-.1-1-.1-1.4-.2h-.2c-.6-.1-1.1-.7-1.1-1.3V14c0-2.4 1.9-4.3 4.3-4.3s4.3 1.9 4.3 4.3v3c0 .6-.4 1.2-1.1 1.3H29c-.4.2-.9.3-1.5.3.1 0 .1 0 0 0z"></path><path fill="#40455a" d="M31.5 24.1h-7c-.3 0-.5-.2-.5-.5 0-1.2-.8-2.3-2-2.7l-1-.3c-.2-.1-.3-.2-.3-.4s0-.4.1-.5c.3-.3.6-.5 1-.6l2.5-.8c.3-.1.5.1.6.3.1.3-.1.5-.3.6l-2.1.8c1.4.5 2.3 1.7 2.5 3.1h6v-1.4c0-.7-.5-1.4-1.2-1.6l-2.5-.8c-.3-.1-.4-.4-.3-.6s.4-.4.6-.3l2.5.8c1.1.4 1.9 1.4 1.9 2.6v1.9c0 .2-.2.4-.5.4z"></path></svg>