<svg xmlns="http://www.w3.org/2000/svg" version="1.1" x="0px" y="0px" viewBox="0 0 48 48" xml:space="preserve"><style type="text/css">.st0{fill:#FFD4C3;stroke:#504B46;stroke-linecap:round;stroke-linejoin:round;stroke-miterlimit:10;} .st1{fill:#FFC258;} .st2{fill:#4F4B45;} .st3{fill:#FABFA5;} .st4{fill:none;stroke:#504B46;stroke-linecap:round;stroke-linejoin:round;stroke-miterlimit:10;} .Graphic_x0020_Style{opacity:0.15;fill:#45413C;} .st5{opacity:0.15;fill:#45413C;} .st6{fill:#DEBB7E;stroke:#45413C;stroke-linecap:round;stroke-linejoin:round;stroke-miterlimit:10;} .st7{fill:#F0D5A8;} .st8{fill:#F7E5C6;} .st9{fill:#DEBB7E;} .st10{fill:none;stroke:#45413C;stroke-linecap:round;stroke-linejoin:round;stroke-miterlimit:10;} .st11{fill:#FFE500;} .st12{fill:#EBCB00;} .st13{fill:none;stroke:#EBCB00;stroke-linecap:round;stroke-linejoin:round;stroke-miterlimit:10;} .st14{fill:#FF6242;stroke:#45413C;stroke-linecap:round;stroke-linejoin:round;stroke-miterlimit:10;} .st15{fill:#FFFFFF;stroke:#45413C;stroke-linecap:round;stroke-linejoin:round;stroke-miterlimit:10;} .st16{fill:#E5F8FF;} .st17{fill:#FFFFFF;} .st18{fill:#E8F4FA;} .st19{fill:#E8F4FA;stroke:#45413C;stroke-linecap:round;stroke-linejoin:round;stroke-miterlimit:10;} .st20{fill:#FFCCDD;} .st21{fill:#FFB0CA;stroke:#45413C;stroke-linecap:round;stroke-linejoin:round;stroke-miterlimit:10;} .st22{fill:#FF87AF;stroke:#45413C;stroke-linecap:round;stroke-linejoin:round;stroke-miterlimit:10;} .st23{fill:#E5F8FF;stroke:#45413C;stroke-linecap:round;stroke-linejoin:round;stroke-miterlimit:10;} .st24{fill:#BF8256;stroke:#45413C;stroke-linecap:round;stroke-linejoin:round;stroke-miterlimit:10;} .st25{fill:#9CEB60;} .st26{fill:#6DD627;} .st27{fill:#C8FFA1;} .st28{fill:#FFFACF;} .st29{fill:#FF87AF;} .st30{fill:#FFB0CA;} .st31{fill:#FF6196;} .st32{fill:#FFCCDD;stroke:#45413C;stroke-linecap:round;stroke-linejoin:round;stroke-miterlimit:10;} .st33{fill:#FF6196;stroke:#45413C;stroke-linecap:round;stroke-linejoin:round;stroke-miterlimit:10;} .st34{fill:#FFE5EE;} .st35{fill:#00B8F0;} .st36{fill:#4ACFFF;} .st37{fill:#BF8256;} .st38{fill:#DEA47A;} .st39{fill:#915E3A;} .st40{fill:#FFF5E3;} .st41{fill:#F0F0F0;} .st42{fill:#8CA4B8;} .st43{fill:#627B8C;} .st44{fill:#C0DCEB;} .st45{fill:#FFF48C;} .st46{fill:#FFE500;stroke:#45413C;stroke-linecap:round;stroke-linejoin:round;stroke-miterlimit:10;} .st47{fill:#FFAA54;} .st48{fill:#6DD627;stroke:#45413C;stroke-linecap:round;stroke-linejoin:round;stroke-miterlimit:10;} .st49{fill:#FF8A14;} .st50{fill:#FFCC99;} .st51{fill:#EBCB00;stroke:#45413C;stroke-linecap:round;stroke-linejoin:round;stroke-miterlimit:10;} .st52{fill:#00F5BC;stroke:#45413C;stroke-linecap:round;stroke-linejoin:round;stroke-miterlimit:10;} .st53{fill:#BF8DF2;stroke:#45413C;stroke-linecap:round;stroke-linejoin:round;stroke-miterlimit:10;} .st54{fill:#FF8A14;stroke:#45413C;stroke-linecap:round;stroke-linejoin:round;stroke-miterlimit:10;} .st55{fill:#4AEFF7;stroke:#45413C;stroke-linecap:round;stroke-linejoin:round;stroke-miterlimit:10;} .st56{fill:#FFF48C;stroke:#45413C;stroke-linecap:round;stroke-linejoin:round;stroke-miterlimit:10;} .st57{fill:#FF6242;} .st58{fill:#E04122;} .st59{fill:#46B000;} .st60{fill:none;stroke:#45413C;stroke-miterlimit:10;} .st61{fill:#00B8F0;stroke:#45413C;stroke-linecap:round;stroke-linejoin:round;stroke-miterlimit:10;} .st62{fill:#FF866E;} .st63{fill:#9F5AE5;stroke:#45413C;stroke-linecap:round;stroke-linejoin:round;stroke-miterlimit:10;} .st64{fill:#E4FFD1;} .st65{fill:#FFFEF2;} .st66{fill:#B89558;} .st67{fill:none;stroke:#915E3A;stroke-linecap:round;stroke-linejoin:round;stroke-miterlimit:10;} .st68{fill:#915E3A;stroke:#45413C;stroke-linecap:round;stroke-linejoin:round;stroke-miterlimit:10;} .st69{fill:#BF8DF2;} .st70{fill:#9F5AE5;} .st71{fill:#DABFF5;} .st72{fill:none;stroke:#45413C;stroke-linejoin:round;stroke-miterlimit:10;} .st73{fill:#656769;} .st74{fill:#87898C;} .st75{fill:#E0E0E0;} .st76{fill:#BDBEC0;} .st77{fill:#656769;stroke:#45413C;stroke-linecap:round;stroke-linejoin:round;stroke-miterlimit:10;} .st78{fill:#45413C;stroke:#45413C;stroke-linecap:round;stroke-linejoin:round;stroke-miterlimit:10;} .st79{fill:#FFA694;} .st80{fill:#E04122;stroke:#45413C;stroke-linecap:round;stroke-linejoin:round;stroke-miterlimit:10;} .st81{fill:#E0E0E0;stroke:#45413C;stroke-linecap:round;stroke-linejoin:round;stroke-miterlimit:10;} .st82{fill:#F0F0F0;stroke:#45413C;stroke-linecap:round;stroke-linejoin:round;stroke-miterlimit:10;} .st83{fill:#DAEDF7;} .st84{fill:#BDBEC0;stroke:#45413C;stroke-linecap:round;stroke-linejoin:round;stroke-miterlimit:10;} .st85{fill:#87898C;stroke:#45413C;stroke-linecap:round;stroke-linejoin:round;stroke-miterlimit:10;} .st86{fill:#00DFEB;} .st87{fill:#4AEFF7;} .st88{fill:#DAEDF7;stroke:#45413C;stroke-linecap:round;stroke-linejoin:round;stroke-miterlimit:10;} .st89{fill:#FFDA8F;} .st90{fill:#FFBE3D;} .st91{fill:#FFE9BD;} .st92{fill:#DEA47A;stroke:#45413C;stroke-linecap:round;stroke-linejoin:round;stroke-miterlimit:10;} .st93{fill:#45413C;} .st94{fill:#F0C2A1;} .st95{fill:none;stroke:#45413C;stroke-width:1.0064;stroke-linecap:round;stroke-linejoin:round;stroke-miterlimit:10;} .st96{fill:#525252;} .st97{fill:#EB6D00;stroke:#45413C;stroke-linecap:round;stroke-linejoin:round;stroke-miterlimit:10;} .st98{fill:#EB6D00;} .st99{fill:#E5FEFF;} .st100{fill:#FF866E;stroke:#45413C;stroke-linecap:round;stroke-linejoin:round;stroke-miterlimit:10;} .st101{fill:#627B8C;stroke:#45413C;stroke-linecap:round;stroke-linejoin:round;stroke-miterlimit:10;} .st102{fill:#FFFCE5;stroke:#45413C;stroke-linecap:round;stroke-linejoin:round;stroke-miterlimit:10;} .st103{fill:#A6FBFF;} .st104{fill:#D9FDFF;} .st105{fill:#FFFACF;stroke:#45413C;stroke-linecap:round;stroke-linejoin:round;stroke-miterlimit:10;} .st106{fill:#B8ECFF;} .st107{fill:#FFCABF;} .st108{fill:#E5FFF9;} .st109{fill:#C8FFA1;stroke:#45413C;stroke-linecap:round;stroke-linejoin:round;stroke-miterlimit:10;} .st110{fill:#4CF4FC;} .st111{fill:#F0D5A8;stroke:#45413C;stroke-linecap:round;stroke-linejoin:round;stroke-miterlimit:10;} .st112{fill:#FFDCD1;stroke:#45413C;stroke-linecap:round;stroke-linejoin:round;stroke-miterlimit:10;} .st113{fill:#80DDFF;} .st114{fill:#46B000;stroke:#45413C;stroke-linecap:round;stroke-linejoin:round;stroke-miterlimit:10;} .st115{fill:#4ACFFF;stroke:#45413C;stroke-linecap:round;stroke-linejoin:round;stroke-miterlimit:10;} .st116{fill:#ADC4D9;} .st117{fill:#BDBEC0;stroke:#45413C;stroke-width:1.0064;stroke-linecap:round;stroke-linejoin:round;stroke-miterlimit:10;} .st118{fill:#FFFCE5;} .st119{fill:#947746;} .st120{fill:#525252;stroke:#45413C;stroke-linecap:round;stroke-linejoin:round;stroke-miterlimit:10;}</style><symbol id="New_Symbol_14" viewBox="-6.5 -6.5 13 13"><path class="st0" d="M0-6c2.2 0 4.1 1.5 4.7 3.5C6.3-2.5 6.4 0 5 0v1c0 2.8-2.2 5-5 5s-5-2.2-5-5V0c-1.4 0-1.3-2.5.2-2.5C-4.1-4.5-2.2-6 0-6z" fill="#FFD4C3" stroke="#504B46" stroke-linecap="round" stroke-linejoin="round" stroke-miterlimit="10"/><circle class="st1" cx="-1.6" cy="-0.1" r="0.1" fill="#FFC258"/><path class="st2" d="M-1.6.5c-.3 0-.6-.3-.6-.6s.2-.7.6-.7c.3 0 .6.3.6.7s-.3.6-.6.6z" fill="#4F4B45"/><circle class="st1" cx="1.6" cy="-0.1" r="0.1" fill="#FFC258"/><path class="st2" d="M1.6.5C1.3.5 1 .2 1-.1s.3-.6.6-.6.6.3.6.6-.2.6-.6.6z" fill="#4F4B45"/><circle class="st3" cx="-3" cy="-1.5" r="0.5" fill="#FABFA5"/><circle class="st3" cx="3" cy="-1.5" r="0.5" fill="#FABFA5"/><path class="st4" d="M-1.2-3c.8-.5 1.7-.5 2.5 0" fill="none" stroke="#504B46" stroke-linecap="round" stroke-linejoin="round" stroke-miterlimit="10"/></symbol><g id="Icons"><g id="XMLID_1068_"><ellipse id="XMLID_1459_" class="st5" cx="24" cy="43.4" rx="13.5" ry="1.5" fill="#45413C" opacity="0.15"/><g id="XMLID_1374_"><g id="XMLID_1403_"><path id="XMLID_1407_" class="st25" d="M44.9 20.8c1 0 1.8.8 1.7 1.8-1 11.6-10.7 20.8-22.6 20.8S2.4 34.2 1.5 22.6c-.1-1 .7-1.8 1.7-1.8h41.7z" fill="#9CEB60"/><path id="XMLID_1406_" class="st26" d="M24 41.4c-8.4 0-15.7-4.1-20.2-10.5C7.5 38.3 15.2 43.4 24 43.4s16.5-5.1 20.2-12.5C39.7 37.2 32.4 41.4 24 41.4z" fill="#6DD627"/><path id="XMLID_1405_" class="st27" d="M3.1 25h41.7c.5 0 .9.2 1.2.6.2-1 .4-1.9.4-2.9.1-1-.7-1.8-1.7-1.8H3.1c-1 0-1.8.8-1.7 1.8.1 1 .2 2 .4 2.9.4-.4.8-.6 1.3-.6z" fill="#C8FFA1"/><path id="XMLID_1404_" class="st10" d="M44.9 20.8c1 0 1.8.8 1.7 1.8-1 11.6-10.7 20.8-22.6 20.8S2.4 34.2 1.5 22.6c-.1-1 .7-1.8 1.7-1.8h41.7z" fill="none" stroke="#45413C" stroke-linecap="round" stroke-linejoin="round" stroke-miterlimit="10"/></g><g id="XMLID_1397_"><path id="XMLID_1401_" class="st28" d="M43.7 20.8c0 10.9-8.8 19.7-19.7 19.7S4.3 31.6 4.3 20.8h39.4z" fill="#FFFACF"/><path id="XMLID_1400_" class="st17" d="M43.2 25c.3-1.3.5-2.7.5-4.2H4.3c0 1.4.2 2.8.5 4.2h38.4z" fill="#FFF"/><path id="XMLID_1399_" class="st10" d="M43.7 20.8c0 10.9-8.8 19.7-19.7 19.7S4.3 31.6 4.3 20.8h39.4z" fill="none" stroke="#45413C" stroke-linecap="round" stroke-linejoin="round" stroke-miterlimit="10"/></g><g id="XMLID_1393_"><path id="XMLID_1396_" class="st29" d="M41.2 20.8C41.2 30.3 33.5 38 24 38S6.8 30.3 6.8 20.8h34.4z" fill="#FF87AF"/><path id="XMLID_1395_" class="st30" d="M40.6 25c.3-1.3.5-2.7.5-4.2H6.8c0 1.4.2 2.8.5 4.2h33.3z" fill="#FFB0CA"/><path id="XMLID_1394_" class="st10" d="M41.2 20.8C41.2 30.3 33.5 38 24 38S6.8 30.3 6.8 20.8h34.4z" fill="none" stroke="#45413C" stroke-linecap="round" stroke-linejoin="round" stroke-miterlimit="10"/></g><ellipse id="XMLID_1392_" class="st31" cx="18" cy="27.5" rx="1.1" ry="0.7" fill="#FF6196"/><g id="XMLID_1389_"><path id="XMLID_1391_" class="st32" d="M26.7 29.3c.5 0 .8.4.7.9-.4 1.5-1.8 2.6-3.4 2.6-1.6 0-3-1.1-3.4-2.6-.1-.4.2-.9.7-.9h5.4z" fill="#FCD" stroke="#45413C" stroke-linecap="round" stroke-linejoin="round" stroke-miterlimit="10"/><path id="XMLID_1390_" class="st33" d="M24 32.8c1.1 0 2.1-.5 2.8-1.4-.7-.5-1.7-.7-2.8-.7-1.1 0-2.1.3-2.8.7.7.8 1.7 1.4 2.8 1.4z" fill="#FF6196" stroke="#45413C" stroke-linecap="round" stroke-linejoin="round" stroke-miterlimit="10"/></g><path id="XMLID_1377_" class="st10" d="M17.6 26.1c0-.6.5-1.1 1.1-1.1.6 0 1.1.5 1.1 1.1" fill="none" stroke="#45413C" stroke-linecap="round" stroke-linejoin="round" stroke-miterlimit="10"/><ellipse id="XMLID_1376_" class="st31" cx="30" cy="27.5" rx="1.1" ry="0.7" fill="#FF6196"/><path id="XMLID_1375_" class="st10" d="M30.4 26.1c0-.6-.5-1.1-1.1-1.1-.6 0-1.1.5-1.1 1.1" fill="none" stroke="#45413C" stroke-linecap="round" stroke-linejoin="round" stroke-miterlimit="10"/></g><g id="XMLID_1321_"><g id="XMLID_1350_"><path id="XMLID_1354_" class="st17" d="M25.3 4.8c0-.9-.6-1.7-1.3-1.7-.7 0-1.3.8-1.3 1.7 0 .7.7 2.7 1.1 3.8.1.3.4.3.5 0 .3-1.1 1-3.1 1-3.8z" fill="#FFF"/><path id="XMLID_1353_" class="st34" d="M24 4.2c-.6 0-1 .5-1.2 1.1 0-.2-.1-.4-.1-.6 0-.9.6-1.7 1.3-1.7.7 0 1.3.8 1.3 1.7 0 .1 0 .3-.1.6-.2-.6-.6-1.1-1.2-1.1z" fill="#FFE5EE"/><path id="XMLID_1352_" class="st10" d="M25.3 4.8c0-.9-.6-1.7-1.3-1.7-.7 0-1.3.8-1.3 1.7 0 .7.7 2.7 1.1 3.8.1.3.4.3.5 0 .3-1.1 1-3.1 1-3.8z" fill="none" stroke="#45413C" stroke-linecap="round" stroke-linejoin="round" stroke-miterlimit="10"/></g><g id="XMLID_1346_"><path id="XMLID_1349_" class="st17" d="M33.5 7c.4-.9.1-1.8-.6-2.1-.7-.3-1.5.2-1.9 1.1-.3.6-.4 2.8-.4 3.9 0 .3.2.4.4.2.8-.9 2.2-2.5 2.5-3.1z" fill="#FFF"/><path id="XMLID_1348_" class="st34" d="M32.5 6c-.5-.2-1.1 0-1.6.6.1-.3.1-.5.2-.6.4-.9 1.2-1.3 1.9-1.1s.9 1.2.6 2.1c-.1.1-.2.3-.3.5 0-.7-.3-1.3-.8-1.5z" fill="#FFE5EE"/><path id="XMLID_1347_" class="st10" d="M33.5 7c.4-.9.1-1.8-.6-2.1-.7-.3-1.5.2-1.9 1.1-.3.6-.4 2.8-.4 3.9 0 .3.2.4.4.2.8-.9 2.2-2.5 2.5-3.1z" fill="none" stroke="#45413C" stroke-linecap="round" stroke-linejoin="round" stroke-miterlimit="10"/></g><g id="XMLID_1342_"><path id="XMLID_1345_" class="st17" d="M40.2 12.1c.7-.7.8-1.6.3-2.1s-1.5-.4-2.1.3c-.5.5-1.4 2.4-1.9 3.4-.1.3.1.5.3.3 1-.4 2.9-1.4 3.4-1.9z" fill="#FFF"/><path id="XMLID_1344_" class="st34" d="M39.7 10.8c-.4-.4-1.1-.4-1.7-.1.1-.2.2-.4.3-.5.7-.7 1.6-.8 2.1-.3s.4 1.5-.3 2.1c-.1.1-.3.2-.5.3.5-.4.5-1.1.1-1.5z" fill="#FFE5EE"/><path id="XMLID_1343_" class="st10" d="M40.2 12.1c.7-.7.8-1.6.3-2.1s-1.5-.4-2.1.3c-.5.5-1.4 2.4-1.9 3.4-.1.3.1.5.3.3 1-.4 2.9-1.4 3.4-1.9z" fill="none" stroke="#45413C" stroke-linecap="round" stroke-linejoin="round" stroke-miterlimit="10"/></g><g id="XMLID_1326_"><path id="XMLID_1341_" class="st17" d="M14.5 7c-.4-.9-.1-1.8.6-2.1s1.5.2 1.9 1.1c.3.6.4 2.8.4 3.9 0 .3-.2.4-.4.2-.8-.9-2.2-2.5-2.5-3.1z" fill="#FFF"/><path id="XMLID_1339_" class="st34" d="M15.5 6c.5-.2 1.1 0 1.6.6-.1-.3-.1-.5-.2-.6-.4-.9-1.2-1.3-1.9-1.1-.7.3-.9 1.2-.6 2.1.1.1.2.3.3.5 0-.7.3-1.3.8-1.5z" fill="#FFE5EE"/><path id="XMLID_1338_" class="st10" d="M14.5 7c-.4-.9-.1-1.8.6-2.1s1.5.2 1.9 1.1c.3.6.4 2.8.4 3.9 0 .3-.2.4-.4.2-.8-.9-2.2-2.5-2.5-3.1z" fill="none" stroke="#45413C" stroke-linecap="round" stroke-linejoin="round" stroke-miterlimit="10"/></g><g id="XMLID_1322_"><path id="XMLID_1325_" class="st17" d="M7.8 12.1c-.6-.6-.8-1.6-.3-2.1.6-.5 1.5-.4 2.2.3.5.5 1.4 2.4 1.9 3.4.1.3-.1.5-.3.3-1.1-.4-3-1.4-3.5-1.9z" fill="#FFF"/><path id="XMLID_1324_" class="st34" d="M8.3 10.8c.4-.4 1.1-.4 1.7-.1-.1-.2-.2-.4-.3-.5-.7-.6-1.6-.7-2.2-.2-.5.5-.4 1.5.3 2.1.1.1.3.2.5.3-.4-.5-.4-1.2 0-1.6z" fill="#FFE5EE"/><path id="XMLID_1323_" class="st10" d="M7.8 12.1c-.6-.6-.8-1.6-.3-2.1.6-.5 1.5-.4 2.2.3.5.5 1.4 2.4 1.9 3.4.1.3-.1.5-.3.3-1.1-.4-3-1.4-3.5-1.9z" fill="none" stroke="#45413C" stroke-linecap="round" stroke-linejoin="round" stroke-miterlimit="10"/></g></g></g></g></svg>
