<svg
  xmlns="http://www.w3.org/2000/svg"
  width="41.417"
  height="37.039"
  viewBox="0 0 41.417 37.039"
>
  <path
    d="M38.666,6.429H37.047l0-2.9A3.529,3.529,0,0,0,33.525.007L21.235,0h0a2.6,2.6,0,0,0-1.852.767L1.032,19.116a3.525,3.525,0,0,0,0,4.985L12.94,36.008a3.529,3.529,0,0,0,4.985,0L29.477,24.456a.809.809,0,0,0-1.144-1.144L16.781,34.864a1.909,1.909,0,0,1-2.7,0L2.176,22.957a1.907,1.907,0,0,1,0-2.7L20.525,1.911a1,1,0,0,1,.708-.294h0l12.29.007a1.909,1.909,0,0,1,1.906,1.908l0,6.778H31.783a1.129,1.129,0,0,1-.8-.335,2.986,2.986,0,1,0-1.766.183,2.755,2.755,0,0,0,2.569,1.77h3.643l0,3.878a.993.993,0,0,1-.294.708l-2.221,2.221a.809.809,0,0,0,1.144,1.144l2.221-2.221a2.6,2.6,0,0,0,.767-1.851l0-3.879h1.623a2.75,2.75,0,0,0,0-5.5Zm-9.828-.155a1.359,1.359,0,0,1,2.14.276,2.761,2.761,0,0,0-1.841,1.878,1.36,1.36,0,0,1-.3-2.154Zm9.828,4.038H37.045V8.047h1.62a1.132,1.132,0,1,1,0,2.265Zm0,0"
    fill="#2446f5"
  />
  <path
    d="M161.075,214.387a.808.808,0,0,0,1,.562l8.3-2.311a.809.809,0,1,0-.434-1.558l-8.3,2.311A.809.809,0,0,0,161.075,214.387Zm0,0"
    transform="translate(-148.018 -193.977)"
    fill="#2446f5"
  />
  <path
    d="M198.663,257.575a2.385,2.385,0,1,0,3.373,0A2.369,2.369,0,0,0,198.663,257.575Zm2.229,2.229a.767.767,0,1,1,0-1.085A.768.768,0,0,1,200.892,259.8Zm0,0"
    transform="translate(-181.951 -236.099)"
    fill="#2446f5"
  />
  <path
    d="M207,159.7a2.388,2.388,0,1,0-1.687.7A2.388,2.388,0,0,0,207,159.7Zm-2.229-2.229a.767.767,0,1,1,0,1.085A.762.762,0,0,1,204.774,157.468Zm0,0"
    transform="translate(-186.517 -143.036)"
    fill="#2446f5"
  />
  <path
    d="M57.652,80.8a.809.809,0,0,0-1.144,0l-2.3,2.3a.809.809,0,0,0,0,1.144L64.467,94.5a.809.809,0,0,0,1.144,0L80.948,79.166a.809.809,0,0,0,0-1.144L70.69,67.764a.809.809,0,0,0-1.144,0l-8.462,8.462a.809.809,0,0,0,1.144,1.144l7.89-7.89,9.114,9.114L65.039,92.787l-9.114-9.114,1.727-1.727A.809.809,0,0,0,57.652,80.8Zm0,0"
    transform="translate(-49.607 -62.065)"
    fill="#01af44"
  />
  <path
    d="M376.43,256.973a.809.809,0,1,0,.572.237A.815.815,0,0,0,376.43,256.973Zm0,0"
    transform="translate(-345.237 -236.186)"
    fill="#2446f5"
  />
  <path
    d="M112.052,201.8a.808.808,0,1,0-.572.237A.81.81,0,0,0,112.052,201.8Zm0,0"
    transform="translate(-101.719 -184.209)"
    fill="#00cc4f"
  />
</svg>
