<svg width="32pt" height="32pt" viewBox="0 0 32 32" version="1.1" id="CrossBoldIcon">
  <g>
    <path d="M 29.761719 6.71875 L 6.71875 29.757812 C 5.484375 30.996094 3.476562 30.996094 2.238281 29.757812 C 1.003906 28.523438 1.003906 26.515625 2.238281 25.28125 L 25.28125 2.238281 C 26.515625 1.003906 28.523438 1.003906 29.761719 2.238281 C 30.996094 3.476562 30.996094 5.484375 29.761719 6.71875 Z M 29.761719 6.71875 " ></path>
    <path d="M 25.28125 29.761719 L 2.238281 6.71875 C 1.003906 5.484375 1.003906 3.476562 2.238281 2.238281 C 3.476562 1.003906 5.484375 1.003906 6.71875 2.238281 L 29.761719 25.28125 C 30.996094 26.515625 30.996094 28.523438 29.761719 29.761719 C 28.523438 30.996094 26.515625 30.996094 25.28125 29.761719 Z M 25.28125 29.761719 " ></path>
  </g>
</svg>
