<svg version="1.1" xmlns="http://www.w3.org/2000/svg" width="20" height="20" viewBox="0 0 20 20">
<path fill="#000000" d="M3.5 14h13c0.827 0 1.5-0.673 1.5-1.5v-8c0-0.827-0.673-1.5-1.5-1.5h-13c-0.827 0-1.5 0.673-1.5 1.5v8c0 0.827 0.673 1.5 1.5 1.5zM3 4.5c0-0.276 0.224-0.5 0.5-0.5h13c0.276 0 0.5 0.224 0.5 0.5v8c0 0.276-0.224 0.5-0.5 0.5h-13c-0.276 0-0.5-0.224-0.5-0.5v-8z"></path>
<path fill="#000000" d="M19.5 15h-19c-0.276 0-0.5 0.224-0.5 0.5v1c0 0.827 0.673 1.5 1.5 1.5h17c0.827 0 1.5-0.673 1.5-1.5v-1c0-0.276-0.224-0.5-0.5-0.5zM18.5 17h-17c-0.276 0-0.5-0.224-0.5-0.5v-0.5h18v0.5c0 0.276-0.224 0.5-0.5 0.5z"></path>
</svg>
