<svg xmlns="http://www.w3.org/2000/svg" viewBox="0 0 32 32"><path fill="#ffdaa7" d="M21.39823,10.5H19.93342v-3H22.0649a1,1,0,0,1,.832,1.5547l-.66667,1A1,1,0,0,1,21.39823,10.5Z"/><path fill="#2c2b2d" d="M21.39844,11H19.93359a.49972.49972,0,0,1-.5-.5v-3a.49972.49972,0,0,1,.5-.5h2.13086a1.49949,1.49949,0,0,1,1.248,2.332l-.666,1A1.4967,1.4967,0,0,1,21.39844,11Zm-.96485-1h.96485a.49764.49764,0,0,0,.416-.22266l.666-1A.49958.49958,0,0,0,22.06445,8H20.43359Z"/><path fill="#ffdaa7" d="M10.60177,10.5h1.46481v-3H9.9351a1,1,0,0,0-.83205,1.5547l.66667,1A1,1,0,0,0,10.60177,10.5Z"/><path fill="#2c2b2d" d="M12.06641,11H10.60156a1.4967,1.4967,0,0,1-1.248-.668l-.666-1A1.4995,1.4995,0,0,1,9.93555,7h2.13086a.49972.49972,0,0,1,.5.5v3A.49972.49972,0,0,1,12.06641,11ZM9.93555,8a.49958.49958,0,0,0-.416.77734l.666,1a.49764.49764,0,0,0,.416.22266h.96485V8Z"/><path fill="#3f6db4" d="M18.5,14.5h-5a5.07583,5.07583,0,0,1-3.478,2.943l-3.16446.76383A7,7,0,0,0,1.5,25.01139V29.5a2,2,0,0,0,2,2h25a2,2,0,0,0,2-2V25.01139a7,7,0,0,0-5.35753-6.80458L21.978,17.443A5.07583,5.07583,0,0,1,18.5,14.5Z"/><path fill="#e0e0e2" d="M22.43,17.04a1.00737,1.00737,0,0,1-.09.38,5.85446,5.85446,0,0,1-.3.55A7.04539,7.04539,0,0,1,16,21.83a7.04539,7.04539,0,0,1-6.04-3.86A5.85446,5.85446,0,0,1,9.66,17.42a1.24146,1.24146,0,0,1-.09-.38l.34-.08a4.59554,4.59554,0,0,0,3.13-2.66.50534.50534,0,0,1,.46-.3h5a.50534.50534,0,0,1,.46.3,4.59554,4.59554,0,0,0,3.13,2.66Z"/><path fill="#ffdaa7" d="M20.71,17.35a5.51069,5.51069,0,0,1-9.42,0,.46917.46917,0,0,1-.05-.38,3.25119,3.25119,0,0,0,.59-.37,5.001,5.001,0,0,0,1.67-2.1h5a5.001,5.001,0,0,0,1.67,2.1,3.25119,3.25119,0,0,0,.59.37A.46917.46917,0,0,1,20.71,17.35Z"/><path fill="#2c2b2d" d="M25.26,17.72l-2.83-.68-.34-.08a4.59554,4.59554,0,0,1-3.13-2.66.50534.50534,0,0,0-.46-.3h-5a.50534.50534,0,0,0-.46.3,4.59554,4.59554,0,0,1-3.13,2.66l-.34.08-2.83.68A7.48691,7.48691,0,0,0,1,25.01V29.5A2.50091,2.50091,0,0,0,3.5,32h25A2.50091,2.50091,0,0,0,31,29.5V25.01A7.48691,7.48691,0,0,0,25.26,17.72ZM30,29.5A1.498,1.498,0,0,1,28.5,31H3.5A1.498,1.498,0,0,1,2,29.5V25.01a6.49393,6.49393,0,0,1,4.97-6.32L9.96,17.97l.18-.04A5.60736,5.60736,0,0,0,13.82,15h4.36a5.60736,5.60736,0,0,0,3.68,2.93l.18.04,2.99005.72A6.49393,6.49393,0,0,1,30,25.01Z"/><path fill="#e0e0e2" d="M10.5,6.57651V5.99958a5.5,5.5,0,0,1,5.5-5.5h0a5.5,5.5,0,0,1,5.5,5.5v.57693"/><path fill="#2c2b2d" d="M21.5 7.07666a.49971.49971 0 0 1-.5-.5V5.99951a5 5 0 0 0-10 0v.57715a.5.5 0 0 1-1 0V5.99951a6 6 0 0 1 12 0v.57715A.49971.49971 0 0 1 21.5 7.07666zM16 22a7.53543 7.53543 0 0 1-6.76074-4.26465.50013.50013 0 1 1 .90234-.43164 6.49075 6.49075 0 0 0 11.7168 0 .50013.50013 0 0 1 .90234.43164A7.53543 7.53543 0 0 1 16 22z"/><path fill="#2c2b2d" d="M20.71,17.35a5.51069,5.51069,0,0,1-9.42,0,.46917.46917,0,0,1-.05-.38.56124.56124,0,0,1,.22-.31.49264.49264,0,0,1,.37-.06.46726.46726,0,0,1,.32.23,4.50024,4.50024,0,0,0,7.7,0,.46726.46726,0,0,1,.32-.23.49264.49264,0,0,1,.37.06.56124.56124,0,0,1,.22.31A.46917.46917,0,0,1,20.71,17.35Z"/><circle cx="16" cy="23.5" r=".5" fill="#2c2b2d"/><circle cx="16" cy="25.5" r=".5" fill="#2c2b2d"/><circle cx="16" cy="27.5" r=".5" fill="#2c2b2d"/><circle cx="16" cy="29.5" r=".5" fill="#2c2b2d"/><path fill="#2c2b2d" d="M25.5 32a.49971.49971 0 0 1-.5-.5v-6a.5.5 0 0 1 1 0v6A.49971.49971 0 0 1 25.5 32zM6.5 32a.49971.49971 0 0 1-.5-.5v-6a.5.5 0 0 1 1 0v6A.49971.49971 0 0 1 6.5 32z"/><path fill="#ffdaa7" d="M18.26783,14.98811l-1.15845.77228a2,2,0,0,1-2.21876,0l-1.15845-.77228a6,6,0,0,1-2.61156-4.14382L10.5,6.5a30.67639,30.67639,0,0,1,11,0l-.62061,4.34429A6,6,0,0,1,18.26783,14.98811Z"/><path fill="#58565d" d="M21,9.45924l-2.7498,3.24545a.29148.29148,0,0,1-.46491-.02675l-.55307-.82961A.78224.78224,0,0,0,16.58136,11.5H15.41864a.78222.78222,0,0,0-.65084.34832l-.55588.83381a.29148.29148,0,0,1-.46253.02951l-2.82664-3.2524L10.92,9.46l.2,1.38a6.01311,6.01311,0,0,0,2.61,4.15l1.16.77a1.99408,1.99408,0,0,0,2.22,0l1.16-.77a6.01311,6.01311,0,0,0,2.61-4.15l.2-1.37Z"/><path fill="#2c2b2d" d="M16,16.59717a2.49664,2.49664,0,0,1-1.38672-.4209l-1.1582-.772A6.5044,6.5044,0,0,1,10.626,10.915l-.6211-4.34424a.49988.49988,0,0,1,.419-.56494,31.01581,31.01581,0,0,1,11.15234,0,.49988.49988,0,0,1,.41895.56494L21.374,10.915a6.5044,6.5044,0,0,1-2.8291,4.48926h0l-1.1582.772A2.49664,2.49664,0,0,1,16,16.59717ZM11.06543,6.92041l.55078,3.853a5.50312,5.50312,0,0,0,2.39356,3.79883l1.1582.772a1.49619,1.49619,0,0,0,1.66406,0l1.1582-.772a5.50312,5.50312,0,0,0,2.39356-3.79883l.55078-3.853A29.37179,29.37179,0,0,0,11.06543,6.92041Zm7.20215,8.06787h0Z"/><path fill="#2c2b2d" d="M13.96875,13.312a.786.786,0,0,1-.59668-.272L10.5459,9.7876a.49976.49976,0,1,1,.7539-.65625l2.64747,3.0459.40429-.60645A1.28192,1.28192,0,0,1,15.419,11h1.1621a1.2804,1.2804,0,0,1,1.06641.56982l.40039.6001,2.57031-3.03369a.50029.50029,0,0,1,.76368.64648l-2.75,3.24512a.82276.82276,0,0,1-.64942.27881.78474.78474,0,0,1-.61328-.35205l-.55273-.8291A.284.284,0,0,0,16.58105,12H15.419a.28549.28549,0,0,0-.23633.12646l-.55469.833a.7844.7844,0,0,1-.60645.35059C14.00391,13.31152,13.98633,13.312,13.96875,13.312Z"/></svg>
