<svg xmlns="http://www.w3.org/2000/svg" version="1.1" x="0px" y="0px" viewBox="0 0 48 48" xml space="preserve" id="SnowballIcon"><style type="text/css"></style><symbol id="New_Symbol_14" viewBox="-6.5 -6.5 13 13"><path class="st0" d="M0-6c2.2 0 4.1 1.5 4.7 3.5C6.3-2.5 6.4 0 5 0v1c0 2.8-2.2 5-5 5s-5-2.2-5-5V0c-1.4 0-1.3-2.5.2-2.5C-4.1-4.5-2.2-6 0-6z" fill="#FFD4C3" stroke="#504B46" stroke-linecap="round" stroke-linejoin="round" stroke-miterlimit="10"></path><circle class="st1" cx="-1.6" cy="-0.1" r="0.1" fill="#FFC258"></circle><path class="st2" d="M-1.6.5c-.3 0-.6-.3-.6-.6s.2-.7.6-.7c.3 0 .6.3.6.7s-.3.6-.6.6z" fill="#4F4B45"></path><circle class="st1" cx="1.6" cy="-0.1" r="0.1" fill="#FFC258"></circle><path class="st2" d="M1.6.5C1.3.5 1 .2 1-.1s.3-.6.6-.6.6.3.6.6-.2.6-.6.6z" fill="#4F4B45"></path><circle class="st3" cx="-3" cy="-1.5" r="0.5" fill="#FABFA5"></circle><circle class="st3" cx="3" cy="-1.5" r="0.5" fill="#FABFA5"></circle><path class="st4" d="M-1.2-3c.8-.5 1.7-.5 2.5 0" fill="none" stroke="#504B46" stroke-linecap="round" stroke-linejoin="round" stroke-miterlimit="10"></path></symbol><g id="Icons"><g id="XMLID_1428_"><ellipse id="XMLID_986_" class="st5" cx="22.8" cy="42.8" rx="14" ry="1.5" fill="#45413C" opacity="0.15"></ellipse><g id="XMLID_741_"><g id="XMLID_963_"><g id="XMLID_968_"><circle id="XMLID_973_" class="st69" cx="22.8" cy="22.3" r="15.3" fill="#BF8DF2"></circle><path id="XMLID_970_" class="st70" d="M22.8 7C14.4 7 7.6 13.8 7.6 22.3c0 8.4 6.8 15.3 15.3 15.3s15.3-6.8 15.3-15.3C38.1 13.8 31.3 7 22.8 7zm0 25c-6.8 0-12.3-5.5-12.3-12.3 0-6.8 5.5-12.3 12.3-12.3s12.3 5.5 12.3 12.3c.1 6.8-5.5 12.3-12.3 12.3z" fill="#9F5AE5"></path><circle id="XMLID_969_" class="st10" cx="22.8" cy="22.3" r="15.3" fill="none" stroke="#45413C" stroke-linecap="round" stroke-linejoin="round" stroke-miterlimit="10"></circle></g><circle id="XMLID_966_" class="st71" cx="28.8" cy="17.1" r="3.7" fill="#DABFF5"></circle><circle id="XMLID_965_" class="st71" cx="21.7" cy="18.9" r="1.1" fill="#DABFF5"></circle><circle id="XMLID_964_" class="st71" cx="22.5" cy="13" r="1.9" fill="#DABFF5"></circle></g><g id="XMLID_959_"><path id="XMLID_962_" class="st37" d="M35.3 38.7c.3.7.1 1.5-.6 1.9-1.8 1.1-5.7 2.9-11.9 2.9s-10.2-1.8-11.9-2.9c-.7-.4-.9-1.2-.6-1.9l2.4-4.8s4.5 2.2 10.1 2.2 10.1-2.2 10.1-2.2l2.4 4.8z" fill="#BF8256"></path><path id="XMLID_961_" class="st39" d="M22.8 38.8c4.8 0 9-1.2 11.5-2.1l-1.4-2.9S28.4 36 22.8 36s-10.1-2.2-10.1-2.2l-1.4 2.9c2.6.9 6.8 2.1 11.5 2.1z" fill="#915E3A"></path><path id="XMLID_960_" class="st10" d="M35.3 38.7c.3.7.1 1.5-.6 1.9-1.8 1.1-5.7 2.9-11.9 2.9s-10.2-1.8-11.9-2.9c-.7-.4-.9-1.2-.6-1.9l2.4-4.8s4.5 2.2 10.1 2.2 10.1-2.2 10.1-2.2l2.4 4.8z" fill="none" stroke="#45413C" stroke-linecap="round" stroke-linejoin="round" stroke-miterlimit="10"></path></g><path id="XMLID_958_" class="st15" d="M11.9 14.6c.2-.7.7-1.2 1.3-1.3l2.7-.6c.1 0 .2-.1.2-.2s-.1-.2-.2-.2l-2.7-.6c-.7-.2-1.2-.7-1.3-1.3l-.6-2.7c0-.1-.1-.2-.2-.2s-.2.1-.2.2l-.6 2.7c-.2.7-.7 1.2-1.3 1.3l-2.7.6c-.1 0-.2.1-.2.2s.1.2.2.2l2.7.6c.7.2 1.2.7 1.3 1.3l.6 2.7c0 .1.1.2.2.2s.2-.1.2-.2l.6-2.7z" fill="#FFF" stroke="#45413C" stroke-linecap="round" stroke-linejoin="round" stroke-miterlimit="10"></path><path id="XMLID_957_" class="st15" d="M35.5 7.7l2.1-.7c.1 0 .1-.1.1-.2s-.1-.2-.1-.2L35.9 6c-.2-.1-.4-.3-.5-.5l-.6-1.7c0-.1-.1-.1-.2-.1s-.2.1-.2.1l-.6 1.7c-.1.2-.3.4-.5.5l-1.7.6c-.1 0-.1.1-.1.2s.1.2.1.2l1.7.6c.2.1.4.3.5.5l.6 1.7c0 .1.1.1.2.1s.2-.1.2-.1l.7-2.1z" fill="#FFF" stroke="#45413C" stroke-linecap="round" stroke-linejoin="round" stroke-miterlimit="10"></path><path id="XMLID_956_" class="st15" d="M45.2 29.4l2.1-.7c.1 0 .1-.1.1-.2s-.1-.2-.1-.2l-1.7-.6c-.2-.1-.4-.3-.5-.5l-.6-1.7c0-.1-.1-.1-.2-.1s-.2.1-.2.1l-.6 1.7c-.1.2-.3.4-.5.5l-1.7.6c-.1 0-.1.1-.1.2s.1.2.1.2l1.7.6c.2.1.4.3.5.5l.6 1.7c0 .1.1.1.2.1s.2-.1.2-.1l.7-2.1z" fill="#FFF" stroke="#45413C" stroke-linecap="round" stroke-linejoin="round" stroke-miterlimit="10"></path><path id="XMLID_950_" class="st15" d="M4.6 33.8l2.1-.7c.1 0 .1-.1.1-.2s-.1-.2-.1-.2L5 32.1c-.2-.1-.4-.3-.5-.5l-.6-1.7c0-.1-.1-.1-.2-.1s-.2.1-.2.1l-.6 1.7c-.1.2-.3.4-.5.5l-1.7.6c-.1 0-.1.1-.1.2s.1.2.1.2l1.7.6c.2.1.4.3.5.5l.6 1.7c0 .1.1.1.2.1s.2-.1.2-.1l.7-2.1z" fill="#FFF" stroke="#45413C" stroke-linecap="round" stroke-linejoin="round" stroke-miterlimit="10"></path></g></g></g></svg>
