<svg
  xmlns="http://www.w3.org/2000/svg"
  height="40"
  width="128"
  version="1.1"
  viewBox="44.2 -25 128 40"
>
  <path
    fill="#000000"
    d="m 168.2,15 h -120 a 4,4 0 0 1 -4,-4 v -32 a 4,4 0 0 1 4,-4 h 120 a 4,4 0 0 1 4,4 v 32 a 4,4 0 0 1 -4,4 z"
  />
  <path
    fill="#ffffff"
    d="m 71.2,-5.2 c 0,-3.1 2.6,-4.6 2.7,-4.7 a 6.2,6.2 0 0 0 -4.5,-2.5 c -1.9,-0.2 -3.8,1.1 -4.7,1.1 -1,0 -2.5,-1.1 -4.1,-1.1 a 6,6 0 0 0 -5.1,3.1 c -2.2,3.8 -0.6,9.4 1.5,12.5 1.1,1.5 2.3,3.2 3.9,3.1 1.6,-0.1 2.2,-1 4.1,-1 1.9,0 2.4,1 4.1,1 1.7,0 2.8,-1.5 3.8,-3 1.2,-1.7 1.7,-3.4 1.7,-3.5 -0.1,-0.1 -3.4,-1.3 -3.4,-5 z m -3.1,-9.2 a 6.2,6.2 0 0 0 1.3,-4 c -1.2,0.1 -2.8,0.8 -3.6,1.9 a 5,5 0 0 0 -1.3,3.8 c 1.3,0.1 2.7,-0.7 3.6,-1.7 z M 94,6.1 H 91.8 L 90.6,2.3 H 86.4 L 85.3,6.1 H 83.2 L 87.4,-6.8 H 90 Z m -3.8,-5.4 -1.1,-3.4 -0.7,-2.4 -0.6,2.4 -1.1,3.4 z m 14.5,0.7 c 0,1.6 -0.4,2.8 -1.3,3.8 -0.8,0.8 -1.7,1.2 -2.9,1.2 C 99.3,6.4 98.4,6 97.9,5.1 V 10 H 95.8 V 0 l -0.1,-3.1 h 1.8 l 0.1,1.5 a 3.4,3.4 0 0 1 3.1,-1.7 c 1.1,0 2,0.4 2.7,1.3 0.9,0.8 1.3,1.9 1.3,3.4 z m -2.1,0 c 0,-0.9 -0.2,-1.7 -0.6,-2.2 a 2,2 0 0 0 -1.8,-0.9 c -0.5,0 -1,0.2 -1.4,0.5 -0.4,0.3 -0.7,0.8 -0.8,1.3 l -0.1,0.6 v 1.6 c 0,0.7 0.2,1.2 0.6,1.7 0.4,0.5 1,0.7 1.6,0.7 a 2,2 0 0 0 1.8,-0.9 c 0.5,-0.6 0.7,-1.4 0.7,-2.4 z m 12.8,0 c 0,1.6 -0.4,2.8 -1.3,3.8 -0.8,0.8 -1.7,1.2 -2.9,1.2 -1.2,0 -2.1,-0.4 -2.6,-1.3 V 10 h -2.1 V 0 l -0.1,-3.1 h 1.8 l 0.1,1.5 a 3.4,3.4 0 0 1 3.1,-1.7 c 1.1,0 2,0.4 2.7,1.3 0.9,0.8 1.3,1.9 1.3,3.4 z m -2.1,0 c 0,-0.9 -0.2,-1.7 -0.6,-2.2 a 2,2 0 0 0 -1.8,-0.9 c -0.5,0 -1,0.2 -1.4,0.5 -0.4,0.3 -0.7,0.8 -0.8,1.3 l -0.1,0.6 v 1.6 c 0,0.7 0.2,1.2 0.6,1.7 0.4,0.5 1,0.7 1.6,0.7 a 2,2 0 0 0 1.8,-0.9 c 0.5,-0.6 0.7,-1.4 0.7,-2.4 z m 14.1,1.1 c 0,1.1 -0.4,2 -1.1,2.7 -0.8,0.8 -2,1.1 -3.5,1.1 -1.4,0 -2.5,-0.3 -3.3,-0.8 L 120,3.8 c 0.9,0.5 1.9,0.8 3,0.8 a 3,3 0 0 0 1.8,-0.5 c 0.4,-0.4 0.6,-0.8 0.6,-1.4 0,-0.5 -0.2,-1 -0.5,-1.3 a 5,5 0 0 0 -1.8,-1 c -2.3,-0.8 -3.4,-2.1 -3.4,-3.7 0,-1.1 0.4,-1.9 1.2,-2.6 0.8,-0.7 1.8,-1 3.2,-1 1.2,0 2.1,0.2 2.9,0.6 l -0.5,1.7 C 125.8,-5 125,-5.2 124,-5.2 c -0.7,0 -1.3,0.2 -1.7,0.5 -0.3,0.3 -0.5,0.7 -0.5,1.2 0,0.5 0.2,0.9 0.6,1.3 0.3,0.3 1,0.6 1.9,1 1.1,0.4 1.9,1 2.5,1.6 0.3,0.5 0.6,1.2 0.6,2.1 z m 6.8,-4.1 h -2.3 v 4.5 c 0,1.1 0.4,1.7 1.2,1.7 l 0.9,-0.1 0.1,1.6 c -0.4,0.2 -0.9,0.2 -1.6,0.2 -0.8,0 -1.5,-0.2 -1.9,-0.7 -0.5,-0.5 -0.7,-1.3 -0.7,-2.5 v -4.7 h -1.4 v -1.6 h 1.4 v -1.7 l 2,-0.6 v 2.3 h 2.3 z m 10.3,3 c 0,1.4 -0.4,2.6 -1.2,3.5 -0.9,0.9 -2,1.4 -3.4,1.4 -1.4,0 -2.5,-0.5 -3.3,-1.4 -0.8,-0.9 -1.2,-2 -1.2,-3.4 0,-1.4 0.4,-2.6 1.3,-3.5 0.8,-0.9 2,-1.4 3.4,-1.4 1.4,0 2.5,0.5 3.3,1.4 0.7,0.9 1.1,2 1.1,3.4 z m -2.2,0.1 c 0,-0.9 -0.2,-1.6 -0.6,-2.2 a 2.1,2.1 0 0 0 -1.9,-1.1 c -0.8,0 -1.5,0.4 -1.9,1.1 a 4,4 0 0 0 -0.6,2.2 c 0,0.9 0.2,1.6 0.6,2.2 0.4,0.7 1.1,1.1 1.9,1.1 0.8,0 1.4,-0.4 1.9,-1.1 a 4,4 0 0 0 0.6,-2.2 z m 8.9,-2.9 -0.7,-0.1 c -0.7,0 -1.3,0.3 -1.7,0.8 -0.3,0.5 -0.5,1.1 -0.5,1.8 V 6 h -2.1 v -6.4 l -0.1,-2.9 h 1.8 l 0.1,1.8 h 0.1 a 4,4 0 0 1 1,-1.5 3,3 0 0 1 1.5,-0.5 h 0.5 v 2.1 z m 9.2,2.4 -0.1,0.9 h -6.2 c 0,0.9 0.3,1.6 0.9,2.1 0.5,0.4 1.2,0.7 2,0.7 0.9,0 1.8,-0.1 2.5,-0.4 l 0.3,1.4 c -0.9,0.4 -1.9,0.6 -3.1,0.6 -1.4,0 -2.6,-0.4 -3.4,-1.3 -0.8,-0.8 -1.2,-2 -1.2,-3.4 0,-1.4 0.4,-2.6 1.1,-3.5 a 4,4 0 0 1 3.3,-1.5 c 1.3,0 2.4,0.5 3,1.5 0.7,0.8 0.9,1.8 0.9,2.9 z m -1.9,-0.5 a 3,3 0 0 0 -0.4,-1.6 C 157.7,-1.7 157.2,-2 156.5,-2 a 2,2 0 0 0 -1.6,0.8 c -0.3,0.4 -0.5,1 -0.6,1.6 h 4.2 z M 89.6,-14.7 c 0,1.1 -0.3,2 -1,2.6 -0.6,0.5 -1.5,0.8 -2.7,0.8 l -1.5,-0.1 v -6.2 l 1.8,-0.1 c 1.1,0 1.9,0.2 2.5,0.7 0.5,0.5 0.9,1.3 0.9,2.3 z m -1.1,0 c 0,-0.7 -0.2,-1.3 -0.6,-1.7 -0.4,-0.4 -1,-0.6 -1.7,-0.6 l -0.8,0.1 v 4.7 h 0.7 c 0.8,0 1.4,-0.2 1.8,-0.6 0.4,-0.4 0.6,-1.1 0.6,-1.9 z m 6.7,1 c 0,0.7 -0.2,1.3 -0.6,1.7 -0.4,0.5 -1,0.7 -1.7,0.7 -0.7,0 -1.2,-0.2 -1.6,-0.7 -0.4,-0.4 -0.6,-1 -0.6,-1.7 0,-0.7 0.2,-1.3 0.6,-1.7 0.4,-0.5 1,-0.7 1.7,-0.7 0.7,0 1.2,0.2 1.6,0.7 0.4,0.4 0.6,1 0.6,1.7 z m -1,0 a 2,2 0 0 0 -0.3,-1.1 c -0.2,-0.4 -0.5,-0.5 -0.9,-0.5 a 1,1 0 0 0 -0.9,0.5 2,2 0 0 0 -0.3,1.1 c 0,0.4 0.1,0.8 0.3,1.1 0.2,0.4 0.5,0.5 0.9,0.5 0.4,0 0.7,-0.2 0.9,-0.6 0.2,-0.2 0.3,-0.6 0.3,-1 z m 8.7,-2.3 -1.4,4.6 h -0.9 l -0.6,-2 -0.4,-1.5 -0.4,1.5 -0.6,2 H 97.7 L 96.2,-16 h 1 l 0.5,2.2 0.3,1.5 0.4,-1.5 0.6,-2.2 h 0.8 l 0.6,2.1 0.4,1.5 0.3,-1.5 0.6,-2.1 z m 5.2,4.6 h -1 V -14 c 0,-0.8 -0.3,-1.2 -0.9,-1.2 a 1,1 0 0 0 -0.7,0.3 c -0.2,0.2 -0.3,0.5 -0.3,0.8 v 2.7 h -1 v -3.3 -1.3 h 0.9 v 0.7 l 0.5,-0.6 0.9,-0.3 c 0.4,0 0.8,0.1 1.1,0.4 0.4,0.3 0.5,0.8 0.5,1.5 z m 2.8,0 h -1 v -6.7 h 1 z m 6,-2.3 c 0,0.7 -0.2,1.3 -0.6,1.7 -0.4,0.5 -1,0.7 -1.7,0.7 -0.7,0 -1.2,-0.2 -1.6,-0.7 -0.4,-0.4 -0.6,-1 -0.6,-1.7 0,-0.7 0.2,-1.3 0.6,-1.7 0.4,-0.4 1,-0.7 1.7,-0.7 0.7,0 1.2,0.2 1.6,0.7 0.4,0.4 0.6,1 0.6,1.7 z m -1,0 a 2,2 0 0 0 -0.3,-1.1 c -0.2,-0.4 -0.5,-0.5 -0.9,-0.5 a 1,1 0 0 0 -0.9,0.5 2,2 0 0 0 -0.3,1.1 c 0,0.4 0.1,0.8 0.3,1.1 0.2,0.4 0.5,0.5 0.9,0.5 0.4,0 0.7,-0.2 0.9,-0.6 0.2,-0.2 0.3,-0.6 0.3,-1 z m 5.9,2.3 h -0.9 l -0.1,-0.5 c -0.3,0.4 -0.8,0.6 -1.3,0.6 -0.4,0 -0.8,-0.1 -1,-0.4 -0.2,-0.3 -0.4,-0.6 -0.4,-0.9 0,-0.6 0.2,-1 0.7,-1.3 0.5,-0.3 1.1,-0.4 2,-0.4 v -0.1 c 0,-0.6 -0.3,-0.9 -0.9,-0.9 -0.5,0 -0.8,0.1 -1.2,0.3 l -0.2,-0.7 c 0.4,-0.3 0.9,-0.4 1.6,-0.4 1.2,0 1.8,0.6 1.8,1.9 v 1.7 z m -1,-1.6 v -0.7 c -1.1,0 -1.7,0.3 -1.7,0.9 l 0.2,0.5 0.5,0.2 0.6,-0.2 0.4,-0.5 z m 6.8,1.6 h -0.9 v -0.7 c -0.3,0.6 -0.8,0.8 -1.5,0.8 -0.6,0 -1,-0.2 -1.4,-0.6 -0.4,-0.4 -0.5,-1 -0.5,-1.7 0,-0.7 0.2,-1.3 0.6,-1.8 a 2,2 0 0 1 1.4,-0.6 c 0.6,0 1,0.2 1.3,0.6 V -18 h 1 z m -1,-1.9 v -0.8 -0.3 a 2,2 0 0 0 -0.4,-0.6 c -0.2,-0.2 -0.4,-0.2 -0.7,-0.2 a 1,1 0 0 0 -0.9,0.5 c -0.2,0.3 -0.3,0.7 -0.3,1.2 0,0.5 0.1,0.8 0.3,1.1 0.2,0.3 0.5,0.5 0.9,0.5 0.3,0 0.6,-0.1 0.8,-0.4 z m 9.7,-0.4 c 0,0.7 -0.2,1.3 -0.6,1.7 -0.4,0.5 -1,0.7 -1.7,0.7 -0.7,0 -1.2,-0.2 -1.6,-0.7 -0.4,-0.4 -0.6,-1 -0.6,-1.7 0,-0.7 0.2,-1.3 0.6,-1.7 0.4,-0.5 1,-0.7 1.7,-0.7 0.7,0 1.2,0.2 1.6,0.7 0.4,0.4 0.6,1 0.6,1.7 z m -1.1,0 a 2,2 0 0 0 -0.3,-1.1 c -0.2,-0.4 -0.5,-0.5 -0.9,-0.5 a 1,1 0 0 0 -0.9,0.5 2,2 0 0 0 -0.3,1.1 c 0,0.4 0.1,0.8 0.3,1.1 0.2,0.4 0.5,0.5 0.9,0.5 0.4,0 0.7,-0.2 0.9,-0.6 0.2,-0.2 0.3,-0.6 0.3,-1 z m 6.6,2.3 h -1 V -14 c 0,-0.8 -0.3,-1.2 -0.9,-1.2 a 1,1 0 0 0 -0.7,0.3 c -0.2,0.2 -0.3,0.5 -0.3,0.8 v 2.7 h -1 v -3.3 -1.3 h 0.9 v 0.7 l 0.5,-0.6 0.9,-0.3 c 0.4,0 0.8,0.1 1.1,0.4 0.4,0.3 0.5,0.8 0.5,1.5 z m 6.8,-3.8 h -1.1 v 2.2 c 0,0.6 0.2,0.8 0.6,0.8 h 0.5 v 0.8 l -0.8,0.1 c -0.4,0 -0.7,-0.1 -0.9,-0.4 -0.2,-0.2 -0.3,-0.7 -0.3,-1.2 v -2.3 h -0.7 V -16 h 0.7 v -0.8 l 1,-0.3 v 1.1 h 1.1 v 0.8 z m 5.4,3.8 h -1 V -14 c 0,-0.8 -0.3,-1.2 -0.9,-1.2 -0.5,0 -0.8,0.2 -1,0.7 v 3.1 h -1 v -6.7 h 1 v 2.8 c 0.3,-0.5 0.8,-0.8 1.4,-0.8 0.4,0 0.8,0.1 1,0.4 0.3,0.3 0.5,0.9 0.5,1.5 z m 5.5,-2.5 v 0.5 h -3 c 0,0.5 0.2,0.8 0.4,1 0.3,0.2 0.6,0.3 1,0.3 l 1.2,-0.2 0.2,0.7 c -0.4,0.2 -0.9,0.3 -1.5,0.3 -0.7,0 -1.3,-0.2 -1.7,-0.6 -0.4,-0.4 -0.6,-1 -0.6,-1.7 0,-0.7 0.2,-1.3 0.6,-1.7 0.4,-0.5 0.9,-0.7 1.6,-0.7 0.7,0 1.2,0.2 1.5,0.7 0.2,0.3 0.3,0.8 0.3,1.4 z m -0.9,-0.3 -0.2,-0.8 c -0.2,-0.3 -0.4,-0.4 -0.8,-0.4 a 1,1 0 0 0 -0.8,0.4 c -0.2,0.2 -0.3,0.5 -0.3,0.8 z"
  />
</svg>
