<svg xmlns="http://www.w3.org/2000/svg" viewBox="44.2 -25 128 40"><path d="M168.2 15h-120a4 4 0 01-4-4v-32a4 4 0 014-4h120a4 4 0 014 4v32a4 4 0 01-4 4z" fill="#000"></path><path d="M71.2-5.2c0-3.1 2.6-4.6 2.7-4.7a6.2 6.2 0 00-4.5-2.5c-1.9-.2-3.8 1.1-4.7 1.1-1 0-2.5-1.1-4.1-1.1a6 6 0 00-5.1 3.1C53.3-5.5 54.9.1 57 3.2c1.1 1.5 2.3 3.2 3.9 3.1 1.6-.1 2.2-1 4.1-1 1.9 0 2.4 1 4.1 1 1.7 0 2.8-1.5 3.8-3 1.2-1.7 1.7-3.4 1.7-3.5-.1-.1-3.4-1.3-3.4-5zM68.1-14.4a6.2 6.2 0 001.3-4c-1.2.1-2.8.8-3.6 1.9a5 5 0 00-1.3 3.8c1.3.1 2.7-.7 3.6-1.7zM94 6.1h-2.2l-1.2-3.8h-4.2l-1.1 3.8h-2.1l4.2-12.9H90zM90.2.7l-1.1-3.4-.7-2.4-.6 2.4L86.7.7zM104.7 1.4c0 1.6-.4 2.8-1.3 3.8-.8.8-1.7 1.2-2.9 1.2s-2.1-.4-2.6-1.3V10h-2.1V0l-.1-3.1h1.8l.1 1.5a3.4 3.4 0 013.1-1.7c1.1 0 2 .4 2.7 1.3.9.8 1.3 1.9 1.3 3.4zm-2.1 0c0-.9-.2-1.7-.6-2.2a2 2 0 00-1.8-.9c-.5 0-1 .2-1.4.5-.4.3-.7.8-.8 1.3l-.1.6v1.6c0 .7.2 1.2.6 1.7.4.5 1 .7 1.6.7a2 2 0 001.8-.9c.5-.6.7-1.4.7-2.4zM115.4 1.4c0 1.6-.4 2.8-1.3 3.8-.8.8-1.7 1.2-2.9 1.2s-2.1-.4-2.6-1.3V10h-2.1V0l-.1-3.1h1.8l.1 1.5a3.4 3.4 0 013.1-1.7c1.1 0 2 .4 2.7 1.3.9.8 1.3 1.9 1.3 3.4zm-2.1 0c0-.9-.2-1.7-.6-2.2a2 2 0 00-1.8-.9c-.5 0-1 .2-1.4.5-.4.3-.7.8-.8 1.3l-.1.6v1.6c0 .7.2 1.2.6 1.7.4.5 1 .7 1.6.7a2 2 0 001.8-.9c.5-.6.7-1.4.7-2.4zM127.4 2.5c0 1.1-.4 2-1.1 2.7-.8.8-2 1.1-3.5 1.1-1.4 0-2.5-.3-3.3-.8l.5-1.7c.9.5 1.9.8 3 .8a3 3 0 001.8-.5c.4-.4.6-.8.6-1.4 0-.5-.2-1-.5-1.3a5 5 0 00-1.8-1c-2.3-.8-3.4-2.1-3.4-3.7 0-1.1.4-1.9 1.2-2.6.8-.7 1.8-1 3.2-1 1.2 0 2.1.2 2.9.6l-.5 1.7c-.7-.4-1.5-.6-2.5-.6-.7 0-1.3.2-1.7.5-.3.3-.5.7-.5 1.2s.2.9.6 1.3c.3.3 1 .6 1.9 1 1.1.4 1.9 1 2.5 1.6.3.5.6 1.2.6 2.1zM134.2-1.6h-2.3v4.5c0 1.1.4 1.7 1.2 1.7l.9-.1.1 1.6c-.4.2-.9.2-1.6.2-.8 0-1.5-.2-1.9-.7-.5-.5-.7-1.3-.7-2.5v-4.7h-1.4v-1.6h1.4v-1.7l2-.6v2.3h2.3zM144.5 1.4c0 1.4-.4 2.6-1.2 3.5-.9.9-2 1.4-3.4 1.4s-2.5-.5-3.3-1.4c-.8-.9-1.2-2-1.2-3.4s.4-2.6 1.3-3.5c.8-.9 2-1.4 3.4-1.4s2.5.5 3.3 1.4c.7.9 1.1 2 1.1 3.4zm-2.2.1c0-.9-.2-1.6-.6-2.2a2.1 2.1 0 00-1.9-1.1c-.8 0-1.5.4-1.9 1.1a4 4 0 00-.6 2.2c0 .9.2 1.6.6 2.2.4.7 1.1 1.1 1.9 1.1.8 0 1.4-.4 1.9-1.1a4 4 0 00.6-2.2zM151.2-1.4l-.7-.1c-.7 0-1.3.3-1.7.8-.3.5-.5 1.1-.5 1.8V6h-2.1V-.4l-.1-2.9h1.8l.1 1.8h.1a4 4 0 011-1.5 3 3 0 011.5-.5h.5v2.1zM160.4 1l-.1.9h-6.2c0 .9.3 1.6.9 2.1.5.4 1.2.7 2 .7.9 0 1.8-.1 2.5-.4l.3 1.4c-.9.4-1.9.6-3.1.6-1.4 0-2.6-.4-3.4-1.3-.8-.8-1.2-2-1.2-3.4s.4-2.6 1.1-3.5a4 4 0 013.3-1.5c1.3 0 2.4.5 3 1.5.7.8.9 1.8.9 2.9zm-1.9-.5a3 3 0 00-.4-1.6c-.4-.6-.9-.9-1.6-.9a2 2 0 00-1.6.8c-.3.4-.5 1-.6 1.6h4.2zM89.6-14.7c0 1.1-.3 2-1 2.6-.6.5-1.5.8-2.7.8l-1.5-.1v-6.2l1.8-.1c1.1 0 1.9.2 2.5.7.5.5.9 1.3.9 2.3zm-1.1 0c0-.7-.2-1.3-.6-1.7-.4-.4-1-.6-1.7-.6l-.8.1v4.7h.7c.8 0 1.4-.2 1.8-.6.4-.4.6-1.1.6-1.9zM95.2-13.7c0 .7-.2 1.3-.6 1.7-.4.5-1 .7-1.7.7s-1.2-.2-1.6-.7c-.4-.4-.6-1-.6-1.7s.2-1.3.6-1.7c.4-.5 1-.7 1.7-.7s1.2.2 1.6.7c.4.4.6 1 .6 1.7zm-1 0a2 2 0 00-.3-1.1c-.2-.4-.5-.5-.9-.5a1 1 0 00-.9.5 2 2 0 00-.3 1.1c0 .4.1.8.3 1.1.2.4.5.5.9.5s.7-.2.9-.6c.2-.2.3-.6.3-1zM102.9-16l-1.4 4.6h-.9l-.6-2-.4-1.5-.4 1.5-.6 2h-.9L96.2-16h1l.5 2.2.3 1.5.4-1.5.6-2.2h.8l.6 2.1.4 1.5.3-1.5.6-2.1zM108.1-11.4h-1V-14c0-.8-.3-1.2-.9-1.2a1 1 0 00-.7.3c-.2.2-.3.5-.3.8v2.7h-1v-3.3-1.3h.9v.7l.5-.6.9-.3c.4 0 .8.1 1.1.4.4.3.5.8.5 1.5zM110.9-11.4h-1v-6.7h1zM116.9-13.7c0 .7-.2 1.3-.6 1.7-.4.5-1 .7-1.7.7s-1.2-.2-1.6-.7c-.4-.4-.6-1-.6-1.7s.2-1.3.6-1.7c.4-.4 1-.7 1.7-.7s1.2.2 1.6.7c.4.4.6 1 .6 1.7zm-1 0a2 2 0 00-.3-1.1c-.2-.4-.5-.5-.9-.5a1 1 0 00-.9.5 2 2 0 00-.3 1.1c0 .4.1.8.3 1.1.2.4.5.5.9.5s.7-.2.9-.6c.2-.2.3-.6.3-1zM121.8-11.4h-.9l-.1-.5c-.3.4-.8.6-1.3.6-.4 0-.8-.1-1-.4-.2-.3-.4-.6-.4-.9 0-.6.2-1 .7-1.3.5-.3 1.1-.4 2-.4v-.1c0-.6-.3-.9-.9-.9-.5 0-.8.1-1.2.3l-.2-.7c.4-.3.9-.4 1.6-.4 1.2 0 1.8.6 1.8 1.9v1.7l-.1 1.1zm-1-1.6v-.7c-1.1 0-1.7.3-1.7.9l.2.5.5.2.6-.2.4-.5v-.2zM127.6-11.4h-.9v-.7c-.3.6-.8.8-1.5.8-.6 0-1-.2-1.4-.6-.4-.4-.5-1-.5-1.7s.2-1.3.6-1.8a2 2 0 011.4-.6c.6 0 1 .2 1.3.6V-18h1V-11.4zm-1-1.9v-.8-.3a2 2 0 00-.4-.6c-.2-.2-.4-.2-.7-.2a1 1 0 00-.9.5c-.2.3-.3.7-.3 1.2s.1.8.3 1.1c.2.3.5.5.9.5.3 0 .6-.1.8-.4l.3-1zM136.3-13.7c0 .7-.2 1.3-.6 1.7-.4.5-1 .7-1.7.7s-1.2-.2-1.6-.7c-.4-.4-.6-1-.6-1.7s.2-1.3.6-1.7c.4-.5 1-.7 1.7-.7s1.2.2 1.6.7c.4.4.6 1 .6 1.7zm-1.1 0a2 2 0 00-.3-1.1c-.2-.4-.5-.5-.9-.5a1 1 0 00-.9.5 2 2 0 00-.3 1.1c0 .4.1.8.3 1.1.2.4.5.5.9.5s.7-.2.9-.6c.2-.2.3-.6.3-1zM141.8-11.4h-1V-14c0-.8-.3-1.2-.9-1.2a1 1 0 00-.7.3c-.2.2-.3.5-.3.8v2.7h-1v-3.3-1.3h.9v.7l.5-.6.9-.3c.4 0 .8.1 1.1.4.4.3.5.8.5 1.5zM148.6-15.2h-1.1v2.2c0 .6.2.8.6.8h.5v.8l-.8.1c-.4 0-.7-.1-.9-.4-.2-.2-.3-.7-.3-1.2v-2.3h-.7v-.8h.7v-.8l1-.3v1.1h1.1v.8zM154-11.4h-1V-14c0-.8-.3-1.2-.9-1.2-.5 0-.8.2-1 .7v3.1h-1v-6.7h1v2.8c.3-.5.8-.8 1.4-.8.4 0 .8.1 1 .4.3.3.5.9.5 1.5zM159.5-13.9v.5h-3c0 .5.2.8.4 1 .3.2.6.3 1 .3l1.2-.2.2.7c-.4.2-.9.3-1.5.3-.7 0-1.3-.2-1.7-.6-.4-.4-.6-1-.6-1.7s.2-1.3.6-1.7c.4-.5.9-.7 1.6-.7.7 0 1.2.2 1.5.7.2.3.3.8.3 1.4zm-.9-.3l-.2-.8c-.2-.3-.4-.4-.8-.4a1 1 0 00-.8.4c-.2.2-.3.5-.3.8z" fill="#fff"></path></svg>
