<svg
  width="32pt"
  height="29pt"
  viewBox="0 0 32 29"
  version="1.1"
  id="CheckMarkIcon"
>
  <g>
    <path d="M 5.621094 17.003906 L 10.4375 21.707031 C 11.472656 22.714844 11.472656 24.351562 10.4375 25.363281 C 9.402344 26.371094 7.726562 26.371094 6.691406 25.363281 L 1.875 20.660156 C 0.839844 19.652344 0.839844 18.011719 1.875 17.003906 C 2.910156 15.992188 4.585938 15.992188 5.621094 17.003906 Z M 5.621094 17.003906 " />
    <path d="M 30.125 6.925781 L 10.855469 25.730469 C 9.820312 26.742188 8.144531 26.742188 7.109375 25.730469 C 6.074219 24.722656 6.074219 23.085938 7.109375 22.074219 L 26.378906 3.265625 C 27.414062 2.257812 29.09375 2.257812 30.125 3.265625 C 31.160156 4.277344 31.160156 5.914062 30.125 6.925781 Z M 30.125 6.925781 " />
  </g>
</svg>
