<svg xmlns="http://www.w3.org/2000/svg" version="1.1" x="0px" y="0px" viewBox="0 0 48 48" xml:space="preserve"><style type="text/css">.st0{fill:#FFD4C3;stroke:#504B46;stroke-linecap:round;stroke-linejoin:round;stroke-miterlimit:10;} .st1{fill:#FFC258;} .st2{fill:#4F4B45;} .st3{fill:#FABFA5;} .st4{fill:none;stroke:#504B46;stroke-linecap:round;stroke-linejoin:round;stroke-miterlimit:10;} .Graphic_x0020_Style{opacity:0.15;fill:#45413C;} .st5{opacity:0.15;fill:#45413C;} .st6{fill:#DEBB7E;stroke:#45413C;stroke-linecap:round;stroke-linejoin:round;stroke-miterlimit:10;} .st7{fill:#F0D5A8;} .st8{fill:#F7E5C6;} .st9{fill:#DEBB7E;} .st10{fill:none;stroke:#45413C;stroke-linecap:round;stroke-linejoin:round;stroke-miterlimit:10;} .st11{fill:#FFE500;} .st12{fill:#EBCB00;} .st13{fill:none;stroke:#EBCB00;stroke-linecap:round;stroke-linejoin:round;stroke-miterlimit:10;} .st14{fill:#FF6242;stroke:#45413C;stroke-linecap:round;stroke-linejoin:round;stroke-miterlimit:10;} .st15{fill:#FFFFFF;stroke:#45413C;stroke-linecap:round;stroke-linejoin:round;stroke-miterlimit:10;} .st16{fill:#E5F8FF;} .st17{fill:#FFFFFF;} .st18{fill:#E8F4FA;} .st19{fill:#E8F4FA;stroke:#45413C;stroke-linecap:round;stroke-linejoin:round;stroke-miterlimit:10;} .st20{fill:#FFCCDD;} .st21{fill:#FFB0CA;stroke:#45413C;stroke-linecap:round;stroke-linejoin:round;stroke-miterlimit:10;} .st22{fill:#FF87AF;stroke:#45413C;stroke-linecap:round;stroke-linejoin:round;stroke-miterlimit:10;} .st23{fill:#E5F8FF;stroke:#45413C;stroke-linecap:round;stroke-linejoin:round;stroke-miterlimit:10;} .st24{fill:#BF8256;stroke:#45413C;stroke-linecap:round;stroke-linejoin:round;stroke-miterlimit:10;} .st25{fill:#9CEB60;} .st26{fill:#6DD627;} .st27{fill:#C8FFA1;} .st28{fill:#FFFACF;} .st29{fill:#FF87AF;} .st30{fill:#FFB0CA;} .st31{fill:#FF6196;} .st32{fill:#FFCCDD;stroke:#45413C;stroke-linecap:round;stroke-linejoin:round;stroke-miterlimit:10;} .st33{fill:#FF6196;stroke:#45413C;stroke-linecap:round;stroke-linejoin:round;stroke-miterlimit:10;} .st34{fill:#FFE5EE;} .st35{fill:#00B8F0;} .st36{fill:#4ACFFF;} .st37{fill:#BF8256;} .st38{fill:#DEA47A;} .st39{fill:#915E3A;} .st40{fill:#FFF5E3;} .st41{fill:#F0F0F0;} .st42{fill:#8CA4B8;} .st43{fill:#627B8C;} .st44{fill:#C0DCEB;} .st45{fill:#FFF48C;} .st46{fill:#FFE500;stroke:#45413C;stroke-linecap:round;stroke-linejoin:round;stroke-miterlimit:10;} .st47{fill:#FFAA54;} .st48{fill:#6DD627;stroke:#45413C;stroke-linecap:round;stroke-linejoin:round;stroke-miterlimit:10;} .st49{fill:#FF8A14;} .st50{fill:#FFCC99;} .st51{fill:#EBCB00;stroke:#45413C;stroke-linecap:round;stroke-linejoin:round;stroke-miterlimit:10;} .st52{fill:#00F5BC;stroke:#45413C;stroke-linecap:round;stroke-linejoin:round;stroke-miterlimit:10;} .st53{fill:#BF8DF2;stroke:#45413C;stroke-linecap:round;stroke-linejoin:round;stroke-miterlimit:10;} .st54{fill:#FF8A14;stroke:#45413C;stroke-linecap:round;stroke-linejoin:round;stroke-miterlimit:10;} .st55{fill:#4AEFF7;stroke:#45413C;stroke-linecap:round;stroke-linejoin:round;stroke-miterlimit:10;} .st56{fill:#FFF48C;stroke:#45413C;stroke-linecap:round;stroke-linejoin:round;stroke-miterlimit:10;} .st57{fill:#FF6242;} .st58{fill:#E04122;} .st59{fill:#46B000;} .st60{fill:none;stroke:#45413C;stroke-miterlimit:10;} .st61{fill:#00B8F0;stroke:#45413C;stroke-linecap:round;stroke-linejoin:round;stroke-miterlimit:10;} .st62{fill:#FF866E;} .st63{fill:#9F5AE5;stroke:#45413C;stroke-linecap:round;stroke-linejoin:round;stroke-miterlimit:10;} .st64{fill:#E4FFD1;} .st65{fill:#FFFEF2;} .st66{fill:#B89558;} .st67{fill:none;stroke:#915E3A;stroke-linecap:round;stroke-linejoin:round;stroke-miterlimit:10;} .st68{fill:#915E3A;stroke:#45413C;stroke-linecap:round;stroke-linejoin:round;stroke-miterlimit:10;} .st69{fill:#BF8DF2;} .st70{fill:#9F5AE5;} .st71{fill:#DABFF5;} .st72{fill:none;stroke:#45413C;stroke-linejoin:round;stroke-miterlimit:10;} .st73{fill:#656769;} .st74{fill:#87898C;} .st75{fill:#E0E0E0;} .st76{fill:#BDBEC0;} .st77{fill:#656769;stroke:#45413C;stroke-linecap:round;stroke-linejoin:round;stroke-miterlimit:10;} .st78{fill:#45413C;stroke:#45413C;stroke-linecap:round;stroke-linejoin:round;stroke-miterlimit:10;} .st79{fill:#FFA694;} .st80{fill:#E04122;stroke:#45413C;stroke-linecap:round;stroke-linejoin:round;stroke-miterlimit:10;} .st81{fill:#E0E0E0;stroke:#45413C;stroke-linecap:round;stroke-linejoin:round;stroke-miterlimit:10;} .st82{fill:#F0F0F0;stroke:#45413C;stroke-linecap:round;stroke-linejoin:round;stroke-miterlimit:10;} .st83{fill:#DAEDF7;} .st84{fill:#BDBEC0;stroke:#45413C;stroke-linecap:round;stroke-linejoin:round;stroke-miterlimit:10;} .st85{fill:#87898C;stroke:#45413C;stroke-linecap:round;stroke-linejoin:round;stroke-miterlimit:10;} .st86{fill:#00DFEB;} .st87{fill:#4AEFF7;} .st88{fill:#DAEDF7;stroke:#45413C;stroke-linecap:round;stroke-linejoin:round;stroke-miterlimit:10;} .st89{fill:#FFDA8F;} .st90{fill:#FFBE3D;} .st91{fill:#FFE9BD;} .st92{fill:#DEA47A;stroke:#45413C;stroke-linecap:round;stroke-linejoin:round;stroke-miterlimit:10;} .st93{fill:#45413C;} .st94{fill:#F0C2A1;} .st95{fill:none;stroke:#45413C;stroke-width:1.0064;stroke-linecap:round;stroke-linejoin:round;stroke-miterlimit:10;} .st96{fill:#525252;} .st97{fill:#EB6D00;stroke:#45413C;stroke-linecap:round;stroke-linejoin:round;stroke-miterlimit:10;} .st98{fill:#EB6D00;} .st99{fill:#E5FEFF;} .st100{fill:#FF866E;stroke:#45413C;stroke-linecap:round;stroke-linejoin:round;stroke-miterlimit:10;} .st101{fill:#627B8C;stroke:#45413C;stroke-linecap:round;stroke-linejoin:round;stroke-miterlimit:10;} .st102{fill:#FFFCE5;stroke:#45413C;stroke-linecap:round;stroke-linejoin:round;stroke-miterlimit:10;} .st103{fill:#A6FBFF;} .st104{fill:#D9FDFF;} .st105{fill:#FFFACF;stroke:#45413C;stroke-linecap:round;stroke-linejoin:round;stroke-miterlimit:10;} .st106{fill:#B8ECFF;} .st107{fill:#FFCABF;} .st108{fill:#E5FFF9;} .st109{fill:#C8FFA1;stroke:#45413C;stroke-linecap:round;stroke-linejoin:round;stroke-miterlimit:10;} .st110{fill:#4CF4FC;} .st111{fill:#F0D5A8;stroke:#45413C;stroke-linecap:round;stroke-linejoin:round;stroke-miterlimit:10;} .st112{fill:#FFDCD1;stroke:#45413C;stroke-linecap:round;stroke-linejoin:round;stroke-miterlimit:10;} .st113{fill:#80DDFF;} .st114{fill:#46B000;stroke:#45413C;stroke-linecap:round;stroke-linejoin:round;stroke-miterlimit:10;} .st115{fill:#4ACFFF;stroke:#45413C;stroke-linecap:round;stroke-linejoin:round;stroke-miterlimit:10;} .st116{fill:#ADC4D9;} .st117{fill:#BDBEC0;stroke:#45413C;stroke-width:1.0064;stroke-linecap:round;stroke-linejoin:round;stroke-miterlimit:10;} .st118{fill:#FFFCE5;} .st119{fill:#947746;} .st120{fill:#525252;stroke:#45413C;stroke-linecap:round;stroke-linejoin:round;stroke-miterlimit:10;}</style><symbol id="New_Symbol_14" viewBox="-6.5 -6.5 13 13"><path class="st0" d="M0-6c2.2 0 4.1 1.5 4.7 3.5C6.3-2.5 6.4 0 5 0v1c0 2.8-2.2 5-5 5s-5-2.2-5-5V0c-1.4 0-1.3-2.5.2-2.5C-4.1-4.5-2.2-6 0-6z" fill="#FFD4C3" stroke="#504B46" stroke-linecap="round" stroke-linejoin="round" stroke-miterlimit="10"/><circle class="st1" cx="-1.6" cy="-0.1" r="0.1" fill="#FFC258"/><path class="st2" d="M-1.6.5c-.3 0-.6-.3-.6-.6s.2-.7.6-.7c.3 0 .6.3.6.7s-.3.6-.6.6z" fill="#4F4B45"/><circle class="st1" cx="1.6" cy="-0.1" r="0.1" fill="#FFC258"/><path class="st2" d="M1.6.5C1.3.5 1 .2 1-.1s.3-.6.6-.6.6.3.6.6-.2.6-.6.6z" fill="#4F4B45"/><circle class="st3" cx="-3" cy="-1.5" r="0.5" fill="#FABFA5"/><circle class="st3" cx="3" cy="-1.5" r="0.5" fill="#FABFA5"/><path class="st4" d="M-1.2-3c.8-.5 1.7-.5 2.5 0" fill="none" stroke="#504B46" stroke-linecap="round" stroke-linejoin="round" stroke-miterlimit="10"/></symbol><g id="Icons"><g id="XMLID_1876_"><ellipse id="XMLID_2866_" class="st5" cx="26" cy="40.8" rx="17.7" ry="1.7" fill="#45413C" opacity="0.15"/><path id="XMLID_2865_" class="st36" d="M31.3 21.2L26.8 7.7c-.4-1.2-1.6-1.9-2.8-1.8l-1.9.2c-.4 0-.8.4-.9.8l-3.5 11.5 13.6 2.8z" fill="#4ACFFF"/><path id="XMLID_2864_" class="st113" d="M26.8 7.7c-.4-1.2-1.6-1.9-2.8-1.8l-1.9.2c-.4 0-.8.4-.9.8l-.7 2.2c.1-.4 1.2-.7 1.6-.8l1.9-.2c1.2-.1 3.1.6 3.5 1.8l-.7-2.2z" fill="#80DDFF"/><path id="XMLID_2863_" class="st10" d="M31.3 21.2L26.8 7.7c-.4-1.2-1.6-1.9-2.8-1.8l-1.9.2c-.4 0-.8.4-.9.8l-3.5 11.5 13.6 2.8z" fill="none" stroke="#45413C" stroke-linecap="round" stroke-linejoin="round" stroke-miterlimit="10"/><path id="XMLID_2862_" class="st41" d="M44 38L3 23 9.1 6.4c.4-1 1.6-1.2 2.3-.5C14 8.7 18.1 10.1 22 9.6c1.2-.1 2.3.3 3.2 1.2L35.7 22c1.7 1.8 3.7 3.2 5.8 4.3 3.2 1.6 4.7 5.4 3.5 8.8L44 38z" fill="#F0F0F0"/><path id="XMLID_1717_" class="st17" d="M8.6 9.5c2.9 2.9 7.2 4.3 11.3 4 1.2-.1 2.5.3 3.4 1.2l11.4 11.5c1.8 1.8 3.9 3.3 6.3 4.5 2 1 3.4 2.7 4 4.7l.1-.3c1.2-3.4-.3-7.1-3.5-8.8-2.2-1.1-4.2-2.6-5.8-4.3L25.1 10.8c-.8-.9-2-1.3-3.2-1.2-3.8.4-8-.9-10.6-3.7-.7-.7-1.9-.5-2.3.5L8 9.2l.6.3z" fill="#FFF"/><path id="XMLID_1716_" class="st10" d="M44 38L3 23 9.1 6.4c.4-1 1.6-1.2 2.3-.5C14 8.7 18.1 10.1 22 9.6c1.2-.1 2.3.3 3.2 1.2L35.7 22c1.7 1.8 3.7 3.2 5.8 4.3 3.2 1.6 4.7 5.4 3.5 8.8L44 38z" fill="none" stroke="#45413C" stroke-linecap="round" stroke-linejoin="round" stroke-miterlimit="10"/><path id="XMLID_1715_" class="st117" d="M39.2 39.2l-15.8-5.8c-1.5-.5-2.9-1.2-4.2-2l-3-1.8c-.5-.3-1.1-.4-1.7-.2-.7.2-1.4.2-2.1 0L5 26.7c-1.7-.7-2.7-1.6-2.4-2.5L3 23l41 15-.4 1c-.5 1.1-2.2 1-4.4.2z" fill="#BDBEC0" stroke="#45413C" stroke-linecap="round" stroke-linejoin="round" stroke-miterlimit="10" stroke-width="1.0064"/><path id="XMLID_1714_" class="st36" d="M45.5 32.7c0 .8-.1 1.6-.4 2.4L44 38l-11.5-4.2c1-3 2.4-4.4 4.7-4.8 1.9-.4 3.4-1.7 3.9-2.9.1.1.3.2.4.2 2.5 1.3 4 3.8 4 6.4z" fill="#4ACFFF"/><path id="XMLID_1713_" class="st113" d="M45.5 32.7c0 .8-.1 1.6-.4 2.4l-.1.3c-.6-2-2-3.7-4-4.7-1.1-.5-2.2-1.2-3.2-1.9 1.7-.5 3-1.7 3.4-2.8.9.5 1.6.8 2.4 1.7 1.3 1.6 1.9 3.3 1.9 5z" fill="#80DDFF"/><path id="XMLID_1712_" class="st10" d="M45.5 32.7c0 .8-.1 1.6-.4 2.4L44 38l-11.5-4.2c1-3 2.4-4.4 4.7-4.8 1.9-.4 3.4-1.7 3.9-2.9.1.1.3.2.4.2 2.5 1.3 4 3.8 4 6.4z" fill="none" stroke="#45413C" stroke-linecap="round" stroke-linejoin="round" stroke-miterlimit="10"/><path id="XMLID_1711_" class="st36" d="M16.5 27.9L3 23 8 9.2l1-2.8c.4-1 1.6-1.2 2.3-.5.1.2.3.3.5.5s.3.3.5.4c.2.1.3.3.5.4.4.3.7.5 1.1.7.1.1.4.2.6.4l.6.3c.4.2.8.3 1.2.5-.6 1.5-.8 2.9-.3 4.3.2.6.5 1.2 1 1.8 2.4 2.9 2.3 4.9-.5 12.7z" fill="#4ACFFF"/><path id="XMLID_1710_" class="st113" d="M16 13.3c-2.8-.5-5.5-1.8-7.4-3.8L8 9.2l1-2.8c.4-1 1.6-1.2 2.3-.5 1.3 1.5 3.3 2.6 5 3.1-.5 1.6-.7 3-.3 4.3z" fill="#80DDFF"/><path id="XMLID_1709_" class="st10" d="M16.5 27.9L3 23 9.1 6.4c.4-1 1.6-1.2 2.3-.5 1.7 1.8 3.4 2.5 5 3.1-.8 2.2-.9 4.1.7 6.1 2.3 3 2.2 5-.6 12.8z" fill="none" stroke="#45413C" stroke-linecap="round" stroke-linejoin="round" stroke-miterlimit="10"/><path id="XMLID_1708_" class="st15" d="M30.1 21.4c-.4-.5-.3-1.2.1-1.6l2.3-2c.5-.4 1.2-.3 1.6.1.4.5.3 1.2-.1 1.6l-2.3 2c-.5.4-1.2.3-1.6-.1z" fill="#FFF" stroke="#45413C" stroke-linecap="round" stroke-linejoin="round" stroke-miterlimit="10"/><path id="XMLID_1689_" class="st15" d="M26 16.9c-.4-.5-.3-1.2.1-1.6l2.3-2c.5-.4 1.2-.3 1.6.1.4.5.3 1.2-.1 1.6l-2.3 2c-.5.4-1.2.4-1.6-.1z" fill="#FFF" stroke="#45413C" stroke-linecap="round" stroke-linejoin="round" stroke-miterlimit="10"/><path id="XMLID_1688_" class="st15" d="M34.5 25c-.4-.5-.3-1.2.1-1.6l1.9-1.6c.5-.4 1.2-.3 1.6.1.4.5.3 1.2-.1 1.6l-1.9 1.6c-.5.4-1.2.4-1.6-.1z" fill="#FFF" stroke="#45413C" stroke-linecap="round" stroke-linejoin="round" stroke-miterlimit="10"/></g></g></svg>
