<svg xmlns="http://www.w3.org/2000/svg" id="Layer_1" viewBox="0 0 32 32"><path fill="#fff" d="M15.5 2.5C8 2.5 2 8.5 2 16s6 13.5 13.5 13.5S29 23.5 29 16 23 2.5 15.5 2.5zm0 21C11.4 23.5 8 20.1 8 16s3.4-7.5 7.5-7.5S23 11.9 23 16s-3.4 7.5-7.5 7.5z"/><path fill="#ff5345" d="M8 16c0-1 .2-1.9.6-2.8l-5.9-1.3C2.2 13.2 2 14.6 2 16s.2 2.8.7 4.1l5.9-1.3C8.2 17.9 8 17 8 16zM15.5 23.5c-1 0-1.9-.2-2.8-.6l-1.3 5.9c1.3.4 2.7.7 4.1.7s2.8-.2 4.1-.7l-1.3-5.9c-.9.4-1.8.6-2.8.6zM28.3 11.9l-5.9 1.3c.4.9.6 1.8.6 2.8s-.2 1.9-.6 2.8l5.9 1.3c.4-1.3.7-2.7.7-4.1s-.2-2.8-.7-4.1zM15.5 8.5c1 0 1.9.2 2.8.6l1.3-5.9c-1.3-.4-2.7-.7-4.1-.7s-2.8.2-4.1.7l1.3 5.9c.9-.4 1.8-.6 2.8-.6z"/><path fill="#40455a" d="M15.5 30c-7.7 0-14-6.3-14-14s6.3-14 14-14 14 6.3 14 14-6.3 14-14 14zm0-27c-7.2 0-13 5.8-13 13s5.8 13 13 13 13-5.8 13-13-5.8-13-13-13z"/><path fill="#40455a" d="M15.5 24c-4.4 0-8-3.6-8-8s3.6-8 8-8 8 3.6 8 8-3.6 8-8 8zm0-15c-3.9 0-7 3.1-7 7s3.1 7 7 7 7-3.1 7-7-3.1-7-7-7z"/><path fill="#40455a" d="M22.5 30.5H22l-6.5-.5-6.4.4c-2.2.2-4.3-.6-5.8-2.2-1.5-1.5-2.3-3.7-2.2-5.8l.4-6.4-.4-6.4c-.2-2.2.6-4.3 2.1-5.9C4.7 2.2 6.9 1.4 9 1.5l6.5.5 6.4-.4c2.2-.1 4.3.6 5.8 2.2 1.5 1.5 2.3 3.7 2.2 5.8l-.4 6.4.4 6.4c.1 2.2-.6 4.3-2.2 5.8-1.3 1.5-3.3 2.3-5.2 2.3zm-.5-1.1c1.9.1 3.7-.6 5-1.9 1.3-1.3 2-3.2 1.9-5l-.4-6.5.4-6.6c.1-1.9-.6-3.7-1.9-5-1.3-1.3-3.2-2-5-1.9l-6.5.5L9 2.6c-1.9-.1-3.7.6-5 1.9-1.3 1.3-2 3.2-1.9 5l.4 6.5-.4 6.6c-.1 1.9.6 3.7 1.9 5 1.3 1.3 3.2 2 5 1.9l6.5-.4 6.5.3z"/><path fill="#40455a" d="M2.6 20.6c-.2 0-.4-.1-.5-.3-.4-1.4-.7-2.8-.7-4.3s.2-2.9.7-4.3c.1-.2.3-.4.6-.3l5.9 1.3c.1 0 .3.1.3.3s.1.3 0 .4c-.3.8-.5 1.7-.5 2.6s.2 1.8.5 2.6c.1.1 0 .3 0 .4s-.2.2-.3.3l-5.9 1.3h-.1zm.4-8.1c-.3 1.2-.5 2.3-.5 3.5s.2 2.4.5 3.5l4.9-1.1c-.3-.8-.4-1.6-.4-2.5s.1-1.7.4-2.5L3 12.5zM15.5 30c-1.5 0-2.9-.2-4.3-.7-.2-.1-.4-.3-.3-.6l1.3-5.9c0-.1.1-.3.3-.3.1-.1.3-.1.4 0 1.7.7 3.6.7 5.3 0 .1-.1.3 0 .4 0l.3.3 1.3 5.9c.1.3-.1.5-.3.6-1.5.5-2.9.7-4.4.7zM12 28.5c2.3.7 4.8.7 7.1 0L18 23.6c-1.6.5-3.3.5-4.9 0L12 28.5zM28.4 20.6h-.1l-5.9-1.3c-.1 0-.3-.1-.3-.3s-.1-.3 0-.4c.3-.8.5-1.7.5-2.6s-.2-1.8-.5-2.6c-.1-.1 0-.3 0-.4s.2-.2.3-.3l5.9-1.3c.2-.1.5.1.6.3.4 1.4.7 2.8.7 4.3s-.2 2.9-.7 4.3c-.1.2-.3.3-.5.3zm-5.3-2.1l4.9 1.1c.3-1.2.5-2.3.5-3.5s-.2-2.4-.5-3.5l-4.9 1.1c.3.8.4 1.6.4 2.5s-.1 1.5-.4 2.3zM12.7 9.6c-.1 0-.2 0-.2-.1l-.3-.3-1.3-5.9c-.1-.3.1-.5.3-.6 2.8-.9 5.8-.9 8.6 0 .2.1.4.3.3.6l-1.3 5.9c0 .1-.1.3-.3.3-.1.1-.3.1-.4 0-1.7-.7-3.6-.7-5.3 0l-.1.1zM12 3.5l1 4.9c1.6-.5 3.3-.5 4.9 0L19 3.5c-2.3-.7-4.7-.7-7 0z"/></svg>