<svg xmlns="http://www.w3.org/2000/svg" id="ScrewdriverIcon" viewBox="0 0 32 32"><path fill="#898b99" d="M5.1 11.1h14v2h-14z" transform="rotate(45.001 12.05 12.136)"></path><path fill="#898b99" d="M5 7.9L2.9 5.8 5.7 3l2.1 2.1c.4.4.4 1 0 1.4L6.4 7.9c-.4.4-1 .4-1.4 0z"></path><path fill="#e67144" d="M20.5 17.8c-.4-.4-.4-1 0-1.4l-1.4 1.4-.7.7-2.1 2.1c.4-.4 1-.4 1.4 0 .4.4.4 1 0 1.4l2.1-2.1.7-.7 1.4-1.4c-.3.4-1 .4-1.4 0z"></path><path fill="#ff9e68" d="M24.1 28.4L17.7 22l4.2-4.2 6.4 6.4c.8.8.8 2 0 2.8l-1.4 1.4c-.8.8-2 .8-2.8 0z"></path><path fill="#ff9e68" d="M14.7 16.8h6v2h-6z" transform="rotate(-45.001 17.707 17.793)"></path><path fill="#5a5d70" d="M27.9 7.6l-2.8 2.8-2.8-.7-.7-2.8 2.8-2.8L23 2.7l-3.7 3.7.9 3.3-4.6 4.6 2.1 2.1-1.4 1.4-2.1-2.1-4.5 4.5-3.3-.9L2.7 23l1.4 1.4 2.8-2.8 2.8.7.7 2.8-2.8 2.8L9 29.3l3.7-3.7-.9-3.3 10.5-10.5 3.3.9L29.3 9z"></path><path fill="#40455a" d="M25.5 27.5c-.1 0-.3 0-.4-.1l-4.9-5c-.2-.2-.2-.5 0-.7.2-.2.5-.2.7 0l4.9 5c.2.2.2.5 0 .7-.1 0-.2.1-.3.1zM26.9 26.1c-.1 0-.3 0-.4-.1l-4.9-5c-.2-.2-.2-.5 0-.7.2-.2.5-.2.7 0l4.9 5c.2.2.2.5 0 .7-.1 0-.2.1-.3.1z"></path><path fill="#40455a" d="M25.5 29.5c-.6 0-1.3-.2-1.8-.7l-6.4-6.4c-.1-.1-.1-.2-.1-.4s.1-.3.1-.4l4.2-4.2c.2-.2.5-.2.7 0l6.4 6.4c.5.5.7 1.1.7 1.8s-.3 1.3-.7 1.8l-1.4 1.4c-.4.4-1.1.7-1.7.7zM18.4 22l6 6c.6.6 1.5.6 2.1 0l1.4-1.4c.3-.3.4-.7.4-1.1 0-.4-.2-.8-.4-1.1l-6-6-3.5 3.6zM16.3 18.3c-.1 0-.3 0-.4-.1L6 8.2c-.2-.1-.2-.5 0-.7l1.4-1.4c.2-.2.5-.2.7 0L18 16c.2.2.2.5 0 .7l-1.4 1.4c-.1.1-.2.2-.3.2zM7.1 7.9l9.2 9.2.7-.7-9.2-9.2-.7.7z"></path><path fill="#40455a" d="M9 29.8c-.1 0-.3 0-.4-.1l-1.4-1.4c-.2-.2-.2-.5 0-.7L9.9 25l-.6-2.2-2.3-.7-2.6 2.6c-.2.2-.5.2-.7 0l-1.4-1.4c-.1-.1-.1-.2-.1-.4s.1-.3.1-.4L6 18.9c.1-.1.3-.2.5-.1l3 .8 4.3-4.3c.2-.2.5-.2.7 0l1.8 1.8.7-.7-1.8-1.8c-.2-.2-.2-.5 0-.7l4.4-4.4-.8-3c0-.2 0-.4.1-.5l3.7-3.7c.2-.2.5-.2.7 0l1.4 1.4c.2.2.2.5 0 .7L22.1 7l.6 2.2 2.3.7 2.6-2.6c.2-.2.5-.2.7 0l1.4 1.4c.1.1.1.2.1.4s-.1.3-.1.4L26 13.1c-.1.1-.3.2-.5.1l-3-.8-10.1 10 .8 3c0 .2 0 .4-.1.5l-3.7 3.7c-.1.2-.2.2-.4.2zm-.7-1.9l.7.7 3.2-3.2-.8-3c0-.2 0-.4.1-.5l4.1-4.1-1.4-1.4-4.1 4.1c-.1.1-.3.2-.5.1l-3-.8L3.4 23l.7.7 2.4-2.4c.1-.1.3-.2.5-.1l2.8.7c.2 0 .3.2.4.4l.7 2.8c0 .2 0 .4-.1.5l-2.5 2.3zm8-13.6l1.4 1.4 4.2-4.2c.1-.1.3-.2.5-.1l3 .8L28.6 9l-.7-.7-2.4 2.4c-.1.1-.3.2-.5.1l-2.8-.7c-.2 0-.3-.2-.4-.4L21.1 7c0-.2 0-.4.1-.5l2.4-2.4-.6-.7-3.2 3.2.8 3c0 .2 0 .4-.1.5l-4.2 4.2zM5.7 8.7c-.4 0-.8-.1-1.1-.4L2.5 6.1c-.1-.1-.1-.2-.1-.3s.1-.3.1-.4l2.8-2.8c.1-.1.2-.1.4-.1.1 0 .3.1.4.1l2.1 2.1c.2.3.4.7.4 1.1 0 .4-.2.8-.4 1.1L6.7 8.2c-.2.3-.6.5-1 .5zM3.6 5.8l1.8 1.8c.2.2.5.2.7 0l1.4-1.4c0-.2.1-.3.1-.4 0-.1-.1-.3-.1-.4L5.7 3.7 3.6 5.8z"></path><path fill="#40455a" d="M17.7 22.5c-.1 0-.3 0-.4-.1-.2-.2-.2-.5 0-.7.1-.1.1-.2.1-.3 0-.1-.1-.3-.1-.4-.2-.2-.5-.2-.7 0-.2.2-.5.2-.7 0-.1-.1-.1-.2-.1-.4s0-.3.1-.4l4.2-4.2c.2-.2.5-.2.7 0 .1.1.1.2.1.4s0 .3-.1.4c-.2.2-.2.5 0 .7.2.2.5.2.7 0 .2-.2.5-.2.7 0s.2.5 0 .7L18 22.4c0 .1-.2.1-.3.1zm-.1-2.5c.1.1.3.2.4.3.1.1.2.3.3.4l2.2-2.2c-.1-.1-.3-.2-.4-.3-.1-.1-.2-.3-.3-.4L17.6 20z"></path><path fill="#40455a" d="M16.3 21.1c-.1 0-.3 0-.4-.1l-1.4-1.4c-.2-.2-.2-.5 0-.7l4.2-4.2c.2-.2.5-.2.7 0l1.4 1.4c.2.2.2.5 0 .7L16.6 21c-.1.1-.2.1-.3.1zm-.7-1.9l.7.7 3.5-3.5-.7-.7-3.5 3.5z"></path></svg>