<svg style="width:15px;height:15px" version="1.1" xmlns="http://www.w3.org/2000/svg" width="32" height="32" viewBox="0 0 32 32" id="CommentIcon">
  <title>comment</title>
  <path d="M7.333 9.333h14.667c0.369 0 0.667-0.298 0.667-0.667s-0.298-0.667-0.667-0.667h-14.667c-0.369 0-0.667 0.298-0.667 0.667s0.298 0.667 0.667 0.667zM15.333 16h-8c-0.369 0-0.667 0.298-0.667 0.667s0.298 0.667 0.667 0.667h8c0.368 0 0.667-0.298 0.667-0.667s-0.298-0.667-0.667-0.667zM29.448 4c-0.039 0-0.076 0.010-0.115 0.011v-0.011c0-1.471-1.197-2.667-2.667-2.667h-24c-1.47 0-2.667 1.196-2.667 2.667v26c0 0.27 0.163 0.513 0.411 0.616 0.082 0.035 0.169 0.051 0.255 0.051 0.173 0 0.344-0.068 0.471-0.195l6.471-6.471h19.057c1.47 0 2.667-1.196 2.667-2.667v-11.058l1.919-1.919c0 0 0 0 0-0.001 0.475-0.475 0.747-1.133 0.747-1.804 0-1.407-1.145-2.552-2.552-2.552zM28 21.333c0 0.735-0.598 1.333-1.333 1.333h-19.333c-0.177 0-0.346 0.070-0.471 0.195l-5.529 5.529v-24.391c0-0.735 0.598-1.333 1.333-1.333h24c0.736 0 1.333 0.598 1.333 1.333v0.455c-0.127 0.087-0.248 0.183-0.357 0.292l-7.254 7.253h-13.056c-0.369 0-0.667 0.298-0.667 0.667s0.298 0.667 0.667 0.667h11.987l-0.64 3.203c-0.044 0.219 0.025 0.445 0.182 0.602 0.126 0.126 0.297 0.195 0.471 0.195 0.043 0 0.087-0.005 0.13-0.013l3.332-0.667c0.13-0.026 0.249-0.089 0.341-0.182l4.863-4.863v9.724zM22.337 15.386l-2.154 0.431 0.431-2.156 6.052-6.052 1.724 1.724-6.053 6.053zM30.31 7.414l-0.977 0.977-1.724-1.724 0.977-0.977c0.227-0.226 0.54-0.356 0.862-0.356 0.672 0 1.219 0.547 1.219 1.219 0 0.32-0.13 0.635-0.357 0.862z"></path>{' '}
</svg>
