<svg xmlns="http://www.w3.org/2000/svg" version="1.1" x="0px" y="0px" viewBox="0 0 48 48" xml space="preserve" id="CaterpillarIcon"><style type="text/css"></style><symbol id="New_Symbol_14" viewBox="-6.5 -6.5 13 13"><path class="st0" d="M0-6c2.2 0 4.1 1.5 4.7 3.5C6.3-2.5 6.4 0 5 0v1c0 2.8-2.2 5-5 5s-5-2.2-5-5V0c-1.4 0-1.3-2.5.2-2.5C-4.1-4.5-2.2-6 0-6z" fill="#FFD4C3" stroke="#504B46" stroke-linecap="round" stroke-linejoin="round" stroke-miterlimit="10"></path><circle class="st1" cx="-1.6" cy="-0.1" r="0.1" fill="#FFC258"></circle><path class="st2" d="M-1.6.5c-.3 0-.6-.3-.6-.6s.2-.7.6-.7c.3 0 .6.3.6.7s-.3.6-.6.6z" fill="#4F4B45"></path><circle class="st1" cx="1.6" cy="-0.1" r="0.1" fill="#FFC258"></circle><path class="st2" d="M1.6.5C1.3.5 1 .2 1-.1s.3-.6.6-.6.6.3.6.6-.2.6-.6.6z" fill="#4F4B45"></path><circle class="st3" cx="-3" cy="-1.5" r="0.5" fill="#FABFA5"></circle><circle class="st3" cx="3" cy="-1.5" r="0.5" fill="#FABFA5"></circle><path class="st4" d="M-1.2-3c.8-.5 1.7-.5 2.5 0" fill="none" stroke="#504B46" stroke-linecap="round" stroke-linejoin="round" stroke-miterlimit="10"></path></symbol><g id="Icons"><g id="XMLID_1931_"><ellipse id="XMLID_2072_" transform="matrix(0.3022 -0.9532 0.9532 0.3022 8.4452 60.1139)" class="st92" cx="45.3" cy="24.3" rx="2.7" ry="1.5" fill="#DEA47A" stroke="#45413C" stroke-linecap="round" stroke-linejoin="round" stroke-miterlimit="10"></ellipse><path id="XMLID_2071_" class="st74" d="M14.1 6.3s1.9-5 7.4-5.5c4.9-.5 6.1 2.3 4.6 4-1.8 2.1-5-3.2-9.9 1.7-2.2 2.2-2.1-.2-2.1-.2z" fill="#87898C"></path><path id="XMLID_2070_" class="st74" d="M15.1 6.3s-1.9-5-7.4-5.5c-4.9-.5-6.1 2.3-4.6 4 1.8 2.1 5-3.2 9.9 1.7 2.2 2.2 2.1-.2 2.1-.2z" fill="#87898C"></path><path id="XMLID_2069_" class="st76" d="M14.5 7.4c.8-1.4 2.9-4.2 6.9-4.6 2.8-.3 4.4.5 4.9 1.6.9-1.7-.5-3.9-4.9-3.5-5.5.5-7.4 5.5-7.4 5.5s.1.8.5 1z" fill="#BDBEC0"></path><path id="XMLID_2068_" class="st76" d="M7.8 2.8c4 .4 6.1 3.2 6.9 4.6.5-.2.4-1.1.4-1.1s-1.9-5-7.4-5.5C3.3.4 1.9 2.7 2.8 4.4c.6-1.1 2.2-1.8 5-1.6z" fill="#BDBEC0"></path><path id="XMLID_2067_" class="st10" d="M14.1 6.3s1.9-5 7.4-5.5c4.9-.5 6.1 2.3 4.6 4-1.8 2.1-5-3.2-9.9 1.7-2.2 2.2-2.1-.2-2.1-.2z" fill="none" stroke="#45413C" stroke-linecap="round" stroke-linejoin="round" stroke-miterlimit="10"></path><path id="XMLID_2066_" class="st10" d="M15.1 6.3s-1.9-5-7.4-5.5c-4.9-.5-6.1 2.3-4.6 4 1.8 2.1 5-3.2 9.9 1.7 2.2 2.2 2.1-.2 2.1-.2z" fill="none" stroke="#45413C" stroke-linecap="round" stroke-linejoin="round" stroke-miterlimit="10"></path><ellipse id="XMLID_2065_" class="st5" cx="23.5" cy="45.7" rx="19" ry="1.5" fill="#45413C" opacity="0.15"></ellipse><circle id="XMLID_2064_" class="st25" cx="41.4" cy="28.9" r="4.8" fill="#9CEB60"></circle><path id="XMLID_2063_" class="st27" d="M41.4 26.5c2.2 0 4.1 1.5 4.6 3.6.1-.4.2-.7.2-1.1 0-2.6-2.1-4.8-4.8-4.8s-4.8 2.1-4.8 4.8c0 .4.1.8.2 1.1.5-2.1 2.4-3.6 4.6-3.6z" fill="#C8FFA1"></path><circle id="XMLID_2062_" class="st10" cx="41.4" cy="28.9" r="4.8" fill="none" stroke="#45413C" stroke-linecap="round" stroke-linejoin="round" stroke-miterlimit="10"></circle><circle id="XMLID_2061_" class="st25" cx="35.9" cy="32.9" r="6.8" fill="#9CEB60"></circle><path id="XMLID_2060_" class="st27" d="M35.9 28.3c3.4 0 6.1 2.5 6.7 5.7.1-.4.1-.7.1-1.1 0-3.7-3-6.8-6.8-6.8s-6.7 3-6.7 6.8c0 .4 0 .7.1 1.1.4-3.2 3.2-5.7 6.6-5.7z" fill="#C8FFA1"></path><circle id="XMLID_2059_" class="st10" cx="35.9" cy="32.9" r="6.8" fill="none" stroke="#45413C" stroke-linecap="round" stroke-linejoin="round" stroke-miterlimit="10"></circle><circle id="XMLID_2058_" class="st25" cx="27.6" cy="33.7" r="8.5" fill="#9CEB60"></circle><path id="XMLID_2057_" class="st27" d="M27.6 27.7c4.3 0 7.8 3.1 8.4 7.2.1-.4.1-.8.1-1.2 0-4.7-3.8-8.5-8.5-8.5s-8.5 3.8-8.5 8.5c0 .4 0 .8.1 1.2.6-4.1 4.2-7.2 8.4-7.2z" fill="#C8FFA1"></path><circle id="XMLID_2056_" class="st10" cx="27.6" cy="33.7" r="8.5" fill="none" stroke="#45413C" stroke-linecap="round" stroke-linejoin="round" stroke-miterlimit="10"></circle><circle id="XMLID_2055_" class="st25" cx="19.6" cy="33.7" r="8.5" fill="#9CEB60"></circle><path id="XMLID_2054_" class="st26" d="M11.1 33.7c0 .7.1 1.4.3 2.1 1.5 1.3 3.4 2.1 5.5 2.1 4.7 0 8.5-3.8 8.5-8.5 0-.7-.1-1.4-.3-2.1-1.5-1.3-3.4-2.1-5.5-2.1-4.7 0-8.5 3.8-8.5 8.5z" fill="#6DD627"></path><circle id="XMLID_2053_" class="st10" cx="19.6" cy="33.7" r="8.5" fill="none" stroke="#45413C" stroke-linecap="round" stroke-linejoin="round" stroke-miterlimit="10"></circle><circle id="XMLID_2052_" class="st25" cx="15.6" cy="26.2" r="8.5" fill="#9CEB60"></circle><path id="XMLID_2051_" class="st26" d="M7.2 25.8c1.4 2.8 4.3 4.7 7.6 4.7 4.5 0 8.3-3.6 8.5-8.1-1.4-2.8-4.3-4.7-7.6-4.7-4.6 0-8.3 3.6-8.5 8.1z" fill="#6DD627"></path><circle id="XMLID_2050_" class="st10" cx="15.6" cy="26.2" r="8.5" fill="none" stroke="#45413C" stroke-linecap="round" stroke-linejoin="round" stroke-miterlimit="10"></circle><circle id="XMLID_2049_" class="st25" cx="13.6" cy="16.2" r="10.5" fill="#9CEB60"></circle><path id="XMLID_2048_" class="st27" d="M13.6 9.2c5.2 0 9.5 3.8 10.3 8.7.1-.6.2-1.2.2-1.8 0-5.8-4.7-10.5-10.5-10.5S3.1 10.4 3.1 16.2c0 .6.1 1.2.2 1.8.8-5 5.1-8.8 10.3-8.8z" fill="#C8FFA1"></path><circle id="XMLID_2047_" class="st10" cx="13.6" cy="16.2" r="10.5" fill="none" stroke="#45413C" stroke-linecap="round" stroke-linejoin="round" stroke-miterlimit="10"></circle><ellipse id="XMLID_2046_" transform="matrix(0.8302 -0.5575 0.5575 0.8302 -15.5646 11.3764)" class="st74" cx="10.9" cy="31.2" rx="3" ry="3.8" fill="#87898C"></ellipse><path id="XMLID_2045_" class="st76" d="M8.8 30.1c1.4-.9 3.4-.3 4.6 1.4.3.4.5.9.6 1.4.3-1 .1-2.3-.6-3.4-1.2-1.7-3.2-2.4-4.6-1.4-1 .7-1.4 2.1-1 3.4.2-.5.5-1 1-1.4z" fill="#BDBEC0"></path><ellipse id="XMLID_2044_" transform="matrix(0.8302 -0.5575 0.5575 0.8302 -15.5646 11.3764)" class="st10" cx="10.9" cy="31.2" rx="3" ry="3.8" fill="none" stroke="#45413C" stroke-linecap="round" stroke-linejoin="round" stroke-miterlimit="10"></ellipse><ellipse id="XMLID_2043_" transform="matrix(0.3024 -0.9532 0.9532 0.3024 -26.2261 44.7408)" class="st74" cx="17.5" cy="40.3" rx="3" ry="3.7" fill="#87898C"></ellipse><path id="XMLID_2042_" class="st76" d="M18.4 39.4c1.2.4 2.2 1.3 2.6 2.2 0-.1.1-.2.1-.2.5-1.6-.7-3.4-2.7-4-2-.6-4 .1-4.5 1.7-.2.6-.1 1.2.1 1.8.6-1.4 2.5-2 4.4-1.5z" fill="#BDBEC0"></path><ellipse id="XMLID_2041_" transform="matrix(0.3024 -0.9532 0.9532 0.3024 -26.2261 44.7408)" class="st10" cx="17.5" cy="40.3" rx="3" ry="3.7" fill="none" stroke="#45413C" stroke-linecap="round" stroke-linejoin="round" stroke-miterlimit="10"></ellipse><ellipse id="XMLID_2040_" transform="matrix(0.9621 -0.2726 0.2726 0.9621 -9.7906 10.0952)" class="st74" cx="31.4" cy="40.3" rx="3.8" ry="3" fill="#87898C"></ellipse><path id="XMLID_2039_" class="st76" d="M27.9 41.6c.4-1 1.4-1.9 2.7-2.2 1.9-.5 3.7.2 4.3 1.5.2-.5.3-1.1.1-1.7-.5-1.6-2.4-2.4-4.4-1.9-2 .6-3.2 2.3-2.8 3.9.1.2.1.3.1.4z" fill="#BDBEC0"></path><ellipse id="XMLID_2038_" transform="matrix(0.9621 -0.2726 0.2726 0.9621 -9.7906 10.0952)" class="st10" cx="31.4" cy="40.3" rx="3.8" ry="3" fill="none" stroke="#45413C" stroke-linecap="round" stroke-linejoin="round" stroke-miterlimit="10"></ellipse><ellipse id="XMLID_2037_" transform="matrix(0.2284 -0.9736 0.9736 0.2284 -4.7686 20.2573)" class="st93" cx="10.4" cy="13.1" rx="1.8" ry="1.8" fill="#45413C"></ellipse><path id="XMLID_2036_" class="st59" d="M15.1 18.7c-.2.5-1.2.9-2.1.7-.9-.1-1.5-.7-1.3-1.2.2-.5 1.2-.9 2.1-.7 1 .1 1.6.6 1.3 1.2z" fill="#46B000"></path><path id="XMLID_2035_" class="st47" d="M3.6 13.7s-3.1 1.4-2.5 5c.5 3.2 4 3.5 4 3.5s2.2-.1 2.5-3c.4-3.5-4-5.5-4-5.5z" fill="#FFAA54"></path><path id="XMLID_2034_" class="st50" d="M1.2 18.9c0-.1 0-.1 0 0 .5-2.3 3.4-3 5-1.3.6.6 1.1 1.4 1.4 2.3 0-.2.1-.4.1-.7.3-3.5-4-5.5-4-5.5s-3.1 1.4-2.5 5v.2z" fill="#FC9"></path><path id="XMLID_2033_" class="st10" d="M3.6 13.7s-3.1 1.4-2.5 5c.5 3.2 4 3.5 4 3.5s2.2-.1 2.5-3c.4-3.5-4-5.5-4-5.5z" fill="none" stroke="#45413C" stroke-linecap="round" stroke-linejoin="round" stroke-miterlimit="10"></path><path id="XMLID_2032_" class="st10" d="M1.1 18.7s3 1.5 6.5 0" fill="none" stroke="#45413C" stroke-linecap="round" stroke-linejoin="round" stroke-miterlimit="10"></path><path id="XMLID_2031_" class="st38" d="M10.6 31.1c-1.2-1.9-2.3-.3-4 .4-1.9.7-1.8 2.3 1 3 3.1.7 4.3-1.3 3-3.4z" fill="#DEA47A"></path><path id="XMLID_1720_" class="st94" d="M6.6 33.1c1.8-.7 2.8-2.2 4-.4.2.2.3.5.4.7.3-.7.2-1.5-.4-2.3-1.2-1.9-2.3-.3-4 .4-1.3.5-1.7 1.4-.9 2.1.2-.2.5-.4.9-.5z" fill="#F0C2A1"></path><path id="XMLID_1719_" class="st10" d="M10.6 31.1c-1.2-1.9-2.3-.3-4 .4-1.9.7-1.8 2.3 1 3 3.1.7 4.3-1.3 3-3.4z" fill="none" stroke="#45413C" stroke-linecap="round" stroke-linejoin="round" stroke-miterlimit="10"></path><path id="XMLID_1718_" class="st38" d="M16.6 40.1c-2.2 0-1.5 1.8-1.8 3.6-.4 2 1 2.8 3.1.7 2.3-2.2 1.2-4.3-1.3-4.3z" fill="#DEA47A"></path><path id="XMLID_1594_" class="st94" d="M15.9 42.2c1.4 0 2.4.7 2.5 1.7 1.5-2 .4-3.8-1.8-3.7-1.7 0-1.7 1-1.7 2.2.3-.2.6-.2 1-.2z" fill="#F0C2A1"></path><path id="XMLID_1593_" class="st10" d="M16.6 40.1c-2.2 0-1.5 1.8-1.8 3.6-.4 2 1 2.8 3.1.7 2.3-2.2 1.2-4.3-1.3-4.3z" fill="none" stroke="#45413C" stroke-linecap="round" stroke-linejoin="round" stroke-miterlimit="10"></path><path id="XMLID_1592_" class="st38" d="M30.9 41.2c-1.3 1.8.5 2.2 1.8 3.7 1.4 1.5 2.8.9 2.5-2-.5-3.2-2.9-3.6-4.3-1.7z" fill="#DEA47A"></path><path id="XMLID_1591_" class="st94" d="M30.9 42.9c1.5-1.9 3.8-1.5 4.2 1.5.1-.4.1-1 0-1.6-.4-3.2-2.7-3.6-4.2-1.7-.7.9-.6 1.4-.1 1.9 0 .1 0 0 .1-.1z" fill="#F0C2A1"></path><path id="XMLID_1590_" class="st10" d="M30.9 41.2c-1.3 1.8.5 2.2 1.8 3.7 1.4 1.5 2.8.9 2.5-2-.5-3.2-2.9-3.6-4.3-1.7z" fill="none" stroke="#45413C" stroke-linecap="round" stroke-linejoin="round" stroke-miterlimit="10"></path><ellipse id="XMLID_1589_" transform="matrix(0.826 -0.5637 0.5637 0.826 -14.2173 29.3274)" class="st74" cx="40.4" cy="37.7" rx="3" ry="2.4" fill="#87898C"></ellipse><path id="XMLID_1588_" class="st76" d="M39 37.4c1.4-.9 3.1-.8 3.8.3.1.1.1.2.2.4.2-.7.2-1.4-.2-2-.7-1.1-2.5-1.2-3.8-.3-1.2.8-1.8 2.2-1.3 3.3.2-.7.7-1.3 1.3-1.7z" fill="#BDBEC0"></path><ellipse id="XMLID_1587_" transform="matrix(0.826 -0.5637 0.5637 0.826 -14.2173 29.3274)" class="st10" cx="40.4" cy="37.7" rx="3" ry="2.4" fill="none" stroke="#45413C" stroke-linecap="round" stroke-linejoin="round" stroke-miterlimit="10"></ellipse><path id="XMLID_1586_" class="st38" d="M39.8 38.5c-.7 1.6.8 1.7 2 2.6 1.3 1 2.3.2 1.6-2-.8-2.4-2.8-2.4-3.6-.6z" fill="#DEA47A"></path><path id="XMLID_1585_" class="st94" d="M39.8 39.8c.8-1.8 2.7-1.8 3.6.6.1.2.1.4.2.6.2-.4.1-1-.2-1.9-.8-2.4-2.7-2.4-3.6-.6-.3.6-.2 1 0 1.3z" fill="#F0C2A1"></path><path id="XMLID_1584_" class="st10" d="M39.8 38.5c-.7 1.6.8 1.7 2 2.6 1.3 1 2.3.2 1.6-2-.8-2.4-2.8-2.4-3.6-.6z" fill="none" stroke="#45413C" stroke-linecap="round" stroke-linejoin="round" stroke-miterlimit="10"></path></g></g></svg>
