<svg xmlns="http://www.w3.org/2000/svg" width="24" height="24" viewBox="0 0 24 24"><g fill="#200E32" fill-rule="nonzero" transform="translate(2 3)"><path d="M9.77598457,18.8374475 C7.49294215,17.4272969 5.37064307,15.7645418 3.44790564,13.879595 C2.09052407,12.533765 1.05387954,10.8904665 0.417182445,9.07526437 C-0.720449721,5.53523128 0.603825223,1.48947918 4.30112976,0.288396524 C6.25263886,-0.324468951 8.3750691,0.051754428 10.0070661,1.29983455 L10.0070661,1.29983455 C11.6396582,0.0531502943 13.7613986,-0.3229508 15.7130024,0.288396524 C19.410307,1.48947918 20.7434697,5.53523128 19.6058375,9.07526437 C18.9743119,10.888755 17.9438391,12.5319072 16.5928898,13.879595 C14.6684032,15.7624821 12.5463376,17.4250543 10.2648109,18.8374475 L10.0159539,19 L9.77598457,18.8374475 Z" opacity=".4"/><path d="M10.0109048 19L9.77598457 18.8374475C7.49012946 17.4274216 5.36487144 15.7646835 3.43901789 13.879595 2.07520218 12.5356298 1.03238422 10.8921841.390519191 9.07526437-.738225224 5.53523128.58604972 1.48947918 4.28335426.288396524 6.23486336-.324468951 8.38528326.0520425888 10.0109048 1.3105726L10.0109048 19zM16.2304417 6.99922446L16.2304417 6.99922446C16.0295659 6.98628967 15.8424985 6.88589756 15.7130615 6.72156578 15.5836245 6.55723399 15.5231904 6.34340098 15.5459164 6.13015881L15.5459164 6.13015881C15.5676556 5.42780276 15.1680152 4.78850511 14.551725 4.53976867 14.1609281 4.43309186 13.9242727 4.00986624 14.0220329 3.59248711 14.1147948 3.1818187 14.4993444 2.92647042 14.8858385 3.01890378 14.9346434 3.02699821 14.9816165 3.0446787 15.0243734 3.07104772 16.260078 3.54657947 17.0601294 4.8264072 16.996458 6.22575603 16.9944451 6.43785106 16.9117483 6.63998005 16.7673241 6.78580928 16.6228999 6.93163852 16.4291335 7.00866225 16.2304417 6.99922446z"/></g></svg>