<svg
  width="32pt"
  height="32pt"
  viewBox="0 0 32 32"
  version="1.1"
  id="InstagramIcon"
>
  <path
    d="M 14.585328 -0.00107422 L 5.412965 -0.00107422 C 2.424684 0.00380859 0.00280859 2.425684 0.000367188 5.413965 L 0.000367188 14.586328 C 0.00280859 17.574609 2.424684 19.996484 5.412965 19.998926 L 14.585328 19.998926 C 17.573609 19.996484 19.995484 17.574609 20.000367 14.586328 L 20.000367 5.413965 C 19.995484 2.425684 17.573609 0.00380859 14.585328 -0.00107422 Z M 18.826051 14.586328 C 18.823609 16.927637 16.926637 18.824609 14.585328 18.827051 L 5.412965 18.827051 C 3.071656 18.824609 1.174684 16.927637 1.172242 14.586328 L 1.172242 5.413965 C 1.174684 3.072656 3.071656 1.175684 5.412965 1.170801 L 14.585328 1.170801 C 16.926637 1.175684 18.823609 3.072656 18.826051 5.413965 Z M 18.826051 14.586328 "
    transform="matrix(1.6,0,0,1.6,0.2416,0.24)"
  />
  <path
    d="M 121.356926 116.00048 C 118.400383 116.00048 116.002922 118.397941 116.002922 121.354484 C 116.002922 124.311027 118.400383 126.708488 121.356926 126.708488 C 124.31591 126.708488 126.71093 124.311027 126.71093 121.354484 C 126.708488 118.397941 124.313469 116.002922 121.356926 116.00048 Z M 121.356926 125.561027 C 119.035148 125.561027 117.152824 123.676262 117.152824 121.354484 C 117.152824 119.030266 119.035148 117.147941 121.356926 117.147941 C 123.681145 117.147941 125.563469 119.030266 125.563469 121.354484 C 125.563469 123.676262 123.681145 125.561027 121.356926 125.563469 Z M 121.356926 125.561027 "
    transform="matrix(1.6,0,0,1.6,-177.9328,-177.9328)"
  />
  <path
    d="M 359.634648 66.286176 C 358.719121 66.286176 357.976934 67.025922 357.976934 67.941449 C 357.976934 68.856977 358.719121 69.599164 359.634648 69.599164 C 360.550176 69.599164 361.289922 68.856977 361.289922 67.941449 C 361.289922 67.028363 360.547734 66.286176 359.634648 66.286176 Z M 359.634648 68.395551 C 359.383184 68.395551 359.178105 68.192914 359.178105 67.941449 C 359.178105 67.689984 359.383184 67.484906 359.634648 67.484906 C 359.886113 67.484906 360.08875 67.689984 360.08875 67.941449 C 360.091191 68.06352 360.042363 68.178266 359.956914 68.266156 C 359.871465 68.351605 359.754277 68.400434 359.634648 68.400434 Z M 359.634648 68.395551 "
    transform="matrix(1.6,0,0,1.6,-550.392,-101.5696)"
  />
</svg>
