<svg xmlns="http://www.w3.org/2000/svg" id="Layer_1" viewBox="0 0 32 32"><circle cx="19" cy="13.1" r="7.5" fill="#898b99"/><circle cx="19" cy="13.1" r="6" fill="#fff"/><path fill="#67acd5" d="M24.8 21.9l-2.2-2.2c-.3-.3-.9-.4-1.3-.1L19.1 21c-.8.5-1.8.4-2.5-.2l-5.5-5.5c-.7-.7-.8-1.7-.2-2.5l1.5-2.2c.3-.4.2-.9-.1-1.3L10 7.1c-.4-.4-1-.4-1.4 0L6.6 9c-1 1-1.4 2.4-1.1 3.8.6 2.3 1.7 4.3 3.4 6l4.1 4.1c1.7 1.7 3.7 2.8 6 3.4 1.4.3 2.8-.1 3.8-1.1l1.9-1.9c.5-.4.5-1 .1-1.4z"/><path fill="#5791d1" d="M23.4 24.8l1.5-1.5c.4-.4.4-1 0-1.4l-2.2-2.2c-.3-.3-.9-.4-1.3-.1l-1.9 1.3 3.9 3.9zM11.1 12.5l1.3-1.9c.3-.4.2-.9-.1-1.3L10 7.1c-.4-.4-1-.4-1.4 0L7.1 8.5l4 4z"/><path fill="#40455a" d="M19 8.1c-.3 0-.5-.2-.5-.5V6.1c0-.3.2-.5.5-.5s.5.2.5.5v1.5c0 .3-.2.5-.5.5zM22.1 7.9c-.1 0-.2 0-.2-.1-.2-.1-.3-.4-.2-.7l.5-.9c.1-.2.4-.3.7-.2.2.1.3.4.2.7l-.5.9c-.1.2-.3.3-.5.3zM24.6 10.4c-.2 0-.3-.1-.4-.3-.1-.2-.1-.5.2-.7l.8-.4c.2-.1.5-.1.7.2.1.2.1.5-.2.7l-.8.5h-.3zM25.5 17.4c-.1 0-.2 0-.2-.1l-.9-.5c-.2-.1-.3-.4-.2-.7.1-.2.4-.3.7-.2l.9.5c.2.1.3.4.2.7-.2.2-.3.3-.5.3zM26.5 13.6h-2c-.3 0-.5-.2-.5-.5s.2-.5.5-.5h2c.3 0 .5.2.5.5s-.2.5-.5.5zM23 15.1h-3c-.1 0-.3-.1-.4-.2s-.1-.3-.1-.4l.8-4c.1-.3.3-.4.6-.4.3.1.5.3.4.6l-.6 3.4H23c.3 0 .5.2.5.5s-.2.5-.5.5z"/><path fill="#40455a" d="M22 16.1c-.3 0-.5-.2-.5-.5v-3c0-.3.2-.5.5-.5s.5.2.5.5v3c0 .3-.2.5-.5.5zM18 16.1h-3c-.2 0-.4-.1-.5-.3s0-.4.1-.5l2.6-2.5c.2-.2.3-.4.3-.7 0-.5-.5-1-1-1s-1 .5-1 1c0 .3-.2.5-.5.5s-.5-.2-.5-.5c0-1.1.9-2 2-2s2 .9 2 2c0 .5-.2 1-.6 1.4l-1.7 1.6H18c.3 0 .5.2.5.5s-.2.5-.5.5zM15.8 8c-.2 0-.3-.1-.4-.3l-.5-.8c-.1-.2-.1-.5.2-.7.2-.1.5-.1.7.2l.5.8c.1.2.1.5-.2.7-.2.1-.3.1-.3.1z"/><path fill="#40455a" d="M20.1 26.9c-.4 0-.7 0-1.1-.1-2.4-.6-4.5-1.8-6.2-3.5l-4.1-4.1C7 17.5 5.8 15.3 5.2 13c-.4-1.5.1-3.2 1.2-4.3l1.9-1.9c.6-.6 1.5-.6 2.1 0L12.6 9c.5.5.6 1.3.2 1.9L11.4 13c-.4.6-.3 1.4.2 1.9l5.5 5.5c.5.5 1.3.6 1.9.2l2.2-1.5c.6-.4 1.4-.3 1.9.2l2.2 2.2c.6.6.6 1.5 0 2.1l-1.9 1.9c-1 .9-2.1 1.4-3.3 1.4zM9.3 7.2c-.1 0-.3 0-.4.1L7 9.3c-.9.9-1.2 2.1-.9 3.3.5 2.2 1.7 4.2 3.3 5.7l4.1 4.1c1.6 1.6 3.6 2.7 5.7 3.3 1.2.3 2.5-.1 3.3-.9l1.9-1.9c.2-.2.2-.5 0-.7L22.2 20c-.2-.2-.4-.2-.6-.1l-2.2 1.5c-1 .7-2.3.5-3.2-.3l-5.5-5.5c-.8-.8-1-2.2-.3-3.2l1.5-2.2c.1-.2.1-.5-.1-.6L9.7 7.3c-.1 0-.2-.1-.4-.1zM24.3 18.9c-.1 0-.3 0-.4-.1-.2-.2-.2-.5 0-.7 1.3-1.3 2-3.1 2-4.9 0-3.9-3.1-7-7-7-1.9 0-3.6.7-4.9 2l-.1.1c-.2.2-.5.1-.7-.1-.2-.2-.2-.5 0-.7C14.9 6 16.9 5.1 19 5.1c4.4 0 8 3.6 8 8 0 2.1-.8 4.1-2.3 5.6-.1.2-.3.2-.4.2z"/><path fill="#40455a" d="M11.1 12.8c-.1 0-.3 0-.4-.1L7.2 9.1c-.2-.2-.2-.5 0-.7.2-.2.5-.2.7 0l3.6 3.5c.2.2.2.5 0 .7-.1.1-.3.2-.4.2zM23.1 24.8c-.1 0-.3 0-.4-.1l-3.5-3.5c-.2-.2-.2-.5 0-.7s.5-.2.7 0l3.5 3.5c.2.2.2.5 0 .7 0 .1-.2.1-.3.1z"/></svg>