<svg xmlns="http://www.w3.org/2000/svg" id="Layer_1" viewBox="0 0 32 32"><path fill="#a17852" d="M24 13.9c2.5 0 4.5 2 4.5 4.5v3.7c0 .5-.3.9-.8 1l-.2.1c-.5.1-1.1.2-1.6.3h-3.6c-.6-.1-1.1-.2-1.7-.3l-.2-.1c-.5-.1-.8-.5-.8-1v-3.7c-.1-2.5 1.9-4.5 4.4-4.5z"/><path fill="#fed8aa" d="M19.3 25.2l2.9-1v-2.8h3.6v2.8l2.9 1c1.1.4 1.8 1.3 1.8 2.5V30h-13v-2.3c0-1.2.7-2.2 1.8-2.5z"/><path fill="#40455a" d="M30.5 30.4h-13c-.3 0-.5-.2-.5-.5v-2.3c0-1.3.9-2.5 2.1-2.9l2.6-.8v-2.4c0-.3.2-.5.5-.5h3.6c.3 0 .5.2.5.5v2.4l2.6.8c1.3.4 2.1 1.6 2.1 2.9v2.3c0 .3-.2.5-.5.5zm-12.5-1h12v-1.8c0-.9-.6-1.7-1.4-2l-2.9-1c-.2-.1-.3-.3-.3-.5v-2.3h-2.6v2.3c0 .2-.1.4-.3.5l-2.9 1c-.9.3-1.4 1.1-1.4 2v1.8z"/><path fill="#67acd5" d="M19.3 25.2l1.8-.6c.4 1.5 2.9 2.6 2.9 2.6s2.5-1.1 2.9-2.6l1.8.6c1.1.4 1.8 1.3 1.8 2.5V30h-13v-2.3c0-1.2.7-2.2 1.8-2.5z"/><path fill="#40455a" d="M30.5 30.5h-13c-.3 0-.5-.2-.5-.5v-2.4c0-1.3.9-2.5 2.1-2.9l1.8-.6h.4c.1.1.2.2.2.3.3.9 1.7 1.8 2.5 2.2.7-.4 2.2-1.2 2.4-2.2 0-.1.1-.2.2-.3.1-.1.3-.1.4 0l1.8.6c1.3.4 2.1 1.6 2.1 2.9V30c.1.3-.1.5-.4.5zm-12.5-1h12v-1.9c0-.9-.6-1.7-1.4-2l-1.4-.4c-.8 1.4-2.8 2.3-3 2.4-.1.1-.3.1-.4 0-.2-.1-2.2-1-3-2.4l-1.4.5c-.9.3-1.4 1.1-1.4 2v1.8zm1.3-4.3z"/><path fill="#5791d1" d="M17.5 29.9v-2.3c0-.5.1-.9.4-1.3 1.5.2 2.7 1.5 2.7 3.1v.5h-3.1zM30.5 29.9v-2.3c0-.5-.1-.9-.4-1.3-1.5.2-2.7 1.5-2.7 3.1v.5h3.1z"/><path fill="#fed8aa" d="M21.5 17.9v2.5c0 1.4 1.1 2.5 2.5 2.5s2.5-1.1 2.5-2.5v-2.5"/><path fill="#a3d86b" d="M9.8 24.2l2.9 1c1.1.4 1.8 1.3 1.8 2.5V30h-13v-2.3c0-1.1.7-2.1 1.8-2.5l2.9-1"/><path fill="#fed8aa" d="M9.8 22.6v1.3c0 .3-.1.5-.3.7-.8 1-2.3 1-3.1 0-.2-.2-.3-.5-.3-.7v-1.3"/><path fill="#a3d86b" d="M1.5 29.9v-2.3c0-.5.1-.9.4-1.3 1.5.2 2.7 1.5 2.7 3.1v.5H1.5zM14.5 29.9v-2.3c0-.5-.1-.9-.4-1.3-1.5.2-2.7 1.5-2.7 3.1v.5h3.1z"/><path fill="#fed8aa" d="M11.5 16.6v2.9c0 1.9-1.6 3.5-3.5 3.5s-3.5-1.6-3.5-3.5v-2.9h7z"/><path fill="#a17852" d="M11.5 18.7l.6-1.8c.2-.8-.4-1.6-1.3-1.6 0-1-.9-1.7-1.8-1.6l-3.8.6c-.9.1-1.5 1-1.3 1.9l.6 2.5 1.3-1c.2-.1.4-.2.6-.2h3.3c.2 0 .5.1.6.2l1.2 1z"/><path fill="#fff" d="M28.5 2h-10c-.6 0-1 .4-1 1v7c0 .6.4 1 1 1h6l3 2v-2h1c.6 0 1-.4 1-1V3c0-.5-.4-1-1-1zM12.5 5h-9c-.6 0-1 .4-1 1v4c0 .6.4 1 1 1h1v2l3-2h5c.6 0 1-.4 1-1V6c0-.5-.5-1-1-1z"/><path fill="#40455a" d="M30.5 30.5h-3.1c-.3 0-.5-.2-.5-.5v-.5c0-1.8 1.4-3.4 3.2-3.6.2 0 .4.1.5.2.3.5.4 1 .4 1.6V30c0 .3-.2.5-.5.5zm-2.6-1H30v-1.8c0-.3-.1-.5-.2-.8-1.1.3-1.9 1.4-1.9 2.6zM27.5 13.5c-.1 0-.2 0-.3-.1l-2.9-1.9h-5.8c-.8 0-1.5-.7-1.5-1.5V3c0-.8.7-1.5 1.5-1.5h10c.8 0 1.5.7 1.5 1.5v7c0 .8-.7 1.5-1.5 1.5H28V13c0 .2-.1.4-.3.4 0 .1-.1.1-.2.1zm-9-11c-.3 0-.5.2-.5.5v7c0 .3.2.5.5.5h6c.1 0 .2 0 .3.1l2.2 1.5V11c0-.3.2-.5.5-.5h1c.3 0 .5-.2.5-.5V3c0-.3-.2-.5-.5-.5h-10zM4.5 13.5c-.1 0-.2 0-.2-.1-.2 0-.3-.2-.3-.4v-1.5h-.5c-.8 0-1.5-.7-1.5-1.5V6c0-.8.7-1.5 1.5-1.5h9c.8 0 1.5.7 1.5 1.5v4c0 .8-.7 1.5-1.5 1.5H7.6l-2.9 1.9c0 .1-.1.1-.2.1zm-1-8c-.3 0-.5.2-.5.5v4c0 .3.2.5.5.5h1c.3 0 .5.2.5.5v1.1l2.2-1.5c.1-.1.2-.1.3-.1h5c.3 0 .5-.2.5-.5V6c0-.3-.2-.5-.5-.5h-9zM8 25.9c-.8 0-1.5-.3-1.9-.9-.3-.3-.4-.7-.4-1v-1.3c0-.3.2-.5.5-.5s.5.2.5.5V24c0 .1.1.3.2.4.3.3.7.5 1.1.5.5 0 .9-.2 1.1-.5.1-.1.2-.3.2-.4v-1.3c0-.3.2-.5.5-.5s.5.2.5.5V24c0 .3-.1.7-.4 1-.4.6-1.1.9-1.9.9z"/><path fill="#40455a" d="M8 23.6c-2.2 0-4-1.8-4-4v-.9c0-.3.2-.5.5-.5s.5.1.5.4v.9c0 1.7 1.3 3 3 3s3-1.3 3-3v-.9c0-.3.2-.5.5-.5s.5.2.5.5v.9c0 2.3-1.8 4.1-4 4.1z"/><path fill="#40455a" d="M4.5 19.3h-.2c-.1-.1-.3-.2-.3-.4l-.6-2.5c-.1-.6 0-1.2.3-1.6.3-.4.8-.8 1.4-.8l3.8-.6c.6-.1 1.2.1 1.7.5.4.3.6.7.7 1.2.4.1.7.3.9.6.3.4.5 1 .4 1.5L12 19c-.1.2-.2.3-.3.3-.2 0-.3 0-.5-.1l-1.2-1c-.1-.1-.2-.2-.4-.2H6.4c-.1 0-.2 0-.3.1l-1.3 1c-.1.1-.2.2-.3.2zM6.4 17h3.3c.4 0 .7.1 1 .3l.7.6.4-1.1c0-.2 0-.4-.2-.6-.2-.2-.4-.3-.6-.3-.3 0-.5-.2-.5-.5 0-.4-.1-.7-.4-.9-.2-.2-.6-.3-.9-.2l-3.8.6c-.3 0-.6.2-.7.5-.2.2-.2.5-.2.8l.4 1.7.6-.5c.2-.3.5-.4.9-.4zM14.5 30.5h-13c-.3 0-.5-.2-.5-.5v-2.3c0-1.3.9-2.5 2.1-2.9l2.9-1c.3-.1.5.1.6.3.1.3-.1.5-.3.6l-2.9 1c-.8.3-1.4 1.1-1.4 2v1.8h12v-1.8c0-.9-.6-1.7-1.4-2l-2.9-1c-.3-.1-.4-.4-.3-.6.1-.3.4-.4.6-.3l2.9 1c1.3.4 2.1 1.6 2.1 2.9V30c0 .3-.2.5-.5.5z"/><path fill="#40455a" d="M4.6 30.5H1.5c-.3 0-.5-.2-.5-.5v-2.3c0-.6.2-1.1.4-1.6.1-.2.3-.3.5-.2 1.8.2 3.2 1.8 3.2 3.6v.5c0 .3-.2.5-.5.5zm-2.6-1h2.1c0-1.2-.8-2.2-2-2.5 0 .2-.1.4-.1.7v1.8zM14.5 30.5h-3.1c-.3 0-.5-.2-.5-.5v-.5c0-1.8 1.4-3.4 3.2-3.6.2 0 .4.1.5.2.3.5.4 1 .4 1.6V30c0 .3-.2.5-.5.5zm-2.6-1H14v-1.8c0-.3-.1-.5-.2-.8-1.1.3-1.9 1.4-1.9 2.6zM9.5 9.5h-5c-.3 0-.5-.2-.5-.5s.2-.5.5-.5h5c.3 0 .5.2.5.5s-.2.5-.5.5zM11.5 7.5h-7c-.3 0-.5-.2-.5-.5s.2-.5.5-.5h7c.3 0 .5.2.5.5s-.2.5-.5.5zM24 23.5c-1.7 0-3-1.3-3-3V18c0-.3.2-.5.5-.5s.5.2.5.5v2.5c0 1.1.9 2 2 2s2-.9 2-2V18c0-.3.2-.5.5-.5s.5.2.5.5v2.5c0 1.7-1.3 3-3 3zM30.5 30.5h-3.1c-.3 0-.5-.2-.5-.5v-.5c0-1.8 1.4-3.4 3.2-3.6.2 0 .4.1.5.2.3.5.4 1 .4 1.6V30c0 .3-.2.5-.5.5zm-2.6-1H30v-1.8c0-.3-.1-.5-.2-.8-1.1.3-1.9 1.4-1.9 2.6zM20.6 30.5h-3.1c-.3 0-.5-.2-.5-.5v-2.3c0-.6.2-1.1.4-1.6.1-.2.3-.3.5-.2 1.8.2 3.2 1.8 3.2 3.6v.5c0 .3-.2.5-.5.5zm-2.6-1h2.1c0-1.2-.8-2.2-2-2.5-.1.2-.2.5-.2.8v1.7z"/><path fill="#40455a" d="M22 18.5h-.5c-.3 0-.5-.2-.5-.5s.2-.5.5-.5h.5c.3 0 .5-.2.5-.5s.2-.5.5-.5.5.2.5.5c0 .8-.7 1.5-1.5 1.5zM28.5 21.5c-.3 0-.5-.2-.5-.5v-1c0-.8-.7-1.5-1.5-1.5h-2c-.3 0-.5-.2-.5-.5s.2-.5.5-.5h2c1.4 0 2.5 1.1 2.5 2.5v1c0 .3-.2.5-.5.5z"/><path fill="#40455a" d="M26 18.5h-2c-.8 0-1.5-.7-1.5-1.5 0-.3.2-.5.5-.5s.5.2.5.5.2.5.5.5h2c.3 0 .5.2.5.5s-.2.5-.5.5zM25 21.5h-.5c-.3 0-.5-.2-.5-.5s.2-.5.5-.5h.5c.6 0 1-.4 1-1 0-.3.2-.5.5-.5s.5.2.5.5c0 1.1-.9 2-2 2z"/><path fill="#40455a" d="M25.8 24c-.1 0-.2 0-.3-.1-.1-.1-.2-.2-.2-.4v-1c0-.3.2-.5.5-.5s.5.2.5.5v.5c.4-.1.7-.1 1-.2l.2-.1c.2 0 .4-.3.4-.5v-3.7c0-2.2-1.8-4-4-4s-4 1.8-4 4v3.7c0 .2.2.4.4.5l.2.1c.3.1.7.1 1 .2v-.4c0-.3.2-.5.5-.5s.5.2.5.5v1c0 .1-.1.3-.2.4h-.2c-.6-.1-1.2-.2-1.7-.3l-.2-.1c-.7-.2-1.2-.8-1.2-1.5v-3.7c0-2.8 2.2-5 5-5s5 2.2 5 5v3.7c0 .7-.5 1.3-1.2 1.5l-.2.1c-.6.2-1.1.2-1.8.3.1 0 0 0 0 0zM23.5 7.5c-.3 0-.5-.2-.5-.5v-.3c0-.6.3-1 .7-1.3.2 0 .3-.2.3-.4 0-.3-.2-.5-.5-.5s-.5.2-.5.5-.2.5-.5.5-.5-.2-.5-.5c0-.8.7-1.5 1.5-1.5S25 4.2 25 5c0 .6-.3 1.1-.8 1.3-.1.1-.2.3-.2.4V7c0 .3-.2.5-.5.5zM23.5 9.5c-.3 0-.5-.2-.5-.5s.2-.5.5-.5.5.2.5.5-.2.5-.5.5z"/></svg>