<svg xmlns="http://www.w3.org/2000/svg" id="Layer_1" viewBox="0 0 32 32"><path fill="#fff" d="M17.5 15l4.8-3.6c.8-.6 1.2-1.5 1.2-2.4V3.5h-15V9c0 .9.4 1.8 1.2 2.4l4.8 3.6v2l-4.8 3.6c-.8.6-1.2 1.5-1.2 2.4v5.5h15V23c0-.9-.4-1.8-1.2-2.4L17.5 17v-2z"/><path fill="#ffda87" d="M17.5 15l4.8-3.6c.8-.6 1.2-1.5 1.2-2.4v-.5h-15V9c0 .9.4 1.8 1.2 2.4l4.8 3.6v2h3v-2z"/><path fill="#5c5e70" d="M23.5 3.5h-15c-.6 0-1-.4-1-1s.4-1 1-1h15c.6 0 1 .4 1 1s-.4 1-1 1z"/><path fill="#516d97" d="M8.5 8.5h15M14.5 17h3M16 17.5v6M14.5 15h3"/><path fill="#5c5e70" d="M23.5 30.5h-15c-.6 0-1-.4-1-1s.4-1 1-1h15c.6 0 1 .4 1 1s-.4 1-1 1z"/><path fill="#ffda87" d="M8.5 27v1.5h15V27c0-.9-.6-1.7-1.5-1.9l-6-1.6-6 1.6c-.9.2-1.5 1-1.5 1.9z"/><path fill="#40455a" d="M23.5 4h-15C7.7 4 7 3.3 7 2.5S7.7 1 8.5 1h15c.8 0 1.5.7 1.5 1.5S24.3 4 23.5 4zm-15-2c-.3 0-.5.2-.5.5s.2.5.5.5h15c.3 0 .5-.2.5-.5s-.2-.5-.5-.5h-15zM23.5 9h-15c-.3 0-.5-.2-.5-.5s.2-.5.5-.5h15c.3 0 .5.2.5.5s-.2.5-.5.5zM17.5 17.5h-3c-.3 0-.5-.2-.5-.5s.2-.5.5-.5h3c.3 0 .5.2.5.5s-.2.5-.5.5z"/><path fill="#40455a" d="M16 24c-.3 0-.5-.2-.5-.5v-6c0-.3.2-.5.5-.5s.5.2.5.5v6c0 .3-.2.5-.5.5zM17.5 15.5h-3c-.3 0-.5-.2-.5-.5s.2-.5.5-.5h3c.3 0 .5.2.5.5s-.2.5-.5.5z"/><path fill="#40455a" d="M23.5 29h-15c-.3 0-.5-.2-.5-.5V23c0-1.1.5-2.1 1.4-2.8l4.6-3.5v-1.5l-4.6-3.5C8.5 11.1 8 10.1 8 9V3.5c0-.3.2-.5.5-.5h15c.3 0 .5.2.5.5V9c0 1.1-.5 2.1-1.4 2.8L18 15.3v1.5l4.6 3.5c.9.7 1.4 1.7 1.4 2.8v5.5c0 .2-.2.4-.5.4zM9 28h14v-5c0-.8-.4-1.5-1-2l-4.8-3.6c-.1-.1-.2-.2-.2-.4v-2c0-.2.1-.3.2-.4L22 11c.6-.5 1-1.2 1-2V4H9v5c0 .8.4 1.5 1 2l4.8 3.6c.1.1.2.2.2.4v2c0 .2-.1.3-.2.4L10 21c-.6.5-1 1.2-1 2v5z"/><path fill="#40455a" d="M23.5 31h-15c-.8 0-1.5-.7-1.5-1.5S7.7 28 8.5 28h15c.8 0 1.5.7 1.5 1.5s-.7 1.5-1.5 1.5zm-15-2c-.3 0-.5.2-.5.5s.2.5.5.5h15c.3 0 .5-.2.5-.5s-.2-.5-.5-.5h-15z"/><path fill="#40455a" d="M23.5 29h-15c-.3 0-.5-.2-.5-.5V27c0-1.1.8-2.1 1.9-2.4l6-1.6h.3l6 1.6c1.1.3 1.9 1.3 1.9 2.4v1.5c-.1.3-.3.5-.6.5zM9 28h14v-1c0-.7-.5-1.3-1.1-1.4L16 24l-5.9 1.6c-.6.2-1.1.8-1.1 1.4v1z"/></svg>