<svg xmlns="http://www.w3.org/2000/svg" id="Layer_1" viewBox="0 0 32 32"><path fill="#ffda87" d="M7.5 12.2l-2.2 1.7c-.5.4-.8 1-.8 1.6v12c0 1.1.9 2 2 2h19c1.1 0 2-.9 2-2v-12c0-.6-.3-1.2-.8-1.6l-2.2-1.7"/><path fill="#f7a053" d="M26.7 13.9l-2.2-1.7h-17l-2.2 1.7c-.3.2-.5.5-.6.7l10.1 7.9c.7.6 1.7.6 2.5 0l10.1-7.9c-.2-.2-.4-.5-.7-.7z"/><path fill="#fff" d="M24.5 6.5l-4-4h-12c-.6 0-1 .4-1 1v13.3l7.3 5.7c.7.6 1.7.6 2.5 0l7.3-5.7V6.5z"/><path fill="#c9cec4" d="M24.5 6.5h-4v-4z"/><path fill="#40455a" d="M12.5 5h-3c-.3 0-.5-.2-.5-.5s.2-.5.5-.5h3c.3 0 .5.2.5.5s-.2.5-.5.5zM25.5 27h-3c-.3 0-.5-.2-.5-.5s.2-.5.5-.5h3c.3 0 .5.2.5.5s-.2.5-.5.5zM18.5 7h-9c-.3 0-.5-.2-.5-.5s.2-.5.5-.5h9c.3 0 .5.2.5.5s-.2.5-.5.5zM11.5 16h-2c-.3 0-.5-.2-.5-.5v-5c0-.3.2-.5.5-.5h2c.8 0 1.5.7 1.5 1.5v3c0 .8-.7 1.5-1.5 1.5zM10 15h1.5c.3 0 .5-.2.5-.5v-3c0-.3-.2-.5-.5-.5H10v4zM17.5 16c-.2 0-.3-.1-.4-.2L15 12.3v3.2c0 .3-.2.5-.5.5s-.5-.2-.5-.5v-5c0-.2.1-.4.4-.5.2-.1.4 0 .6.2l2.1 3.5v-3.2c0-.3.2-.5.5-.5s.5.2.5.5v5c0 .2-.1.4-.4.5h-.2zM21.5 16h-2c-.3 0-.5-.2-.5-.5v-5c0-.3.2-.5.5-.5h2c.8 0 1.5.7 1.5 1.5v3c0 .8-.7 1.5-1.5 1.5zM20 15h1.5c.3 0 .5-.2.5-.5v-3c0-.3-.2-.5-.5-.5H20v4z"/><path fill="#40455a" d="M16 23.5c-.5 0-1.1-.2-1.5-.5L4.4 15c-.2-.2-.3-.5-.1-.7.2-.2.5-.3.7-.1l10.1 7.9c.5.4 1.3.4 1.8 0L27 14.2c.2-.2.5-.1.7.1.2.2.1.5-.1.7l-10.1 7.9c-.4.4-1 .6-1.5.6z"/><path fill="#40455a" d="M24.5 17.3c-.3 0-.5-.2-.5-.5V6.5c0-.3.2-.5.5-.5s.5.2.5.5v10.3c0 .3-.2.5-.5.5zM7.5 17.3c-.3 0-.5-.2-.5-.5V3.5C7 2.7 7.7 2 8.5 2h12c.3 0 .5.2.5.5s-.2.5-.5.5h-12c-.3 0-.5.2-.5.5v13.3c0 .3-.2.5-.5.5z"/><path fill="#40455a" d="M25.5 30h-19C5.1 30 4 28.9 4 27.5v-12c0-.8.3-1.5 1-2l2.2-1.7c.2-.2.5-.1.7.1.2.2.1.5-.1.7l-2.2 1.7c-.4.3-.6.7-.6 1.2v12c0 .8.7 1.5 1.5 1.5h19c.8 0 1.5-.7 1.5-1.5v-12c0-.5-.2-.9-.6-1.2l-2.2-1.7c-.2-.2-.3-.5-.1-.7.2-.2.5-.3.7-.1l2.2 1.7c.6.5 1 1.2 1 2v12c0 1.4-1.1 2.5-2.5 2.5zM24.5 7h-4c-.3 0-.5-.2-.5-.5v-4c0-.2.1-.4.3-.5.2-.1.4 0 .5.1l4 4c.2.2.2.4.2.6-.1.2-.3.3-.5.3zM21 6h2.3L21 3.7V6z"/></svg>