<svg xmlns="http://www.w3.org/2000/svg" id="Layer_1" viewBox="0 0 32 32"><path fill="#67acd5" d="M27 26.5v-3.2c0-.5-.3-.9-.8-1l-2.6-.5c-.9-.2-1.6-1-1.6-2v-7.7c0-1 .7-1.8 1.6-2l2.6-.5c.5-.1.8-.5.8-1V5.5c0-.6-.4-1-1-1h-2.7c-1.4 0-2.7.7-3.4 1.9-1.2 2-1.8 4.3-1.8 6.6v5.9c0 2.3.6 4.6 1.8 6.6.7 1.2 2 1.9 3.4 1.9H26c.6.1 1-.3 1-.9z"/><path fill="#5791d1" d="M24 27.5h2c.6 0 1-.4 1-1v-3.2c0-.5-.3-.9-.8-1l-2.2-.4v5.6zM24 10.1l2.3-.5c.5-.1.8-.5.8-1V5.5c0-.6-.4-1-1-1H24v5.6z"/><path fill="#fff" d="M6.6 10.9H12v9H6.6z"/><path fill="#516d97" d="M5 10.9h3v9H5"/><path fill="#fed8aa" d="M24.1 14.9c0-.6-.4-1-1-1 .6 0 1-.4 1-1s-.4-1-1-1H18c.1-.7.2-1.3.3-2h-2.2c-.4 0-.7.2-.9.6l-.4.9c-.2.3-.5.6-.9.6H12v7h1.3c.3 0 .7.2.8.5.2.3.5.5.9.5h8c.6 0 1-.4 1-1s-.4-1-1-1c.6 0 1-.4 1-1s-.4-1-1-1c.6-.1 1.1-.5 1.1-1.1z"/><path fill="#40455a" d="M24 10.5c-.3 0-.5-.2-.5-.5V5c0-.3.2-.5.5-.5s.5.2.5.5v5c0 .3-.2.5-.5.5zM24 27.5c-.3 0-.5-.2-.5-.5v-5c0-.3.2-.5.5-.5s.5.2.5.5v5c0 .3-.2.5-.5.5zM12 20.4H5.6c-.3 0-.5-.2-.5-.5s.2-.5.5-.5h5.9v-8H5.6c-.3 0-.5-.2-.5-.5s.2-.5.5-.5H12c.3 0 .5.2.5.5v9c0 .3-.2.5-.5.5z"/><path fill="#40455a" d="M8 20.4H5c-.3 0-.5-.2-.5-.5s.2-.5.5-.5h2.5v-8H5c-.3 0-.5-.2-.5-.5s.2-.5.5-.5h3c.3 0 .5.2.5.5v9c0 .3-.2.5-.5.5zM14.1 12.4h-1.5c-.3 0-.5-.2-.5-.5s.2-.5.5-.5h1.5c.3 0 .5.2.5.5s-.3.5-.5.5z"/><circle cx="10.1" cy="17.9" r=".5" fill="#40455a"/><path fill="#40455a" d="M23.1 14.4h-2c-.3 0-.5-.2-.5-.5s.2-.5.5-.5h2c.3 0 .5-.2.5-.5s-.2-.5-.5-.5h-4.5c-.3 0-.5-.2-.5-.5s.2-.5.5-.5h4.5c.8 0 1.5.7 1.5 1.5s-.7 1.5-1.5 1.5z"/><path fill="#40455a" d="M23.1 16.4h-2c-.3 0-.5-.2-.5-.5s.2-.5.5-.5h2c.3 0 .5-.2.5-.5s-.2-.5-.5-.5h-2c-.3 0-.5-.2-.5-.5s.2-.5.5-.5h2c.8 0 1.5.7 1.5 1.5s-.7 1.5-1.5 1.5z"/><path fill="#40455a" d="M23.1 18.4h-2c-.3 0-.5-.2-.5-.5s.2-.5.5-.5h2c.3 0 .5-.2.5-.5s-.2-.5-.5-.5h-2c-.3 0-.5-.2-.5-.5s.2-.5.5-.5h2c.8 0 1.5.7 1.5 1.5s-.7 1.5-1.5 1.5z"/><path fill="#40455a" d="M23.1 20.4h-8c-.6 0-1.1-.3-1.3-.8-.1-.1-.2-.2-.4-.2H12c-.3 0-.5-.2-.5-.5v-7c0-.3.2-.5.5-.5h1.9c.2 0 .4-.1.4-.3l.4-.9c.3-.5.8-.8 1.3-.8h2.2c.2 0 .3.1.4.2.1.1.1.3.1.4-.2.6-.3 1.3-.3 1.9 0 .3-.3.5-.5.5-.3 0-.5-.3-.5-.5 0-.5.1-1 .2-1.5H16c-.2 0-.4.1-.4.3l-.4.9c-.3.5-.8.8-1.3.8h-1.4v6h.8c.6 0 1 .3 1.3.7.1.2.3.3.4.3h8c.3 0 .5-.2.5-.5s-.2-.5-.5-.5h-2c-.3 0-.5-.2-.5-.5s.2-.5.5-.5h2c.8 0 1.5.7 1.5 1.5s-.6 1.5-1.4 1.5z"/><path fill="#40455a" d="M26 28h-2.7c-1.6 0-3.1-.8-3.9-2.2-1.1-1.8-1.7-3.8-1.9-5.8 0-.1 0-.3.1-.4.1-.1.2-.2.4-.2h4c.3 0 .5.2.5.5 0 .7.5 1.3 1.2 1.4l2.6.5c.7.1 1.2.8 1.2 1.5v3.2c0 .8-.7 1.5-1.5 1.5zm-7.4-7.6c.2 1.7.8 3.4 1.7 4.9.6 1 1.8 1.7 3 1.7H26c.3 0 .5-.2.5-.5v-3.2c0-.2-.2-.4-.4-.5l-2.6-.5c-1-.2-1.7-.9-1.9-1.9h-3zM22 12.4h-4c-.1 0-.3-.1-.4-.2s-.1-.2-.1-.4c.2-2 .8-4 1.8-5.7.9-1.3 2.4-2.1 4-2.1H26c.8 0 1.5.7 1.5 1.5v3.2c0 .7-.5 1.3-1.2 1.5l-2.6.5c-.6.1-1.1.7-1.2 1.3 0 .2-.2.4-.5.4zm-3.4-1h3c.3-.9 1-1.6 1.9-1.7l2.6-.5c.2 0 .4-.3.4-.5V5.5c0-.3-.2-.5-.5-.5h-2.7c-1.2 0-2.4.7-3 1.7-.9 1.4-1.5 3.1-1.7 4.7z"/></svg>