<svg xmlns="http://www.w3.org/2000/svg" id="Layer_1" viewBox="0 0 32 32"><path fill="#fff" d="M27 29.5H5c-1.1 0-2-.9-2-2v-23c0-1.1.9-2 2-2h22c1.1 0 2 .9 2 2v23c0 1.1-.9 2-2 2z"/><path fill="#898b99" d="M5 8.5h22v19H5z"/><path fill="#c9cec4" d="M5 8.5h11v19H5z"/><path fill="#67acd5" d="M27 2.5H5c-1.1 0-2 .9-2 2v2h26v-2c0-1.1-.9-2-2-2z"/><path fill="#40455a" d="M24 18c-.3 0-.5-.2-.5-.5v-4c0-.3-.2-.5-.5-.5h-2c-.3 0-.5.2-.5.5v4c0 .3-.2.5-.5.5s-.5-.2-.5-.5v-4c0-.8.7-1.5 1.5-1.5h2c.8 0 1.5.7 1.5 1.5v4c0 .3-.2.5-.5.5z"/><path fill="#40455a" d="M23.5 16h-3c-.3 0-.5-.2-.5-.5s.2-.5.5-.5h3c.3 0 .5.2.5.5s-.2.5-.5.5zM14 13H9c-.3 0-.5-.2-.5-.5s.2-.5.5-.5h5c.3 0 .5.2.5.5s-.2.5-.5.5z"/><path fill="#40455a" d="M13.9 19c-.1 0-.2 0-.2-.1-2.4-1.2-4-3.7-4.1-6.3 0-.3.2-.5.5-.5s.5.2.5.5c.1 2.3 1.5 4.4 3.6 5.5.2.1.3.4.2.7-.2.1-.4.2-.5.2z"/><path fill="#40455a" d="M10 18.2c-.2 0-.3-.1-.4-.2-.2-.2-.1-.5.1-.7 1.6-1.1 2.6-2.8 2.7-4.8 0-.3.2-.5.5-.5s.5.3.5.5c-.1 2.3-1.3 4.4-3.2 5.6 0 .1-.1.1-.2.1zM11.5 13c-.3 0-.5-.2-.5-.5v-1c0-.3.2-.5.5-.5s.5.2.5.5v1c0 .3-.2.5-.5.5z"/><path fill="#40455a" d="M27 30H5c-1.4 0-2.5-1.1-2.5-2.5v-23C2.5 3.1 3.6 2 5 2h22c1.4 0 2.5 1.1 2.5 2.5v23c0 1.4-1.1 2.5-2.5 2.5zM5 3c-.8 0-1.5.7-1.5 1.5v23c0 .8.7 1.5 1.5 1.5h22c.8 0 1.5-.7 1.5-1.5v-23c0-.8-.7-1.5-1.5-1.5H5z"/><path fill="#40455a" d="M29 7H3c-.3 0-.5-.2-.5-.5S2.7 6 3 6h26c.3 0 .5.2.5.5s-.2.5-.5.5zM16 28c-.3 0-.5-.2-.5-.5v-19c0-.3.2-.5.5-.5s.5.2.5.5v19c0 .3-.2.5-.5.5zM9 11H7c-.3 0-.5-.2-.5-.5s.2-.5.5-.5h2c.3 0 .5.2.5.5s-.2.5-.5.5zM5 23h-.2c-.1 0-.1-.1-.2-.1-.1-.1-.1-.2-.1-.3 0-.1 0-.3.1-.4.2-.2.5-.2.7 0 .1.1.2.2.2.4 0 .1-.1.3-.2.3 0 0-.2.1-.3.1zM18 23c-.1 0-.3-.1-.4-.2-.1-.1-.1-.2-.1-.3 0-.1 0-.3.1-.4.2-.2.5-.2.7 0 .1 0 .1.1.1.2v.4c0 .1-.1.1-.1.2s-.1.1-.2.1H18zM7 23h-.2c-.1 0-.1-.1-.2-.1-.1-.1-.1-.2-.1-.3 0-.1 0-.3.1-.4 0-.1.1-.1.2-.1.1-.1.3-.1.4-.1.1 0 .1.1.2.1.1.1.2.2.2.4 0 .1-.1.3-.2.3 0 .1-.1.1-.2.1-.1.1-.1.1-.2.1zM18 25c-.1 0-.3-.1-.4-.2-.1-.1-.1-.2-.1-.3 0-.1 0-.3.1-.4 0-.1.1-.1.2-.1.1-.1.3-.1.4 0 .1 0 .1.1.2.1.1.1.2.2.2.4 0 .1-.1.3-.2.3-.1.1-.3.2-.4.2zM11 23H9c-.3 0-.5-.2-.5-.5s.2-.5.5-.5h2c.3 0 .5.2.5.5s-.2.5-.5.5zM23 23h-3c-.3 0-.5-.2-.5-.5s.2-.5.5-.5h3c.3 0 .5.2.5.5s-.2.5-.5.5zM22 25h-2c-.3 0-.5-.2-.5-.5s.2-.5.5-.5h2c.3 0 .5.2.5.5s-.2.5-.5.5zM14 21H5.5c-.3 0-.5-.2-.5-.5s.2-.5.5-.5H14c.3 0 .5.2.5.5s-.2.5-.5.5z"/><path fill="#40455a" d="M25 21h-8.5c-.3 0-.5-.2-.5-.5s.2-.5.5-.5H25c.3 0 .5.2.5.5s-.2.5-.5.5zM20 11h-2c-.3 0-.5-.2-.5-.5s.2-.5.5-.5h2c.3 0 .5.2.5.5s-.2.5-.5.5z"/><circle cx="5" cy="4.5" r=".5" fill="#40455a"/><circle cx="7" cy="4.5" r=".5" fill="#40455a"/><circle cx="9" cy="4.5" r=".5" fill="#40455a"/><path fill="#40455a" d="M27 28H5c-.3 0-.5-.2-.5-.5v-19c0-.3.2-.5.5-.5h22c.3 0 .5.2.5.5v19c0 .3-.2.5-.5.5zM5.5 27h21V9h-21v18z"/></svg>