<svg xmlns="http://www.w3.org/2000/svg" id="Layer_1" viewBox="0 0 32 32"><path fill="#fff" d="M17.2 11H25c1.1 0 2 .9 2 2v7c0 1.1-.9 2-2 2h-1v3l-4-3h-7c-.2 0-.4 0-.5-.1"/><path fill="#67acd5" d="M18 9H6c-1.1 0-2 .9-2 2v7c0 1.1.9 2 2 2h1v3l4-3h2"/><path fill="#40455a" d="M11.5 24.5h-.2c-.3-.1-.4-.4-.3-.7l7.4-17c.1-.3.4-.4.7-.3.3.1.4.4.3.7l-7.4 17c-.1.2-.3.3-.5.3z"/><path fill="#40455a" d="M24 25.5c-.1 0-.2 0-.3-.1l-3.9-2.9H13c-.2 0-.5 0-.7-.1-.3-.1-.4-.3-.3-.6.1-.3.4-.4.6-.3.1 0 .3.1.4.1h7c.1 0 .2 0 .3.1l3.2 2.4v-2c0-.3.2-.5.5-.5h1c.8 0 1.5-.7 1.5-1.5v-7c0-.8-.7-1.5-1.5-1.5h-7.8c-.3 0-.5-.2-.5-.5s.2-.5.5-.5H25c1.4 0 2.5 1.1 2.5 2.5v7c0 1.4-1.1 2.5-2.5 2.5h-.5V25c0 .2-.1.4-.3.4-.1.1-.1.1-.2.1z"/><path fill="#40455a" d="M22 19.5c-.3 0-.5-.2-.5-.5v-4c0-.3-.2-.5-.5-.5h-2c-.3 0-.5.2-.5.5v4c0 .3-.2.5-.5.5s-.5-.2-.5-.5v-4c0-.8.7-1.5 1.5-1.5h2c.8 0 1.5.7 1.5 1.5v4c0 .3-.2.5-.5.5z"/><path fill="#40455a" d="M21.5 17.5h-3c-.3 0-.5-.2-.5-.5s.2-.5.5-.5h3c.3 0 .5.2.5.5s-.2.5-.5.5zM7 23.5c-.1 0-.2 0-.2-.1-.2-.1-.3-.3-.3-.4v-2.5H6c-1.4 0-2.5-1.1-2.5-2.5v-7c0-1.4 1.1-2.5 2.5-2.5h12c.3 0 .5.2.5.5s-.2.5-.5.5H6c-.8 0-1.5.7-1.5 1.5v7c0 .8.7 1.5 1.5 1.5h1c.3 0 .5.2.5.5v2l3.2-2.4c.1-.1.2-.1.3-.1h2c.3 0 .5.2.5.5s-.2.5-.5.5h-1.8l-3.9 2.9c-.1.1-.2.1-.3.1z"/><path fill="#40455a" d="M24 25.5c-.1 0-.2 0-.3-.1l-3.9-2.9H13c-.2 0-.5 0-.7-.1-.3-.1-.4-.3-.3-.6.1-.3.4-.4.6-.3.1 0 .3.1.4.1h7c.1 0 .2 0 .3.1l3.2 2.4v-2c0-.3.2-.5.5-.5h1c.8 0 1.5-.7 1.5-1.5v-7c0-.8-.7-1.5-1.5-1.5h-7.8c-.3 0-.5-.2-.5-.5s.2-.5.5-.5H25c1.4 0 2.5 1.1 2.5 2.5v7c0 1.4-1.1 2.5-2.5 2.5h-.5V25c0 .2-.1.4-.3.4-.1.1-.1.1-.2.1z"/><path fill="#40455a" d="M7 23.5c-.1 0-.2 0-.2-.1-.2-.1-.3-.3-.3-.4v-2.5H6c-1.4 0-2.5-1.1-2.5-2.5v-7c0-1.4 1.1-2.5 2.5-2.5h12c.3 0 .5.2.5.5s-.2.5-.5.5H6c-.8 0-1.5.7-1.5 1.5v7c0 .8.7 1.5 1.5 1.5h1c.3 0 .5.2.5.5v2l3.2-2.4c.1-.1.2-.1.3-.1h2c.3 0 .5.2.5.5s-.2.5-.5.5h-1.8l-3.9 2.9c-.1.1-.2.1-.3.1z"/><path fill="#40455a" d="M13 12.5H8c-.3 0-.5-.2-.5-.5s.2-.5.5-.5h5c.3 0 .5.2.5.5s-.2.5-.5.5z"/><path fill="#40455a" d="M12.9 18.5c-.1 0-.2 0-.2-.1-2.4-1.2-4-3.7-4.1-6.3 0-.3.2-.5.5-.5s.5.2.5.5c.1 2.3 1.5 4.4 3.6 5.5.2.1.3.4.2.7-.2.1-.4.2-.5.2z"/><path fill="#40455a" d="M9 17.7c-.2 0-.3-.1-.4-.2-.2-.2-.1-.5.1-.7 1.6-1.1 2.6-2.8 2.7-4.8 0-.3.2-.5.5-.5s.5.3.5.5c-.1 2.3-1.3 4.4-3.2 5.6 0 .1-.1.1-.2.1zM10.5 12.5c-.3 0-.5-.2-.5-.5v-1c0-.3.2-.5.5-.5s.5.2.5.5v1c0 .3-.2.5-.5.5z"/></svg>