<svg
  xmlns="http://www.w3.org/2000/svg"
  width="32.448"
  height="24.462"
  viewBox="0 0 32.448 24.462"
  style="width:15px;height:15px"
  id="MotorcycleIcon"
>
  <g transform="translate(-210.334 -496.745)">
    <path
      d="M321.721,35.516H317.98a.949.949,0,0,0-.949.949v1.145a.949.949,0,0,0,.949.949h3.741a.949.949,0,0,0,.949-.949V36.464A.949.949,0,0,0,321.721,35.516Zm0,0"
      transform="translate(-86.605 463.449)"
      fill="#20df39"
    ></path>
    <path
      d="M270.014,51.516h2.03v2.028h-2.03a1.014,1.014,0,0,1,0-2.028Zm0,0"
      transform="translate(-41.618 448.463)"
      fill="#d5deff"
    ></path>
    <path
      d="M408.535,41.683h-1.268a1.268,1.268,0,0,1,0-2.535h1.268Zm0,0"
      transform="translate(-169.936 460.046)"
      fill="#d5deff"
    ></path>
    <path
      d="M15.323,10.5h4.088a1.267,1.267,0,0,1,1.268,1.268v7.352a1.268,1.268,0,0,1-1.268,1.268H11.268A1.268,1.268,0,0,1,10,19.123v-3.3A5.322,5.322,0,0,1,15.323,10.5Zm0,0"
      transform="translate(200.968 486.875)"
      fill="#20df39"
    ></path>
    <path
      d="M182.073,129.039H179.76a1.268,1.268,0,1,1,0-2.535h2.313a1.268,1.268,0,1,1,0,2.535Zm0,0"
      transform="translate(43.154 378.227)"
      fill="#d5deff"
    ></path>
    <path
      d="M337.088,144.935a.634.634,0,1,0,0-1.267h0a.634.634,0,1,0,0,1.267Zm0,0"
      transform="translate(-104.797 362.15)"
    ></path>
    <path
      d="M41.309,97.011H32.327a2.492,2.492,0,0,1-2.172,1.269H10.128V97.8a9.025,9.025,0,0,1,9.025-9.025h4.5a1.277,1.277,0,0,1,1.277,1.277v5.692H28.3A3.146,3.146,0,0,0,31.445,92.6l.009-9.087H33.7l1.753,7.921h.278a5.574,5.574,0,0,1,5.574,5.574Zm0,0"
      transform="translate(200.848 418.49)"
      fill="#1447ff"
    ></path>
    <path
      d="M59.355,247.144a4.692,4.692,0,0,0-7.586-3.692h0a4.683,4.683,0,0,0-1.8,3.692Zm0,0"
      transform="translate(163.528 269.626)"
      fill="#1447ff"
    ></path>
    <path
      d="M209.165,366.453a.634.634,0,1,0,.448.186A.638.638,0,0,0,209.165,366.453Zm0,0"
      transform="translate(15.019 153.484)"
    ></path>
    <path
      d="M26.472,13.052,25,6.379a1.582,1.582,0,0,0,1-.55A1.89,1.89,0,0,0,27,6.118h1.268a.634.634,0,0,0,.634-.634V2.949a.634.634,0,0,0-.634-.634H27a1.889,1.889,0,0,0-1.031.305,1.579,1.579,0,0,0-1.185-.535H21.04A1.585,1.585,0,0,0,19.564,3.1h-1.5a1.648,1.648,0,1,0,0,3.3h3.262V7.672a.634.634,0,0,0,1.268,0V6.394H23.7l1.591,7.188L22.28,18.945a1.861,1.861,0,0,1-1.62.946H13.145A5.332,5.332,0,0,0,7.858,15.2a5.272,5.272,0,0,0-3.286,1.135l0,0a5.293,5.293,0,0,0-2,3.554h-1.3a8.4,8.4,0,0,1,8.39-8.237h4.5a.645.645,0,0,1,.644.644V17.99a.634.634,0,0,0,.634.634H18.8a3.78,3.78,0,0,0,3.78-3.776l0-2.105a.634.634,0,0,0-.633-.635h0a.634.634,0,0,0-.634.633l0,2.106a2.512,2.512,0,0,1-2.512,2.51H16.065V12.3a1.9,1.9,0,0,0-.225-.9,1.9,1.9,0,0,0-.948-3.549H12.58a1.892,1.892,0,0,0-.634.109V2.4a1.9,1.9,0,0,0-1.9-1.9H5.956A5.966,5.966,0,0,0,.075,5.514.634.634,0,0,0,.045,5.7s0,.008,0,.011A5.985,5.985,0,0,0,0,6.456v3.3a1.9,1.9,0,0,0,1.618,1.88l1.4,1.4A9.633,9.633,0,0,0,0,20.046v.479a.634.634,0,0,0,.634.634H4.2a.647.647,0,0,0-.013.127,3.658,3.658,0,0,0,.9,2.406H.634a.634.634,0,0,0,0,1.268H7.785l.073,0a3.68,3.68,0,0,0,3.676-3.676.647.647,0,0,0-.013-.127h9.139a3.131,3.131,0,0,0,2.515-1.269h.8a3.665,3.665,0,0,0,.625,3.8H16.384a.634.634,0,1,0,0,1.267H27.3l.073,0a3.674,3.674,0,0,0,3.4-5.072h1.037a.634.634,0,0,0,.634-.634,6.216,6.216,0,0,0-5.976-6.2ZM12.58,9.119h2.313a.634.634,0,0,1,0,1.268H12.58a.634.634,0,0,1,0-1.268ZM1.267,6.456c0-.039,0-.078,0-.117H8.205a.634.634,0,1,0,0-1.268H1.476a4.7,4.7,0,0,1,4.48-3.3h4.088a.634.634,0,0,1,.634.634V9.752a.634.634,0,0,1-.634.634H1.9a.634.634,0,0,1-.634-.634Zm2.164,5.2h1.45A9.652,9.652,0,0,0,4,12.223Zm6.835,9.632a2.411,2.411,0,0,1-2.384,2.408h-.1A2.411,2.411,0,0,1,5.45,21.285a.647.647,0,0,0-.013-.127h4.842a.647.647,0,0,0-.013.127ZM3.849,19.891a4.032,4.032,0,0,1,1.5-2.558l.006,0a4.016,4.016,0,0,1,2.5-.862,4.064,4.064,0,0,1,4.008,3.424ZM27,3.583h.634V4.85H27a.634.634,0,1,1,0-1.268ZM17.681,4.747a.381.381,0,0,1,.38-.38h1.4v.446a1.589,1.589,0,0,0,.031.315H18.062a.381.381,0,0,1-.38-.38Zm4.276.38H21.04a.315.315,0,0,1-.315-.315V3.667a.315.315,0,0,1,.315-.315h3.741a.315.315,0,0,1,.315.315V4.812a.315.315,0,0,1-.315.315Zm7.829,16.159A2.411,2.411,0,0,1,27.4,23.693h-.1a2.408,2.408,0,0,1-1.889-3.8H29.34a2.4,2.4,0,0,1,.446,1.4Zm-5.871-2.664,2.417-4.3a4.947,4.947,0,0,1,4.808,4.3Zm0,0"
      transform="translate(210.334 496.246)"
    ></path>
  </g>
</svg>
