<svg xmlns="http://www.w3.org/2000/svg" viewBox="0 0 32 32" id="MattIcon"><rect width="21" height="27" x="5.5" y="2.5" fill="#37b678"></rect><path fill="#2c2b2d" d="M26.5,30H5.5a.49971.49971,0,0,1-.5-.5V2.5A.49971.49971,0,0,1,5.5,2h21a.49971.49971,0,0,1,.5.5v27A.49971.49971,0,0,1,26.5,30ZM6,29H26V3H6Z"></path><path fill="#2c2b2d" d="M23.5 27H8.5a.49971.49971 0 0 1-.5-.5V5.5A.49971.49971 0 0 1 8.5 5h15a.49971.49971 0 0 1 .5.5v21A.49971.49971 0 0 1 23.5 27zM9 26H23V6H9zM5.5 32a.49971.49971 0 0 1-.5-.5v-2a.5.5 0 0 1 1 0v2A.49971.49971 0 0 1 5.5 32zM7.6001 32a.49971.49971 0 0 1-.5-.5v-2a.5.5 0 1 1 1 0v2A.49972.49972 0 0 1 7.6001 32zM9.7002 32a.49971.49971 0 0 1-.5-.5v-2a.5.5 0 0 1 1 0v2A.49972.49972 0 0 1 9.7002 32zM11.7998 32a.49972.49972 0 0 1-.5-.5v-2a.5.5 0 0 1 1 0v2A.49971.49971 0 0 1 11.7998 32zM13.8999 32a.49972.49972 0 0 1-.5-.5v-2a.5.5 0 1 1 1 0v2A.49971.49971 0 0 1 13.8999 32zM16 32a.49971.49971 0 0 1-.5-.5v-2a.5.5 0 0 1 1 0v2A.49971.49971 0 0 1 16 32zM18.09961 32a.49971.49971 0 0 1-.5-.5v-2a.5.5 0 0 1 1 0v2A.49971.49971 0 0 1 18.09961 32zM20.2002 32a.49971.49971 0 0 1-.5-.5v-2a.5.5 0 0 1 1 0v2A.49972.49972 0 0 1 20.2002 32zM22.2998 32a.49972.49972 0 0 1-.5-.5v-2a.5.5 0 0 1 1 0v2A.49971.49971 0 0 1 22.2998 32zM24.40039 32a.49971.49971 0 0 1-.5-.5v-2a.5.5 0 0 1 1 0v2A.49971.49971 0 0 1 24.40039 32zM26.5 32a.49971.49971 0 0 1-.5-.5v-2a.5.5 0 0 1 1 0v2A.49971.49971 0 0 1 26.5 32zM5.5 3A.49971.49971 0 0 1 5 2.5V.5a.5.5 0 0 1 1 0v2A.49971.49971 0 0 1 5.5 3zM7.6001 3a.49971.49971 0 0 1-.5-.5V.5a.5.5 0 1 1 1 0v2A.49972.49972 0 0 1 7.6001 3zM9.7002 3a.49971.49971 0 0 1-.5-.5V.5a.5.5 0 0 1 1 0v2A.49972.49972 0 0 1 9.7002 3zM11.7998 3a.49972.49972 0 0 1-.5-.5V.5a.5.5 0 0 1 1 0v2A.49971.49971 0 0 1 11.7998 3zM13.8999 3a.49972.49972 0 0 1-.5-.5V.5a.5.5 0 0 1 1 0v2A.49971.49971 0 0 1 13.8999 3zM16 3a.49971.49971 0 0 1-.5-.5V.5a.5.5 0 0 1 1 0v2A.49971.49971 0 0 1 16 3zM18.09961 3a.49971.49971 0 0 1-.5-.5V.5a.5.5 0 0 1 1 0v2A.49971.49971 0 0 1 18.09961 3zM20.2002 3a.49971.49971 0 0 1-.5-.5V.5a.5.5 0 0 1 1 0v2A.49972.49972 0 0 1 20.2002 3zM22.2998 3a.49972.49972 0 0 1-.5-.5V.5a.5.5 0 0 1 1 0v2A.49971.49971 0 0 1 22.2998 3zM24.40039 3a.49971.49971 0 0 1-.5-.5V.5a.5.5 0 0 1 1 0v2A.49971.49971 0 0 1 24.40039 3zM26.5 3a.49971.49971 0 0 1-.5-.5V.5a.5.5 0 0 1 1 0v2A.49971.49971 0 0 1 26.5 3z"></path><path fill="#e0e0e2" d="M18.98375,17.12608l.93859-.93858a.26515.26515,0,0,0,0-.375l-.93859-.93859a.26519.26519,0,0,1-.07766-.18749V13.35907a.26516.26516,0,0,0-.26515-.26516H17.31358a.26513.26513,0,0,1-.18749-.07766l-.9386-.9386a.26517.26517,0,0,0-.375,0l-.9386.9386a.26513.26513,0,0,1-.18749.07766H13.35906a.26516.26516,0,0,0-.26515.26516v1.32737a.26519.26519,0,0,1-.07766.18749l-.93859.93859a.26515.26515,0,0,0,0,.375l.93859.93858a.26519.26519,0,0,1,.07766.18749V18.641a.26515.26515,0,0,0,.26515.26515h1.32737a.26511.26511,0,0,1,.18749.07766l.93859.93859a.26517.26517,0,0,0,.375,0l.93859-.93859a.26511.26511,0,0,1,.18749-.07766h1.32737a.26515.26515,0,0,0,.26515-.26515V17.31357A.26519.26519,0,0,1,18.98375,17.12608Z"></path><path fill="#2c2b2d" d="M16,20.5a.75973.75973,0,0,1-.541-.22412l-.86962-.86963H13.35889a.766.766,0,0,1-.76514-.76514V17.41064l-.86963-.86962a.76506.76506,0,0,1,0-1.082l.86963-.86962V13.35889a.766.766,0,0,1,.76514-.76514h1.23047l.86962-.86963a.78347.78347,0,0,1,1.082,0l.87011.86963h1.2295a.76645.76645,0,0,1,.76562.76514v1.231l.86914.86914a.76331.76331,0,0,1-.002,1.0835l-.86719.86768v1.231a.76645.76645,0,0,1-.76562.76514h-1.2295l-.87011.86963A.75973.75973,0,0,1,16,20.5Zm-2.40625-2.09375h1.09277a.75971.75971,0,0,1,.541.22412L16,19.40283l.77246-.77246a.76055.76055,0,0,1,.541-.22412h1.09277V17.31348a.75841.75841,0,0,1,.22363-.541L19.40234,16l-.77246-.77246a.75841.75841,0,0,1-.22363-.541V13.59375H17.31348a.76055.76055,0,0,1-.541-.22412L16,12.59717l-.77246.77246a.75971.75971,0,0,1-.541.22412H13.59375v1.09277a.75971.75971,0,0,1-.22412.541L12.59717,16l.77246.77246a.75971.75971,0,0,1,.22412.541Zm5.97461-2.23975.002.001Zm0-.33252-.001.00147Z"></path><path fill="#e0e0e2" d="M11,5.5h0A2.5,2.5,0,0,1,13.5,8v2.5a0,0,0,0,1,0,0H11A2.5,2.5,0,0,1,8.5,8V8A2.5,2.5,0,0,1,11,5.5Z" transform="rotate(180 11 8)"></path><path fill="#2c2b2d" d="M11,11A3.00328,3.00328,0,0,1,8,8V5.5A.49971.49971,0,0,1,8.5,5H11a3,3,0,0,1,0,6ZM9,6V8a2,2,0,1,0,2-2Z"></path><path fill="#e0e0e2" d="M21,5.5h2.5a0,0,0,0,1,0,0V8A2.5,2.5,0,0,1,21,10.5h0A2.5,2.5,0,0,1,18.5,8V8A2.5,2.5,0,0,1,21,5.5Z"></path><path fill="#2c2b2d" d="M21,11a3,3,0,0,1,0-6h2.5a.49971.49971,0,0,1,.5.5V8A3.00328,3.00328,0,0,1,21,11Zm0-5a2,2,0,1,0,2,2V6Z"></path><path fill="#e0e0e2" d="M11,21.5h2.5a0,0,0,0,1,0,0V24A2.5,2.5,0,0,1,11,26.5h0A2.5,2.5,0,0,1,8.5,24v0A2.5,2.5,0,0,1,11,21.5Z" transform="rotate(-180 11 24)"></path><path fill="#2c2b2d" d="M11,27H8.5a.49971.49971,0,0,1-.5-.5V24a3,3,0,1,1,3,3ZM9,26h2a2,2,0,1,0-2-2Z"></path><path fill="#e0e0e2" d="M21,21.5h0A2.5,2.5,0,0,1,23.5,24v2.5a0,0,0,0,1,0,0H21A2.5,2.5,0,0,1,18.5,24v0A2.5,2.5,0,0,1,21,21.5Z"></path><path fill="#2c2b2d" d="M23.5,27H21a3,3,0,1,1,3-3v2.5A.49971.49971,0,0,1,23.5,27ZM21,22a2,2,0,0,0,0,4h2V24A2.00229,2.00229,0,0,0,21,22Z"></path><circle cx="11" cy="24" r=".5" fill="#2c2b2d"></circle><circle cx="21" cy="24" r=".5" fill="#2c2b2d"></circle><circle cx="16" cy="16" r=".5" fill="#2c2b2d"></circle><circle cx="11" cy="8" r=".5" fill="#2c2b2d"></circle><circle cx="21" cy="8" r=".5" fill="#2c2b2d"></circle></svg>
