<svg xmlns="http://www.w3.org/2000/svg" id="Layer_1" viewBox="0 0 32 32"><path fill="#67acd5" d="M22.9 21.3l-2.2-2.2c-.3-.3-.9-.4-1.3-.1l-2.2 1.5c-.8.5-1.8.4-2.5-.2l-5.5-5.5c-.6-.8-.7-1.8-.2-2.6l1.5-2.2c.3-.4.2-.9-.1-1.3L8.1 6.5c-.4-.4-1-.4-1.4 0l-2 1.9c-1 1-1.4 2.4-1.1 3.8.6 2.3 1.7 4.3 3.4 6l4.1 4.1c1.7 1.7 3.7 2.8 6 3.4 1.4.3 2.8-.1 3.8-1.1l1.9-1.9c.5-.4.5-1 .1-1.4z"/><path fill="#5791d1" d="M21.5 24.2l1.5-1.5c.4-.4.4-1 0-1.4l-2.2-2.2c-.3-.3-.9-.4-1.3-.1l-1.9 1.3 3.9 3.9zM9.2 11.9l1.3-1.9c.3-.4.2-.9-.1-1.3L8.1 6.5c-.4-.4-1-.4-1.4 0L5.2 7.9l4 4z"/><path fill="#40455a" d="M18.2 26.3c-.4 0-.7 0-1.1-.1-2.4-.6-4.5-1.8-6.2-3.5l-4.1-4.1c-1.7-1.7-2.9-3.9-3.5-6.2-.5-1.6 0-3.2 1.1-4.4l1.9-1.9c.6-.6 1.5-.6 2.1 0l2.2 2.2c.5.5.6 1.3.2 1.9l-1.5 2.2c-.3.6-.2 1.4.3 1.9l5.5 5.5c.5.5 1.3.6 1.9.2l2.2-1.5c.6-.4 1.4-.3 1.9.2l2.2 2.2c.3.3.4.7.4 1.1 0 .4-.2.8-.4 1.1L21.4 25c-.9.9-2.1 1.3-3.2 1.3zM7.4 6.7c-.1 0-.3 0-.4.1L5.1 8.7c-.9.9-1.2 2.1-.9 3.3.5 2.2 1.7 4.2 3.3 5.7l4.1 4.1c1.6 1.6 3.6 2.7 5.7 3.3 1.2.3 2.5-.1 3.3-.9l1.9-1.9c.1-.1.1-.2.1-.4 0-.1-.1-.3-.1-.4l-2.2-2.2c-.2-.2-.4-.2-.6-.1l-2.2 1.5c-1 .7-2.3.5-3.2-.3L8.9 15c-.8-.8-1-2.2-.3-3.2L10 9.7c.1-.2.1-.5-.1-.6L7.7 6.8c-.1-.1-.2-.1-.3-.1z"/><path fill="#40455a" d="M9.2 12.2c-.1 0-.3 0-.4-.1L5.2 8.6c-.2-.2-.2-.5 0-.7.2-.2.5-.2.7 0l3.6 3.5c.2.2.2.5 0 .7-.1.1-.2.1-.3.1zM21.2 24.3c-.1 0-.3 0-.4-.1l-3.5-3.5c-.2-.2-.2-.5 0-.7s.5-.2.7 0l3.5 3.5c.2.2.2.5 0 .7-.1 0-.2.1-.3.1zM22.2 18.5c.4-.4 1-.4 1.4 0 .4.4.4 1 0 1.4M27.3 20.9h-.1c-.3-.1-.4-.3-.4-.6.4-1.4 0-2.9-1-3.9s-2.5-1.4-3.9-1c-.3.1-.5-.1-.6-.4-.1-.3.1-.5.4-.6 1.7-.5 3.6 0 4.8 1.3 1.3 1.3 1.8 3.1 1.3 4.8-.1.2-.3.4-.5.4z"/><path fill="#40455a" d="M25.4 20.3h-.1c-.3-.1-.4-.3-.4-.6.2-.7 0-1.4-.5-1.9s-1.2-.7-1.9-.5c-.3.1-.5-.1-.6-.4-.1-.3.1-.5.4-.6 1-.3 2.1 0 2.9.8.8.8 1.1 1.9.8 2.9-.2.2-.4.3-.6.3z"/></svg>