<svg xmlns="http://www.w3.org/2000/svg" width="32" height="32" viewBox="0 0 32 32" id="HospitalIcon"><g transform="translate(-874.261 -1535.186)"><rect width="10" height="26" x="885.735" y="1537.686" fill="#ec7bb0" rx="0" ry="0"></rect><rect width="9" height="21" x="876.762" y="1542.686" fill="#92d9f7"></rect><rect width="9" height="21" x="895.748" y="1542.686" fill="#92d9f7"></rect><path fill="#cdcccd" fill-rule="evenodd" d="m 892.7478,1563.678 0,-8.8375 -3.9999,0 0,8.8375"></path><path fill="#f2f2f2" d="m 889.74785,1542.6856 0,2 -2,0 0,2 2,0 0,2 2,0 0,-2 2,0 0,-2 -2,0 0,-2 -2,0 z"></path><path fill="#62355c" fill-rule="evenodd" d="m 895.7543,1551.1847 a 0.50005,0.50005 0 1 0 0,1 l 9,0 a 0.50005,0.50005 0 1 0 0,-1 l -9,0 z" color="#000" font-family="sans-serif" font-weight="400" overflow="visible" white-space="normal" style="line-height:normal;text-indent:0;text-align:start;text-decoration-line:none;text-decoration-style:solid;text-decoration-color:#000;text-transform:none;block-progression:tb;isolation:auto;mix-blend-mode:normal"></path><path fill="#62355c" d="m 885.73384,1537.1856 c -0.27613,0 -0.49997,0.2239 -0.5,0.5 l 0,4.5 -8.47265,0 c -0.27613,0 -0.49997,0.2239 -0.5,0.5 l 0,2.8594 0,0.2793 0,2.7207 0,0.2793 0,2.7207 0,0.2793 0,2.7207 0,0.2793 0,2.7207 0,0.2793 0,2.7207 0,0.2793 0,2.8613 c 3e-5,0.2761 0.22387,0.5 0.5,0.5 l 9,0 9.97265,0 0.0137,0 9,0 c 0.27613,0 0.49997,-0.2239 0.5,-0.5 l 0,-2.8828 0,-0.2324 0,-2.7676 0,-0.2324 0,-2.7676 0,-0.2324 0,-5.7676 0,-0.2324 0,-2.7676 0,-0.2324 0,-2.8848 c -3e-5,-0.2761 -0.22387,-0.5 -0.5,-0.5 l -8.51367,0 0,-4.5 c -3e-5,-0.2761 -0.22387,-0.5 -0.5,-0.5 l -10,0 z m 0.5,1 9,0 0,25 -1.98633,0 0,-8 0.4668,0 c 0.67616,0.01 0.67616,-1.0096 0,-1 l -5.96094,0 c -0.67616,-0.01 -0.67616,1.0096 0,1 l 0.49414,0 0,8 -1.98632,0 0,-20.5 c 9e-5,-0.056 -0.009,-0.1113 -0.0274,-0.1641 l 0,-4.3359 z m 3.51367,4 c -0.27613,0 -0.49997,0.2239 -0.5,0.5 l 0,1.5 -1.5,0 c -0.27613,0 -0.49997,0.2239 -0.5,0.5 l 0,2 c 3e-5,0.2761 0.22387,0.5 0.5,0.5 l 1.5,0 0,1.5 c 3e-5,0.2761 0.22387,0.5 0.5,0.5 l 2,0 c 0.27613,0 0.49997,-0.2239 0.5,-0.5 l 0,-1.5 1.5,0 c 0.27613,0 0.49997,-0.2239 0.5,-0.5 l 0,-2 c -3e-5,-0.2761 -0.22387,-0.5 -0.5,-0.5 l -1.5,0 0,-1.5 c -3e-5,-0.2761 -0.22387,-0.5 -0.5,-0.5 z m -12.48632,1 1.98632,0 0,2 -1.98632,0 z m 2.98632,0 2,0 0,2 -2,0 z m 3,0 1.98633,0 0,2 -1.98633,0 z m 7,0 1,0 0,1.5 c 3e-5,0.2761 0.22387,0.5 0.5,0.5 l 1.5,0 0,1 -1.5,0 c -0.27613,0 -0.49997,0.2239 -0.5,0.5 l 0,1.5 -1,0 0,-1.5 c -3e-5,-0.2761 -0.22387,-0.5 -0.5,-0.5 l -1.5,0 0,-1 1.5,0 c 0.27613,0 0.49997,-0.2239 0.5,-0.5 z m 6,0 2,0 0,2 -2,0 z m 3,0 2,0 0,2 -2,0 z m 3,0 2,0 0,2 -2,0 z m -24.98632,3 1.98632,0 0,2 -1.98632,0 z m 2.98632,0 2,0 0,2 -2,0 z m 3,0 1.98633,0 0,2 -1.98633,0 z m 13,0 2,0 0,2 -2,0 z m 3,0 2,0 0,2 -2,0 z m 3,0 2,0 0,2 -2,0 z m -24.98632,3 1.98632,0 0,2 -1.98632,0 z m 2.98632,0 2,0 0,2 -2,0 z m 3,0 1.98633,0 0,2 -1.98633,0 z m 13,0 2,0 0,5 -2,0 z m 3,0 2,0 0,5 -2,0 z m 3,0 2,0 0,5 -2,0 z m -24.98632,3 1.98632,0 0,2 -1.98632,0 z m 2.98632,0 2,0 0,2 -2,0 z m 3,0 1.98633,0 0,2 -1.98633,0 z m -5.98632,3 1.98632,0 0,2 -1.98632,0 z m 2.98632,0 2,0 0,2 -2,0 z m 3,0 1.98633,0 0,2 -1.98633,0 z m 6,0 3,0 0,8 -3,0 z m 7,0 2,0 0,2 -2,0 z m 3,0 2,0 0,2 -2,0 z m 3,0 2,0 0,2 -2,0 z m -24.98632,3 1.98632,0 0,2 -1.98632,0 z m 2.98632,0 2,0 0,2 -2,0 z m 3,0 1.98633,0 0,2 -1.98633,0 z m 13,0 2,0 0,2 -2,0 z m 3,0 2,0 0,2 -2,0 z m 3,0 2,0 0,2 -2,0 z m -24.98632,3 1.98632,0 0,2 -1.98632,0 z m 2.98632,0 2,0 0,2 -2,0 z m 3,0 1.98633,0 0,2 -1.98633,0 z m 13,0 2,0 0,2 -2,0 z m 3,0 2,0 0,2 -2,0 z m 3,0 2,0 0,2 -2,0 z" color="#000" font-family="sans-serif" font-weight="400" overflow="visible" white-space="normal" style="line-height:normal;text-indent:0;text-align:start;text-decoration-line:none;text-decoration-style:solid;text-decoration-color:#000;text-transform:none;block-progression:tb;isolation:auto;mix-blend-mode:normal"></path></g></svg>