<svg xmlns="http://www.w3.org/2000/svg" version="1.1" x="0px" y="0px" viewBox="0 0 48 48" xml space="preserve" id="HighIcon"><style type="text/css"></style><symbol id="New_Symbol_14" viewBox="-6.5 -6.5 13 13"><path class="st0" d="M0-6c2.2 0 4.1 1.5 4.7 3.5C6.3-2.5 6.4 0 5 0v1c0 2.8-2.2 5-5 5s-5-2.2-5-5V0c-1.4 0-1.3-2.5.2-2.5C-4.1-4.5-2.2-6 0-6z" fill="#FFD4C3" stroke="#504B46" stroke-linecap="round" stroke-linejoin="round" stroke-miterlimit="10"></path><circle class="st1" cx="-1.6" cy="-0.1" r="0.1" fill="#FFC258"></circle><path class="st2" d="M-1.6.5c-.3 0-.6-.3-.6-.6s.2-.7.6-.7c.3 0 .6.3.6.7s-.3.6-.6.6z" fill="#4F4B45"></path><circle class="st1" cx="1.6" cy="-0.1" r="0.1" fill="#FFC258"></circle><path class="st2" d="M1.6.5C1.3.5 1 .2 1-.1s.3-.6.6-.6.6.3.6.6-.2.6-.6.6z" fill="#4F4B45"></path><circle class="st3" cx="-3" cy="-1.5" r="0.5" fill="#FABFA5"></circle><circle class="st3" cx="3" cy="-1.5" r="0.5" fill="#FABFA5"></circle><path class="st4" d="M-1.2-3c.8-.5 1.7-.5 2.5 0" fill="none" stroke="#504B46" stroke-linecap="round" stroke-linejoin="round" stroke-miterlimit="10"></path></symbol><g id="Icons"><g id="XMLID_1925_"><ellipse id="XMLID_1932_" class="st5" cx="24" cy="38.4" rx="19.3" ry="2" fill="#45413C" opacity="0.15"></ellipse><path id="XMLID_1918_" class="st85" d="M42.9 22.1c-1.8 2.7-2 15.9-2 15.9h-2.7s.7-11.3-2-11.3h-5.3l7.3-7.3 4.7 2.7z" fill="#87898C" stroke="#45413C" stroke-linecap="round" stroke-linejoin="round" stroke-miterlimit="10"></path><path id="XMLID_1917_" class="st57" d="M8.6 26.4c.3-.2.6-.1.8.1.8.9 3 2.7 6.3 2.9 4.3.2 12-5 17.9-12 4.6-5.4 6-8.3 6.5-9.4.1-.3.5-.5.8-.4 1.5.5 5.3 2.1 5.3 6.5 0 5.4-3.3 8-3.3 8s-5.6-.1-10 5.3C28.6 32.8 27 38 23 38H5.7s-4-.5-4-3.3c.1-2.7 3.8-6.3 6.9-8.3z" fill="#FF6242"></path><path id="XMLID_1916_" class="st62" d="M7.2 29.7c.3-.2.7-.1.9.1.9.9 3.3 2.7 6.8 2.9 4.6.2 13.1-5 19.5-12 5-5.4 6.6-8.3 7-9.4.1-.3.5-.5.9-.4.9.3 2.4.8 3.7 1.9-.6-3.4-3.8-4.8-5.2-5.3-.3-.1-.7.1-.8.4-.4 1.1-1.9 4-6.5 9.4-5.9 7-13.7 12.2-17.9 12-3.3-.2-5.5-2.1-6.3-2.9-.2-.2-.6-.3-.8-.1-2.8 1.9-6.3 5.1-6.8 7.7 1.6-1.6 3.7-3.2 5.5-4.3z" fill="#FF866E"></path><path id="XMLID_1915_" class="st10" d="M8.6 26.4c.3-.2.6-.1.8.1.8.9 3 2.7 6.3 2.9 4.3.2 12-5 17.9-12 4.6-5.4 6-8.3 6.5-9.4.1-.3.5-.5.8-.4 1.5.5 5.3 2.1 5.3 6.5 0 5.4-3.3 8-3.3 8s-5.6-.1-10 5.3C28.6 32.8 27 38 23 38H5.7s-4-.5-4-3.3c.1-2.7 3.8-6.3 6.9-8.3z" fill="none" stroke="#45413C" stroke-linecap="round" stroke-linejoin="round" stroke-miterlimit="10"></path><path id="XMLID_1914_" class="st85" d="M23 35.4H7.7c-3.5 0-5.1-.6-5.9-1.2v.5c0 2.8 4 3.3 4 3.3H23c2.5 0 4-1.9 5.8-4.6-1.1.8-3.1 2-5.8 2z" fill="#87898C" stroke="#45413C" stroke-linecap="round" stroke-linejoin="round" stroke-miterlimit="10"></path></g></g></svg>
