<svg xmlns="http://www.w3.org/2000/svg" version="1.1" x="0px" y="0px" viewBox="0 0 48 48" xml space="preserve" id="Icecream2Icon"><style type="text/css"></style><symbol id="New_Symbol_14" viewBox="-6.5 -6.5 13 13"><path class="st0" d="M0-6c2.2 0 4.1 1.5 4.7 3.5C6.3-2.5 6.4 0 5 0v1c0 2.8-2.2 5-5 5s-5-2.2-5-5V0c-1.4 0-1.3-2.5.2-2.5C-4.1-4.5-2.2-6 0-6z" fill="#FFD4C3" stroke="#504B46" stroke-linecap="round" stroke-linejoin="round" stroke-miterlimit="10"></path><circle class="st1" cx="-1.6" cy="-0.1" r="0.1" fill="#FFC258"></circle><path class="st2" d="M-1.6.5c-.3 0-.6-.3-.6-.6s.2-.7.6-.7c.3 0 .6.3.6.7s-.3.6-.6.6z" fill="#4F4B45"></path><circle class="st1" cx="1.6" cy="-0.1" r="0.1" fill="#FFC258"></circle><path class="st2" d="M1.6.5C1.3.5 1 .2 1-.1s.3-.6.6-.6.6.3.6.6-.2.6-.6.6z" fill="#4F4B45"></path><circle class="st3" cx="-3" cy="-1.5" r="0.5" fill="#FABFA5"></circle><circle class="st3" cx="3" cy="-1.5" r="0.5" fill="#FABFA5"></circle><path class="st4" d="M-1.2-3c.8-.5 1.7-.5 2.5 0" fill="none" stroke="#504B46" stroke-linecap="round" stroke-linejoin="round" stroke-miterlimit="10"></path></symbol><g id="Icons"><g id="XMLID_1971_"><ellipse id="XMLID_2473_" class="st5" cx="23.1" cy="44.2" rx="11.5" ry="1.5" fill="#45413C" opacity="0.15"></ellipse><circle id="XMLID_2472_" class="st99" cx="22.8" cy="19.8" r="14" fill="#E5FEFF"></circle><path id="XMLID_2471_" class="st17" d="M22.8 8.4c7.3 0 13.3 5.6 13.9 12.7 0-.4.1-.9.1-1.3 0-7.7-6.3-14-14-14s-14 6.3-14 14c0 .5 0 .9.1 1.3.6-7.1 6.6-12.7 13.9-12.7z" fill="#FFF"></path><circle id="XMLID_2470_" class="st10" cx="22.8" cy="19.8" r="14" fill="none" stroke="#45413C" stroke-linecap="round" stroke-linejoin="round" stroke-miterlimit="10"></circle><path id="XMLID_740_" class="st29" d="M22.8 5.8c-6 0-11.1 3.8-13.1 9.1.7.9 1.8 1.9 3.6 1.9 4.3 0 3.5-3.7 7-4.5 3.3-.8 3.6 1.5 7.5 1.5 2.9 0 4.7-1.3 5.7-3-2.6-3.1-6.4-5-10.7-5z" fill="#FF87AF"></path><path id="XMLID_739_" class="st30" d="M10.5 15.8c2.4-4.4 7-7.4 12.3-7.4 3.7 0 7 1.4 9.5 3.7.5-.4.9-.9 1.2-1.4-2.6-3-6.4-5-10.7-5-6 0-11.1 3.8-13.1 9.1.2.4.4.7.8 1z" fill="#FFB0CA"></path><path id="XMLID_736_" class="st10" d="M22.8 5.8c-6 0-11.1 3.8-13.1 9.1.7.9 1.8 1.9 3.6 1.9 4.3 0 3.5-3.7 7-4.5 3.3-.8 3.6 1.5 7.5 1.5 2.9 0 4.7-1.3 5.7-3-2.6-3.1-6.4-5-10.7-5z" fill="none" stroke="#45413C" stroke-linecap="round" stroke-linejoin="round" stroke-miterlimit="10"></path><path id="XMLID_733_" class="st83" d="M28.1 23.2L34 8.1c.7-1.9 2.6-3.2 4.6-3.2 1.3 0 2.3 1.2 1.9 2.5-.2.9-1 1.5-1.9 1.5-1.2 0-2.2.7-2.6 1.8l-4.9 12.5h-3z" fill="#DAEDF7"></path><path id="XMLID_730_" class="st17" d="M34.3 10.2c.7-2 2.6-3.3 4.7-3.3.7 0 1.2.3 1.6.8 0-.1.1-.2.1-.3.3-1.2-.7-2.5-2-2.5-2.1 0-3.9 1.3-4.6 3.2l-5.9 15.1h1l5.1-13z" fill="#FFF"></path><path id="XMLID_729_" class="st10" d="M28.1 23.2L34 8.1c.7-1.9 2.6-3.2 4.6-3.2 1.3 0 2.3 1.2 1.9 2.5-.2.9-1 1.5-1.9 1.5-1.2 0-2.2.7-2.6 1.8l-4.9 12.5h-3z" fill="none" stroke="#45413C" stroke-linecap="round" stroke-linejoin="round" stroke-miterlimit="10"></path><path id="XMLID_728_" class="st106" d="M37.5 19.8s-1.9 3-14.3 3-15.1-3-15.1-3c-.4 0-.8.4-.8.8.4 7.3 5.8 13.2 12.8 14.4.4.1.7.4.7.8V39c0 .2-.1.4-.2.5-1 1.2-2.3 2-3.8 2.4-1.4.4-1 2.4.4 2.4h11.2c1.4 0 1.7-2 .4-2.4-1.5-.4-2.8-1.2-3.8-2.4-.1-.1-.2-.3-.2-.5v-3.2c0-.4.3-.7.7-.8 7-1.2 12.4-7.2 12.8-14.4 0-.5-.4-.8-.8-.8z" fill="#B8ECFF"></path><path id="XMLID_727_" class="st16" d="M37.5 19.8s-1.9 3-14.3 3-15.1-3-15.1-3c-.4 0-.8.4-.8.8v.1c2 4.4 8.3 7.6 15.8 7.6 6.6 0 12.3-2.5 14.9-6.1.1-.5.2-1.1.2-1.6.1-.5-.3-.8-.7-.8z" fill="#E5F8FF"></path><path id="XMLID_726_" class="st10" d="M37.5 19.8s-1.9 3-14.3 3-15.1-3-15.1-3c-.4 0-.8.4-.8.8.4 7.3 5.8 13.2 12.8 14.4.4.1.7.4.7.8V39c0 .2-.1.4-.2.5-1 1.2-2.3 2-3.8 2.4-1.4.4-1 2.4.4 2.4h11.2c1.4 0 1.7-2 .4-2.4-1.5-.4-2.8-1.2-3.8-2.4-.1-.1-.2-.3-.2-.5v-3.2c0-.4.3-.7.7-.8 7-1.2 12.4-7.2 12.8-14.4 0-.5-.4-.8-.8-.8z" fill="none" stroke="#45413C" stroke-linecap="round" stroke-linejoin="round" stroke-miterlimit="10"></path><circle id="XMLID_725_" class="st57" cx="24.1" cy="4.8" r="2.5" fill="#FF6242"></circle><path id="XMLID_724_" class="st62" d="M24.1 3.8c1.1 0 2.1.7 2.4 1.7.1-.2.1-.5.1-.8 0-1.4-1.1-2.5-2.5-2.5s-2.5 1.1-2.5 2.5c0 .3.1.5.1.8.4-1 1.3-1.7 2.4-1.7z" fill="#FF866E"></path><circle id="XMLID_723_" class="st10" cx="24.1" cy="4.8" r="2.5" fill="none" stroke="#45413C" stroke-linecap="round" stroke-linejoin="round" stroke-miterlimit="10"></circle></g></g></svg>
