<svg xmlns="http://www.w3.org/2000/svg" viewBox="0 0 155 60" version="1.1" id="SibApp">
  <title>Sibapp-Badge-Black</title>
  <rect fill="none"
     width="155"
     height="60"
  ></rect>
  <rect x="10"
     y="10"
     width="135"
     height="40"
     rx="5"
     ry="5"
  ></rect>
  <path fill="#fff"
     d="M34.22,22.57a2.66,2.66,0,0,1-.16.82,1.87,1.87,0,0,1-.41.61,1.72,1.72,0,0,1-.62.39,2.41,2.41,0,0,1-.83.14h-.41v-.82h.41a2.12,2.12,0,0,0,.54-.06.83.83,0,0,0,.38-.21.91.91,0,0,0,.22-.37,2.34,2.34,0,0,0,.07-.57v-2h.81Zm-1-3.47.59-.6.6.6-.6.6Z"
   />
  <path fill="#fff"
     d="M35.93,22.77h-.82V18.06h.82Z"
   />
  <path fill="#fff"
     d="M38.86,17.94a.48.48,0,1,1,1,0,.45.45,0,0,1-.12.32.56.56,0,0,1-.72,0A.45.45,0,0,1,38.86,17.94Zm.9,4.78h-.85v-3.8h.85Z"
   />
  <path fill="#fff"
     d="M44.77,20.3a3.2,3.2,0,0,1-.26,1.32,1.93,1.93,0,0,1-.74.87,2.2,2.2,0,0,1-2.22,0,1.91,1.91,0,0,1-.75-.86,3,3,0,0,1-.27-1.3V20a3.2,3.2,0,0,1,.26-1.32,2.09,2.09,0,0,1,.75-.88,2.2,2.2,0,0,1,2.22,0,2,2,0,0,1,.74.86A3.05,3.05,0,0,1,44.77,20ZM43.88,20a2.27,2.27,0,0,0-.32-1.3,1.05,1.05,0,0,0-.91-.45,1,1,0,0,0-.9.45A2.22,2.22,0,0,0,41.41,20v.29a2.26,2.26,0,0,0,.33,1.3,1.06,1.06,0,0,0,.92.46,1,1,0,0,0,.9-.45,2.26,2.26,0,0,0,.32-1.31Z"
   />
  <path fill="#fff"
     d="M48.24,21.41a.61.61,0,0,0-.24-.52,2.56,2.56,0,0,0-.85-.37,4.21,4.21,0,0,1-1-.42,1.3,1.3,0,0,1-.7-1.14,1.24,1.24,0,0,1,.5-1,2,2,0,0,1,1.31-.4,2.1,2.1,0,0,1,.95.2,1.58,1.58,0,0,1,.66.56,1.49,1.49,0,0,1,.23.8h-.88a.82.82,0,0,0-.25-.63,1.05,1.05,0,0,0-.72-.22,1.09,1.09,0,0,0-.67.18.63.63,0,0,0-.24.52.54.54,0,0,0,.26.47,2.9,2.9,0,0,0,.85.37,4,4,0,0,1,1,.4,1.55,1.55,0,0,1,.53.52,1.41,1.41,0,0,1,.17.69,1.21,1.21,0,0,1-.49,1,2.14,2.14,0,0,1-1.33.37,2.61,2.61,0,0,1-1-.2,1.83,1.83,0,0,1-.73-.57,1.41,1.41,0,0,1-.25-.84h.89a.82.82,0,0,0,.28.67,1.28,1.28,0,0,0,.83.24,1.08,1.08,0,0,0,.7-.19A.61.61,0,0,0,48.24,21.41Z"
   />
  <path fill="#fff"
     d="M55.32,22.77h-.09a2.63,2.63,0,0,1-.49,0,2,2,0,0,1-.43-.15,1.45,1.45,0,0,1-.36-.25A1.3,1.3,0,0,1,53.7,22a.8.8,0,0,1-.2.21,1.2,1.2,0,0,1-.27.16,1.4,1.4,0,0,1-.29.09l-.3,0a1.33,1.33,0,0,1-.49-.09,1.15,1.15,0,0,1-.41-.26,1.2,1.2,0,0,1-.28-.41,1.35,1.35,0,0,1-.11-.55,1.38,1.38,0,0,1,.14-.62,1.8,1.8,0,0,1,.35-.47,2.46,2.46,0,0,1,.52-.34,6.14,6.14,0,0,1,.59-.25l-.07-.31.79-.19.6,2.32a.73.73,0,0,0,.17.34.82.82,0,0,0,.26.2.71.71,0,0,0,.28.09l.25,0h.09Zm-2-1.62a.59.59,0,0,0,0-.19,1.23,1.23,0,0,0,0-.19c0-.07,0-.15-.07-.23s0-.17-.08-.27a2.64,2.64,0,0,0-.79.38.63.63,0,0,0-.27.52.37.37,0,0,0,.06.21.36.36,0,0,0,.14.16.56.56,0,0,0,.19.09.5.5,0,0,0,.21,0,1,1,0,0,0,.41-.14A.53.53,0,0,0,53.31,21.15Z"
   />
  <path fill="#fff"
     d="M59.62,21.47l-.11.07-.24.16a.56.56,0,0,0,.1.15l.14.08.14,0h.69v.81h-.6a1.48,1.48,0,0,1-.7-.17,1.22,1.22,0,0,1-.48-.5l-.54.24a6.32,6.32,0,0,1-.61.22c-.21.06-.43.11-.65.15a3.71,3.71,0,0,1-.67.06h-1V22h1a3.44,3.44,0,0,0,.69-.07,5.65,5.65,0,0,0,.71-.17,4.39,4.39,0,0,0,.67-.23,5.11,5.11,0,0,0,.56-.25l-.33-.1L58,21l-.36-.1-.33-.09-.29-.06a.72.72,0,0,0-.19,0h-.13a.24.24,0,0,0-.11.06.44.44,0,0,0-.08.11.48.48,0,0,0-.08.16l-.75-.23a2.39,2.39,0,0,1,.15-.37,1.29,1.29,0,0,1,.22-.3.93.93,0,0,1,.3-.2.94.94,0,0,1,.39-.07L57,20l.35.1.43.13.46.16.44.16.39.14.29.11.15,0ZM56.09,18.6l.58-.59.61.6-.6.59Z"
   />
  <path fill="#fff"
     d="M61.58,22a.13.13,0,0,1,.1,0,.12.12,0,0,1,0,.09v.56a.11.11,0,0,1,0,.1.13.13,0,0,1-.1,0H60.22a.11.11,0,0,1-.13-.13v-.56a.16.16,0,0,1,0-.09.13.13,0,0,1,.1,0Z"
   />
  <path fill="#fff"
     d="M62.94,22a.17.17,0,0,1,.1,0,.16.16,0,0,1,0,.09v.56a.13.13,0,0,1,0,.1.17.17,0,0,1-.1,0H61.57a.11.11,0,0,1-.13-.13v-.56a.16.16,0,0,1,0-.09.13.13,0,0,1,.1,0Z"
   />
  <path fill="#fff"
     d="M62.83,22h.42a1.3,1.3,0,0,0,.31,0,.67.67,0,0,0,.19-.1.42.42,0,0,0,.09-.16,1.23,1.23,0,0,0,0-.2v-1h.81v.94a.51.51,0,0,0,.13.38.59.59,0,0,0,.41.13h0l.12,0a.31.31,0,0,0,.14-.07.37.37,0,0,0,.11-.15.58.58,0,0,0,.05-.25v-1h.81v.94a.5.5,0,0,0,.13.39A.57.57,0,0,0,67,22a.41.41,0,0,0,.16,0,.29.29,0,0,0,.14-.08.56.56,0,0,0,.1-.15.65.65,0,0,0,0-.22h0v-1h.81v1a.47.47,0,0,0,.15.37.78.78,0,0,0,.45.11h.32v.81h-.32a2,2,0,0,1-.58-.07,1.07,1.07,0,0,1-.43-.24,1.09,1.09,0,0,1-.39.23,1.21,1.21,0,0,1-.46.08,1.7,1.7,0,0,1-.53-.07,1.06,1.06,0,0,1-.41-.24,1.48,1.48,0,0,1-.38.23,1.31,1.31,0,0,1-.43.08,1.46,1.46,0,0,1-.54-.08,1.34,1.34,0,0,1-.41-.22,1.59,1.59,0,0,1-1,.3h-.42Z"
   />
  <path fill="#fff"
     d="M70.87,20l0,.1c0,.06,0,.13,0,.21a1.86,1.86,0,0,1,0,.27l.06.31c0,.1,0,.2,0,.29s0,.18,0,.26a1.5,1.5,0,0,1-.11.58,1.38,1.38,0,0,1-.29.41,1.27,1.27,0,0,1-.41.23,1.16,1.16,0,0,1-.45.08H69V22h1a.47.47,0,0,0,.15-.06.64.64,0,0,0,.13-.15.68.68,0,0,0,0-.27,1.21,1.21,0,0,0,0-.18l0-.22c0-.08,0-.16,0-.24s0-.16,0-.23,0-.14-.05-.2a1.06,1.06,0,0,0,0-.14Zm-1.39-1.32.59-.59.6.6-.6.59Z"
   />
  <path fill="#fff"
     d="M79.81,20.51v1a.59.59,0,0,0,0,.2.38.38,0,0,0,.09.13.25.25,0,0,0,.12.08.31.31,0,0,0,.12.05l.11,0h.28v.81h-.44l-.26-.05-.24-.09a.8.8,0,0,1-.21-.15,1.46,1.46,0,0,1-1,.3H74.68a1.44,1.44,0,0,1-.46-.08,1,1,0,0,1-.38-.24,1,1,0,0,1-.13-.15,1.15,1.15,0,0,1-.22-.48,1.22,1.22,0,0,1,0-.34,1.59,1.59,0,0,1,0-.36c0-.12,0-.24.07-.36s0-.21.08-.29,0-.14,0-.16l.39.13.39.12c0,.06,0,.13-.07.21l-.06.25c0,.09,0,.17,0,.26a1.91,1.91,0,0,0,0,.2.63.63,0,0,0,0,.26.31.31,0,0,0,.11.14.24.24,0,0,0,.13.07l.14,0h3.74a1,1,0,0,0,.31,0,.35.35,0,0,0,.19-.1.33.33,0,0,0,.07-.24V20.51Zm-3.89-.27-.55-.55.54-.57.56.57Zm1.37,0-.55-.56.54-.56.57.56Z"
   />
  <path fill="#fff"
     d="M81.86,22a.13.13,0,0,1,.1,0,.12.12,0,0,1,0,.09v.56a.11.11,0,0,1,0,.1.13.13,0,0,1-.1,0H80.5a.11.11,0,0,1-.13-.13v-.56a.16.16,0,0,1,0-.09.13.13,0,0,1,.1,0Z"
   />
  <path fill="#fff"
     d="M83.22,22a.17.17,0,0,1,.1,0,.16.16,0,0,1,0,.09v.56a.13.13,0,0,1,0,.1.17.17,0,0,1-.1,0H81.85a.11.11,0,0,1-.13-.13v-.56a.16.16,0,0,1,0-.09.13.13,0,0,1,.1,0Z"
   />
  <path fill="#fff"
     d="M83.12,22.77V22h1.34a3,3,0,0,0,.46,0,1.6,1.6,0,0,0,.3-.08.62.62,0,0,0,.17-.11.47.47,0,0,0,.09-.12,3.42,3.42,0,0,1-.78,0,1.47,1.47,0,0,1-.59-.2,1,1,0,0,1-.37-.4,1.2,1.2,0,0,1-.13-.59,1.27,1.27,0,0,1,.1-.52A1.34,1.34,0,0,1,84,19.5a1.26,1.26,0,0,1,.43-.29,1.23,1.23,0,0,1,.54-.09,1.64,1.64,0,0,1,.47.09,1.38,1.38,0,0,1,.35.22,1.23,1.23,0,0,1,.24.31,1.8,1.8,0,0,1,.16.38,3.29,3.29,0,0,1,.09.43,3.4,3.4,0,0,1,0,.45v.25a2,2,0,0,1-.18.75,1.34,1.34,0,0,1-.41.47,1.81,1.81,0,0,1-.57.24,3.63,3.63,0,0,1-.67.06Zm1.15-4.91.58-.6.61.61-.6.59ZM85,19.93a.86.86,0,0,0-.23,0,.47.47,0,0,0-.2.1.42.42,0,0,0-.13.16.4.4,0,0,0-.05.22.42.42,0,0,0,.3.41,1.56,1.56,0,0,0,.86,0c0-.1,0-.2,0-.3a1.47,1.47,0,0,0-.08-.3.6.6,0,0,0-.16-.23A.59.59,0,0,0,85,19.93Z"
   />
  <path fill="#fff"
     d="M88.66,22.77a3.79,3.79,0,0,1-.62,0,1.56,1.56,0,0,1-.43-.13.78.78,0,0,1-.28-.22,1.09,1.09,0,0,1-.17-.32,2.21,2.21,0,0,1-.07-.4c0-.16,0-.32,0-.51V18.06h.82v3.09a2.43,2.43,0,0,0,0,.42.44.44,0,0,0,.09.25.45.45,0,0,0,.23.11,2.46,2.46,0,0,0,.43,0Z"
   />
  <path fill="#fff"
     d="M91,20a.29.29,0,0,1,0,.1c0,.06,0,.13,0,.21s0,.17,0,.27,0,.21,0,.31,0,.2,0,.29,0,.18,0,.26a1.5,1.5,0,0,1-.11.58,1.38,1.38,0,0,1-.29.41,1.27,1.27,0,0,1-.41.23,1.19,1.19,0,0,1-.45.08H88.52V22h1.55a.47.47,0,0,0,.15-.06,1,1,0,0,0,.13-.15.68.68,0,0,0,.05-.27,1.21,1.21,0,0,0,0-.18l0-.22a2,2,0,0,0,0-.24c0-.08,0-.16,0-.23s0-.14,0-.2,0-.11,0-.14Zm-1.76,4.52L88.64,24l.54-.56.56.56Zm1.37,0L90,24l.54-.56.56.56Z"
   />
  <path fill="#fff"
     d="M93.85,22.57a2.66,2.66,0,0,1-.17.82,1.85,1.85,0,0,1-.4.61,1.76,1.76,0,0,1-.63.39,2.37,2.37,0,0,1-.83.14h-.4v-.82h.4a2.26,2.26,0,0,0,.55-.06.75.75,0,0,0,.37-.21.91.91,0,0,0,.22-.37A1.93,1.93,0,0,0,93,22.5v-2h.82Z"
   />
  <path fill="#fff"
     d="M95.67,22.78l-.25,0-.24,0-.26-.06-.27-.08-.39-.12.23-.78a5.72,5.72,0,0,0,.59.17,3.36,3.36,0,0,0,.58.1,1.43,1.43,0,0,0,.47,0,.33.33,0,0,0,.26-.19.14.14,0,0,0,0-.11.51.51,0,0,0-.07-.15l-1.22-1.77.68-.45.23.34s0,0,0,0l0,.07.1.15.17.25.26.39L97,21a1.36,1.36,0,0,1,.21.52,1,1,0,0,1-.22.75.85.85,0,0,1-.22.2,1.49,1.49,0,0,1-.56.22A3.13,3.13,0,0,1,95.67,22.78Z"
   />
  <path fill="#fff"
     d="M48.73,38.51l-1.32-2.64a1.41,1.41,0,0,0-1.26-.78H32.3a.57.57,0,0,0-.51.82l.89,1.73a2.78,2.78,0,0,0,2.48,1.5H48.33A.44.44,0,0,0,48.73,38.51Z"
   />
  <path fill="#fff"
     d="M41.42,40.52H39.35a.37.37,0,0,0-.37.36v2a.37.37,0,0,0,.37.36h2.07a.37.37,0,0,0,.37-.36v-2A.37.37,0,0,0,41.42,40.52Z"
   />
  <path fill="#fff"
     d="M96.51,35.09H81.43a.25.25,0,0,1-.24-.34,6.16,6.16,0,0,0,.35-2.07V30.61a.47.47,0,0,0-.47-.47h-3.2a.47.47,0,0,0-.47.47v2.1A2.4,2.4,0,0,1,75,35.09H73.61a.25.25,0,0,1-.24-.33,6.16,6.16,0,0,0,.34-2v-2.1a.47.47,0,0,0-.48-.47H70a.48.48,0,0,0-.48.47v2.07a2.39,2.39,0,0,1-2.42,2.38H57.82a1.41,1.41,0,0,0-1.26.78l-1.32,2.64a.44.44,0,0,0,.4.63H67.12a6.64,6.64,0,0,0,5.1-2.36l.92,1.84a.89.89,0,0,0,.8.49h1a6.61,6.61,0,0,0,5.3-2.62l.94,2.12a.89.89,0,0,0,.81.53H93.65a2.81,2.81,0,0,0,2.49-1.51L97,35.91A.56.56,0,0,0,96.51,35.09Z"
   />
  <path fill="#fff"
     d="M79.38,40.52H73.8a.37.37,0,0,0-.37.36v2a.37.37,0,0,0,.37.36h5.58a.37.37,0,0,0,.37-.36v-2A.37.37,0,0,0,79.38,40.52Z"
   />
  <path fill="#fff"
     d="M48.67,40.52H43.09a.37.37,0,0,0-.37.36v2a.37.37,0,0,0,.37.36h5.58a.37.37,0,0,0,.37-.36v-2A.37.37,0,0,0,48.67,40.52Z"
   />
  <path fill="#fff"
     d="M65.57,40.52H63.51a.36.36,0,0,0-.37.36v2a.36.36,0,0,0,.37.36h2.06a.36.36,0,0,0,.37-.36v-2A.36.36,0,0,0,65.57,40.52Z"
   />
  <path fill="#fff"
     d="M53.71,26.25H50.28a.36.36,0,0,0-.36.35V38.75a.4.4,0,0,0,.4.39h3.35a.39.39,0,0,0,.39-.39V26.6A.35.35,0,0,0,53.71,26.25Z"
   />
  <path fill="#fff"
     d="M117,27.83a7,7,0,0,1,1.55,8.39c3.73-6.23,2.32-11.13,2.32-11.13-8.1-4.06-12.65-.6-12.65-.6A13.1,13.1,0,0,1,117,27.83Z"
   />
  <path fill="#fff"
     d="M107.83,29.17a6.9,6.9,0,0,1,8.35-1.56c-6.2-3.75-11.07-2.34-11.07-2.34-4,8.15-.6,12.72-.6,12.72A13.23,13.23,0,0,1,107.83,29.17Z"
   />
  <path fill="#fff"
     d="M109.27,38.25a7,7,0,0,1-1.56-8.38C104,36.09,105.4,41,105.4,41c8.1,4.06,12.64.6,12.64.6A13.08,13.08,0,0,1,109.27,38.25Z"
   />
  <path fill="#fff"
     d="M121.8,28.07a13.21,13.21,0,0,1-3.33,8.82,6.89,6.89,0,0,1-8.34,1.56c6.19,3.75,11.07,2.33,11.07,2.33C125.24,32.64,121.8,28.07,121.8,28.07Z"
   />
  <path fill="#fff"
     d="M118.92,16.19c-5.79.11-6.17,5.17-6.17,5.17C118.57,21.85,118.92,16.19,118.92,16.19Z"
   />
</svg>
