<svg xmlns="http://www.w3.org/2000/svg" version="1.1" x="0px" y="0px" viewBox="0 0 48 48" xml space="preserve" id="UnicornIcon"><style type="text/css"></style><symbol id="New_Symbol_14" viewBox="-6.5 -6.5 13 13"><path class="st0" d="M0-6c2.2 0 4.1 1.5 4.7 3.5C6.3-2.5 6.4 0 5 0v1c0 2.8-2.2 5-5 5s-5-2.2-5-5V0c-1.4 0-1.3-2.5.2-2.5C-4.1-4.5-2.2-6 0-6z" fill="#FFD4C3" stroke="#504B46" stroke-linecap="round" stroke-linejoin="round" stroke-miterlimit="10"></path><circle class="st1" cx="-1.6" cy="-0.1" r="0.1" fill="#FFC258"></circle><path class="st2" d="M-1.6.5c-.3 0-.6-.3-.6-.6s.2-.7.6-.7c.3 0 .6.3.6.7s-.3.6-.6.6z" fill="#4F4B45"></path><circle class="st1" cx="1.6" cy="-0.1" r="0.1" fill="#FFC258"></circle><path class="st2" d="M1.6.5C1.3.5 1 .2 1-.1s.3-.6.6-.6.6.3.6.6-.2.6-.6.6z" fill="#4F4B45"></path><circle class="st3" cx="-3" cy="-1.5" r="0.5" fill="#FABFA5"></circle><circle class="st3" cx="3" cy="-1.5" r="0.5" fill="#FABFA5"></circle><path class="st4" d="M-1.2-3c.8-.5 1.7-.5 2.5 0" fill="none" stroke="#504B46" stroke-linecap="round" stroke-linejoin="round" stroke-miterlimit="10"></path></symbol><g id="Icons"><g id="XMLID_1870_"><path id="XMLID_3014_" class="st28" d="M9.7 17.3L4 11.1c-.2-.3-.3-.6-.1-1 .2-.4.6-.6 1.1-.4l8.6 3.1-3.9 4.5z" fill="#FFFACF"></path><path id="XMLID_3013_" class="st118" d="M4.3 11.4c.2-.1.4-.1.7-.1l7.6 2.7 1.1-1.2-8.8-3.1c-.4-.1-.9 0-1.1.4-.2.3-.1.7.1 1l.4.3z" fill="#FFFCE5"></path><path id="XMLID_3012_" class="st10" d="M9.7 17.3L4 11.1c-.2-.3-.3-.6-.1-1 .2-.4.6-.6 1.1-.4l8.6 3.1-3.9 4.5z" fill="none" stroke="#45413C" stroke-linecap="round" stroke-linejoin="round" stroke-miterlimit="10"></path><path id="XMLID_3051_" class="st20" d="M18.4 9.2l25.4 15c.2-1.4.3-2.8.3-4.3 0-.8 0-1.5-.1-2.3-.1-1.6-1.3-3-2.9-3.3-.2 0-.4-.1-.5-.1-.2-.4-.4-.8-.6-1.1-1.5-2.3-3.6-3-5.4-3.1-.3-.5-.6-1-1-1.5-1.6-1.9-3.5-2.4-5.3-2.4l-.3-.3c-1.9-1.9-4.1-2.2-5.9-1.9-2.1-1.4-5.2-1.9-8.2-.5-5.8 2.6-4 10.8.9 10.5 2.8-.2 4.9-3.2 3.6-4.7z" fill="#FCD"></path><path id="XMLID_3064_" class="st34" d="M22.1 6.8c1.8-.3 4 0 5.9 1.9l.3.3c1.7 0 3.7.5 5.3 2.4.5.5.8 1.1 1 1.5 1.9.1 3.9.8 5.4 3.1.3.4.5.8.6 1.1 1.2.2 2.4.6 3.4 1.5 0-.3 0-.6-.1-.9-.1-1.8-1.4-3.2-3.2-3.5h-.2c-.2-.4-.4-.8-.6-1.1-1.5-2.3-3.6-3-5.4-3.1-.3-.5-.6-1-1-1.5-1.6-1.9-3.5-2.4-5.3-2.4 0-.1-.1-.2-.2-.3-1.9-1.9-4.1-2.2-5.9-1.9-2.1-1.4-5.2-1.9-8.2-.5-3.1 1.4-4 4.5-3.4 6.9.4-1.6 1.5-3.1 3.4-4 3-1.4 6.1-.9 8.2.5z" fill="#FFE5EE"></path><path id="XMLID_3088_" class="st10" d="M18.4 9.2l25.4 15c.2-1.4.3-2.8.3-4.3 0-.8 0-1.5-.1-2.3-.1-1.6-1.3-3-2.9-3.3-.2 0-.4-.1-.5-.1-.2-.4-.4-.8-.6-1.1-1.5-2.3-3.6-3-5.4-3.1-.3-.5-.6-1-1-1.5-1.6-1.9-3.5-2.4-5.3-2.4l-.3-.3c-1.9-1.9-4.1-2.2-5.9-1.9-2.1-1.4-5.2-1.9-8.2-.5-5.8 2.6-4 10.8.9 10.5 2.8-.2 4.9-3.2 3.6-4.7z" fill="none" stroke="#45413C" stroke-linecap="round" stroke-linejoin="round" stroke-miterlimit="10"></path><path id="XMLID_2347_" class="st16" d="M17.2 31.1l2.7-3 2.4-.3c.8 4.6 2.5 8.9 5 12.7 1.3 2 4.1 2.4 6 1 5.5-4.1 9.5-10.3 10.5-17.5L30.4 13.5c-1.4-1.1-2.9-2.1-4.5-2.9-2.1-1.1-4.4-1.7-6.7-1.5-4.2.4-7.8 3.2-9.3 6.9L5.7 26.3c-.6 1.4-.5 2.9.1 4.3v.1c.9 2 2.9 3.3 5.1 3.3h.1c2.4-.1 4.7-1.1 6.2-2.9z" fill="#E5F8FF"></path><path id="XMLID_2359_" class="st17" d="M25.3 14.9c1.8.9 3.5 2 5.1 3.2L43 28c.4-1.3.7-2.6.9-3.9L30.4 13.5c-1.6-1.3-3.3-2.3-5.1-3.2-3.2-1.6-7-1.6-10.2.1-2.4 1.2-4.2 3.3-5.2 5.7L5.7 26.3c-.6 1.4-.5 2.9.1 4.3v.1l4.1-10c1-2.5 2.9-4.5 5.2-5.7 3.2-1.7 7-1.7 10.2-.1z" fill="#FFF"></path><ellipse id="XMLID_426_" class="st5" cx="24.9" cy="44" rx="11.5" ry="1.5" fill="#45413C" opacity="0.15"></ellipse><path id="XMLID_3017_" class="st10" d="M30.8 10.6c-.7-2-1.6-3.5-2.5-4.5" fill="none" stroke="#45413C" stroke-linecap="round" stroke-linejoin="round" stroke-miterlimit="10"></path><path id="XMLID_3016_" class="st10" d="M36 13.4c-.4-1.3-.8-2.4-1.3-3.3" fill="none" stroke="#45413C" stroke-linecap="round" stroke-linejoin="round" stroke-miterlimit="10"></path><path id="XMLID_3015_" class="st10" d="M41.7 17.8c-.2-1.4-.6-2.6-1-3.5" fill="none" stroke="#45413C" stroke-linecap="round" stroke-linejoin="round" stroke-miterlimit="10"></path><circle id="XMLID_3008_" class="st78" cx="17.2" cy="18.2" r="0.9" fill="#45413C" stroke="#45413C" stroke-linecap="round" stroke-linejoin="round" stroke-miterlimit="10"></circle><ellipse id="XMLID_3007_" class="st30" cx="22.3" cy="21.8" rx="1.5" ry="1" fill="#FFB0CA"></ellipse><path id="XMLID_3006_" class="st10" d="M8.4 30s-.4-1.1.6-1.5" fill="none" stroke="#45413C" stroke-linecap="round" stroke-linejoin="round" stroke-miterlimit="10"></path><path id="XMLID_3002_" class="st10" d="M22.3 27.9c1.5-.2 2.9-.9 3.9-2.1 1-1.2 1.5-2.7 1.4-4.2l-.1-1.8" fill="none" stroke="#45413C" stroke-linecap="round" stroke-linejoin="round" stroke-miterlimit="10"></path><path id="XMLID_2358_" class="st10" d="M17.2 31.1l2.7-3 2.4-.3c.8 4.6 2.5 8.9 5 12.7 1.3 2 4.1 2.4 6 1 5.5-4.1 9.5-10.3 10.5-17.5L30.4 13.5c-1.4-1.1-2.9-2.1-4.5-2.9-2.1-1.1-4.4-1.7-6.7-1.5-4.2.4-7.8 3.2-9.3 6.9L5.7 26.3c-.6 1.4-.5 2.9.1 4.3v.1c.9 2 2.9 3.3 5.1 3.3h.1c2.4-.1 4.7-1.1 6.2-2.9z" fill="none" stroke="#45413C" stroke-linecap="round" stroke-linejoin="round" stroke-miterlimit="10"></path><path id="XMLID_3005_" class="st32" d="M10.5 10.4c.5 2 2.1 3.6 4.3 3.5 3.2-.2 4.2-4.3 2.1-5.6-1.9-1.1-3.8.7-2.7 1.5" fill="#FCD" stroke="#45413C" stroke-linecap="round" stroke-linejoin="round" stroke-miterlimit="10"></path><path id="XMLID_3004_" class="st15" d="M22.3 11.6c1.2-1.4 1.2-3.4-.2-4.7L21 5.8c-.4-.4-1.2-.4-1.6-.1-.2.2-.3.4-.3.7l.6 5.2" fill="#FFF" stroke="#45413C" stroke-linecap="round" stroke-linejoin="round" stroke-miterlimit="10"></path></g></g></svg>
