<svg
  xmlns="http://www.w3.org/2000/svg"
  width="41.468"
  height="36.55"
  viewBox="0 0 41.468 36.55"
>
  <g
    transform="translate(-1007 -447.735)"
  >
    <g  transform="translate(1007 447.735)">
      <path
        d="M38.3,129.757a.609.609,0,0,0,.123-.013l1.735-.357a.608.608,0,1,0-.245-1.191l-1.735.357a.608.608,0,0,0,.122,1.2Zm0,0"
        transform="translate(-34.636 -117.802)"
        fill="#2446f5"
      />
      <path
        d="M87.42,156.7a.612.612,0,0,0,.123-.013l1.735-.357a.608.608,0,1,0-.245-1.191l-1.735.357a.608.608,0,0,0,.122,1.2Zm0,0"
        transform="translate(-79.782 -142.56)"
        fill="#2446f5"
      />
      <path
        d="M40.683,15.53v-1.2a2.95,2.95,0,0,0-.724-1.936l-1.926-2.216a1.734,1.734,0,0,1-.426-1.138V6.428a1.08,1.08,0,0,0,1.029-1.077V1.079A1.08,1.08,0,0,0,37.557,0h-6.9a1.081,1.081,0,0,0-1.079,1.079V5.351a1.08,1.08,0,0,0,.947,1.07V9.043a1.735,1.735,0,0,1-.426,1.138L28.26,12.3l-.019-.031-.794-1.2a1.092,1.092,0,0,0,.623-.984V7.818a1.092,1.092,0,0,0-1.091-1.091H18.667a.608.608,0,1,0,0,1.216h8.187V9.954h-13.5V7.943h2.5a.608.608,0,0,0,0-1.216H13.231A1.092,1.092,0,0,0,12.14,7.818v2.262a1.091,1.091,0,0,0,.623.984l-.794,1.2c-.013.019-.023.039-.035.058a20.5,20.5,0,0,0-.486-2.269A4.812,4.812,0,0,0,7.319,6.527,7.472,7.472,0,0,0,6.4,6.485l.905-1.667a.608.608,0,0,0-1.069-.581l-.654,1.2L5.124,3.2a.608.608,0,0,0-1.191.245l.461,2.24L3.317,4.84a.608.608,0,1,0-.752.955l1.49,1.173a7.4,7.4,0,0,0-.825.4A4.812,4.812,0,0,0,.83,12.24,21.138,21.138,0,0,0,1.556,15.5H1.013A1.015,1.015,0,0,0,0,16.517v3.146a1.015,1.015,0,0,0,1.013,1.013H2.468l.465,2.68a.608.608,0,1,0,1.2-.208L3.7,20.676H37.765L35.641,32.911a2.918,2.918,0,0,1-2.881,2.423H8.707a2.917,2.917,0,0,1-2.88-2.423L4.614,25.927a.608.608,0,1,0-1.2.208l1.213,6.984A4.132,4.132,0,0,0,8.707,36.55H32.761a4.132,4.132,0,0,0,4.078-3.431L39,20.676h1.455a1.015,1.015,0,0,0,1.013-1.013V16.517A1.015,1.015,0,0,0,40.683,15.53ZM30.793,1.216H37.42v4H30.793ZM28.664,14.333a1.734,1.734,0,0,1,.426-1.138l1.926-2.216a2.951,2.951,0,0,0,.724-1.936V6.43h4.651V9.043a2.952,2.952,0,0,0,.724,1.936l1.926,2.216a1.735,1.735,0,0,1,.426,1.138V15.5h-10.8Zm-15.9-.659a1.335,1.335,0,0,1,.222-.738l1.166-1.765H26.06l1.166,1.765a1.334,1.334,0,0,1,.222.738V15.5h-1.62V14.1a1.015,1.015,0,0,0-1.013-1.013H15.394A1.015,1.015,0,0,0,14.381,14.1V15.5h-1.62Zm11.851.625v1.2H15.6V14.3ZM3.829,8.427A6.372,6.372,0,0,1,5.446,7.79,6.065,6.065,0,0,1,6.52,7.7a6.171,6.171,0,0,1,.667.035,3.6,3.6,0,0,1,3.089,2.643,20.957,20.957,0,0,1,.712,5.125H2.834a20.279,20.279,0,0,1-.8-3.428A3.6,3.6,0,0,1,3.829,8.427ZM40.251,19.459H1.216v-2.74H11.974a.611.611,0,0,0,.179.027H27.908a.619.619,0,0,0,.148.019H40.075a.614.614,0,0,0,.177-.026Zm0,0"
        fill="#2446f5"
      />
      <path
        d="M104.943,297.195a.689.689,0,0,0,.124-.011.612.612,0,0,0,.522-.711l-1.687-8.188a.655.655,0,0,0-.768-.483.612.612,0,0,0-.522.711L104.3,296.7A.645.645,0,0,0,104.943,297.195Zm0,0"
        transform="translate(-94.29 -264.482)"
        fill="#01af44"
      />
      <path
        d="M198.073,297.2l.057,0a.63.63,0,0,0,.614-.656l-.756-8.188a.654.654,0,0,0-.726-.555.63.63,0,0,0-.614.656l.755,8.188A.65.65,0,0,0,198.073,297.2Zm0,0"
        transform="translate(-180.719 -264.484)"
        fill="#01af44"
      />
      <path
        d="M375.749,297.195a.646.646,0,0,0,.644-.494l1.687-8.188a.612.612,0,0,0-.522-.711.655.655,0,0,0-.768.483l-1.687,8.188a.612.612,0,0,0,.522.711A.689.689,0,0,0,375.749,297.195Zm0,0"
        transform="translate(-344.713 -264.482)"
        fill="#01af44"
      />
      <path
        d="M292.572,297.193a.65.65,0,0,0,.669-.557l.755-8.188a.629.629,0,0,0-.614-.656.655.655,0,0,0-.726.556l-.756,8.188a.63.63,0,0,0,.614.656Zm0,0"
        transform="translate(-268.258 -264.48)"
        fill="#01af44"
      />
    </g>
    <rect
      width="17"
      height="5"
      transform="translate(1019 454)"
      fill="#fff"
    />
    <path
      d="M938.9,454.951H935.6v2.85h15.172v-2.85H941.28"
      transform="translate(84 0.689)"
      fill="none"
      stroke="#01af44"
      stroke-linecap="round"
      stroke-linejoin="round"
      stroke-width="1"
    />
  </g>
</svg>
