<svg xmlns="http://www.w3.org/2000/svg" width="24" height="24" viewBox="0 0 24 24" id="Bag4Icon"><g fill="#200E32" fill-rule="nonzero" transform="translate(3 2)"><path d="M14.0864529,5 C15.3502718,5 16.6759559,5.90964221 17.1443642,8.12007277 L17.1443642,8.12007277 L17.913261,14.3147362 C18.4788862,18.3535476 16.2075475,20 13.158474,20 L13.158474,20 L4.86852947,20 C1.81061814,20 -0.53142377,18.8629472 0.104904598,14.3147362 L0.104904598,14.3147362 L0.882639271,8.12007277 C1.2803445,5.84596725 2.65021807,5 3.9317127,5 L3.9317127,5 Z M6.09699673,8.32929048 C5.60889332,8.32929048 5.21320733,8.73655117 5.21320733,9.23893269 C5.21320733,9.74131421 5.60889332,10.1485749 6.09699673,10.1485749 C6.58510014,10.1485749 6.98078613,9.74131421 6.98078613,9.23893269 L6.98078613,9.23893269 L6.97390016,9.1248291 C6.91936452,8.6763055 6.54755372,8.32929048 6.09699673,8.32929048 Z M11.8858173,8.32929048 C11.3977139,8.32929048 11.0020279,8.73655117 11.0020279,9.23893269 C11.0020279,9.74131421 11.3977139,10.1485749 11.8858173,10.1485749 C12.3739207,10.1485749 12.7696067,9.74131421 12.7696067,9.23893269 C12.7696067,8.73655117 12.3739207,8.32929048 11.8858173,8.32929048 Z"></path><path d="M13.9738707,4.77432394 C13.977008,4.85188923 13.9621034,4.9291268 13.9303218,5 L12.4932089,5 C12.4653783,4.92794354 12.4506323,4.85152772 12.44966,4.77432394 C12.44966,2.85682476 10.8898603,1.30238454 8.96574994,1.30238454 C7.04163953,1.30238454 5.48183986,2.85682476 5.48183986,4.77432394 C5.49502365,4.84897562 5.49502365,4.92534832 5.48183986,5 L4.00988785,5 C3.99670405,4.92534832 3.99670405,4.84897562 4.00988785,4.77432394 C4.1217224,2.10590955 6.32499483,0 9.00494392,0 C11.684893,0 13.8881654,2.10590955 14,4.77432394 L13.9738707,4.77432394 Z" opacity=".4"></path></g></svg>