<svg xmlns="http://www.w3.org/2000/svg" width="32" height="32" viewBox="0 0 32 32"><g transform="translate(-921.751 -1535.182)"><path fill="#f6b577" style="isolation:auto;mix-blend-mode:normal" d="m 935.25142,1541.1857 c 0.16371,0.089 0.50284,0.3144 0.5,0.5006 l 0,1.4668 0,0.5097 c 0,0.8328 0.65045,1.4876 1.48047,1.4981 l 6.01953,0 c 0.67616,-0.01 0.67616,1.0095 0,1 l -2.08398,0 c -0.0169,0 -0.0338,0 -0.0508,0 l -3.86523,0 c -0.007,0 -0.0128,0 -0.0195,0 l -4.98047,0 c -0.83966,0 -1.5,0.6604 -1.5,1.5 0,0.8397 0.66034,1.5 1.5,1.5 l 1.03516,0 9.96484,0 c 0.67616,-0.01 0.67616,1.0095 0,1 l -10,0 -1,0 c -0.83966,0 -1.5,0.6604 -1.5,1.5 0,0.8395 0.66037,1.5 1.5,1.5 l 1,0 10,0 c 0.67616,-0.01 0.67616,1.0095 0,1 l -10,0 -1,0 c -0.83966,0 -1.5,0.6604 -1.5,1.5 0,0.8395 0.66037,1.5 1.5,1.5 l 3.43945,0 1.56055,0 c 0.8225,0 1.5,0.6775 1.5,1.5 l 0,0.5058 0,1.5118 c 0.002,0.1453 -0.39135,0.4106 -0.50002,0.5071 l 1.999,0 c -0.12738,-0.096 -0.50114,-0.3731 -0.49898,-0.5325 l 0,-1 0,-1.9903 c 0,-0.8397 -0.66034,-1.5 -1.5,-1.5 l -3.86523,0 c -0.0117,-2e-4 -0.0235,-9e-4 -0.0352,0 l -2.09961,0 c -0.67616,0.01 -0.67616,-1.0095 0,-1 l 11,0 c 0.83963,0 1.5,-0.6605 1.5,-1.5 0,-0.8396 -0.66034,-1.5 -1.5,-1.5 l -11,0 c -0.67616,0.01 -0.67616,-1.0095 0,-1 l 11,0 c 0.83963,0 1.5,-0.6605 1.5,-1.5 0,-0.8396 -0.66034,-1.5 -1.5,-1.5 l -11,0 c -0.67616,0.01 -0.67616,-1.0095 0,-1 l 9.92578,0 c 0.0246,0 0.0494,0 0.0742,0 l 1,0 c 0.83963,0 1.5,-0.6605 1.5,-1.5 0,-0.8396 -0.66034,-1.5 -1.5,-1.5 l -3.85938,0 -1.14062,0 c -0.82249,0 -1.5,-0.6775 -1.5,-1.5 l 0,-0.6054 0,-0.3829 c -0.003,-0.1739 0.35312,-0.3899 0.50004,-0.483 z" color="#000" overflow="visible"/><path fill="#62355c" style="line-height:normal;text-indent:0;text-align:start;text-decoration-line:none;text-decoration-style:solid;text-decoration-color:#000;text-transform:none;block-progression:tb;isolation:auto;mix-blend-mode:normal" d="m 937.24361,1541.1803 c -0.27614,0 -0.49651,0.2321 -0.49219,0.5082 l 0,0.3633 0,0.6052 c 0,0.8225 0.67751,1.5 1.5,1.5 l 1.14062,0 3.85938,0 c 0.83966,0 1.5,0.6604 1.5,1.5 0,0.8395 -0.66037,1.5 -1.5,1.5 l -1,0 c -0.0248,-5e-4 -0.0496,8e-4 -0.0742,0 l -9.92578,0 c -0.67616,-0.01 -0.67616,1.0095 0,1 l 11,0 c 0.83966,0 1.5,0.6604 1.5,1.5 0,0.8395 -0.66037,1.5 -1.5,1.5 l -11,0 c -0.67616,-0.01 -0.67616,1.0095 0,1 l 11,0 c 0.83966,0 1.5,0.6604 1.5,1.5 0,0.8395 -0.66037,1.5 -1.5,1.5 l -11,0 c -0.67616,-0.01 -0.67616,1.0095 0,1 l 2.09961,0 c 0.0117,10e-4 0.0234,0 0.0352,0 l 3.86523,0 c 0.83966,0 1.5,0.6603 1.5,1.5 l 0,1.9902 0,1.0324 c -0.01,0.6761 1.00956,0.6761 1,0 l 0,-1.0324 0,-1.9902 c 0,-0.5652 -0.19697,-1.0823 -0.51562,-1.502 l 3.01562,0 c 1.37639,0 2.5,-1.1237 2.5,-2.5 0,-0.8198 -0.40425,-1.5435 -1.01758,-2 0.61389,-0.4564 1.01758,-1.1797 1.01758,-2 0,-0.8212 -0.40438,-1.5476 -1.01953,-2.0039 0.61458,-0.4563 1.01953,-1.1792 1.01953,-2 0,-1.3763 -1.12364,-2.5 -2.5,-2.5 l -3.85938,0 -1.14062,0 c -0.28207,0 -0.5,-0.2179 -0.5,-0.5 l 0,-0.6051 0,-0.3633 c 0.004,-0.2823 -0.22555,-0.5127 -0.50781,-0.5082 z m -2,0.01 c -0.27614,0 -0.4965,0.2321 -0.49219,0.5082 l 0,1.4587 0,0.5098 c 0,0.5641 0.19602,1.0787 0.51367,1.498 l -3.01367,0 c -1.37636,0 -2.5,1.1237 -2.5,2.5 0,0.8203 0.40369,1.5436 1.01758,2 -0.61333,0.4565 -1.01758,1.1802 -1.01758,2 0,0.8203 0.40369,1.5436 1.01758,2 -0.61333,0.4565 -1.01758,1.1802 -1.01758,2 0,1.3763 1.12361,2.5 2.5,2.5 l 3.43945,0 1.56055,0 c 0.28208,0 0.5,0.2179 0.5,0.5 l 0,0.5059 0,1.5117 c -0.01,0.6761 1.00956,0.6761 1,0 l 0,-1.5117 0,-0.5059 c 0,-0.8225 -0.6775,-1.5 -1.5,-1.5 l -1.56055,0 -3.43945,0 c -0.83963,0 -1.5,-0.6605 -1.5,-1.5 0,-0.8396 0.66034,-1.5 1.5,-1.5 l 1,0 10,0 c 0.67616,0.01 0.67616,-1.0096 0,-1 l -10,0 -1,0 c -0.83963,0 -1.5,-0.6605 -1.5,-1.5 0,-0.8396 0.66034,-1.5 1.5,-1.5 l 1,0 10,0 c 0.67616,0.01 0.67616,-1.0096 0,-1 l -9.96484,0 -1.03516,0 c -0.83966,0 -1.5,-0.6603 -1.5,-1.5 0,-0.8396 0.66034,-1.5 1.5,-1.5 l 4.98047,0 c 0.007,10e-5 0.0128,0 0.0195,0 l 3.86523,0 c 0.017,2e-4 0.0339,-5e-4 0.0508,0 l 2.08398,0 c 0.67616,0.01 0.67616,-1.0096 0,-1 l -6.01953,0 c -0.83,-0.011 -1.48045,-0.6653 -1.48045,-1.498 l 0,-0.5098 0,-1.4587 c 0,-0.3485 -0.25,-0.5082 -0.50781,-0.5082 z" color="#000" font-family="sans-serif" font-weight="400" overflow="visible" white-space="normal"/></g></svg>