<svg xmlns="http://www.w3.org/2000/svg" version="1.1" x="0px" y="0px" viewBox="0 0 48 48" xml space="preserve" id="Juice2Icon"><style type="text/css"></style><symbol id="New_Symbol_14" viewBox="-6.5 -6.5 13 13"><path class="st0" d="M0-6c2.2 0 4.1 1.5 4.7 3.5C6.3-2.5 6.4 0 5 0v1c0 2.8-2.2 5-5 5s-5-2.2-5-5V0c-1.4 0-1.3-2.5.2-2.5C-4.1-4.5-2.2-6 0-6z" fill="#FFD4C3" stroke="#504B46" stroke-linecap="round" stroke-linejoin="round" stroke-miterlimit="10"></path><circle class="st1" cx="-1.6" cy="-0.1" r="0.1" fill="#FFC258"></circle><path class="st2" d="M-1.6.5c-.3 0-.6-.3-.6-.6s.2-.7.6-.7c.3 0 .6.3.6.7s-.3.6-.6.6z" fill="#4F4B45"></path><circle class="st1" cx="1.6" cy="-0.1" r="0.1" fill="#FFC258"></circle><path class="st2" d="M1.6.5C1.3.5 1 .2 1-.1s.3-.6.6-.6.6.3.6.6-.2.6-.6.6z" fill="#4F4B45"></path><circle class="st3" cx="-3" cy="-1.5" r="0.5" fill="#FABFA5"></circle><circle class="st3" cx="3" cy="-1.5" r="0.5" fill="#FABFA5"></circle><path class="st4" d="M-1.2-3c.8-.5 1.7-.5 2.5 0" fill="none" stroke="#504B46" stroke-linecap="round" stroke-linejoin="round" stroke-miterlimit="10"></path></symbol><g id="Icons"><g id="XMLID_1219_"><ellipse id="XMLID_1253_" class="st5" cx="24" cy="44.5" rx="10" ry="1.5" fill="#45413C" opacity="0.15"></ellipse><g id="XMLID_1163_"><path id="XMLID_1213_" class="st61" d="M33.1 42.4c-.6-1.1-3.4-1.9-7-2.2-.5 0-.8-.4-.8-.9v-15h-2.6v15c0 .5-.4.8-.8.9-3.6.2-6.4 1.1-7 2.2-.1.2 0 .5.2.6.9.4 3.6 1.6 8.9 1.6s8.1-1.1 8.9-1.6c.2-.2.3-.4.2-.6z" fill="#00B8F0" stroke="#45413C" stroke-linecap="round" stroke-linejoin="round" stroke-miterlimit="10"></path><g id="XMLID_1202_"><g id="XMLID_1208_"><path id="XMLID_1212_" class="st35" d="M41.2 9.8c0-2.2-7.7-4-17.2-4S6.8 7.6 6.8 9.8v1.8c0 .8.3 1.5 1 2l14 11.5s0 1.8 2.2 1.8 2.2-1.8 2.2-1.8l14-11.5c.6-.5 1-1.2 1-2V9.8z" fill="#00B8F0"></path><path id="XMLID_1211_" class="st36" d="M33.8 6.5c-2.8-.4-6.1-.7-9.8-.7-9.5 0-17.2 1.8-17.2 4v1.8c0 .8.3 1.5 1 2l12.4 10.2C26.6 18.7 31 11.9 33.8 6.5z" fill="#4ACFFF"></path><ellipse id="XMLID_1210_" class="st35" cx="24" cy="9.8" rx="17.2" ry="4" fill="#00B8F0"></ellipse><path id="XMLID_1209_" class="st10" d="M41.2 9.8c0-2.2-7.7-4-17.2-4S6.8 7.6 6.8 9.8v1.8c0 .8.3 1.5 1 2l14 11.5s0 1.8 2.2 1.8 2.2-1.8 2.2-1.8l14-11.5c.6-.5 1-1.2 1-2V9.8z" fill="none" stroke="#45413C" stroke-linecap="round" stroke-linejoin="round" stroke-miterlimit="10"></path></g><g id="XMLID_1203_"><path id="XMLID_1207_" class="st27" d="M35.4 15l-9.6 8s-.9.9-1.8.9-1.8-.9-1.8-.9l-9.6-8s3.1-1.8 11.4-1.8S35.4 15 35.4 15z" fill="#C8FFA1"></path><path id="XMLID_1206_" class="st64" d="M29.6 13.6c-1.5-.2-3.4-.3-5.6-.3-8.4 0-11.4 1.8-11.4 1.8l9.1 7.5c3.1-2.8 5.7-5.9 7.9-9z" fill="#E4FFD1"></path><path id="XMLID_1205_" class="st25" d="M35.4 15s-3.1 1.8-11.4 1.8S12.6 15 12.6 15s3.1-1.8 11.4-1.8S35.4 15 35.4 15z" fill="#9CEB60"></path><path id="XMLID_1204_" class="st27" d="M27.2 16.7c.8-1 1.6-2.1 2.3-3.1-1.5-.2-3.4-.3-5.6-.3-8.4 0-11.4 1.8-11.4 1.8s3.1 1.8 11.4 1.8c1.3-.1 2.4-.1 3.3-.2z" fill="#C8FFA1"></path></g></g><g id="XMLID_1190_"><ellipse id="XMLID_1201_" transform="matrix(0.5598 -0.8286 0.8286 0.5598 11.7394 30.9545)" class="st57" cx="35" cy="4.4" rx="2.6" ry="2.6" fill="#FF6242"></ellipse><path id="XMLID_1200_" class="st62" d="M32.4 4.9c-.3-1.4.7-2.8 2.1-3.1 1.4-.3 2.8.7 3.1 2.1l-5.2 1z" fill="#FF866E"></path><path id="XMLID_1199_" class="st10" fill="none" stroke="#45413C" stroke-linecap="round" stroke-linejoin="round" stroke-miterlimit="10" d="M33.5 6.6l-2.4 3.7"></path><ellipse id="XMLID_1198_" transform="matrix(0.5598 -0.8286 0.8286 0.5598 2.7041 29.9947)" class="st59" cx="29.6" cy="12.5" rx="2.6" ry="3.5" fill="#46B000"></ellipse><path id="XMLID_1197_" class="st26" d="M26.7 13l5.8-1.1c-.3-.6-.8-1.2-1.4-1.6-1.6-1.1-3.6-1-4.4.2-.5.7-.5 1.6 0 2.5z" fill="#6DD627"></path><ellipse id="XMLID_1196_" transform="matrix(0.5598 -0.8286 0.8286 0.5598 2.7041 29.9947)" class="st10" cx="29.6" cy="12.5" rx="2.6" ry="3.5" fill="none" stroke="#45413C" stroke-linecap="round" stroke-linejoin="round" stroke-miterlimit="10"></ellipse><ellipse id="XMLID_1195_" transform="matrix(0.5598 -0.8286 0.8286 0.5598 -2.2244 29.4709)" class="st59" cx="26.6" cy="16.8" rx="2.6" ry="3.5" fill="#46B000"></ellipse><path id="XMLID_1194_" class="st26" d="M23.7 17.4l5.8-1.1c-.3-.6-.8-1.2-1.4-1.6-1.6-1.1-3.6-1-4.4.2-.5.7-.4 1.6 0 2.5z" fill="#6DD627"></path><ellipse id="XMLID_1193_" transform="matrix(0.5598 -0.8286 0.8286 0.5598 -2.2244 29.4709)" class="st10" cx="26.6" cy="16.8" rx="2.6" ry="3.5" fill="none" stroke="#45413C" stroke-linecap="round" stroke-linejoin="round" stroke-miterlimit="10"></ellipse><path id="XMLID_1192_" class="st10" fill="none" stroke="#45413C" stroke-linecap="round" stroke-linejoin="round" stroke-miterlimit="10" d="M25.1 19l-1.4 2.2"></path><ellipse id="XMLID_1191_" transform="matrix(0.5598 -0.8286 0.8286 0.5598 11.7394 30.9545)" class="st10" cx="35" cy="4.4" rx="2.6" ry="2.6" fill="none" stroke="#45413C" stroke-linecap="round" stroke-linejoin="round" stroke-miterlimit="10"></ellipse></g><path id="XMLID_1165_" class="st10" d="M41.2 9.8c0 2.2-7.7 4-17.2 4S6.8 12 6.8 9.8" fill="none" stroke="#45413C" stroke-linecap="round" stroke-linejoin="round" stroke-miterlimit="10"></path></g></g></g></svg>
