<svg xmlns="http://www.w3.org/2000/svg" width="24" height="24" viewBox="0 0 24 24"><g fill="none" fill-rule="evenodd" stroke="#200E32" stroke-linecap="round" stroke-linejoin="round" stroke-width="1.5" transform="translate(1.5 3)"><path d="M19.1763266 5.82105266L19.1763266 4.76184213C19.1787689 3.70580957 18.7603474 2.69232284 18.0136176 1.94559304 17.2668878 1.19886324 16.2534011.780441694 15.1973685.782884015L14.4328948.782884015M2.59735773 5.82105266L2.59735773 4.76184213C2.59492194 3.70740752 3.0120806 2.6953216 3.756816 1.94885827 4.50155141 1.20239494 5.51266785.782894741 6.5671053.782894741L7.36842109.782894741M19.1763266 9.86447373L19.1763266 13.3828948C19.1787689 14.4389274 18.7603474 15.4524141 18.0136176 16.1991439 17.2668878 16.9458737 16.2534011 17.3642952 15.1973685 17.3618529L14.4328948 17.3618529M2.59735771 9.86447373L2.59735771 13.3828948C2.59491539 14.4389274 3.01333693 15.4524141 3.76006673 16.1991439 4.50679653 16.9458737 5.52028326 17.3642952 6.57631582 17.3618529L7.36842109 17.3618529"/><line x1="20.954" x2=".783" y1="9.864" y2="9.864"/></g></svg>