
<svg xmlns="http://www.w3.org/2000/svg" id="delete_2_" width="12.443" height="15.32" data-name="delete (2)" viewBox="0 0 12.443 15.32" style="width:15px;height:15px" fill="#000000"><path id="Path_214" d="M222.757 154.7a.359.359 0 0 0-.359.359v6.781a.359.359 0 1 0 .718 0v-6.781a.359.359 0 0 0-.359-.359zm0 0" class="cls-1" data-name="Path 214" transform="translate(-214.419 -149.152)"></path><path id="Path_215" d="M104.757 154.7a.359.359 0 0 0-.359.359v6.781a.359.359 0 1 0 .718 0v-6.781a.359.359 0 0 0-.359-.359zm0 0" class="cls-1" data-name="Path 215" transform="translate(-100.652 -149.152)"></path><path id="Path_216" d="M1.016 4.559V13.4a1.979 1.979 0 0 0 .526 1.365 1.767 1.767 0 0 0 1.282.554h6.788a1.766 1.766 0 0 0 1.282-.554 1.979 1.979 0 0 0 .526-1.365V4.559a1.371 1.371 0 0 0-.352-2.7H9.231v-.443A1.409 1.409 0 0 0 7.811 0H4.625A1.409 1.409 0 0 0 3.2 1.416v.448H1.367a1.371 1.371 0 0 0-.352 2.7zM9.612 14.6H2.824a1.136 1.136 0 0 1-1.091-1.2V4.591H10.7V13.4a1.136 1.136 0 0 1-1.091 1.2zM3.922 1.416a.691.691 0 0 1 .7-.7h3.189a.691.691 0 0 1 .7.7v.448H3.922zM1.367 2.582h9.7a.646.646 0 0 1 0 1.292h-9.7a.646.646 0 0 1 0-1.292zm0 0" class="cls-1" data-name="Path 216" transform="translate(.003 .002)"></path><path id="Path_217" d="M163.757 154.7a.359.359 0 0 0-.359.359v6.781a.359.359 0 1 0 .718 0v-6.781a.359.359 0 0 0-.359-.359zm0 0" class="cls-1" data-name="Path 217" transform="translate(-157.536 -149.152)"></path></svg>
