<svg xmlns="http://www.w3.org/2000/svg" width="24" height="24" viewBox="0 0 24 24" id="Calendar2Icon"><g fill="#200E32" fill-rule="nonzero" transform="translate(3 2)"><path d="M5.94700235,3.08152438 L12.0896766,3.08152438 L12.0896766,1.65130659 L5.94700235,1.65130659 L5.94700235,3.08152438 Z M4.54965332,1.71004609 L4.54965332,1.71716603 C4.07014558,1.76077565 3.59578461,1.85600484 3.13429058,1.99929362 L3.13429058,1.99395366 C3.10255214,2.00730355 3.07510268,2.0135335 3.04851102,2.02688338 C3.01162581,2.03578331 2.97559839,2.04913319 2.94128657,2.06604305 C2.84006669,2.09897277 2.73884681,2.13813243 2.64363149,2.17818209 C2.59302155,2.19776192 2.54241161,2.2235717 2.49180167,2.24315153 C2.42232023,2.27608125 2.34683422,2.31524092 2.27735277,2.34817064 L2.10579365,2.44695979 C2.05518371,2.47276957 2.01057834,2.50569929 1.9599684,2.53595903 C1.70177193,2.70238761 1.46244695,2.89729595 1.24628246,3.11890406 L1.23341553,3.13225394 C1.15707172,3.22125318 1.08158571,3.30313248 1.01210426,3.38857175 L0.99923733,3.40103165 C0.29756053,4.36934338 -0.0541356655,5.56282319 0.00676782204,6.77232286 L0.00676782204,7.15590959 L1.39210771,7.15590959 L1.39210771,6.76876289 C1.39210771,5.08311729 1.92908776,4.03381625 3.12399703,3.49626084 C3.58034429,3.30313248 4.06242542,3.1838735 4.5530845,3.14026387 L4.56595143,3.14026387 L4.56595143,1.71627603 L4.54965332,1.71004609 Z M17.0039876,3.39569169 L16.9979831,3.3832318 C16.926786,3.29334257 16.8504422,3.2079033 16.7698094,3.12691399 L16.7620893,3.1135641 C16.5433514,2.89373598 16.301453,2.69793765 16.0423988,2.53061908 C15.9977934,2.50391931 15.9566192,2.47098959 15.9034359,2.44161984 C15.8502525,2.41225009 15.7893491,2.3757604 15.7258722,2.34283068 C15.6641109,2.30990096 15.5869093,2.2707413 15.5114233,2.23781158 C15.4676757,2.21823175 15.416208,2.19242197 15.3604513,2.17284213 C15.2635203,2.13279248 15.1700206,2.09363281 15.0696585,2.06070309 C15.0319155,2.0482432 15.0001771,2.03489331 14.9624341,2.02154343 C14.9246911,2.00819354 14.904104,2.0010736 14.8766545,1.98861371 L14.8766545,1.99573365 C14.4143027,1.85244487 13.9399417,1.75810568 13.460434,1.71360606 L13.460434,3.13047396 C13.9450885,3.17319359 14.4203073,3.29334257 14.8689344,3.48647092 C15.4325061,3.71786894 15.8991469,4.1441753 16.1907974,4.69330061 C16.494457,5.33498514 16.6377089,6.04519907 16.6085438,6.75897298 L16.6085438,7.15590959 L17.9930259,7.15590959 L17.9930259,6.76876289 C18.0547872,5.55926322 17.7048066,4.36489342 17.0039876,3.39569169 L17.0039876,3.39569169 Z" opacity=".4"></path><path d="M13.5000297.716927937L13.5000297 3.86846142C13.5000297 4.26554745 13.1778298 4.58716917 12.7800299 4.58716917 12.38223 4.58716917 12.06003 4.26554745 12.06003 3.86846142L12.06003.724115014C12.05643.327028983 12.37683.00271211083 12.7746299 3.55271368e-15 13.1724298-.00267819729 13.4973297.316248366 13.5000297.713334398L13.5000297.716927937zM5.94.728345984L5.94 3.87208831C5.94 4.27089448 5.61741133 4.59425084 5.21955196 4.59425084 4.82169259 4.59425084 4.5 4.27089448 4.5 3.87208831L4.5.728345984C4.5.329539814 4.82169259.00708167176 5.21955196.00708167176 5.61741133.00708167176 5.94.329539814 5.94.728345984M18 7.15590959L18 14.9101539C18 18.291571 16.111588 19.9999833 12.3690987 19.9999833L12.3690987 19.9999833 5.6223176 19.9999833C1.88841202 19.9999833 0 18.291571 0 14.9101539L0 14.9101539 0 7.15590959 18 7.15590959zM13.1158798 14.2462631C12.6523605 14.2462631 12.2832618 14.6268939 12.2832618 15.0960433 12.2918455 15.5651928 12.6609442 15.9458235 13.1158798 15.9458235 13.5708155 15.9458235 13.9399142 15.5651928 13.9399142 15.0960433 13.9399142 14.6268939 13.5708155 14.2462631 13.1158798 14.2462631L13.1158798 14.2462631zM9.00429185 14.2374113C8.54077253 14.2462631 8.17167382 14.6268939 8.17167382 15.0960433 8.17167382 15.5651928 8.54935622 15.9458235 9.00429185 15.9458235 9.45922747 15.9458235 9.82832618 15.5651928 9.82832618 15.0871915 9.81974249 14.6268939 9.45922747 14.2462631 9.00429185 14.2374113L9.00429185 14.2374113zM4.88412017 14.2374113C4.42060086 14.2374113 4.05150215 14.6268939 4.06008584 15.0960433 4.06008584 15.5651928 4.42918455 15.9458235 4.88412017 15.9458235 5.33905579 15.9458235 5.70815451 15.556341 5.70815451 15.0871915 5.70815451 14.618042 5.33905579 14.2374113 4.88412017 14.2374113zM13.1158798 10.6169935C12.6523605 10.6169935 12.2918455 10.9976242 12.2918455 11.4667737 12.2918455 11.9359232 12.6609442 12.3165539 13.1158798 12.3165539 13.5708155 12.3165539 13.9399142 11.9359232 13.9399142 11.4667737 13.9399142 10.9976242 13.5708155 10.6169935 13.1158798 10.6169935zM9.00429185 10.6081417C8.54077253 10.6169935 8.17167382 10.9976242 8.17167382 11.4667737 8.17167382 11.9359232 8.54935622 12.3165539 9.00429185 12.3165539 9.45922747 12.3165539 9.82832618 11.9359232 9.82832618 11.4579219 9.82832618 10.9976242 9.45922747 10.6169935 9.00429185 10.6081417L9.00429185 10.6081417zM4.89270386 10.6081417C4.42918455 10.6081417 4.06008584 10.9976242 4.06008584 11.4667737 4.06008584 11.9359232 4.42918455 12.3165539 4.88412017 12.3165539 5.34763948 12.3165539 5.7167382 11.9270713 5.70815451 11.4579219 5.70815451 10.9887724 5.33905579 10.6081417 4.89270386 10.6081417L4.89270386 10.6081417z"></path></g></svg>