<svg xmlns="http://www.w3.org/2000/svg" version="1.1" x="0px" y="0px" viewBox="0 0 48 48" xml space="preserve" id="Watermelon2Icon"><style type="text/css"></style><symbol id="New_Symbol_14" viewBox="-6.5 -6.5 13 13"><path class="st0" d="M0-6c2.2 0 4.1 1.5 4.7 3.5C6.3-2.5 6.4 0 5 0v1c0 2.8-2.2 5-5 5s-5-2.2-5-5V0c-1.4 0-1.3-2.5.2-2.5C-4.1-4.5-2.2-6 0-6z" fill="#FFD4C3" stroke="#504B46" stroke-linecap="round" stroke-linejoin="round" stroke-miterlimit="10"></path><circle class="st1" cx="-1.6" cy="-0.1" r="0.1" fill="#FFC258"></circle><path class="st2" d="M-1.6.5c-.3 0-.6-.3-.6-.6s.2-.7.6-.7c.3 0 .6.3.6.7s-.3.6-.6.6z" fill="#4F4B45"></path><circle class="st1" cx="1.6" cy="-0.1" r="0.1" fill="#FFC258"></circle><path class="st2" d="M1.6.5C1.3.5 1 .2 1-.1s.3-.6.6-.6.6.3.6.6-.2.6-.6.6z" fill="#4F4B45"></path><circle class="st3" cx="-3" cy="-1.5" r="0.5" fill="#FABFA5"></circle><circle class="st3" cx="3" cy="-1.5" r="0.5" fill="#FABFA5"></circle><path class="st4" d="M-1.2-3c.8-.5 1.7-.5 2.5 0" fill="none" stroke="#504B46" stroke-linecap="round" stroke-linejoin="round" stroke-miterlimit="10"></path></symbol><g id="Icons"><g id="XMLID_1069_"><ellipse id="XMLID_1596_" class="st5" cx="24.3" cy="41.7" rx="13.5" ry="1.5" fill="#45413C" opacity="0.15"></ellipse><g id="XMLID_1540_"><g id="XMLID_1576_"><path id="XMLID_1582_" class="st25" d="M42 24.9l-4.7-1.2c-1.1 1.3-2.9 1.9-4.7 1.5-1.1 1.1-2.8 1.6-4.4 1.1-1.5-.3-2.6-1.3-3.2-2.5-.4 0-.7 0-1.1-.1-2-.5-3.4-2.2-3.6-4.2L3.5 15.2c-.9-.2-1.8.4-2 1.3-1.9 11 5 21.7 16 24.5 11 2.8 22.1-3.4 25.7-14 .2-.9-.3-1.8-1.2-2.1z" fill="#9CEB60"></path><g id="XMLID_1579_"><path id="XMLID_1581_" class="st27" d="M42.3 29.1l.9-2.1c.3-.9-.2-1.8-1.1-2.1l-4.7-1.2c-1.1 1.3-2.9 1.9-4.7 1.5-.5.5-1.1.8-1.7 1l11.3 2.9z" fill="#C8FFA1"></path><path id="XMLID_1580_" class="st27" d="M25.8 25c-.3-.3-.6-.7-.8-1.2-.4 0-.7 0-1.1-.1-2-.5-3.4-2.2-3.6-4.2L3.5 15.2c-.9-.2-1.8.4-2 1.3-.1.8-.2 1.5-.3 2.3L25.8 25z" fill="#C8FFA1"></path></g><path id="XMLID_1578_" class="st10" d="M42 24.9l-4.7-1.2c-1.1 1.3-2.9 1.9-4.7 1.5-1.1 1.1-2.8 1.6-4.4 1.1-1.5-.3-2.6-1.3-3.2-2.5-.4 0-.7 0-1.1-.1-2-.5-3.4-2.2-3.6-4.2L3.5 15.2c-.9-.2-1.8.4-2 1.3-1.9 11 5 21.7 16 24.5 11 2.8 22.1-3.4 25.7-14 .2-.9-.3-1.8-1.2-2.1z" fill="none" stroke="#45413C" stroke-linecap="round" stroke-linejoin="round" stroke-miterlimit="10"></path></g><g id="XMLID_1570_"><path id="XMLID_1575_" class="st28" d="M37.3 23.8c-1.1 1.3-2.9 1.9-4.7 1.5-1.1 1.1-2.8 1.6-4.4 1.1-1.5-.4-2.6-1.4-3.2-2.6-.4 0-.7 0-1.1-.1-2-.5-3.4-2.2-3.6-4.2l-15.7-4c-2.5 10 3.5 20.2 13.6 22.8 10 2.5 20.2-3.5 22.8-13.6l-3.7-.9z" fill="#FFFACF"></path><g id="XMLID_1572_"><path id="XMLID_1574_" class="st17" d="M39.5 28.4c.6-1.2 1.1-2.4 1.4-3.8l-3.6-.9c-1.1 1.3-2.9 1.9-4.7 1.5-.5.5-1.1.8-1.7 1l8.6 2.2z" fill="#FFF"></path><path id="XMLID_1573_" class="st17" d="M25.8 25c-.3-.3-.6-.7-.8-1.2-.4 0-.7 0-1.1-.1-2-.5-3.4-2.2-3.6-4.2l-15.7-4c-.3 1.3-.5 2.7-.6 4L25.8 25z" fill="#FFF"></path></g><path id="XMLID_1571_" class="st10" d="M37.3 23.8c-1.1 1.3-2.9 1.9-4.7 1.5-1.1 1.1-2.8 1.6-4.4 1.1-1.5-.4-2.6-1.4-3.2-2.6-.4 0-.7 0-1.1-.1-2-.5-3.4-2.2-3.6-4.2l-15.7-4c-2.5 10 3.5 20.2 13.6 22.8 10 2.5 20.2-3.5 22.8-13.6l-3.7-.9z" fill="none" stroke="#45413C" stroke-linecap="round" stroke-linejoin="round" stroke-miterlimit="10"></path></g><g id="XMLID_1564_"><path id="XMLID_1569_" class="st29" d="M37.3 23.8c-1.1 1.3-2.9 1.9-4.7 1.5-1.1 1.1-2.8 1.6-4.4 1.1-1.5-.4-2.6-1.4-3.2-2.6-.4 0-.7 0-1.1-.1-2-.5-3.4-2.2-3.6-4.2L6.9 16.1C4.7 24.8 10 33.7 18.8 35.9c8.8 2.2 17.6-3.1 19.8-11.8l-1.3-.3z" fill="#FF87AF"></path><g id="XMLID_1566_"><path id="XMLID_1568_" class="st30" d="M37.1 27.8c.6-1.2 1.1-2.4 1.5-3.7l-1.3-.3c-1.1 1.3-2.9 1.9-4.7 1.5-.5.5-1.1.8-1.7 1l6.2 1.5z" fill="#FFB0CA"></path><path id="XMLID_1567_" class="st30" d="M25.8 25c-.3-.3-.6-.7-.8-1.2-.4 0-.7 0-1.1-.1-2-.5-3.4-2.2-3.6-4.2L6.9 16.1c-.3 1.3-.5 2.7-.5 4L25.8 25z" fill="#FFB0CA"></path></g><path id="XMLID_1565_" class="st10" d="M37.3 23.8c-1.1 1.3-2.9 1.9-4.7 1.5-1.1 1.1-2.8 1.6-4.4 1.1-1.5-.4-2.6-1.4-3.2-2.6-.4 0-.7 0-1.1-.1-2-.5-3.4-2.2-3.6-4.2L6.9 16.1C4.7 24.8 10 33.7 18.8 35.9c8.8 2.2 17.6-3.1 19.8-11.8l-1.3-.3z" fill="none" stroke="#45413C" stroke-linecap="round" stroke-linejoin="round" stroke-miterlimit="10"></path></g><g id="XMLID_1541_"><path id="XMLID_1548_" class="st33" d="M9.8 20.9c-.1.4.2.9.6 1 .4.1.9-.2 1-.6l.2-.8c.1-.4-.2-.9-.6-1-.4-.1-.9.2-1 .6l-.2.8z" fill="#FF6196" stroke="#45413C" stroke-linecap="round" stroke-linejoin="round" stroke-miterlimit="10"></path><path id="XMLID_1547_" class="st33" d="M12.7 25.8c-.1.4.2.9.6 1 .4.1.9-.2 1-.6l.2-.8c.1-.4-.2-.9-.6-1-.4-.1-.9.2-1 .6l-.2.8z" fill="#FF6196" stroke="#45413C" stroke-linecap="round" stroke-linejoin="round" stroke-miterlimit="10"></path><path id="XMLID_1546_" class="st33" d="M17.5 22.9c-.1.4.2.9.6 1 .4.1.9-.2 1-.6l.2-.8c.1-.4-.2-.9-.6-1-.4-.1-.9.2-1 .6l-.2.8z" fill="#FF6196" stroke="#45413C" stroke-linecap="round" stroke-linejoin="round" stroke-miterlimit="10"></path><path id="XMLID_1545_" class="st33" d="M28.9 29.9c-.1.4-.5.7-1 .6-.4-.1-.7-.5-.6-1l.2-.8c.1-.4.5-.7 1-.6.4.1.7.5.6 1l-.2.8z" fill="#FF6196" stroke="#45413C" stroke-linecap="round" stroke-linejoin="round" stroke-miterlimit="10"></path><path id="XMLID_1544_" class="st33" d="M15.6 30.6c-.1.4.2.9.6 1 .4.1.9-.2 1-.6l.2-.8c.1-.4-.2-.9-.6-1-.4-.1-.9.2-1 .6l-.2.8z" fill="#FF6196" stroke="#45413C" stroke-linecap="round" stroke-linejoin="round" stroke-miterlimit="10"></path><path id="XMLID_1543_" class="st33" d="M24.1 32.8c-.1.4-.5.7-1 .6-.4-.1-.7-.5-.6-1l.2-.8c.1-.4.5-.7 1-.6.4.1.7.5.6 1l-.2.8z" fill="#FF6196" stroke="#45413C" stroke-linecap="round" stroke-linejoin="round" stroke-miterlimit="10"></path><path id="XMLID_1542_" class="st33" d="M20 27.6c-.1.4.2.9.6 1 .4.1.9-.2 1-.6l.2-.8c.1-.4-.2-.9-.6-1-.4-.1-.9.2-1 .6l-.2.8z" fill="#FF6196" stroke="#45413C" stroke-linecap="round" stroke-linejoin="round" stroke-miterlimit="10"></path></g></g><g id="XMLID_1518_"><g id="XMLID_1536_"><path id="XMLID_1539_" class="st17" d="M34.1 7.1c.2-.9-.1-1.7-.8-1.9-.7-.2-1.4.4-1.6 1.2-.2.6 0 2.6.1 3.7 0 .3.3.3.4.1.6-.8 1.7-2.5 1.9-3.1z" fill="#FFF"></path><path id="XMLID_1538_" class="st34" d="M33 6.3c-.5-.1-1.1.2-1.4.7 0-.2 0-.4.1-.5.2-.9.9-1.4 1.6-1.2.7.2 1 1 .8 1.9 0 .1-.1.3-.2.5-.1-.7-.4-1.3-.9-1.4z" fill="#FFE5EE"></path><path id="XMLID_1537_" class="st10" d="M34.1 7.1c.2-.9-.1-1.7-.8-1.9-.7-.2-1.4.4-1.6 1.2-.2.6 0 2.6.1 3.7 0 .3.3.3.4.1.6-.8 1.7-2.5 1.9-3.1z" fill="none" stroke="#45413C" stroke-linecap="round" stroke-linejoin="round" stroke-miterlimit="10"></path></g><g id="XMLID_1532_"><path id="XMLID_1535_" class="st17" d="M41 11.1c.5-.7.5-1.6 0-2-.5-.4-1.4-.2-2 .5-.4.5-1 2.4-1.4 3.4-.1.3.1.4.4.3.9-.6 2.6-1.7 3-2.2z" fill="#FFF"></path><path id="XMLID_1534_" class="st34" d="M40.3 9.9c-.4-.3-1.1-.2-1.6.1.1-.2.2-.4.3-.5.5-.7 1.4-.9 2-.5.5.4.5 1.3 0 2l-.4.4c.3-.5.2-1.1-.3-1.5z" fill="#FFE5EE"></path><path id="XMLID_1533_" class="st10" d="M41 11.1c.5-.7.5-1.6 0-2-.5-.4-1.4-.2-2 .5-.4.5-1 2.4-1.4 3.4-.1.3.1.4.4.3.9-.6 2.6-1.7 3-2.2z" fill="none" stroke="#45413C" stroke-linecap="round" stroke-linejoin="round" stroke-miterlimit="10"></path></g><g id="XMLID_1528_"><path id="XMLID_1531_" class="st17" d="M45.9 17.5c.8-.4 1.1-1.3.8-1.9-.3-.6-1.2-.7-2-.3-.6.3-1.9 1.9-2.6 2.7-.2.2 0 .4.2.4 1-.2 3-.6 3.6-.9z" fill="#FFF"></path><path id="XMLID_1530_" class="st34" d="M45.7 16.1c-.3-.5-.9-.6-1.5-.5.2-.1.3-.3.4-.3.8-.4 1.7-.3 2 .3.3.6 0 1.4-.8 1.9-.1.1-.3.1-.5.2.5-.5.7-1.1.4-1.6z" fill="#FFE5EE"></path><path id="XMLID_1529_" class="st10" d="M45.9 17.5c.8-.4 1.1-1.3.8-1.9-.3-.6-1.2-.7-2-.3-.6.3-1.9 1.9-2.6 2.7-.2.2 0 .4.2.4 1-.2 3-.6 3.6-.9z" fill="none" stroke="#45413C" stroke-linecap="round" stroke-linejoin="round" stroke-miterlimit="10"></path></g><g id="XMLID_1524_"><path id="XMLID_1527_" class="st17" d="M24.1 6.6c-.1-.9.3-1.7 1-1.8.7-.1 1.3.5 1.4 1.4.1.6-.3 2.6-.5 3.7-.1.3-.3.3-.4.1-.5-.9-1.4-2.8-1.5-3.4z" fill="#FFF"></path><path id="XMLID_1526_" class="st34" d="M25.3 5.9c.5-.1 1 .3 1.3.9v-.5c-.1-.9-.8-1.5-1.4-1.4-.7.1-1.1.9-1 1.8 0 .1.1.3.1.5.1-.7.5-1.2 1-1.3z" fill="#FFE5EE"></path><path id="XMLID_1525_" class="st10" d="M24.1 6.6c-.1-.9.3-1.7 1-1.8.7-.1 1.3.5 1.4 1.4.1.6-.3 2.6-.5 3.7-.1.3-.3.3-.4.1-.5-.9-1.4-2.8-1.5-3.4z" fill="none" stroke="#45413C" stroke-linecap="round" stroke-linejoin="round" stroke-miterlimit="10"></path></g><g id="XMLID_1519_"><path id="XMLID_1523_" class="st17" d="M16.7 9.7c-.4-.8-.3-1.7.3-2 .6-.3 1.4 0 1.9.8.3.5.7 2.5.9 3.5 0 .3-.2.4-.4.2-.8-.6-2.3-2-2.7-2.5z" fill="#FFF"></path><path id="XMLID_1521_" class="st34" d="M17.5 8.6c.5-.3 1.1-.1 1.5.3 0-.2 0-.4-.1-.5-.4-.8-1.3-1.1-1.9-.8-.6.3-.7 1.2-.3 2 .1.1.2.3.3.4-.1-.5.1-1.1.5-1.4z" fill="#FFE5EE"></path><path id="XMLID_1520_" class="st10" d="M16.7 9.7c-.4-.8-.3-1.7.3-2 .6-.3 1.4 0 1.9.8.3.5.7 2.5.9 3.5 0 .3-.2.4-.4.2-.8-.6-2.3-2-2.7-2.5z" fill="none" stroke="#45413C" stroke-linecap="round" stroke-linejoin="round" stroke-miterlimit="10"></path></g></g></g></g></svg>
