<svg xmlns="http://www.w3.org/2000/svg" version="1.1" x="0px" y="0px" viewBox="0 0 48 48" xml space="preserve" id="MouseIcon"><style type="text/css"></style><symbol id="New_Symbol_14" viewBox="-6.5 -6.5 13 13"><path class="st0" d="M0-6c2.2 0 4.1 1.5 4.7 3.5C6.3-2.5 6.4 0 5 0v1c0 2.8-2.2 5-5 5s-5-2.2-5-5V0c-1.4 0-1.3-2.5.2-2.5C-4.1-4.5-2.2-6 0-6z" fill="#FFD4C3" stroke="#504B46" stroke-linecap="round" stroke-linejoin="round" stroke-miterlimit="10"></path><circle class="st1" cx="-1.6" cy="-0.1" r="0.1" fill="#FFC258"></circle><path class="st2" d="M-1.6.5c-.3 0-.6-.3-.6-.6s.2-.7.6-.7c.3 0 .6.3.6.7s-.3.6-.6.6z" fill="#4F4B45"></path><circle class="st1" cx="1.6" cy="-0.1" r="0.1" fill="#FFC258"></circle><path class="st2" d="M1.6.5C1.3.5 1 .2 1-.1s.3-.6.6-.6.6.3.6.6-.2.6-.6.6z" fill="#4F4B45"></path><circle class="st3" cx="-3" cy="-1.5" r="0.5" fill="#FABFA5"></circle><circle class="st3" cx="3" cy="-1.5" r="0.5" fill="#FABFA5"></circle><path class="st4" d="M-1.2-3c.8-.5 1.7-.5 2.5 0" fill="none" stroke="#504B46" stroke-linecap="round" stroke-linejoin="round" stroke-miterlimit="10"></path></symbol><g id="Icons"><g id="XMLID_1874_"><circle id="XMLID_2909_" class="st75" cx="12.7" cy="10.6" r="9.4" fill="#E0E0E0"></circle><circle id="XMLID_2908_" class="st75" cx="35.3" cy="10.6" r="9.4" fill="#E0E0E0"></circle><path id="XMLID_2128_" class="st41" d="M12.7 3.5c4.8 0 8.8 3.6 9.4 8.3 0-.4.1-.8.1-1.2 0-5.2-4.2-9.4-9.4-9.4s-9.4 4.2-9.4 9.4c0 .4 0 .8.1 1.2.4-4.7 4.4-8.3 9.2-8.3z" fill="#F0F0F0"></path><path id="XMLID_2127_" class="st41" d="M35.3 3.5c4.8 0 8.8 3.6 9.4 8.3 0-.4.1-.8.1-1.2 0-5.2-4.2-9.4-9.4-9.4S26 5.4 26 10.6c0 .4 0 .8.1 1.2.4-4.7 4.4-8.3 9.2-8.3z" fill="#F0F0F0"></path><circle id="XMLID_2126_" class="st10" cx="12.7" cy="10.6" r="9.4" fill="none" stroke="#45413C" stroke-linecap="round" stroke-linejoin="round" stroke-miterlimit="10"></circle><circle id="XMLID_2125_" class="st10" cx="35.3" cy="10.6" r="9.4" fill="none" stroke="#45413C" stroke-linecap="round" stroke-linejoin="round" stroke-miterlimit="10"></circle><circle id="XMLID_2123_" class="st76" cx="12.7" cy="10.6" r="6.6" fill="#BDBEC0"></circle><circle id="XMLID_2122_" class="st76" cx="35.3" cy="10.6" r="6.6" fill="#BDBEC0"></circle><path id="XMLID_2121_" class="st74" d="M12.7 6.5c3.2 0 5.9 2.3 6.5 5.4.1-.4.1-.8.1-1.2 0-3.6-3-6.6-6.6-6.6C9 4 6.1 7 6.1 10.6c0 .4 0 .8.1 1.2.6-3 3.3-5.3 6.5-5.3z" fill="#87898C"></path><path id="XMLID_2120_" class="st74" d="M35.3 6.5c3.2 0 5.9 2.3 6.5 5.4.1-.4.1-.8.1-1.2C41.9 7 39 4 35.3 4c-3.6 0-6.6 3-6.6 6.6 0 .4 0 .8.1 1.2.6-3 3.3-5.3 6.5-5.3z" fill="#87898C"></path><circle id="XMLID_2119_" class="st10" cx="12.7" cy="10.6" r="6.6" fill="none" stroke="#45413C" stroke-linecap="round" stroke-linejoin="round" stroke-miterlimit="10"></circle><circle id="XMLID_2118_" class="st10" cx="35.3" cy="10.6" r="6.6" fill="none" stroke="#45413C" stroke-linecap="round" stroke-linejoin="round" stroke-miterlimit="10"></circle><path id="XMLID_2768_" class="st75" d="M24 9.2c-6.4 0-11.6 5.2-12 11.7-2.7.9-4.7 3.5-4.7 6.6 0 2.9 2.6 4.7 4.9 5.8 2.5 1.1 3.9 2.7 5.8 4.7 1.6 1.8 2.7 3.5 6 3.5s4.3-1.7 6-3.5c1.9-2 3.3-3.6 5.8-4.7 2.3-1 4.9-2.9 4.9-5.8 0-3.1-2-5.7-4.7-6.6-.3-6.5-5.6-11.7-12-11.7z" fill="#E0E0E0"></path><path id="XMLID_2795_" class="st41" d="M12 23.6c.3-6.5 5.6-11.7 12-11.7s11.7 5.2 12 11.7c2.3.8 4 2.7 4.5 5.2.1-.4.2-.8.2-1.2 0-3.1-2-5.7-4.7-6.6-.3-6.5-5.6-11.7-12-11.7S12.4 14.5 12 21c-2.7.9-4.7 3.5-4.7 6.6 0 .4.1.8.2 1.2.5-2.5 2.3-4.4 4.5-5.2z" fill="#F0F0F0"></path><path id="XMLID_1751_" class="st10" d="M24 9.2c-6.4 0-11.6 5.2-12 11.7-2.7.9-4.7 3.5-4.7 6.6 0 2.9 2.6 4.7 4.9 5.8 2.5 1.1 3.9 2.7 5.8 4.7 1.6 1.8 2.7 3.5 6 3.5s4.3-1.7 6-3.5c1.9-2 3.3-3.6 5.8-4.7 2.3-1 4.9-2.9 4.9-5.8 0-3.1-2-5.7-4.7-6.6-.3-6.5-5.6-11.7-12-11.7z" fill="none" stroke="#45413C" stroke-linecap="round" stroke-linejoin="round" stroke-miterlimit="10"></path><ellipse id="XMLID_2124_" class="st5" cx="24" cy="45.3" rx="11.5" ry="1.5" fill="#45413C" opacity="0.15"></ellipse><path id="XMLID_2113_" class="st79" d="M26.8 34.3c0 .6-1.3 2.2-2.8 2.2-1.6 0-2.8-1.6-2.8-2.2 0-.6 1.3-1.1 2.8-1.1 1.6 0 2.8.5 2.8 1.1z" fill="#FFA694"></path><path id="XMLID_2112_" class="st107" d="M24 34.6c1 0 1.9.2 2.4.6.2-.3.4-.7.4-.9 0-.6-1.3-1.1-2.8-1.1s-2.8.5-2.8 1.1c0 .2.1.5.4.9.5-.4 1.4-.6 2.4-.6z" fill="#FFCABF"></path><path id="XMLID_2111_" class="st10" d="M26.8 34.3c0 .6-1.3 2.2-2.8 2.2-1.6 0-2.8-1.6-2.8-2.2 0-.6 1.3-1.1 2.8-1.1 1.6 0 2.8.5 2.8 1.1z" fill="none" stroke="#45413C" stroke-linecap="round" stroke-linejoin="round" stroke-miterlimit="10"></path><circle id="XMLID_2110_" class="st78" cx="30.2" cy="23.8" r="1.4" fill="#45413C" stroke="#45413C" stroke-linecap="round" stroke-linejoin="round" stroke-miterlimit="10"></circle><circle id="XMLID_2109_" class="st78" cx="17.8" cy="23.8" r="1.4" fill="#45413C" stroke="#45413C" stroke-linecap="round" stroke-linejoin="round" stroke-miterlimit="10"></circle><ellipse id="XMLID_2108_" class="st79" cx="36.2" cy="27.8" rx="1.7" ry="1" fill="#FFA694"></ellipse><ellipse id="XMLID_2107_" class="st79" cx="11.8" cy="27.8" rx="1.7" ry="1" fill="#FFA694"></ellipse><path id="XMLID_2106_" class="st10" d="M29.7 33.7s4.4-.9 8.5 2.8" fill="none" stroke="#45413C" stroke-linecap="round" stroke-linejoin="round" stroke-miterlimit="10"></path><path id="XMLID_2105_" class="st10" d="M29.7 35.6s4.3.5 6.1 4.2" fill="none" stroke="#45413C" stroke-linecap="round" stroke-linejoin="round" stroke-miterlimit="10"></path><path id="XMLID_2104_" class="st10" d="M18.3 33.7s-4.4-.9-8.5 2.8" fill="none" stroke="#45413C" stroke-linecap="round" stroke-linejoin="round" stroke-miterlimit="10"></path><path id="XMLID_2088_" class="st10" d="M18.3 35.6s-4.3.5-6.1 4.2" fill="none" stroke="#45413C" stroke-linecap="round" stroke-linejoin="round" stroke-miterlimit="10"></path></g></g></svg>
