<svg version="1.1" xmlns="http://www.w3.org/2000/svg" width="24" height="24" viewBox="0 0 24 24" id="Barcode2Icon">
  <path d="M0 5h1v14h-1v-14z" ></path>
  <path d="M2 5h2v11h-2v-11z" ></path>
  <path d="M5 5h1v11h-1v-11z" ></path>
  <path d="M7 5h1v11h-1v-11z" ></path>
  <path d="M9 5h2v11h-2v-11z" ></path>
  <path d="M23 5h1v14h-1v-14z" ></path>
  <path d="M18 5h2v11h-2v-11z" ></path>
  <path d="M21 5h1v11h-1v-11z" ></path>
  <path d="M16 5h1v11h-1v-11z" ></path>
  <path d="M14 5h1v11h-1v-11z" ></path>
  <path d="M12 5h1v11h-1v-11z" ></path>
  <path d="M2 17h20v1h-20v-1z" ></path>
</svg>

