<svg style="width:15px;height:15px" version="1.1" xmlns="http://www.w3.org/2000/svg" width="32" height="32" viewBox="0 0 32 32" id="MenuIcon">
  <title>menu</title>
  <path d="M28.842 4.266h-25.898c-0.566 0-1.024-0.458-1.024-1.024s0.458-1.024 1.024-1.024v0h25.898c0.566 0 1.024 0.458 1.024 1.024s-0.458 1.024-1.024 1.024v0zM28.842 17.152h-25.898c-0.566 0-1.024-0.458-1.024-1.024s0.458-1.024 1.024-1.024v0h25.898c0.566 0 1.024 0.458 1.024 1.024s-0.458 1.024-1.024 1.024v0zM28.842 30.038h-25.898c-0.566 0-1.024-0.458-1.024-1.024s0.458-1.024 1.024-1.024v0h25.898c0.566 0 1.024 0.458 1.024 1.024s-0.458 1.024-1.024 1.024v0z"></path>{' '}
</svg>
