<svg xmlns="http://www.w3.org/2000/svg" version="1.1" x="0px" y="0px" viewBox="0 0 48 48" xml space="preserve" id="MilkIcon"><style type="text/css"></style><symbol id="New_Symbol_14" viewBox="-6.5 -6.5 13 13"><path class="st0" d="M0-6c2.2 0 4.1 1.5 4.7 3.5C6.3-2.5 6.4 0 5 0v1c0 2.8-2.2 5-5 5s-5-2.2-5-5V0c-1.4 0-1.3-2.5.2-2.5C-4.1-4.5-2.2-6 0-6z" fill="#FFD4C3" stroke="#504B46" stroke-linecap="round" stroke-linejoin="round" stroke-miterlimit="10"></path><circle class="st1" cx="-1.6" cy="-0.1" r="0.1" fill="#FFC258"></circle><path class="st2" d="M-1.6.5c-.3 0-.6-.3-.6-.6s.2-.7.6-.7c.3 0 .6.3.6.7s-.3.6-.6.6z" fill="#4F4B45"></path><circle class="st1" cx="1.6" cy="-0.1" r="0.1" fill="#FFC258"></circle><path class="st2" d="M1.6.5C1.3.5 1 .2 1-.1s.3-.6.6-.6.6.3.6.6-.2.6-.6.6z" fill="#4F4B45"></path><circle class="st3" cx="-3" cy="-1.5" r="0.5" fill="#FABFA5"></circle><circle class="st3" cx="3" cy="-1.5" r="0.5" fill="#FABFA5"></circle><path class="st4" d="M-1.2-3c.8-.5 1.7-.5 2.5 0" fill="none" stroke="#504B46" stroke-linecap="round" stroke-linejoin="round" stroke-miterlimit="10"></path></symbol><g id="Icons"><g id="XMLID_1846_"><ellipse id="XMLID_2592_" class="st5" cx="24.6" cy="44.5" rx="12.5" ry="1.6" fill="#45413C" opacity="0.15"></ellipse><path id="XMLID_2596_" class="st16" d="M19.3 43.6l-8.1-4.4c-2.8-1.5-4-4.6-2.8-6.9L17.3 16c.7-1.2 1.7-2.2 2.9-2.9l16.1 8.8c.1 1.4-.2 2.8-.9 4l-8.9 16.3c-1.2 2.3-4.4 2.9-7.2 1.4z" fill="#E5F8FF"></path><path id="XMLID_2595_" class="st108" d="M34.7 27.4l-8.1 14.8c-1.2 2.3-4.5 2.9-7.3 1.4l-8.1-4.4c-2.8-1.5-4-4.6-2.8-6.9l2.7-4.9h23.6z" fill="#E5FFF9"></path><path id="XMLID_2594_" class="st17" fill="#FFF" d="M32.2 31.9l2.5-4.5H11.1l-2.5 4.5z"></path><path id="XMLID_2593_" class="st95" d="M34.7 27.4l-8.1 14.8c-1.2 2.3-4.5 2.9-7.3 1.4l-8.1-4.4c-2.8-1.5-4-4.6-2.8-6.9l2.7-4.9h23.6z" fill="none" stroke="#45413C" stroke-linecap="round" stroke-linejoin="round" stroke-miterlimit="10" stroke-width="1.0064"></path><path id="XMLID_2591_" class="st95" d="M19.3 43.6l-8.1-4.4c-2.8-1.5-4-4.6-2.8-6.9L17.3 16c.7-1.2 1.7-2.2 2.9-2.9l16.1 8.8c.1 1.4-.2 2.8-.9 4l-8.9 16.3c-1.2 2.3-4.4 2.9-7.2 1.4z" fill="none" stroke="#45413C" stroke-linecap="round" stroke-linejoin="round" stroke-miterlimit="10" stroke-width="1.0064"></path><path id="XMLID_2578_" class="st87" d="M36.4 21.9L20.1 13c-.5-.3-.7-.9-.4-1.4l2.1-3.9c.3-.5.9-.7 1.4-.4l16.3 8.9c.5.3.7.9.4 1.4l-2.1 3.9c-.2.5-.9.7-1.4.4z" fill="#4AEFF7"></path><path id="XMLID_2589_" class="st103" d="M20.1 13l.5.3c.9-1.7 3-2.3 4.7-1.4L39 19.4l1-1.7c.3-.5.1-1.2-.4-1.4l-16.4-9c-.5-.3-1.2-.1-1.4.4l-2.1 3.9c-.3.5-.1 1.1.4 1.4z" fill="#A6FBFF"></path><path id="XMLID_2577_" class="st95" d="M36.4 21.9L20.1 13c-.5-.3-.7-.9-.4-1.4l2.1-3.9c.3-.5.9-.7 1.4-.4l16.3 8.9c.5.3.7.9.4 1.4l-2.1 3.9c-.2.5-.9.7-1.4.4z" fill="none" stroke="#45413C" stroke-linecap="round" stroke-linejoin="round" stroke-miterlimit="10" stroke-width="1.0064"></path><path id="XMLID_2587_" class="st45" d="M37.6 10.4c-.7-1.1-.8-2.5-.4-3.8l.2-.7c.8-1.4.4-3.1-.9-3.7-1.2-.7-2.8-.1-3.6 1.3l-.3.5c-.9 1.1-2.1 1.7-3.4 1.7-1.7 0-3.3.9-4.5 2.3l13.4 7.3c.6-1.6.4-3.5-.5-4.9z" fill="#FFF48C"></path><g id="XMLID_2585_"><path id="XMLID_2586_" class="st28" d="M29.2 8.5c1.3 0 2.5-.7 3.4-1.7l.4-.6c.8-1.4 2.4-2 3.6-1.3.4.2.7.5.9.9.7-1.4.3-3-.9-3.6-1.2-.7-2.8-.1-3.6 1.3l-.4.5c-.9 1.1-2.1 1.7-3.4 1.7-1.7 0-3.3.9-4.5 2.3l1.9 1.1c.8-.4 1.7-.6 2.6-.6z" fill="#FFFACF"></path></g><path id="XMLID_2584_" class="st95" d="M37.6 10.4c-.7-1.1-.8-2.5-.4-3.8l.2-.7c.8-1.4.4-3.1-.9-3.7-1.2-.7-2.8-.1-3.6 1.3l-.3.5c-.9 1.1-2.1 1.7-3.4 1.7-1.7 0-3.3.9-4.5 2.3l13.4 7.3c.6-1.6.4-3.5-.5-4.9z" fill="none" stroke="#45413C" stroke-linecap="round" stroke-linejoin="round" stroke-miterlimit="10" stroke-width="1.0064"></path><path id="XMLID_2583_" class="st95" fill="none" stroke="#45413C" stroke-linecap="round" stroke-linejoin="round" stroke-miterlimit="10" stroke-width="1.0064" d="M17.4 15.9l3.7 2.1"></path><path id="XMLID_2582_" class="st95" fill="none" stroke="#45413C" stroke-linecap="round" stroke-linejoin="round" stroke-miterlimit="10" stroke-width="1.0064" d="M14.6 21.1l3.7 2"></path><path id="XMLID_2581_" class="st95" fill="none" stroke="#45413C" stroke-linecap="round" stroke-linejoin="round" stroke-miterlimit="10" stroke-width="1.0064" d="M11.7 26.3l3.8 2.1"></path><path id="XMLID_2580_" class="st95" fill="none" stroke="#45413C" stroke-linecap="round" stroke-linejoin="round" stroke-miterlimit="10" stroke-width="1.0064" d="M9.1 31.1l3.7 2.1"></path></g></g></svg>
