<svg xmlns="http://www.w3.org/2000/svg" version="1.1" x="0px" y="0px" viewBox="0 0 48 48" xml:space="preserve"><style type="text/css">.st0{fill:#FFD4C3;stroke:#504B46;stroke-linecap:round;stroke-linejoin:round;stroke-miterlimit:10;} .st1{fill:#FFC258;} .st2{fill:#4F4B45;} .st3{fill:#FABFA5;} .st4{fill:none;stroke:#504B46;stroke-linecap:round;stroke-linejoin:round;stroke-miterlimit:10;} .Graphic_x0020_Style{opacity:0.15;fill:#45413C;} .st5{opacity:0.15;fill:#45413C;} .st6{fill:#DEBB7E;stroke:#45413C;stroke-linecap:round;stroke-linejoin:round;stroke-miterlimit:10;} .st7{fill:#F0D5A8;} .st8{fill:#F7E5C6;} .st9{fill:#DEBB7E;} .st10{fill:none;stroke:#45413C;stroke-linecap:round;stroke-linejoin:round;stroke-miterlimit:10;} .st11{fill:#FFE500;} .st12{fill:#EBCB00;} .st13{fill:none;stroke:#EBCB00;stroke-linecap:round;stroke-linejoin:round;stroke-miterlimit:10;} .st14{fill:#FF6242;stroke:#45413C;stroke-linecap:round;stroke-linejoin:round;stroke-miterlimit:10;} .st15{fill:#FFFFFF;stroke:#45413C;stroke-linecap:round;stroke-linejoin:round;stroke-miterlimit:10;} .st16{fill:#E5F8FF;} .st17{fill:#FFFFFF;} .st18{fill:#E8F4FA;} .st19{fill:#E8F4FA;stroke:#45413C;stroke-linecap:round;stroke-linejoin:round;stroke-miterlimit:10;} .st20{fill:#FFCCDD;} .st21{fill:#FFB0CA;stroke:#45413C;stroke-linecap:round;stroke-linejoin:round;stroke-miterlimit:10;} .st22{fill:#FF87AF;stroke:#45413C;stroke-linecap:round;stroke-linejoin:round;stroke-miterlimit:10;} .st23{fill:#E5F8FF;stroke:#45413C;stroke-linecap:round;stroke-linejoin:round;stroke-miterlimit:10;} .st24{fill:#BF8256;stroke:#45413C;stroke-linecap:round;stroke-linejoin:round;stroke-miterlimit:10;} .st25{fill:#9CEB60;} .st26{fill:#6DD627;} .st27{fill:#C8FFA1;} .st28{fill:#FFFACF;} .st29{fill:#FF87AF;} .st30{fill:#FFB0CA;} .st31{fill:#FF6196;} .st32{fill:#FFCCDD;stroke:#45413C;stroke-linecap:round;stroke-linejoin:round;stroke-miterlimit:10;} .st33{fill:#FF6196;stroke:#45413C;stroke-linecap:round;stroke-linejoin:round;stroke-miterlimit:10;} .st34{fill:#FFE5EE;} .st35{fill:#00B8F0;} .st36{fill:#4ACFFF;} .st37{fill:#BF8256;} .st38{fill:#DEA47A;} .st39{fill:#915E3A;} .st40{fill:#FFF5E3;} .st41{fill:#F0F0F0;} .st42{fill:#8CA4B8;} .st43{fill:#627B8C;} .st44{fill:#C0DCEB;} .st45{fill:#FFF48C;} .st46{fill:#FFE500;stroke:#45413C;stroke-linecap:round;stroke-linejoin:round;stroke-miterlimit:10;} .st47{fill:#FFAA54;} .st48{fill:#6DD627;stroke:#45413C;stroke-linecap:round;stroke-linejoin:round;stroke-miterlimit:10;} .st49{fill:#FF8A14;} .st50{fill:#FFCC99;} .st51{fill:#EBCB00;stroke:#45413C;stroke-linecap:round;stroke-linejoin:round;stroke-miterlimit:10;} .st52{fill:#00F5BC;stroke:#45413C;stroke-linecap:round;stroke-linejoin:round;stroke-miterlimit:10;} .st53{fill:#BF8DF2;stroke:#45413C;stroke-linecap:round;stroke-linejoin:round;stroke-miterlimit:10;} .st54{fill:#FF8A14;stroke:#45413C;stroke-linecap:round;stroke-linejoin:round;stroke-miterlimit:10;} .st55{fill:#4AEFF7;stroke:#45413C;stroke-linecap:round;stroke-linejoin:round;stroke-miterlimit:10;} .st56{fill:#FFF48C;stroke:#45413C;stroke-linecap:round;stroke-linejoin:round;stroke-miterlimit:10;} .st57{fill:#FF6242;} .st58{fill:#E04122;} .st59{fill:#46B000;} .st60{fill:none;stroke:#45413C;stroke-miterlimit:10;} .st61{fill:#00B8F0;stroke:#45413C;stroke-linecap:round;stroke-linejoin:round;stroke-miterlimit:10;} .st62{fill:#FF866E;} .st63{fill:#9F5AE5;stroke:#45413C;stroke-linecap:round;stroke-linejoin:round;stroke-miterlimit:10;} .st64{fill:#E4FFD1;} .st65{fill:#FFFEF2;} .st66{fill:#B89558;} .st67{fill:none;stroke:#915E3A;stroke-linecap:round;stroke-linejoin:round;stroke-miterlimit:10;} .st68{fill:#915E3A;stroke:#45413C;stroke-linecap:round;stroke-linejoin:round;stroke-miterlimit:10;} .st69{fill:#BF8DF2;} .st70{fill:#9F5AE5;} .st71{fill:#DABFF5;} .st72{fill:none;stroke:#45413C;stroke-linejoin:round;stroke-miterlimit:10;} .st73{fill:#656769;} .st74{fill:#87898C;} .st75{fill:#E0E0E0;} .st76{fill:#BDBEC0;} .st77{fill:#656769;stroke:#45413C;stroke-linecap:round;stroke-linejoin:round;stroke-miterlimit:10;} .st78{fill:#45413C;stroke:#45413C;stroke-linecap:round;stroke-linejoin:round;stroke-miterlimit:10;} .st79{fill:#FFA694;} .st80{fill:#E04122;stroke:#45413C;stroke-linecap:round;stroke-linejoin:round;stroke-miterlimit:10;} .st81{fill:#E0E0E0;stroke:#45413C;stroke-linecap:round;stroke-linejoin:round;stroke-miterlimit:10;} .st82{fill:#F0F0F0;stroke:#45413C;stroke-linecap:round;stroke-linejoin:round;stroke-miterlimit:10;} .st83{fill:#DAEDF7;} .st84{fill:#BDBEC0;stroke:#45413C;stroke-linecap:round;stroke-linejoin:round;stroke-miterlimit:10;} .st85{fill:#87898C;stroke:#45413C;stroke-linecap:round;stroke-linejoin:round;stroke-miterlimit:10;} .st86{fill:#00DFEB;} .st87{fill:#4AEFF7;} .st88{fill:#DAEDF7;stroke:#45413C;stroke-linecap:round;stroke-linejoin:round;stroke-miterlimit:10;} .st89{fill:#FFDA8F;} .st90{fill:#FFBE3D;} .st91{fill:#FFE9BD;} .st92{fill:#DEA47A;stroke:#45413C;stroke-linecap:round;stroke-linejoin:round;stroke-miterlimit:10;} .st93{fill:#45413C;} .st94{fill:#F0C2A1;} .st95{fill:none;stroke:#45413C;stroke-width:1.0064;stroke-linecap:round;stroke-linejoin:round;stroke-miterlimit:10;} .st96{fill:#525252;} .st97{fill:#EB6D00;stroke:#45413C;stroke-linecap:round;stroke-linejoin:round;stroke-miterlimit:10;} .st98{fill:#EB6D00;} .st99{fill:#E5FEFF;} .st100{fill:#FF866E;stroke:#45413C;stroke-linecap:round;stroke-linejoin:round;stroke-miterlimit:10;} .st101{fill:#627B8C;stroke:#45413C;stroke-linecap:round;stroke-linejoin:round;stroke-miterlimit:10;} .st102{fill:#FFFCE5;stroke:#45413C;stroke-linecap:round;stroke-linejoin:round;stroke-miterlimit:10;} .st103{fill:#A6FBFF;} .st104{fill:#D9FDFF;} .st105{fill:#FFFACF;stroke:#45413C;stroke-linecap:round;stroke-linejoin:round;stroke-miterlimit:10;} .st106{fill:#B8ECFF;} .st107{fill:#FFCABF;} .st108{fill:#E5FFF9;} .st109{fill:#C8FFA1;stroke:#45413C;stroke-linecap:round;stroke-linejoin:round;stroke-miterlimit:10;} .st110{fill:#4CF4FC;} .st111{fill:#F0D5A8;stroke:#45413C;stroke-linecap:round;stroke-linejoin:round;stroke-miterlimit:10;} .st112{fill:#FFDCD1;stroke:#45413C;stroke-linecap:round;stroke-linejoin:round;stroke-miterlimit:10;} .st113{fill:#80DDFF;} .st114{fill:#46B000;stroke:#45413C;stroke-linecap:round;stroke-linejoin:round;stroke-miterlimit:10;} .st115{fill:#4ACFFF;stroke:#45413C;stroke-linecap:round;stroke-linejoin:round;stroke-miterlimit:10;} .st116{fill:#ADC4D9;} .st117{fill:#BDBEC0;stroke:#45413C;stroke-width:1.0064;stroke-linecap:round;stroke-linejoin:round;stroke-miterlimit:10;} .st118{fill:#FFFCE5;} .st119{fill:#947746;} .st120{fill:#525252;stroke:#45413C;stroke-linecap:round;stroke-linejoin:round;stroke-miterlimit:10;}</style><symbol id="New_Symbol_14" viewBox="-6.5 -6.5 13 13"><path class="st0" d="M0-6c2.2 0 4.1 1.5 4.7 3.5C6.3-2.5 6.4 0 5 0v1c0 2.8-2.2 5-5 5s-5-2.2-5-5V0c-1.4 0-1.3-2.5.2-2.5C-4.1-4.5-2.2-6 0-6z" fill="#FFD4C3" stroke="#504B46" stroke-linecap="round" stroke-linejoin="round" stroke-miterlimit="10"/><circle class="st1" cx="-1.6" cy="-0.1" r="0.1" fill="#FFC258"/><path class="st2" d="M-1.6.5c-.3 0-.6-.3-.6-.6s.2-.7.6-.7c.3 0 .6.3.6.7s-.3.6-.6.6z" fill="#4F4B45"/><circle class="st1" cx="1.6" cy="-0.1" r="0.1" fill="#FFC258"/><path class="st2" d="M1.6.5C1.3.5 1 .2 1-.1s.3-.6.6-.6.6.3.6.6-.2.6-.6.6z" fill="#4F4B45"/><circle class="st3" cx="-3" cy="-1.5" r="0.5" fill="#FABFA5"/><circle class="st3" cx="3" cy="-1.5" r="0.5" fill="#FABFA5"/><path class="st4" d="M-1.2-3c.8-.5 1.7-.5 2.5 0" fill="none" stroke="#504B46" stroke-linecap="round" stroke-linejoin="round" stroke-miterlimit="10"/></symbol><g id="Icons"><g id="XMLID_1958_"><path id="XMLID_2524_" class="st26" d="M17.7 36.9a6.38 6.38 0 0 0-1.5 5.3c1.7.1 3.6-.7 5-2.3 1.4-1.6 1.8-3.6 1.5-5.3-1.8-.1-3.7.7-5 2.3z" fill="#6DD627"/><path id="XMLID_2523_" class="st59" d="M22.6 34.6c-1.7-.1-3.6.7-5 2.3-.3.4-.6.8-.8 1.2.9.9 2.3 1.7 4.2 1.9l.2-.2c1.3-1.6 1.8-3.6 1.4-5.2z" fill="#46B000"/><path id="XMLID_2522_" class="st10" d="M17.7 36.9a6.38 6.38 0 0 0-1.5 5.3c1.7.1 3.6-.7 5-2.3 1.4-1.6 1.8-3.6 1.5-5.3-1.8-.1-3.7.7-5 2.3z" fill="none" stroke="#45413C" stroke-linecap="round" stroke-linejoin="round" stroke-miterlimit="10"/><path id="XMLID_2521_" class="st76" d="M34.7 3c-4.4.7-6.9 5.3-5.9 9.5s5.2 7.1 9.5 6.1l1.1-2s1.4 2.9 2.4 2c1-.9 1.4-4.8 1.4-4.8s1.4 3.7 2.2 1.7c.8-1.9.4-5.6-.8-7.8C42.5 3.9 39 2.3 34.7 3z" fill="#BDBEC0"/><path id="XMLID_2520_" class="st76" d="M13.3 3c4.4.7 6.9 5.3 5.9 9.5s-5.2 7.1-9.5 6.1l-1.1-2s-1.4 2.9-2.4 2c-1-.9-1.4-4.8-1.4-4.8s-1.4 3.7-2.2 1.7c-.8-1.9-.4-5.6.8-7.8C5.6 3.9 9.1 2.3 13.3 3z" fill="#BDBEC0"/><path id="XMLID_2519_" class="st75" d="M34.7 6.1c4.2-.7 7.7.9 9.9 4.7.6 1 1 2.3 1.1 3.6.4-2-.1-4.9-1.1-6.7C42.5 3.9 39 2.3 34.7 3c-4.2.7-6.8 5.1-6 9.1.7-2.9 2.9-5.5 6-6z" fill="#E0E0E0"/><path id="XMLID_2518_" class="st75" d="M3.4 10.8C5.6 7 9.1 5.4 13.3 6.1c3.2.5 5.4 3.1 6 6 .8-4.1-1.7-8.5-6-9.1-4.2-.7-7.7.9-9.9 4.7-1.1 1.8-1.5 4.7-1.1 6.7.2-1.3.6-2.6 1.1-3.6z" fill="#E0E0E0"/><path id="XMLID_2517_" class="st10" d="M34.7 3c-4.4.7-6.9 5.3-5.9 9.5s5.2 7.1 9.5 6.1l1.1-2s1.4 2.9 2.4 2c1-.9 1.4-4.8 1.4-4.8s1.4 3.7 2.2 1.7c.8-1.9.4-5.6-.8-7.8C42.5 3.9 39 2.3 34.7 3z" fill="none" stroke="#45413C" stroke-linecap="round" stroke-linejoin="round" stroke-miterlimit="10"/><path id="XMLID_2516_" class="st10" d="M13.3 3c4.4.7 6.9 5.3 5.9 9.5s-5.2 7.1-9.5 6.1l-1.1-2s-1.4 2.9-2.4 2c-1-.9-1.4-4.8-1.4-4.8s-1.4 3.7-2.2 1.7c-.8-1.9-.4-5.6.8-7.8C5.6 3.9 9.1 2.3 13.3 3z" fill="none" stroke="#45413C" stroke-linecap="round" stroke-linejoin="round" stroke-miterlimit="10"/><ellipse id="XMLID_2515_" class="st5" cx="23.9" cy="43.5" rx="12.8" ry="1.7" fill="#45413C" opacity="0.15"/><path id="XMLID_1120_" class="st76" d="M38.3 20.9V18c0-7.1-6.4-12.9-14.4-12.9C16 5.1 9.5 10.9 9.5 18v2.9c-1.1 1.5-1.8 3.3-1.8 5.2 0 5 4 9.1 9.6 9.1h.3c.8 0 1.6.3 2.3.7 1.1.6 2.4 1 4 1 1.5 0 2.9-.4 4-1 .7-.4 1.5-.7 2.3-.7h.3c5.6 0 9.6-4.1 9.6-9.1 0-1.9-.7-3.7-1.8-5.2z" fill="#BDBEC0"/><path id="XMLID_1119_" class="st75" d="M38.3 20.9V18c0-7.1-6.4-12.9-14.4-12.9C16 5.1 9.5 10.9 9.5 18V21.6c0-7.1 6.4-12.9 14.4-12.9 7.9 0 14.4 5.8 14.4 12.9v-.7z" fill="#E0E0E0"/><path id="XMLID_1118_" class="st10" d="M38.3 20.9V18c0-7.1-6.4-12.9-14.4-12.9C16 5.1 9.5 10.9 9.5 18v2.9c-1.1 1.5-1.8 3.3-1.8 5.2 0 5 4 9.1 9.6 9.1h.3c.8 0 1.6.3 2.3.7 1.1.6 2.4 1 4 1 1.5 0 2.9-.4 4-1 .7-.4 1.5-.7 2.3-.7h.3c5.6 0 9.6-4.1 9.6-9.1 0-1.9-.7-3.7-1.8-5.2z" fill="none" stroke="#45413C" stroke-linecap="round" stroke-linejoin="round" stroke-miterlimit="10"/><path id="XMLID_1117_" class="st77" d="M27.8 27c0 3.4-1.7 4.4-3.9 4.4S20 30.4 20 27c0-3.4 1.7-6.8 3.9-6.8s3.9 3.4 3.9 6.8z" fill="#656769" stroke="#45413C" stroke-linecap="round" stroke-linejoin="round" stroke-miterlimit="10"/><circle id="XMLID_1116_" class="st78" cx="31.7" cy="20.2" r="1.7" fill="#45413C" stroke="#45413C" stroke-linecap="round" stroke-linejoin="round" stroke-miterlimit="10"/><circle id="XMLID_1115_" class="st78" cx="16.1" cy="20.2" r="1.7" fill="#45413C" stroke="#45413C" stroke-linecap="round" stroke-linejoin="round" stroke-miterlimit="10"/><ellipse id="XMLID_1114_" class="st20" cx="35.8" cy="27.7" rx="2" ry="1" fill="#FCD"/><ellipse id="XMLID_1113_" class="st20" cx="12" cy="27.7" rx="2" ry="1" fill="#FCD"/><path id="XMLID_1112_" class="st10" d="M18.2 35.3s2.2-.1 3.6-.7" fill="none" stroke="#45413C" stroke-linecap="round" stroke-linejoin="round" stroke-miterlimit="10"/><path id="XMLID_1111_" class="st10" d="M30.5 35.2s-1.6-.1-3.3-.6" fill="none" stroke="#45413C" stroke-linecap="round" stroke-linejoin="round" stroke-miterlimit="10"/><path id="XMLID_1105_" class="st10" d="M15.1 7.9s-3.6-1.9-6.6.3" fill="none" stroke="#45413C" stroke-linecap="round" stroke-linejoin="round" stroke-miterlimit="10"/><path id="XMLID_1104_" class="st10" d="M33.1 7.9s3.6-1.9 6.6.3" fill="none" stroke="#45413C" stroke-linecap="round" stroke-linejoin="round" stroke-miterlimit="10"/></g></g></svg>
