<svg xmlns="http://www.w3.org/2000/svg" width="32" height="32" viewBox="0 0 32 32" id="DrugIcon"><g transform="translate(268.5 -1523.178)"><ellipse cx="1457.33" cy="557.468" fill="#f2f2f2" rx="3.001" ry="3.002" transform="matrix(-.5001 .86597 .86609 .4999 0 0)"></ellipse><ellipse cx="-152.413" cy="1545.943" fill="#92d9f7" rx="4.001" ry="4" transform="matrix(-.96594 -.25875 -.25889 .9659 0 0)"></ellipse><g fill="#70b6fe" stroke-width=".688" transform="scale(-1.44534 -1.46313) rotate(45 2616.277 183.147)"><path d="m -1032.102,-40.526104 c 1.1022,0 1.9896,0.887378 1.9896,1.989638 l 0,3.509721 -3.9793,0 0,-3.509721 c 0,-1.10226 0.8874,-1.989638 1.9897,-1.989638 z" transform="matrix(.01843 -.99983 -1 .0017 0 0)"></path><path fill="#92d9f7" d="m -1030.1124,-35.026746 0,3.509721 c 0,1.102259 -0.8874,1.989637 -1.9896,1.989637 -1.1023,0 -1.9897,-0.887378 -1.9897,-1.989637 l 0,-3.50972 z" transform="matrix(.01843 -.99983 -1 .0017 0 0)"></path><path fill-rule="evenodd" d="m 15.977243,1034.1037 0.04551,-4.4733"></path></g><g stroke="#0572e4" stroke-width=".688" transform="scale(-1.44534 -1.46313) rotate(45 2616.277 183.147)"><path fill="#ec7bb0" stroke="none" d="m -1032.102,-40.526104 c 1.1022,0 1.9896,0.887378 1.9896,1.989638 l 0,3.509721 -3.9793,0 0,-3.509721 c 0,-1.10226 0.8874,-1.989638 1.9897,-1.989638 z" transform="matrix(.01843 -.99983 -1 .0017 0 0)"></path><path fill="#62355c" stroke="none" style="line-height:normal;text-indent:0;text-align:start;text-decoration-line:none;text-decoration-style:solid;text-decoration-color:#000;text-transform:none;block-progression:tb;isolation:auto;mix-blend-mode:normal" d="m -252.73633,507.82031 c -2.08707,-0.12358 -4.05163,1.23259 -4.61328,3.32813 -0.64191,2.3948 0.78633,4.87002 3.18164,5.51172 2.3953,0.6416 4.87187,-0.78684 5.51367,-3.18164 0.64187,-2.3949 -0.78832,-4.87012 -3.18359,-5.51172 -0.29941,-0.0802 -0.60028,-0.12883 -0.89844,-0.14649 z m -0.0625,0.99805 c 0.0685,0.004 0.13826,0.0249 0.20703,0.0332 l -1.78515,6.66602 c -1.57914,-0.67375 -2.46365,-2.4015 -2.00586,-4.10938 0.4392,-1.63861 1.95622,-2.68905 3.58398,-2.58984 z m 1.17383,0.29297 c 1.57708,0.67487 2.46328,2.40078 2.00586,4.10742 -0.45747,1.70696 -2.08916,2.7611 -3.79297,2.55664 l 1.78711,-6.66406 z m -8.44141,7.69922 c -0.872,-0.007 -1.74643,0.31547 -2.41601,0.96875 -1.33917,1.30656 -1.35811,3.44601 -0.043,4.77734 l 7.1875,7.25 c 1.31739,1.32905 3.4792,1.34758 4.81836,0.041 1.33916,-1.30656 1.3542,-3.44798 0.0391,-4.7793 l -7.18555,-7.25 c -0.65869,-0.66453 -1.52838,-1.00091 -2.40039,-1.00781 z m 13.82422,0.0117 c -1.12242,0.0803 -2.18847,0.69686 -2.79101,1.74023 -0.96403,1.6694 -0.38651,3.81755 1.2832,4.78125 1.66971,0.9638 3.81912,0.38805 4.7832,-1.28125 0.96412,-1.6694 0.38851,-3.8194 -1.28125,-4.7832 -0.62615,-0.36139 -1.32068,-0.5052 -1.99414,-0.45703 z m -13.83398,0.97656 c 0.61262,0.005 1.22441,0.24403 1.69336,0.71875 l 3.22851,3.25781 -3.40039,3.36719 -3.2539,-3.2832 c -0.93944,-0.9479 -0.92775,-2.43731 0.0273,-3.36915 0.47749,-0.46586 1.09245,-0.69591 1.70508,-0.6914 z m 13.90039,0.0156 c 0.48027,-0.0335 0.97513,0.0719 1.42578,0.33203 1.05334,0.60795 1.49684,1.85183 1.12305,2.95899 l -4.24805,-2.45313 c 0.44177,-0.50155 1.05714,-0.7931 1.69922,-0.83789 z m -2.19922,1.70508 4.24805,2.45117 c -0.77191,0.8773 -2.06948,1.11396 -3.12305,0.50586 -1.05331,-0.60803 -1.49855,-1.85025 -1.125,-2.95703 z m -6.07617,2.96485 3.2539,3.2832 c 0.93954,0.94778 0.92765,2.43936 -0.0273,3.37109 -0.95499,0.93173 -2.46054,0.92015 -3.39844,-0.0293 l -3.22656,-3.25586 3.39844,-3.36914 z" color="#000" font-family="sans-serif" font-weight="400" overflow="visible" transform="rotate(135 -220.294 735.007) scale(.69188 .68346)" white-space="normal"></path></g></g></svg>