<svg xmlns="http://www.w3.org/2000/svg" id="Layer_1" viewBox="0 0 32 32"><path fill="#ffda87" d="M6.1 7.6l1.1 2.3 2.4.3L7.8 12l.4 2.4-2.1-1.1-2.2 1.1.4-2.4-1.8-1.8L5 9.9zM16 7.6l1.1 2.3 2.5.3-1.8 1.8.4 2.4-2.2-1.1-2.2 1.1.4-2.4-1.8-1.8 2.5-.3zM25.9 7.6L27 9.9l2.5.3-1.8 1.8.4 2.4-2.2-1.1-2.1 1.1.4-2.4-1.8-1.8 2.4-.3zM11 17.6l1.1 2.2 2.5.4-1.8 1.7.4 2.5-2.2-1.2-2.2 1.2.5-2.5-1.8-1.7 2.4-.4zM21 17.6l1.1 2.2 2.4.4-1.7 1.7.4 2.5-2.2-1.2-2.2 1.2.4-2.5-1.8-1.7 2.5-.4z"/><path fill="#40455a" d="M8.2 14.9c-.1 0-.2 0-.2-.1l-2-1-2 1c-.2.1-.4.1-.5 0-.2-.1-.2-.3-.2-.5l.4-2.2-1.6-1.5c-.1-.1-.1-.3-.1-.5.1-.2.2-.3.4-.3l2.2-.3 1-2c.2-.3.7-.3.9 0l1 2 2.2.3c.2 0 .3.2.4.3.1.2 0 .4-.1.5l-1.6 1.5.4 2.2c0 .2 0 .4-.2.5-.1.1-.2.1-.4.1zm-2.1-2.1c.1 0 .2 0 .2.1l1.3.7-.3-1.6c0-.2 0-.3.1-.4l1.1-1-1.5-.2c-.2 0-.3-.1-.4-.3l-.5-1.3-.6 1.3c-.1.1-.2.3-.4.3l-1.5.2 1.1 1c.1.1.2.3.1.4l-.2 1.4 1.3-.7c0 .1.1.1.2.1zM18.2 14.9c-.1 0-.2 0-.2-.1l-2-1-2 1c-.2.1-.4.1-.5 0-.2-.1-.2-.3-.2-.5l.4-2.2-1.6-1.5c-.1-.1-.2-.3-.1-.5s.2-.3.4-.3l2.2-.3 1-2c.2-.3.7-.3.9 0l1 2 2.2.3c.2 0 .3.2.4.3.1.2 0 .4-.1.5l-1.6 1.5.4 2.2c0 .2 0 .4-.2.5-.2.1-.3.1-.4.1zM16 12.8c.1 0 .2 0 .2.1l1.3.7-.2-1.6c0-.2 0-.3.1-.4l1.1-1-1.5-.2c-.2 0-.3-.1-.4-.3L16 8.8l-.6 1.3c-.1.1-.2.3-.4.3l-1.5.2 1.1 1c.1.1.2.3.1.4l-.2 1.4 1.3-.7c0 .1.1.1.2.1zM28.1 14.9c-.1 0-.2 0-.2-.1l-2-1-2 1c-.2.1-.4.1-.5 0-.2-.1-.2-.3-.2-.5l.4-2.2-1.6-1.5c-.1-.1-.2-.3-.1-.5s.2-.3.4-.3l2.2-.3 1-2c.2-.3.7-.3.9 0l1 2 2.2.3c.2 0 .3.2.4.3.1.2 0 .4-.1.5l-1.6 1.5.4 2.2c0 .2 0 .4-.2.5-.2.1-.3.1-.4.1zm-2.2-2.1c.1 0 .2 0 .2.1l1.3.7-.2-1.6c0-.2 0-.3.1-.4l1.1-1-1.4-.2c-.2 0-.3-.1-.4-.3L26 8.8l-.6 1.3c-.1.1-.2.3-.4.3l-1.5.2 1.1 1c.1.1.2.3.1.4l-.2 1.4 1.3-.7c0 .1.1.1.1.1zM13.2 24.9c-.1 0-.2 0-.2-.1l-2-1-2 1c-.2.1-.4.1-.5 0-.2-.1-.2-.3-.2-.5l.4-2.2-1.6-1.5c-.1-.2-.2-.4-.1-.6.1-.2.2-.3.4-.3l2.2-.3 1-2c.2-.3.7-.3.9 0l1 2 2.2.3c.2 0 .3.2.4.3.1.2 0 .4-.1.5L13.4 22l.4 2.2c0 .2 0 .4-.2.5-.2.1-.3.2-.4.2zM11 22.7c.1 0 .2 0 .2.1l1.3.7-.2-1.5c0-.2 0-.3.1-.4l1.1-1-1.5-.2c-.2 0-.3-.1-.4-.3l-.6-1.4-.6 1.3c-.1.1-.2.3-.4.3l-1.5.2 1.1 1c.1.1.2.3.1.4l-.2 1.4 1.3-.7c.1.1.1.1.2.1zM23.2 24.9c-.1 0-.2 0-.2-.1l-2-1-2 1c-.2.1-.4.1-.5 0-.2-.1-.2-.3-.2-.5l.4-2.2-1.6-1.5c-.1-.1-.2-.3-.1-.5s.2-.3.4-.3l2.2-.3 1-2c.2-.3.7-.3.9 0l1 2 2.2.3c.2 0 .3.2.4.3.1.2 0 .4-.1.5l-1.6 1.5.4 2.2c0 .2 0 .4-.2.5-.2 0-.3.1-.4.1zM21 22.7c.1 0 .2 0 .2.1l1.3.7-.2-1.5c0-.2 0-.3.1-.4l1.1-1-1.5-.3c-.2 0-.3-.1-.4-.3l-.6-1.3-.7 1.3c-.1.1-.2.3-.4.3l-1.5.2 1.1 1c.1.1.2.3.1.4l-.2 1.4 1.3-.7c.1.1.2.1.3.1z"/></svg>