<svg xmlns="http://www.w3.org/2000/svg" version="1.1" x="0px" y="0px" viewBox="0 0 48 48" xml:space="preserve"><style type="text/css">.st0{fill:#FFD4C3;stroke:#504B46;stroke-linecap:round;stroke-linejoin:round;stroke-miterlimit:10;} .st1{fill:#FFC258;} .st2{fill:#4F4B45;} .st3{fill:#FABFA5;} .st4{fill:none;stroke:#504B46;stroke-linecap:round;stroke-linejoin:round;stroke-miterlimit:10;} .Graphic_x0020_Style{opacity:0.15;fill:#45413C;} .st5{opacity:0.15;fill:#45413C;} .st6{fill:#DEBB7E;stroke:#45413C;stroke-linecap:round;stroke-linejoin:round;stroke-miterlimit:10;} .st7{fill:#F0D5A8;} .st8{fill:#F7E5C6;} .st9{fill:#DEBB7E;} .st10{fill:none;stroke:#45413C;stroke-linecap:round;stroke-linejoin:round;stroke-miterlimit:10;} .st11{fill:#FFE500;} .st12{fill:#EBCB00;} .st13{fill:none;stroke:#EBCB00;stroke-linecap:round;stroke-linejoin:round;stroke-miterlimit:10;} .st14{fill:#FF6242;stroke:#45413C;stroke-linecap:round;stroke-linejoin:round;stroke-miterlimit:10;} .st15{fill:#FFFFFF;stroke:#45413C;stroke-linecap:round;stroke-linejoin:round;stroke-miterlimit:10;} .st16{fill:#E5F8FF;} .st17{fill:#FFFFFF;} .st18{fill:#E8F4FA;} .st19{fill:#E8F4FA;stroke:#45413C;stroke-linecap:round;stroke-linejoin:round;stroke-miterlimit:10;} .st20{fill:#FFCCDD;} .st21{fill:#FFB0CA;stroke:#45413C;stroke-linecap:round;stroke-linejoin:round;stroke-miterlimit:10;} .st22{fill:#FF87AF;stroke:#45413C;stroke-linecap:round;stroke-linejoin:round;stroke-miterlimit:10;} .st23{fill:#E5F8FF;stroke:#45413C;stroke-linecap:round;stroke-linejoin:round;stroke-miterlimit:10;} .st24{fill:#BF8256;stroke:#45413C;stroke-linecap:round;stroke-linejoin:round;stroke-miterlimit:10;} .st25{fill:#9CEB60;} .st26{fill:#6DD627;} .st27{fill:#C8FFA1;} .st28{fill:#FFFACF;} .st29{fill:#FF87AF;} .st30{fill:#FFB0CA;} .st31{fill:#FF6196;} .st32{fill:#FFCCDD;stroke:#45413C;stroke-linecap:round;stroke-linejoin:round;stroke-miterlimit:10;} .st33{fill:#FF6196;stroke:#45413C;stroke-linecap:round;stroke-linejoin:round;stroke-miterlimit:10;} .st34{fill:#FFE5EE;} .st35{fill:#00B8F0;} .st36{fill:#4ACFFF;} .st37{fill:#BF8256;} .st38{fill:#DEA47A;} .st39{fill:#915E3A;} .st40{fill:#FFF5E3;} .st41{fill:#F0F0F0;} .st42{fill:#8CA4B8;} .st43{fill:#627B8C;} .st44{fill:#C0DCEB;} .st45{fill:#FFF48C;} .st46{fill:#FFE500;stroke:#45413C;stroke-linecap:round;stroke-linejoin:round;stroke-miterlimit:10;} .st47{fill:#FFAA54;} .st48{fill:#6DD627;stroke:#45413C;stroke-linecap:round;stroke-linejoin:round;stroke-miterlimit:10;} .st49{fill:#FF8A14;} .st50{fill:#FFCC99;} .st51{fill:#EBCB00;stroke:#45413C;stroke-linecap:round;stroke-linejoin:round;stroke-miterlimit:10;} .st52{fill:#00F5BC;stroke:#45413C;stroke-linecap:round;stroke-linejoin:round;stroke-miterlimit:10;} .st53{fill:#BF8DF2;stroke:#45413C;stroke-linecap:round;stroke-linejoin:round;stroke-miterlimit:10;} .st54{fill:#FF8A14;stroke:#45413C;stroke-linecap:round;stroke-linejoin:round;stroke-miterlimit:10;} .st55{fill:#4AEFF7;stroke:#45413C;stroke-linecap:round;stroke-linejoin:round;stroke-miterlimit:10;} .st56{fill:#FFF48C;stroke:#45413C;stroke-linecap:round;stroke-linejoin:round;stroke-miterlimit:10;} .st57{fill:#FF6242;} .st58{fill:#E04122;} .st59{fill:#46B000;} .st60{fill:none;stroke:#45413C;stroke-miterlimit:10;} .st61{fill:#00B8F0;stroke:#45413C;stroke-linecap:round;stroke-linejoin:round;stroke-miterlimit:10;} .st62{fill:#FF866E;} .st63{fill:#9F5AE5;stroke:#45413C;stroke-linecap:round;stroke-linejoin:round;stroke-miterlimit:10;} .st64{fill:#E4FFD1;} .st65{fill:#FFFEF2;} .st66{fill:#B89558;} .st67{fill:none;stroke:#915E3A;stroke-linecap:round;stroke-linejoin:round;stroke-miterlimit:10;} .st68{fill:#915E3A;stroke:#45413C;stroke-linecap:round;stroke-linejoin:round;stroke-miterlimit:10;} .st69{fill:#BF8DF2;} .st70{fill:#9F5AE5;} .st71{fill:#DABFF5;} .st72{fill:none;stroke:#45413C;stroke-linejoin:round;stroke-miterlimit:10;} .st73{fill:#656769;} .st74{fill:#87898C;} .st75{fill:#E0E0E0;} .st76{fill:#BDBEC0;} .st77{fill:#656769;stroke:#45413C;stroke-linecap:round;stroke-linejoin:round;stroke-miterlimit:10;} .st78{fill:#45413C;stroke:#45413C;stroke-linecap:round;stroke-linejoin:round;stroke-miterlimit:10;} .st79{fill:#FFA694;} .st80{fill:#E04122;stroke:#45413C;stroke-linecap:round;stroke-linejoin:round;stroke-miterlimit:10;} .st81{fill:#E0E0E0;stroke:#45413C;stroke-linecap:round;stroke-linejoin:round;stroke-miterlimit:10;} .st82{fill:#F0F0F0;stroke:#45413C;stroke-linecap:round;stroke-linejoin:round;stroke-miterlimit:10;} .st83{fill:#DAEDF7;} .st84{fill:#BDBEC0;stroke:#45413C;stroke-linecap:round;stroke-linejoin:round;stroke-miterlimit:10;} .st85{fill:#87898C;stroke:#45413C;stroke-linecap:round;stroke-linejoin:round;stroke-miterlimit:10;} .st86{fill:#00DFEB;} .st87{fill:#4AEFF7;} .st88{fill:#DAEDF7;stroke:#45413C;stroke-linecap:round;stroke-linejoin:round;stroke-miterlimit:10;} .st89{fill:#FFDA8F;} .st90{fill:#FFBE3D;} .st91{fill:#FFE9BD;} .st92{fill:#DEA47A;stroke:#45413C;stroke-linecap:round;stroke-linejoin:round;stroke-miterlimit:10;} .st93{fill:#45413C;} .st94{fill:#F0C2A1;} .st95{fill:none;stroke:#45413C;stroke-width:1.0064;stroke-linecap:round;stroke-linejoin:round;stroke-miterlimit:10;} .st96{fill:#525252;} .st97{fill:#EB6D00;stroke:#45413C;stroke-linecap:round;stroke-linejoin:round;stroke-miterlimit:10;} .st98{fill:#EB6D00;} .st99{fill:#E5FEFF;} .st100{fill:#FF866E;stroke:#45413C;stroke-linecap:round;stroke-linejoin:round;stroke-miterlimit:10;} .st101{fill:#627B8C;stroke:#45413C;stroke-linecap:round;stroke-linejoin:round;stroke-miterlimit:10;} .st102{fill:#FFFCE5;stroke:#45413C;stroke-linecap:round;stroke-linejoin:round;stroke-miterlimit:10;} .st103{fill:#A6FBFF;} .st104{fill:#D9FDFF;} .st105{fill:#FFFACF;stroke:#45413C;stroke-linecap:round;stroke-linejoin:round;stroke-miterlimit:10;} .st106{fill:#B8ECFF;} .st107{fill:#FFCABF;} .st108{fill:#E5FFF9;} .st109{fill:#C8FFA1;stroke:#45413C;stroke-linecap:round;stroke-linejoin:round;stroke-miterlimit:10;} .st110{fill:#4CF4FC;} .st111{fill:#F0D5A8;stroke:#45413C;stroke-linecap:round;stroke-linejoin:round;stroke-miterlimit:10;} .st112{fill:#FFDCD1;stroke:#45413C;stroke-linecap:round;stroke-linejoin:round;stroke-miterlimit:10;} .st113{fill:#80DDFF;} .st114{fill:#46B000;stroke:#45413C;stroke-linecap:round;stroke-linejoin:round;stroke-miterlimit:10;} .st115{fill:#4ACFFF;stroke:#45413C;stroke-linecap:round;stroke-linejoin:round;stroke-miterlimit:10;} .st116{fill:#ADC4D9;} .st117{fill:#BDBEC0;stroke:#45413C;stroke-width:1.0064;stroke-linecap:round;stroke-linejoin:round;stroke-miterlimit:10;} .st118{fill:#FFFCE5;} .st119{fill:#947746;} .st120{fill:#525252;stroke:#45413C;stroke-linecap:round;stroke-linejoin:round;stroke-miterlimit:10;}</style><symbol id="New_Symbol_14" viewBox="-6.5 -6.5 13 13"><path class="st0" d="M0-6c2.2 0 4.1 1.5 4.7 3.5C6.3-2.5 6.4 0 5 0v1c0 2.8-2.2 5-5 5s-5-2.2-5-5V0c-1.4 0-1.3-2.5.2-2.5C-4.1-4.5-2.2-6 0-6z" fill="#FFD4C3" stroke="#504B46" stroke-linecap="round" stroke-linejoin="round" stroke-miterlimit="10"/><circle class="st1" cx="-1.6" cy="-0.1" r="0.1" fill="#FFC258"/><path class="st2" d="M-1.6.5c-.3 0-.6-.3-.6-.6s.2-.7.6-.7c.3 0 .6.3.6.7s-.3.6-.6.6z" fill="#4F4B45"/><circle class="st1" cx="1.6" cy="-0.1" r="0.1" fill="#FFC258"/><path class="st2" d="M1.6.5C1.3.5 1 .2 1-.1s.3-.6.6-.6.6.3.6.6-.2.6-.6.6z" fill="#4F4B45"/><circle class="st3" cx="-3" cy="-1.5" r="0.5" fill="#FABFA5"/><circle class="st3" cx="3" cy="-1.5" r="0.5" fill="#FABFA5"/><path class="st4" d="M-1.2-3c.8-.5 1.7-.5 2.5 0" fill="none" stroke="#504B46" stroke-linecap="round" stroke-linejoin="round" stroke-miterlimit="10"/></symbol><g id="Icons"><g id="XMLID_1811_"><path id="XMLID_2188_" class="st47" d="M31.4 32.9s3.1 1.1 5.5 0 3.1-3.4 3.3-5c.2-1.6 2.5-2.3 3.3 0 .8 2.3.6 6.9-3.3 9.4s-9.2 2.1-12.2.6c-2.9-1.5 3.4-5 3.4-5z" fill="#FFAA54"/><path id="XMLID_2187_" class="st47" d="M16.6 32.9s-3.1 1.1-5.5 0-3.1-3.4-3.3-5c-.2-1.6-2.5-2.3-3.3 0-.8 2.3-.6 6.9 3.3 9.4s9.2 2.1 12.2.6c2.9-1.5-3.4-5-3.4-5z" fill="#FFAA54"/><path id="XMLID_2186_" class="st50" d="M28.1 37.9c.1.1.3.1.4.2 1.2-1.1 2.9-2.1 2.9-2.1s3.1 1.1 5.5 0 3.1-3.4 3.3-5c.2-1.6 2.5-2.3 3.3 0 .1.3.2.6.2.9.3-1.5.1-3-.2-4-.8-2.3-3.1-1.6-3.3 0-.2 1.6-.9 3.9-3.3 5s-5.5 0-5.5 0-6.3 3.5-3.3 5z" fill="#FC9"/><path id="XMLID_2185_" class="st50" d="M4.4 31c.8-2.3 3.1-1.6 3.3 0 .2 1.6.9 3.9 3.3 5s5.5 0 5.5 0 1.7.9 2.9 2.1c.1-.1.3-.1.4-.2 3-1.5-3.3-5-3.3-5s-3.1 1.1-5.5 0-3.1-3.4-3.3-5c-.2-1.6-2.5-2.3-3.3 0-.4 1-.5 2.5-.2 4 0-.3.1-.6.2-.9z" fill="#FC9"/><path id="XMLID_2184_" class="st10" d="M31.4 32.9s3.1 1.1 5.5 0 3.1-3.4 3.3-5c.2-1.6 2.5-2.3 3.3 0 .8 2.3.6 6.9-3.3 9.4s-9.2 2.1-12.2.6c-2.9-1.5 3.4-5 3.4-5z" fill="none" stroke="#45413C" stroke-linecap="round" stroke-linejoin="round" stroke-miterlimit="10"/><path id="XMLID_2183_" class="st10" d="M16.6 32.9s-3.1 1.1-5.5 0-3.1-3.4-3.3-5c-.2-1.6-2.5-2.3-3.3 0-.8 2.3-.6 6.9 3.3 9.4s9.2 2.1 12.2.6c2.9-1.5-3.4-5-3.4-5z" fill="none" stroke="#45413C" stroke-linecap="round" stroke-linejoin="round" stroke-miterlimit="10"/><path id="XMLID_2182_" class="st47" d="M36.7 27.6c0 7-5.7 12.7-12.7 12.7s-12.7-5.7-12.7-12.7c0-8.7 5.7-13.8 12.7-13.8s12.7 5 12.7 13.8z" fill="#FFAA54"/><path id="XMLID_2181_" class="st50" d="M24 18.1c6.3 0 11.6 4.2 12.6 11.4.1-.7.2-1.3.2-2 0-8.7-5.7-13.8-12.7-13.8s-12.7 5.1-12.7 13.8c0 .7.1 1.3.2 2 .8-7.2 6-11.4 12.4-11.4z" fill="#FC9"/><path id="XMLID_2180_" class="st10" d="M36.7 27.6c0 7-5.7 12.7-12.7 12.7s-12.7-5.7-12.7-12.7c0-8.7 5.7-13.8 12.7-13.8s12.7 5 12.7 13.8z" fill="none" stroke="#45413C" stroke-linecap="round" stroke-linejoin="round" stroke-miterlimit="10"/><path id="XMLID_2179_" class="st97" d="M24 36.4c-3.5 0-4.6-2.4-6.6-2.2-1.3.1-2.2 1.2-2.7 2 2.3 2.5 5.6 4.1 9.4 4.1 3.9 0 7.3-1.7 9.6-4.4-.5-.6-1.3-1.2-2.4-1.7-2.5-1-3.9 2.2-7.3 2.2z" fill="#EB6D00" stroke="#45413C" stroke-linecap="round" stroke-linejoin="round" stroke-miterlimit="10"/><path id="XMLID_2178_" class="st47" d="M25.6 39.9s1 4.2 7.2 4.2 8.7-4.1 8.9-6.4c.2-2.3-2.4-3.9-4.2-1.7-2.7 3.2-4.9 2.8-6.4.8-1.4-1.8-5.5 3.1-5.5 3.1z" fill="#FFAA54"/><path id="XMLID_2177_" class="st47" d="M22.4 39.9s-1 4.2-7.2 4.2c-6.3 0-8.7-4.1-8.9-6.4-.2-2.3 2.4-3.9 4.2-1.7 2.7 3.2 4.9 2.8 6.4.8 1.5-1.8 5.5 3.1 5.5 3.1z" fill="#FFAA54"/><path id="XMLID_2176_" class="st50" d="M29.1 39c2.7 2 6.7 2.4 11.6-.8.4-.2.7-.4 1.1-.6 0-2.2-2.4-3.7-4.2-1.5-2.7 3.2-4.9 2.8-6.4.8-1-1.3-3 .4-4.3 1.7.8-.1 1.6 0 2.2.4z" fill="#FC9"/><path id="XMLID_2175_" class="st50" d="M6.3 38c.1.1.2.1.3.2 5.4 3.2 9.8 2.8 12.8.8.5-.3 1.1-.4 1.7-.5-1.3-1.3-3.4-2.9-4.3-1.7-1.5 2-3.7 2.4-6.4-.8-1.9-2.2-4.4-.6-4.2 1.7.1.2.1.2.1.3z" fill="#FC9"/><path id="XMLID_2174_" class="st10" d="M25.6 39.9s1 4.2 7.2 4.2 8.7-4.1 8.9-6.4c.2-2.3-2.4-3.9-4.2-1.7-2.7 3.2-4.9 2.8-6.4.8-1.4-1.8-5.5 3.1-5.5 3.1z" fill="none" stroke="#45413C" stroke-linecap="round" stroke-linejoin="round" stroke-miterlimit="10"/><path id="XMLID_2173_" class="st10" d="M22.4 39.9s-1 4.2-7.2 4.2c-6.3 0-8.7-4.1-8.9-6.4-.2-2.3 2.4-3.9 4.2-1.7 2.7 3.2 4.9 2.8 6.4.8 1.5-1.8 5.5 3.1 5.5 3.1z" fill="none" stroke="#45413C" stroke-linecap="round" stroke-linejoin="round" stroke-miterlimit="10"/><circle id="XMLID_2172_" class="st78" cx="20.1" cy="28.7" r="1.1" fill="#45413C" stroke="#45413C" stroke-linecap="round" stroke-linejoin="round" stroke-miterlimit="10"/><circle id="XMLID_177_" class="st78" cx="27.9" cy="28.7" r="1.1" fill="#45413C" stroke="#45413C" stroke-linecap="round" stroke-linejoin="round" stroke-miterlimit="10"/><ellipse id="XMLID_176_" class="st98" cx="32.3" cy="31.4" rx="1.7" ry="1" fill="#EB6D00"/><ellipse id="XMLID_175_" class="st98" cx="15.7" cy="31.4" rx="1.7" ry="1" fill="#EB6D00"/><circle id="XMLID_174_" class="st54" cx="20.4" cy="19.5" r="1.9" fill="#FF8A14" stroke="#45413C" stroke-linecap="round" stroke-linejoin="round" stroke-miterlimit="10"/><circle id="XMLID_173_" class="st15" cx="39.8" cy="3.2" r="1.9" fill="#FFF" stroke="#45413C" stroke-linecap="round" stroke-linejoin="round" stroke-miterlimit="10"/><circle id="XMLID_172_" class="st15" cx="9.3" cy="8.4" r="1.9" fill="#FFF" stroke="#45413C" stroke-linecap="round" stroke-linejoin="round" stroke-miterlimit="10"/><circle id="XMLID_171_" class="st54" cx="26.2" cy="17" r="1.1" fill="#FF8A14" stroke="#45413C" stroke-linecap="round" stroke-linejoin="round" stroke-miterlimit="10"/><circle id="XMLID_170_" class="st15" cx="42.9" cy="12.6" r="1.1" fill="#FFF" stroke="#45413C" stroke-linecap="round" stroke-linejoin="round" stroke-miterlimit="10"/><circle id="XMLID_169_" class="st15" cx="7.4" cy="18.1" r="1.1" fill="#FFF" stroke="#45413C" stroke-linecap="round" stroke-linejoin="round" stroke-miterlimit="10"/><circle id="XMLID_168_" class="st54" cx="30.6" cy="19.8" r="1.1" fill="#FF8A14" stroke="#45413C" stroke-linecap="round" stroke-linejoin="round" stroke-miterlimit="10"/><circle id="XMLID_167_" class="st15" cx="39" cy="17" r="1.1" fill="#FFF" stroke="#45413C" stroke-linecap="round" stroke-linejoin="round" stroke-miterlimit="10"/><ellipse id="XMLID_166_" class="st5" cx="24" cy="45.1" rx="12.7" ry="1.7" fill="#45413C" opacity="0.15"/></g></g></svg>
