<svg xmlns="http://www.w3.org/2000/svg" width="32" height="32" viewBox="0 0 32 32"><g stroke="#0572e4" transform="translate(-226.02 -1197.775) scale(1.00687)"><path fill="#65c5b4" stroke="none" d="m 238.78534,1195.0683 1.54965,1.5496 c 2.46829,2.4683 2.48479,6.426 0.037,8.8737 -2.44774,2.4478 -6.40537,2.4312 -8.87366,-0.037 l -1.54965,-1.5497"/><path fill="#92d9f7" stroke="none" d="m 250.79535,1207.0783 -1.5497,-1.5497 c -2.46819,-2.4682 -6.42587,-2.4847 -8.87361,-0.037 -2.44774,2.4477 -2.43119,6.4054 0.037,8.8736 l 1.5497,1.5497"/><path fill="#62355c" fill-rule="evenodd" stroke="none" d="m -254.60352,553.7207 a 0.50004994,0.50004994 0 0 0 -0.34765,0.85938 l 0.35156,0.35156 -6.94336,6.94336 a 0.50058973,0.50058973 0 0 0 0.70703,0.70703 l 6.94336,-6.94336 0.50196,0.50195 c 0.19532,0.19533 0.36699,0.40388 0.52929,0.61719 l -6.18945,6.1875 a 0.50063561,0.50063561 0 0 0 0.70898,0.70703 l 6.03125,-6.0332 c 0.26314,0.50926 0.44744,1.04664 0.55078,1.5957 l -4.08398,4.08594 a 0.50004994,0.50004994 0 1 0 0.70508,0.70703 l 3.46875,-3.46875 c -0.0603,1.39226 -0.61726,2.76381 -1.6836,3.83008 -2.27321,2.27331 -5.92948,2.25781 -8.22656,-0.0391 l -1.56054,-1.5586 a 0.50004994,0.50004994 0 1 0 -0.70704,0.70704 l 1.5586,1.56054 c 2.03313,2.03307 5.01264,2.52517 7.49218,1.47852 -0.85715,2.03172 -0.67617,4.39691 0.53516,6.30469 a 0.50004994,0.50004994 0 0 0 0.0918,0.14843 c 0.24615,0.36665 0.52923,0.71478 0.85351,1.03907 l 1.56055,1.56054 a 0.50004994,0.50004994 0 1 0 0.70703,-0.70703 l -0.35351,-0.35351 6.93359,-6.9336 a 0.50004994,0.50004994 0 0 0 -0.36328,-0.85742 0.50004994,0.50004994 0 0 0 -0.3418,0.15039 l -6.93555,6.93555 -0.5,-0.50196 c -0.19507,-0.19507 -0.36716,-0.40416 -0.52929,-0.61718 l 6.17773,-6.17774 a 0.50004994,0.50004994 0 0 0 -0.36328,-0.85937 0.50004994,0.50004994 0 0 0 -0.34375,0.15234 l -6.02148,6.02149 c -0.263,-0.50938 -0.44761,-1.04655 -0.55078,-1.59571 l 4.07421,-4.07422 a 0.50004994,0.50004994 0 0 0 -0.36328,-0.85937 0.50004994,0.50004994 0 0 0 -0.34179,0.15039 l -3.45899,3.45703 c 0.0612,-1.39094 0.61827,-2.76085 1.6836,-3.82617 2.27321,-2.27321 5.93155,-2.25977 8.22851,0.0371 l 1.55859,1.5625 a 0.50064268,0.50064268 0 0 0 0.70704,-0.70899 l -1.5586,-1.55859 c -1.33667,-1.33662 -3.08385,-2.01043 -4.82812,-2.01758 -0.90813,-0.005 -1.81335,0.17679 -2.66211,0.53516 1.04481,-2.47854 0.55009,-5.4577 -1.48242,-7.49024 l -1.56055,-1.56054 a 0.50004994,0.50004994 0 0 0 -0.35938,-0.15235 z" color="#000" font-family="sans-serif" style="line-height:normal;text-indent:0;text-align:start;text-decoration-line:none;text-decoration-style:solid;text-decoration-color:#000;text-transform:none;block-progression:tb;isolation:auto;mix-blend-mode:normal" font-weight="400" overflow="visible" transform="matrix(.99318 0 0 .99318 491.646 644.623)" white-space="normal"/></g></svg>