<svg xmlns="http://www.w3.org/2000/svg" version="1.1" x="0px" y="0px" viewBox="0 0 48 48" xml space="preserve" id="BiscuitIcon"><style type="text/css"></style><symbol id="New_Symbol_14" viewBox="-6.5 -6.5 13 13"><path class="st0" d="M0-6c2.2 0 4.1 1.5 4.7 3.5C6.3-2.5 6.4 0 5 0v1c0 2.8-2.2 5-5 5s-5-2.2-5-5V0c-1.4 0-1.3-2.5.2-2.5C-4.1-4.5-2.2-6 0-6z" fill="#FFD4C3" stroke="#504B46" stroke-linecap="round" stroke-linejoin="round" stroke-miterlimit="10"></path><circle class="st1" cx="-1.6" cy="-0.1" r="0.1" fill="#FFC258"></circle><path class="st2" d="M-1.6.5c-.3 0-.6-.3-.6-.6s.2-.7.6-.7c.3 0 .6.3.6.7s-.3.6-.6.6z" fill="#4F4B45"></path><circle class="st1" cx="1.6" cy="-0.1" r="0.1" fill="#FFC258"></circle><path class="st2" d="M1.6.5C1.3.5 1 .2 1-.1s.3-.6.6-.6.6.3.6.6-.2.6-.6.6z" fill="#4F4B45"></path><circle class="st3" cx="-3" cy="-1.5" r="0.5" fill="#FABFA5"></circle><circle class="st3" cx="3" cy="-1.5" r="0.5" fill="#FABFA5"></circle><path class="st4" d="M-1.2-3c.8-.5 1.7-.5 2.5 0" fill="none" stroke="#504B46" stroke-linecap="round" stroke-linejoin="round" stroke-miterlimit="10"></path></symbol><g id="Icons"><g id="XMLID_1983_"><circle id="XMLID_2405_" class="st9" cx="24" cy="22.1" r="20.3" fill="#DEBB7E"></circle><g id="XMLID_2395_"><path id="XMLID_2397_" class="st7" d="M24 6.7c10.3 0 18.9 7.7 20.1 17.8.1-.8.2-1.6.2-2.4 0-11.2-9.1-20.3-20.3-20.3-11.2 0-20.3 9.1-20.3 20.3 0 .8.1 1.6.2 2.5C5.1 14.5 13.6 6.7 24 6.7z" fill="#F0D5A8"></path><path id="XMLID_2396_" class="st7" d="M22.2 42.2h.5l-.3-.3c-.1.1-.1.2-.2.3z" fill="#F0D5A8"></path></g><circle id="XMLID_2394_" class="st10" cx="24" cy="22.1" r="20.3" fill="none" stroke="#45413C" stroke-linecap="round" stroke-linejoin="round" stroke-miterlimit="10"></circle><ellipse id="XMLID_2393_" class="st5" cx="24.2" cy="44.7" rx="13" ry="1.5" fill="#45413C" opacity="0.15"></ellipse><g id="XMLID_2387_"><circle id="XMLID_2392_" class="st7" cx="27.1" cy="16.8" r="3.6" fill="#F0D5A8"></circle><g id="XMLID_2388_"><circle id="XMLID_2391_" class="st39" cx="27.1" cy="15.7" r="3" fill="#915E3A"></circle><path id="XMLID_2390_" class="st37" d="M27.1 15.2c1.2 0 2.2.7 2.7 1.7.2-.4.3-.8.3-1.2 0-1.6-1.3-3-3-3-1.6 0-3 1.3-3 3 0 .4.1.8.3 1.2.4-1 1.5-1.7 2.7-1.7z" fill="#BF8256"></path><circle id="XMLID_2389_" class="st10" cx="27.1" cy="15.7" r="3" fill="none" stroke="#45413C" stroke-linecap="round" stroke-linejoin="round" stroke-miterlimit="10"></circle></g></g><g id="XMLID_2378_"><circle id="XMLID_2386_" class="st7" cx="11.5" cy="18.6" r="2.7" fill="#F0D5A8"></circle><g id="XMLID_2379_"><circle id="XMLID_2382_" class="st39" cx="11.5" cy="17.8" r="2.2" fill="#915E3A"></circle><path id="XMLID_2381_" class="st37" d="M11.5 17.4c.9 0 1.7.5 2 1.3.1-.3.2-.6.2-.9 0-1.2-1-2.2-2.2-2.2-1.2 0-2.2 1-2.2 2.2 0 .3.1.6.2.9.3-.8 1.1-1.3 2-1.3z" fill="#BF8256"></path><circle id="XMLID_2380_" class="st10" cx="11.5" cy="17.8" r="2.2" fill="none" stroke="#45413C" stroke-linecap="round" stroke-linejoin="round" stroke-miterlimit="10"></circle></g></g><g id="XMLID_2372_"><circle id="XMLID_2377_" class="st7" cx="37.4" cy="24.9" r="2.7" fill="#F0D5A8"></circle><g id="XMLID_2373_"><circle id="XMLID_2376_" class="st39" cx="37.4" cy="24" r="2.2" fill="#915E3A"></circle><path id="XMLID_2375_" class="st37" d="M37.4 23.6c.9 0 1.7.5 2 1.3.1-.3.2-.6.2-.9 0-1.2-1-2.2-2.2-2.2-1.2 0-2.2 1-2.2 2.2 0 .3.1.6.2.9.3-.7 1.1-1.3 2-1.3z" fill="#BF8256"></path><circle id="XMLID_2374_" class="st10" cx="37.4" cy="24" r="2.2" fill="none" stroke="#45413C" stroke-linecap="round" stroke-linejoin="round" stroke-miterlimit="10"></circle></g></g><g id="XMLID_2366_"><circle id="XMLID_2371_" class="st7" cx="26.6" cy="32.2" r="2.4" fill="#F0D5A8"></circle><g id="XMLID_2367_"><circle id="XMLID_2370_" class="st39" cx="26.6" cy="31.4" r="1.9" fill="#915E3A"></circle><path id="XMLID_2369_" class="st37" d="M26.6 31.1c.8 0 1.4.5 1.7 1.1.1-.2.2-.5.2-.8 0-1.1-.9-1.9-1.9-1.9-1.1 0-1.9.9-1.9 1.9 0 .3.1.5.2.8.2-.6.9-1.1 1.7-1.1z" fill="#BF8256"></path><circle id="XMLID_2368_" class="st10" cx="26.6" cy="31.4" r="1.9" fill="none" stroke="#45413C" stroke-linecap="round" stroke-linejoin="round" stroke-miterlimit="10"></circle></g></g><g id="XMLID_2360_"><circle id="XMLID_2365_" class="st7" cx="14.8" cy="28.5" r="2.4" fill="#F0D5A8"></circle><g id="XMLID_2361_"><circle id="XMLID_2364_" class="st39" cx="14.8" cy="27.8" r="1.9" fill="#915E3A"></circle><path id="XMLID_2363_" class="st37" d="M14.8 27.5c.8 0 1.4.5 1.7 1.1.1-.2.2-.5.2-.8 0-1.1-.9-1.9-1.9-1.9-1.1 0-1.9.9-1.9 1.9 0 .3.1.5.2.8.2-.7.9-1.1 1.7-1.1z" fill="#BF8256"></path><circle id="XMLID_2362_" class="st10" cx="14.8" cy="27.8" r="1.9" fill="none" stroke="#45413C" stroke-linecap="round" stroke-linejoin="round" stroke-miterlimit="10"></circle></g></g></g></g></svg>
