<svg xmlns="http://www.w3.org/2000/svg" viewBox="0 0 32 32" id="DayIcon"><rect width="31" height="27" x=".5" y="4.5" fill="#e0e0e2" rx="2"></rect><path fill="#2c2b2d" d="M29.5,32H2.5A2.50263,2.50263,0,0,1,0,29.5V6.5A2.50294,2.50294,0,0,1,2.5,4h27A2.50294,2.50294,0,0,1,32,6.5v23A2.50263,2.50263,0,0,1,29.5,32ZM2.5,5A1.50164,1.50164,0,0,0,1,6.5v23A1.50164,1.50164,0,0,0,2.5,31h27A1.50164,1.50164,0,0,0,31,29.5V6.5A1.50164,1.50164,0,0,0,29.5,5Z"></path><path fill="#2c2b2d" d="M11,20a.49971.49971,0,0,1-.5-.5v-4A.49971.49971,0,0,1,11,15h2a.5.5,0,0,1,0,1H11.5v3.5A.49971.49971,0,0,1,11,20Z"></path><path fill="#2c2b2d" d="M13 20H11a.5.5 0 0 1 0-1h2a.5.5 0 0 1 0 1zM13 18H11a.5.5 0 0 1 0-1h2a.5.5 0 0 1 0 1zM17 16H15a.5.5 0 0 1 0-1h2a.5.5 0 0 1 0 1zM17 20H15a.5.5 0 0 1 0-1h2a.5.5 0 0 1 0 1zM20 20H19a.49971.49971 0 0 1-.5-.5v-4A.49971.49971 0 0 1 19 15h1a1.50164 1.50164 0 0 1 1.5 1.5v2A1.50164 1.50164 0 0 1 20 20zm-.5-1H20a.50065.50065 0 0 0 .5-.5v-2A.50034.50034 0 0 0 20 16h-.5z"></path><path fill="#2c2b2d" d="M16 20a.49971.49971 0 0 1-.5-.5v-4a.5.5 0 0 1 1 0v4A.49971.49971 0 0 1 16 20zM5 26a.49971.49971 0 0 1-.5-.5V23.61816l-.05273.10547a.52141.52141 0 0 1-.89454 0L3.5 23.61816V25.5a.5.5 0 0 1-1 0v-4a.50013.50013 0 0 1 .94727-.22363L4 22.38184l.55273-1.10547a.49423.49423 0 0 1 .562-.2627A.49981.49981 0 0 1 5.5 21.5v4A.49971.49971 0 0 1 5 26zM9 26H7a.49971.49971 0 0 1-.5-.5v-4a.5.5 0 0 1 1 0V25h1V21.5a.5.5 0 0 1 1 0v4A.49971.49971 0 0 1 9 26zM11 26a.49971.49971 0 0 1-.5-.5v-4a.5.5 0 0 1 1 0v4A.49971.49971 0 0 1 11 26z"></path><path fill="#2c2b2d" d="M12,26H11a.5.5,0,0,1,0-1h1a.5.5,0,0,0,0-1H11a.5.5,0,0,1,0-1h1a1.5,1.5,0,0,1,0,3Z"></path><path fill="#2c2b2d" d="M12 24H11a.5.5 0 0 1 0-1h1a.5.5 0 0 0 0-1H11a.5.5 0 0 1 0-1h1a1.5 1.5 0 0 1 0 3zM19 26a.49971.49971 0 0 1-.5-.5v-4a.5.5 0 0 1 1 0v4A.49971.49971 0 0 1 19 26z"></path><path fill="#2c2b2d" d="M20 24H19a.5.5 0 0 1 0-1h1a.5.5 0 0 0 0-1H19a.5.5 0 0 1 0-1h1a1.5 1.5 0 0 1 0 3zM17 26a.49971.49971 0 0 1-.5-.5V22h-1v3.5a.5.5 0 0 1-1 0v-4A.49971.49971 0 0 1 15 21h2a.49971.49971 0 0 1 .5.5v4A.49971.49971 0 0 1 17 26z"></path><path fill="#2c2b2d" d="M17 24H15a.5.5 0 0 1 0-1h2a.5.5 0 0 1 0 1zM25 26a.49971.49971 0 0 1-.5-.5V22h-1v3.5a.5.5 0 0 1-1 0v-4A.49971.49971 0 0 1 23 21h2a.49971.49971 0 0 1 .5.5v4A.49971.49971 0 0 1 25 26z"></path><path fill="#2c2b2d" d="M25 24H23a.5.5 0 0 1 0-1h2a.5.5 0 0 1 0 1zM21.00049 26a.501.501 0 0 1-.44776-.27637l-1-2a.50006.50006 0 1 1 .89454-.44726l1 2a.50013.50013 0 0 1-.22364.6709A.49409.49409 0 0 1 21.00049 26zM27 26a.49971.49971 0 0 1-.5-.5v-4a.5.5 0 0 1 1 0v4A.49971.49971 0 0 1 27 26z"></path><path fill="#2c2b2d" d="M29.00049,26a.501.501,0,0,1-.44776-.27637l-1.249-2.498a.50006.50006,0,1,1,.89453-.44727l1.249,2.498a.50013.50013,0,0,1-.22364.6709A.49409.49409,0,0,1,29.00049,26Z"></path><path fill="#2c2b2d" d="M26.99951,24.40527a.49944.49944,0,0,1-.38379-.81933l2-2.40528a.49965.49965,0,1,1,.76856.63868l-2,2.40527A.49815.49815,0,0,1,26.99951,24.40527Z"></path><path fill="#e5303e" d="M2.5,4.5h27a2,2,0,0,1,2,2v3a0,0,0,0,1,0,0H.5a0,0,0,0,1,0,0v-3A2,2,0,0,1,2.5,4.5Z"></path><path fill="#2c2b2d" d="M31.5,10H.5A.49971.49971,0,0,1,0,9.5v-3A2.50294,2.50294,0,0,1,2.5,4h27A2.50294,2.50294,0,0,1,32,6.5v3A.49971.49971,0,0,1,31.5,10ZM1,9H31V6.5A1.50164,1.50164,0,0,0,29.5,5H2.5A1.50164,1.50164,0,0,0,1,6.5Z"></path><polygon fill="#f7991d" points="5.239 16.134 6.026 14.5 6.784 16.148 8.51 16.428 7.248 17.694 7.528 19.5 5.99 18.634 4.438 19.47 4.748 17.67 3.51 16.38 5.239 16.134"></polygon><path fill="#2c2b2d" d="M7.52783,20a.50165.50165,0,0,1-.2456-.06445l-1.29737-.73047-1.31006.70605a.5.5,0,0,1-.73-.52539L4.21289,17.834,3.14941,16.72656a.49987.49987,0,0,1,.28955-.84131l1.46534-.209.6709-1.39307A.45725.45725,0,0,1,6.03027,14a.49986.49986,0,0,1,.44971.291l.647,1.40625,1.46289.2373a.50018.50018,0,0,1,.27393.84668L7.78125,17.86719,8.022,19.42383A.49984.49984,0,0,1,7.52783,20Zm-1.5376-1.86621a.50029.50029,0,0,1,.24561.06445l.64062.36133-.12207-.79a.49821.49821,0,0,1,.14014-.42871l.57276-.57519-.76319-.12354a.5.5,0,0,1-.374-.28467l-.31445-.68359-.32569.67676a.50043.50043,0,0,1-.37988.27832l-.76367.10888.5625.58545a.50128.50128,0,0,1,.13232.43164L5.105,18.543l.64795-.34961A.49884.49884,0,0,1,5.99023,18.13379Zm-.751-2h0Z"></path><polygon fill="#f7991d" points="25.25 16.134 26.037 14.5 26.795 16.148 28.52 16.428 27.259 17.694 27.538 19.5 26.001 18.634 24.448 19.47 24.759 17.67 23.52 16.38 25.25 16.134"></polygon><path fill="#2c2b2d" d="M27.53857,20a.50165.50165,0,0,1-.2456-.06445l-1.29736-.73047-1.31006.70605a.5.5,0,0,1-.73-.52539l.26806-1.55176-1.064-1.10693a.50011.50011,0,0,1,.29-.8418l1.46533-.209.6709-1.39307A.488.488,0,0,1,26.041,14a.49985.49985,0,0,1,.4497.291l.647,1.40673,1.4624.23682a.50018.50018,0,0,1,.27392.84668l-1.082,1.08594.24072,1.55664A.49984.49984,0,0,1,27.53857,20ZM26.001,18.13379a.50028.50028,0,0,1,.2456.06445l.64063.36133-.12207-.79a.49818.49818,0,0,1,.14013-.42871l.57276-.57519-.76319-.12354a.50006.50006,0,0,1-.374-.28467l-.31445-.68359-.32569.67676a.5004.5004,0,0,1-.38037.27832l-.76367.10888.563.58545a.50128.50128,0,0,1,.13232.43164l-.13623.78809.648-.34961A.49885.49885,0,0,1,26.001,18.13379Zm-.751-2h0Z"></path><rect width="3" height="7" x="4.5" y=".5" fill="#e0e0e2" rx="1.5"></rect><path fill="#2c2b2d" d="M6,8A2.002,2.002,0,0,1,4,6V2A2,2,0,0,1,8,2V6A2.002,2.002,0,0,1,6,8ZM6,1A1.0013,1.0013,0,0,0,5,2V6A1,1,0,0,0,7,6V2A1.0013,1.0013,0,0,0,6,1Z"></path><rect width="3" height="7" x="24.5" y=".5" fill="#e0e0e2" rx="1.5"></rect><path fill="#2c2b2d" d="M26,8a2.002,2.002,0,0,1-2-2V2a2,2,0,0,1,4,0V6A2.002,2.002,0,0,1,26,8Zm0-7a1.0013,1.0013,0,0,0-1,1V6a1,1,0,0,0,2,0V2A1.0013,1.0013,0,0,0,26,1Z"></path></svg>
