<svg
  style="width:15px;height:15px"
  version="1.1"
  xmlns="http://www.w3.org/2000/svg"
  width="32"
  height="32"
  viewBox="0 0 32 32"
  id="WalletIcon"
>
  <title>wallet</title>
  <path d="M1.867 27.88h24.16c1.027 0 1.867-0.84 1.867-1.867v-5.827h-8.96c-0.005 0-0.010 0-0.016 0-1.371 0-2.612-0.561-3.504-1.466l-0.001-0.001c-0.906-0.895-1.467-2.137-1.467-3.51 0-0.004 0-0.007 0-0.011v0.001-0.533c0-0.001 0-0.001 0-0.002 0-1.371 0.561-2.612 1.466-3.504l0.001-0.001c0.895-0.906 2.137-1.467 3.51-1.467 0.004 0 0.007 0 0.011 0h8.959v-5.827c0-1.027-0.84-1.867-1.867-1.867h-24.16c-1.027 0-1.867 0.84-1.867 1.867v22.133c0 1.040 0.84 1.88 1.867 1.88zM29.96 12.973c0-0.773-0.627-1.4-1.4-1.4h-9.627c-1.716 0-3.107 1.391-3.107 3.107v0.533c0 1.716 1.391 3.107 3.107 3.107v0h9.627c0.773 0 1.4-0.627 1.4-1.4zM19.44 16.6c-0.913 0-1.653-0.74-1.653-1.653s0.74-1.653 1.653-1.653v0c0.913 0 1.653 0.74 1.653 1.653s-0.74 1.653-1.653 1.653v0z"></path>{' '}
</svg>
