<svg xmlns="http://www.w3.org/2000/svg" version="1.1" x="0px" y="0px" viewBox="0 0 48 48" xml space="preserve" id="Juice3Icon"><style type="text/css"></style><symbol id="New_Symbol_14" viewBox="-6.5 -6.5 13 13"><path class="st0" d="M0-6c2.2 0 4.1 1.5 4.7 3.5C6.3-2.5 6.4 0 5 0v1c0 2.8-2.2 5-5 5s-5-2.2-5-5V0c-1.4 0-1.3-2.5.2-2.5C-4.1-4.5-2.2-6 0-6z" fill="#FFD4C3" stroke="#504B46" stroke-linecap="round" stroke-linejoin="round" stroke-miterlimit="10"></path><circle class="st1" cx="-1.6" cy="-0.1" r="0.1" fill="#FFC258"></circle><path class="st2" d="M-1.6.5c-.3 0-.6-.3-.6-.6s.2-.7.6-.7c.3 0 .6.3.6.7s-.3.6-.6.6z" fill="#4F4B45"></path><circle class="st1" cx="1.6" cy="-0.1" r="0.1" fill="#FFC258"></circle><path class="st2" d="M1.6.5C1.3.5 1 .2 1-.1s.3-.6.6-.6.6.3.6.6-.2.6-.6.6z" fill="#4F4B45"></path><circle class="st3" cx="-3" cy="-1.5" r="0.5" fill="#FABFA5"></circle><circle class="st3" cx="3" cy="-1.5" r="0.5" fill="#FABFA5"></circle><path class="st4" d="M-1.2-3c.8-.5 1.7-.5 2.5 0" fill="none" stroke="#504B46" stroke-linecap="round" stroke-linejoin="round" stroke-miterlimit="10"></path></symbol><g id="Icons"><g id="XMLID_1895_"><ellipse id="XMLID_793_" class="st5" cx="24" cy="44.3" rx="9.5" ry="1.6" fill="#45413C" opacity="0.15"></ellipse><g id="XMLID_1381_"><path id="XMLID_1418_" class="st61" d="M22.3 29.1c1 4.2.7 11.2.7 11.2 0 .4-.3.7-.6.7-2.9.2-5.1.9-5.5 1.7-.1.2 0 .4.2.4.7.3 2.8 1.3 7 1.3s6.4-.9 7-1.3c.2-.1.2-.3.2-.4-.4-.8-2.6-1.5-5.5-1.7-.4 0-.6-.3-.6-.7 0 0-.3-7 .7-11.2h-3.6z" fill="#00B8F0" stroke="#45413C" stroke-linecap="round" stroke-linejoin="round" stroke-miterlimit="10"></path><g id="XMLID_1385_"><g id="XMLID_1402_"><path id="XMLID_1417_" class="st35" d="M17.4 3.4c.7-1 3-1.4 6.6-1.4s5.9.3 6.6 1.4c1.5 1.8 3.5 14.4 3.5 17 0 5.6-4.5 10.1-10.1 10.1S13.9 26 13.9 20.4c0-2.5 2-15.2 3.5-17z" fill="#00B8F0"></path><path id="XMLID_1416_" class="st36" d="M16.9 27.6c9.3-4.3 13.4-13.5 15.2-19.8-.5-2.1-1-3.8-1.5-4.3-.7-1-3-1.4-6.6-1.4s-5.9.3-6.6 1.4c-1.5 1.8-3.5 14.4-3.5 17 0 2.7 1.2 5.2 3 7.1z" fill="#4ACFFF"></path><path id="XMLID_1415_" class="st35" d="M24 4.8c3.6 0 6.6-.6 6.6-1.4-.7-1-3-1.4-6.6-1.4s-5.9.3-6.6 1.4c0 .8 3 1.4 6.6 1.4z" fill="#00B8F0"></path><path id="XMLID_1414_" class="st10" d="M17.4 3.4c.7-1 3-1.4 6.6-1.4s5.9.3 6.6 1.4c1.5 1.8 3.5 14.4 3.5 17 0 5.6-4.5 10.1-10.1 10.1S13.9 26 13.9 20.4c0-2.5 2-15.2 3.5-17z" fill="none" stroke="#45413C" stroke-linecap="round" stroke-linejoin="round" stroke-miterlimit="10"></path><path id="XMLID_1413_" class="st10" d="M30.6 3.4c0 .8-3 1.4-6.6 1.4s-6.6-.6-6.6-1.4" fill="none" stroke="#45413C" stroke-linecap="round" stroke-linejoin="round" stroke-miterlimit="10"></path></g><g id="XMLID_1386_"><path id="XMLID_1398_" class="st45" d="M16.7 21.8s.7-2.8 4.5-2.8 4.9 2.8 4.9 2.8h-9.4z" fill="#FFF48C"></path><path id="XMLID_1388_" class="st45" d="M32.3 20.4c0 4.6-3.7 8.3-8.3 8.3s-8.3-3.7-8.3-8.3c0 0 2.8 1.4 4.9 1.4s4.9-2.8 6.9-2.8 4.8 1.4 4.8 1.4z" fill="#FFF48C"></path><path id="XMLID_1387_" class="st28" d="M18.6 26.7c3.6-2 6.3-4.7 8.3-7.6-2 .4-4.5 2.7-6.4 2.7-2.1 0-4.9-1.4-4.9-1.4.1 2.5 1.2 4.8 3 6.3z" fill="#FFFACF"></path></g></g><g id="XMLID_1382_"><circle id="XMLID_1384_" class="st16" cx="19.8" cy="8.6" r="1.4" fill="#E5F8FF"></circle><circle id="XMLID_1383_" class="st16" cx="17.8" cy="10.7" r="0.7" fill="#E5F8FF"></circle></g></g></g></g></svg>
