<svg xmlns:xlink="http://www.w3.org/1999/xlink" width="32pt" height="25pt" viewBox="0 0 32 25" version="1.1" id="TwitterIcon">
  <g>
    <path d="M 32 3.417969 C 29.988281 3.507812 30.03125 3.5 29.804688 3.515625 L 30.996094 0.191406 C 30.996094 0.191406 27.273438 1.527344 26.332031 1.769531 C 23.867188 -0.308594 20.308594 -0.589844 17.535156 1.078125 C 15.355469 2.328125 14.191406 4.757812 14.609375 7.195312 C 10.472656 6.65625 6.703125 4.585938 4.089844 1.410156 L 3.199219 0.375 L 2.539062 1.558594 C 1.710938 3.023438 1.4375 4.726562 1.761719 6.371094 C 1.894531 7.023438 2.128906 7.65625 2.449219 8.246094 L 1.691406 7.957031 L 1.601562 9.195312 C 1.546875 10.585938 1.949219 11.957031 2.746094 13.113281 C 3.007812 13.5 3.308594 13.859375 3.640625 14.1875 L 3.25 14.128906 L 3.726562 15.546875 C 4.3125 17.335938 5.621094 18.820312 7.351562 19.644531 C 5.660156 20.34375 4.296875 20.792969 2.054688 21.511719 L 0 22.171875 L 1.894531 23.1875 C 3.707031 24.164062 5.664062 24.859375 7.695312 25.25 C 13.308594 26.109375 19.625 25.410156 23.875 21.671875 C 27.460938 18.519531 28.632812 14.039062 28.390625 9.375 C 28.34375 8.699219 28.542969 8.027344 28.945312 7.480469 C 29.742188 6.441406 32 3.421875 32 3.417969 Z M 27.449219 6.375 C 26.78125 7.265625 26.453125 8.359375 26.519531 9.460938 C 26.765625 14.167969 25.457031 17.8125 22.625 20.304688 C 19.316406 23.210938 13.980469 24.355469 7.988281 23.4375 C 6.910156 23.25 5.859375 22.945312 4.851562 22.527344 C 6.792969 21.882812 8.6875 21.121094 10.53125 20.25 L 13.808594 18.734375 L 10.191406 18.511719 C 8.542969 18.4375 7.03125 17.597656 6.128906 16.25 C 6.59375 16.222656 7.058594 16.148438 7.507812 16.027344 L 10.953125 15.089844 L 7.476562 14.257812 C 6.179688 13.964844 5.046875 13.195312 4.3125 12.109375 C 4.007812 11.65625 3.773438 11.15625 3.628906 10.632812 C 4.089844 10.742188 4.5625 10.816406 5.035156 10.851562 L 8.253906 11.164062 L 5.707031 9.222656 C 3.9375 7.957031 3.132812 5.773438 3.671875 3.699219 C 7.128906 7.171875 11.859375 9.160156 16.820312 9.222656 C 16.792969 8.699219 16.730469 8.183594 16.628906 7.671875 C 15.9375 5.765625 16.734375 3.652344 18.519531 2.636719 C 20.605469 1.386719 23.277344 1.601562 25.125 3.171875 C 25.535156 3.550781 26.113281 3.699219 26.660156 3.574219 C 27.089844 3.46875 27.511719 3.34375 27.929688 3.199219 L 27.121094 5.449219 L 28.160156 5.449219 Z M 27.449219 6.375 "></path>
  </g>
</svg>
