<svg xmlns="http://www.w3.org/2000/svg" version="1.1" x="0px" y="0px" viewBox="0 0 48 48" xml space="preserve" id="BookIcon"><style type="text/css"></style><symbol id="New_Symbol_14" viewBox="-6.5 -6.5 13 13"><path class="st0" d="M0-6c2.2 0 4.1 1.5 4.7 3.5C6.3-2.5 6.4 0 5 0v1c0 2.8-2.2 5-5 5s-5-2.2-5-5V0c-1.4 0-1.3-2.5.2-2.5C-4.1-4.5-2.2-6 0-6z" fill="#FFD4C3" stroke="#504B46" stroke-linecap="round" stroke-linejoin="round" stroke-miterlimit="10"></path><circle class="st1" cx="-1.6" cy="-0.1" r="0.1" fill="#FFC258"></circle><path class="st2" d="M-1.6.5c-.3 0-.6-.3-.6-.6s.2-.7.6-.7c.3 0 .6.3.6.7s-.3.6-.6.6z" fill="#4F4B45"></path><circle class="st1" cx="1.6" cy="-0.1" r="0.1" fill="#FFC258"></circle><path class="st2" d="M1.6.5C1.3.5 1 .2 1-.1s.3-.6.6-.6.6.3.6.6-.2.6-.6.6z" fill="#4F4B45"></path><circle class="st3" cx="-3" cy="-1.5" r="0.5" fill="#FABFA5"></circle><circle class="st3" cx="3" cy="-1.5" r="0.5" fill="#FABFA5"></circle><path class="st4" d="M-1.2-3c.8-.5 1.7-.5 2.5 0" fill="none" stroke="#504B46" stroke-linecap="round" stroke-linejoin="round" stroke-miterlimit="10"></path></symbol><g id="Icons"><g id="XMLID_1808_"><path id="XMLID_2301_" class="st35" d="M24 7.3L5 8.2c-1.1.1-1.9.9-1.9 2v27c0 1.2 1 2.1 2.1 2l13.4-.8c.4 0 .8.2.9.5.3.7 1 .9 1.9.9h5c.9 0 1.6-.3 1.9-.9.1-.4.6-.6.9-.5l13.4.8c1.2.1 2.1-.8 2.1-2v-27c0-1.1-.8-1.9-1.9-2L24 7.3z" fill="#00B8F0"></path><path id="XMLID_2300_" class="st36" d="M43 8.2l-19-.9-19 .9c-1.1.1-1.9.9-1.9 2v3.5c0-1.1.8-1.9 1.9-2l19-.9 19 .9c1.1.1 1.9.9 1.9 2v-3.5c0-1-.8-1.9-1.9-2z" fill="#4ACFFF"></path><path id="XMLID_2299_" class="st10" d="M24 7.3L5 8.2c-1.1.1-1.9.9-1.9 2v27c0 1.2 1 2.1 2.1 2l13.4-.8c.4 0 .8.2.9.5.3.7 1 .9 1.9.9h5c.9 0 1.6-.3 1.9-.9.1-.4.6-.6.9-.5l13.4.8c1.2.1 2.1-.8 2.1-2v-27c0-1.1-.8-1.9-1.9-2L24 7.3z" fill="none" stroke="#45413C" stroke-linecap="round" stroke-linejoin="round" stroke-miterlimit="10"></path><path id="XMLID_2298_" class="st101" d="M25.5 37.3h-2.9c-.8 0-1.5-.7-1.5-1.5v-2h6v2c-.1.8-.8 1.5-1.6 1.5z" fill="#627B8C" stroke="#45413C" stroke-linecap="round" stroke-linejoin="round" stroke-miterlimit="10"></path><ellipse id="XMLID_2297_" class="st5" cx="23.9" cy="41.3" rx="17" ry="1.5" fill="#45413C" opacity="0.15"></ellipse><path id="XMLID_2296_" class="st65" d="M8.6 7.3L6.4 10c-.2.3-.3.7-.3 1.1v25.6L8.6 33V7.3z" fill="#FFFEF2"></path><path id="XMLID_2295_" class="st65" d="M39.4 7.3l2.2 2.7c.2.3.3.7.3 1.1v25.6L39.4 33V7.3z" fill="#FFFEF2"></path><path id="XMLID_2294_" class="st17" d="M6.4 10.1c-.2.3-.3.7-.3 1.1v3.5c0-.4.1-.8.3-1.1l2.2-2.7V7.3l-2.2 2.8z" fill="#FFF"></path><path id="XMLID_2293_" class="st17" d="M41.6 10.1l-2.2-2.7v3.5l2.2 2.7c.2.3.3.7.3 1.1v-3.5c0-.4-.1-.8-.3-1.1z" fill="#FFF"></path><path id="XMLID_2292_" class="st10" d="M8.6 7.3L6.4 10c-.2.3-.3.7-.3 1.1v25.6L8.6 33V7.3z" fill="none" stroke="#45413C" stroke-linecap="round" stroke-linejoin="round" stroke-miterlimit="10"></path><path id="XMLID_2291_" class="st10" d="M39.4 7.3l2.2 2.7c.2.3.3.7.3 1.1v25.6L39.4 33V7.3z" fill="none" stroke="#45413C" stroke-linecap="round" stroke-linejoin="round" stroke-miterlimit="10"></path><path id="XMLID_2290_" class="st65" d="M24 34.8v-26c0-1.7-1.3-3-3-3l-11.5 1c-.5 0-.9.5-.9.5v29l12.6-.4c.5-.6 1.5-1.1 2.8-1.1z" fill="#FFFEF2"></path><path id="XMLID_2289_" class="st65" d="M27 5.8c-1.7 0-3 1.3-3 3v26c1.3 0 2.3.5 2.8 1.1l12.6.4v-29s-.4-.5-.9-.6L27 5.8z" fill="#FFFEF2"></path><path id="XMLID_2288_" class="st17" d="M21 5.8l-11.5 1c-.5 0-.9.5-.9.5v2.9c0-.5.4-1 .9-1L21 8.3c1.7 0 3 1.3 3 3V8.8c0-1.6-1.3-3-3-3z" fill="#FFF"></path><path id="XMLID_2287_" class="st17" d="M38.5 6.8L27 5.8c-1.7 0-3 1.3-3 3v2.5c0-1.7 1.3-3 3-3l11.5.9c.5 0 .9.5.9 1V7.3s-.4-.5-.9-.5z" fill="#FFF"></path><path id="XMLID_2286_" class="st10" d="M24 34.8v-26c0-1.7-1.3-3-3-3l-11.5 1c-.5 0-.9.5-.9.5v29l12.6-.4c.5-.6 1.5-1.1 2.8-1.1z" fill="none" stroke="#45413C" stroke-linecap="round" stroke-linejoin="round" stroke-miterlimit="10"></path><path id="XMLID_2285_" class="st10" d="M27 5.8c-1.7 0-3 1.3-3 3v26c1.3 0 2.3.5 2.8 1.1l12.6.4v-29s-.4-.5-.9-.6L27 5.8z" fill="none" stroke="#45413C" stroke-linecap="round" stroke-linejoin="round" stroke-miterlimit="10"></path><path id="XMLID_2284_" class="st102" d="M24 34.8c-.2-1.4-1.5-2.5-3-2.5l-12.4.9-2.5 3.7 15.1-.9c.4-.7 1.5-1.1 2.8-1.2z" fill="#FFFCE5" stroke="#45413C" stroke-linecap="round" stroke-linejoin="round" stroke-miterlimit="10"></path><path id="XMLID_2283_" class="st102" d="M26.8 36l15.1.8-2.5-3.7-12.4-.8c-1.5 0-2.7 1.1-3 2.5 1.3.1 2.4.5 2.8 1.2z" fill="#FFFCE5" stroke="#45413C" stroke-linecap="round" stroke-linejoin="round" stroke-miterlimit="10"></path><path id="XMLID_2282_" class="st10" fill="none" stroke="#45413C" stroke-linecap="round" stroke-linejoin="round" stroke-miterlimit="10" d="M28 9.3l9 .9"></path><path id="XMLID_2281_" class="st10" fill="none" stroke="#45413C" stroke-linecap="round" stroke-linejoin="round" stroke-miterlimit="10" d="M28 13.2l9 .8"></path><path id="XMLID_2280_" class="st10" fill="none" stroke="#45413C" stroke-linecap="round" stroke-linejoin="round" stroke-miterlimit="10" d="M28 17l9 .8"></path><path id="XMLID_2279_" class="st10" fill="none" stroke="#45413C" stroke-linecap="round" stroke-linejoin="round" stroke-miterlimit="10" d="M28 20.8l9 .9"></path><path id="XMLID_2278_" class="st10" fill="none" stroke="#45413C" stroke-linecap="round" stroke-linejoin="round" stroke-miterlimit="10" d="M28 24.6l9 .9"></path><path id="XMLID_2277_" class="st10" fill="none" stroke="#45413C" stroke-linecap="round" stroke-linejoin="round" stroke-miterlimit="10" d="M28 28.5l9 .8"></path><path id="XMLID_2276_" class="st10" fill="none" stroke="#45413C" stroke-linecap="round" stroke-linejoin="round" stroke-miterlimit="10" d="M20.5 9.3l-9 .9"></path><path id="XMLID_2275_" class="st10" fill="none" stroke="#45413C" stroke-linecap="round" stroke-linejoin="round" stroke-miterlimit="10" d="M20.5 13.2l-9 .8"></path><path id="XMLID_2274_" class="st10" fill="none" stroke="#45413C" stroke-linecap="round" stroke-linejoin="round" stroke-miterlimit="10" d="M20.5 17l-9 .8"></path><path id="XMLID_2273_" class="st10" fill="none" stroke="#45413C" stroke-linecap="round" stroke-linejoin="round" stroke-miterlimit="10" d="M20.5 20.8l-9 .9"></path><path id="XMLID_2272_" class="st10" fill="none" stroke="#45413C" stroke-linecap="round" stroke-linejoin="round" stroke-miterlimit="10" d="M20.5 24.6l-9 .9"></path><path id="XMLID_2271_" class="st10" fill="none" stroke="#45413C" stroke-linecap="round" stroke-linejoin="round" stroke-miterlimit="10" d="M20.5 28.5l-9 .8"></path></g></g></svg>
