<svg xmlns="http://www.w3.org/2000/svg" version="1.1" x="0px" y="0px" viewBox="0 0 48 48" xml:space="preserve"><style type="text/css">.st0{fill:#FFD4C3;stroke:#504B46;stroke-linecap:round;stroke-linejoin:round;stroke-miterlimit:10;} .st1{fill:#FFC258;} .st2{fill:#4F4B45;} .st3{fill:#FABFA5;} .st4{fill:none;stroke:#504B46;stroke-linecap:round;stroke-linejoin:round;stroke-miterlimit:10;} .Graphic_x0020_Style{opacity:0.15;fill:#45413C;} .st5{opacity:0.15;fill:#45413C;} .st6{fill:#DEBB7E;stroke:#45413C;stroke-linecap:round;stroke-linejoin:round;stroke-miterlimit:10;} .st7{fill:#F0D5A8;} .st8{fill:#F7E5C6;} .st9{fill:#DEBB7E;} .st10{fill:none;stroke:#45413C;stroke-linecap:round;stroke-linejoin:round;stroke-miterlimit:10;} .st11{fill:#FFE500;} .st12{fill:#EBCB00;} .st13{fill:none;stroke:#EBCB00;stroke-linecap:round;stroke-linejoin:round;stroke-miterlimit:10;} .st14{fill:#FF6242;stroke:#45413C;stroke-linecap:round;stroke-linejoin:round;stroke-miterlimit:10;} .st15{fill:#FFFFFF;stroke:#45413C;stroke-linecap:round;stroke-linejoin:round;stroke-miterlimit:10;} .st16{fill:#E5F8FF;} .st17{fill:#FFFFFF;} .st18{fill:#E8F4FA;} .st19{fill:#E8F4FA;stroke:#45413C;stroke-linecap:round;stroke-linejoin:round;stroke-miterlimit:10;} .st20{fill:#FFCCDD;} .st21{fill:#FFB0CA;stroke:#45413C;stroke-linecap:round;stroke-linejoin:round;stroke-miterlimit:10;} .st22{fill:#FF87AF;stroke:#45413C;stroke-linecap:round;stroke-linejoin:round;stroke-miterlimit:10;} .st23{fill:#E5F8FF;stroke:#45413C;stroke-linecap:round;stroke-linejoin:round;stroke-miterlimit:10;} .st24{fill:#BF8256;stroke:#45413C;stroke-linecap:round;stroke-linejoin:round;stroke-miterlimit:10;} .st25{fill:#9CEB60;} .st26{fill:#6DD627;} .st27{fill:#C8FFA1;} .st28{fill:#FFFACF;} .st29{fill:#FF87AF;} .st30{fill:#FFB0CA;} .st31{fill:#FF6196;} .st32{fill:#FFCCDD;stroke:#45413C;stroke-linecap:round;stroke-linejoin:round;stroke-miterlimit:10;} .st33{fill:#FF6196;stroke:#45413C;stroke-linecap:round;stroke-linejoin:round;stroke-miterlimit:10;} .st34{fill:#FFE5EE;} .st35{fill:#00B8F0;} .st36{fill:#4ACFFF;} .st37{fill:#BF8256;} .st38{fill:#DEA47A;} .st39{fill:#915E3A;} .st40{fill:#FFF5E3;} .st41{fill:#F0F0F0;} .st42{fill:#8CA4B8;} .st43{fill:#627B8C;} .st44{fill:#C0DCEB;} .st45{fill:#FFF48C;} .st46{fill:#FFE500;stroke:#45413C;stroke-linecap:round;stroke-linejoin:round;stroke-miterlimit:10;} .st47{fill:#FFAA54;} .st48{fill:#6DD627;stroke:#45413C;stroke-linecap:round;stroke-linejoin:round;stroke-miterlimit:10;} .st49{fill:#FF8A14;} .st50{fill:#FFCC99;} .st51{fill:#EBCB00;stroke:#45413C;stroke-linecap:round;stroke-linejoin:round;stroke-miterlimit:10;} .st52{fill:#00F5BC;stroke:#45413C;stroke-linecap:round;stroke-linejoin:round;stroke-miterlimit:10;} .st53{fill:#BF8DF2;stroke:#45413C;stroke-linecap:round;stroke-linejoin:round;stroke-miterlimit:10;} .st54{fill:#FF8A14;stroke:#45413C;stroke-linecap:round;stroke-linejoin:round;stroke-miterlimit:10;} .st55{fill:#4AEFF7;stroke:#45413C;stroke-linecap:round;stroke-linejoin:round;stroke-miterlimit:10;} .st56{fill:#FFF48C;stroke:#45413C;stroke-linecap:round;stroke-linejoin:round;stroke-miterlimit:10;} .st57{fill:#FF6242;} .st58{fill:#E04122;} .st59{fill:#46B000;} .st60{fill:none;stroke:#45413C;stroke-miterlimit:10;} .st61{fill:#00B8F0;stroke:#45413C;stroke-linecap:round;stroke-linejoin:round;stroke-miterlimit:10;} .st62{fill:#FF866E;} .st63{fill:#9F5AE5;stroke:#45413C;stroke-linecap:round;stroke-linejoin:round;stroke-miterlimit:10;} .st64{fill:#E4FFD1;} .st65{fill:#FFFEF2;} .st66{fill:#B89558;} .st67{fill:none;stroke:#915E3A;stroke-linecap:round;stroke-linejoin:round;stroke-miterlimit:10;} .st68{fill:#915E3A;stroke:#45413C;stroke-linecap:round;stroke-linejoin:round;stroke-miterlimit:10;} .st69{fill:#BF8DF2;} .st70{fill:#9F5AE5;} .st71{fill:#DABFF5;} .st72{fill:none;stroke:#45413C;stroke-linejoin:round;stroke-miterlimit:10;} .st73{fill:#656769;} .st74{fill:#87898C;} .st75{fill:#E0E0E0;} .st76{fill:#BDBEC0;} .st77{fill:#656769;stroke:#45413C;stroke-linecap:round;stroke-linejoin:round;stroke-miterlimit:10;} .st78{fill:#45413C;stroke:#45413C;stroke-linecap:round;stroke-linejoin:round;stroke-miterlimit:10;} .st79{fill:#FFA694;} .st80{fill:#E04122;stroke:#45413C;stroke-linecap:round;stroke-linejoin:round;stroke-miterlimit:10;} .st81{fill:#E0E0E0;stroke:#45413C;stroke-linecap:round;stroke-linejoin:round;stroke-miterlimit:10;} .st82{fill:#F0F0F0;stroke:#45413C;stroke-linecap:round;stroke-linejoin:round;stroke-miterlimit:10;} .st83{fill:#DAEDF7;} .st84{fill:#BDBEC0;stroke:#45413C;stroke-linecap:round;stroke-linejoin:round;stroke-miterlimit:10;} .st85{fill:#87898C;stroke:#45413C;stroke-linecap:round;stroke-linejoin:round;stroke-miterlimit:10;} .st86{fill:#00DFEB;} .st87{fill:#4AEFF7;} .st88{fill:#DAEDF7;stroke:#45413C;stroke-linecap:round;stroke-linejoin:round;stroke-miterlimit:10;} .st89{fill:#FFDA8F;} .st90{fill:#FFBE3D;} .st91{fill:#FFE9BD;} .st92{fill:#DEA47A;stroke:#45413C;stroke-linecap:round;stroke-linejoin:round;stroke-miterlimit:10;} .st93{fill:#45413C;} .st94{fill:#F0C2A1;} .st95{fill:none;stroke:#45413C;stroke-width:1.0064;stroke-linecap:round;stroke-linejoin:round;stroke-miterlimit:10;} .st96{fill:#525252;} .st97{fill:#EB6D00;stroke:#45413C;stroke-linecap:round;stroke-linejoin:round;stroke-miterlimit:10;} .st98{fill:#EB6D00;} .st99{fill:#E5FEFF;} .st100{fill:#FF866E;stroke:#45413C;stroke-linecap:round;stroke-linejoin:round;stroke-miterlimit:10;} .st101{fill:#627B8C;stroke:#45413C;stroke-linecap:round;stroke-linejoin:round;stroke-miterlimit:10;} .st102{fill:#FFFCE5;stroke:#45413C;stroke-linecap:round;stroke-linejoin:round;stroke-miterlimit:10;} .st103{fill:#A6FBFF;} .st104{fill:#D9FDFF;} .st105{fill:#FFFACF;stroke:#45413C;stroke-linecap:round;stroke-linejoin:round;stroke-miterlimit:10;} .st106{fill:#B8ECFF;} .st107{fill:#FFCABF;} .st108{fill:#E5FFF9;} .st109{fill:#C8FFA1;stroke:#45413C;stroke-linecap:round;stroke-linejoin:round;stroke-miterlimit:10;} .st110{fill:#4CF4FC;} .st111{fill:#F0D5A8;stroke:#45413C;stroke-linecap:round;stroke-linejoin:round;stroke-miterlimit:10;} .st112{fill:#FFDCD1;stroke:#45413C;stroke-linecap:round;stroke-linejoin:round;stroke-miterlimit:10;} .st113{fill:#80DDFF;} .st114{fill:#46B000;stroke:#45413C;stroke-linecap:round;stroke-linejoin:round;stroke-miterlimit:10;} .st115{fill:#4ACFFF;stroke:#45413C;stroke-linecap:round;stroke-linejoin:round;stroke-miterlimit:10;} .st116{fill:#ADC4D9;} .st117{fill:#BDBEC0;stroke:#45413C;stroke-width:1.0064;stroke-linecap:round;stroke-linejoin:round;stroke-miterlimit:10;} .st118{fill:#FFFCE5;} .st119{fill:#947746;} .st120{fill:#525252;stroke:#45413C;stroke-linecap:round;stroke-linejoin:round;stroke-miterlimit:10;}</style><symbol id="New_Symbol_14" viewBox="-6.5 -6.5 13 13"><path class="st0" d="M0-6c2.2 0 4.1 1.5 4.7 3.5C6.3-2.5 6.4 0 5 0v1c0 2.8-2.2 5-5 5s-5-2.2-5-5V0c-1.4 0-1.3-2.5.2-2.5C-4.1-4.5-2.2-6 0-6z" fill="#FFD4C3" stroke="#504B46" stroke-linecap="round" stroke-linejoin="round" stroke-miterlimit="10"/><circle class="st1" cx="-1.6" cy="-0.1" r="0.1" fill="#FFC258"/><path class="st2" d="M-1.6.5c-.3 0-.6-.3-.6-.6s.2-.7.6-.7c.3 0 .6.3.6.7s-.3.6-.6.6z" fill="#4F4B45"/><circle class="st1" cx="1.6" cy="-0.1" r="0.1" fill="#FFC258"/><path class="st2" d="M1.6.5C1.3.5 1 .2 1-.1s.3-.6.6-.6.6.3.6.6-.2.6-.6.6z" fill="#4F4B45"/><circle class="st3" cx="-3" cy="-1.5" r="0.5" fill="#FABFA5"/><circle class="st3" cx="3" cy="-1.5" r="0.5" fill="#FABFA5"/><path class="st4" d="M-1.2-3c.8-.5 1.7-.5 2.5 0" fill="none" stroke="#504B46" stroke-linecap="round" stroke-linejoin="round" stroke-miterlimit="10"/></symbol><g id="Icons"><g id="XMLID_1806_"><ellipse id="XMLID_2346_" class="st5" cx="21.4" cy="45.1" rx="13" ry="1.5" fill="#45413C" opacity="0.15"/><path id="XMLID_2345_" class="st11" d="M28.5 38.3H7c-1.7 0-3-1.3-3-3v-16c0-1.7 1.3-3 3-3h21.5c1.7 0 3 1.3 3 3v16c0 1.6-1.4 3-3 3z" fill="#FFE500"/><path id="XMLID_2344_" class="st45" d="M28.5 16.3H7c-1.7 0-3 1.3-3 3v4c0-1.7 1.3-3 3-3h21.5c1.7 0 3 1.3 3 3v-4c0-1.7-1.4-3-3-3z" fill="#FFF48C"/><path id="XMLID_2343_" class="st10" d="M28.5 38.3H7c-1.7 0-3-1.3-3-3v-16c0-1.7 1.3-3 3-3h21.5c1.7 0 3 1.3 3 3v16c0 1.6-1.4 3-3 3z" fill="none" stroke="#45413C" stroke-linecap="round" stroke-linejoin="round" stroke-miterlimit="10"/><path id="XMLID_2342_" class="st83" d="M17.7 1.3C11.8 1.3 7 6.1 7 12v4.2h4.5V12c0-3.5 2.8-6.2 6.3-6.2S24 8.6 24 12v4.2h4.5V12c0-5.9-4.8-10.7-10.8-10.7z" fill="#DAEDF7"/><path id="XMLID_2341_" class="st17" d="M17.7 1.3C11.8 1.3 7 6.1 7 12v2.5C7 8.6 11.8 3.8 17.7 3.8s10.8 4.8 10.8 10.8V12c0-5.9-4.8-10.7-10.8-10.7z" fill="#FFF"/><path id="XMLID_2340_" class="st10" d="M17.7 1.3C11.8 1.3 7 6.1 7 12v4.2h4.5V12c0-3.5 2.8-6.2 6.3-6.2S24 8.6 24 12v4.2h4.5V12c0-5.9-4.8-10.7-10.8-10.7z" fill="none" stroke="#45413C" stroke-linecap="round" stroke-linejoin="round" stroke-miterlimit="10"/><path id="XMLID_2337_" class="st47" d="M41.8 23.9c-2.9-2.9-7.7-2.9-10.6 0-2.3 2.3-2.8 5.7-1.5 8.5L20.2 42c-.2.2-.3.5-.3.8l.2 1.9c.1.5.4.8.9.9l1.9.2c.3 0 .6-.1.8-.3l1.1-1.1c.2-.2.3-.4.3-.7v-1h1c.3 0 .5-.1.7-.3l.9-.9c.2-.2.3-.4.3-.7v-.6c0-.3.1-.5.3-.7l1.2-1.2c.2-.2.4-.3.7-.3h.6c.3 0 .5-.1.7-.3l1.7-1.7c2.8 1.3 6.2.8 8.5-1.5 3-2.9 3-7.7.1-10.6zm-3.5 3.5c-.6-.6-.6-1.5 0-2.1.6-.6 1.5-.6 2.1 0 .6.6.6 1.5 0 2.1-.6.6-1.5.6-2.1 0z" fill="#FFAA54"/><g id="XMLID_2334_"><path id="XMLID_2336_" class="st50" d="M31.2 27.1c2-2 4.8-2.6 7.3-1.9.6-.4 1.4-.4 1.9.2.3.3.4.6.4.9.4.2.7.5 1 .8 1.1 1.1 1.7 2.4 2 3.7.5-2.4-.2-5-2-6.9-2.9-2.9-7.7-2.9-10.6 0-1.9 1.9-2.5 4.5-2 6.9.3-1.4 1-2.7 2-3.7z" fill="#FC9"/><path id="XMLID_2335_" class="st50" d="M20.3 45.1l9.5-9.5c-.4-.8-.6-1.6-.7-2.5L20.2 42c-.2.2-.3.5-.3.8l.2 1.9c.1.1.1.2.2.4z" fill="#FC9"/></g><path id="XMLID_2331_" class="st10" d="M41.8 23.9c-2.9-2.9-7.7-2.9-10.6 0-2.3 2.3-2.8 5.7-1.5 8.5L20.2 42c-.2.2-.3.5-.3.8l.2 1.9c.1.5.4.8.9.9l1.9.2c.3 0 .6-.1.8-.3l1.1-1.1c.2-.2.3-.4.3-.7v-1h1c.3 0 .5-.1.7-.3l.9-.9c.2-.2.3-.4.3-.7v-.6c0-.3.1-.5.3-.7l1.2-1.2c.2-.2.4-.3.7-.3h.6c.3 0 .5-.1.7-.3l1.7-1.7c2.8 1.3 6.2.8 8.5-1.5 3-2.9 3-7.7.1-10.6zm-3.5 3.5c-.6-.6-.6-1.5 0-2.1.6-.6 1.5-.6 2.1 0 .6.6.6 1.5 0 2.1-.6.6-1.5.6-2.1 0z" fill="none" stroke="#45413C" stroke-linecap="round" stroke-linejoin="round" stroke-miterlimit="10"/><path id="XMLID_2330_" class="st10" fill="none" stroke="#45413C" stroke-linecap="round" stroke-linejoin="round" stroke-miterlimit="10" d="M20.3 44.8l9.1-9.2"/></g></g></svg>
