<svg xmlns:xlink="http://www.w3.org/1999/xlink" width="32pt" height="32pt" viewBox="0 0 32 32" version="1.1" id="WarningSignIcon">
  <g>
    <path d="M 31.488281 24.710938 L 19.257812 3.527344 C 18.578125 2.347656 17.359375 1.644531 16 1.644531 C 14.640625 1.644531 13.421875 2.347656 12.742188 3.527344 L 0.511719 24.710938 C -0.171875 25.890625 -0.171875 27.296875 0.511719 28.472656 C 1.191406 29.652344 2.410156 30.355469 3.769531 30.355469 L 28.230469 30.355469 C 29.589844 30.355469 30.808594 29.652344 31.488281 28.472656 C 32.171875 27.296875 32.171875 25.890625 31.488281 24.710938 Z M 29.867188 27.535156 C 29.523438 28.128906 28.914062 28.480469 28.230469 28.480469 L 3.769531 28.480469 C 3.085938 28.480469 2.476562 28.128906 2.132812 27.535156 C 1.792969 26.945312 1.792969 26.238281 2.132812 25.648438 L 14.363281 4.464844 C 14.707031 3.871094 15.316406 3.519531 16 3.519531 C 16.683594 3.519531 17.292969 3.871094 17.636719 4.464844 L 29.867188 25.648438 C 30.207031 26.238281 30.207031 26.945312 29.867188 27.535156 Z M 29.867188 27.535156 "></path>
    <path d="M 15.0625 11 L 16.9375 11 L 16.9375 20.375 L 15.0625 20.375 Z M 15.0625 11 "></path>
    <path d="M 16 22.25 C 15.3125 22.25 14.75 22.808594 14.75 23.5 C 14.75 24.1875 15.3125 24.75 16 24.75 C 16.6875 24.75 17.25 24.1875 17.25 23.5 C 17.25 22.808594 16.6875 22.25 16 22.25 Z M 16 22.25 "></path>
  </g>
</svg>
